<svg xmlns="http://www.w3.org/2000/svg" width="608" height="160" viewBox="0 0 608 160" version="1.1"><path d="M 70.500 1.411 C 59.810 3.365, 55.230 4.843, 46.300 9.219 C 26.276 19.034, 10.220 38.476, 4.363 60 C 1.592 70.183, 1.859 91.219, 4.882 100.936 C 8.804 113.542, 14.183 123.273, 22.332 132.500 L 25.864 136.500 30.083 132.334 L 34.302 128.168 29.611 122.834 C 24.387 116.893, 17.913 104.469, 15.550 95.846 C 13.320 87.712, 13.498 71.251, 15.906 62.830 C 19.356 50.765, 24.940 41.245, 33.605 32.657 C 40.513 25.810, 45.427 22.288, 53 18.756 C 63.915 13.665, 69.498 12.564, 84 12.642 C 95.778 12.707, 98.457 13.044, 105 15.290 C 117.087 19.440, 123.806 23.654, 133.109 32.923 C 139.921 39.711, 142.505 43.144, 145.493 49.384 C 152.103 63.187, 152.963 68.390, 152.983 94.691 C 152.992 107.446, 153.393 118.125, 153.872 118.421 C 155.009 119.124, 159.591 108.860, 162.227 99.706 C 164.968 90.189, 165.149 70.605, 162.586 61 C 160.236 52.199, 153.069 37.704, 147.751 31 C 138.713 19.604, 122.378 8.380, 109.090 4.434 C 96.326 0.644, 81.188 -0.542, 70.500 1.411 M 69.225 20.526 C 51.890 24.279, 35.687 36.890, 27.374 53.098 C 10.131 86.717, 29.487 128.534, 66.696 138.050 C 80.324 141.535, 97.135 140.180, 110.250 134.539 C 113.144 133.294, 112.682 140.524, 109.750 142.372 C 102.028 147.241, 78.363 148.930, 66 145.495 C 58.301 143.356, 48.175 138.973, 43.899 135.928 L 40.840 133.750 36.920 137.578 C 34.764 139.683, 33.004 141.652, 33.009 141.953 C 33.024 142.894, 44.261 149.771, 49.500 152.046 C 60.163 156.676, 67.187 158.177, 80.500 158.672 C 92.080 159.103, 94.538 158.884, 103 156.670 C 108.225 155.303, 115.107 152.976, 118.292 151.499 L 124.085 148.815 123.792 108.657 L 123.500 68.500 120.236 62.500 C 112.182 47.694, 99.457 40, 83.022 40 C 74.220 40, 67.804 41.853, 60.446 46.519 C 48.623 54.017, 42.041 66.072, 42.012 80.282 C 41.981 95.342, 50.778 108.931, 64.982 115.765 C 78.357 122.201, 93.311 121.340, 105.688 113.423 C 108.631 111.540, 111.280 110, 111.574 110 C 111.869 110, 111.972 112.126, 111.805 114.724 C 111.525 119.067, 111.177 119.633, 107.500 121.727 C 92.521 130.260, 73.197 129.981, 57.506 121.003 C 50.233 116.842, 41.947 107.746, 37.919 99.500 C 34.558 92.618, 34.500 92.281, 34.515 79.500 C 34.529 66.690, 34.580 66.398, 37.999 59.500 C 44.514 46.352, 56.388 36.803, 71 32.959 L 77.500 31.249 77.500 25.458 C 77.500 22.273, 77.050 19.554, 76.500 19.417 C 75.950 19.280, 72.676 19.779, 69.225 20.526 M 87 25 C 87 30.686, 87.127 30.991, 89.750 31.585 C 103.399 34.678, 110.070 38.073, 118.212 46.071 C 125.639 53.367, 130.223 61.632, 131.979 70.891 C 132.544 73.867, 133 90.965, 133 109.136 C 133 127.211, 133.324 142, 133.721 142 C 134.118 142, 137.043 139.427, 140.221 136.281 L 146 130.563 145.994 106.031 C 145.985 69.638, 144.078 60.013, 133.872 44.858 C 125.302 32.133, 107.866 21.695, 91.750 19.643 L 87 19.038 87 25 M 76.332 52.903 C 67.863 55.071, 59.537 62.410, 56.488 70.392 C 54.338 76.021, 54.877 86.729, 57.573 91.961 C 62.744 101.994, 73.274 107.602, 85.323 106.740 C 93.234 106.175, 96.521 104.814, 102.651 99.567 C 116.689 87.551, 113.169 63.759, 96.062 55.032 C 91.744 52.829, 81.104 51.681, 76.332 52.903 M 301.728 141.722 C 303.503 141.943, 306.653 141.946, 308.728 141.730 C 310.802 141.513, 309.350 141.333, 305.500 141.328 C 301.650 141.324, 299.952 141.501, 301.728 141.722 M 339.768 141.725 C 341.565 141.947, 344.265 141.943, 345.768 141.715 C 347.271 141.486, 345.800 141.304, 342.500 141.310 C 339.200 141.315, 337.971 141.502, 339.768 141.725 M 374.768 141.725 C 376.565 141.947, 379.265 141.943, 380.768 141.715 C 382.271 141.486, 380.800 141.304, 377.500 141.310 C 374.200 141.315, 372.971 141.502, 374.768 141.725 M 477.728 141.722 C 479.503 141.943, 482.653 141.946, 484.728 141.730 C 486.802 141.513, 485.350 141.333, 481.500 141.328 C 477.650 141.324, 475.952 141.501, 477.728 141.722 M 593.750 141.723 C 595.538 141.945, 598.462 141.945, 600.250 141.723 C 602.038 141.502, 600.575 141.320, 597 141.320 C 593.425 141.320, 591.962 141.502, 593.750 141.723" stroke="none" fill="#f4fcfc" fill-rule="evenodd"/><path d="M 326 23.568 L 326 37.136 323.168 35.120 C 316.855 30.624, 309.951 28.675, 300.500 28.717 C 292.874 28.752, 290.647 29.164, 285.915 31.418 C 278.028 35.174, 271.662 41.365, 267.959 48.880 C 264.998 54.889, 264.838 55.788, 265.198 64.380 C 265.655 75.274, 267.791 80.425, 274.812 87.562 C 282.842 95.725, 293.005 99.097, 306.103 97.945 C 318.014 96.897, 327.991 90.028, 334.185 78.610 L 337.500 72.500 337.814 41.250 L 338.129 10 332.064 10 L 326 10 326 23.568 M 572.197 41.250 C 572.490 71.471, 572.576 72.658, 574.798 77.300 C 577.556 83.061, 583.118 89.418, 588.218 92.638 C 592.596 95.402, 599.562 97.965, 602.750 97.985 C 604.801 97.999, 605 97.533, 605 92.718 L 605 87.437 600.578 86.131 C 594.592 84.363, 588.225 78.679, 585.374 72.556 C 583.292 68.086, 583.018 66.027, 583.010 54.788 L 583 42.075 592.250 41.788 L 601.500 41.500 601.805 36.750 L 602.110 32 592.555 32 L 583 32 583 21 L 583 10 577.447 10 L 571.895 10 572.197 41.250 M 369.801 28.972 C 358.889 30.941, 347.011 41.009, 343.023 51.669 C 337.669 65.977, 343.295 82.915, 356.394 91.927 C 362.846 96.366, 368.463 97.969, 377.624 97.985 C 386.380 98.001, 391.413 96.658, 397.866 92.585 C 400.118 91.163, 402.194 90, 402.480 90 C 402.766 90, 403 91.350, 403 93 C 403 95.973, 403.049 96, 408.555 96 L 414.110 96 413.805 74.750 C 413.514 54.466, 413.387 53.273, 411.024 48.500 C 403.928 34.171, 386.565 25.946, 369.801 28.972 M 446.932 28.953 C 434.593 31.193, 423.283 41.242, 419.545 53.288 C 418.189 57.657, 417.973 62.867, 418.213 85.500 L 418.500 112.500 424 112.500 L 429.500 112.500 430 101.234 L 430.500 89.968 434.179 92.472 C 440.629 96.861, 446.462 98.262, 456.458 97.823 C 467.187 97.351, 472.902 95.017, 480.350 88.066 C 487.729 81.179, 490.295 75.355, 490.647 64.693 C 490.972 54.847, 489.733 50.432, 484.602 43.167 C 480.958 38.008, 473.818 32.553, 468.041 30.515 C 462.686 28.625, 452.775 27.892, 446.932 28.953 M 523.420 28.868 C 517.306 29.949, 508.392 34.851, 504.127 39.478 C 502.045 41.737, 499.027 46.265, 497.421 49.542 L 494.500 55.500 494.500 84 L 494.500 112.500 500 112.500 L 505.500 112.500 505.783 101.250 C 505.938 95.063, 506.285 90, 506.554 90 C 506.823 90, 508.721 91.107, 510.771 92.461 C 516.867 96.485, 522.578 98, 531.648 98 C 538.781 98, 540.981 97.568, 546.272 95.128 C 554.685 91.249, 559.974 86.394, 564.032 78.826 C 567.163 72.985, 567.425 71.808, 567.439 63.484 C 567.453 55.532, 567.121 53.821, 564.628 48.984 C 558.443 36.986, 547.478 29.586, 534.500 28.651 C 530.650 28.373, 525.664 28.471, 523.420 28.868 M 210.632 31.414 C 201.776 35.125, 195.235 41.344, 191.184 49.903 C 187.414 57.872, 187.445 69.109, 191.260 77.013 C 200.975 97.142, 226.167 104.162, 245.250 92.057 L 250 89.044 250 92.522 L 250 96 255.587 96 L 261.175 96 260.787 75.250 C 260.438 56.583, 260.181 54.022, 258.231 49.741 C 255.217 43.124, 248.124 35.889, 241.278 32.447 C 236.323 29.957, 234.147 29.501, 226 29.249 C 217.760 28.994, 215.722 29.281, 210.632 31.414 M 216 40.859 C 209.813 43.115, 202.461 50.580, 200.959 56.132 C 199.129 62.899, 200.299 71.541, 203.700 76.381 C 212.182 88.450, 230.330 90.623, 241.384 80.894 C 247.146 75.821, 249.250 71.180, 249.250 63.541 C 249.250 56.677, 246.698 50.469, 242.170 46.320 C 235.477 40.186, 224.264 37.847, 216 40.859 M 293.042 40.656 C 286.910 42.802, 282.396 46.471, 279.200 51.906 C 276.950 55.735, 276.504 57.666, 276.526 63.500 C 276.555 71.204, 278.011 74.897, 283.054 80.055 C 292.806 90.032, 310.979 89.621, 320.113 79.218 C 324.404 74.332, 326 70.069, 326 63.500 C 326 53.526, 320.986 45.879, 311.500 41.387 C 305.675 38.629, 299.529 38.385, 293.042 40.656 M 370.826 39.979 C 355.118 44.721, 347.759 62.165, 355.906 75.348 C 360.706 83.114, 368.158 87.167, 377.734 87.217 C 396.840 87.318, 408.934 67.507, 399.546 51.487 C 394.041 42.095, 381.055 36.891, 370.826 39.979 M 443.106 42.033 C 433.969 47.029, 430 53.531, 430 63.500 C 430 73.702, 435.216 81.495, 444.787 85.594 C 453.546 89.345, 466.454 86.692, 473.056 79.784 C 480.232 72.275, 481.794 60.424, 476.742 51.815 C 469.884 40.131, 454.674 35.707, 443.106 42.033 M 520.565 41.488 C 513.910 44.874, 511.174 47.570, 508.377 53.500 C 500.947 69.257, 512.595 87.070, 530.418 87.206 C 538.235 87.266, 543.936 85.104, 548.819 80.228 C 554.123 74.931, 556.143 70.318, 556.143 63.500 C 556.143 50.227, 546.044 40.120, 532 39.339 C 526.585 39.038, 524.676 39.396, 520.565 41.488 M 437.826 123.661 C 432.246 127.230, 431.348 134.502, 435.923 139.077 C 439.024 142.178, 440.003 142.372, 447.409 141.357 L 452.098 140.715 451.799 136.107 L 451.500 131.500 447 131.500 C 443.729 131.500, 442.500 131.897, 442.500 132.955 C 442.500 133.755, 443.499 134.655, 444.720 134.955 C 447.995 135.759, 446 138.243, 442.410 137.830 C 436.969 137.205, 436.368 127.699, 441.684 126.364 C 443.707 125.857, 444.751 126.209, 446.079 127.849 C 448.215 130.487, 451 130.660, 451 128.155 C 451 123.483, 442.590 120.614, 437.826 123.661 M 555 123.232 C 553.625 123.938, 551.698 126.153, 550.717 128.155 C 549.061 131.534, 549.047 132.077, 550.521 135.761 C 552.999 141.955, 559.356 143.868, 564.365 139.927 C 565.919 138.705, 567 136.859, 567 135.427 C 567 132.259, 564.691 132.297, 562.592 135.500 C 560.603 138.535, 556.520 138.841, 555.035 136.066 C 553.455 133.114, 553.797 129.494, 555.829 127.655 C 558.280 125.437, 560.713 125.568, 562.232 128 C 563.817 130.537, 567 130.641, 567 128.155 C 567 123.906, 559.600 120.870, 555 123.232 M 195.667 123.667 C 194.863 124.470, 194.765 140.431, 195.558 141.225 C 195.865 141.531, 196.990 141.554, 198.058 141.275 C 199.797 140.820, 200 139.837, 200 131.883 C 200 123.936, 199.807 123, 198.167 123 C 197.158 123, 196.033 123.300, 195.667 123.667 M 223 132 C 223 140.333, 223.148 141, 225 141 C 226.768 141, 227 140.333, 227 135.255 L 227 129.511 230.646 135.255 C 233.396 139.589, 234.870 141, 236.646 141 C 238.944 141, 239 140.785, 239 132 C 239 123.747, 238.838 123, 237.052 123 C 235.408 123, 235.057 123.817, 234.802 128.250 L 234.500 133.500 231.082 128.250 C 228.572 124.395, 227.044 123, 225.332 123 C 223.062 123, 223 123.240, 223 132 M 261 125 C 261 126.467, 261.667 127, 263.500 127 C 265.929 127, 266 127.200, 266 134 C 266 140.800, 266.071 141, 268.500 141 C 270.926 141, 271 140.796, 271 134.066 C 271 127.251, 271.047 127.127, 273.741 126.816 C 275.395 126.626, 276.615 125.805, 276.815 124.750 C 277.109 123.200, 276.222 123, 269.073 123 C 261.667 123, 261 123.165, 261 125 M 298 132 L 298 141 305.500 141 C 311.500 141, 313 140.700, 313 139.500 C 313 138.367, 311.778 138, 308 138 C 303.667 138, 303 137.733, 303 136 C 303 134.296, 303.667 134, 307.500 134 C 311.333 134, 312 133.704, 312 132 C 312 130.296, 311.333 130, 307.500 130 C 304.167 130, 303 129.611, 303 128.500 C 303 127.367, 304.222 127, 308 127 C 312.333 127, 313 126.733, 313 125 C 313 123.178, 312.333 123, 305.500 123 L 298 123 298 132 M 335.667 123.667 C 334.954 124.380, 334.720 140.384, 335.413 141.083 C 335.640 141.313, 338.790 141.349, 342.413 141.165 C 347.267 140.918, 349 140.457, 349 139.415 C 349 138.405, 347.713 138, 344.500 138 L 340 138 340 130.500 C 340 123.894, 339.781 123, 338.167 123 C 337.158 123, 336.033 123.300, 335.667 123.667 M 371 132 L 371 141 377 141 C 380.300 141, 383.331 141.113, 383.736 141.250 C 384.141 141.387, 384.624 140.713, 384.810 139.750 C 385.095 138.269, 384.367 138, 380.073 138 L 375 138 375 130.500 C 375 123.667, 374.822 123, 373 123 C 371.148 123, 371 123.667, 371 132 M 406 132 C 406 140.933, 406.019 141, 408.500 141 C 410.981 141, 411 140.933, 411 132 C 411 123.067, 410.981 123, 408.500 123 C 406.019 123, 406 123.067, 406 132 M 474.667 123.667 C 474.300 124.033, 474 128.083, 474 132.667 L 474 141 481.500 141 C 487.500 141, 489 140.700, 489 139.500 C 489 138.367, 487.778 138, 484 138 C 479.667 138, 479 137.733, 479 136 C 479 134.296, 479.667 134, 483.500 134 C 487.333 134, 488 133.704, 488 132 C 488 130.296, 487.333 130, 483.500 130 C 480.242 130, 479 129.601, 479 128.555 C 479 127.541, 480.414 127.019, 483.741 126.805 C 487.313 126.575, 488.564 126.069, 488.814 124.750 C 489.105 123.220, 488.278 123, 482.240 123 C 478.441 123, 475.033 123.300, 474.667 123.667 M 511 132 C 511 140.933, 511.019 141, 513.500 141 C 515.806 141, 516 140.641, 516 136.378 C 516 132.382, 516.203 131.924, 517.500 133 C 518.325 133.685, 519 134.658, 519 135.163 C 519 135.668, 519.945 137.359, 521.100 138.921 C 522.520 140.843, 523.813 141.600, 525.100 141.264 C 526.787 140.822, 527 139.771, 527 131.883 C 527 123.746, 526.836 123, 525.052 123 C 523.408 123, 523.057 123.817, 522.802 128.241 L 522.500 133.483 519.146 128.241 C 516.631 124.311, 515.192 123, 513.396 123 C 511.046 123, 511 123.171, 511 132 M 590 131.956 L 590 141 597.583 141 C 603.203 141, 605.060 140.676, 604.755 139.750 C 604.515 139.021, 602.186 138.374, 599.171 138.198 C 594.871 137.946, 594 137.577, 594 136.003 C 594 134.454, 594.863 134.054, 598.741 133.805 C 602.313 133.575, 603.564 133.069, 603.814 131.750 C 604.095 130.270, 603.365 130, 599.073 130 C 595.312 130, 594 129.626, 594 128.552 C 594 127.511, 595.473 127.020, 599.250 126.802 C 603.116 126.580, 604.500 126.104, 604.500 125 C 604.500 123.832, 602.897 123.435, 597.250 123.206 L 590 122.912 590 131.956" stroke="none" fill="#f4f4f4" fill-rule="evenodd"/></svg>