<svg width="26" height="26" viewBox="0 0 24 24" fill="none" xmlns="http://www.w3.org/2000/svg">
    <path
        d="M22.0349 22H2.96512C2.57419 22 2.25 21.66 2.25 21.25C2.25 20.84 2.57419 20.5 2.96512 20.5H22.0349C22.4258 20.5 22.75 20.84 22.75 21.25C22.75 21.66 22.4258 22 22.0349 22Z"
        fill="#00937D" />
    <path
        d="M11 4.28854V21H14V4.28854C14 2.87449 13.7 3.00304 12.8 3.00304H12.2C11.3 3.00304 11 2.87449 11 4.28854Z"
        fill="#00937D" />
    <path
        d="M4 8.99993V21.9999H7V8.99993C7 7.89993 6.7 7.99993 5.8 7.99993H5.2C4.3 7.99993 4 7.89993 4 8.99993Z"
        fill="#00937D" />
    <path
        d="M18 11.7159V21H21V11.7159C21 10.9303 20.7 11.0017 19.8 11.0017H19.2C18.3 11.0017 18 10.9303 18 11.7159Z"
        fill="#00937D" />
</svg>