<svg width="22" height="22" viewBox="0 0 22 22" fill="none" xmlns="http://www.w3.org/2000/svg">
<g clip-path="url(#clip0_3398_39562)">
<path d="M11.4594 5.49992H11.5511C12.7062 5.26257 13.7418 4.62852 14.4785 3.70769C15.2151 2.78686 15.6064 1.63729 15.5844 0.458258C15.5841 0.389414 15.5683 0.321526 15.5381 0.259635C15.5079 0.197744 15.4642 0.143441 15.4102 0.100758C15.3591 0.0568463 15.2989 0.024984 15.2338 0.00752977C15.1687 -0.00992443 15.1006 -0.0125236 15.0344 -7.52029e-05C13.8777 0.23756 12.8408 0.872956 12.104 1.79569C11.3672 2.71842 10.9769 3.87017 11.0011 5.05076C11.0011 5.17232 11.0493 5.28889 11.1353 5.37485C11.2213 5.4608 11.3378 5.50909 11.4594 5.50909V5.49992Z" fill="#303C42"/>
<path d="M19.8668 15.1525C19.1399 14.8548 18.5186 14.3466 18.0825 13.6933C17.6464 13.04 17.4155 12.2713 17.4193 11.4858C17.4194 10.7719 17.6065 10.0705 17.9619 9.4513C18.3173 8.83213 18.8287 8.31683 19.4451 7.95667C19.5045 7.92245 19.5555 7.87535 19.5942 7.81884C19.633 7.76232 19.6586 7.69782 19.6692 7.6301C19.6797 7.56238 19.675 7.49315 19.6552 7.42751C19.6355 7.36187 19.6013 7.3015 19.5551 7.25083C19.0468 6.70514 18.4328 6.26853 17.7504 5.96755C17.0681 5.66656 16.3317 5.50749 15.5859 5.5C14.8465 5.51594 14.1175 5.67794 13.4409 5.97667C12.8169 6.25403 12.1437 6.40364 11.4609 6.41667C10.7782 6.40364 10.1049 6.25403 9.48094 5.97667C8.80435 5.67794 8.07537 5.51594 7.33594 5.5C6.77677 5.5 1.83594 5.68333 1.83594 11.9167C1.83594 17.0133 5.31927 22 7.33594 22C8.22375 22.01 9.10297 21.8254 9.91177 21.4592C10.3953 21.2246 10.9236 21.0964 11.4609 21.0833C11.9983 21.0964 12.5265 21.2246 13.0101 21.4592C13.8189 21.8254 14.6981 22.01 15.5859 22C17.2268 22 19.1609 18.7642 20.1693 15.73C20.1877 15.6722 20.1945 15.6114 20.1892 15.551C20.1839 15.4906 20.1667 15.4318 20.1386 15.3781C20.1105 15.3244 20.072 15.2768 20.0253 15.2381C19.9786 15.1993 19.9248 15.1703 19.8668 15.1525Z" fill="#303C42"/>
</g>
<defs>
<clipPath id="clip0_3398_39562">
<rect width="22" height="22" fill="white"/>
</clipPath>
</defs>
</svg>
