<svg width="60" height="60" viewBox="0 0 60 60" fill="none" xmlns="http://www.w3.org/2000/svg">
<g filter="url(#filter0_d_1067_45864)">
<circle cx="30" cy="28" r="14" fill="url(#paint0_linear_1067_45864)"/>
<circle cx="30" cy="28" r="14.5" stroke="white"/>
</g>
<path d="M27.4998 19.666C25.3165 19.666 23.5415 21.441 23.5415 23.6243C23.5415 25.766 25.2165 27.4993 27.3998 27.5743C27.4665 27.566 27.5332 27.566 27.5832 27.5743C27.5998 27.5743 27.6082 27.5743 27.6248 27.5743C27.6332 27.5743 27.6332 27.5743 27.6415 27.5743C29.7748 27.4993 31.4498 25.766 31.4582 23.6243C31.4582 21.441 29.6832 19.666 27.4998 19.666Z" fill="white"/>
<path d="M31.7333 29.7914C29.4083 28.2414 25.6166 28.2414 23.275 29.7914C22.2166 30.4997 21.6333 31.4581 21.6333 32.4831C21.6333 33.5081 22.2166 34.4581 23.2666 35.1581C24.4333 35.9414 25.9666 36.3331 27.5 36.3331C29.0333 36.3331 30.5666 35.9414 31.7333 35.1581C32.7833 34.4497 33.3666 33.4997 33.3666 32.4664C33.3583 31.4414 32.7833 30.4914 31.7333 29.7914Z" fill="white"/>
<path d="M36.6583 24.1171C36.7916 25.7337 35.6416 27.1504 34.05 27.3421C34.0416 27.3421 34.0416 27.3421 34.0333 27.3421H34.0083C33.9583 27.3421 33.9083 27.3421 33.8666 27.3587C33.0583 27.4004 32.3166 27.1421 31.7583 26.6671C32.6166 25.9004 33.1083 24.7504 33.0083 23.5004C32.95 22.8254 32.7166 22.2087 32.3666 21.6837C32.6833 21.5254 33.05 21.4254 33.425 21.3921C35.0583 21.2504 36.5166 22.4671 36.6583 24.1171Z" fill="white"/>
<path d="M38.3249 31.8247C38.2582 32.633 37.7415 33.333 36.8749 33.808C36.0415 34.2663 34.9915 34.483 33.9499 34.458C34.5499 33.9163 34.8999 33.2413 34.9665 32.5247C35.0499 31.4913 34.5582 30.4997 33.5749 29.708C33.0165 29.2663 32.3665 28.9163 31.6582 28.658C33.4999 28.1247 35.8165 28.483 37.2415 29.633C38.0082 30.2497 38.3999 31.0247 38.3249 31.8247Z" fill="white"/>
<defs>
<filter id="filter0_d_1067_45864" x="0" y="0" width="60" height="60" filterUnits="userSpaceOnUse" color-interpolation-filters="sRGB">
<feFlood flood-opacity="0" result="BackgroundImageFix"/>
<feColorMatrix in="SourceAlpha" type="matrix" values="0 0 0 0 0 0 0 0 0 0 0 0 0 0 0 0 0 0 127 0" result="hardAlpha"/>
<feOffset dy="2"/>
<feGaussianBlur stdDeviation="7.5"/>
<feComposite in2="hardAlpha" operator="out"/>
<feColorMatrix type="matrix" values="0 0 0 0 0 0 0 0 0 0 0 0 0 0 0 0 0 0 0.1 0"/>
<feBlend mode="normal" in2="BackgroundImageFix" result="effect1_dropShadow_1067_45864"/>
<feBlend mode="normal" in="SourceGraphic" in2="effect1_dropShadow_1067_45864" result="shape"/>
</filter>
<linearGradient id="paint0_linear_1067_45864" x1="30" y1="14" x2="30" y2="42" gradientUnits="userSpaceOnUse">
<stop stop-color="#333F45"/>
<stop offset="1" stop-color="#121A1E"/>
</linearGradient>
</defs>
</svg>
