<svg width="18" height="18" viewBox="0 0 18 18" fill="none" xmlns="http://www.w3.org/2000/svg">
<path d="M15.0758 5.20512C15.0758 5.61012 14.8583 5.97762 14.5133 6.16512L13.2083 6.87012L12.0983 7.46262L9.79578 8.70762C9.54828 8.84262 9.27828 8.91012 9.00078 8.91012C8.72328 8.91012 8.45328 8.84262 8.20578 8.70762L3.48828 6.16512C3.14328 5.97762 2.92578 5.61012 2.92578 5.20512C2.92578 4.80012 3.14328 4.43262 3.48828 4.24512L4.96578 3.45012L6.14328 2.81262L8.20578 1.70262C8.70078 1.43262 9.30078 1.43262 9.79578 1.70262L14.5133 4.24512C14.8583 4.43262 15.0758 4.80012 15.0758 5.20512Z" fill="white"/>
<path d="M7.42406 9.59273L3.03656 7.40273C2.69906 7.23023 2.30906 7.25273 1.98656 7.44773C1.66406 7.64273 1.47656 7.98773 1.47656 8.36273V12.5102C1.47656 13.2302 1.87406 13.8752 2.51906 14.1977L6.90656 16.3877C7.05656 16.4627 7.22156 16.5002 7.38656 16.5002C7.58156 16.5002 7.77656 16.4477 7.94906 16.3352C8.27156 16.1402 8.45906 15.7952 8.45906 15.4202V11.2727C8.46656 10.5602 8.06906 9.91523 7.42406 9.59273Z" fill="white"/>
<path d="M16.5232 8.36235V12.5099C16.5232 13.2224 16.1257 13.8674 15.4807 14.1899L11.0932 16.3874C10.9432 16.4624 10.7782 16.4999 10.6132 16.4999C10.4182 16.4999 10.2232 16.4474 10.0432 16.3349C9.7282 16.1399 9.5332 15.7949 9.5332 15.4199V11.2799C9.5332 10.5599 9.9307 9.91485 10.5757 9.59235L12.1882 8.78985L13.3132 8.22735L14.9632 7.40235C15.3007 7.22985 15.6907 7.24485 16.0132 7.44735C16.3282 7.64235 16.5232 7.98735 16.5232 8.36235Z" fill="white"/>
<path d="M13.2073 6.87012L12.0973 7.46262L4.96484 3.45012L6.14234 2.81262L13.0273 6.69762C13.1023 6.74262 13.1623 6.80262 13.2073 6.87012Z" fill="#00937D"/>
<path d="M13.3125 8.22766V9.93016C13.3125 10.2377 13.0575 10.4927 12.75 10.4927C12.4425 10.4927 12.1875 10.2377 12.1875 9.93016V8.79016L13.3125 8.22766Z" fill="#00937D"/>
</svg>
