<svg width="18" height="18" viewBox="0 0 18 18" fill="none" xmlns="http://www.w3.org/2000/svg">
<path d="M15.0758 5.205C15.0758 5.61 14.8583 5.9775 14.5133 6.165L13.2083 6.87L12.0983 7.4625L9.79578 8.7075C9.54828 8.8425 9.27828 8.91 9.00078 8.91C8.72328 8.91 8.45328 8.8425 8.20578 8.7075L3.48828 6.165C3.14328 5.9775 2.92578 5.61 2.92578 5.205C2.92578 4.8 3.14328 4.4325 3.48828 4.245L4.96578 3.45L6.14328 2.8125L8.20578 1.7025C8.70078 1.4325 9.30078 1.4325 9.79578 1.7025L14.5133 4.245C14.8583 4.4325 15.0758 4.8 15.0758 5.205Z" fill="white"/>
<path d="M7.42406 9.59163L3.03656 7.40163C2.69906 7.22913 2.30906 7.25163 1.98656 7.44663C1.66406 7.64163 1.47656 7.98663 1.47656 8.36163V12.5091C1.47656 13.2291 1.87406 13.8741 2.51906 14.1966L6.90656 16.3866C7.05656 16.4616 7.22156 16.4991 7.38656 16.4991C7.58156 16.4991 7.77656 16.4466 7.94906 16.3341C8.27156 16.1391 8.45906 15.7941 8.45906 15.4191V11.2716C8.46656 10.5591 8.06906 9.91413 7.42406 9.59163Z" fill="white"/>
<path d="M16.5232 8.36223V12.5097C16.5232 13.2222 16.1257 13.8672 15.4807 14.1897L11.0932 16.3872C10.9432 16.4622 10.7782 16.4997 10.6132 16.4997C10.4182 16.4997 10.2232 16.4472 10.0432 16.3347C9.7282 16.1397 9.5332 15.7947 9.5332 15.4197V11.2797C9.5332 10.5597 9.9307 9.91473 10.5757 9.59223L12.1882 8.78973L13.3132 8.22723L14.9632 7.40223C15.3007 7.22973 15.6907 7.24473 16.0132 7.44723C16.3282 7.64223 16.5232 7.98723 16.5232 8.36223Z" fill="white"/>
<path d="M13.2073 6.87L12.0973 7.4625L4.96484 3.45L6.14234 2.8125L13.0273 6.6975C13.1023 6.7425 13.1623 6.8025 13.2073 6.87Z" fill="url(#paint0_linear_1067_45874)"/>
<path d="M13.3125 8.22656V9.92906C13.3125 10.2366 13.0575 10.4916 12.75 10.4916C12.4425 10.4916 12.1875 10.2366 12.1875 9.92906V8.78906L13.3125 8.22656Z" fill="url(#paint1_linear_1067_45874)"/>
<defs>
<linearGradient id="paint0_linear_1067_45874" x1="9.08609" y1="2.8125" x2="9.08609" y2="7.4625" gradientUnits="userSpaceOnUse">
<stop stop-color="#333F45"/>
<stop offset="1" stop-color="#121A1E"/>
</linearGradient>
<linearGradient id="paint1_linear_1067_45874" x1="12.75" y1="8.22656" x2="12.75" y2="10.4916" gradientUnits="userSpaceOnUse">
<stop stop-color="#333F45"/>
<stop offset="1" stop-color="#121A1E"/>
</linearGradient>
</defs>
</svg>
