<svg width="203" height="212" viewBox="0 0 203 212" fill="none" xmlns="http://www.w3.org/2000/svg">
<g clip-path="url(#clip0_2307_11386)">
<path opacity="0.11" d="M157.245 112.205C162.991 91.8828 183.427 92.523 188.883 63.4439C195.394 28.7517 157.963 -3.51278 114.494 11.2366C71.0257 25.986 93.128 59.0339 39.3067 73.5957C-2.34591 84.8633 -14.4706 134.571 20.4242 158.468C42.6743 173.705 60.3717 162.834 80.1253 169.083C99.8788 175.332 104.187 201.127 129.367 204.443C152.748 207.522 173.331 181.846 159.053 153.168C150.506 136.005 154.868 120.612 157.245 112.205Z" fill="#00937D"/>
<path d="M183.286 113.664C183.223 113.664 183.162 113.639 183.118 113.594C183.073 113.548 183.048 113.487 183.048 113.423V112.09C183.048 111.934 183.109 111.785 183.218 111.675C183.327 111.565 183.474 111.503 183.629 111.503H184.953C185.013 111.507 185.07 111.535 185.111 111.58C185.152 111.624 185.175 111.683 185.175 111.744C185.175 111.805 185.152 111.864 185.111 111.909C185.07 111.953 185.013 111.981 184.953 111.985H183.629C183.601 111.986 183.575 111.997 183.556 112.017C183.537 112.036 183.526 112.063 183.526 112.09V113.423C183.526 113.487 183.501 113.549 183.456 113.594C183.411 113.639 183.35 113.664 183.286 113.664Z" fill="#00937D"/>
<path d="M195.961 113.664C195.929 113.664 195.898 113.658 195.869 113.646C195.84 113.634 195.813 113.616 195.791 113.594C195.769 113.572 195.751 113.545 195.739 113.516C195.727 113.487 195.721 113.455 195.721 113.423V112.09C195.721 112.062 195.71 112.036 195.69 112.016C195.671 111.996 195.644 111.985 195.617 111.985H194.294C194.234 111.981 194.177 111.953 194.136 111.909C194.095 111.864 194.072 111.805 194.072 111.744C194.072 111.683 194.095 111.624 194.136 111.58C194.177 111.535 194.234 111.507 194.294 111.503H195.617C195.771 111.503 195.919 111.565 196.028 111.675C196.138 111.785 196.199 111.934 196.199 112.09V113.423C196.199 113.487 196.174 113.548 196.129 113.594C196.085 113.639 196.024 113.664 195.961 113.664Z" fill="#00937D"/>
<path d="M184.953 124.76H183.629C183.474 124.759 183.327 124.697 183.218 124.587C183.109 124.477 183.048 124.328 183.048 124.172V122.839C183.052 122.778 183.079 122.721 183.124 122.68C183.168 122.639 183.227 122.616 183.287 122.616C183.348 122.616 183.406 122.639 183.45 122.68C183.495 122.721 183.522 122.778 183.526 122.839V124.172C183.526 124.2 183.537 124.226 183.556 124.246C183.575 124.265 183.601 124.277 183.629 124.277H184.953C185.013 124.282 185.07 124.309 185.111 124.354C185.152 124.399 185.175 124.457 185.175 124.518C185.175 124.579 185.152 124.638 185.111 124.683C185.07 124.728 185.013 124.755 184.953 124.76Z" fill="#00937D"/>
<path d="M195.617 124.76H194.294C194.234 124.755 194.177 124.728 194.136 124.683C194.095 124.638 194.072 124.579 194.072 124.518C194.072 124.457 194.095 124.399 194.136 124.354C194.177 124.309 194.234 124.282 194.294 124.277H195.617C195.644 124.277 195.671 124.266 195.69 124.246C195.71 124.227 195.721 124.2 195.721 124.172V122.839C195.725 122.778 195.752 122.721 195.797 122.68C195.841 122.639 195.899 122.616 195.96 122.616C196.02 122.616 196.079 122.639 196.123 122.68C196.167 122.721 196.195 122.778 196.199 122.839V124.172C196.199 124.328 196.138 124.477 196.028 124.587C195.919 124.697 195.771 124.759 195.617 124.76Z" fill="#00937D"/>
<path d="M64.0277 156.729C63.9643 156.729 63.9034 156.704 63.8584 156.659C63.8134 156.614 63.788 156.552 63.7876 156.489V155.486C63.7876 155.353 63.8401 155.225 63.9337 155.13C64.0272 155.036 64.1541 154.983 64.2863 154.983H65.281C65.3413 154.988 65.3976 155.015 65.4387 155.06C65.4798 155.105 65.5026 155.164 65.5026 155.225C65.5026 155.286 65.4798 155.344 65.4387 155.389C65.3976 155.434 65.3413 155.461 65.281 155.466H64.2863L64.2664 156.49C64.2661 156.554 64.2407 156.614 64.196 156.659C64.1513 156.704 64.0908 156.729 64.0277 156.729Z" fill="#7EB2B0"/>
<path d="M73.5762 156.729C73.5129 156.729 73.4522 156.704 73.4075 156.659C73.3627 156.614 73.3375 156.552 73.3375 156.489V155.486L72.3216 155.466C72.2886 155.468 72.2554 155.464 72.2242 155.453C72.1929 155.442 72.1643 155.425 72.14 155.402C72.1157 155.38 72.0963 155.352 72.0831 155.321C72.0698 155.291 72.063 155.258 72.063 155.225C72.063 155.191 72.0698 155.158 72.0831 155.128C72.0963 155.097 72.1157 155.07 72.14 155.047C72.1643 155.024 72.1929 155.007 72.2242 154.996C72.2554 154.985 72.2886 154.981 72.3216 154.983H73.3162C73.4483 154.984 73.5747 155.037 73.668 155.131C73.7612 155.225 73.8135 155.353 73.8135 155.486V156.489C73.8135 156.552 73.7886 156.613 73.7441 156.658C73.6997 156.703 73.6393 156.729 73.5762 156.729Z" fill="#7EB2B0"/>
<path d="M65.2824 165.089H64.2878C64.1558 165.089 64.0291 165.036 63.9356 164.942C63.8421 164.849 63.7894 164.721 63.789 164.588V163.585C63.7865 163.552 63.7908 163.519 63.8017 163.487C63.8126 163.456 63.8298 163.427 63.8523 163.402C63.8747 163.378 63.902 163.358 63.9323 163.345C63.9626 163.332 63.9954 163.325 64.0285 163.325C64.0616 163.325 64.0943 163.332 64.1246 163.345C64.1549 163.358 64.1822 163.378 64.2047 163.402C64.2272 163.427 64.2444 163.456 64.2553 163.487C64.2661 163.519 64.2704 163.552 64.2679 163.585V164.588L65.2838 164.608C65.3472 164.608 65.4079 164.633 65.4526 164.678C65.4974 164.724 65.5226 164.785 65.5226 164.849C65.5226 164.912 65.4974 164.974 65.4526 165.019C65.4079 165.064 65.3472 165.089 65.2838 165.089H65.2824Z" fill="#7EB2B0"/>
<path d="M73.3176 165.089H72.3229C72.2596 165.089 72.1989 165.064 72.1541 165.019C72.1094 164.974 72.0842 164.912 72.0842 164.849C72.0842 164.785 72.1094 164.724 72.1541 164.678C72.1989 164.633 72.2596 164.608 72.3229 164.608H73.3176L73.3375 163.584C73.3375 163.52 73.3626 163.459 73.4074 163.414C73.4522 163.369 73.5129 163.343 73.5762 163.343C73.6395 163.343 73.7002 163.369 73.745 163.414C73.7898 163.459 73.8149 163.52 73.8149 163.584V164.587C73.8151 164.652 73.8024 164.718 73.7775 164.779C73.7525 164.84 73.7159 164.895 73.6697 164.942C73.6235 164.989 73.5687 165.026 73.5082 165.051C73.4478 165.076 73.383 165.089 73.3176 165.089Z" fill="#7EB2B0"/>
<path d="M131.687 212.001C127.112 212.001 119.183 209.595 111.864 200.161C106.536 193.299 105.277 186.964 105.159 182.859C105.017 178.12 106.296 175.061 106.83 174.642C107.502 174.112 110.965 173.752 115.186 174.949C119.087 176.057 124.848 178.816 130.197 185.699C138.474 196.361 137.928 205.727 136.307 209.581C136.289 209.623 136.259 209.658 136.222 209.684C136.184 209.709 136.14 209.723 136.095 209.724C136.05 209.725 136.005 209.713 135.966 209.69C135.927 209.667 135.895 209.634 135.873 209.594C135.707 209.266 135.539 208.942 135.366 208.616C135.019 207.958 134.633 207.256 134.184 206.467C133.925 206 133.654 205.546 133.382 205.094C133.235 204.848 133.089 204.603 132.945 204.357C132.672 203.909 132.391 203.462 132.108 203.015L131.652 202.291C129.894 199.565 127.99 196.938 125.948 194.422C123.917 191.909 121.715 189.542 119.357 187.338L117.556 185.727C117.285 185.49 116.999 185.258 116.715 185.032C116.981 185.28 117.247 185.535 117.504 185.795L119.156 187.538C121.316 189.902 123.31 192.414 125.124 195.056C126.934 197.685 128.601 200.41 130.117 203.22C130.252 203.479 130.387 203.734 130.522 203.991C130.758 204.439 130.994 204.886 131.223 205.339C131.348 205.598 131.474 205.85 131.599 206.103C131.828 206.562 132.057 207.021 132.268 207.487C132.906 208.83 133.489 210.171 134.001 211.467C134.013 211.5 134.018 211.535 134.016 211.569C134.014 211.604 134.005 211.638 133.989 211.669C133.973 211.7 133.95 211.727 133.923 211.748C133.895 211.769 133.864 211.784 133.83 211.792C133.125 211.939 132.407 212.01 131.687 212.001ZM109.775 174.632C108.299 174.632 107.341 174.852 107.125 175.022C106.722 175.34 105.507 178.299 105.638 182.845C105.753 186.878 106.993 193.104 112.241 199.863C120.549 210.565 129.576 212.08 133.452 211.374C132.97 210.172 132.428 208.939 131.838 207.689C131.626 207.225 131.4 206.771 131.174 206.317C131.048 206.062 130.922 205.806 130.796 205.551C130.572 205.105 130.337 204.66 130.103 204.214C129.967 203.957 129.832 203.701 129.698 203.444C128.188 200.65 126.528 197.941 124.725 195.33C122.925 192.707 120.945 190.213 118.8 187.868L117.154 186.132C116.8 185.77 116.417 185.416 116.046 185.072C115.838 184.879 115.63 184.687 115.425 184.491L114.548 183.671C114.364 183.508 114.167 183.349 113.97 183.189C113.859 183.098 113.745 183.008 113.635 182.915L111.772 181.397C111.721 181.359 111.687 181.302 111.678 181.239C111.668 181.176 111.684 181.112 111.722 181.06C111.76 181.009 111.816 180.975 111.879 180.966C111.941 180.956 112.005 180.972 112.056 181.01L114.035 182.381L114.381 182.62C114.599 182.77 114.82 182.921 115.03 183.08L115.979 183.836C116.199 184.015 116.421 184.191 116.644 184.367C117.049 184.687 117.467 185.019 117.865 185.37L119.666 186.994C122.042 189.214 124.26 191.599 126.305 194.131C128.359 196.662 130.274 199.303 132.041 202.044L132.497 202.769C132.781 203.219 133.066 203.667 133.34 204.123C133.482 204.37 133.624 204.614 133.777 204.857C134.052 205.314 134.327 205.774 134.586 206.242C135.035 207.03 135.424 207.736 135.774 208.391C135.863 208.561 135.953 208.73 136.041 208.901C137.462 204.88 137.617 196.049 129.81 185.994C124.553 179.22 118.879 176.5 115.048 175.413C113.334 174.913 111.56 174.651 109.775 174.632Z" fill="#B4D1CC"/>
<path d="M143.089 200.228C142.592 200.234 142.096 200.186 141.61 200.085C141.576 200.077 141.544 200.062 141.517 200.041C141.489 200.019 141.467 199.993 141.451 199.962C141.435 199.931 141.425 199.897 141.423 199.862C141.421 199.827 141.427 199.792 141.439 199.76C141.791 198.869 142.191 197.952 142.625 197.039C142.768 196.724 142.925 196.411 143.082 196.098C143.168 195.924 143.254 195.751 143.339 195.576C143.499 195.255 143.666 194.942 143.83 194.628L144.093 194.127C145.129 192.204 146.267 190.339 147.503 188.541C148.743 186.734 150.107 185.017 151.584 183.402L151.896 183.073L151.557 183.378C149.952 184.879 148.452 186.491 147.069 188.203C145.675 189.921 144.376 191.714 143.175 193.574L142.86 194.077C142.67 194.377 142.478 194.68 142.292 194.985C142.195 195.151 142.094 195.318 141.995 195.486C141.808 195.794 141.624 196.103 141.45 196.418C141.166 196.904 140.902 197.39 140.642 197.882C140.524 198.106 140.409 198.328 140.295 198.551C140.274 198.591 140.242 198.625 140.202 198.648C140.163 198.67 140.119 198.682 140.074 198.681C140.028 198.68 139.985 198.666 139.947 198.64C139.91 198.615 139.88 198.58 139.862 198.538C138.745 195.89 138.367 189.459 144.042 182.15C150.978 173.217 159.206 173.875 160.107 174.585C160.972 175.268 163.494 183.346 156.683 192.122C151.67 198.574 146.233 200.228 143.089 200.228ZM141.992 199.665C144.669 200.107 150.725 199.015 156.313 191.815C163.18 182.971 160.277 175.328 159.82 174.956C159.358 174.591 151.348 173.524 144.427 182.438C139.221 189.144 139.214 195.042 140.126 197.844L140.228 197.65C140.491 197.153 140.764 196.662 141.041 196.175C141.217 195.857 141.405 195.545 141.592 195.231C141.693 195.064 141.793 194.897 141.891 194.73C142.078 194.419 142.27 194.115 142.459 193.812L142.776 193.309C143.986 191.433 145.297 189.625 146.702 187.894C148.1 186.166 149.616 184.538 151.239 183.024L152.471 181.913C152.744 181.675 153.024 181.453 153.304 181.231C153.459 181.109 153.611 180.989 153.763 180.866L154.409 180.35C154.551 180.237 154.709 180.134 154.86 180.031L156.447 178.931C156.498 178.9 156.558 178.89 156.616 178.902C156.674 178.914 156.726 178.948 156.761 178.995C156.796 179.043 156.812 179.103 156.807 179.162C156.801 179.222 156.774 179.277 156.731 179.317L155.239 180.528C155.097 180.636 154.969 180.745 154.84 180.861L154.244 181.417C154.102 181.55 153.96 181.683 153.818 181.815C153.564 182.053 153.308 182.289 153.064 182.531L151.941 183.717C150.48 185.315 149.131 187.013 147.906 188.8C146.677 190.582 145.545 192.431 144.517 194.337L144.254 194.839C144.089 195.151 143.926 195.462 143.766 195.775C143.683 195.949 143.596 196.123 143.509 196.298C143.356 196.606 143.202 196.915 143.059 197.228C142.671 198.054 142.313 198.869 141.996 199.665H141.992Z" fill="#B4D1CC"/>
<path d="M101.502 84.1196C132.132 84.1196 156.963 79.1871 156.963 73.1027C156.963 67.0182 132.132 62.0857 101.502 62.0857C70.8713 62.0857 46.0405 67.0182 46.0405 73.1027C46.0405 79.1871 70.8713 84.1196 101.502 84.1196Z" fill="#B7BABA"/>
<path d="M156.963 73.1026H46.0391V103.028H156.963V73.1026Z" fill="#B7BABA"/>
<path d="M156.963 99.0809C156.963 92.9967 132.132 88.0654 101.502 88.0654C70.871 88.0654 46.0334 92.9967 46.0334 99.0809V102.534H48.8284C56.1248 106.927 76.9397 110.098 101.496 110.098C126.052 110.098 146.867 106.927 154.162 102.534H156.957L156.963 99.0809Z" fill="#666666"/>
<path d="M101.502 114.044C132.132 114.044 156.963 109.111 156.963 103.027C156.963 96.9423 132.132 92.0099 101.502 92.0099C70.8713 92.0099 46.0405 96.9423 46.0405 103.027C46.0405 109.111 70.8713 114.044 101.502 114.044Z" fill="#B7BABA"/>
<path d="M140.535 110.367C140.535 106.406 122.841 103.192 101.011 103.192C79.1819 103.192 61.4873 106.406 61.4873 110.367C61.4887 110.497 61.5078 110.626 61.5441 110.751H61.4873C61.4873 132.753 79.1833 150.591 101.011 150.591C122.839 150.591 140.535 132.753 140.535 110.751H140.479C140.516 110.626 140.535 110.497 140.535 110.367Z" fill="#929292"/>
<path d="M101.011 143.848C110.775 143.848 118.69 135.869 118.69 126.027C118.69 116.186 110.775 108.207 101.011 108.207C91.2474 108.207 83.3323 116.186 83.3323 126.027C83.3323 135.869 91.2474 143.848 101.011 143.848Z" fill="#303030"/>
<path d="M101.011 136.507C106.753 136.507 111.408 131.815 111.408 126.027C111.408 120.24 106.753 115.548 101.011 115.548C95.2693 115.548 90.6145 120.24 90.6145 126.027C90.6145 131.815 95.2693 136.507 101.011 136.507Z" fill="#222323"/>
<path d="M105.415 126.9C105.894 124.448 104.311 122.068 101.878 121.585C99.4445 121.101 97.0834 122.697 96.6039 125.15C96.1243 127.602 97.7079 129.982 100.141 130.466C102.574 130.949 104.935 129.353 105.415 126.9Z" fill="white"/>
<path d="M55.6044 2.3002C53.3039 2.29992 51.0549 2.98731 49.1419 4.27544C47.2289 5.56356 45.7378 7.39458 44.8572 9.53692C43.9767 11.6793 43.7461 14.0367 44.1948 16.3111C44.6434 18.5855 45.7511 20.6748 47.3778 22.3146C49.0044 23.9544 51.0769 25.0712 53.3333 25.5237C55.5896 25.9763 57.9284 25.7442 60.0539 24.8568C62.1794 23.9694 63.9961 22.4667 65.2742 20.5386C66.5524 18.6105 67.2346 16.3436 67.2346 14.0247C67.2346 10.9154 66.0093 7.93344 63.8283 5.73472C61.6473 3.536 58.6891 2.30058 55.6044 2.3002ZM62.7374 20.9453L61.7627 20.0745C61.729 20.0491 61.6871 20.0374 61.6452 20.0417C61.6034 20.046 61.5647 20.066 61.5368 20.0978C61.5089 20.1295 61.4938 20.1706 61.4946 20.213C61.4954 20.2554 61.512 20.2959 61.541 20.3266L62.5015 21.186C60.7955 22.8568 58.5479 23.8497 56.1728 23.9817V22.4779H55.0546V23.9817C52.7223 23.8549 50.5106 22.8971 48.8139 21.2791L49.7233 20.2435C49.7485 20.2096 49.7601 20.1673 49.7558 20.1252C49.7515 20.083 49.7317 20.044 49.7002 20.0158C49.6688 19.9877 49.6279 19.9725 49.5859 19.9733C49.5438 19.9741 49.5036 19.9908 49.4732 20.0201L48.5724 21.0442C46.8674 19.3156 45.8519 17.0157 45.7192 14.5818H47.1543V13.4546H45.7192C45.8493 11.0844 46.8165 8.83938 48.4459 7.12548L49.5457 8.10801C49.576 8.13572 49.6156 8.15103 49.6565 8.15098C49.6904 8.1508 49.7234 8.14027 49.7513 8.12079C49.7791 8.1013 49.8004 8.07377 49.8124 8.04182C49.8244 8.00987 49.8266 7.975 49.8185 7.94182C49.8105 7.90864 49.7926 7.87869 49.7673 7.85593L48.6761 6.88199C50.3884 5.18805 52.6546 4.18136 55.0503 4.05042V5.55143H56.1728V4.06188C58.5561 4.19827 60.8095 5.20067 62.5158 6.88343L61.5907 7.94043C61.5761 7.95693 61.5648 7.9762 61.5576 7.99712C61.5504 8.01804 61.5473 8.04019 61.5487 8.0623C61.55 8.08441 61.5556 8.10603 61.5653 8.12593C61.575 8.14582 61.5884 8.16358 61.605 8.17819C61.6383 8.20732 61.6817 8.22213 61.7258 8.21945C61.7699 8.21677 61.8112 8.19683 61.8408 8.16387L62.7573 7.11975C64.3913 8.83429 65.3617 11.0823 65.4926 13.4561H64.0233V14.5832H65.4926C65.3622 16.9687 64.3842 19.2271 62.7374 20.9453Z" fill="#41CBD6"/>
<path d="M56.4315 13.8557H55.7751V13.1954C55.7772 13.172 55.7745 13.1484 55.7671 13.1261C55.7597 13.1038 55.7477 13.0833 55.732 13.066C55.7163 13.0486 55.6972 13.0347 55.6758 13.0252C55.6545 13.0158 55.6314 13.0108 55.6081 13.0108C55.5848 13.0108 55.5617 13.0158 55.5404 13.0252C55.5191 13.0347 55.4999 13.0486 55.4842 13.066C55.4685 13.0833 55.4566 13.1038 55.4491 13.1261C55.4417 13.1484 55.439 13.172 55.4412 13.1954V13.8557H54.7861C54.7629 13.8535 54.7395 13.8563 54.7174 13.8637C54.6953 13.8712 54.6749 13.8832 54.6577 13.8991C54.6405 13.9149 54.6267 13.9342 54.6173 13.9557C54.6079 13.9772 54.603 14.0005 54.603 14.024C54.603 14.0475 54.6079 14.0707 54.6173 14.0922C54.6267 14.1137 54.6405 14.133 54.6577 14.1488C54.6749 14.1647 54.6953 14.1767 54.7174 14.1842C54.7395 14.1917 54.7629 14.1944 54.7861 14.1922H55.4412V14.854C55.445 14.8959 55.4643 14.9349 55.4951 14.9633C55.526 14.9917 55.5663 15.0074 55.6081 15.0074C55.6499 15.0074 55.6902 14.9917 55.7211 14.9633C55.752 14.9349 55.7712 14.8959 55.7751 14.854V14.1922H56.4315C56.4732 14.1884 56.5118 14.169 56.54 14.1378C56.5682 14.1067 56.5838 14.0661 56.5838 14.024C56.5838 13.9818 56.5682 13.9412 56.54 13.9101C56.5118 13.8789 56.4732 13.8595 56.4315 13.8557Z" fill="#00937D"/>
<path d="M177.036 140.532C175.692 140.531 174.379 140.933 173.262 141.685C172.146 142.437 171.275 143.506 170.761 144.756C170.247 146.007 170.112 147.384 170.374 148.712C170.636 150.039 171.283 151.259 172.233 152.216C173.182 153.174 174.392 153.826 175.71 154.09C177.027 154.354 178.393 154.218 179.633 153.7C180.874 153.182 181.935 152.304 182.681 151.178C183.427 150.053 183.825 148.729 183.825 147.375C183.825 145.56 183.109 143.819 181.836 142.536C180.563 141.253 178.836 140.532 177.036 140.532ZM181.197 151.417L180.629 150.91C180.62 150.9 180.609 150.892 180.597 150.886C180.585 150.881 180.571 150.878 180.558 150.878C180.545 150.878 180.531 150.881 180.519 150.886C180.507 150.892 180.496 150.9 180.487 150.91C180.477 150.919 180.469 150.93 180.464 150.942C180.459 150.955 180.456 150.968 180.456 150.981C180.456 150.995 180.459 151.008 180.464 151.021C180.469 151.033 180.477 151.044 180.487 151.053L181.055 151.554C180.06 152.53 178.748 153.111 177.361 153.19V152.312H176.709V153.19C175.348 153.116 174.057 152.558 173.066 151.615L173.596 151.01C173.606 151.001 173.614 150.99 173.62 150.978C173.625 150.965 173.628 150.952 173.628 150.938C173.628 150.924 173.626 150.911 173.62 150.898C173.615 150.886 173.607 150.874 173.597 150.865C173.587 150.856 173.575 150.849 173.562 150.845C173.549 150.84 173.535 150.839 173.522 150.84C173.508 150.842 173.495 150.846 173.483 150.853C173.472 150.86 173.461 150.869 173.453 150.88L172.928 151.477C171.932 150.468 171.339 149.126 171.261 147.704H172.099V147.047H171.267C171.343 145.663 171.908 144.352 172.86 143.352L173.502 143.925C173.52 143.941 173.543 143.95 173.567 143.951C173.587 143.95 173.606 143.944 173.622 143.932C173.638 143.921 173.65 143.905 173.657 143.886C173.664 143.868 173.665 143.848 173.66 143.829C173.656 143.809 173.646 143.792 173.631 143.779L172.995 143.206C173.994 142.216 175.317 141.629 176.716 141.553V142.429H177.368V141.554C178.759 141.634 180.075 142.219 181.071 143.201L180.527 143.82C180.515 143.835 180.507 143.852 180.504 143.871C180.502 143.89 180.505 143.909 180.512 143.926C180.52 143.943 180.532 143.958 180.548 143.968C180.564 143.979 180.582 143.984 180.601 143.985C180.615 143.985 180.628 143.982 180.641 143.976C180.653 143.97 180.664 143.961 180.673 143.951L181.209 143.342C182.163 144.343 182.729 145.655 182.806 147.041H181.953V147.699H182.806C182.731 149.092 182.16 150.412 181.197 151.415V151.417Z" fill="#C5C5C5"/>
<path d="M177.519 147.278H177.137V146.891C177.137 146.865 177.126 146.84 177.108 146.821C177.089 146.803 177.065 146.792 177.039 146.792C177.013 146.792 176.988 146.803 176.969 146.821C176.951 146.84 176.94 146.865 176.94 146.891V147.278H176.558C176.545 147.277 176.533 147.28 176.521 147.285C176.509 147.289 176.498 147.297 176.489 147.306C176.48 147.315 176.473 147.326 176.468 147.337C176.463 147.349 176.46 147.362 176.46 147.375C176.46 147.401 176.471 147.426 176.489 147.445C176.507 147.463 176.532 147.474 176.558 147.474H176.94V147.861C176.94 147.887 176.951 147.912 176.969 147.93C176.988 147.949 177.013 147.959 177.039 147.959C177.065 147.959 177.089 147.949 177.108 147.93C177.126 147.912 177.137 147.887 177.137 147.861V147.474H177.519C177.545 147.474 177.57 147.463 177.588 147.445C177.606 147.426 177.617 147.401 177.617 147.375C177.617 147.362 177.614 147.349 177.609 147.337C177.604 147.326 177.597 147.315 177.588 147.306C177.579 147.297 177.568 147.289 177.556 147.285C177.544 147.28 177.532 147.277 177.519 147.278Z" fill="#C5C5C5"/>
<path d="M13.2869 82.7287C12.3472 82.7287 11.4285 82.4478 10.6471 81.9215C9.86574 81.3952 9.25672 80.6472 8.89709 79.772C8.53746 78.8969 8.44336 77.9339 8.6267 77.0048C8.81004 76.0757 9.26258 75.2223 9.9271 74.5525C10.5916 73.8827 11.4382 73.4266 12.36 73.2418C13.2817 73.0569 14.237 73.1518 15.1053 73.5143C15.9735 73.8768 16.7156 74.4907 17.2377 75.2783C17.7598 76.0659 18.0385 76.9919 18.0385 77.9392C18.037 79.209 17.5359 80.4263 16.6451 81.3242C15.7544 82.2221 14.5467 82.7271 13.2869 82.7287ZM13.2869 73.6324C12.4415 73.6321 11.6149 73.8846 10.9118 74.3579C10.2087 74.8311 9.6607 75.504 9.33703 76.2913C9.01335 77.0786 8.92859 77.9449 9.09346 78.7808C9.25834 79.6166 9.66544 80.3844 10.2633 80.987C10.8611 81.5896 11.6228 82 12.452 82.1661C13.2813 82.3323 14.1407 82.2469 14.9218 81.9206C15.7028 81.5944 16.3704 81.042 16.8399 80.3333C17.3094 79.6246 17.5599 78.7914 17.5596 77.9392C17.5585 76.7973 17.108 75.7025 16.3069 74.8951C15.5059 74.0876 14.4198 73.6335 13.2869 73.6324Z" fill="#00937D"/>
<path d="M90.5448 21.4925C89.9898 21.4925 89.4472 21.3266 88.9857 21.0158C88.5242 20.7049 88.1645 20.2631 87.9521 19.7463C87.7397 19.2294 87.6842 18.6606 87.7924 18.1119C87.9007 17.5632 88.168 17.0592 88.5605 16.6636C88.9529 16.268 89.453 15.9986 89.9973 15.8894C90.5417 15.7803 91.106 15.8363 91.6188 16.0504C92.1315 16.2645 92.5698 16.627 92.8782 17.0922C93.1865 17.5574 93.3511 18.1043 93.3511 18.6638C93.3504 19.4138 93.0545 20.1328 92.5284 20.6631C92.0022 21.1934 91.2889 21.4917 90.5448 21.4925ZM90.5448 16.3192C90.0844 16.3192 89.6344 16.4568 89.2516 16.7146C88.8688 16.9725 88.5705 17.339 88.3944 17.7677C88.2183 18.1965 88.1723 18.6683 88.2622 19.1234C88.3521 19.5785 88.5739 19.9966 88.8996 20.3246C89.2252 20.6526 89.6401 20.876 90.0916 20.9663C90.5432 21.0567 91.0112 21.01 91.4365 20.8322C91.8618 20.6545 92.2252 20.3535 92.4807 19.9675C92.7363 19.5816 92.8726 19.1278 92.8723 18.6638C92.8712 18.042 92.6255 17.4461 92.1893 17.0066C91.753 16.5671 91.1616 16.3199 90.5448 16.3192Z" fill="#00937D"/>
<path d="M126.777 50.3353C125.899 50.3353 125.041 50.073 124.311 49.5815C123.582 49.09 123.013 48.3914 122.677 47.5741C122.341 46.7567 122.253 45.8574 122.424 44.9897C122.596 44.1221 123.018 43.3251 123.639 42.6995C124.259 42.074 125.05 41.6479 125.911 41.4754C126.772 41.3028 127.664 41.3913 128.475 41.7299C129.286 42.0684 129.979 42.6417 130.466 43.3773C130.954 44.1129 131.214 44.9777 131.214 45.8624C131.213 47.0482 130.745 48.185 129.913 49.0235C129.081 49.862 127.953 50.3338 126.777 50.3353ZM126.777 41.8721C125.993 41.8718 125.227 42.1057 124.576 42.5442C123.925 42.9827 123.417 43.6061 123.117 44.3356C122.817 45.065 122.738 45.8677 122.891 46.6422C123.044 47.4166 123.421 48.128 123.975 48.6863C124.529 49.2447 125.235 49.6249 126.003 49.7789C126.771 49.9328 127.568 49.8537 128.291 49.5514C129.015 49.2491 129.633 48.7372 130.068 48.0806C130.504 47.4239 130.736 46.652 130.735 45.8624C130.736 45.338 130.634 44.8186 130.435 44.334C130.236 43.8494 129.945 43.409 129.577 43.0379C129.209 42.6669 128.773 42.3724 128.292 42.1714C127.812 41.9704 127.297 41.8667 126.777 41.8663V41.8721Z" fill="#B4D1CC"/>
<path d="M167.108 126.201C166.656 126.201 166.214 126.065 165.838 125.812C165.463 125.559 165.17 125.2 164.997 124.779C164.824 124.358 164.779 123.895 164.867 123.448C164.955 123.001 165.173 122.591 165.492 122.269C165.812 121.947 166.219 121.728 166.662 121.639C167.105 121.55 167.565 121.595 167.982 121.77C168.4 121.944 168.757 122.239 169.008 122.618C169.259 122.997 169.393 123.442 169.393 123.897C169.392 124.508 169.151 125.093 168.723 125.525C168.294 125.957 167.714 126.2 167.108 126.201ZM167.108 122.079C166.751 122.079 166.401 122.185 166.104 122.385C165.807 122.586 165.576 122.87 165.439 123.203C165.303 123.535 165.267 123.901 165.337 124.255C165.406 124.608 165.579 124.932 165.831 125.187C166.084 125.441 166.406 125.614 166.756 125.685C167.107 125.755 167.47 125.718 167.8 125.58C168.13 125.442 168.412 125.209 168.61 124.909C168.808 124.61 168.914 124.258 168.914 123.897C168.913 123.415 168.722 122.953 168.384 122.612C168.045 122.271 167.586 122.079 167.108 122.079Z" fill="#B4D1CC"/>
<path d="M15.3317 25.8752C14.8797 25.8752 14.4379 25.7401 14.0622 25.4869C13.6864 25.2338 13.3936 24.874 13.2207 24.4531C13.0478 24.0322 13.0026 23.5691 13.0909 23.1223C13.1792 22.6755 13.3969 22.2651 13.7166 21.9431C14.0363 21.621 14.4435 21.4018 14.8868 21.3131C15.3301 21.2244 15.7896 21.2702 16.207 21.4448C16.6245 21.6193 16.9813 21.9147 17.2322 22.2936C17.483 22.6726 17.6168 23.118 17.6165 23.5735C17.6158 24.184 17.3748 24.7692 16.9464 25.2007C16.518 25.6322 15.9373 25.8748 15.3317 25.8752ZM15.3317 21.7531C14.9745 21.7531 14.6253 21.8599 14.3284 22.0599C14.0314 22.26 13.7999 22.5443 13.6632 22.8769C13.5265 23.2095 13.4907 23.5756 13.5604 23.9287C13.6301 24.2818 13.8021 24.6062 14.0547 24.8607C14.3073 25.1153 14.629 25.2887 14.9794 25.359C15.3297 25.4292 15.6928 25.3931 16.0228 25.2554C16.3528 25.1176 16.6349 24.8843 16.8333 24.5849C17.0318 24.2855 17.1377 23.9336 17.1377 23.5735C17.1373 23.0908 16.9469 22.628 16.6083 22.2867C16.2697 21.9454 15.8106 21.7535 15.3317 21.7531Z" fill="#B4D1CC"/>
<path d="M78.5012 185.211C77.8393 185.211 77.1921 185.014 76.6416 184.643C76.0911 184.273 75.662 183.746 75.4086 183.13C75.1551 182.513 75.0887 181.835 75.2178 181.18C75.3469 180.526 75.6656 179.925 76.1337 179.453C76.6017 178.981 77.1981 178.66 77.8473 178.53C78.4966 178.4 79.1695 178.467 79.781 178.722C80.3925 178.978 80.9151 179.41 81.2827 179.965C81.6503 180.52 81.8463 181.172 81.8461 181.839C81.8449 182.733 81.4922 183.59 80.8651 184.222C80.2381 184.854 79.388 185.21 78.5012 185.211ZM78.5012 178.949C77.9341 178.949 77.3795 179.118 76.9078 179.436C76.4361 179.753 76.0683 180.204 75.8511 180.732C75.6338 181.261 75.5769 181.842 75.6873 182.402C75.7978 182.963 76.0708 183.478 76.4718 183.883C76.8727 184.287 77.3836 184.563 77.9399 184.674C78.4961 184.786 79.0728 184.729 79.5968 184.51C80.1208 184.291 80.5687 183.921 80.8839 183.445C81.199 182.97 81.3672 182.411 81.3672 181.839C81.3657 181.074 81.0632 180.34 80.526 179.799C79.9889 179.258 79.2607 178.953 78.5012 178.952V178.949Z" fill="#43747C"/>
<path d="M185.386 172.601C184.704 172.601 184.038 172.398 183.47 172.016C182.903 171.634 182.461 171.091 182.2 170.456C181.939 169.82 181.871 169.121 182.004 168.447C182.137 167.773 182.466 167.154 182.948 166.667C183.43 166.181 184.045 165.85 184.714 165.716C185.382 165.582 186.076 165.651 186.706 165.914C187.336 166.177 187.875 166.622 188.254 167.194C188.633 167.766 188.835 168.438 188.835 169.125C188.834 170.047 188.47 170.93 187.824 171.582C187.177 172.234 186.301 172.6 185.386 172.601ZM185.386 166.616C184.894 166.616 184.412 166.763 184.002 167.039C183.593 167.315 183.273 167.707 183.085 168.166C182.896 168.625 182.847 169.13 182.943 169.617C183.04 170.104 183.277 170.552 183.625 170.903C183.974 171.254 184.418 171.493 184.901 171.589C185.385 171.686 185.885 171.636 186.34 171.446C186.796 171.256 187.185 170.934 187.458 170.521C187.732 170.108 187.877 169.622 187.877 169.125C187.876 168.46 187.614 167.822 187.147 167.351C186.68 166.881 186.047 166.616 185.386 166.616Z" fill="#41CBD6"/>
<path d="M11.4057 112.736C10.829 112.736 10.2653 112.564 9.78582 112.241C9.30633 111.918 8.93262 111.459 8.71194 110.922C8.49125 110.385 8.43351 109.794 8.54602 109.224C8.65852 108.653 8.93621 108.13 9.34398 107.719C9.75175 107.308 10.2713 107.028 10.8369 106.914C11.4025 106.801 11.9887 106.859 12.5215 107.082C13.0543 107.304 13.5096 107.681 13.83 108.164C14.1504 108.647 14.3214 109.216 14.3214 109.797C14.3207 110.576 14.0132 111.323 13.4666 111.874C12.9199 112.425 12.1788 112.735 11.4057 112.736ZM11.4057 107.823C11.0184 107.823 10.6399 107.939 10.3179 108.156C9.99589 108.373 9.74493 108.681 9.59673 109.042C9.44853 109.402 9.40976 109.799 9.48531 110.182C9.56086 110.565 9.74734 110.916 10.0212 111.192C10.295 111.469 10.6439 111.656 11.0237 111.733C11.4035 111.809 11.7972 111.77 12.155 111.62C12.5128 111.471 12.8186 111.218 13.0337 110.893C13.2489 110.569 13.3637 110.187 13.3637 109.797C13.3633 109.274 13.1569 108.772 12.7898 108.402C12.4227 108.032 11.9249 107.824 11.4057 107.823Z" fill="#41CBD6"/>
<path d="M32.3015 136.676C32.1708 136.676 32.0412 136.654 31.9178 136.61L29.8831 135.894C29.5932 135.791 29.3556 135.577 29.2224 135.297C29.0892 135.018 29.0713 134.697 29.1726 134.405L29.5549 133.307C29.5923 133.2 29.5926 133.083 29.5557 132.975C29.5188 132.867 29.447 132.775 29.3517 132.713C28.6944 132.281 28.086 131.778 27.5372 131.212C27.4586 131.13 27.355 131.077 27.2429 131.061C27.1308 131.046 27.0167 131.068 26.9191 131.126L25.9244 131.719C25.6595 131.876 25.3437 131.921 25.046 131.844C24.7482 131.767 24.4929 131.574 24.3359 131.308L23.2361 129.436C23.0803 129.169 23.0357 128.851 23.1121 128.551C23.1886 128.251 23.3798 127.994 23.6439 127.836L24.6385 127.243C24.7356 127.185 24.8105 127.096 24.8512 126.989C24.8919 126.883 24.8961 126.766 24.863 126.657C24.6393 125.9 24.4964 125.12 24.4367 124.331C24.4288 124.218 24.3832 124.11 24.3072 124.025C24.2312 123.94 24.1292 123.884 24.0176 123.865L22.8809 123.675C22.578 123.624 22.3077 123.454 22.1289 123.202C21.95 122.95 21.8771 122.638 21.926 122.332L22.2784 120.184C22.3285 119.878 22.4969 119.605 22.7466 119.425C22.9962 119.244 23.3066 119.171 23.6098 119.221L24.7465 119.41C24.8584 119.428 24.9731 119.408 25.0721 119.352C25.171 119.297 25.2486 119.209 25.2921 119.104C25.6031 118.378 25.9899 117.687 26.4459 117.044C26.5122 116.952 26.5459 116.84 26.5415 116.726C26.5372 116.612 26.495 116.502 26.4218 116.415L25.6701 115.532C25.4702 115.296 25.371 114.991 25.3945 114.682C25.4179 114.373 25.562 114.086 25.7951 113.885L27.432 112.468C27.6659 112.267 27.9691 112.168 28.2755 112.191C28.5819 112.215 28.8666 112.36 29.0675 112.594L29.8177 113.476C29.8917 113.563 29.9923 113.621 30.1035 113.643C30.2146 113.665 30.3297 113.648 30.4302 113.595C31.1308 113.24 31.8673 112.961 32.6269 112.763C32.7369 112.736 32.8346 112.672 32.9042 112.582C32.9738 112.492 33.0113 112.38 33.0105 112.266L32.9977 111.103C32.9947 110.793 33.1138 110.495 33.3288 110.274C33.5438 110.053 33.8371 109.926 34.1444 109.923L36.3028 109.899H36.3141C36.6192 109.899 36.9118 110.021 37.1287 110.237C37.3456 110.453 37.4695 110.747 37.4736 111.054L37.4864 112.216C37.488 112.33 37.5277 112.441 37.5991 112.53C37.6705 112.618 37.7694 112.68 37.88 112.706C38.6437 112.887 39.3859 113.15 40.0938 113.491C40.1954 113.541 40.3109 113.555 40.4216 113.531C40.5323 113.507 40.6316 113.446 40.7033 113.357L41.4351 112.459C41.5317 112.341 41.6506 112.242 41.7849 112.17C41.9193 112.098 42.0665 112.053 42.218 112.038C42.525 112.008 42.8313 112.102 43.0706 112.298L44.7373 113.678C44.9748 113.875 45.1251 114.159 45.1552 114.467C45.1854 114.775 45.0928 115.083 44.8979 115.323L44.1661 116.221C44.095 116.309 44.0553 116.419 44.0535 116.533C44.0517 116.647 44.0879 116.758 44.1562 116.849C44.6262 117.483 45.0269 118.166 45.3512 118.886C45.3983 118.989 45.4781 119.074 45.5781 119.127C45.678 119.181 45.7925 119.199 45.9039 119.18L47.0406 118.965C47.1903 118.936 47.344 118.938 47.4931 118.97C47.6421 119.001 47.7835 119.062 47.9091 119.149C48.0348 119.236 48.1422 119.346 48.2253 119.475C48.3084 119.604 48.3655 119.748 48.3933 119.899L48.7912 122.036C48.8477 122.34 48.7818 122.655 48.6081 122.911C48.4343 123.166 48.167 123.342 47.8647 123.399L46.728 123.614C46.6167 123.635 46.5159 123.694 46.4416 123.78C46.3674 123.866 46.3241 123.975 46.3188 124.089C46.2744 124.879 46.1462 125.662 45.9366 126.424C45.9057 126.534 45.9122 126.651 45.9549 126.756C45.9977 126.862 46.0742 126.95 46.1724 127.007L47.177 127.58C47.4447 127.732 47.6414 127.985 47.724 128.284C47.8066 128.582 47.7683 128.901 47.6175 129.171L46.5589 131.066C46.4079 131.336 46.1569 131.534 45.8609 131.618C45.565 131.701 45.2483 131.663 44.9803 131.511L43.9743 130.938C43.8754 130.883 43.7608 130.863 43.649 130.881C43.5372 130.898 43.4346 130.954 43.3576 131.037C42.821 131.614 42.2246 132.13 41.5786 132.578C41.4843 132.642 41.4141 132.736 41.3793 132.845C41.3445 132.954 41.3471 133.071 41.3868 133.179L41.7932 134.266C41.9006 134.556 41.8896 134.877 41.7626 135.159C41.6356 135.441 41.4029 135.661 41.1154 135.771L39.0963 136.537C38.8083 136.645 38.4896 136.634 38.2097 136.506C37.9298 136.378 37.7117 136.144 37.6029 135.854L37.1965 134.764C37.1546 134.658 37.0796 134.57 36.9828 134.511C36.8861 134.453 36.773 134.428 36.6609 134.44C35.8816 134.534 35.0947 134.543 34.3135 134.468C34.2007 134.454 34.0868 134.481 33.9908 134.542C33.8949 134.603 33.8227 134.696 33.7863 134.804L33.4041 135.9C33.3228 136.128 33.1731 136.326 32.9755 136.465C32.778 136.604 32.5424 136.678 32.3015 136.676ZM27.1748 130.569C27.3071 130.569 27.438 130.595 27.56 130.647C27.682 130.698 27.7926 130.773 27.8853 130.868C28.1472 131.139 28.4237 131.394 28.7137 131.633C29.0037 131.873 29.3063 132.097 29.6202 132.303C29.8049 132.424 29.9439 132.604 30.015 132.814C30.0861 133.025 30.0852 133.253 30.0124 133.462L29.6302 134.559C29.5706 134.731 29.581 134.919 29.659 135.083C29.737 135.247 29.8764 135.374 30.0465 135.434L32.0813 136.15C32.1655 136.181 32.2548 136.194 32.3441 136.189C32.4334 136.184 32.5208 136.162 32.6015 136.123C32.6821 136.084 32.7544 136.03 32.8141 135.963C32.8738 135.896 32.9198 135.817 32.9494 135.732L33.3317 134.635C33.4067 134.427 33.5481 134.25 33.7337 134.131C33.9193 134.012 34.1387 133.959 34.3575 133.979C35.1042 134.05 35.8563 134.041 36.6012 133.953C36.8199 133.925 37.0417 133.973 37.2304 134.088C37.4192 134.202 37.564 134.378 37.6413 134.586L38.0477 135.676C38.0794 135.761 38.1274 135.838 38.1888 135.904C38.2503 135.969 38.324 136.022 38.4057 136.059C38.4869 136.097 38.5747 136.118 38.664 136.121C38.7534 136.123 38.8424 136.108 38.9258 136.076L40.9449 135.31C41.1137 135.245 41.2503 135.116 41.3246 134.951C41.3989 134.785 41.4049 134.596 41.3413 134.426L40.9364 133.339C40.8589 133.131 40.8531 132.903 40.9199 132.692C40.9866 132.48 41.1221 132.298 41.3044 132.173C41.9232 131.744 42.4948 131.249 43.0095 130.698C43.1596 130.536 43.3593 130.429 43.5767 130.395C43.7941 130.36 44.0167 130.4 44.2087 130.509L45.2147 131.082C45.2926 131.126 45.3785 131.154 45.4672 131.165C45.556 131.175 45.646 131.168 45.732 131.143C45.8183 131.12 45.8991 131.079 45.9696 131.024C46.0402 130.969 46.099 130.9 46.1426 130.821L47.2012 128.926C47.2896 128.767 47.3118 128.58 47.2631 128.404C47.2143 128.229 47.0985 128.08 46.9412 127.991L45.938 127.418C45.7464 127.309 45.5967 127.138 45.5127 126.933C45.4288 126.728 45.4154 126.5 45.4748 126.286C45.6757 125.558 45.7986 124.809 45.8414 124.054C45.8525 123.832 45.9373 123.62 46.0822 123.453C46.227 123.286 46.4235 123.172 46.6399 123.131L47.7766 122.918C47.9541 122.884 48.111 122.78 48.2129 122.63C48.3149 122.48 48.3537 122.295 48.3209 122.116L47.923 119.979C47.9071 119.89 47.8739 119.805 47.8253 119.729C47.7766 119.654 47.7135 119.588 47.6396 119.537C47.5657 119.486 47.4825 119.45 47.3948 119.432C47.3071 119.414 47.2166 119.413 47.1287 119.43L45.992 119.645C45.7749 119.685 45.5507 119.651 45.3555 119.547C45.1604 119.443 45.0057 119.276 44.9164 119.072C44.6075 118.384 44.2265 117.732 43.7796 117.126C43.6465 116.949 43.5764 116.732 43.5805 116.509C43.5846 116.287 43.6628 116.073 43.8024 115.901L44.5341 115.003C44.6485 114.862 44.7027 114.682 44.6848 114.501C44.667 114.32 44.5785 114.153 44.4389 114.038L42.7722 112.657C42.6321 112.543 42.4531 112.489 42.2738 112.507C42.0946 112.525 41.9295 112.613 41.8145 112.753L41.0827 113.651C40.9426 113.823 40.7492 113.942 40.5338 113.989C40.3184 114.037 40.0933 114.01 39.8948 113.913C39.2187 113.586 38.5093 113.335 37.7791 113.163C37.5644 113.113 37.3725 112.992 37.2341 112.819C37.0958 112.646 37.019 112.431 37.0161 112.209L36.9905 111.063C36.9898 110.973 36.9714 110.884 36.9364 110.801C36.9014 110.718 36.8505 110.643 36.7866 110.58C36.7227 110.516 36.647 110.467 36.564 110.433C36.481 110.4 36.3922 110.383 36.3028 110.384L34.1458 110.408C33.9654 110.411 33.7933 110.485 33.6671 110.615C33.5408 110.745 33.4708 110.92 33.4723 111.102L33.4851 112.263C33.487 112.485 33.4148 112.702 33.28 112.878C33.1452 113.054 32.9557 113.179 32.742 113.233C32.0154 113.422 31.3109 113.689 30.6404 114.029C30.4445 114.13 30.2204 114.162 30.0045 114.119C29.7885 114.076 29.5931 113.961 29.4497 113.793L28.6995 112.911C28.5814 112.773 28.4141 112.688 28.2342 112.675C28.0542 112.661 27.8762 112.719 27.7389 112.838L26.1021 114.253C25.9657 114.372 25.8815 114.54 25.8677 114.721C25.8538 114.903 25.9115 115.082 26.0282 115.221L26.7813 116.105C26.924 116.273 27.0065 116.486 27.0155 116.707C27.0245 116.929 26.9595 117.148 26.831 117.328C26.3947 117.943 26.0251 118.603 25.7284 119.297C25.6422 119.501 25.4905 119.671 25.2976 119.778C25.1046 119.885 24.8816 119.924 24.6641 119.889L23.5274 119.7C23.3494 119.671 23.1673 119.714 23.0206 119.819C22.874 119.925 22.7747 120.085 22.7444 120.264L22.3921 122.412C22.3637 122.591 22.4066 122.775 22.5114 122.922C22.5628 122.996 22.6285 123.059 22.7044 123.106C22.7803 123.154 22.8649 123.186 22.9533 123.2L24.09 123.39C24.3072 123.427 24.5059 123.537 24.6543 123.701C24.8027 123.865 24.8922 124.074 24.9085 124.296C24.9665 125.05 25.1042 125.795 25.3191 126.52C25.3845 126.733 25.3769 126.962 25.2975 127.169C25.2181 127.377 25.0716 127.552 24.8815 127.666L23.8869 128.257C23.8099 128.303 23.7426 128.364 23.6889 128.436C23.6352 128.508 23.5962 128.59 23.574 128.677C23.5518 128.764 23.5469 128.855 23.5597 128.944C23.5724 129.034 23.6025 129.119 23.6481 129.197L24.7465 131.069C24.839 131.225 24.9889 131.337 25.1634 131.382C25.338 131.428 25.5232 131.401 25.6786 131.309L26.6733 130.716C26.8242 130.623 26.9975 130.572 27.1748 130.569Z" fill="#7EB2B0"/>
<path d="M35.4916 130.062C35.0625 130.062 34.6343 130.021 34.2128 129.939C32.4872 129.584 30.97 128.557 29.9905 127.082C29.011 125.607 28.6482 123.802 28.9807 122.058C29.3133 120.315 30.3145 118.774 31.767 117.77C33.2195 116.767 35.0061 116.381 36.7392 116.696C38.3711 117.015 39.8268 117.934 40.8229 119.276C41.8191 120.617 42.2842 122.284 42.1278 123.952C41.9714 125.62 41.2046 127.17 39.9769 128.299C38.7491 129.429 37.1482 130.057 35.486 130.062H35.4916ZM35.4803 117.056C33.8816 117.053 32.3434 117.672 31.1849 118.782C30.0263 119.892 29.3364 121.41 29.2582 123.019C29.1801 124.629 29.7196 126.207 30.765 127.426C31.8104 128.645 33.2813 129.412 34.8726 129.567C36.4639 129.722 38.0533 129.254 39.3111 128.26C40.569 127.265 41.3986 125.82 41.628 124.226C41.8573 122.631 41.4687 121.008 40.5428 119.694C39.617 118.381 38.2248 117.477 36.6554 117.17C36.2682 117.095 35.8747 117.056 35.4803 117.056Z" fill="#7EB2B0"/>
<path d="M148.558 32.3819C148.486 32.3815 148.414 32.3689 148.346 32.3447L147.457 32.0296C147.297 31.9725 147.165 31.8537 147.092 31.6993C147.019 31.5449 147.009 31.3675 147.066 31.206L147.232 30.7277C147.238 30.7091 147.238 30.6891 147.232 30.6706C147.225 30.6522 147.213 30.6365 147.197 30.626C147.049 30.5284 146.907 30.4233 146.77 30.3109C146.635 30.1986 146.505 30.0791 146.382 29.9528C146.369 29.9383 146.352 29.9289 146.333 29.926C146.313 29.9231 146.294 29.927 146.277 29.9371L145.844 30.1949C145.771 30.2384 145.691 30.2668 145.607 30.2786C145.523 30.2904 145.438 30.2853 145.357 30.2636C145.275 30.243 145.199 30.2061 145.131 30.1552C145.064 30.1043 145.008 30.0403 144.966 29.9671L144.486 29.1507C144.399 29.0033 144.374 28.8273 144.416 28.6615C144.459 28.4956 144.564 28.3532 144.71 28.2656L145.143 28.0078C145.16 27.9978 145.173 27.9825 145.18 27.9643C145.187 27.9462 145.187 27.9262 145.182 27.9075C145.081 27.5674 145.015 27.2174 144.987 26.8634C144.986 26.8438 144.979 26.8251 144.966 26.8105C144.953 26.7958 144.935 26.7862 144.916 26.7832L144.419 26.7002C144.251 26.6717 144.102 26.5775 144.003 26.4382C143.904 26.2989 143.864 26.1258 143.892 25.9568L144.045 25.0201C144.073 24.8513 144.166 24.7004 144.304 24.6006C144.442 24.5007 144.613 24.46 144.781 24.4873L145.278 24.5704C145.297 24.5737 145.317 24.5702 145.334 24.5605C145.351 24.5509 145.364 24.5356 145.371 24.5174C145.51 24.1914 145.684 23.8813 145.888 23.5922C145.9 23.5771 145.906 23.5584 145.906 23.5392C145.906 23.5199 145.9 23.5012 145.888 23.4862L145.56 23.0995C145.449 22.9692 145.395 22.8002 145.408 22.6295C145.421 22.4588 145.501 22.3002 145.629 22.1885L146.34 21.5712C146.403 21.5154 146.477 21.4729 146.557 21.4464C146.637 21.4198 146.722 21.4097 146.806 21.4166C146.89 21.423 146.972 21.446 147.047 21.4844C147.122 21.5227 147.189 21.5756 147.243 21.64L147.572 22.0253C147.584 22.0401 147.601 22.0502 147.62 22.0538C147.639 22.0575 147.658 22.0545 147.675 22.0453C147.993 21.8843 148.326 21.7584 148.67 21.6701C148.689 21.6656 148.705 21.655 148.717 21.6399C148.729 21.6248 148.735 21.6062 148.735 21.587V21.08C148.734 20.9084 148.8 20.7432 148.919 20.6205C149.038 20.4978 149.2 20.4277 149.371 20.4254L150.311 20.4154C150.48 20.4158 150.642 20.4831 150.762 20.6029C150.883 20.7227 150.951 20.8853 150.953 21.0556V21.5626C150.954 21.582 150.962 21.6006 150.974 21.6156C150.986 21.6305 151.003 21.6411 151.022 21.6457C151.365 21.7262 151.699 21.8444 152.016 21.998C152.034 22.0066 152.053 22.009 152.072 22.0049C152.091 22.0007 152.108 21.9902 152.12 21.9751L152.44 21.5841C152.547 21.4519 152.703 21.3681 152.872 21.3512C153.041 21.3343 153.209 21.3856 153.341 21.4939L154.07 22.0969C154.135 22.1506 154.189 22.2168 154.229 22.2917C154.268 22.3666 154.293 22.4486 154.301 22.5332C154.309 22.6177 154.301 22.703 154.276 22.7842C154.252 22.8654 154.211 22.9409 154.158 23.0064L153.839 23.3988C153.827 23.4138 153.821 23.4325 153.821 23.4518C153.821 23.4711 153.827 23.4898 153.839 23.5048C154.05 23.7897 154.23 24.0965 154.376 24.42C154.384 24.4378 154.398 24.4525 154.415 24.4616C154.432 24.4707 154.451 24.4737 154.47 24.4701L154.965 24.377C155.047 24.3613 155.133 24.3621 155.215 24.3795C155.297 24.3969 155.376 24.4305 155.445 24.4784C155.515 24.5263 155.574 24.5875 155.62 24.6586C155.666 24.7297 155.698 24.8092 155.714 24.8926L155.887 25.8265C155.918 25.9947 155.882 26.1686 155.786 26.3099C155.69 26.4511 155.542 26.5482 155.375 26.5798L154.879 26.6744C154.861 26.678 154.843 26.6881 154.831 26.703C154.819 26.7178 154.812 26.7366 154.811 26.756C154.791 27.1106 154.733 27.4621 154.639 27.8044C154.634 27.823 154.635 27.8428 154.643 27.8607C154.65 27.8785 154.663 27.8935 154.679 27.9033L155.117 28.1525C155.265 28.2364 155.374 28.3763 155.42 28.5412C155.465 28.7061 155.444 28.8826 155.361 29.0319L154.898 29.854C154.814 30.003 154.675 30.1126 154.511 30.1588C154.348 30.2049 154.172 30.1839 154.024 30.1003L153.585 29.8511C153.568 29.8415 153.549 29.838 153.529 29.8411C153.51 29.8443 153.493 29.8538 153.48 29.8683C153.24 30.1276 152.972 30.3596 152.681 30.5601C152.665 30.5712 152.654 30.5874 152.648 30.6061C152.642 30.6247 152.642 30.6448 152.649 30.6632L152.825 31.1373C152.885 31.2976 152.879 31.4753 152.809 31.6314C152.739 31.7874 152.61 31.909 152.451 31.9694L151.569 32.3031C151.41 32.3635 151.233 32.3578 151.079 32.2871C150.924 32.2165 150.803 32.0868 150.743 31.9265L150.566 31.451C150.559 31.4326 150.546 31.4172 150.529 31.4073C150.512 31.3974 150.492 31.3936 150.473 31.3965C150.124 31.4381 149.771 31.4424 149.42 31.4094C149.401 31.4064 149.382 31.4104 149.365 31.4207C149.349 31.4309 149.337 31.4467 149.331 31.4653L149.163 31.9437C149.119 32.0695 149.036 32.1783 148.928 32.2552C148.82 32.3322 148.69 32.3734 148.558 32.3733V32.3819ZM146.318 29.4429C146.394 29.4431 146.469 29.4583 146.538 29.4878C146.608 29.5173 146.671 29.5605 146.723 29.6148C146.835 29.7286 146.952 29.8366 147.074 29.9385C147.197 30.0412 147.326 30.1369 147.459 30.2249C147.565 30.2949 147.644 30.3982 147.685 30.5185C147.725 30.6388 147.725 30.7693 147.684 30.8895L147.516 31.3693C147.503 31.4102 147.505 31.4548 147.524 31.4936C147.543 31.5325 147.576 31.5624 147.616 31.577L148.504 31.8921C148.545 31.9062 148.59 31.9037 148.629 31.8849C148.667 31.8665 148.697 31.8335 148.711 31.7933L148.879 31.3135C148.922 31.194 149.002 31.0922 149.109 31.024C149.215 30.9559 149.34 30.9252 149.466 30.9368C149.783 30.9673 150.102 30.9635 150.418 30.9253C150.543 30.9108 150.669 30.9387 150.777 31.0046C150.885 31.0704 150.968 31.1705 151.013 31.2891L151.191 31.766C151.206 31.8066 151.237 31.8393 151.277 31.857C151.316 31.8747 151.361 31.876 151.401 31.8606L152.282 31.5269C152.322 31.5111 152.354 31.4803 152.372 31.441C152.39 31.4017 152.392 31.357 152.377 31.3163L152.2 30.8408C152.156 30.7216 152.153 30.5912 152.191 30.4701C152.229 30.3491 152.306 30.2442 152.41 30.1719C152.672 29.9898 152.914 29.78 153.132 29.5461C153.218 29.4539 153.333 29.3933 153.457 29.3738C153.582 29.3544 153.709 29.3772 153.819 29.4386L154.26 29.6878C154.297 29.709 154.341 29.7144 154.383 29.7029C154.424 29.6913 154.459 29.6638 154.48 29.6263L154.943 28.7984C154.964 28.7602 154.968 28.7157 154.957 28.674C154.945 28.6324 154.918 28.5969 154.881 28.575L154.443 28.3272C154.334 28.2641 154.248 28.1661 154.2 28.0486C154.152 27.9312 154.144 27.8009 154.178 27.6784C154.262 27.3692 154.313 27.0518 154.331 26.7317C154.338 26.6047 154.388 26.4839 154.471 26.3882C154.554 26.2925 154.666 26.2274 154.79 26.2032L155.286 26.1086C155.307 26.1049 155.327 26.0969 155.345 26.0851C155.363 26.0733 155.378 26.0579 155.39 26.0399C155.413 26.0042 155.423 25.9605 155.415 25.9181L155.242 24.9843C155.234 24.9417 155.209 24.904 155.173 24.8796C155.138 24.8552 155.094 24.846 155.051 24.854L154.557 24.9471C154.433 24.9713 154.304 24.9524 154.192 24.8933C154.079 24.8343 153.99 24.7386 153.939 24.6219C153.807 24.3301 153.645 24.0535 153.454 23.797C153.379 23.6948 153.34 23.5704 153.343 23.4434C153.346 23.3163 153.39 23.1938 153.47 23.0952L153.788 22.7027C153.815 22.669 153.828 22.6261 153.824 22.5831C153.82 22.54 153.8 22.5002 153.767 22.4721L153.038 21.8706C153.021 21.8569 153.002 21.8466 152.982 21.8403C152.962 21.834 152.94 21.8319 152.919 21.834C152.898 21.8362 152.877 21.8425 152.858 21.8527C152.839 21.8629 152.823 21.8768 152.809 21.8935L152.489 22.2845C152.409 22.3821 152.299 22.4499 152.176 22.4774C152.053 22.5049 151.924 22.4904 151.81 22.4363C151.523 22.2977 151.222 22.1911 150.912 22.1184C150.789 22.089 150.679 22.0192 150.6 21.9198C150.521 21.8205 150.477 21.6973 150.475 21.5698V21.0628C150.474 21.0196 150.456 20.9784 150.426 20.9482C150.395 20.9179 150.354 20.9009 150.311 20.9009L149.369 20.911C149.326 20.9117 149.285 20.9296 149.255 20.9607C149.225 20.9918 149.208 21.0337 149.209 21.0771V21.5841C149.209 21.7116 149.168 21.8355 149.09 21.9364C149.013 22.0373 148.905 22.1094 148.782 22.1413C148.474 22.2209 148.176 22.3337 147.891 22.4779C147.778 22.534 147.649 22.5504 147.525 22.5245C147.402 22.4985 147.29 22.4317 147.208 22.3346L146.881 21.9508C146.852 21.9178 146.812 21.8973 146.769 21.8935C146.748 21.8915 146.727 21.8939 146.707 21.9006C146.687 21.9072 146.668 21.918 146.652 21.9322L145.942 22.5509C145.926 22.5648 145.912 22.5818 145.903 22.601C145.893 22.6202 145.888 22.6412 145.887 22.6626C145.884 22.684 145.887 22.7056 145.893 22.7261C145.9 22.7466 145.911 22.7654 145.925 22.7815L146.253 23.1668C146.335 23.2638 146.382 23.3855 146.387 23.5125C146.393 23.6396 146.356 23.7649 146.283 23.8686C146.097 24.1288 145.94 24.4088 145.815 24.7036C145.766 24.8206 145.678 24.9174 145.568 24.9789C145.457 25.0404 145.329 25.0629 145.204 25.043L144.707 24.96C144.665 24.9541 144.622 24.9647 144.587 24.9898C144.553 25.0149 144.529 25.0524 144.521 25.0946L144.368 26.0313C144.361 26.0739 144.372 26.1173 144.397 26.1523C144.422 26.1873 144.459 26.2112 144.501 26.2189L145 26.302C145.124 26.3239 145.238 26.3868 145.323 26.481C145.408 26.5751 145.459 26.6951 145.469 26.8219C145.494 27.1414 145.553 27.4572 145.644 27.7643C145.679 27.8859 145.674 28.016 145.628 28.1341C145.583 28.2523 145.5 28.352 145.392 28.4174L144.966 28.6767C144.929 28.699 144.902 28.7352 144.891 28.7773C144.881 28.8194 144.887 28.8641 144.909 28.9015L145.389 29.7179C145.411 29.7551 145.447 29.782 145.488 29.7928C145.53 29.8035 145.574 29.7972 145.611 29.7752L146.044 29.5174C146.128 29.4696 146.222 29.444 146.318 29.4429Z" fill="#00937D"/>
<path d="M149.953 29.4931C149.759 29.4929 149.565 29.4742 149.375 29.4372C148.604 29.2872 147.921 28.844 147.466 28.1995C147.011 27.5551 146.82 26.7588 146.932 25.976C147.044 25.1931 147.45 24.4838 148.067 23.9951C148.684 23.5063 149.464 23.2758 150.245 23.3512C151.026 23.4267 151.749 23.8023 152.262 24.4003C152.776 24.9982 153.042 25.7725 153.004 26.5625C152.966 27.3525 152.629 28.0977 152.061 28.6433C151.492 29.189 150.738 29.4933 149.953 29.4931ZM149.953 23.8142C149.291 23.8143 148.653 24.0716 148.174 24.5326C147.694 24.9936 147.409 25.623 147.378 26.2901C147.346 26.9573 147.571 27.6111 148.005 28.1159C148.439 28.6207 149.049 28.9378 149.708 29.0014C150.368 29.065 151.026 28.8703 151.547 28.4575C152.068 28.0448 152.412 27.4457 152.506 26.7846C152.601 26.1235 152.439 25.4511 152.055 24.9068C151.671 24.3626 151.094 23.9882 150.443 23.8614C150.279 23.8295 150.111 23.8137 149.943 23.8142H149.953Z" fill="#00937D"/>
<path d="M124.85 3.88572C124.756 3.88572 124.665 3.84799 124.599 3.78084C124.532 3.71369 124.495 3.62262 124.495 3.52765V0.358065C124.495 0.2631 124.532 0.172026 124.599 0.104875C124.665 0.0377254 124.756 0 124.85 0C124.944 0 125.034 0.0377254 125.101 0.104875C125.168 0.172026 125.205 0.2631 125.205 0.358065V3.52765C125.205 3.57473 125.196 3.62138 125.178 3.6649C125.161 3.70843 125.134 3.74798 125.101 3.78127C125.068 3.81455 125.029 3.84092 124.986 3.85884C124.943 3.87677 124.897 3.88591 124.85 3.88572Z" fill="#B4D1CC"/>
<path d="M126.421 2.3002H123.277C123.183 2.3002 123.092 2.26248 123.026 2.19533C122.959 2.12818 122.922 2.03711 122.922 1.94214C122.922 1.84718 122.959 1.7561 123.026 1.68895C123.092 1.6218 123.183 1.58408 123.277 1.58408H126.421C126.516 1.58408 126.606 1.6218 126.673 1.68895C126.739 1.7561 126.777 1.84718 126.777 1.94214C126.777 2.03711 126.739 2.12818 126.673 2.19533C126.606 2.26248 126.516 2.3002 126.421 2.3002Z" fill="#B4D1CC"/>
<path d="M150.237 152.5C150.121 152.5 150.009 152.453 149.927 152.37C149.845 152.287 149.798 152.174 149.798 152.057V148.13C149.798 148.012 149.845 147.9 149.927 147.817C150.009 147.734 150.121 147.687 150.237 147.687C150.354 147.687 150.466 147.734 150.548 147.817C150.63 147.9 150.676 148.012 150.676 148.13V152.057C150.676 152.174 150.63 152.287 150.548 152.37C150.466 152.453 150.354 152.5 150.237 152.5Z" fill="#B4D1CC"/>
<path d="M152.19 150.536H148.294C148.177 150.536 148.065 150.489 147.983 150.406C147.901 150.323 147.854 150.211 147.854 150.094C147.854 149.976 147.901 149.864 147.983 149.781C148.065 149.698 148.177 149.651 148.294 149.651H152.19C152.306 149.651 152.418 149.698 152.5 149.781C152.582 149.864 152.629 149.976 152.629 150.094C152.629 150.211 152.582 150.323 152.5 150.406C152.418 150.489 152.306 150.536 152.19 150.536Z" fill="#B4D1CC"/>
<path d="M194.202 59.0062C194.107 59.0062 194.017 58.9684 193.95 58.9013C193.884 58.8341 193.846 58.7431 193.846 58.6481V55.4785C193.846 55.3836 193.884 55.2925 193.95 55.2253C194.017 55.1582 194.107 55.1205 194.202 55.1205C194.296 55.1205 194.386 55.1582 194.453 55.2253C194.519 55.2925 194.557 55.3836 194.557 55.4785V58.6424C194.558 58.6899 194.549 58.7372 194.532 58.7814C194.514 58.8256 194.488 58.8658 194.455 58.8997C194.422 58.9336 194.383 58.9605 194.339 58.9788C194.296 58.9971 194.249 59.0064 194.202 59.0062Z" fill="#00937D"/>
<path d="M195.773 57.4207H192.629C192.534 57.4207 192.444 57.3829 192.377 57.3158C192.311 57.2486 192.273 57.1576 192.273 57.0626C192.273 56.9676 192.311 56.8766 192.377 56.8094C192.444 56.7423 192.534 56.7045 192.629 56.7045H195.773C195.867 56.7045 195.958 56.7423 196.024 56.8094C196.091 56.8766 196.128 56.9676 196.128 57.0626C196.128 57.1576 196.091 57.2486 196.024 57.3158C195.958 57.3829 195.867 57.4207 195.773 57.4207Z" fill="#00937D"/>
<path d="M22.1436 50.172C22.0493 50.172 21.959 50.1343 21.8924 50.0671C21.8258 50 21.7883 49.9089 21.7883 49.8139V46.6443C21.7883 46.5494 21.8258 46.4583 21.8924 46.3912C21.959 46.324 22.0493 46.2863 22.1436 46.2863C22.2378 46.2863 22.3281 46.324 22.3947 46.3912C22.4614 46.4583 22.4988 46.5494 22.4988 46.6443V49.8139C22.499 49.861 22.4899 49.9077 22.4721 49.9512C22.4543 49.9947 22.4282 50.0343 22.3952 50.0676C22.3621 50.1008 22.3229 50.1272 22.2797 50.1451C22.2365 50.1631 22.1903 50.1722 22.1436 50.172Z" fill="#00937D"/>
<path d="M23.715 48.5865H20.5706C20.4763 48.5865 20.386 48.5488 20.3194 48.4816C20.2528 48.4145 20.2153 48.3234 20.2153 48.2284C20.2153 48.1335 20.2528 48.0424 20.3194 47.9752C20.386 47.9081 20.4763 47.8704 20.5706 47.8704H23.715C23.8093 47.8704 23.8996 47.9081 23.9662 47.9752C24.0328 48.0424 24.0703 48.1335 24.0703 48.2284C24.0703 48.3234 24.0328 48.4145 23.9662 48.4816C23.8996 48.5488 23.8093 48.5865 23.715 48.5865Z" fill="#00937D"/>
<path d="M38.2183 156.52C38.1717 156.52 38.1256 156.511 38.0826 156.493C38.0396 156.475 38.0005 156.448 37.9676 156.415C37.9347 156.382 37.9087 156.342 37.891 156.299C37.8733 156.255 37.8643 156.209 37.8645 156.162V152.992C37.8645 152.897 37.9019 152.806 37.9685 152.739C38.0352 152.672 38.1255 152.634 38.2197 152.634C38.3139 152.634 38.4043 152.672 38.4709 152.739C38.5375 152.806 38.575 152.897 38.575 152.992V156.162C38.575 156.209 38.5657 156.256 38.5478 156.299C38.5298 156.343 38.5035 156.382 38.4704 156.416C38.4373 156.449 38.3979 156.475 38.3547 156.493C38.3114 156.511 38.2651 156.52 38.2183 156.52Z" fill="#43747C"/>
<path d="M39.7912 154.935H36.6467C36.5525 154.935 36.4622 154.897 36.3955 154.83C36.3289 154.762 36.2915 154.671 36.2915 154.576C36.2915 154.481 36.3289 154.39 36.3955 154.323C36.4622 154.256 36.5525 154.218 36.6467 154.218H39.7912C39.8854 154.218 39.9758 154.256 40.0424 154.323C40.109 154.39 40.1464 154.481 40.1464 154.576C40.1464 154.671 40.109 154.762 40.0424 154.83C39.9758 154.897 39.8854 154.935 39.7912 154.935Z" fill="#43747C"/>
</g>
<defs>
<clipPath id="clip0_2307_11386">
<rect width="203" height="212" fill="white"/>
</clipPath>
</defs>
</svg>
