<svg width="28" height="28" viewBox="0 0 28 28" fill="none" xmlns="http://www.w3.org/2000/svg">
<g clip-path="url(#clip0_3278_74255)">
<path d="M25.9503 4H2.04809C1.64403 4 1.31641 4.32762 1.31641 4.73169V8.87797H26.682V4.73169C26.682 4.32762 26.3543 4 25.9503 4ZM19.8528 7.90238H18.8772C18.4731 7.90238 18.1455 7.57476 18.1455 7.1707C18.1455 6.76663 18.4731 6.43901 18.8772 6.43901H19.8528C20.2569 6.43901 20.5845 6.76663 20.5845 7.1707C20.5845 7.57476 20.2569 7.90238 19.8528 7.90238ZM22.7796 7.90238H21.804C21.3999 7.90238 21.0723 7.57476 21.0723 7.1707C21.0723 6.76663 21.3999 6.43901 21.804 6.43901H22.7796C23.1837 6.43901 23.5113 6.76663 23.5113 7.1707C23.5113 7.57476 23.1837 7.90238 22.7796 7.90238Z" fill="#797979"/>
<path d="M14.0008 13.2683C12.2524 13.2683 10.8301 14.6907 10.8301 16.439C10.8301 18.1873 12.2524 19.6097 14.0008 19.6097C15.7491 19.6097 17.1715 18.1873 17.1715 16.439C17.1715 14.6907 15.7491 13.2683 14.0008 13.2683ZM14.0008 17.9512C13.1669 17.9512 12.4886 17.2728 12.4886 16.439C12.4886 15.6052 13.1669 14.9268 14.0008 14.9268C14.8346 14.9268 15.5129 15.6052 15.5129 16.439C15.5129 17.2728 14.8346 17.9512 14.0008 17.9512Z" fill="#797979"/>
<path d="M3.51172 10.3413V13.512C3.51172 16.3134 4.60264 18.9471 6.58348 20.9279C8.56432 22.9088 11.198 23.9997 13.9994 23.9997C16.8007 23.9997 19.4345 22.9088 21.4153 20.9279C23.3961 18.9471 24.4871 16.3134 24.4871 13.512V10.3413H3.51172ZM13.9994 21.0729C11.4442 21.0729 9.36532 18.994 9.36532 16.4388C9.36532 13.8836 11.4442 11.8047 13.9994 11.8047C16.5546 11.8047 18.6335 13.8836 18.6335 16.4388C18.6335 18.994 16.5546 21.0729 13.9994 21.0729Z" fill="#797979"/>
<circle cx="22.5" cy="21.5" r="6.5" fill="white"/>
<path d="M24.2461 23.3172C23.7714 23.3172 23.353 23.5507 23.0903 23.9058L20.8186 22.7426C20.8563 22.6141 20.8828 22.4808 20.8828 22.3402C20.8828 22.1496 20.8437 21.9683 20.7762 21.8015L23.1536 20.3709C23.4182 20.6814 23.8071 20.8828 24.2461 20.8828C25.0409 20.8828 25.6875 20.2362 25.6875 19.4414C25.6875 18.6466 25.0409 18 24.2461 18C23.4513 18 22.8047 18.6466 22.8047 19.4414C22.8047 19.6246 22.8424 19.7983 22.905 19.9596L20.5205 21.3945C20.2561 21.0932 19.8728 20.8988 19.4414 20.8988C18.6466 20.8988 18 21.5454 18 22.3402C18 23.1351 18.6466 23.7816 19.4414 23.7816C19.924 23.7816 20.3493 23.5413 20.6111 23.1762L22.8753 24.3356C22.8336 24.4702 22.8047 24.6104 22.8047 24.7586C22.8047 25.5534 23.4513 26.2 24.2461 26.2C25.0409 26.2 25.6875 25.5534 25.6875 24.7586C25.6875 23.9638 25.0409 23.3172 24.2461 23.3172Z" fill="#797979"/>
</g>
<defs>
<clipPath id="clip0_3278_74255">
<rect width="28" height="28" fill="white"/>
</clipPath>
</defs>
</svg>
