<svg width="203" height="211" viewBox="0 0 203 211" fill="none" xmlns="http://www.w3.org/2000/svg">
<g clip-path="url(#clip0_1157_72563)">
<path opacity="0.11" d="M157.245 111.917C162.991 91.691 183.427 92.3282 188.883 63.3862C195.394 28.8577 157.963 -3.25457 114.494 11.4253C71.0257 26.1051 93.128 58.9971 39.3067 73.4902C-2.34591 84.7046 -14.4706 134.178 20.4242 157.963C42.6743 173.127 60.3717 162.308 80.1253 168.527C99.8788 174.747 104.187 200.42 129.367 203.72C152.748 206.785 173.331 181.23 159.053 152.687C150.506 135.605 154.868 120.285 157.245 111.917Z" fill="#00937D"/>
<path d="M202.926 73.6748C202.282 72.1623 190.028 63.8716 171.569 71.7731C156.258 78.3304 151.566 88.6554 151.071 93.5463C151.446 93.2925 151.82 93.0445 152.208 92.7965C153.049 92.2448 153.9 91.7131 154.756 91.1928C155.611 90.6725 156.481 90.1735 157.34 89.6646C158.2 89.1557 159.089 88.6953 159.962 88.2092C163.478 86.3239 167.094 84.6326 170.794 83.1429C174.48 81.6509 178.266 80.4172 182.122 79.4509L185.02 78.7809C185.989 78.5756 186.972 78.4402 187.945 78.2663L189.407 78.0211C189.896 77.9513 190.391 77.9171 190.882 77.8643L193.827 77.5792L190.917 78.1009C190.433 78.1922 189.947 78.2649 189.467 78.3718L188.033 78.7225C187.083 78.9705 186.124 79.1801 185.183 79.458L182.377 80.3433C178.671 81.6162 175.032 83.0717 171.544 84.8421C168.049 86.5793 164.651 88.5066 161.366 90.6154C160.554 91.1543 159.735 91.6803 158.93 92.2291C158.126 92.7779 157.323 93.3267 156.543 93.9055C155.104 94.9404 153.667 96.0437 152.339 97.14C155.807 100.208 166.708 104.503 182.604 97.7002C201.055 89.7986 203.503 75.0333 202.926 73.6748Z" fill="#00937D"/>
<path d="M151.071 93.5464C151.071 93.5464 150.399 95.7873 152.334 97.1401C152.334 97.1401 174.171 80.3976 193.825 77.5723C193.819 77.5723 173.932 77.8802 151.071 93.5464Z" fill="white"/>
<path d="M179.465 27.4891C177.542 26.5639 158.453 29.0201 147.164 52.6649C137.801 72.2784 142.059 86.4265 145.766 91.6381C145.908 91.0679 146.068 90.4977 146.227 89.9275C146.578 88.6617 146.956 87.4087 147.347 86.1613C147.738 84.914 148.161 83.6781 148.565 82.4379C148.968 81.1978 149.446 79.9818 149.885 78.7544C151.708 73.8783 153.795 69.1058 156.137 64.4581C158.439 59.801 161.147 55.3534 164.057 51.0783L166.316 47.9251C167.088 46.8902 167.935 45.908 168.732 44.9002L169.951 43.3991C170.377 42.9102 170.825 42.4497 171.26 41.9736L173.89 39.1497L171.491 42.1689C171.096 42.675 170.683 43.1668 170.305 43.6814L169.212 45.2665C168.493 46.3285 167.736 47.3606 167.054 48.4426L165.065 51.7298C162.528 56.1702 160.218 60.7304 158.321 65.4702C156.391 70.1828 154.719 74.9977 153.312 79.8934C152.98 81.1208 152.627 82.341 152.318 83.5712C152.008 84.8014 151.687 86.0316 151.419 87.2704C150.897 89.5227 150.436 91.8391 150.077 94.0586C156.099 94.07 170.441 88.8712 180.159 68.5151C191.444 44.8745 181.195 28.3187 179.465 27.4891Z" fill="#5FB8AB"/>
<path d="M145.766 91.6379C145.766 91.6379 147.029 94.4091 150.08 94.0613C150.08 94.0613 157.097 58.8514 173.897 39.1523C173.897 39.1538 154.707 56.6005 145.766 91.6379Z" fill="white"/>
<path d="M87.7171 33.4089C86.3459 32.5108 71.5656 32.4467 60.5919 49.3047C51.4896 63.2874 53.3069 74.489 55.6045 78.8325C55.775 78.4134 55.9484 77.9972 56.1274 77.5795C56.5224 76.6515 56.9359 75.7349 57.3593 74.8254C57.7828 73.916 58.2289 73.0179 58.6609 72.117C59.0929 71.2161 59.5831 70.3394 60.0406 69.4442C61.9192 65.9161 63.9893 62.494 66.2415 59.1934C68.4609 55.8805 70.9717 52.7701 73.6174 49.8093L75.655 47.6383C76.347 46.9255 77.0901 46.2669 77.802 45.5813L78.8819 44.562C79.2499 44.2313 79.6421 43.9277 80.0186 43.6098L82.3049 41.7267L80.1735 43.7808C79.8225 44.1258 79.463 44.4565 79.1178 44.8129L78.1231 45.9091C77.4695 46.6447 76.7889 47.3532 76.1609 48.1087L74.3137 50.4094C71.945 53.5327 69.7284 56.7715 67.8087 60.187C65.8647 63.5792 64.1068 67.0755 62.5428 70.6601C62.1663 71.561 61.7741 72.4548 61.4061 73.3586C61.0381 74.2624 60.6786 75.1676 60.3504 76.0842C59.7252 77.7463 59.1412 79.4626 58.6453 81.1162C63.2291 81.7348 74.6717 79.2302 84.118 64.7229C95.0945 47.8592 88.9547 34.2172 87.7171 33.4089Z" fill="#5FB8AB"/>
<path d="M55.6045 78.8333C55.6045 78.8333 56.2865 81.0713 58.6438 81.1141C58.6438 81.1141 67.5302 55.0274 82.3034 41.7246C82.3077 41.7275 65.943 53.0659 55.6045 78.8333Z" fill="white"/>
<path d="M183.286 113.128C183.223 113.128 183.162 113.102 183.118 113.058C183.073 113.013 183.048 112.952 183.048 112.888V111.561C183.048 111.406 183.109 111.258 183.218 111.148C183.327 111.039 183.474 110.977 183.629 110.977H184.953C185.013 110.981 185.07 111.009 185.111 111.053C185.152 111.098 185.175 111.156 185.175 111.217C185.175 111.277 185.152 111.336 185.111 111.38C185.07 111.425 185.013 111.452 184.953 111.457H183.629C183.601 111.457 183.575 111.468 183.556 111.488C183.537 111.507 183.526 111.534 183.526 111.561V112.888C183.526 112.952 183.501 113.013 183.456 113.058C183.411 113.102 183.35 113.128 183.286 113.128Z" fill="#00937D"/>
<path d="M195.961 113.128C195.929 113.128 195.898 113.122 195.869 113.11C195.84 113.098 195.813 113.08 195.791 113.058C195.769 113.036 195.751 113.009 195.739 112.98C195.727 112.951 195.721 112.92 195.721 112.888V111.561C195.721 111.533 195.71 111.507 195.69 111.487C195.671 111.468 195.644 111.457 195.617 111.457H194.294C194.234 111.452 194.177 111.425 194.136 111.38C194.095 111.336 194.072 111.277 194.072 111.217C194.072 111.156 194.095 111.098 194.136 111.053C194.177 111.009 194.234 110.981 194.294 110.977H195.617C195.771 110.977 195.919 111.039 196.028 111.148C196.138 111.258 196.199 111.406 196.2 111.561V112.888C196.2 112.952 196.174 113.013 196.13 113.058C196.085 113.102 196.024 113.128 195.961 113.128Z" fill="#00937D"/>
<path d="M184.953 124.171H183.629C183.474 124.171 183.327 124.109 183.218 123.999C183.109 123.89 183.048 123.741 183.048 123.587V122.259C183.052 122.199 183.079 122.142 183.124 122.101C183.168 122.06 183.227 122.037 183.287 122.037C183.348 122.037 183.406 122.06 183.45 122.101C183.495 122.142 183.522 122.199 183.526 122.259V123.587C183.526 123.614 183.537 123.64 183.556 123.66C183.575 123.679 183.601 123.69 183.629 123.691H184.953C185.013 123.695 185.07 123.723 185.111 123.767C185.152 123.812 185.175 123.87 185.175 123.931C185.175 123.992 185.152 124.05 185.111 124.095C185.07 124.139 185.013 124.166 184.953 124.171Z" fill="#00937D"/>
<path d="M195.617 124.171H194.294C194.234 124.166 194.177 124.139 194.136 124.095C194.095 124.05 194.072 123.992 194.072 123.931C194.072 123.87 194.095 123.812 194.136 123.767C194.177 123.723 194.234 123.695 194.294 123.691H195.617C195.644 123.691 195.671 123.68 195.69 123.66C195.71 123.641 195.721 123.614 195.721 123.587V122.259C195.725 122.199 195.753 122.142 195.797 122.101C195.841 122.06 195.9 122.037 195.96 122.037C196.021 122.037 196.079 122.06 196.123 122.101C196.168 122.142 196.195 122.199 196.2 122.259V123.587C196.199 123.742 196.138 123.89 196.028 124C195.919 124.109 195.771 124.171 195.617 124.171Z" fill="#00937D"/>
<path d="M64.0277 155.99C63.9643 155.99 63.9034 155.964 63.8584 155.92C63.8134 155.875 63.788 155.814 63.7876 155.75V154.752C63.7876 154.62 63.8401 154.492 63.9337 154.399C64.0272 154.305 64.1541 154.252 64.2863 154.252H65.281C65.3413 154.257 65.3976 154.284 65.4387 154.328C65.4798 154.373 65.5026 154.431 65.5026 154.492C65.5026 154.553 65.4798 154.611 65.4387 154.656C65.3976 154.7 65.3413 154.728 65.281 154.732H64.2863L64.2664 155.752C64.2661 155.815 64.2407 155.875 64.196 155.92C64.1513 155.965 64.0908 155.99 64.0277 155.99Z" fill="#7EB2B0"/>
<path d="M73.5762 155.99C73.5129 155.99 73.4522 155.965 73.4075 155.92C73.3627 155.875 73.3375 155.814 73.3375 155.751V154.753L72.3216 154.733C72.2886 154.736 72.2554 154.731 72.2242 154.72C72.1929 154.709 72.1643 154.692 72.14 154.67C72.1157 154.647 72.0963 154.62 72.0831 154.589C72.0698 154.559 72.063 154.526 72.063 154.493C72.063 154.46 72.0698 154.427 72.0831 154.396C72.0963 154.366 72.1157 154.339 72.14 154.316C72.1643 154.294 72.1929 154.276 72.2242 154.265C72.2554 154.254 72.2886 154.25 72.3216 154.253H73.3162C73.4483 154.253 73.5747 154.306 73.668 154.4C73.7612 154.494 73.8135 154.621 73.8135 154.753V155.751C73.8135 155.814 73.7886 155.875 73.7441 155.92C73.6997 155.965 73.6393 155.99 73.5762 155.99Z" fill="#7EB2B0"/>
<path d="M65.2824 164.311H64.2878C64.1558 164.311 64.0291 164.258 63.9356 164.165C63.8421 164.071 63.7894 163.944 63.789 163.812V162.814C63.7865 162.781 63.7908 162.748 63.8017 162.716C63.8126 162.685 63.8298 162.656 63.8523 162.632C63.8747 162.608 63.902 162.588 63.9323 162.575C63.9626 162.562 63.9954 162.555 64.0285 162.555C64.0616 162.555 64.0943 162.562 64.1246 162.575C64.1549 162.588 64.1822 162.608 64.2047 162.632C64.2272 162.656 64.2444 162.685 64.2553 162.716C64.2661 162.748 64.2704 162.781 64.2679 162.814V163.812L65.2838 163.832C65.3472 163.832 65.4079 163.857 65.4526 163.902C65.4974 163.947 65.5226 164.008 65.5226 164.071C65.5226 164.135 65.4974 164.196 65.4526 164.241C65.4079 164.286 65.3472 164.311 65.2838 164.311H65.2824Z" fill="#7EB2B0"/>
<path d="M73.3176 164.31H72.3229C72.2596 164.31 72.1989 164.285 72.1541 164.24C72.1094 164.195 72.0842 164.134 72.0842 164.07C72.0842 164.007 72.1094 163.946 72.1541 163.901C72.1989 163.856 72.2596 163.831 72.3229 163.831H73.3176L73.3375 162.812C73.3375 162.748 73.3626 162.687 73.4074 162.642C73.4522 162.597 73.5129 162.572 73.5762 162.572C73.6395 162.572 73.7002 162.597 73.745 162.642C73.7898 162.687 73.8149 162.748 73.8149 162.812V163.81C73.8151 163.875 73.8024 163.94 73.7775 164.001C73.7525 164.062 73.7159 164.117 73.6697 164.163C73.6235 164.21 73.5687 164.247 73.5082 164.272C73.4478 164.297 73.383 164.31 73.3176 164.31Z" fill="#7EB2B0"/>
<path d="M44.1179 49.0918C47.5153 58.1637 49.7163 67.6105 51.2225 77.1371C52.7286 86.6638 53.5272 96.2987 53.9847 105.932C54.2689 109.101 56.6845 108.257 56.5424 105.754C55.6543 96.0821 54.411 86.4286 52.4857 76.9062C50.5603 67.3838 47.9118 58.0012 44.1179 49.0918Z" fill="#43747C"/>
<path d="M34.5551 30.4151C35.4461 30.0074 44.1776 31.2946 49.1536 42.2325C53.2742 51.3044 51.2111 57.7548 49.4676 60.1126C49.4037 59.8503 49.3383 59.5894 49.2701 59.3257C49.1195 58.7427 48.9575 58.1654 48.7884 57.5895C48.6193 57.0136 48.436 56.4491 48.2613 55.8789C48.0865 55.3087 47.8776 54.7385 47.6929 54.1797C46.8976 51.9287 45.9802 49.723 44.9448 47.5725C43.917 45.4256 42.7414 43.3531 41.4267 41.3701L40.4178 39.9047C40.0725 39.4243 39.6932 38.9667 39.3322 38.4977L38.7866 37.7992C38.5976 37.5711 38.393 37.3559 38.1984 37.1349L37.0162 35.8178L38.0904 37.2219C38.268 37.4571 38.4527 37.6852 38.6218 37.9261L39.1092 38.6616C39.4303 39.1549 39.7685 39.6353 40.0725 40.137L40.9549 41.6609C42.0922 43.7082 43.0869 45.8321 43.9317 48.0172C44.7742 50.1905 45.4985 52.408 46.1015 54.66C46.2436 55.2302 46.3956 55.789 46.5277 56.355C46.6599 56.9209 46.7963 57.4954 46.9085 58.0656C47.1288 59.1033 47.3206 60.1696 47.467 61.1903C44.7061 61.1447 38.1742 58.6386 33.8902 49.2232C28.9141 38.2853 33.7552 30.7815 34.5551 30.4151Z" fill="#00937D"/>
<path d="M49.4676 60.1121C49.4676 60.1121 48.8652 61.3723 47.4684 61.1884C47.4684 61.1884 44.547 44.9876 37.0105 35.8145C37.0105 35.8102 45.6582 43.9683 49.4676 60.1121Z" fill="white"/>
<path d="M27.2872 59.7438C27.9678 59.0382 36.5658 57.0353 45.1779 65.4016C52.3208 72.3367 52.7386 79.1007 51.9741 81.9374C51.8193 81.7151 51.663 81.497 51.5038 81.2774C51.1514 80.7885 50.7934 80.3109 50.4239 79.8363C50.0545 79.3616 49.6794 78.8997 49.3085 78.4307C48.9377 77.9617 48.5384 77.5155 48.1562 77.058C46.5967 75.252 44.9403 73.5327 43.1943 71.9076C41.4559 70.286 39.6076 68.787 37.6627 67.4216L36.1892 66.4237C35.6933 66.1015 35.1733 65.815 34.6674 65.51L33.9044 65.0652C33.6472 64.9226 33.3787 64.7972 33.1158 64.6618L31.5357 63.8692L33.0476 64.7801C33.2977 64.9341 33.5534 65.078 33.7978 65.2405L34.5197 65.748C34.9971 66.0887 35.4873 66.4109 35.9534 66.7672L37.3288 67.8635C39.1326 69.3531 40.8314 70.9663 42.4128 72.6916C43.9917 74.4096 45.4759 76.2127 46.8589 78.0929C47.197 78.5676 47.5423 79.0351 47.8734 79.5184C48.2045 80.0016 48.5355 80.4749 48.8481 80.9652C49.4307 81.8505 49.9977 82.7714 50.5049 83.6737C47.9174 84.6416 40.9237 84.7001 33.5108 77.5027C24.8987 69.1364 26.6762 60.3781 27.2872 59.7438Z" fill="#00937D"/>
<path d="M51.9742 81.9345C51.9742 81.9345 51.8719 83.3287 50.5049 83.6679C50.5049 83.6679 41.8914 69.6538 31.5358 63.8691C31.5358 63.8691 42.5606 68.301 51.9742 81.9345Z" fill="white"/>
<path d="M131.687 211.001C127.112 211.001 119.183 208.606 111.864 199.217C106.536 192.387 105.277 186.082 105.159 181.997C105.017 177.28 106.296 174.235 106.83 173.818C107.502 173.291 110.965 172.932 115.186 174.124C119.087 175.227 124.848 177.972 130.197 184.823C138.474 195.435 137.928 204.756 136.307 208.592C136.289 208.634 136.259 208.669 136.222 208.694C136.184 208.72 136.14 208.734 136.095 208.735C136.05 208.735 136.005 208.724 135.966 208.701C135.927 208.678 135.895 208.645 135.873 208.605C135.707 208.279 135.539 207.956 135.366 207.631C135.019 206.977 134.633 206.279 134.184 205.493C133.925 205.028 133.654 204.577 133.382 204.126C133.235 203.882 133.089 203.638 132.945 203.393C132.672 202.947 132.391 202.502 132.108 202.058L131.652 201.336C129.894 198.624 127.99 196.009 125.948 193.505C123.917 191.004 121.715 188.648 119.357 186.454L117.556 184.85C117.285 184.615 116.999 184.384 116.715 184.159C116.981 184.406 117.247 184.659 117.504 184.919L119.156 186.654C121.316 189.006 123.31 191.506 125.124 194.136C126.934 196.752 128.601 199.464 130.117 202.262C130.252 202.52 130.387 202.773 130.522 203.028C130.758 203.475 130.994 203.919 131.223 204.37C131.348 204.628 131.474 204.879 131.599 205.131C131.828 205.587 132.057 206.045 132.268 206.508C132.906 207.845 133.489 209.179 134.001 210.47C134.013 210.502 134.018 210.537 134.016 210.571C134.014 210.606 134.005 210.64 133.989 210.67C133.973 210.701 133.95 210.728 133.923 210.749C133.895 210.77 133.864 210.785 133.83 210.793C133.125 210.94 132.407 211.009 131.687 211.001ZM109.775 173.808C108.299 173.808 107.341 174.027 107.125 174.196C106.722 174.513 105.507 177.458 105.638 181.982C105.753 185.997 106.993 192.193 112.241 198.92C120.549 209.572 129.576 211.08 133.452 210.377C132.97 209.181 132.428 207.954 131.838 206.709C131.626 206.247 131.4 205.795 131.174 205.343C131.048 205.09 130.922 204.836 130.796 204.581C130.572 204.137 130.337 203.694 130.103 203.251C129.967 202.995 129.832 202.74 129.698 202.484C128.188 199.703 126.528 197.007 124.725 194.408C122.925 191.797 120.945 189.316 118.8 186.982L117.154 185.254C116.8 184.893 116.417 184.541 116.046 184.199C115.838 184.007 115.63 183.816 115.425 183.62L114.548 182.805C114.364 182.642 114.167 182.484 113.97 182.324C113.859 182.235 113.745 182.145 113.635 182.052L111.772 180.541C111.721 180.503 111.687 180.447 111.678 180.384C111.668 180.321 111.684 180.257 111.722 180.206C111.76 180.155 111.816 180.121 111.879 180.112C111.941 180.102 112.005 180.118 112.056 180.156L114.035 181.52L114.381 181.759C114.599 181.908 114.82 182.058 115.03 182.216L115.979 182.969C116.199 183.147 116.421 183.322 116.644 183.498C117.049 183.816 117.467 184.146 117.865 184.496L119.666 186.112C122.042 188.321 124.26 190.695 126.305 193.215C128.359 195.734 130.274 198.363 132.041 201.091L132.497 201.812C132.781 202.26 133.066 202.706 133.34 203.16C133.482 203.406 133.624 203.649 133.777 203.891C134.052 204.346 134.327 204.803 134.586 205.269C135.035 206.053 135.424 206.756 135.774 207.408C135.863 207.577 135.953 207.745 136.041 207.915C137.462 203.914 137.617 195.124 129.81 185.117C124.553 178.374 118.879 175.667 115.048 174.585C113.334 174.088 111.56 173.827 109.775 173.808Z" fill="#B4D1CC"/>
<path d="M143.089 199.283C142.592 199.289 142.096 199.241 141.61 199.141C141.576 199.133 141.544 199.118 141.517 199.097C141.489 199.075 141.467 199.049 141.451 199.018C141.435 198.987 141.425 198.953 141.423 198.919C141.421 198.884 141.427 198.85 141.439 198.817C141.791 197.931 142.191 197.018 142.625 196.109C142.768 195.795 142.925 195.484 143.082 195.172C143.168 195 143.254 194.827 143.339 194.653C143.499 194.334 143.666 194.022 143.83 193.71L144.093 193.211C145.129 191.297 146.267 189.441 147.503 187.651C148.743 185.853 150.107 184.144 151.584 182.536L151.896 182.209L151.557 182.512C149.952 184.006 148.452 185.611 147.069 187.315C145.675 189.025 144.376 190.809 143.175 192.66L142.86 193.161C142.67 193.46 142.478 193.761 142.292 194.065C142.195 194.23 142.094 194.397 141.995 194.563C141.808 194.87 141.624 195.178 141.45 195.491C141.166 195.975 140.902 196.458 140.642 196.948C140.524 197.171 140.409 197.392 140.295 197.614C140.274 197.654 140.242 197.687 140.202 197.71C140.163 197.733 140.119 197.745 140.074 197.744C140.028 197.742 139.985 197.728 139.947 197.703C139.91 197.678 139.88 197.643 139.862 197.601C138.745 194.965 138.367 188.565 144.042 181.291C150.978 172.4 159.206 173.054 160.107 173.761C160.972 174.441 163.494 182.481 156.683 191.215C151.67 197.637 146.233 199.283 143.089 199.283ZM141.992 198.723C144.669 199.162 150.725 198.076 156.313 190.91C163.18 182.107 160.277 174.501 159.82 174.13C159.358 173.767 151.348 172.705 144.427 181.577C139.221 188.251 139.214 194.122 140.126 196.91L140.228 196.717C140.491 196.223 140.764 195.734 141.041 195.249C141.217 194.933 141.405 194.622 141.592 194.31C141.693 194.143 141.793 193.978 141.891 193.811C142.078 193.501 142.27 193.199 142.459 192.897L142.776 192.397C143.986 190.53 145.297 188.73 146.702 187.007C148.1 185.287 149.616 183.667 151.239 182.16L152.471 181.054C152.744 180.817 153.024 180.596 153.304 180.375C153.459 180.254 153.611 180.135 153.763 180.012L154.409 179.499C154.551 179.386 154.709 179.284 154.86 179.181L156.447 178.086C156.498 178.056 156.558 178.046 156.616 178.058C156.674 178.07 156.726 178.103 156.761 178.151C156.796 178.198 156.812 178.257 156.807 178.317C156.801 178.376 156.774 178.431 156.731 178.471L155.239 179.676C155.097 179.784 154.969 179.892 154.84 180.008L154.244 180.561C154.102 180.693 153.96 180.826 153.818 180.957C153.564 181.194 153.308 181.429 153.064 181.67L151.941 182.85C150.48 184.44 149.131 186.13 147.906 187.909C146.677 189.683 145.545 191.523 144.517 193.42L144.254 193.919C144.089 194.23 143.926 194.539 143.766 194.851C143.683 195.024 143.596 195.198 143.509 195.372C143.356 195.678 143.202 195.986 143.059 196.297C142.671 197.119 142.313 197.93 141.996 198.723H141.992Z" fill="#B4D1CC"/>
<path d="M105.389 89.5764C136.019 89.5764 160.85 84.6672 160.85 78.6115C160.85 72.5557 136.019 67.6465 105.389 67.6465C74.7587 67.6465 49.928 72.5557 49.928 78.6115C49.928 84.6672 74.7587 89.5764 105.389 89.5764Z" fill="#B7BABA"/>
<path d="M160.85 78.6113H49.9266V108.396H160.85V78.6113Z" fill="#B7BABA"/>
<path d="M160.85 104.467C160.85 98.4119 136.02 93.5039 105.389 93.5039C74.7584 93.5039 49.9209 98.4119 49.9209 104.467V107.904H52.7158C60.0122 112.276 80.8271 115.432 105.383 115.432C129.94 115.432 150.754 112.276 158.049 107.904H160.844L160.85 104.467Z" fill="#666666"/>
<path d="M105.389 119.36C136.019 119.36 160.85 114.45 160.85 108.395C160.85 102.339 136.019 97.4297 105.389 97.4297C74.7587 97.4297 49.928 102.339 49.928 108.395C49.928 114.45 74.7587 119.36 105.389 119.36Z" fill="#B7BABA"/>
<path d="M144.423 115.7C144.423 111.757 126.728 108.559 104.899 108.559C83.0694 108.559 65.3748 111.757 65.3748 115.7C65.3761 115.83 65.3953 115.958 65.4316 116.082H65.3748C65.3748 137.981 83.0708 155.734 104.899 155.734C126.727 155.734 144.423 137.981 144.423 116.082H144.366C144.403 115.958 144.422 115.83 144.423 115.7Z" fill="#929292"/>
<path d="M104.899 149.023C114.663 149.023 122.578 141.082 122.578 131.287C122.578 121.492 114.663 113.551 104.899 113.551C95.135 113.551 87.2198 121.492 87.2198 131.287C87.2198 141.082 95.135 149.023 104.899 149.023Z" fill="#303030"/>
<path d="M104.899 141.716C110.641 141.716 115.296 137.046 115.296 131.286C115.296 125.525 110.641 120.855 104.899 120.855C99.1569 120.855 94.5021 125.525 94.5021 131.286C94.5021 137.046 99.1569 141.716 104.899 141.716Z" fill="#222323"/>
<path d="M109.302 132.155C109.782 129.714 108.198 127.345 105.765 126.864C103.332 126.383 100.971 127.972 100.491 130.412C100.012 132.853 101.595 135.222 104.028 135.703C106.461 136.184 108.822 134.596 109.302 132.155Z" fill="white"/>
<path d="M55.6046 2.28906C53.304 2.28878 51.055 2.97293 49.142 4.25498C47.229 5.53703 45.738 7.35941 44.8574 9.49164C43.9768 11.6239 43.7462 13.9702 44.1949 16.2339C44.6435 18.4976 45.7512 20.577 47.3779 22.2091C49.0045 23.8412 51.0771 24.9527 53.3334 25.4031C55.5898 25.8534 57.9286 25.6224 60.054 24.7393C62.1795 23.8561 63.9962 22.3604 65.2744 20.4414C66.5525 18.5224 67.2347 16.2662 67.2347 13.9582C67.2347 10.8636 66.0095 7.89573 63.8284 5.70738C61.6474 3.51903 58.6892 2.28944 55.6046 2.28906ZM62.7375 20.8462L61.7628 19.9795C61.7291 19.9543 61.6872 19.9426 61.6454 19.9469C61.6035 19.9512 61.5648 19.9711 61.5369 20.0027C61.509 20.0343 61.494 20.0752 61.4948 20.1174C61.4955 20.1596 61.5121 20.1999 61.5411 20.2304L62.5017 21.0857C60.7957 22.7487 58.548 23.7369 56.1729 23.8683V22.3715H55.0547V23.8683C52.7224 23.7421 50.5107 22.7888 48.814 21.1784L49.7234 20.1478C49.7486 20.114 49.7602 20.0719 49.7559 20.0299C49.7517 19.988 49.7318 19.9491 49.7004 19.9211C49.6689 19.8932 49.6281 19.8781 49.586 19.8788C49.544 19.8796 49.5037 19.8962 49.4733 19.9254L48.5725 20.9446C46.8675 19.2242 45.8521 16.9351 45.7193 14.5127H47.1544V13.3909H45.7193C45.8494 11.0319 46.8166 8.7974 48.446 7.09158L49.5458 8.06948C49.5762 8.09705 49.6157 8.11229 49.6566 8.11224C49.6905 8.11206 49.7236 8.10159 49.7514 8.08219C49.7792 8.0628 49.8006 8.03539 49.8126 8.0036C49.8246 7.9718 49.8267 7.9371 49.8186 7.90407C49.8106 7.87104 49.7927 7.84124 49.7675 7.81859L48.6762 6.84924C50.3885 5.16329 52.6547 4.16135 55.0504 4.03103V5.52495H56.1729V4.04243C58.5562 4.17817 60.8096 5.17585 62.5159 6.85067L61.5909 7.90269C61.5762 7.91911 61.5649 7.93829 61.5577 7.95911C61.5505 7.97993 61.5475 8.00198 61.5488 8.02398C61.5501 8.04599 61.5558 8.06751 61.5654 8.08731C61.5751 8.10711 61.5886 8.12479 61.6051 8.13932C61.6385 8.16832 61.6818 8.18305 61.7259 8.18039C61.77 8.17773 61.8113 8.15787 61.841 8.12507L62.7574 7.08588C64.3914 8.79233 65.3618 11.0297 65.4927 13.3923H64.0235V14.5142H65.4927C65.3623 16.8884 64.3843 19.1361 62.7375 20.8462Z" fill="#41CBD6"/>
<path d="M56.4315 13.7901H55.7751V13.1329C55.7772 13.1096 55.7745 13.0861 55.7671 13.0639C55.7597 13.0418 55.7477 13.0214 55.732 13.0041C55.7163 12.9868 55.6972 12.973 55.6758 12.9635C55.6545 12.9541 55.6314 12.9492 55.6081 12.9492C55.5848 12.9492 55.5617 12.9541 55.5404 12.9635C55.5191 12.973 55.4999 12.9868 55.4842 13.0041C55.4685 13.0214 55.4566 13.0418 55.4491 13.0639C55.4417 13.0861 55.439 13.1096 55.4412 13.1329V13.7901H54.7861C54.7629 13.7879 54.7395 13.7906 54.7174 13.7981C54.6953 13.8055 54.6749 13.8175 54.6577 13.8333C54.6405 13.849 54.6267 13.8682 54.6173 13.8896C54.6079 13.911 54.603 13.9342 54.603 13.9576C54.603 13.9809 54.6079 14.0041 54.6173 14.0255C54.6267 14.0469 54.6405 14.0661 54.6577 14.0818C54.6749 14.0976 54.6953 14.1096 54.7174 14.117C54.7395 14.1245 54.7629 14.1272 54.7861 14.125H55.4412V14.7836C55.445 14.8254 55.4643 14.8642 55.4951 14.8924C55.526 14.9207 55.5663 14.9364 55.6081 14.9364C55.6499 14.9364 55.6902 14.9207 55.7211 14.8924C55.752 14.8642 55.7712 14.8254 55.7751 14.7836V14.125H56.4315C56.4732 14.1212 56.5118 14.1019 56.54 14.0709C56.5682 14.0399 56.5838 13.9995 56.5838 13.9576C56.5838 13.9156 56.5682 13.8752 56.54 13.8442C56.5118 13.8132 56.4732 13.7939 56.4315 13.7901Z" fill="#00937D"/>
<path d="M177.036 139.869C175.692 139.869 174.379 140.268 173.262 141.017C172.146 141.765 171.275 142.829 170.761 144.074C170.247 145.319 170.112 146.689 170.374 148.01C170.636 149.332 171.283 150.546 172.233 151.499C173.182 152.452 174.392 153.1 175.71 153.363C177.027 153.626 178.393 153.491 179.633 152.975C180.874 152.459 181.935 151.586 182.681 150.466C183.427 149.345 183.825 148.028 183.825 146.68C183.825 144.874 183.109 143.141 181.836 141.864C180.563 140.587 178.836 139.869 177.036 139.869ZM181.197 150.703L180.629 150.198C180.62 150.188 180.609 150.18 180.597 150.175C180.585 150.169 180.571 150.166 180.558 150.166C180.545 150.166 180.531 150.169 180.519 150.175C180.507 150.18 180.496 150.188 180.487 150.198C180.477 150.207 180.469 150.218 180.464 150.231C180.459 150.243 180.456 150.256 180.456 150.27C180.456 150.283 180.459 150.296 180.464 150.309C180.469 150.321 180.477 150.332 180.487 150.341L181.055 150.84C180.06 151.811 178.748 152.389 177.361 152.468V151.594H176.709V152.468C175.348 152.394 174.057 151.839 173.066 150.9L173.596 150.298C173.606 150.289 173.614 150.278 173.62 150.266C173.625 150.253 173.628 150.24 173.628 150.226C173.628 150.213 173.626 150.199 173.62 150.187C173.615 150.174 173.607 150.163 173.597 150.154C173.587 150.145 173.575 150.138 173.562 150.133C173.549 150.129 173.535 150.128 173.522 150.129C173.508 150.13 173.495 150.135 173.483 150.141C173.472 150.148 173.461 150.157 173.453 150.168L172.928 150.763C171.932 149.759 171.339 148.422 171.261 147.008H172.099V146.354H171.267C171.343 144.976 171.908 143.672 172.86 142.676L173.502 143.246C173.52 143.262 173.543 143.272 173.567 143.272C173.587 143.271 173.606 143.265 173.622 143.254C173.638 143.242 173.65 143.226 173.657 143.208C173.664 143.19 173.665 143.17 173.66 143.15C173.656 143.131 173.646 143.114 173.631 143.101L172.995 142.531C173.994 141.546 175.317 140.961 176.716 140.886V141.758H177.368V140.887C178.759 140.966 180.075 141.549 181.071 142.526L180.527 143.142C180.515 143.156 180.507 143.174 180.504 143.193C180.502 143.211 180.505 143.23 180.512 143.247C180.52 143.265 180.532 143.279 180.548 143.289C180.564 143.3 180.582 143.306 180.601 143.306C180.615 143.306 180.628 143.303 180.641 143.297C180.653 143.291 180.664 143.283 180.673 143.272L181.209 142.666C182.163 143.662 182.729 144.969 182.806 146.348H181.953V147.002H182.806C182.731 148.389 182.16 149.703 181.197 150.702V150.703Z" fill="#C5C5C5"/>
<path d="M177.519 146.583H177.137V146.198C177.137 146.172 177.126 146.147 177.108 146.128C177.089 146.11 177.065 146.1 177.039 146.1C177.013 146.1 176.988 146.11 176.969 146.128C176.951 146.147 176.94 146.172 176.94 146.198V146.583H176.558C176.545 146.583 176.533 146.585 176.521 146.59C176.509 146.595 176.498 146.602 176.489 146.611C176.48 146.62 176.473 146.631 176.468 146.642C176.463 146.654 176.46 146.667 176.46 146.68C176.46 146.706 176.471 146.731 176.489 146.749C176.507 146.768 176.532 146.778 176.558 146.778H176.94V147.163C176.94 147.189 176.951 147.214 176.969 147.233C176.988 147.251 177.013 147.261 177.039 147.261C177.065 147.261 177.089 147.251 177.108 147.233C177.126 147.214 177.137 147.189 177.137 147.163V146.778H177.519C177.545 146.778 177.57 146.768 177.588 146.749C177.606 146.731 177.617 146.706 177.617 146.68C177.617 146.667 177.614 146.654 177.609 146.642C177.604 146.631 177.597 146.62 177.588 146.611C177.579 146.602 177.568 146.595 177.556 146.59C177.544 146.585 177.532 146.583 177.519 146.583Z" fill="#C5C5C5"/>
<path d="M13.2869 82.3384C12.3472 82.3384 11.4285 82.0589 10.6471 81.5351C9.86574 81.0113 9.25672 80.2668 8.89709 79.3958C8.53746 78.5247 8.44336 77.5663 8.6267 76.6416C8.81004 75.7169 9.26258 74.8675 9.9271 74.2009C10.5916 73.5342 11.4382 73.0802 12.36 72.8963C13.2817 72.7124 14.237 72.8067 15.1053 73.1675C15.9735 73.5283 16.7156 74.1393 17.2377 74.9232C17.7598 75.7071 18.0385 76.6288 18.0385 77.5716C18.037 78.8354 17.5359 80.047 16.6451 80.9406C15.7544 81.8342 14.5467 82.3369 13.2869 82.3384ZM13.2869 73.2851C12.4415 73.2848 11.6149 73.5361 10.9118 74.0071C10.2087 74.4782 9.6607 75.1478 9.33703 75.9314C9.01336 76.715 8.92859 77.5773 9.09346 78.4092C9.25834 79.2411 9.66544 80.0052 10.2633 80.605C10.8611 81.2048 11.6228 81.6132 12.452 81.7786C13.2813 81.944 14.1407 81.859 14.9218 81.5342C15.7028 81.2095 16.3704 80.6597 16.8399 79.9543C17.3094 79.249 17.5599 78.4198 17.5596 77.5716C17.5585 76.4351 17.108 75.3454 16.3069 74.5418C15.5059 73.7382 14.4198 73.2862 13.2869 73.2851Z" fill="#00937D"/>
<path d="M90.5448 21.3905C89.9898 21.3905 89.4472 21.2254 88.9857 20.916C88.5242 20.6067 88.1645 20.167 87.9521 19.6525C87.7397 19.1381 87.6842 18.572 87.7924 18.0259C87.9007 17.4798 88.168 16.9781 88.5605 16.5844C88.9529 16.1906 89.453 15.9225 89.9973 15.8139C90.5417 15.7052 91.106 15.761 91.6188 15.9741C92.1315 16.1872 92.5698 16.548 92.8782 17.011C93.1865 17.474 93.3511 18.0183 93.3511 18.5751C93.3504 19.3216 93.0545 20.0372 92.5284 20.5651C92.0022 21.0929 91.2889 21.3897 90.5448 21.3905ZM90.5448 16.2416C90.0844 16.2416 89.6344 16.3786 89.2516 16.6352C88.8688 16.8918 88.5705 17.2566 88.3944 17.6833C88.2183 18.1101 88.1723 18.5796 88.2622 19.0326C88.3521 19.4856 88.5739 19.9016 88.8996 20.2281C89.2252 20.5546 89.6401 20.7769 90.0916 20.8668C90.5432 20.9568 91.0112 20.9103 91.4365 20.7334C91.8618 20.5564 92.2252 20.2569 92.4807 19.8728C92.7363 19.4886 92.8726 19.037 92.8723 18.5751C92.8712 17.9563 92.6255 17.3632 92.1893 16.9258C91.753 16.4884 91.1616 16.2423 90.5448 16.2416Z" fill="#00937D"/>
<path d="M126.777 50.097C125.899 50.097 125.041 49.836 124.311 49.3468C123.582 48.8576 123.013 48.1623 122.677 47.3488C122.341 46.5354 122.253 45.6403 122.424 44.7767C122.596 43.9131 123.018 43.1199 123.639 42.4973C124.259 41.8747 125.05 41.4507 125.911 41.2789C126.772 41.1071 127.664 41.1953 128.475 41.5322C129.286 41.8692 129.979 42.4398 130.466 43.1719C130.954 43.904 131.214 44.7647 131.214 45.6452C131.213 46.8254 130.745 47.9569 129.913 48.7915C129.081 49.626 127.953 50.0955 126.777 50.097ZM126.777 41.6738C125.993 41.6735 125.227 41.9063 124.576 42.3427C123.925 42.7791 123.417 43.3996 123.117 44.1256C122.817 44.8516 122.738 45.6506 122.891 46.4214C123.044 47.1921 123.421 47.9002 123.975 48.4559C124.529 49.0116 125.235 49.39 126.003 49.5432C126.771 49.6965 127.568 49.6177 128.291 49.3168C129.015 49.0159 129.633 48.5065 130.068 47.853C130.504 47.1994 130.736 46.4311 130.735 45.6452C130.736 45.1233 130.634 44.6064 130.435 44.1241C130.236 43.6418 129.945 43.2034 129.577 42.8341C129.209 42.4648 128.773 42.1717 128.292 41.9717C127.812 41.7716 127.297 41.6684 126.777 41.6681V41.6738Z" fill="#B4D1CC"/>
<path d="M167.108 125.606C166.656 125.606 166.214 125.471 165.838 125.22C165.463 124.968 165.17 124.61 164.997 124.191C164.824 123.772 164.779 123.311 164.867 122.866C164.955 122.422 165.173 122.013 165.492 121.693C165.812 121.372 166.219 121.154 166.662 121.066C167.105 120.977 167.565 121.022 167.982 121.196C168.4 121.369 168.757 121.663 169.008 122.04C169.259 122.417 169.393 122.86 169.393 123.314C169.392 123.921 169.151 124.504 168.723 124.934C168.294 125.363 167.714 125.605 167.108 125.606ZM167.108 121.503C166.751 121.503 166.401 121.61 166.104 121.809C165.807 122.008 165.576 122.291 165.439 122.622C165.303 122.953 165.267 123.318 165.337 123.669C165.406 124.021 165.579 124.343 165.831 124.597C166.084 124.85 166.406 125.023 166.756 125.092C167.107 125.162 167.47 125.126 167.8 124.989C168.13 124.851 168.412 124.619 168.61 124.321C168.808 124.023 168.914 123.672 168.914 123.314C168.913 122.834 168.722 122.373 168.384 122.034C168.045 121.694 167.586 121.504 167.108 121.503Z" fill="#B4D1CC"/>
<path d="M15.3316 25.7524C14.8796 25.7524 14.4378 25.6179 14.0621 25.366C13.6863 25.114 13.3934 24.756 13.2205 24.337C13.0476 23.9181 13.0025 23.4571 13.0908 23.0125C13.179 22.5678 13.3968 22.1593 13.7165 21.8388C14.0361 21.5183 14.4434 21.3001 14.8867 21.2118C15.33 21.1236 15.7895 21.1692 16.2069 21.3429C16.6244 21.5166 16.9811 21.8106 17.232 22.1877C17.4829 22.5649 17.6167 23.0082 17.6164 23.4616C17.6157 24.0692 17.3746 24.6516 16.9463 25.0811C16.5179 25.5106 15.9372 25.752 15.3316 25.7524ZM15.3316 21.6498C14.9744 21.6498 14.6252 21.7561 14.3282 21.9551C14.0312 22.1542 13.7998 22.4372 13.6631 22.7683C13.5264 23.0993 13.4906 23.4636 13.5603 23.8151C13.63 24.1665 13.802 24.4894 14.0546 24.7427C14.3071 24.9961 14.6289 25.1687 14.9792 25.2386C15.3296 25.3085 15.6927 25.2726 16.0227 25.1355C16.3527 24.9984 16.6348 24.7661 16.8332 24.4682C17.0316 24.1702 17.1376 23.8199 17.1376 23.4616C17.1372 22.9812 16.9468 22.5206 16.6082 22.1809C16.2696 21.8412 15.8104 21.6502 15.3316 21.6498Z" fill="#B4D1CC"/>
<path d="M78.5011 184.337C77.8392 184.337 77.192 184.141 76.6415 183.772C76.091 183.403 75.6619 182.879 75.4084 182.265C75.155 181.652 75.0886 180.977 75.2177 180.326C75.3467 179.674 75.6655 179.076 76.1335 178.606C76.6016 178.137 77.198 177.817 77.8472 177.687C78.4965 177.558 79.1694 177.625 79.7809 177.879C80.3924 178.133 80.915 178.564 81.2826 179.116C81.6502 179.668 81.8462 180.317 81.8459 180.982C81.8448 181.871 81.492 182.724 80.865 183.353C80.238 183.982 79.3879 184.336 78.5011 184.337ZM78.5011 178.105C77.9339 178.105 77.3794 178.273 76.9077 178.589C76.4359 178.905 76.0682 179.354 75.851 179.88C75.6337 180.405 75.5767 180.984 75.6872 181.542C75.7977 182.1 76.0707 182.613 76.4716 183.015C76.8726 183.418 77.3835 183.692 77.9398 183.803C78.496 183.914 79.0726 183.857 79.5967 183.639C80.1207 183.422 80.5686 183.053 80.8837 182.58C81.1989 182.107 81.3671 181.551 81.3671 180.982C81.3656 180.22 81.0631 179.489 80.5259 178.951C79.9887 178.412 79.2606 178.109 78.5011 178.108V178.105Z" fill="#43747C"/>
<path d="M185.386 171.787C184.704 171.787 184.038 171.584 183.471 171.204C182.903 170.823 182.461 170.283 182.2 169.651C181.939 169.019 181.871 168.323 182.004 167.652C182.137 166.981 182.466 166.364 182.948 165.881C183.43 165.397 184.045 165.067 184.714 164.934C185.383 164.8 186.076 164.869 186.706 165.131C187.336 165.392 187.875 165.836 188.254 166.405C188.633 166.974 188.835 167.643 188.835 168.327C188.834 169.244 188.47 170.123 187.824 170.772C187.177 171.421 186.301 171.785 185.386 171.787ZM185.386 165.829C184.894 165.829 184.412 165.976 184.002 166.251C183.593 166.525 183.274 166.916 183.085 167.372C182.897 167.829 182.847 168.332 182.944 168.816C183.04 169.301 183.277 169.746 183.626 170.096C183.974 170.445 184.418 170.683 184.901 170.779C185.385 170.876 185.885 170.826 186.341 170.637C186.796 170.447 187.185 170.127 187.458 169.716C187.732 169.304 187.878 168.821 187.877 168.327C187.877 167.665 187.614 167.029 187.147 166.561C186.68 166.093 186.047 165.83 185.386 165.829Z" fill="#41CBD6"/>
<path d="M11.4057 112.204C10.829 112.204 10.2653 112.032 9.78582 111.711C9.30633 111.389 8.93262 110.933 8.71194 110.398C8.49125 109.864 8.43351 109.275 8.54602 108.708C8.65852 108.141 8.93621 107.619 9.34398 107.21C9.75175 106.801 10.2713 106.523 10.8369 106.41C11.4025 106.297 11.9887 106.355 12.5215 106.576C13.0543 106.798 13.5096 107.172 13.83 107.654C14.1504 108.135 14.3214 108.7 14.3214 109.279C14.3207 110.054 14.0132 110.798 13.4666 111.346C12.9199 111.895 12.1788 112.203 11.4057 112.204ZM11.4057 107.314C11.0184 107.314 10.6399 107.43 10.3179 107.645C9.99589 107.861 9.74493 108.168 9.59673 108.527C9.44853 108.886 9.40976 109.281 9.48531 109.662C9.56086 110.043 9.74734 110.393 10.0212 110.668C10.295 110.942 10.6439 111.129 11.0237 111.205C11.4035 111.281 11.7972 111.242 12.155 111.093C12.5128 110.945 12.8186 110.693 13.0337 110.37C13.2489 110.047 13.3637 109.667 13.3637 109.279C13.3633 108.758 13.1569 108.258 12.7898 107.89C12.4227 107.522 11.9249 107.315 11.4057 107.314Z" fill="#41CBD6"/>
<path d="M32.3016 136.032C32.171 136.032 32.0413 136.01 31.918 135.966L29.8832 135.254C29.5933 135.151 29.3557 134.938 29.2225 134.66C29.0893 134.382 29.0714 134.062 29.1728 133.771L29.555 132.679C29.5924 132.572 29.5927 132.455 29.5558 132.348C29.519 132.241 29.4471 132.149 29.3518 132.088C28.6945 131.658 28.0861 131.157 27.5373 130.594C27.4588 130.512 27.3551 130.459 27.243 130.444C27.1309 130.428 27.0169 130.451 26.9192 130.508L25.9246 131.098C25.6597 131.255 25.3438 131.3 25.0461 131.223C24.7484 131.146 24.493 130.954 24.336 130.689L23.2362 128.826C23.0804 128.561 23.0358 128.244 23.1122 127.945C23.1887 127.647 23.3799 127.391 23.644 127.234L24.6386 126.644C24.7357 126.586 24.8106 126.497 24.8513 126.391C24.892 126.285 24.8962 126.169 24.8631 126.061C24.6395 125.306 24.4966 124.53 24.4369 123.746C24.429 123.632 24.3833 123.525 24.3073 123.441C24.2313 123.356 24.1293 123.3 24.0177 123.281L22.881 123.093C22.5781 123.041 22.3078 122.872 22.129 122.622C21.9501 122.371 21.8772 122.06 21.9261 121.756L22.2785 119.617C22.3287 119.313 22.4971 119.042 22.7467 118.862C22.9963 118.682 23.3068 118.61 23.6099 118.659L24.7466 118.848C24.8585 118.866 24.9732 118.845 25.0722 118.79C25.1712 118.735 25.2487 118.648 25.2923 118.543C25.6032 117.82 25.99 117.133 26.446 116.493C26.5124 116.401 26.546 116.289 26.5417 116.176C26.5373 116.062 26.4951 115.953 26.4219 115.867L25.6702 114.987C25.4703 114.753 25.3711 114.449 25.3946 114.142C25.418 113.834 25.5621 113.549 25.7953 113.348L27.4322 111.938C27.666 111.738 27.9693 111.639 28.2757 111.663C28.5821 111.686 28.8667 111.83 29.0676 112.064L29.8179 112.942C29.8918 113.028 29.9925 113.086 30.1036 113.108C30.2147 113.129 30.3298 113.112 30.4303 113.06C31.1309 112.706 31.8674 112.428 32.627 112.232C32.737 112.205 32.8347 112.141 32.9043 112.051C32.9739 111.962 33.0114 111.851 33.0106 111.737L32.9979 110.58C32.9948 110.271 33.1139 109.975 33.3289 109.754C33.5439 109.534 33.8373 109.408 34.1445 109.405L36.3029 109.381H36.3143C36.6194 109.382 36.9119 109.503 37.1288 109.718C37.3458 109.933 37.4696 110.225 37.4737 110.531L37.4865 111.687C37.4882 111.801 37.5279 111.911 37.5992 111.999C37.6706 112.088 37.7695 112.15 37.8801 112.175C38.6439 112.355 39.3861 112.617 40.0939 112.956C40.1955 113.006 40.311 113.02 40.4217 112.996C40.5324 112.972 40.6317 112.911 40.7035 112.823L41.4352 111.93C41.5318 111.812 41.6507 111.714 41.785 111.642C41.9194 111.57 42.0666 111.525 42.2182 111.511C42.5251 111.481 42.8314 111.573 43.0707 111.769L44.7374 113.143C44.9749 113.338 45.1253 113.621 45.1554 113.928C45.1855 114.235 45.0929 114.541 44.898 114.779L44.1662 115.673C44.0951 115.761 44.0554 115.871 44.0536 115.984C44.0518 116.098 44.088 116.208 44.1563 116.299C44.6263 116.929 45.027 117.609 45.3513 118.326C45.3985 118.429 45.4782 118.513 45.5782 118.566C45.6781 118.619 45.7927 118.637 45.904 118.618L47.0407 118.404C47.1904 118.376 47.3442 118.378 47.4932 118.409C47.6422 118.441 47.7836 118.501 47.9093 118.587C48.0349 118.674 48.1424 118.784 48.2254 118.912C48.3085 119.04 48.3656 119.183 48.3934 119.334L48.7913 121.461C48.8478 121.764 48.7819 122.077 48.6082 122.332C48.4345 122.586 48.1671 122.761 47.8649 122.818L46.7281 123.031C46.6169 123.053 46.516 123.111 46.4417 123.197C46.3675 123.283 46.3242 123.391 46.3189 123.505C46.2745 124.291 46.1464 125.07 45.9367 125.828C45.9059 125.938 45.9123 126.054 45.9551 126.159C45.9978 126.264 46.0744 126.352 46.1726 126.408L47.1771 126.979C47.4448 127.13 47.6415 127.382 47.7241 127.679C47.8067 127.976 47.7684 128.294 47.6176 128.562L46.559 130.448C46.408 130.717 46.157 130.914 45.8611 130.997C45.5651 131.08 45.2485 131.042 44.9804 130.892L43.9744 130.321C43.8755 130.266 43.7609 130.246 43.6491 130.264C43.5373 130.282 43.4347 130.337 43.3577 130.42C42.8211 130.993 42.2247 131.508 41.5787 131.954C41.4845 132.017 41.4142 132.111 41.3794 132.219C41.3446 132.327 41.3473 132.444 41.3869 132.551L41.7933 133.633C41.9007 133.922 41.8897 134.242 41.7627 134.522C41.6357 134.803 41.403 135.022 41.1155 135.131L39.0964 135.894C38.8085 136.002 38.4897 135.991 38.2098 135.863C37.9299 135.736 37.7118 135.502 37.603 135.214L37.1967 134.129C37.1548 134.024 37.0797 133.936 36.9829 133.877C36.8862 133.819 36.7731 133.794 36.661 133.807C35.8817 133.9 35.0948 133.909 34.3136 133.834C34.2008 133.821 34.0869 133.847 33.9909 133.908C33.895 133.969 33.8228 134.061 33.7865 134.169L33.4042 135.259C33.323 135.487 33.1732 135.684 32.9756 135.822C32.7781 135.96 32.5426 136.034 32.3016 136.032ZM27.175 129.954C27.3072 129.953 27.4381 129.98 27.5601 130.031C27.6821 130.082 27.7927 130.157 27.8854 130.252C28.1473 130.521 28.4238 130.775 28.7138 131.013C29.0038 131.251 29.3065 131.474 29.6204 131.68C29.805 131.8 29.944 131.979 30.0151 132.189C30.0863 132.398 30.0853 132.625 30.0125 132.833L29.6303 133.925C29.5707 134.096 29.5811 134.284 29.6591 134.447C29.7371 134.61 29.8765 134.736 30.0466 134.796L32.0814 135.509C32.1656 135.539 32.2549 135.552 32.3442 135.547C32.4335 135.543 32.521 135.52 32.6016 135.482C32.6823 135.443 32.7545 135.389 32.8142 135.322C32.8739 135.255 32.9199 135.177 32.9496 135.093L33.3318 134.001C33.4068 133.793 33.5482 133.617 33.7338 133.499C33.9194 133.381 34.1388 133.328 34.3577 133.348C35.1044 133.418 35.8564 133.41 36.6013 133.322C36.8201 133.294 37.0418 133.341 37.2306 133.456C37.4193 133.57 37.5641 133.745 37.6414 133.952L38.0478 135.037C38.0795 135.121 38.1275 135.198 38.1889 135.263C38.2504 135.329 38.3241 135.381 38.4059 135.418C38.487 135.455 38.5748 135.476 38.6642 135.479C38.7535 135.482 38.8425 135.467 38.9259 135.435L40.945 134.672C41.1138 134.608 41.2504 134.48 41.3247 134.315C41.399 134.15 41.4051 133.962 41.3415 133.793L40.9365 132.711C40.8591 132.504 40.8532 132.277 40.92 132.066C40.9868 131.856 41.1222 131.674 41.3045 131.55C41.9233 131.123 42.495 130.631 43.0096 130.082C43.1597 129.921 43.3594 129.814 43.5768 129.78C43.7943 129.746 44.0168 129.786 44.2089 129.894L45.2149 130.464C45.2928 130.508 45.3786 130.536 45.4674 130.547C45.5561 130.557 45.6461 130.55 45.7321 130.525C45.8184 130.502 45.8992 130.462 45.9697 130.407C46.0403 130.352 46.0991 130.283 46.1427 130.205L47.2013 128.319C47.2897 128.161 47.3119 127.974 47.2632 127.799C47.2144 127.625 47.0987 127.477 46.9413 127.388L45.9381 126.818C45.7465 126.709 45.5968 126.539 45.5129 126.335C45.4289 126.131 45.4155 125.904 45.4749 125.691C45.6758 124.966 45.7987 124.221 45.8415 123.469C45.8526 123.248 45.9375 123.038 46.0823 122.871C46.2271 122.705 46.4236 122.592 46.64 122.551L47.7768 122.339C47.9542 122.305 48.1111 122.202 48.2131 122.052C48.315 121.903 48.3538 121.719 48.321 121.54L47.9231 119.414C47.9073 119.325 47.874 119.241 47.8254 119.165C47.7767 119.09 47.7136 119.025 47.6397 118.974C47.5659 118.923 47.4826 118.888 47.3949 118.869C47.3072 118.851 47.2168 118.85 47.1288 118.868L45.9921 119.081C45.775 119.121 45.5508 119.087 45.3557 118.984C45.1605 118.88 45.0058 118.714 44.9165 118.511C44.6077 117.827 44.2266 117.177 43.7797 116.574C43.6466 116.398 43.5765 116.182 43.5806 115.961C43.5847 115.74 43.6629 115.526 43.8025 115.355L44.5343 114.461C44.6486 114.321 44.7028 114.141 44.685 113.961C44.6671 113.781 44.5786 113.615 44.439 113.501L42.7723 112.126C42.6322 112.013 42.4532 111.959 42.2739 111.977C42.0947 111.995 41.9297 112.083 41.8146 112.222L41.0828 113.116C40.9427 113.286 40.7494 113.405 40.5339 113.452C40.3185 113.5 40.0934 113.473 39.895 113.377C39.2188 113.051 38.5094 112.801 37.7792 112.63C37.5645 112.58 37.3726 112.459 37.2343 112.287C37.0959 112.115 37.0191 111.901 37.0162 111.68L36.9906 110.54C36.9899 110.45 36.9715 110.361 36.9365 110.279C36.9015 110.196 36.8506 110.121 36.7867 110.059C36.7228 109.996 36.6471 109.946 36.5641 109.913C36.4811 109.88 36.3923 109.863 36.3029 109.864L34.146 109.888C33.9656 109.891 33.7934 109.964 33.6672 110.094C33.5409 110.223 33.4709 110.397 33.4724 110.578L33.4852 111.734C33.4871 111.956 33.4149 112.171 33.2801 112.346C33.1454 112.521 32.9559 112.645 32.7421 112.699C32.0155 112.888 31.311 113.154 30.6406 113.492C30.4446 113.593 30.2206 113.624 30.0046 113.581C29.7886 113.539 29.5932 113.424 29.4498 113.257L28.6996 112.379C28.5815 112.242 28.4142 112.157 28.2343 112.144C28.0543 112.13 27.8763 112.188 27.7391 112.306L26.1022 113.714C25.9659 113.833 25.8816 114.001 25.8678 114.181C25.854 114.361 25.9116 114.54 26.0283 114.678L26.7814 115.558C26.9241 115.726 27.0066 115.937 27.0156 116.158C27.0246 116.378 26.9597 116.596 26.8311 116.775C26.3948 117.387 26.0252 118.044 25.7285 118.735C25.6423 118.938 25.4906 119.107 25.2977 119.214C25.1047 119.32 24.8817 119.359 24.6642 119.324L23.5275 119.136C23.3495 119.107 23.1674 119.149 23.0208 119.255C22.8741 119.36 22.7749 119.519 22.7446 119.697L22.3922 121.835C22.3638 122.014 22.4067 122.196 22.5115 122.343C22.563 122.416 22.6286 122.479 22.7045 122.526C22.7804 122.574 22.8651 122.605 22.9534 122.619L24.0902 122.809C24.3074 122.846 24.506 122.954 24.6544 123.118C24.8028 123.281 24.8923 123.49 24.9086 123.71C24.9666 124.46 25.1043 125.203 25.3193 125.924C25.3847 126.136 25.3771 126.363 25.2977 126.57C25.2183 126.777 25.0717 126.951 24.8816 127.064L23.887 127.653C23.81 127.699 23.7427 127.759 23.689 127.831C23.6353 127.902 23.5963 127.984 23.5741 128.071C23.5519 128.158 23.5471 128.248 23.5598 128.337C23.5725 128.426 23.6026 128.511 23.6483 128.588L24.7466 130.451C24.8391 130.606 24.989 130.719 25.1636 130.763C25.3381 130.808 25.5233 130.782 25.6787 130.691L26.6734 130.101C26.8243 130.007 26.9976 129.956 27.175 129.954Z" fill="#7EB2B0"/>
<path d="M35.4915 129.449C35.0623 129.449 34.6341 129.408 34.2127 129.326C32.4871 128.973 30.9699 127.951 29.9904 126.483C29.0109 125.015 28.648 123.218 28.9806 121.483C29.3132 119.748 30.3143 118.214 31.7668 117.215C33.2193 116.216 35.006 115.832 36.7391 116.146C38.3709 116.463 39.8267 117.378 40.8228 118.713C41.8189 120.048 42.2841 121.708 42.1277 123.368C41.9713 125.028 41.2045 126.57 39.9767 127.694C38.7489 128.819 37.148 129.444 35.4858 129.449H35.4915ZM35.4802 116.504C33.8815 116.502 32.3433 117.117 31.1848 118.222C30.0262 119.327 29.3363 120.838 29.2581 122.439C29.1799 124.041 29.7195 125.612 30.7649 126.825C31.8103 128.039 33.2812 128.802 34.8725 128.956C36.4637 129.111 38.0532 128.645 39.311 127.655C40.5688 126.665 41.3985 125.227 41.6278 123.64C41.8572 122.053 41.4686 120.438 40.5427 119.13C39.6168 117.823 38.2247 116.923 36.6552 116.618C36.268 116.543 35.8746 116.504 35.4802 116.504Z" fill="#7EB2B0"/>
<path d="M148.558 32.2284C148.486 32.228 148.414 32.2155 148.346 32.1914L147.457 31.8778C147.296 31.8209 147.165 31.7027 147.092 31.549C147.019 31.3953 147.009 31.2188 147.066 31.0581L147.232 30.582C147.238 30.5635 147.238 30.5436 147.232 30.5252C147.225 30.5069 147.213 30.4912 147.196 30.4808C147.049 30.3837 146.907 30.279 146.77 30.1672C146.635 30.0555 146.505 29.9365 146.382 29.8108C146.369 29.7964 146.352 29.7869 146.333 29.7841C146.313 29.7812 146.294 29.7851 146.277 29.7951L145.844 30.0517C145.771 30.095 145.691 30.1233 145.607 30.1351C145.523 30.1468 145.438 30.1417 145.356 30.1201C145.275 30.0996 145.198 30.0629 145.131 30.0122C145.064 29.9615 145.008 29.8979 144.966 29.825L144.485 29.0125C144.399 28.8657 144.374 28.6906 144.416 28.5255C144.458 28.3604 144.564 28.2187 144.71 28.1315L145.143 27.8749C145.16 27.865 145.173 27.8497 145.18 27.8317C145.186 27.8136 145.187 27.7937 145.182 27.7752C145.08 27.4366 145.015 27.0883 144.987 26.736C144.986 26.7165 144.979 26.6978 144.966 26.6833C144.953 26.6687 144.935 26.6591 144.916 26.6561L144.419 26.5735C144.251 26.5452 144.102 26.4514 144.003 26.3128C143.904 26.1741 143.864 26.0018 143.891 25.8336L144.045 24.9013C144.073 24.7333 144.166 24.5832 144.304 24.4838C144.442 24.3844 144.613 24.3439 144.781 24.3711L145.278 24.4537C145.297 24.457 145.317 24.4535 145.334 24.4439C145.351 24.4343 145.364 24.4191 145.371 24.401C145.51 24.0766 145.683 23.7679 145.888 23.4801C145.9 23.4652 145.906 23.4466 145.906 23.4274C145.906 23.4082 145.9 23.3896 145.888 23.3746L145.56 22.9897C145.449 22.8601 145.395 22.6919 145.408 22.522C145.421 22.3521 145.5 22.1943 145.629 22.0831L146.34 21.4687C146.403 21.4132 146.477 21.3709 146.557 21.3444C146.637 21.318 146.722 21.3079 146.806 21.3148C146.89 21.3212 146.972 21.3441 147.047 21.3823C147.122 21.4205 147.189 21.4731 147.243 21.5372L147.572 21.9206C147.584 21.9354 147.601 21.9454 147.62 21.949C147.639 21.9527 147.658 21.9497 147.675 21.9406C147.992 21.7803 148.326 21.6551 148.67 21.5671C148.689 21.5626 148.705 21.5521 148.717 21.5371C148.729 21.5221 148.735 21.5035 148.735 21.4844V20.9798C148.734 20.809 148.8 20.6446 148.919 20.5225C149.038 20.4004 149.2 20.3306 149.37 20.3283L150.311 20.3184C150.48 20.3187 150.642 20.3857 150.762 20.505C150.883 20.6242 150.951 20.786 150.953 20.9556V21.4602C150.954 21.4795 150.962 21.498 150.974 21.5129C150.986 21.5278 151.003 21.5383 151.022 21.5429C151.365 21.623 151.698 21.7406 152.016 21.8935C152.034 21.9021 152.053 21.9045 152.072 21.9003C152.091 21.8962 152.108 21.8857 152.12 21.8707L152.44 21.4816C152.547 21.35 152.703 21.2666 152.872 21.2498C153.04 21.2329 153.209 21.284 153.34 21.3918L154.069 21.9919C154.135 22.0454 154.189 22.1113 154.228 22.1858C154.268 22.2603 154.293 22.342 154.301 22.4261C154.309 22.5102 154.301 22.5951 154.276 22.676C154.252 22.7568 154.211 22.8319 154.158 22.8971L153.839 23.2877C153.827 23.3026 153.821 23.3212 153.821 23.3404C153.821 23.3596 153.827 23.3782 153.839 23.3932C154.05 23.6767 154.23 23.9821 154.376 24.3041C154.384 24.3218 154.398 24.3364 154.415 24.3454C154.432 24.3545 154.451 24.3575 154.47 24.354L154.965 24.2613C155.047 24.2456 155.132 24.2464 155.215 24.2637C155.297 24.2811 155.376 24.3145 155.445 24.3622C155.515 24.4098 155.574 24.4708 155.62 24.5415C155.666 24.6123 155.698 24.6914 155.713 24.7745L155.887 25.7039C155.918 25.8714 155.882 26.0444 155.786 26.185C155.69 26.3256 155.542 26.4222 155.375 26.4537L154.879 26.5478C154.86 26.5514 154.843 26.5615 154.831 26.5763C154.818 26.5911 154.811 26.6097 154.811 26.6291C154.791 26.982 154.733 27.3318 154.639 27.6725C154.634 27.691 154.635 27.7107 154.642 27.7285C154.65 27.7463 154.662 27.7612 154.679 27.7709L155.117 28.0189C155.265 28.1025 155.374 28.2417 155.419 28.4058C155.465 28.5699 155.444 28.7456 155.361 28.8942L154.898 29.7124C154.814 29.8608 154.675 29.9698 154.511 30.0158C154.348 30.0617 154.172 30.0408 154.024 29.9576L153.585 29.7096C153.568 29.7 153.548 29.6965 153.529 29.6996C153.51 29.7027 153.493 29.7123 153.48 29.7267C153.239 29.9847 152.972 30.2156 152.681 30.4152C152.665 30.4263 152.653 30.4424 152.647 30.4609C152.642 30.4795 152.642 30.4995 152.649 30.5178L152.825 30.9897C152.885 31.1492 152.879 31.3261 152.809 31.4814C152.739 31.6367 152.61 31.7578 152.451 31.8179L151.569 32.15C151.41 32.2101 151.233 32.2044 151.078 32.1341C150.924 32.0638 150.803 31.9347 150.743 31.7751L150.565 31.3019C150.559 31.2836 150.546 31.2683 150.529 31.2584C150.512 31.2486 150.492 31.2448 150.473 31.2477C150.124 31.289 149.771 31.2933 149.42 31.2605C149.401 31.2576 149.382 31.2615 149.365 31.2717C149.349 31.2819 149.337 31.2977 149.331 31.3161L149.163 31.7922C149.118 31.9175 149.036 32.0258 148.928 32.1024C148.82 32.1789 148.69 32.22 148.558 32.2199V32.2284ZM146.318 29.3033C146.394 29.3034 146.468 29.3186 146.538 29.348C146.608 29.3774 146.671 29.4203 146.723 29.4744C146.835 29.5876 146.952 29.6951 147.074 29.7965C147.197 29.8988 147.326 29.994 147.459 30.0816C147.565 30.1513 147.644 30.2541 147.684 30.3738C147.725 30.4935 147.725 30.6234 147.684 30.7431L147.516 31.2206C147.502 31.2613 147.505 31.3057 147.524 31.3443C147.542 31.383 147.575 31.4128 147.616 31.4273L148.504 31.7409C148.545 31.755 148.59 31.7524 148.629 31.7338C148.667 31.7154 148.697 31.6826 148.711 31.6425L148.879 31.165C148.921 31.0461 149.002 30.9448 149.108 30.8769C149.215 30.8091 149.34 30.7785 149.466 30.7901C149.782 30.8205 150.102 30.8167 150.418 30.7787C150.543 30.7643 150.669 30.792 150.777 30.8576C150.885 30.9231 150.968 31.0227 151.013 31.1408L151.191 31.6155C151.206 31.6558 151.237 31.6884 151.276 31.706C151.316 31.7236 151.361 31.7249 151.401 31.7095L152.282 31.3774C152.322 31.3617 152.354 31.3311 152.372 31.292C152.39 31.2529 152.392 31.2084 152.377 31.1679L152.2 30.6946C152.156 30.5759 152.153 30.4462 152.191 30.3257C152.229 30.2052 152.306 30.1008 152.41 30.0289C152.672 29.8476 152.914 29.6388 153.132 29.4059C153.218 29.3142 153.333 29.2539 153.457 29.2345C153.582 29.2152 153.709 29.2379 153.819 29.299L154.26 29.5471C154.297 29.5681 154.341 29.5735 154.383 29.562C154.424 29.5505 154.459 29.5231 154.48 29.4858L154.943 28.6618C154.964 28.6238 154.968 28.5795 154.957 28.538C154.945 28.4966 154.918 28.4612 154.881 28.4394L154.443 28.1928C154.334 28.13 154.248 28.0325 154.2 27.9156C154.152 27.7987 154.144 27.669 154.177 27.5471C154.262 27.2393 154.313 26.9235 154.331 26.6048C154.338 26.4785 154.387 26.3582 154.471 26.263C154.554 26.1677 154.666 26.103 154.79 26.0788L155.286 25.9847C155.307 25.981 155.327 25.9731 155.345 25.9613C155.362 25.9495 155.378 25.9342 155.389 25.9163C155.413 25.8808 155.422 25.8373 155.415 25.7951L155.242 24.8657C155.233 24.8233 155.209 24.7858 155.173 24.7615C155.137 24.7372 155.094 24.728 155.051 24.736L154.557 24.8286C154.432 24.8528 154.304 24.8339 154.191 24.7752C154.079 24.7164 153.99 24.6212 153.939 24.5051C153.807 24.2146 153.645 23.9393 153.454 23.684C153.379 23.5823 153.34 23.4585 153.343 23.332C153.346 23.2056 153.39 23.0837 153.47 22.9855L153.788 22.5949C153.815 22.5614 153.828 22.5186 153.824 22.4758C153.82 22.4329 153.799 22.3933 153.767 22.3654L153.038 21.7667C153.021 21.753 153.002 21.7428 152.982 21.7365C152.961 21.7303 152.94 21.7282 152.919 21.7303C152.897 21.7324 152.877 21.7387 152.858 21.7489C152.839 21.7591 152.823 21.7728 152.809 21.7895L152.489 22.1786C152.409 22.2757 152.298 22.3433 152.176 22.3706C152.053 22.398 151.924 22.3836 151.81 22.3297C151.523 22.1918 151.222 22.0857 150.912 22.0133C150.789 21.9841 150.679 21.9146 150.6 21.8157C150.521 21.7168 150.477 21.5942 150.475 21.4673V20.9627C150.474 20.9197 150.456 20.8787 150.426 20.8486C150.395 20.8185 150.354 20.8016 150.311 20.8016L149.369 20.8116C149.326 20.8123 149.285 20.8301 149.255 20.8611C149.225 20.8921 149.208 20.9337 149.208 20.9769V21.4816C149.209 21.6084 149.167 21.7318 149.09 21.8322C149.013 21.9326 148.905 22.0044 148.782 22.0361C148.474 22.1153 148.175 22.2276 147.891 22.3711C147.778 22.427 147.649 22.4433 147.525 22.4175C147.401 22.3917 147.29 22.3252 147.208 22.2285L146.881 21.8465C146.852 21.8137 146.812 21.7933 146.769 21.7895C146.748 21.7875 146.727 21.7899 146.707 21.7965C146.686 21.8032 146.668 21.8139 146.652 21.828L145.942 22.4438C145.926 22.4576 145.912 22.4746 145.903 22.4937C145.893 22.5128 145.888 22.5336 145.886 22.555C145.884 22.5763 145.887 22.5978 145.893 22.6182C145.9 22.6385 145.911 22.6573 145.925 22.6733L146.253 23.0567C146.335 23.1533 146.382 23.2744 146.387 23.4009C146.393 23.5273 146.356 23.652 146.283 23.7552C146.097 24.0142 145.94 24.2929 145.815 24.5863C145.765 24.7027 145.678 24.7992 145.568 24.8603C145.457 24.9215 145.329 24.944 145.204 24.9242L144.707 24.8415C144.665 24.8356 144.622 24.8462 144.587 24.8712C144.553 24.8961 144.529 24.9335 144.521 24.9755L144.367 25.9078C144.361 25.9502 144.372 25.9934 144.397 26.0282C144.422 26.0631 144.459 26.0868 144.501 26.0945L145 26.1772C145.124 26.199 145.238 26.2616 145.323 26.3553C145.407 26.449 145.459 26.5684 145.469 26.6946C145.494 27.0126 145.552 27.327 145.643 27.6326C145.679 27.7536 145.674 27.8831 145.628 28.0007C145.583 28.1183 145.5 28.2175 145.392 28.2826L144.966 28.5407C144.929 28.5629 144.902 28.5989 144.891 28.6408C144.881 28.6827 144.887 28.7272 144.909 28.7645L145.389 29.577C145.411 29.614 145.447 29.6408 145.488 29.6515C145.53 29.6622 145.574 29.6559 145.611 29.634L146.044 29.3774C146.128 29.3298 146.222 29.3043 146.318 29.3033Z" fill="#00937D"/>
<path d="M149.953 29.3534C149.759 29.3532 149.565 29.3346 149.375 29.2978C148.604 29.1485 147.921 28.7074 147.466 28.066C147.011 27.4245 146.82 26.632 146.932 25.8529C147.043 25.0737 147.45 24.3677 148.067 23.8813C148.684 23.3949 149.464 23.1654 150.245 23.2405C151.026 23.3156 151.748 23.6895 152.262 24.2846C152.776 24.8797 153.041 25.6503 153.004 26.4366C152.966 27.2229 152.628 27.9646 152.06 28.5076C151.492 29.0507 150.738 29.3536 149.953 29.3534ZM149.953 23.7013C149.29 23.7014 148.653 23.9575 148.174 24.4163C147.694 24.8751 147.409 25.5015 147.378 26.1656C147.346 26.8296 147.571 27.4803 148.005 27.9827C148.438 28.4852 149.048 28.8008 149.708 28.8641C150.368 28.9274 151.026 28.7335 151.547 28.3227C152.068 27.9119 152.412 27.3157 152.506 26.6577C152.601 25.9997 152.439 25.3305 152.055 24.7888C151.671 24.2471 151.094 23.8745 150.443 23.7483C150.278 23.7166 150.111 23.7008 149.943 23.7013H149.953Z" fill="#00937D"/>
<path d="M124.85 3.86739C124.756 3.86739 124.665 3.82984 124.599 3.76301C124.532 3.69617 124.495 3.60553 124.495 3.51101V0.356376C124.495 0.261859 124.532 0.171214 124.599 0.104381C124.665 0.0375474 124.756 0 124.85 0C124.944 0 125.034 0.0375474 125.101 0.104381C125.168 0.171214 125.205 0.261859 125.205 0.356376V3.51101C125.205 3.55787 125.196 3.60429 125.178 3.64762C125.161 3.69094 125.134 3.7303 125.101 3.76343C125.068 3.79656 125.029 3.8228 124.986 3.84064C124.943 3.85849 124.897 3.86758 124.85 3.86739Z" fill="#B4D1CC"/>
<path d="M126.421 2.28892H123.277C123.183 2.28892 123.092 2.25138 123.026 2.18454C122.959 2.11771 122.922 2.02706 122.922 1.93255C122.922 1.83803 122.959 1.74739 123.026 1.68055C123.092 1.61372 123.183 1.57617 123.277 1.57617H126.421C126.516 1.57617 126.606 1.61372 126.673 1.68055C126.739 1.74739 126.777 1.83803 126.777 1.93255C126.777 2.02706 126.739 2.11771 126.673 2.18454C126.606 2.25138 126.516 2.28892 126.421 2.28892Z" fill="#B4D1CC"/>
<path d="M150.237 151.78C150.121 151.78 150.009 151.734 149.927 151.651C149.844 151.568 149.798 151.456 149.798 151.339V147.431C149.798 147.314 149.844 147.202 149.927 147.119C150.009 147.037 150.121 146.99 150.237 146.99C150.354 146.99 150.465 147.037 150.548 147.119C150.63 147.202 150.676 147.314 150.676 147.431V151.339C150.676 151.456 150.63 151.568 150.548 151.651C150.465 151.734 150.354 151.78 150.237 151.78Z" fill="#B4D1CC"/>
<path d="M152.19 149.826H148.293C148.177 149.826 148.065 149.78 147.983 149.697C147.901 149.615 147.854 149.503 147.854 149.386C147.854 149.269 147.901 149.157 147.983 149.074C148.065 148.992 148.177 148.945 148.293 148.945H152.19C152.306 148.945 152.418 148.992 152.5 149.074C152.582 149.157 152.629 149.269 152.629 149.386C152.629 149.503 152.582 149.615 152.5 149.697C152.418 149.78 152.306 149.826 152.19 149.826Z" fill="#B4D1CC"/>
<path d="M194.202 58.7287C194.107 58.7287 194.017 58.6912 193.95 58.6243C193.884 58.5575 193.846 58.4669 193.846 58.3723V55.2177C193.846 55.1232 193.884 55.0325 193.95 54.9657C194.017 54.8989 194.107 54.8613 194.202 54.8613C194.296 54.8613 194.386 54.8989 194.453 54.9657C194.519 55.0325 194.557 55.1232 194.557 55.2177V58.3666C194.558 58.414 194.549 58.461 194.532 58.505C194.514 58.549 194.488 58.589 194.455 58.6228C194.422 58.6565 194.383 58.6833 194.339 58.7014C194.296 58.7196 194.249 58.7289 194.202 58.7287Z" fill="#00937D"/>
<path d="M195.773 57.1503H192.629C192.535 57.1503 192.444 57.1127 192.378 57.0459C192.311 56.979 192.274 56.8884 192.274 56.7939C192.274 56.6994 192.311 56.6087 192.378 56.5419C192.444 56.475 192.535 56.4375 192.629 56.4375H195.773C195.867 56.4375 195.958 56.475 196.024 56.5419C196.091 56.6087 196.128 56.6994 196.128 56.7939C196.128 56.8884 196.091 56.979 196.024 57.0459C195.958 57.1127 195.867 57.1503 195.773 57.1503Z" fill="#00937D"/>
<path d="M22.1434 49.9357C22.0492 49.9357 21.9589 49.8982 21.8922 49.8314C21.8256 49.7645 21.7882 49.6739 21.7882 49.5794V46.4247C21.7882 46.3302 21.8256 46.2396 21.8922 46.1727C21.9589 46.1059 22.0492 46.0684 22.1434 46.0684C22.2376 46.0684 22.328 46.1059 22.3946 46.1727C22.4612 46.2396 22.4987 46.3302 22.4987 46.4247V49.5794C22.4989 49.6262 22.4898 49.6727 22.472 49.716C22.4542 49.7593 22.4281 49.7987 22.395 49.8318C22.362 49.8649 22.3228 49.8912 22.2796 49.909C22.2364 49.9268 22.1901 49.9359 22.1434 49.9357Z" fill="#00937D"/>
<path d="M23.715 48.3573H20.5706C20.4763 48.3573 20.386 48.3197 20.3194 48.2529C20.2528 48.1861 20.2153 48.0954 20.2153 48.0009C20.2153 47.9064 20.2528 47.8157 20.3194 47.7489C20.386 47.6821 20.4763 47.6445 20.5706 47.6445H23.715C23.8093 47.6445 23.8996 47.6821 23.9662 47.7489C24.0328 47.8157 24.0703 47.9064 24.0703 48.0009C24.0703 48.0954 24.0328 48.1861 23.9662 48.2529C23.8996 48.3197 23.8093 48.3573 23.715 48.3573Z" fill="#00937D"/>
<path d="M38.2183 155.781C38.1717 155.781 38.1256 155.772 38.0826 155.754C38.0396 155.736 38.0005 155.71 37.9676 155.677C37.9347 155.644 37.9087 155.605 37.891 155.561C37.8733 155.518 37.8643 155.472 37.8645 155.425V152.27C37.8645 152.176 37.9019 152.085 37.9685 152.018C38.0352 151.952 38.1255 151.914 38.2197 151.914C38.3139 151.914 38.4043 151.952 38.4709 152.018C38.5375 152.085 38.575 152.176 38.575 152.27V155.425C38.575 155.472 38.5657 155.518 38.5478 155.562C38.5298 155.605 38.5035 155.644 38.4704 155.678C38.4373 155.711 38.3979 155.737 38.3547 155.755C38.3114 155.773 38.2651 155.782 38.2183 155.781Z" fill="#43747C"/>
<path d="M39.7912 154.203H36.6467C36.5525 154.203 36.4622 154.165 36.3955 154.099C36.3289 154.032 36.2915 153.941 36.2915 153.847C36.2915 153.752 36.3289 153.661 36.3955 153.595C36.4622 153.528 36.5525 153.49 36.6467 153.49H39.7912C39.8854 153.49 39.9758 153.528 40.0424 153.595C40.109 153.661 40.1464 153.752 40.1464 153.847C40.1464 153.941 40.109 154.032 40.0424 154.099C39.9758 154.165 39.8854 154.203 39.7912 154.203Z" fill="#43747C"/>
</g>
<defs>
<clipPath id="clip0_1157_72563">
<rect width="203" height="211" fill="white"/>
</clipPath>
</defs>
</svg>
