<svg width="222" height="222" viewBox="0 0 222 222" fill="none" xmlns="http://www.w3.org/2000/svg">
<g clip-path="url(#clip0_2546_3517)">
<path d="M218.254 41.9509C210.835 26.9165 195.996 18.8051 186.794 13.7856C147.006 -7.95367 92.7789 -2.09753 56.7124 18.2474C21.1186 38.3256 -9.94098 85.8295 3.00659 137.383C16.0027 189.143 63.271 214.798 101.677 220.412C162.657 229.311 216.363 195.52 221.188 176.254C222.267 171.938 221.454 165.015 221.454 165.015C220.388 154.806 211.453 150.732 209.513 127.453C205.961 84.6171 231.262 68.3096 218.254 41.9509Z" fill="#E3F3F1"/>
<path d="M107.145 12.7914C107.145 22.2849 99.4344 29.9839 89.9298 29.9839C80.4252 29.9839 72.7148 22.2849 72.7148 12.7914C72.7148 3.29786 78.9825 2.34003 88.4871 2.34003C97.9917 2.34003 107.145 3.29786 107.145 12.7914Z" fill="#5FB8AB"/>
<path d="M87.9233 21.1428H92.0488" stroke="white" stroke-width="1.5" stroke-linecap="round" stroke-linejoin="round"/>
<path d="M89.9861 23.2055V19.0801" stroke="white" stroke-width="1.5" stroke-linecap="round" stroke-linejoin="round"/>
<path d="M89.7964 29.1959C82.6437 29.1959 76.2911 24.3824 74.012 17.229C73.9392 17.0228 74.0605 16.7925 74.2665 16.7197C74.4726 16.647 74.703 16.7682 74.7757 16.9743C76.9579 23.8004 82.9953 28.3835 89.7964 28.3835C96.6945 28.3835 102.756 23.7277 104.878 16.7803C104.938 16.5621 105.169 16.453 105.375 16.5136C105.593 16.5742 105.702 16.8046 105.641 17.0107C103.423 24.2976 97.046 29.1959 89.7964 29.1959Z" fill="#99B9FF"/>
<path d="M105.969 14.3433H73.406C72.715 14.3433 72.1331 13.9311 71.9997 13.3491L69.4539 2.27942H110.733L107.63 13.2157C107.448 13.8826 106.757 14.3433 105.969 14.3433Z" fill="#DAF3F0"/>
<path d="M105.969 14.7434H73.406C72.5331 14.7434 71.7815 14.1978 71.5996 13.434L69.0538 2.36428C69.0295 2.24304 69.0538 2.12179 69.1265 2.0248C69.1993 1.9278 69.3205 1.8793 69.4417 1.8793H110.721C110.842 1.8793 110.964 1.93993 111.036 2.03692C111.109 2.13392 111.133 2.26729 111.097 2.38853L108.018 13.337C107.775 14.1614 106.939 14.7434 105.969 14.7434ZM69.963 2.69165L72.3998 13.2642C72.4968 13.6643 72.9211 13.9432 73.4181 13.9432H105.969C106.575 13.9432 107.108 13.5916 107.254 13.1066L110.212 2.67952H69.963V2.69165Z" fill="black"/>
<path d="M110.224 4.24359H69.9145C69.0901 4.24359 68.4233 3.57674 68.4233 2.75227C68.4233 1.9278 69.0901 1.26096 69.9145 1.26096H110.224C111.049 1.26096 111.715 1.9278 111.715 2.75227C111.715 3.57674 111.049 4.24359 110.224 4.24359Z" fill="#5FB8AB"/>
<path d="M110.224 4.64369H69.9144C68.8718 4.64369 68.0232 3.79497 68.0232 2.75227C68.0232 1.70956 68.8718 0.86084 69.9144 0.86084H110.224C111.267 0.86084 112.115 1.70956 112.115 2.75227C112.115 3.79497 111.267 4.64369 110.224 4.64369ZM69.9144 1.66106C69.3083 1.66106 68.8233 2.14604 68.8233 2.75227C68.8233 3.35849 69.3083 3.84347 69.9144 3.84347H110.224C110.83 3.84347 111.315 3.35849 111.315 2.75227C111.315 2.14604 110.83 1.66106 110.224 1.66106H69.9144Z" fill="black"/>
<path d="M201.725 188.129V62.0269H213.037V188.129H201.725Z" fill="#F0F8F7" stroke="#181524" stroke-width="0.6"/>
<path d="M206.025 184.826V184.824L206.775 65.7394L134.619 33.5755L63.9154 66.8729L67.0623 186.686L67.0623 186.687C67.0947 188.144 68.3629 189.326 69.9362 189.315L206.025 184.826ZM206.025 184.826C206.025 186.672 204.463 188.19 202.478 188.212L69.9365 189.315L206.025 184.826Z" fill="#F0F8F7" stroke="#181524" stroke-width="0.6"/>
<path d="M89.8207 131.963H76.6306C76.1578 131.963 75.782 131.575 75.782 131.115V111.218C75.782 110.745 76.1699 110.37 76.6306 110.37H89.8207C90.2935 110.37 90.6693 110.758 90.6693 111.218V131.115C90.6814 131.587 90.2935 131.963 89.8207 131.963Z" fill="#CADDFF"/>
<path d="M107.205 131.963H94.1971C93.6758 131.963 93.2515 131.539 93.2515 131.018V111.303C93.2515 110.782 93.6758 110.357 94.1971 110.357H107.205C107.727 110.357 108.151 110.782 108.151 111.303V131.018C108.151 131.539 107.727 131.963 107.205 131.963Z" fill="#CADDFF"/>
<path d="M90.0631 155.97H76.3881C76.0487 155.97 75.782 155.691 75.782 155.364V134.982C75.782 134.643 76.0608 134.376 76.3881 134.376H90.0631C90.4026 134.376 90.6693 134.655 90.6693 134.982V155.364C90.6814 155.691 90.4026 155.97 90.0631 155.97Z" fill="#CADDFF"/>
<path d="M107.181 155.97H94.2094C93.6759 155.97 93.2395 155.533 93.2395 155V135.334C93.2395 134.8 93.6759 134.364 94.2094 134.364H107.181C107.715 134.364 108.151 134.8 108.151 135.334V155C108.151 155.533 107.715 155.97 107.181 155.97Z" fill="#CADDFF"/>
<path d="M137.153 65.8605H137.153L137.153 65.8682C137.16 66.1624 136.918 66.4092 136.604 66.4092H124.554C124.249 66.4092 124.005 66.1584 124.005 65.8605V51.4202C124.005 51.1158 124.256 50.8715 124.554 50.8715H136.604C136.908 50.8715 137.153 51.1223 137.153 51.4202V65.8605Z" fill="#F0F8F7" stroke="#181524" stroke-width="0.6"/>
<path d="M152.655 66.4092H140.774C140.419 66.4092 140.129 66.1192 140.129 65.7634V51.505C140.129 51.1493 140.419 50.8593 140.774 50.8593H152.655C153.011 50.8593 153.301 51.1493 153.301 51.505V65.7634C153.301 66.1288 153.013 66.4092 152.655 66.4092Z" fill="#F0F8F7" stroke="#181524" stroke-width="0.6"/>
<path d="M137.153 84.0472H137.153L137.153 84.0583C137.158 84.2052 137.027 84.3535 136.847 84.3535H124.311C124.141 84.3535 124.005 84.2129 124.005 84.0472V69.1219C124.005 68.952 124.146 68.8157 124.311 68.8157H136.847C137.016 68.8157 137.153 68.9563 137.153 69.1219V84.0472Z" fill="#F0F8F7" stroke="#181524" stroke-width="0.6"/>
<path d="M152.631 84.3535H140.799C140.431 84.3535 140.129 84.0513 140.129 83.6835V69.4736C140.129 69.1057 140.431 68.8036 140.799 68.8036H152.631C152.999 68.8036 153.301 69.1057 153.301 69.4736V83.6956C153.301 84.0489 153.001 84.3535 152.631 84.3535Z" fill="#F0F8F7" stroke="#181524" stroke-width="0.6"/>
<path d="M181.411 134.073H168.221C167.749 134.073 167.373 133.685 167.373 133.224V113.292C167.373 112.819 167.761 112.443 168.221 112.443H181.411C181.884 112.443 182.26 112.831 182.26 113.292V133.212C182.272 133.685 181.884 134.073 181.411 134.073Z" fill="#DAF3F0"/>
<path d="M198.796 134.073H185.788C185.267 134.073 184.842 133.649 184.842 133.127V113.376C184.842 112.855 185.267 112.431 185.788 112.431H198.796C199.317 112.431 199.742 112.855 199.742 113.376V133.127C199.742 133.649 199.317 134.073 198.796 134.073Z" fill="#CADDFF"/>
<path d="M181.654 158.104H167.979C167.64 158.104 167.373 157.825 167.373 157.498V137.092C167.373 136.753 167.652 136.486 167.979 136.486H181.654C181.993 136.486 182.26 136.765 182.26 137.092V157.498C182.272 157.837 181.993 158.104 181.654 158.104Z" fill="#DAF3F0"/>
<path d="M198.784 158.104H185.812C185.279 158.104 184.842 157.667 184.842 157.134V137.432C184.842 136.898 185.279 136.462 185.812 136.462H198.784C199.317 136.462 199.754 136.898 199.754 137.432V157.134C199.742 157.667 199.305 158.104 198.784 158.104Z" fill="#DAF3F0"/>
<path d="M136.774 22.006L58.07 63.9448C56.397 64.8299 56.0818 66.6364 57.3911 67.8367L64.0104 73.9233L137.356 36.3251C137.816 36.0947 138.41 36.0826 138.883 36.3251L213.659 74.0081L217.939 68.9158C219.697 66.8183 218.981 64.0175 216.314 62.6111L139.465 21.9939C138.641 21.5696 137.574 21.5696 136.774 22.006Z" fill="#181524"/>
<path d="M213.647 74.4203C213.586 74.4203 213.526 74.4082 213.465 74.3719L138.689 36.701C138.338 36.5312 137.877 36.5312 137.538 36.701L64.1923 74.2991C64.0468 74.3718 63.865 74.3476 63.7316 74.2385L57.1245 68.1398C56.4213 67.4972 56.1061 66.6728 56.2152 65.8241C56.3364 64.9147 56.9426 64.1024 57.9003 63.5932L136.604 21.6423C137.526 21.1452 138.726 21.1452 139.647 21.6423L216.496 62.2595C217.963 63.0354 218.957 64.2721 219.224 65.6543C219.466 66.891 219.115 68.1398 218.242 69.1826L213.962 74.2749C213.877 74.3718 213.756 74.4203 213.647 74.4203ZM138.12 35.7674C138.447 35.7674 138.774 35.8401 139.053 35.9856L213.538 73.5231L217.611 68.6733C218.327 67.8246 218.618 66.8061 218.424 65.8119C218.205 64.6722 217.357 63.6417 216.108 62.9748L139.259 22.3576C138.568 21.9939 137.647 21.9939 136.968 22.3576L58.264 64.3085C57.5488 64.6965 57.0881 65.2785 57.0032 65.9332C56.9305 66.5152 57.1608 67.0971 57.67 67.5579L64.0832 73.4625L137.174 35.9977C137.453 35.8401 137.78 35.7674 138.12 35.7674Z" fill="#181524"/>
<path d="M156.038 190.125H119.571C118.686 190.125 117.959 189.409 117.959 188.512V113.886C117.959 113.001 118.674 112.273 119.571 112.273H156.038C156.923 112.273 157.65 112.988 157.65 113.886V188.512C157.65 189.409 156.923 190.125 156.038 190.125Z" fill="black"/>
<path d="M154.547 187.372H121.208C120.614 187.372 120.141 186.887 120.141 186.305V115.522C120.141 114.928 120.626 114.456 121.208 114.456H154.547C155.141 114.456 155.613 114.94 155.613 115.522V186.305C155.625 186.9 155.141 187.372 154.547 187.372Z" fill="#DAF3F0"/>
<path d="M162.827 190.876H112.952C112.527 190.876 112.188 190.537 112.188 190.113V183.214C112.188 182.789 112.527 182.45 112.952 182.45H162.814C163.239 182.45 163.578 182.789 163.578 183.214V190.113C163.578 190.537 163.239 190.876 162.827 190.876Z" fill="#B9E3DD"/>
<path d="M120.141 180.061C119.923 180.061 119.741 179.879 119.741 179.661V159.607C119.741 159.389 119.923 159.207 120.141 159.207C120.359 159.207 120.541 159.389 120.541 159.607V179.661C120.541 179.879 120.359 180.061 120.141 180.061Z" fill="#5FB8AB"/>
<path d="M112.2 189.24C111.982 189.24 111.8 189.058 111.8 188.839V183.189C111.8 182.571 112.321 182.062 112.964 182.062H153.71C153.928 182.062 154.11 182.244 154.11 182.462C154.11 182.68 153.928 182.862 153.71 182.862H112.952C112.758 182.862 112.6 183.008 112.6 183.177V188.827C112.6 189.058 112.418 189.24 112.2 189.24Z" fill="#181524"/>
<path d="M172.937 98.8876C172.719 98.8876 172.537 98.7058 172.537 98.4875C172.537 98.2693 172.719 98.0874 172.937 98.0874L181.424 98.0753C181.642 98.0753 181.824 98.2572 181.824 98.4754C181.824 98.6936 181.642 98.8755 181.424 98.8755L172.937 98.8876Z" fill="#B8EDE5"/>
<path d="M105.411 98.9968C105.193 98.9968 105.011 98.8149 105.011 98.5967C105.011 98.3784 105.193 98.1965 105.411 98.1965L145.636 98.1359C145.854 98.1359 146.036 98.3178 146.036 98.536C146.036 98.7543 145.854 98.9361 145.636 98.9361L105.411 98.9968Z" fill="#B8EDE5"/>
<path d="M191.243 139.044C192.347 139.117 198.505 139.505 203.1 135.007C208.277 129.951 208.943 121.148 205.5 116.735C203.391 114.031 201.706 115.498 194.771 111.57C188.673 108.114 187.049 105.314 183.921 105.896C181.484 106.356 180.054 108.49 178.502 110.806C177.168 112.782 173.604 118.105 174.841 124.798C176.283 132.606 183.569 138.559 191.243 139.044Z" fill="black"/>
<path d="M192.395 139.214C191.971 139.214 191.583 139.202 191.231 139.177C183.23 138.668 176.126 132.509 174.707 124.834C173.459 118.093 177.035 112.758 178.381 110.745C179.932 108.43 181.399 106.235 183.897 105.774C185.946 105.386 187.352 106.405 189.68 108.078C190.989 109.024 192.625 110.2 194.844 111.461C198.202 113.364 200.312 113.995 201.863 114.456C203.512 114.94 204.506 115.244 205.609 116.662C208.968 120.966 208.652 129.781 203.197 135.116C199.681 138.547 195.28 139.214 192.395 139.214ZM184.733 105.968C184.479 105.968 184.224 105.993 183.957 106.041C181.581 106.49 180.139 108.624 178.623 110.903C177.29 112.891 173.762 118.153 174.986 124.786C176.38 132.339 183.388 138.414 191.268 138.911C193.959 139.08 199.063 138.789 203.027 134.922C208.301 129.769 208.64 120.966 205.415 116.832C204.361 115.474 203.391 115.195 201.803 114.71C200.251 114.249 198.117 113.619 194.735 111.691C192.504 110.43 190.868 109.242 189.546 108.296C187.57 106.89 186.285 105.968 184.733 105.968Z" fill="black"/>
<path d="M199.148 147.519C199.148 147.519 200.239 151.253 183.957 152.163C167.676 153.072 170.404 148.453 170.404 148.453L187.485 143.482L199.148 147.519Z" fill="black"/>
<path d="M182.866 206.081L183.084 213.755L185.788 214.046L187.134 205.79L182.866 206.081Z" fill="white"/>
<path d="M185.788 214.446C185.776 214.446 185.764 214.446 185.739 214.446L183.024 214.155C182.83 214.131 182.672 213.974 182.66 213.767L182.454 206.093C182.454 205.874 182.612 205.693 182.83 205.68L187.085 205.389C187.206 205.377 187.328 205.426 187.412 205.523C187.497 205.608 187.534 205.741 187.509 205.862L186.164 214.119C186.152 214.301 185.982 214.446 185.788 214.446ZM183.472 213.392L185.461 213.61L186.661 206.226L183.291 206.456L183.472 213.392Z" fill="black"/>
<path d="M167.482 208.602L167.045 214.701L170.634 215.004L171.907 208.602H167.482Z" fill="white"/>
<path d="M170.634 215.404C170.622 215.404 170.61 215.404 170.598 215.404L167.009 215.113C166.791 215.101 166.621 214.907 166.645 214.689L167.082 208.578C167.094 208.372 167.276 208.202 167.482 208.202H171.919C172.04 208.202 172.149 208.251 172.234 208.348C172.307 208.445 172.343 208.566 172.319 208.687L171.034 215.089C170.985 215.271 170.816 215.404 170.634 215.404ZM167.47 214.337L170.307 214.568L171.422 209.003H167.858L167.47 214.337Z" fill="black"/>
<path d="M171.592 217.635C171.846 217.465 171.992 217.187 172.004 216.896C172.028 215.998 172.028 214.095 171.664 213.367C171.179 212.41 169.203 213.743 169.203 213.743C169.203 213.743 168.04 212.143 167.361 211.803C167.009 211.634 164.948 212.991 162.875 214.859C160.608 216.896 159.578 217.55 159.093 219.32C158.862 220.145 159.468 220.982 160.329 221.042C162.414 221.176 166.621 220.933 171.592 217.635Z" fill="#5FB8AB"/>
<path d="M161.238 221.467C160.887 221.467 160.572 221.454 160.293 221.43C159.759 221.394 159.274 221.115 158.959 220.678C158.656 220.242 158.559 219.708 158.705 219.211C159.153 217.611 160.026 216.835 161.626 215.429C161.929 215.162 162.257 214.883 162.608 214.556C163.021 214.192 166.621 210.991 167.542 211.44C168.124 211.731 168.912 212.7 169.3 213.21C169.797 212.919 170.695 212.494 171.373 212.664C171.664 212.737 171.883 212.919 172.028 213.185C172.404 213.925 172.44 215.61 172.404 216.896C172.392 217.332 172.174 217.72 171.822 217.963C167.409 220.897 163.566 221.467 161.238 221.467ZM167.239 212.191C166.827 212.288 165.203 213.295 163.142 215.15C162.778 215.477 162.451 215.768 162.148 216.023C160.572 217.405 159.844 218.047 159.468 219.405C159.396 219.672 159.444 219.963 159.614 220.193C159.784 220.436 160.05 220.594 160.353 220.606C162.378 220.751 166.5 220.509 171.361 217.271C171.495 217.174 171.58 217.029 171.592 216.859C171.628 215.222 171.519 213.974 171.301 213.525C171.264 213.464 171.228 213.44 171.167 213.416C170.767 213.307 169.907 213.731 169.422 214.046C169.24 214.168 168.997 214.119 168.876 213.949C168.464 213.416 167.688 212.458 167.239 212.191Z" fill="black"/>
<path d="M162.281 219.83C160.984 219.83 160.147 219.648 160.063 219.624C159.844 219.575 159.711 219.357 159.759 219.139C159.808 218.92 160.026 218.787 160.244 218.836C160.305 218.848 165.773 220.048 170.998 215.889C171.167 215.756 171.422 215.78 171.567 215.95C171.701 216.12 171.677 216.374 171.507 216.52C168.015 219.296 164.475 219.83 162.281 219.83Z" fill="black"/>
<path d="M181.799 215.61L181.836 211.415C181.836 211.415 182.684 210.142 183.836 211.173C183.836 211.173 184.903 209.681 186.891 211.537C186.891 211.537 189.679 216.738 190.916 219.83C191.243 220.654 190.661 221.564 189.764 221.588C188.479 221.612 186.83 221.551 186.103 221.066C184.976 220.303 183.048 217.902 182.199 216.823C181.945 216.471 181.799 216.047 181.799 215.61Z" fill="#5FB8AB"/>
<path d="M189.255 222C187.606 222 186.467 221.794 185.873 221.394C184.733 220.618 182.878 218.351 181.884 217.065C181.557 216.653 181.387 216.132 181.399 215.61L181.436 211.415C181.436 211.343 181.46 211.258 181.508 211.197C181.557 211.124 182.005 210.482 182.745 210.385C183.109 210.336 183.46 210.421 183.8 210.651C184.018 210.47 184.357 210.264 184.83 210.227C185.57 210.154 186.358 210.506 187.17 211.27C187.206 211.294 187.231 211.33 187.243 211.367C187.267 211.415 190.055 216.617 191.292 219.696C191.498 220.206 191.437 220.788 191.134 221.248C190.831 221.709 190.322 221.988 189.776 222C189.595 222 189.425 222 189.255 222ZM182.236 211.561L182.199 215.623C182.199 215.962 182.309 216.302 182.527 216.58C183.315 217.587 185.242 219.999 186.333 220.739C186.83 221.079 188.043 221.236 189.764 221.2C190.055 221.188 190.31 221.054 190.467 220.812C190.625 220.569 190.661 220.266 190.552 219.999C189.413 217.138 186.891 212.397 186.576 211.815C185.97 211.258 185.4 210.991 184.915 211.039C184.43 211.088 184.175 211.427 184.175 211.44C184.115 211.537 184.006 211.597 183.897 211.609C183.788 211.621 183.666 211.585 183.581 211.512C183.327 211.282 183.084 211.185 182.854 211.209C182.575 211.209 182.345 211.427 182.236 211.561Z" fill="black"/>
<path d="M183.836 213.84C183.618 213.84 183.436 213.658 183.436 213.44V211.173C183.436 210.955 183.618 210.773 183.836 210.773C184.054 210.773 184.236 210.955 184.236 211.173V213.44C184.236 213.658 184.054 213.84 183.836 213.84Z" fill="black"/>
<path d="M166.391 208.942C166.391 208.942 165.372 193.52 167.045 179.649C168.718 165.779 174.962 145.967 174.962 145.967C174.962 145.967 181.678 145.664 186.564 146.319C191.449 146.973 193.389 146.295 193.389 146.295C193.389 146.295 197.038 150.465 196.735 158.31C196.432 166.154 187.921 199.254 188.249 207.026C188.249 207.026 185.388 208.469 181.678 207.754L183.218 163.148C183.218 163.148 180.041 172.326 178.538 178.618C177.326 183.747 175.204 187.069 175.204 187.069C175.204 187.069 175.289 198.988 172.549 208.881C172.561 208.893 169.325 209.9 166.391 208.942Z" fill="black"/>
<path d="M171.761 192.586C171.689 192.586 171.604 192.562 171.531 192.513C171.349 192.392 171.301 192.137 171.422 191.955L173.762 188.548C173.883 188.367 174.138 188.318 174.319 188.439C174.501 188.561 174.55 188.815 174.428 188.997L172.089 192.404C172.016 192.525 171.895 192.586 171.761 192.586Z" fill="white"/>
<path d="M187.534 184.305C186.733 184.305 186.139 184.159 186.091 184.147C185.873 184.087 185.751 183.868 185.8 183.662C185.861 183.444 186.079 183.323 186.285 183.371C186.321 183.383 188.443 183.893 189.873 182.826C190.055 182.692 190.298 182.729 190.431 182.911C190.564 183.092 190.528 183.335 190.346 183.468C189.461 184.135 188.382 184.305 187.534 184.305Z" fill="white"/>
<path d="M176.38 133.297C176.38 133.297 172.61 141.76 166.476 143.494C160.329 145.228 156.05 140.002 156.086 134.606L158.171 133.915C158.171 133.915 160.317 139.444 165.094 138.001C169.87 136.558 172.089 125.319 172.089 125.319L176.38 133.297Z" fill="white"/>
<path d="M164.112 144.233C162.026 144.233 160.463 143.433 159.42 142.633C157.092 140.863 155.662 137.783 155.674 134.594C155.674 134.425 155.783 134.267 155.953 134.218L158.038 133.527C158.244 133.455 158.462 133.564 158.535 133.758C158.62 133.964 160.608 138.923 164.972 137.613C169.47 136.255 171.664 125.355 171.689 125.246C171.725 125.077 171.858 124.955 172.028 124.931C172.198 124.907 172.368 124.992 172.44 125.137L176.732 133.115C176.793 133.224 176.793 133.358 176.744 133.467C176.586 133.818 172.828 142.124 166.573 143.882C165.688 144.124 164.863 144.233 164.112 144.233ZM156.474 134.885C156.547 137.722 157.844 140.426 159.893 141.99C161.166 142.96 163.324 143.942 166.354 143.094C171.761 141.578 175.35 134.509 175.92 133.297L172.234 126.447C171.543 129.344 169.3 137.14 165.191 138.365C164.597 138.547 164.051 138.62 163.53 138.62C160.256 138.62 158.45 135.455 157.929 134.388L156.474 134.885Z" fill="black"/>
<path d="M199.148 125.125C199.148 125.125 195.365 120.203 184.697 121.124C171.955 122.227 170.985 124.737 170.985 124.737L174.307 131.466L170.404 148.453C170.404 148.453 173.071 150.659 179.314 149.423C185.558 148.186 196.299 146.658 199.136 147.519L195.183 131.309L199.148 125.125Z" fill="url(#paint0_linear_2546_3517)"/>
<path d="M158.171 141.045H174.586L163.821 121.573H147.394L158.171 141.045Z" fill="black"/>
<path d="M174.816 141.178H158.086L147.176 121.439H163.893L174.816 141.178ZM158.244 140.911H174.356L163.736 121.706H147.624L158.244 140.911Z" fill="black"/>
<path d="M157.796 140.426C157.796 140.426 158.099 138.814 157.796 137.735C157.492 136.656 155.577 133.455 155.031 132.788C154.474 132.121 154.013 139.274 157.796 140.426Z" fill="white"/>
<path d="M157.795 140.838C157.759 140.838 157.711 140.838 157.674 140.826C155.274 140.087 154.34 137.14 154.256 134.619C154.219 133.273 154.389 132.521 154.789 132.376C154.983 132.303 155.189 132.363 155.334 132.533C155.868 133.188 157.832 136.437 158.183 137.625C158.511 138.777 158.208 140.438 158.196 140.499C158.171 140.608 158.111 140.705 158.014 140.766C157.929 140.814 157.868 140.838 157.795 140.838ZM155.092 133.576C155.007 134.461 155.056 136.171 155.662 137.686C156.086 138.753 156.692 139.481 157.456 139.868C157.517 139.335 157.577 138.474 157.395 137.844C157.165 137.019 155.844 134.728 155.092 133.576Z" fill="black"/>
<path d="M192.141 136.243L179.496 130.157L172.925 131.321C172.925 131.321 173.386 132 174.319 131.842C175.253 131.684 176.49 131.951 177.278 132.812C178.053 133.673 179.375 133.127 179.375 133.127C179.375 133.127 186.528 142.306 192.941 143.482C198.166 144.439 198.736 125.743 198.736 125.743L192.456 131.309L192.141 136.243Z" fill="white"/>
<path d="M193.341 143.918C193.195 143.918 193.038 143.906 192.88 143.87C186.867 142.766 180.405 135.031 179.241 133.588C178.732 133.721 177.702 133.867 176.987 133.079C176.283 132.315 175.18 132.109 174.392 132.242C173.216 132.436 172.622 131.587 172.598 131.551C172.525 131.442 172.513 131.296 172.562 131.175C172.61 131.054 172.731 130.957 172.865 130.933L179.435 129.769C179.52 129.757 179.605 129.769 179.678 129.805L191.777 135.637L192.068 131.296C192.08 131.187 192.128 131.09 192.201 131.018L198.481 125.452C198.602 125.343 198.772 125.319 198.917 125.392C199.063 125.465 199.148 125.61 199.148 125.768C199.136 126.362 198.663 140.329 194.941 143.324C194.444 143.724 193.911 143.918 193.341 143.918ZM179.387 132.727C179.508 132.727 179.629 132.776 179.702 132.885C179.775 132.97 186.831 141.954 193.026 143.094C193.535 143.191 193.995 143.057 194.444 142.694C197.354 140.341 198.129 129.89 198.311 126.677L192.868 131.503L192.553 136.28C192.541 136.413 192.468 136.534 192.359 136.595C192.25 136.668 192.104 136.668 191.983 136.607L179.46 130.581L174.804 131.406C175.738 131.393 176.841 131.721 177.593 132.545C178.175 133.176 179.229 132.764 179.241 132.751C179.278 132.739 179.338 132.727 179.387 132.727Z" fill="black"/>
<path d="M177.92 115.644C177.775 115.426 178.453 114.201 178.478 113.764C178.502 113.328 178.15 112.952 178.005 112.491C177.859 112.031 178.017 111.206 178.017 111.206C178.211 105.665 184.261 106.987 184.261 106.987C185.643 107.411 186.467 108.963 186.734 109.994C187.255 111.994 186.297 114.419 186.297 114.419C186.334 114.504 187.328 120.991 187.376 121.076C188.007 122.276 183.8 123.064 182.478 121.852C182.03 121.439 182.6 118.432 182.478 118.42C181.981 118.408 181.375 118.942 180.745 118.772C179.823 118.529 179.132 116.226 178.999 116.056C178.938 115.971 178.72 115.923 178.502 115.874C178.26 115.826 177.993 115.765 177.92 115.644Z" fill="white"/>
<path d="M184.6 122.858C183.666 122.858 182.745 122.652 182.2 122.142C181.812 121.791 181.836 120.942 182.03 119.184C182.042 119.099 182.054 119.014 182.054 118.929C182.018 118.942 181.981 118.954 181.945 118.966C181.581 119.111 181.133 119.281 180.636 119.16C179.835 118.942 179.266 117.79 178.781 116.577C178.744 116.492 178.708 116.408 178.684 116.335C178.611 116.311 178.502 116.286 178.417 116.274C178.078 116.201 177.738 116.117 177.568 115.862C177.374 115.559 177.532 115.171 177.799 114.516C177.908 114.249 178.053 113.874 178.065 113.74C178.078 113.57 177.981 113.389 177.859 113.17C177.775 113.001 177.678 112.819 177.617 112.613C177.459 112.103 177.581 111.34 177.617 111.158C177.678 109.521 178.247 108.272 179.278 107.472C181.254 105.944 184.212 106.562 184.345 106.587C184.357 106.587 184.37 106.587 184.382 106.599C185.897 107.06 186.806 108.66 187.122 109.897C187.606 111.776 186.903 113.934 186.709 114.456C186.758 114.734 186.879 115.462 187.194 117.511C187.412 118.917 187.691 120.663 187.74 120.954C187.934 121.379 187.788 121.827 187.352 122.167C186.818 122.567 185.703 122.858 184.6 122.858ZM182.769 121.573C183.642 122.336 186.115 122.094 186.891 121.512C187.085 121.367 187.049 121.306 187.025 121.257C186.976 121.16 186.976 121.16 186.418 117.62C186.2 116.25 185.958 114.698 185.921 114.516C185.897 114.431 185.897 114.346 185.933 114.262C185.946 114.237 186.831 111.934 186.358 110.079C186.14 109.254 185.449 107.751 184.176 107.363C183.957 107.314 181.399 106.841 179.787 108.102C178.938 108.757 178.49 109.812 178.429 111.206C178.429 111.23 178.429 111.243 178.417 111.267C178.356 111.546 178.308 112.091 178.393 112.358C178.441 112.503 178.514 112.637 178.587 112.794C178.732 113.073 178.902 113.401 178.878 113.777C178.866 114.043 178.72 114.395 178.563 114.807C178.49 114.977 178.393 115.244 178.332 115.413C178.417 115.438 178.526 115.462 178.587 115.474C178.902 115.547 179.169 115.607 179.314 115.801C179.375 115.874 179.411 115.971 179.532 116.274C179.726 116.759 180.32 118.238 180.842 118.384C181.084 118.445 181.351 118.335 181.654 118.226C181.921 118.117 182.187 118.02 182.478 118.02C182.587 118.02 182.697 118.081 182.781 118.166C182.927 118.335 182.915 118.481 182.83 119.281C182.769 119.827 182.612 121.257 182.769 121.573Z" fill="black"/>
<path d="M176.405 107.181C177.011 106.562 177.629 107.181 180.041 106.841C182.054 106.562 182.624 105.993 184.151 106.247C184.576 106.32 185.339 106.441 186.091 106.999C187.206 107.811 187.618 108.963 187.837 109.812C188.261 111.473 187.728 113.425 187.485 114.152C187.425 114.334 187.255 114.443 187.061 114.431C186.552 114.395 186.103 114.322 185.703 114.237C185.509 114.201 185.4 113.995 185.473 113.813C185.497 113.764 185.509 113.716 185.521 113.655C185.727 112.952 185.388 112.237 184.77 112.067C184.151 111.897 183.497 112.322 183.29 113.025C183.278 113.073 183.266 113.122 183.254 113.17C182.369 112.503 181.908 111.74 181.096 111.327C180.999 111.279 180.563 111.085 179.908 111.061C178.478 111.012 178.005 111.849 177.338 111.691C176.174 111.424 175.313 108.284 176.405 107.181Z" fill="black"/>
<path d="M182.333 118.82C182.163 118.82 182.005 118.711 181.945 118.541C181.872 118.335 181.993 118.105 182.211 118.032C184.018 117.462 184.309 116.359 184.321 116.311C184.369 116.092 184.588 115.959 184.806 116.007C185.024 116.056 185.157 116.262 185.109 116.48C185.097 116.541 184.733 118.081 182.454 118.796C182.405 118.82 182.369 118.82 182.333 118.82Z" fill="black"/>
<path d="M49.4263 156.067H6.84961V166.348H49.4263V156.067Z" fill="#5FB8AB"/>
<path d="M49.4262 166.761H6.84953C6.63131 166.761 6.44946 166.579 6.44946 166.361V156.067C6.44946 155.849 6.63131 155.667 6.84953 155.667H49.4262C49.6444 155.667 49.8263 155.849 49.8263 156.067V166.361C49.8263 166.579 49.6444 166.761 49.4262 166.761ZM7.26172 165.948H49.0261V156.467H7.26172V165.948Z" fill="black"/>
<path d="M49.4263 156.067H6.84961V166.348H49.4263V156.067Z" fill="#929292"/>
<path d="M49.4262 166.761H6.84953C6.63131 166.761 6.44946 166.579 6.44946 166.361V156.067C6.44946 155.849 6.63131 155.667 6.84953 155.667H49.4262C49.6444 155.667 49.8263 155.849 49.8263 156.067V166.361C49.8263 166.579 49.6444 166.761 49.4262 166.761ZM7.26172 165.948H49.0261V156.467H7.26172V165.948Z" fill="black"/>
<path d="M56.3486 168.616H48.614C47.8502 168.616 47.2319 167.997 47.2319 167.234V141.554C47.2319 140.79 47.8502 140.172 48.614 140.172H56.3486C57.1123 140.172 57.7306 140.79 57.7306 141.554V167.234C57.7306 167.985 57.1123 168.616 56.3486 168.616Z" fill="#929292"/>
<path d="M56.3487 169.016H48.6141C47.6321 169.016 46.8198 168.216 46.8198 167.221V141.542C46.8198 140.56 47.62 139.747 48.6141 139.747H56.3487C57.3306 139.747 58.1429 140.547 58.1429 141.542V167.221C58.1308 168.216 57.3306 169.016 56.3487 169.016ZM48.6019 140.56C48.0564 140.56 47.62 140.996 47.62 141.542V167.221C47.62 167.767 48.0564 168.204 48.6019 168.204H56.3365C56.8821 168.204 57.3185 167.767 57.3185 167.221V141.542C57.3185 140.996 56.8821 140.56 56.3365 140.56H48.6019Z" fill="black"/>
<path d="M1.17578 142.839V181.783C1.17578 181.783 8.53456 182.098 9.79538 175.066V149.556C9.79538 149.556 8.64367 142.839 1.17578 142.839Z" fill="#B7BABA"/>
<path d="M1.27285 182.195C1.20011 182.195 1.16374 182.195 1.15161 182.195C0.933397 182.183 0.763672 182.013 0.763672 181.795V142.851C0.763672 142.633 0.94552 142.451 1.16374 142.451C8.87409 142.451 10.1713 149.435 10.1834 149.507C10.1834 149.532 10.1834 149.556 10.1834 149.58V175.09C10.1834 175.114 10.1834 175.139 10.1713 175.163C8.97108 181.941 2.2427 182.195 1.27285 182.195ZM1.57593 143.251V181.383C3.06708 181.334 8.34067 180.777 9.39539 175.03V149.592C9.2984 149.071 8.07396 143.469 1.57593 143.251Z" fill="black"/>
<path d="M61.9739 113.595L11.2019 85.8295L60.1796 85.4051C61.0282 85.3809 61.8769 85.5264 62.677 85.8295L128.53 111.23L61.9739 113.595Z" fill="#B7BABA"/>
<path d="M61.9738 113.995C61.9011 113.995 61.8404 113.983 61.7798 113.946L11.0079 86.1811C10.8503 86.0962 10.7654 85.9022 10.8139 85.7325C10.8624 85.5506 11.02 85.4294 11.2019 85.4294L60.1796 85.005C61.0767 84.9808 61.9738 85.1263 62.8224 85.4536L128.676 110.855C128.857 110.927 128.954 111.109 128.93 111.291C128.894 111.485 128.736 111.618 128.542 111.63L61.998 113.995C61.9859 113.995 61.9859 113.995 61.9738 113.995ZM12.7536 86.2175L62.0708 113.182L126.542 110.891L62.5193 86.2054C61.7677 85.9144 60.9797 85.781 60.1796 85.8053L12.7536 86.2175Z" fill="black"/>
<path d="M63.8166 155.473L11.9536 112.588C11.4444 112.273 11.1049 111.74 11.0443 111.145L9.51679 87.9755C9.35919 86.46 10.9352 85.3566 12.3051 86.0477L63.8166 115.013V155.473Z" fill="#B7BABA"/>
<path d="M63.8165 155.885C63.7195 155.885 63.6346 155.849 63.5619 155.788L11.7231 112.916C11.1291 112.54 10.729 111.897 10.6563 111.194L9.11662 87.9998C9.03175 87.1511 9.39545 86.3508 10.1107 85.8537C10.826 85.3566 11.711 85.296 12.4869 85.684L64.0226 114.662C64.1438 114.734 64.2287 114.868 64.2287 115.013L64.2166 155.485C64.2166 155.642 64.1317 155.788 63.9862 155.849C63.9256 155.873 63.8771 155.885 63.8165 155.885ZM11.4443 86.2296C11.1412 86.2296 10.8381 86.3266 10.5714 86.5085C10.1107 86.8358 9.86826 87.3572 9.91675 87.927L11.4443 111.121C11.4928 111.57 11.7595 111.994 12.1595 112.249C12.1717 112.261 12.1959 112.273 12.208 112.285L63.4043 154.624L63.4164 115.244L12.111 86.3872C11.905 86.2902 11.6746 86.2296 11.4443 86.2296Z" fill="black"/>
<path d="M121.281 155.982H68.3143C62.3981 155.982 61.6101 154.66 61.0646 151.472L57.7307 115.268C57.7307 112.443 60.0826 110.151 62.9801 110.151L125.305 110.163C128.203 110.163 130.555 112.455 130.555 115.268L126.542 150.865C126.53 153.69 124.178 155.982 121.281 155.982Z" fill="#929292"/>
<path d="M68.3021 156.382C62.1435 156.382 61.2464 154.903 60.6644 151.532C60.6644 151.52 60.6644 151.508 60.6644 151.496L57.3306 115.292C57.3306 115.28 57.3306 115.268 57.3306 115.256C57.3306 113.777 57.9246 112.394 58.9914 111.352C60.0583 110.309 61.4767 109.739 62.98 109.739L125.305 109.751C128.421 109.751 130.955 112.225 130.955 115.268C130.955 115.28 130.955 115.292 130.955 115.316L126.942 150.902C126.942 152.369 126.348 153.739 125.281 154.782C124.214 155.824 122.796 156.394 121.293 156.394H68.3142C68.3142 156.382 68.3021 156.382 68.3021 156.382ZM61.4646 151.411C61.9495 154.224 62.4587 155.582 68.3021 155.582H68.3142H121.28C122.578 155.582 123.79 155.097 124.711 154.2C125.621 153.315 126.13 152.126 126.13 150.878C126.13 150.865 126.13 150.853 126.13 150.829L130.142 115.244C130.13 112.661 127.96 110.564 125.293 110.564L62.9679 110.551C61.6707 110.551 60.4584 111.036 59.537 111.934C58.6278 112.819 58.1307 113.995 58.1186 115.244L61.4646 151.411Z" fill="black"/>
<path d="M110.808 136.45C111.194 128.739 105.241 122.174 97.5114 121.787C89.7816 121.399 83.2018 127.335 82.8151 135.046C82.4284 142.757 88.3813 149.322 96.1112 149.709C103.841 150.097 110.421 144.161 110.808 136.45Z" fill="white"/>
<path d="M96.828 150.126C88.8752 150.126 82.4014 143.676 82.4014 135.746C82.4014 131.903 83.9046 128.29 86.6202 125.574C89.348 122.858 92.9607 121.366 96.8158 121.366C104.769 121.366 111.23 127.817 111.242 135.746C111.242 139.59 109.739 143.203 107.024 145.919C104.296 148.622 100.671 150.126 96.828 150.126ZM96.8158 122.155C93.1789 122.155 89.7601 123.561 87.19 126.131C84.6199 128.69 83.2015 132.109 83.2015 135.734C83.2015 143.227 89.3116 149.313 96.8158 149.313C100.453 149.313 103.872 147.907 106.442 145.337C109.012 142.766 110.43 139.359 110.43 135.734C110.43 128.253 104.332 122.155 96.8158 122.155Z" fill="black"/>
<path d="M104.65 135.836C104.859 131.67 101.646 128.123 97.4736 127.913C93.301 127.703 89.7489 130.911 89.5396 135.077C89.3303 139.244 92.5431 142.791 96.7157 143.001C100.888 143.21 104.44 140.003 104.65 135.836Z" fill="black"/>
<path d="M102.853 135.176C102.853 136.643 101.665 137.832 100.186 137.832C98.7192 137.832 97.519 136.643 97.519 135.176C97.519 133.709 98.7071 132.521 100.186 132.521C101.653 132.521 102.853 133.709 102.853 135.176Z" fill="white"/>
<path d="M158.511 84.1563L147.964 92.7284C147.806 92.8617 147.903 93.1164 148.109 93.1042L149.503 93.0557V109.024C149.503 109.315 149.746 109.557 150.037 109.557H168.209C168.597 109.557 168.9 109.242 168.9 108.866V93.0557H170.246C170.404 93.0557 170.476 92.8617 170.343 92.7647L159.481 84.1563C159.202 83.926 158.79 83.926 158.511 84.1563Z" fill="#5FB8AB"/>
<path d="M166.439 99.5908C166.439 99.5908 163.227 103.168 159.275 103.168C155.323 103.168 152.11 99.5908 152.11 99.5908C152.11 99.5908 155.323 96.0141 159.275 96.0141C163.227 96.0141 166.439 99.5908 166.439 99.5908Z" fill="white"/>
<path d="M159.275 102.622C160.949 102.622 162.305 101.265 162.305 99.5908C162.305 97.9168 160.949 96.5597 159.275 96.5597C157.601 96.5597 156.244 97.9168 156.244 99.5908C156.244 101.265 157.601 102.622 159.275 102.622Z" fill="black"/>
<path d="M161.069 98.5845C161.069 99.021 160.717 99.3726 160.281 99.3726C159.844 99.3726 159.493 99.021 159.493 98.5845C159.493 98.148 159.844 97.7964 160.281 97.7964C160.717 97.7964 161.069 98.148 161.069 98.5845Z" fill="white"/>
<path d="M53.6086 50.1834C59.4002 50.1834 64.0952 45.4933 64.0952 39.7078C64.0952 33.9223 59.4002 29.2322 53.6086 29.2322C47.8171 29.2322 43.1221 33.9223 43.1221 39.7078C43.1221 45.4933 47.8171 50.1834 53.6086 50.1834Z" fill="white"/>
<path d="M53.6087 50.5956C47.6077 50.5956 42.71 45.7095 42.71 39.7199C42.71 33.7304 47.5956 28.8442 53.6087 28.8442C59.6097 28.8442 64.5075 33.7304 64.5075 39.7199C64.5075 45.7095 59.6097 50.5956 53.6087 50.5956ZM53.6087 29.6323C48.0442 29.6323 43.5222 34.1548 43.5222 39.7078C43.5222 45.2608 48.0442 49.7833 53.6087 49.7833C59.1733 49.7833 63.6952 45.2608 63.6952 39.7078C63.6952 34.1548 59.1733 29.6323 53.6087 29.6323Z" fill="black"/>
<path d="M55.6452 44.9456C55.6452 45.77 54.9784 46.449 54.1419 46.449C53.3176 46.449 52.6387 45.7822 52.6387 44.9456C52.6387 44.109 53.3054 43.4421 54.1419 43.4421C54.9663 43.4421 55.6452 44.109 55.6452 44.9456Z" fill="#5FB8AB"/>
<path d="M51.4628 43.0784C51.2689 43.0784 51.0749 42.9935 50.9415 42.8359C50.6991 42.5449 50.7354 42.1206 51.0143 41.8781C51.9477 41.0779 53.0146 40.6656 54.0936 40.6656C55.1725 40.6656 56.2394 41.09 57.1729 41.8781C57.4638 42.1206 57.4881 42.557 57.2456 42.8359C57.0031 43.1269 56.5667 43.1511 56.2879 42.9087C55.5968 42.3146 54.8573 42.0236 54.0936 42.0236C53.3298 42.0236 52.6024 42.3267 51.8993 42.9087C51.7659 43.0299 51.6083 43.0784 51.4628 43.0784Z" fill="#5FB8AB"/>
<path d="M58.3003 40.6293C58.1427 40.6293 57.9851 40.5808 57.8639 40.4717C56.6758 39.4653 55.4029 38.9682 54.0936 38.9682C52.7721 38.9682 51.5113 39.4774 50.3232 40.4717C50.0323 40.7141 49.608 40.6778 49.3655 40.3868C49.123 40.0958 49.1594 39.6714 49.4504 39.4289C50.8688 38.2286 52.4812 37.5981 54.1057 37.5981C55.7302 37.5981 57.3426 38.2286 58.761 39.4289C59.0519 39.6714 59.0883 40.0958 58.8458 40.3868C58.6882 40.5444 58.4943 40.6293 58.3003 40.6293Z" fill="#5FB8AB"/>
<path d="M59.8763 38.168C59.7187 38.168 59.5611 38.1195 59.4278 37.9982C57.7548 36.5554 55.9484 35.8279 54.0814 35.8279C52.2145 35.8279 50.4081 36.5554 48.7351 37.9982C48.4442 38.2407 48.0198 38.2165 47.7774 37.9255C47.5349 37.6345 47.5592 37.2101 47.8501 36.9677C48.7836 36.1674 49.7777 35.5491 50.7961 35.1247C51.8629 34.6882 52.9661 34.47 54.0814 34.47C55.1968 34.47 56.3 34.6882 57.3668 35.1247C58.3852 35.5491 59.3793 36.1674 60.3128 36.9677C60.6037 37.2101 60.628 37.6466 60.3855 37.9255C60.2643 38.0831 60.0703 38.168 59.8763 38.168Z" fill="#5FB8AB"/>
<path d="M33.169 74.7356C38.9003 74.7356 43.5464 70.0672 43.5464 64.3085C43.5464 58.5497 38.9003 53.8814 33.169 53.8814C27.4377 53.8814 22.7915 58.5497 22.7915 64.3085C22.7915 70.0672 27.4377 74.7356 33.169 74.7356Z" fill="white"/>
<path d="M33.1691 75.1357C30.3322 75.1357 27.653 74.0323 25.6163 72.0318C21.3732 67.8488 21.3126 60.9742 25.4708 56.7185C27.4833 54.6573 30.1868 53.5055 33.06 53.4813C35.9332 53.457 38.6487 54.5603 40.7097 56.5851C44.9528 60.7681 45.0134 67.6427 40.8552 71.8984C38.8427 73.9596 36.1392 75.1114 33.266 75.1357C33.2297 75.1357 33.2054 75.1357 33.1691 75.1357ZM26.1861 71.4619C28.0894 73.3412 30.5989 74.3476 33.266 74.3354C35.9331 74.3112 38.4184 73.2442 40.2854 71.3286C44.1406 67.3881 44.0799 61.0227 40.152 57.1429C38.2487 55.2636 35.7392 54.233 33.0721 54.2694C30.405 54.2936 27.9197 55.3606 26.0527 57.2641C22.1976 61.2288 22.2582 67.5821 26.1861 71.4619Z" fill="black"/>
<path d="M31.2536 67.861L30.599 61.4713C30.5626 61.144 30.8899 60.9015 31.193 61.0106L37.9093 63.5082C38.2487 63.6295 38.2972 64.1023 37.9941 64.2963L31.9325 68.1883C31.6537 68.3702 31.29 68.1883 31.2536 67.861Z" fill="#5FB8AB"/>
<path d="M118.177 211.755C117.316 211.755 116.455 211.743 115.595 211.718C106.902 211.464 98.3676 209.936 90.2087 207.172C90.0026 207.099 89.8814 206.869 89.9541 206.662C90.0268 206.456 90.2572 206.335 90.4633 206.408C98.5373 209.136 106.999 210.651 115.619 210.906C121.002 211.064 126.409 210.724 131.682 209.888C131.9 209.851 132.106 209.997 132.143 210.227C132.179 210.445 132.034 210.651 131.803 210.688C127.33 211.403 122.759 211.755 118.177 211.755Z" fill="black"/>
<path d="M121.22 216.799C120.323 216.799 119.413 216.786 118.516 216.762C107.108 216.423 96.0157 214.022 85.5534 209.597C85.3473 209.512 85.2503 209.269 85.3351 209.075C85.42 208.869 85.6625 208.772 85.8564 208.857C96.2218 213.234 107.218 215.635 118.528 215.962C124.99 216.156 131.476 215.659 137.78 214.483C137.998 214.446 138.204 214.592 138.253 214.81C138.289 215.028 138.144 215.235 137.926 215.283C132.458 216.289 126.845 216.799 121.22 216.799Z" fill="black"/>
<path d="M82.0377 210.166C81.9286 210.166 81.8194 210.118 81.7346 210.033L78.1219 206.044C78.0249 205.935 77.9885 205.79 78.037 205.644C78.0855 205.511 78.1946 205.402 78.3401 205.377L83.3955 204.419C83.5288 204.395 83.6743 204.444 83.7713 204.541C83.8683 204.65 83.9046 204.783 83.8561 204.929L82.4135 209.888C82.3771 210.033 82.2559 210.13 82.1225 210.166C82.0983 210.166 82.0619 210.166 82.0377 210.166ZM79.2008 206.044L81.8437 208.966L82.8984 205.329L79.2008 206.044Z" fill="black"/>
<path d="M55.2454 191.58C55.0514 191.58 54.8817 191.434 54.8453 191.24L54.518 189.191C54.4816 188.973 54.6271 188.767 54.8575 188.73C55.0757 188.694 55.2818 188.839 55.3181 189.07L55.6455 191.119C55.6818 191.337 55.5364 191.543 55.306 191.58C55.2818 191.58 55.2575 191.58 55.2454 191.58Z" fill="black"/>
<path d="M56.3728 198.745C56.1789 198.745 56.0091 198.6 55.9728 198.406L55.6454 196.357C55.6091 196.138 55.7546 195.932 55.9849 195.896C56.2031 195.86 56.4092 196.005 56.4456 196.235L56.7729 198.284C56.8093 198.503 56.6638 198.709 56.4335 198.745C56.4092 198.745 56.3971 198.745 56.3728 198.745Z" fill="black"/>
<path d="M58.1551 193.701C57.9612 193.701 57.7915 193.568 57.7551 193.362C57.7187 193.144 57.8642 192.938 58.0824 192.901L60.0949 192.55C60.3131 192.513 60.5192 192.659 60.5555 192.877C60.5919 193.095 60.4464 193.301 60.2282 193.338L58.2158 193.689C58.2036 193.701 58.1794 193.701 58.1551 193.701Z" fill="black"/>
<path d="M51.1114 194.926C50.9175 194.926 50.7477 194.793 50.7114 194.586C50.675 194.368 50.8205 194.162 51.0387 194.126L53.0512 193.774C53.2694 193.738 53.4755 193.883 53.5118 194.101C53.5482 194.32 53.4027 194.526 53.1845 194.562L51.1721 194.914C51.1599 194.914 51.1357 194.926 51.1114 194.926Z" fill="black"/>
<path d="M166.088 26.9528C165.967 26.9528 165.845 26.9407 165.724 26.9286C165.13 26.8316 164.609 26.5164 164.257 26.0192C163.906 25.5343 163.76 24.928 163.857 24.3339C164.051 23.1094 165.215 22.2728 166.452 22.4668C167.046 22.5638 167.567 22.879 167.919 23.3761C168.27 23.8611 168.416 24.4673 168.319 25.0614C168.137 26.1647 167.167 26.9528 166.088 26.9528ZM166.088 23.2549C165.385 23.2549 164.767 23.7641 164.657 24.4794C164.597 24.8674 164.682 25.2433 164.912 25.5585C165.142 25.8738 165.47 26.0799 165.858 26.1405C166.646 26.2617 167.397 25.7283 167.531 24.9402C167.591 24.5522 167.506 24.1763 167.276 23.8611C167.046 23.5458 166.718 23.3397 166.33 23.2791C166.233 23.2549 166.161 23.2549 166.088 23.2549Z" fill="black"/>
<path d="M181.957 32.2634C181.739 32.2634 181.557 32.0815 181.557 31.8633V29.79C181.557 29.5717 181.739 29.3899 181.957 29.3899C182.175 29.3899 182.357 29.5717 182.357 29.79V31.8633C182.357 32.0815 182.175 32.2634 181.957 32.2634Z" fill="black"/>
<path d="M181.957 37.1011C181.739 37.1011 181.557 36.9192 181.557 36.7009V34.6277C181.557 34.4094 181.739 34.2275 181.957 34.2275C182.175 34.2275 182.357 34.4094 182.357 34.6277V36.7009C182.357 36.9192 182.175 37.1011 181.957 37.1011Z" fill="black"/>
<path d="M180.575 33.6456H178.502C178.284 33.6456 178.102 33.4637 178.102 33.2454C178.102 33.0272 178.284 32.8453 178.502 32.8453H180.575C180.793 32.8453 180.975 33.0272 180.975 33.2454C180.975 33.4637 180.793 33.6456 180.575 33.6456Z" fill="black"/>
<path d="M185.412 33.6456H183.339C183.121 33.6456 182.939 33.4637 182.939 33.2454C182.939 33.0272 183.121 32.8453 183.339 32.8453H185.412C185.631 32.8453 185.812 33.0272 185.812 33.2454C185.812 33.4637 185.643 33.6456 185.412 33.6456Z" fill="black"/>
<path d="M163.166 113.231C162.996 113.231 162.839 113.122 162.79 112.964C162.718 112.758 162.827 112.528 163.033 112.455C163.53 112.285 164.027 112.103 164.536 111.909C164.742 111.824 164.973 111.934 165.057 112.14C165.142 112.346 165.033 112.576 164.827 112.661C164.318 112.855 163.809 113.037 163.312 113.219C163.251 113.231 163.215 113.231 163.166 113.231Z" fill="black"/>
<path d="M88.3054 122.664C88.1841 122.664 88.0508 122.603 87.978 122.494C87.8447 122.312 87.8932 122.058 88.075 121.936C88.9358 121.33 89.8571 120.748 90.8027 120.203C90.9967 120.093 91.2392 120.154 91.3483 120.348C91.4574 120.542 91.3968 120.785 91.2028 120.894C90.2814 121.415 89.3843 121.985 88.5357 122.591C88.463 122.64 88.3781 122.664 88.3054 122.664ZM93.8335 119.487C93.6759 119.487 93.5305 119.402 93.4698 119.257C93.3729 119.051 93.4698 118.82 93.6638 118.723C94.6215 118.287 95.6278 117.863 96.6461 117.487C96.8522 117.414 97.0826 117.523 97.1674 117.729C97.2402 117.935 97.131 118.166 96.9249 118.25C95.9308 118.614 94.9367 119.026 94.0033 119.463C93.9548 119.475 93.8941 119.487 93.8335 119.487ZM99.8224 117.281C99.6527 117.281 99.4829 117.171 99.4345 116.99C99.3738 116.771 99.4951 116.553 99.7133 116.492C100.72 116.201 101.774 115.935 102.841 115.704C103.059 115.656 103.278 115.789 103.314 116.007C103.362 116.226 103.229 116.444 103.011 116.48C101.968 116.711 100.938 116.965 99.9436 117.256C99.8951 117.268 99.8588 117.281 99.8224 117.281ZM144.339 116.335C144.121 116.335 143.939 116.153 143.939 115.935C143.939 115.716 144.108 115.535 144.339 115.522C145.43 115.51 146.497 115.474 147.515 115.413C147.733 115.401 147.927 115.571 147.939 115.789C147.951 116.007 147.782 116.201 147.564 116.214C146.521 116.286 145.442 116.323 144.339 116.335ZM141.138 116.335C140.108 116.323 139.065 116.286 137.926 116.25C137.707 116.238 137.526 116.056 137.538 115.838C137.55 115.619 137.72 115.438 137.95 115.45C139.077 115.498 140.12 115.522 141.138 115.535C141.356 115.535 141.538 115.716 141.538 115.947C141.538 116.153 141.356 116.335 141.138 116.335ZM134.761 116.092C134.749 116.092 134.749 116.092 134.737 116.092C133.67 116.032 132.616 115.971 131.549 115.898C131.331 115.886 131.161 115.692 131.173 115.474C131.185 115.256 131.367 115.086 131.597 115.098C132.664 115.171 133.719 115.231 134.786 115.292C135.004 115.304 135.174 115.498 135.162 115.716C135.149 115.923 134.968 116.092 134.761 116.092ZM150.716 115.983C150.509 115.983 150.34 115.826 150.316 115.619C150.291 115.401 150.449 115.207 150.679 115.183C151.576 115.086 152.473 114.977 153.334 114.856C153.492 114.831 153.662 114.807 153.819 114.783C154.037 114.746 154.243 114.892 154.28 115.122C154.316 115.341 154.159 115.547 153.94 115.583C153.771 115.607 153.613 115.632 153.443 115.656C152.57 115.789 151.661 115.898 150.752 115.995C150.74 115.983 150.728 115.983 150.716 115.983ZM106.066 115.91C105.872 115.91 105.702 115.765 105.666 115.571C105.629 115.353 105.787 115.147 106.005 115.11C107.048 114.953 108.115 114.807 109.194 114.71C109.412 114.686 109.606 114.843 109.63 115.074C109.654 115.292 109.497 115.486 109.266 115.51C108.2 115.619 107.145 115.753 106.114 115.91C106.102 115.91 106.09 115.91 106.066 115.91ZM128.385 115.692C128.373 115.692 128.373 115.692 128.36 115.692C127.294 115.619 126.239 115.559 125.172 115.498C124.954 115.486 124.784 115.292 124.796 115.074C124.808 114.856 125.002 114.686 125.22 114.698C126.287 114.759 127.354 114.831 128.409 114.892C128.627 114.904 128.797 115.098 128.785 115.316C128.773 115.522 128.591 115.692 128.385 115.692ZM122.008 115.328H121.996C120.856 115.28 119.814 115.244 118.807 115.219C118.589 115.219 118.407 115.025 118.419 114.807C118.419 114.589 118.613 114.419 118.832 114.419C119.838 114.443 120.893 114.48 122.032 114.528C122.25 114.54 122.42 114.722 122.42 114.953C122.396 115.159 122.214 115.328 122.008 115.328ZM112.418 115.268C112.2 115.268 112.03 115.098 112.018 114.88C112.006 114.662 112.176 114.468 112.394 114.456C113.025 114.419 113.679 114.407 114.334 114.395C114.758 114.383 115.182 114.383 115.607 114.383C115.825 114.383 116.007 114.565 116.007 114.783C116.007 115.001 115.825 115.183 115.607 115.183C115.182 115.183 114.758 115.195 114.346 115.195C113.703 115.207 113.061 115.231 112.431 115.256C112.431 115.268 112.431 115.268 112.418 115.268ZM157.02 114.977C156.838 114.977 156.668 114.843 156.632 114.662C156.583 114.443 156.717 114.225 156.935 114.177C157.953 113.946 158.996 113.692 160.014 113.401C160.232 113.34 160.451 113.461 160.511 113.68C160.572 113.898 160.451 114.116 160.232 114.177C159.202 114.468 158.147 114.734 157.117 114.965C157.08 114.977 157.056 114.977 157.02 114.977Z" fill="black"/>
<path d="M84.5957 125.719C84.4865 125.719 84.3896 125.683 84.3047 125.598C84.1471 125.44 84.1592 125.186 84.3168 125.028C84.7048 124.652 85.1048 124.288 85.517 123.925C85.6867 123.779 85.9413 123.791 86.0868 123.961C86.2323 124.131 86.2202 124.385 86.0504 124.531C85.6504 124.883 85.2624 125.234 84.8866 125.598C84.8017 125.683 84.7048 125.719 84.5957 125.719Z" fill="black"/>
<path d="M108.151 30.3841C108.066 30.3841 107.993 30.3598 107.921 30.3113C107.739 30.178 107.702 29.9355 107.824 29.7536C108.139 29.305 108.466 28.8685 108.793 28.4563C108.927 28.2744 109.181 28.2502 109.351 28.3835C109.533 28.5169 109.557 28.7715 109.424 28.9413C109.109 29.3535 108.793 29.79 108.478 30.2265C108.393 30.3356 108.272 30.3841 108.151 30.3841Z" fill="black"/>
<path d="M190.274 96.778C190.164 96.778 190.055 96.7295 189.97 96.6446C189.825 96.4748 189.837 96.2202 190.007 96.0747C190.868 95.323 191.68 94.5834 192.419 93.8802C192.577 93.7226 192.832 93.7347 192.989 93.8923C193.147 94.0499 193.135 94.3046 192.977 94.4622C192.237 95.1775 191.413 95.9171 190.54 96.681C190.455 96.7537 190.358 96.778 190.274 96.778ZM194.989 92.2434C194.892 92.2434 194.795 92.207 194.723 92.1343C194.553 91.9888 194.541 91.7342 194.698 91.5644C195.39 90.8006 196.056 89.9518 196.687 89.0304C196.808 88.8485 197.063 88.8 197.244 88.9213C197.426 89.0425 197.475 89.2971 197.353 89.479C196.711 90.4247 196.02 91.2977 195.305 92.0979C195.208 92.1949 195.099 92.2434 194.989 92.2434ZM198.699 86.8722C198.639 86.8722 198.566 86.8601 198.505 86.8237C198.311 86.7146 198.238 86.4721 198.348 86.2781C198.833 85.3809 199.293 84.4231 199.766 83.3682C199.851 83.1621 200.093 83.0772 200.299 83.1621C200.506 83.247 200.59 83.4895 200.506 83.6956C200.021 84.7747 199.548 85.7446 199.051 86.6661C198.978 86.7995 198.845 86.8722 198.699 86.8722ZM201.39 80.907C201.342 80.907 201.294 80.8948 201.245 80.8827C201.039 80.7978 200.942 80.5675 201.015 80.3614C201.184 79.937 201.342 79.5005 201.512 79.0761C201.73 78.4942 201.948 77.8879 202.142 77.306C202.215 77.0999 202.433 76.9786 202.651 77.0514C202.857 77.1241 202.979 77.3545 202.906 77.5606C202.712 78.1547 202.494 78.7609 202.263 79.3671C202.106 79.7915 201.936 80.228 201.766 80.6523C201.706 80.81 201.548 80.907 201.39 80.907ZM203.439 74.6992C203.403 74.6992 203.379 74.6992 203.342 74.6871C203.124 74.6264 203.003 74.4082 203.051 74.2021C203.318 73.1594 203.548 72.0924 203.742 71.0376C203.779 70.8194 203.985 70.6739 204.203 70.7102C204.421 70.7466 204.567 70.9527 204.53 71.171C204.336 72.25 204.106 73.3412 203.827 74.3961C203.779 74.5779 203.621 74.6992 203.439 74.6992ZM204.591 68.2611C204.579 68.2611 204.567 68.2611 204.543 68.2611C204.324 68.2368 204.167 68.0428 204.191 67.8246C204.3 66.7576 204.385 65.6664 204.421 64.5873C204.433 64.3691 204.627 64.1872 204.833 64.1994C205.052 64.2115 205.234 64.3934 205.221 64.6116C205.185 65.7028 205.1 66.8183 204.991 67.9095C204.967 68.1035 204.797 68.2611 204.591 68.2611ZM204.821 61.726C204.603 61.726 204.433 61.5562 204.421 61.338C204.385 60.271 204.312 59.1798 204.191 58.1007C204.167 57.8825 204.324 57.6764 204.555 57.6642C204.773 57.64 204.979 57.7976 204.991 58.028C205.1 59.1192 205.185 60.2225 205.221 61.3137C205.234 61.532 205.052 61.726 204.833 61.726C204.821 61.726 204.821 61.726 204.821 61.726ZM204.13 55.2272C203.936 55.2272 203.767 55.0938 203.73 54.8999C203.548 53.845 203.33 52.7781 203.076 51.7232C203.027 51.505 203.16 51.2867 203.367 51.2382C203.585 51.1897 203.803 51.3231 203.852 51.5292C204.106 52.5962 204.336 53.6874 204.518 54.7544C204.555 54.9726 204.409 55.1787 204.191 55.2151C204.179 55.2272 204.155 55.2272 204.13 55.2272ZM202.603 48.8618C202.433 48.8618 202.275 48.7527 202.215 48.583C201.9 47.5524 201.536 46.5218 201.16 45.5155C201.087 45.3094 201.184 45.079 201.39 44.9941C201.597 44.9214 201.827 45.0184 201.912 45.2245C202.3 46.2551 202.663 47.2978 202.991 48.3405C203.051 48.5466 202.942 48.777 202.724 48.8376C202.676 48.8618 202.639 48.8618 202.603 48.8618ZM200.275 42.7511C200.118 42.7511 199.972 42.6662 199.911 42.5086C199.475 41.5265 198.99 40.5444 198.493 39.5866C198.396 39.3926 198.469 39.1501 198.663 39.041C198.857 38.944 199.099 39.0167 199.208 39.2107C199.717 40.1807 200.202 41.187 200.651 42.1812C200.748 42.3873 200.651 42.6177 200.445 42.7147C200.396 42.739 200.336 42.7511 200.275 42.7511ZM197.244 36.9434C197.111 36.9434 196.978 36.8707 196.905 36.7494C196.347 35.828 195.765 34.9065 195.159 34.0093C195.038 33.8274 195.086 33.5728 195.268 33.4516C195.45 33.3303 195.705 33.3788 195.826 33.5607C196.444 34.47 197.038 35.4036 197.596 36.3372C197.705 36.5312 197.644 36.7737 197.463 36.8828C197.39 36.9313 197.317 36.9434 197.244 36.9434ZM193.583 31.5238C193.462 31.5238 193.341 31.4632 193.268 31.3662C192.613 30.5053 191.934 29.6566 191.231 28.8321C191.086 28.6624 191.11 28.4078 191.28 28.2623C191.449 28.1168 191.704 28.141 191.85 28.3108C192.565 29.1474 193.256 30.0082 193.923 30.8812C194.056 31.063 194.02 31.3055 193.85 31.4389C193.753 31.4995 193.668 31.5238 193.583 31.5238ZM111.17 26.5527C111.073 26.5527 110.988 26.5163 110.903 26.4557C110.733 26.3102 110.721 26.0556 110.867 25.8859C111.582 25.0614 112.333 24.2491 113.109 23.461C113.267 23.3033 113.522 23.3033 113.679 23.461C113.837 23.6186 113.837 23.8732 113.679 24.0308C112.928 24.7947 112.188 25.607 111.473 26.4193C111.4 26.5163 111.291 26.5527 111.17 26.5527ZM189.34 26.5406C189.231 26.5406 189.122 26.5042 189.049 26.4193C188.31 25.6434 187.534 24.8674 186.746 24.1278C186.588 23.9702 186.576 23.7156 186.734 23.558C186.891 23.4003 187.146 23.3882 187.303 23.5458C188.103 24.2976 188.891 25.0857 189.643 25.8737C189.801 26.0314 189.789 26.286 189.631 26.4436C189.534 26.5042 189.437 26.5406 189.34 26.5406ZM184.576 22.0545C184.479 22.0545 184.394 22.0181 184.321 21.9575C183.497 21.2543 182.636 20.5753 181.787 19.9327C181.605 19.7994 181.569 19.5447 181.715 19.375C181.848 19.1931 182.102 19.1568 182.272 19.3023C183.145 19.957 184.006 20.6481 184.842 21.3634C185.012 21.5089 185.036 21.7635 184.891 21.9333C184.806 22.006 184.685 22.0545 184.576 22.0545ZM115.764 21.8848C115.655 21.8848 115.546 21.8363 115.461 21.7514C115.316 21.5817 115.328 21.327 115.498 21.1816C116.31 20.4541 117.159 19.7387 118.019 19.0598C118.189 18.9264 118.444 18.9506 118.589 19.1204C118.722 19.2901 118.698 19.5447 118.528 19.6902C117.68 20.3571 116.843 21.0603 116.043 21.7878C115.946 21.8605 115.861 21.8848 115.764 21.8848ZM179.351 18.1141C179.278 18.1141 179.193 18.0898 179.132 18.0413C178.235 17.4351 177.314 16.8531 176.38 16.3075C176.186 16.1984 176.126 15.9438 176.235 15.7619C176.344 15.5679 176.599 15.5073 176.78 15.6164C177.714 16.1741 178.66 16.7682 179.569 17.3745C179.751 17.4957 179.799 17.7503 179.678 17.9322C179.605 18.0413 179.484 18.1141 179.351 18.1141ZM120.892 17.8352C120.759 17.8352 120.638 17.7746 120.565 17.6654C120.444 17.4836 120.48 17.229 120.662 17.1077C121.559 16.4894 122.493 15.8831 123.438 15.3133C123.632 15.2042 123.875 15.2648 123.996 15.4467C124.105 15.6406 124.045 15.8831 123.863 16.0044C122.941 16.5621 122.02 17.1562 121.135 17.7624C121.05 17.8109 120.977 17.8352 120.892 17.8352ZM173.725 14.7798C173.665 14.7798 173.604 14.7677 173.544 14.7313C172.586 14.2342 171.592 13.7613 170.622 13.3249C170.416 13.24 170.331 12.9975 170.416 12.7914C170.501 12.5853 170.743 12.5004 170.949 12.5853C171.943 13.0339 172.949 13.5067 173.919 14.016C174.113 14.113 174.198 14.3554 174.089 14.5616C174.004 14.6949 173.871 14.7798 173.725 14.7798ZM126.506 14.4646C126.36 14.4646 126.215 14.3797 126.154 14.2463C126.057 14.0523 126.13 13.8098 126.324 13.7007C127.294 13.1915 128.3 12.7186 129.306 12.2822C129.512 12.1973 129.742 12.2822 129.839 12.4883C129.924 12.6944 129.839 12.9248 129.633 13.0218C128.651 13.4582 127.657 13.919 126.699 14.4161C126.627 14.4524 126.566 14.4646 126.506 14.4646ZM167.749 12.1245C167.7 12.1245 167.652 12.1124 167.603 12.1003C166.585 11.7244 165.554 11.3728 164.524 11.0576C164.306 10.997 164.197 10.7666 164.257 10.5605C164.318 10.3422 164.548 10.2331 164.754 10.2937C165.797 10.609 166.852 10.9727 167.87 11.3607C168.076 11.4334 168.185 11.6759 168.1 11.882C168.064 12.0154 167.906 12.1245 167.749 12.1245ZM132.494 11.8457C132.325 11.8457 132.179 11.7487 132.119 11.5789C132.046 11.3728 132.155 11.1425 132.361 11.0697C133.391 10.6938 134.446 10.3544 135.501 10.0512C135.719 9.99062 135.937 10.1119 135.998 10.3301C136.059 10.5483 135.937 10.7666 135.719 10.8272C134.689 11.1303 133.646 11.4698 132.628 11.8335C132.579 11.8335 132.543 11.8457 132.494 11.8457ZM161.493 10.2089C161.457 10.2089 161.432 10.2089 161.396 10.1967C160.341 9.94212 159.275 9.72388 158.22 9.54201C158.002 9.50564 157.856 9.29952 157.892 9.08128C157.929 8.86304 158.147 8.71755 158.353 8.75392C159.432 8.93579 160.523 9.16615 161.59 9.42077C161.808 9.46927 161.942 9.68751 161.893 9.90575C161.833 10.0755 161.675 10.2089 161.493 10.2089ZM138.774 10.0149C138.592 10.0149 138.423 9.8815 138.386 9.69963C138.338 9.48139 138.471 9.26315 138.689 9.21465C139.756 8.98429 140.847 8.77817 141.926 8.60843C142.144 8.57205 142.351 8.72967 142.387 8.94791C142.423 9.16615 142.266 9.37227 142.047 9.40864C140.981 9.57839 139.914 9.77238 138.859 10.0027C138.835 10.0149 138.798 10.0149 138.774 10.0149ZM155.044 9.09341C155.031 9.09341 155.019 9.09341 154.995 9.09341C154.546 9.04491 154.098 9.00854 153.637 8.97216C153.019 8.92366 152.376 8.88729 151.758 8.86304C151.54 8.85092 151.358 8.66905 151.37 8.45081C151.382 8.23257 151.564 8.0507 151.782 8.06282C152.413 8.08707 153.067 8.12345 153.698 8.17194C154.159 8.20832 154.619 8.24469 155.08 8.29319C155.298 8.31744 155.456 8.51143 155.444 8.72967C155.419 8.94791 155.237 9.09341 155.044 9.09341ZM145.236 9.02066C145.03 9.02066 144.86 8.86304 144.836 8.65692C144.812 8.43868 144.981 8.24469 145.199 8.22044C146.291 8.12345 147.394 8.06282 148.497 8.03857H148.509C148.727 8.03857 148.909 8.20832 148.909 8.42656C148.909 8.6448 148.739 8.83879 148.521 8.83879C147.442 8.86304 146.351 8.92366 145.284 9.02066C145.26 9.02066 145.248 9.02066 145.236 9.02066Z" fill="black"/>
<path d="M186.503 99.9061C186.382 99.9061 186.261 99.8576 186.188 99.7485C186.055 99.5787 186.091 99.3241 186.261 99.1907C186.261 99.1907 186.746 98.8149 187.509 98.1965C187.679 98.051 187.934 98.0874 188.079 98.2571C188.225 98.4269 188.188 98.6815 188.018 98.827C187.255 99.4453 186.758 99.8333 186.758 99.8333C186.673 99.8697 186.588 99.9061 186.503 99.9061Z" fill="black"/>
</g>
<defs>
<linearGradient id="paint0_linear_2546_3517" x1="184.774" y1="120.599" x2="184.776" y2="154.265" gradientUnits="userSpaceOnUse">
<stop stop-color="#00937D"/>
<stop offset="0.9939" stop-color="#81CEC3"/>
</linearGradient>
<clipPath id="clip0_2546_3517">
<rect width="222" height="222" fill="white"/>
</clipPath>
</defs>
</svg>
