<svg width="24" height="19" viewBox="0 0 24 19" fill="none" xmlns="http://www.w3.org/2000/svg">
<path d="M20.525 4.65469H3.47242C3.11847 4.65469 2.84872 4.95927 2.84872 5.31239V8.35854C2.84872 13.75 6.94394 18.1547 11.9987 18.1547C17.0535 18.1547 21.1487 13.75 21.1487 8.35854V5.31239C21.1487 4.95927 20.879 4.65469 20.525 4.65469ZM19.9014 8.35854C19.9014 13.0447 16.3466 16.8393 11.9988 16.8393C7.65094 16.8393 4.09611 13.0447 4.09611 8.35854V5.9701H19.9014V8.35854Z" fill="white" stroke="white" stroke-width="0.3"/>
<path d="M22.5217 0.721094H1.47828C1.13143 0.721094 0.85 1.00253 0.85 1.34937V4.21893C0.85 5.09283 1.56088 5.80371 2.43478 5.80371H21.5652C22.4391 5.80371 23.15 5.09283 23.15 4.21893V1.34937C23.15 1.00253 22.8686 0.721094 22.5217 0.721094ZM21.8934 4.21893C21.8934 4.3999 21.7456 4.54721 21.5652 4.54721H2.43478C2.25437 4.54721 2.10651 4.3999 2.10651 4.21893V1.9776H21.8934V4.21893Z" fill="white" stroke="white" stroke-width="0.3"/>
<path d="M12.2242 9.67331C12.9681 9.67331 13.5711 10.2764 13.5711 11.0202C13.5711 11.7641 12.9681 12.3672 12.2242 12.3672C11.4803 12.3672 10.8773 11.7641 10.8773 11.0202C10.8773 10.2764 11.4803 9.67331 12.2242 9.67331Z" fill="white"/>
<circle cx="12.2239" cy="11.022" r="3.44388" stroke="white" stroke-width="1.5"/>
</svg>
