<svg width="30" height="25" viewBox="0 0 30 25" fill="none" xmlns="http://www.w3.org/2000/svg">
<path d="M25.85 5.50625H4.14671C3.72146 5.50625 3.39382 5.87287 3.39382 6.30242V10.1793C3.39382 17.0213 8.59024 22.6062 14.9984 22.6062C21.4065 22.6062 26.6029 17.0213 26.6029 10.1793V6.30242C26.6029 5.87287 26.2753 5.50625 25.85 5.50625ZM25.0972 10.1793C25.0972 16.1635 20.5572 21.0139 14.9984 21.0139C9.43961 21.0139 4.8996 16.1635 4.8996 10.1793V7.0986H25.0972V10.1793Z" fill="#9A9A9A" stroke="#9A9A9A" stroke-width="0.3"/>
<path d="M28.3913 0.502344H1.60871C1.18987 0.502344 0.85 0.842215 0.85 1.26106V4.91323C0.85 6.00287 1.73644 6.88932 2.82609 6.88932H27.1739C28.2636 6.88932 29.15 6.00287 29.15 4.91323V1.26106C29.15 0.842215 28.8101 0.502344 28.3913 0.502344ZM27.6326 4.91323C27.6326 5.16619 27.426 5.37194 27.1739 5.37194H2.82609C2.57393 5.37194 2.36737 5.16619 2.36737 4.91323V2.01972H27.6326V4.91323Z" fill="#9A9A9A" stroke="#9A9A9A" stroke-width="0.3"/>
<path d="M15.2853 11.8566C16.2321 11.8566 16.9996 12.6241 16.9996 13.5709C16.9996 14.5176 16.2321 15.2852 15.2853 15.2852C14.3386 15.2852 13.571 14.5176 13.571 13.5709C13.571 12.6241 14.3386 11.8566 15.2853 11.8566Z" fill="#9A9A9A"/>
<circle cx="15.2849" cy="13.5731" r="4.17857" stroke="#9A9A9A" stroke-width="1.5"/>
<circle cx="24.2322" cy="19.3065" r="5.38462" fill="white"/>
<path d="M21.3208 19.3203H27.1949" stroke="#9A9A9A" stroke-width="1.5" stroke-linecap="round" stroke-linejoin="round"/>
<path d="M24.2581 22.2569V16.3828" stroke="#9A9A9A" stroke-width="1.5" stroke-linecap="round" stroke-linejoin="round"/>
</svg>
