<svg width="22" height="22" viewBox="0 0 22 22" fill="none" xmlns="http://www.w3.org/2000/svg">
<path d="M16.5 5.50065C15.9408 5.50065 15.4275 5.17982 15.1708 4.68482L14.5108 3.35565C14.0892 2.52148 12.9892 1.83398 12.0542 1.83398H9.95499C9.01082 1.83398 7.91082 2.52148 7.48916 3.35565L6.82916 4.68482C6.57249 5.17982 6.05916 5.50065 5.49999 5.50065C3.51082 5.50065 1.93416 7.17815 2.06249 9.15815L2.53916 16.7298C2.64916 18.6182 3.66666 20.1673 6.19666 20.1673H15.8033C18.3333 20.1673 19.3417 18.6182 19.4608 16.7298L19.9375 9.15815C20.0658 7.17815 18.4892 5.50065 16.5 5.50065ZM9.62499 6.64648H12.375C12.7508 6.64648 13.0625 6.95815 13.0625 7.33398C13.0625 7.70982 12.7508 8.02148 12.375 8.02148H9.62499C9.24916 8.02148 8.93749 7.70982 8.93749 7.33398C8.93749 6.95815 9.24916 6.64648 9.62499 6.64648ZM11 16.6107C9.29499 16.6107 7.90166 15.2265 7.90166 13.5123C7.90166 11.7982 9.28582 10.414 11 10.414C12.7142 10.414 14.0983 11.7982 14.0983 13.5123C14.0983 15.2265 12.705 16.6107 11 16.6107Z" fill="white"/>
</svg>
