<svg width="28" height="22" viewBox="0 0 28 22" fill="none" xmlns="http://www.w3.org/2000/svg">
<path d="M24.3125 4.4375H20.8555C20.6797 4.4375 20.4617 4.32383 20.2918 4.14453L18.7719 1.7457C18.7478 1.70763 18.721 1.6714 18.6916 1.6373C18.1666 1.025 17.457 0.6875 16.6953 0.6875H11.3047C10.543 0.6875 9.8334 1.025 9.3084 1.6373C9.27899 1.6714 9.25216 1.70763 9.22812 1.7457L7.7082 4.14805C7.57812 4.28984 7.39531 4.44102 7.20312 4.44102V3.97227C7.20312 3.72362 7.10435 3.48517 6.92854 3.30935C6.75272 3.13354 6.51427 3.03477 6.26562 3.03477H4.85938C4.61073 3.03477 4.37228 3.13354 4.19646 3.30935C4.02065 3.48517 3.92188 3.72362 3.92188 3.97227V4.44102H3.6875C2.94182 4.44179 2.2269 4.73836 1.69962 5.26563C1.17234 5.79291 0.875776 6.50783 0.875 7.25352V18.5C0.875776 19.2457 1.17234 19.9606 1.69962 20.4879C2.2269 21.0152 2.94182 21.3117 3.6875 21.3125H24.3125C25.0582 21.3117 25.7731 21.0152 26.3004 20.4879C26.8277 19.9606 27.1242 19.2457 27.125 18.5V7.25C27.1242 6.50432 26.8277 5.7894 26.3004 5.26212C25.7731 4.73484 25.0582 4.43828 24.3125 4.4375ZM17.5648 16.291C16.7988 16.9174 15.8812 17.3307 14.9045 17.4894C13.9279 17.6481 12.9266 17.5465 12.0017 17.1949C11.0768 16.8432 10.2609 16.254 9.63634 15.4865C9.01176 14.7191 8.60054 13.8005 8.44414 12.8234C8.24398 12.8914 8.02674 12.8896 7.82767 12.8186C7.6286 12.7475 7.4594 12.6112 7.34751 12.4319C7.23563 12.2526 7.18762 12.0407 7.2113 11.8307C7.23497 11.6206 7.32893 11.4247 7.47793 11.2748L8.64981 10.1029C8.8256 9.92725 9.06397 9.82856 9.3125 9.82856C9.56103 9.82856 9.7994 9.92725 9.97519 10.1029L11.1471 11.2748C11.2781 11.4059 11.3673 11.5729 11.4035 11.7547C11.4396 11.9365 11.421 12.125 11.3501 12.2962C11.2792 12.4675 11.1591 12.6138 11.005 12.7169C10.8509 12.8199 10.6697 12.8749 10.4844 12.875C10.4452 12.8745 10.4061 12.8718 10.3672 12.8668C10.5241 13.4778 10.8324 14.0394 11.2636 14.4998C11.6949 14.9602 12.2352 15.3045 12.8347 15.5008C13.4342 15.6972 14.0735 15.7394 14.6935 15.6234C15.3136 15.5074 15.8944 15.2371 16.3824 14.8373C16.4778 14.7589 16.5877 14.7001 16.7059 14.6643C16.824 14.6285 16.9481 14.6164 17.071 14.6287C17.1938 14.641 17.313 14.6774 17.4217 14.7359C17.5305 14.7944 17.6266 14.8737 17.7046 14.9695C17.7825 15.0652 17.8408 15.1754 17.8761 15.2937C17.9114 15.412 17.923 15.5361 17.9101 15.6589C17.8973 15.7817 17.8604 15.9007 17.8014 16.0092C17.7425 16.1177 17.6627 16.2135 17.5666 16.291H17.5648ZM20.5221 12.5996L19.3502 13.7715C19.1744 13.9472 18.936 14.0459 18.6875 14.0459C18.439 14.0459 18.2006 13.9472 18.0248 13.7715L16.8529 12.5996C16.7159 12.4622 16.6249 12.2855 16.5925 12.0942C16.5601 11.9028 16.5879 11.706 16.6721 11.5311C16.7562 11.3562 16.8926 11.2118 17.0624 11.1177C17.2322 11.0236 17.427 10.9845 17.6199 11.0059C17.4633 10.3938 17.1546 9.83123 16.7224 9.37038C16.2902 8.90953 15.7486 8.56534 15.1478 8.36976C14.5471 8.17419 13.9067 8.13356 13.286 8.25167C12.6654 8.36977 12.0846 8.64276 11.5977 9.04531C11.5035 9.12862 11.3935 9.19214 11.2743 9.23209C11.1551 9.27205 11.0291 9.28761 10.9038 9.27787C10.7784 9.26813 10.6563 9.23327 10.5447 9.17538C10.4331 9.11749 10.3343 9.03774 10.2542 8.94088C10.174 8.84402 10.1142 8.73203 10.0782 8.61157C10.0422 8.49111 10.0308 8.36464 10.0447 8.23969C10.0585 8.11473 10.0974 7.99385 10.159 7.88422C10.2205 7.7746 10.3035 7.67847 10.4029 7.60156C11.1678 6.96911 12.0863 6.55028 13.0654 6.38759C14.0444 6.22489 15.049 6.32412 15.9773 6.6752C16.9056 7.02629 17.7245 7.61672 18.3508 8.38658C18.9772 9.15643 19.3887 10.0783 19.5436 11.0586C19.7438 10.9872 19.9624 10.986 20.1634 11.0552C20.3644 11.1244 20.536 11.2599 20.6499 11.4394C20.7638 11.6189 20.8133 11.8318 20.7903 12.0431C20.7673 12.2545 20.6731 12.4517 20.5232 12.6025L20.5221 12.5996Z" fill="white"/>
</svg>
