<svg width="16" height="16" viewBox="0 0 16 16" fill="none" xmlns="http://www.w3.org/2000/svg">
<path d="M14.5 5.33339C14.5 5.60672 14.2733 5.83339 14 5.83339H2C1.72667 5.83339 1.5 5.60672 1.5 5.33339C1.5 5.06005 1.72667 4.83339 2 4.83339H2.68L2.93333 3.62672C3.17333 2.46005 3.67333 1.38672 5.66 1.38672H10.34C12.3267 1.38672 12.8267 2.46005 13.0667 3.62672L13.32 4.83339H14C14.2733 4.83339 14.5 5.06005 14.5 5.33339Z" fill="white"/>
<path d="M14.7866 9.10732C14.6866 8.00732 14.3933 6.83398 12.2533 6.83398H3.74664C1.60664 6.83398 1.31998 8.00732 1.21331 9.10732L0.839976 13.1673C0.793309 13.674 0.959976 14.1807 1.30664 14.5607C1.65998 14.9473 2.15998 15.1673 2.69331 15.1673H3.94664C5.02664 15.1673 5.23331 14.5473 5.36664 14.1406L5.49998 13.7407C5.65331 13.2807 5.69331 13.1673 6.29331 13.1673H9.70664C10.3066 13.1673 10.3266 13.234 10.5 13.7407L10.6333 14.1406C10.7666 14.5473 10.9733 15.1673 12.0533 15.1673H13.3066C13.8333 15.1673 14.34 14.9473 14.6933 14.5607C15.04 14.1807 15.2066 13.674 15.16 13.1673L14.7866 9.10732ZM5.99998 10.5007H3.99998C3.72664 10.5007 3.49998 10.274 3.49998 10.0007C3.49998 9.72732 3.72664 9.50065 3.99998 9.50065H5.99998C6.27331 9.50065 6.49998 9.72732 6.49998 10.0007C6.49998 10.274 6.27331 10.5007 5.99998 10.5007ZM12 10.5007H9.99998C9.72664 10.5007 9.49998 10.274 9.49998 10.0007C9.49998 9.72732 9.72664 9.50065 9.99998 9.50065H12C12.2733 9.50065 12.5 9.72732 12.5 10.0007C12.5 10.274 12.2733 10.5007 12 10.5007Z" fill="white"/>
</svg>
