<svg width="26" height="26" viewBox="0 0 26 26" fill="none" xmlns="http://www.w3.org/2000/svg">
<path d="M23.7562 4H2.24398C1.88031 4 1.58545 4.29486 1.58545 4.65853V8.39022H24.4147V4.65853C24.4147 4.29486 24.1199 4 23.7562 4ZM18.2684 7.51218H17.3903C17.0266 7.51218 16.7318 7.21732 16.7318 6.85366C16.7318 6.49 17.0267 6.19513 17.3903 6.19513H18.2684C18.6321 6.19513 18.9269 6.49 18.9269 6.85366C18.9269 7.21732 18.632 7.51218 18.2684 7.51218ZM20.9025 7.51218H20.0245C19.6608 7.51218 19.366 7.21732 19.366 6.85366C19.366 6.49 19.6608 6.19513 20.0245 6.19513H20.9025C21.2662 6.19513 21.5611 6.49 21.5611 6.85366C21.5611 7.21732 21.2662 7.51218 20.9025 7.51218Z" fill="white"/>
<path d="M13.0001 12.3438C11.4266 12.3438 10.1465 13.6239 10.1465 15.1974C10.1465 16.7709 11.4266 18.0511 13.0001 18.0511C14.5737 18.0511 15.8538 16.7709 15.8538 15.1974C15.8538 13.6239 14.5737 12.3438 13.0001 12.3438ZM13.0001 16.5584C12.2497 16.5584 11.6392 15.9478 11.6392 15.1974C11.6392 14.447 12.2497 13.8364 13.0001 13.8364C13.7506 13.8364 14.3611 14.447 14.3611 15.1974C14.3611 15.9478 13.7506 16.5584 13.0001 16.5584Z" fill="white"/>
<path d="M3.56104 9.70703V12.5607C3.56104 15.0819 4.54287 17.4523 6.32565 19.2351C8.10843 21.0179 10.4788 21.9997 13 21.9997C15.5213 21.9997 17.8917 21.0179 19.6744 19.2351C21.4572 17.4523 22.4391 15.0819 22.4391 12.5607V9.70703H3.56104ZM13 19.3656C10.7003 19.3656 8.82933 17.4946 8.82933 15.1948C8.82933 12.8951 10.7003 11.0241 13 11.0241C15.2998 11.0241 17.1708 12.8951 17.1708 15.1948C17.1708 17.4946 15.2998 19.3656 13 19.3656Z" fill="white"/>
</svg>
