<svg width="22" height="22" viewBox="0 0 22 22" fill="none" xmlns="http://www.w3.org/2000/svg">
    <path
        d="M10.9996 2.53857C6.33732 2.53857 2.53809 6.3378 2.53809 11.0001C2.53809 15.6624 6.33732 19.4617 10.9996 19.4617C15.6619 19.4617 19.4612 15.6624 19.4612 11.0001C19.4612 6.3378 15.6619 2.53857 10.9996 2.53857ZM14.6804 14.0209C14.5619 14.224 14.3504 14.334 14.1304 14.334C14.0204 14.334 13.9104 14.3086 13.8089 14.2409L11.1858 12.6755C10.5342 12.2863 10.0519 11.4317 10.0519 10.6786V7.20934C10.0519 6.86242 10.3396 6.57473 10.6865 6.57473C11.0335 6.57473 11.3212 6.86242 11.3212 7.20934V10.6786C11.3212 10.9832 11.575 11.4317 11.8373 11.584L14.4604 13.1493C14.765 13.327 14.8665 13.7163 14.6804 14.0209Z"
        fill="#797979" />
</svg>