<svg width="343" height="293" viewBox="0 0 343 293" fill="none" xmlns="http://www.w3.org/2000/svg">
<path d="M0 187H313" stroke="#F3F4F4" stroke-width="0.8"/>
<path d="M0 142H313" stroke="#F3F4F4" stroke-width="0.8"/>
<path d="M0 97H313" stroke="#F3F4F4" stroke-width="0.8"/>
<path d="M0 52H313" stroke="#F3F4F4" stroke-width="0.8"/>
<path d="M0 7H313" stroke="#F3F4F4" stroke-width="0.8"/>
<path d="M20 159H30V226C30 228.761 27.7614 231 25 231V231C22.2386 231 20 228.761 20 226V159Z" fill="#D1D1D1"/>
<path d="M20 95H30V159H20V95Z" fill="#DEDEDE"/>
<path d="M20 64H30V95H20V64Z" fill="#ECECEC"/>
<path d="M20 26C20 23.2386 22.2386 21 25 21V21C27.7614 21 30 23.2386 30 26V64H20V26Z" fill="#F5F5F5"/>
<path d="M17.1414 251V242.6H18.3414L21.5214 246.68L24.7014 242.6H25.9014V251H24.5814V244.82L21.5214 248.72L18.4614 244.82V251H17.1414ZM27.5777 248.12C27.5777 246.44 28.8977 245.12 30.5777 245.12C32.2577 245.12 33.5777 246.44 33.5777 248.12C33.5777 249.8 32.2577 251.12 30.5777 251.12C28.8977 251.12 27.5777 249.8 27.5777 248.12ZM30.5777 249.98C31.5977 249.98 32.3777 249.212 32.3777 248.12C32.3777 247.028 31.5977 246.26 30.5777 246.26C29.5577 246.26 28.7777 247.028 28.7777 248.12C28.7777 249.212 29.5577 249.98 30.5777 249.98Z" fill="#9A9A9A"/>
<path d="M23.6184 264.8C23.6184 262.7 22.5984 261.68 21.4584 261.68C20.3184 261.68 19.2984 262.7 19.2984 264.8C19.2984 266.9 20.3184 267.92 21.4584 267.92C22.5984 267.92 23.6184 266.9 23.6184 264.8ZM21.4584 269.12C19.5384 269.12 17.9784 267.548 17.9784 264.8C17.9784 262.052 19.5384 260.48 21.4584 260.48C23.3784 260.48 24.9384 262.052 24.9384 264.8C24.9384 267.548 23.3784 269.12 21.4584 269.12ZM26.7435 264.44L29.2035 260.6H30.6435L28.7235 263.54L28.8555 263.516C28.9395 263.504 29.0835 263.48 29.2635 263.48C30.8835 263.48 32.1435 264.74 32.1435 266.3C32.1435 267.86 30.8835 269.12 29.1435 269.12C27.4035 269.12 26.1435 267.86 26.1435 266.3C26.1435 265.82 26.2875 265.364 26.4435 265.016C26.5275 264.812 26.6355 264.62 26.7435 264.44ZM27.4635 266.3C27.4635 267.2 28.1835 267.92 29.1435 267.92C30.1035 267.92 30.8235 267.2 30.8235 266.3C30.8235 265.4 30.1035 264.68 29.1435 264.68C28.1835 264.68 27.4635 265.4 27.4635 266.3Z" fill="#9A9A9A"/>
<rect opacity="0.1" x="180" y="7" width="42" height="280" rx="21" fill="#00937D"/>
<circle cx="201" cy="286" r="5.5" fill="#00937D" stroke="white" stroke-width="3"/>
<path d="M196 183H206V226C206 228.761 203.761 231 201 231V231C198.239 231 196 228.761 196 226V183Z" fill="#0AB097"/>
<path d="M196 152H206V183H196V152Z" fill="#FFCD4E"/>
<path d="M196 121H206V152H196V121Z" fill="#6DA9E4"/>
<path d="M196 57C196 54.2386 198.239 52 201 52V52C203.761 52 206 54.2386 206 57V121H196V57Z" fill="#F19898"/>
<path d="M196.528 251V242.6H202.408V243.86H197.848V246.26H201.448V247.52H197.848V251H196.528ZM203.188 251V245.24H204.388V246.02C204.52 245.864 204.664 245.708 204.832 245.576C205.12 245.348 205.552 245.12 206.128 245.12H206.428V246.38L206.272 246.356C206.176 246.344 206.08 246.32 205.948 246.32C205.12 246.32 204.388 247.04 204.388 248.06V251H203.188Z" fill="#404040"/>
<path d="M196.557 269V262.58H195.057V261.74C196.137 261.608 196.569 261.2 196.857 260.6H197.877V269H196.557ZM205.378 264.8C205.378 262.7 204.358 261.68 203.218 261.68C202.078 261.68 201.058 262.7 201.058 264.8C201.058 266.9 202.078 267.92 203.218 267.92C204.358 267.92 205.378 266.9 205.378 264.8ZM203.218 269.12C201.298 269.12 199.738 267.548 199.738 264.8C199.738 262.052 201.298 260.48 203.218 260.48C205.138 260.48 206.698 262.052 206.698 264.8C206.698 267.548 205.138 269.12 203.218 269.12Z" fill="#404040"/>
<path d="M65.2151 251V243.86H62.6951V242.6H69.0551V243.86H66.5351V251H65.2151ZM69.424 248.6V245.24H70.624V248.6C70.624 249.452 71.164 249.98 71.944 249.98C72.844 249.98 73.504 249.32 73.504 248.36V245.24H74.704V251H73.504V250.16C73.372 250.34 73.228 250.496 73.048 250.64C72.748 250.88 72.316 251.12 71.704 251.12C70.384 251.12 69.424 250.172 69.424 248.6Z" fill="#9A9A9A"/>
<path d="M68.2219 264.8C68.2219 262.7 67.2019 261.68 66.0619 261.68C64.9219 261.68 63.9019 262.7 63.9019 264.8C63.9019 266.9 64.9219 267.92 66.0619 267.92C67.2019 267.92 68.2219 266.9 68.2219 264.8ZM66.0619 269.12C64.1419 269.12 62.5819 267.548 62.5819 264.8C62.5819 262.052 64.1419 260.48 66.0619 260.48C67.9819 260.48 69.5419 262.052 69.5419 264.8C69.5419 267.548 67.9819 269.12 66.0619 269.12ZM70.8038 269L74.2838 261.86H70.2038V260.6H75.7238V261.8L72.2438 269H70.8038Z" fill="#9A9A9A"/>
<path d="M64 69C64 66.2386 66.2386 64 69 64V64C71.7614 64 74 66.2386 74 69V121H64V69Z" fill="#F5F5F5"/>
<path d="M64 86H74V117H64V86Z" fill="#ECECEC"/>
<path d="M64 111H74V135H64V111Z" fill="#DEDEDE"/>
<path d="M64 135H74V226C74 228.761 71.7614 231 69 231V231C66.2386 231 64 228.761 64 226V135Z" fill="#D1D1D1"/>
<path d="M108 45C108 42.2386 110.239 40 113 40V40C115.761 40 118 42.2386 118 45V132H108V45Z" fill="#F5F5F5"/>
<path d="M103.01 251L100.25 242.6H101.63L103.67 248.9L105.65 242.6H106.97L108.95 248.9L110.99 242.6H112.37L109.61 251H108.29L106.31 244.7L104.33 251H103.01ZM117.23 249.2L117.95 250.04C117.794 250.244 117.59 250.424 117.35 250.58C116.93 250.856 116.342 251.12 115.49 251.12C113.81 251.12 112.49 249.8 112.49 248.12C112.49 246.44 113.81 245.12 115.43 245.12C117.062 245.12 118.25 246.308 118.25 247.94C118.25 248.12 118.226 248.264 118.214 248.372L118.19 248.54H113.75C113.882 249.32 114.578 249.98 115.55 249.98C116.066 249.98 116.486 249.788 116.774 249.596C116.942 249.488 117.098 249.356 117.23 249.2ZM113.75 247.52H116.99C116.81 246.74 116.282 246.2 115.43 246.2C114.518 246.2 113.99 246.74 113.75 247.52ZM123.885 251V250.16C123.765 250.34 123.609 250.496 123.417 250.64C123.093 250.88 122.589 251.12 121.905 251.12C120.465 251.12 119.205 249.86 119.205 248.12C119.205 246.38 120.465 245.12 121.905 245.12C122.589 245.12 123.093 245.36 123.417 245.6C123.609 245.744 123.765 245.9 123.885 246.08V242.6H125.085V251H123.885ZM122.145 249.98C123.105 249.98 123.885 249.212 123.885 248.12C123.885 247.028 123.105 246.26 122.145 246.26C121.185 246.26 120.405 247.028 120.405 248.12C120.405 249.212 121.185 249.98 122.145 249.98Z" fill="#9A9A9A"/>
<path d="M111.56 264.8C111.56 262.7 110.54 261.68 109.4 261.68C108.26 261.68 107.24 262.7 107.24 264.8C107.24 266.9 108.26 267.92 109.4 267.92C110.54 267.92 111.56 266.9 111.56 264.8ZM109.4 269.12C107.48 269.12 105.92 267.548 105.92 264.8C105.92 262.052 107.48 260.48 109.4 260.48C111.32 260.48 112.88 262.052 112.88 264.8C112.88 267.548 111.32 269.12 109.4 269.12ZM115.465 266.54C115.465 267.32 116.053 267.92 117.145 267.92C118.237 267.92 118.825 267.32 118.825 266.54C118.825 265.76 118.237 265.16 117.145 265.16C116.053 265.16 115.465 265.76 115.465 266.54ZM115.825 262.82C115.825 263.492 116.293 263.96 117.145 263.96C117.997 263.96 118.465 263.492 118.465 262.82C118.465 262.148 117.997 261.68 117.145 261.68C116.293 261.68 115.825 262.148 115.825 262.82ZM114.145 266.6C114.145 265.82 114.493 265.304 114.865 264.968C115.069 264.776 115.309 264.62 115.585 264.5C115.381 264.392 115.201 264.26 115.045 264.092C114.769 263.804 114.505 263.372 114.505 262.7C114.505 261.5 115.525 260.48 117.145 260.48C118.765 260.48 119.785 261.5 119.785 262.7C119.785 263.372 119.521 263.804 119.245 264.092C119.089 264.26 118.909 264.392 118.705 264.5C118.981 264.62 119.221 264.776 119.425 264.968C119.797 265.304 120.145 265.82 120.145 266.6C120.145 267.992 119.005 269.12 117.145 269.12C115.285 269.12 114.145 267.992 114.145 266.6Z" fill="#9A9A9A"/>
<path d="M108 80H118V132H108V80Z" fill="#DEDEDE"/>
<path d="M108 63H118V80H108V63Z" fill="#ECECEC"/>
<path d="M108 132H118V226C118 228.761 115.761 231 113 231V231C110.239 231 108 228.761 108 226V132Z" fill="#D1D1D1"/>
<path d="M240 111C240 108.239 242.239 106 245 106V106C247.761 106 250 108.239 250 111V135H240V111Z" fill="#F5F5F5"/>
<path d="M238.821 249.86L239.721 248.96C239.853 249.14 240.021 249.296 240.225 249.44C240.573 249.68 241.101 249.92 241.821 249.92C242.913 249.92 243.501 249.332 243.501 248.66C243.501 246.8 239.061 247.94 239.061 244.82C239.061 243.56 240.153 242.48 241.941 242.48C242.805 242.48 243.465 242.744 243.909 243.02C244.173 243.176 244.401 243.356 244.581 243.56L243.681 244.46C243.549 244.316 243.405 244.184 243.237 244.076C242.949 243.884 242.505 243.68 241.941 243.68C240.921 243.68 240.381 244.208 240.381 244.82C240.381 246.68 244.821 245.54 244.821 248.66C244.821 249.98 243.681 251.12 241.821 251.12C240.801 251.12 240.045 250.82 239.553 250.496C239.265 250.316 239.025 250.1 238.821 249.86ZM249.505 251V250.16C249.385 250.34 249.229 250.496 249.049 250.64C248.725 250.88 248.269 251.12 247.645 251.12C246.493 251.12 245.725 250.34 245.725 249.44C245.725 248.48 246.385 247.82 247.405 247.64L249.505 247.28C249.505 246.668 249.025 246.2 248.305 246.2C247.837 246.2 247.489 246.404 247.213 246.596C247.057 246.704 246.925 246.836 246.805 246.98L246.025 246.2C246.181 245.996 246.373 245.816 246.601 245.66C246.985 245.384 247.537 245.12 248.305 245.12C249.745 245.12 250.705 246.08 250.705 247.34V251H249.505ZM249.505 248.42V248.24L247.825 248.54C247.213 248.648 246.925 248.948 246.925 249.32C246.925 249.74 247.273 250.1 247.885 250.1C248.785 250.1 249.505 249.38 249.505 248.42Z" fill="#9A9A9A"/>
<path d="M242.479 269V262.58H240.979V261.74C242.059 261.608 242.491 261.2 242.779 260.6H243.799V269H242.479ZM246.92 269V262.58H245.42V261.74C246.5 261.608 246.932 261.2 247.22 260.6H248.24V269H246.92Z" fill="#9A9A9A"/>
<path d="M240 166H250V226C250 228.761 247.761 231 245 231V231C242.239 231 240 228.761 240 226V166Z" fill="#D1D1D1"/>
<path d="M240 127H250V147H240V127Z" fill="#ECECEC"/>
<path d="M240 147H250V167H240V147Z" fill="#DEDEDE"/>
<path d="M152 206H162V226C162 228.761 159.761 231 157 231V231C154.239 231 152 228.761 152 226V206Z" fill="#D1D1D1"/>
<path d="M152 130H162V150H152V130Z" fill="#ECECEC"/>
<path d="M152 150H162V206H152V150Z" fill="#DEDEDE"/>
<path d="M152 114C152 111.239 154.239 109 157 109V109C159.761 109 162 111.239 162 114V130H152V114Z" fill="#F5F5F5"/>
<path d="M152.946 251V243.86H150.426V242.6H156.786V243.86H154.266V251H152.946ZM157.695 251V242.6H158.895V246.08C159.015 245.9 159.159 245.744 159.339 245.6C159.639 245.36 160.083 245.12 160.695 245.12C162.015 245.12 162.975 246.068 162.975 247.64V251H161.775V247.64C161.775 246.788 161.235 246.26 160.455 246.26C159.555 246.26 158.895 246.92 158.895 247.88V251H157.695Z" fill="#9A9A9A"/>
<path d="M155.618 264.8C155.618 262.7 154.598 261.68 153.458 261.68C152.318 261.68 151.298 262.7 151.298 264.8C151.298 266.9 152.318 267.92 153.458 267.92C154.598 267.92 155.618 266.9 155.618 264.8ZM153.458 269.12C151.538 269.12 149.978 267.548 149.978 264.8C149.978 262.052 151.538 260.48 153.458 260.48C155.378 260.48 156.938 262.052 156.938 264.8C156.938 267.548 155.378 269.12 153.458 269.12ZM159.644 269L161.564 266.06L161.432 266.096C161.336 266.108 161.204 266.12 161.024 266.12C159.404 266.12 158.144 264.86 158.144 263.3C158.144 261.74 159.404 260.48 161.144 260.48C162.884 260.48 164.144 261.74 164.144 263.3C164.144 263.78 163.988 264.248 163.844 264.596C163.76 264.8 163.652 264.992 163.544 265.16L161.084 269H159.644ZM159.464 263.3C159.464 264.2 160.184 264.92 161.144 264.92C162.104 264.92 162.824 264.2 162.824 263.3C162.824 262.4 162.104 261.68 161.144 261.68C160.184 261.68 159.464 262.4 159.464 263.3Z" fill="#9A9A9A"/>
<path d="M284 22C284 19.2386 286.239 17 289 17V17C291.761 17 294 19.2386 294 22V132H284V22Z" fill="#F5F5F5"/>
<path d="M284 64H294V84H284V64Z" fill="#ECECEC"/>
<path d="M284 84H294V104H284V84Z" fill="#DEDEDE"/>
<path d="M282.458 249.86L283.358 248.96C283.49 249.14 283.658 249.296 283.862 249.44C284.21 249.68 284.738 249.92 285.458 249.92C286.55 249.92 287.138 249.332 287.138 248.66C287.138 246.8 282.698 247.94 282.698 244.82C282.698 243.56 283.79 242.48 285.578 242.48C286.442 242.48 287.102 242.744 287.546 243.02C287.81 243.176 288.038 243.356 288.218 243.56L287.318 244.46C287.186 244.316 287.042 244.184 286.874 244.076C286.586 243.884 286.142 243.68 285.578 243.68C284.558 243.68 284.018 244.208 284.018 244.82C284.018 246.68 288.458 245.54 288.458 248.66C288.458 249.98 287.318 251.12 285.458 251.12C284.438 251.12 283.682 250.82 283.19 250.496C282.902 250.316 282.662 250.1 282.458 249.86ZM289.781 248.6V245.24H290.981V248.6C290.981 249.452 291.521 249.98 292.301 249.98C293.201 249.98 293.861 249.32 293.861 248.36V245.24H295.061V251H293.861V250.16C293.729 250.34 293.585 250.496 293.405 250.64C293.105 250.88 292.673 251.12 292.061 251.12C290.741 251.12 289.781 250.172 289.781 248.6Z" fill="#9A9A9A"/>
<path d="M285.342 269V262.58H283.842V261.74C284.922 261.608 285.354 261.2 285.642 260.6H286.662V269H285.342ZM289.843 267.74H293.923V269H288.283C288.283 265.22 292.603 265.112 292.603 263.06C292.603 262.28 292.063 261.74 291.103 261.74C290.467 261.74 290.071 262.028 289.819 262.316C289.675 262.484 289.567 262.676 289.483 262.88L288.403 262.4C288.511 262.04 288.691 261.716 288.919 261.44C289.315 260.96 289.987 260.48 291.103 260.48C292.783 260.48 293.923 261.62 293.923 263.06C293.923 265.52 290.803 265.88 289.843 267.74Z" fill="#9A9A9A"/>
<path d="M284 104H294V226C294 228.761 291.761 231 289 231V231C286.239 231 284 228.761 284 226V104Z" fill="#D1D1D1"/>
<path d="M0 232H313" stroke="#F3F4F4" stroke-width="0.8"/>
<line x1="313.4" y1="7" x2="313.4" y2="232" stroke="#F3F4F4" stroke-width="0.8"/>
<line x1="0.4" y1="7" x2="0.40001" y2="232" stroke="#F3F4F4" stroke-width="0.8"/>
<path d="M330.573 231.8C330.573 229.7 329.553 228.68 328.413 228.68C327.273 228.68 326.253 229.7 326.253 231.8C326.253 233.9 327.273 234.92 328.413 234.92C329.553 234.92 330.573 233.9 330.573 231.8ZM328.413 236.12C326.493 236.12 324.933 234.548 324.933 231.8C324.933 229.052 326.493 227.48 328.413 227.48C330.333 227.48 331.893 229.052 331.893 231.8C331.893 234.548 330.333 236.12 328.413 236.12ZM333.399 236V230.24H334.599V231.08C334.695 230.9 334.827 230.744 334.983 230.6C335.259 230.36 335.667 230.12 336.279 230.12C336.903 230.12 337.359 230.36 337.647 230.6C337.815 230.744 337.959 230.9 338.079 231.08C338.187 230.9 338.343 230.744 338.523 230.6C338.847 230.36 339.339 230.12 340.059 230.12C341.199 230.12 342.159 231.08 342.159 232.58V236H340.959V232.58C340.959 231.728 340.431 231.26 339.759 231.26C338.979 231.26 338.379 231.86 338.379 232.82V236H337.179V232.58C337.179 231.728 336.651 231.26 335.979 231.26C335.199 231.26 334.599 231.86 334.599 232.82V236H333.399Z" fill="#9A9A9A"/>
<path d="M327.283 188.54C327.283 189.32 327.871 189.92 328.963 189.92C330.055 189.92 330.643 189.32 330.643 188.54C330.643 187.76 330.055 187.16 328.963 187.16C327.871 187.16 327.283 187.76 327.283 188.54ZM327.643 184.82C327.643 185.492 328.111 185.96 328.963 185.96C329.815 185.96 330.283 185.492 330.283 184.82C330.283 184.148 329.815 183.68 328.963 183.68C328.111 183.68 327.643 184.148 327.643 184.82ZM325.963 188.6C325.963 187.82 326.311 187.304 326.683 186.968C326.887 186.776 327.127 186.62 327.403 186.5C327.199 186.392 327.019 186.26 326.863 186.092C326.587 185.804 326.323 185.372 326.323 184.7C326.323 183.5 327.343 182.48 328.963 182.48C330.583 182.48 331.603 183.5 331.603 184.7C331.603 185.372 331.339 185.804 331.063 186.092C330.907 186.26 330.727 186.392 330.523 186.5C330.799 186.62 331.039 186.776 331.243 186.968C331.615 187.304 331.963 187.82 331.963 188.6C331.963 189.992 330.823 191.12 328.963 191.12C327.103 191.12 325.963 189.992 325.963 188.6ZM333.399 191V185.24H334.599V186.08C334.695 185.9 334.827 185.744 334.983 185.6C335.259 185.36 335.667 185.12 336.279 185.12C336.903 185.12 337.359 185.36 337.647 185.6C337.815 185.744 337.959 185.9 338.079 186.08C338.187 185.9 338.343 185.744 338.523 185.6C338.847 185.36 339.339 185.12 340.059 185.12C341.199 185.12 342.159 186.08 342.159 187.58V191H340.959V187.58C340.959 186.728 340.431 186.26 339.759 186.26C338.979 186.26 338.379 186.86 338.379 187.82V191H337.179V187.58C337.179 186.728 336.651 186.26 335.979 186.26C335.199 186.26 334.599 186.86 334.599 187.82V191H333.399Z" fill="#9A9A9A"/>
<path d="M322.959 146V139.58H321.459V138.74C322.539 138.608 322.971 138.2 323.259 137.6H324.279V146H322.959ZM326.62 141.44L329.08 137.6H330.52L328.6 140.54L328.732 140.516C328.816 140.504 328.96 140.48 329.14 140.48C330.76 140.48 332.02 141.74 332.02 143.3C332.02 144.86 330.76 146.12 329.02 146.12C327.28 146.12 326.02 144.86 326.02 143.3C326.02 142.82 326.164 142.364 326.32 142.016C326.404 141.812 326.512 141.62 326.62 141.44ZM327.34 143.3C327.34 144.2 328.06 144.92 329.02 144.92C329.98 144.92 330.7 144.2 330.7 143.3C330.7 142.4 329.98 141.68 329.02 141.68C328.06 141.68 327.34 142.4 327.34 143.3ZM333.399 146V140.24H334.599V141.08C334.695 140.9 334.827 140.744 334.983 140.6C335.259 140.36 335.667 140.12 336.279 140.12C336.903 140.12 337.359 140.36 337.647 140.6C337.815 140.744 337.959 140.9 338.079 141.08C338.187 140.9 338.343 140.744 338.523 140.6C338.847 140.36 339.339 140.12 340.059 140.12C341.199 140.12 342.159 141.08 342.159 142.58V146H340.959V142.58C340.959 141.728 340.431 141.26 339.759 141.26C338.979 141.26 338.379 141.86 338.379 142.82V146H337.179V142.58C337.179 141.728 336.651 141.26 335.979 141.26C335.199 141.26 334.599 141.86 334.599 142.82V146H333.399Z" fill="#9A9A9A"/>
<path d="M321.109 99.74H325.189V101H319.549C319.549 97.22 323.869 97.112 323.869 95.06C323.869 94.28 323.329 93.74 322.369 93.74C321.733 93.74 321.337 94.028 321.085 94.316C320.941 94.484 320.833 94.676 320.749 94.88L319.669 94.4C319.777 94.04 319.957 93.716 320.185 93.44C320.581 92.96 321.253 92.48 322.369 92.48C324.049 92.48 325.189 93.62 325.189 95.06C325.189 97.52 322.069 97.88 321.109 99.74ZM325.84 99.32V97.88L329.68 92.6H331.24V98.12H332.32V99.32H331.24V101H329.92V99.32H325.84ZM327.1 98.12H329.92V94.22L327.1 98.12ZM333.399 101V95.24H334.599V96.08C334.695 95.9 334.827 95.744 334.983 95.6C335.259 95.36 335.667 95.12 336.279 95.12C336.903 95.12 337.359 95.36 337.647 95.6C337.815 95.744 337.959 95.9 338.079 96.08C338.187 95.9 338.343 95.744 338.523 95.6C338.847 95.36 339.339 95.12 340.059 95.12C341.199 95.12 342.159 96.08 342.159 97.58V101H340.959V97.58C340.959 96.728 340.431 96.26 339.759 96.26C338.979 96.26 338.379 96.86 338.379 97.82V101H337.179V97.58C337.179 96.728 336.651 96.26 335.979 96.26C335.199 96.26 334.599 96.86 334.599 97.82V101H333.399Z" fill="#9A9A9A"/>
<path d="M319.299 54.86L320.199 53.96C320.331 54.14 320.499 54.296 320.703 54.44C321.039 54.68 321.531 54.92 322.239 54.92C323.331 54.92 323.919 54.32 323.919 53.54C323.919 52.82 323.331 52.22 322.239 52.22H321.339V50.96H322.239C323.151 50.96 323.619 50.492 323.619 49.82C323.619 49.148 323.151 48.68 322.239 48.68C321.663 48.68 321.231 48.896 320.907 49.1C320.727 49.232 320.571 49.364 320.439 49.52L319.539 48.62C319.743 48.416 319.971 48.224 320.235 48.056C320.703 47.768 321.363 47.48 322.239 47.48C323.919 47.48 324.939 48.5 324.939 49.7C324.939 50.408 324.627 50.864 324.303 51.152C324.123 51.32 323.907 51.452 323.679 51.56C323.967 51.668 324.231 51.812 324.459 51.992C324.843 52.316 325.239 52.82 325.239 53.6C325.239 54.992 324.099 56.12 322.239 56.12C321.231 56.12 320.523 55.82 320.031 55.496C319.743 55.316 319.503 55.1 319.299 54.86ZM327.824 54.74H331.904V56H326.264C326.264 52.22 330.584 52.112 330.584 50.06C330.584 49.28 330.044 48.74 329.084 48.74C328.448 48.74 328.052 49.028 327.8 49.316C327.656 49.484 327.548 49.676 327.464 49.88L326.384 49.4C326.492 49.04 326.672 48.716 326.9 48.44C327.296 47.96 327.968 47.48 329.084 47.48C330.764 47.48 331.904 48.62 331.904 50.06C331.904 52.52 328.784 52.88 327.824 54.74ZM333.399 56V50.24H334.599V51.08C334.695 50.9 334.827 50.744 334.983 50.6C335.259 50.36 335.667 50.12 336.279 50.12C336.903 50.12 337.359 50.36 337.647 50.6C337.815 50.744 337.959 50.9 338.079 51.08C338.187 50.9 338.343 50.744 338.523 50.6C338.847 50.36 339.339 50.12 340.059 50.12C341.199 50.12 342.159 51.08 342.159 52.58V56H340.959V52.58C340.959 51.728 340.431 51.26 339.759 51.26C338.979 51.26 338.379 51.86 338.379 52.82V56H337.179V52.58C337.179 51.728 336.651 51.26 335.979 51.26C335.199 51.26 334.599 51.86 334.599 52.82V56H333.399Z" fill="#9A9A9A"/>
<path d="M317.555 9.32V7.88L321.395 2.6H322.955V8.12H324.035V9.32H322.955V11H321.635V9.32H317.555ZM318.815 8.12H321.635V4.22L318.815 8.12ZM330.573 6.8C330.573 4.7 329.553 3.68 328.413 3.68C327.273 3.68 326.253 4.7 326.253 6.8C326.253 8.9 327.273 9.92 328.413 9.92C329.553 9.92 330.573 8.9 330.573 6.8ZM328.413 11.12C326.493 11.12 324.933 9.548 324.933 6.8C324.933 4.052 326.493 2.48 328.413 2.48C330.333 2.48 331.893 4.052 331.893 6.8C331.893 9.548 330.333 11.12 328.413 11.12ZM333.399 11V5.24H334.599V6.08C334.695 5.9 334.827 5.744 334.983 5.6C335.259 5.36 335.667 5.12 336.279 5.12C336.903 5.12 337.359 5.36 337.647 5.6C337.815 5.744 337.959 5.9 338.079 6.08C338.187 5.9 338.343 5.744 338.523 5.6C338.847 5.36 339.339 5.12 340.059 5.12C341.199 5.12 342.159 6.08 342.159 7.58V11H340.959V7.58C340.959 6.728 340.431 6.26 339.759 6.26C338.979 6.26 338.379 6.86 338.379 7.82V11H337.179V7.58C337.179 6.728 336.651 6.26 335.979 6.26C335.199 6.26 334.599 6.86 334.599 7.82V11H333.399Z" fill="#9A9A9A"/>
</svg>
