<svg width="32" height="43" viewBox="0 0 32 43" fill="none" xmlns="http://www.w3.org/2000/svg">
<g filter="url(#filter0_f_3248_28026)">
<path d="M29.6082 26.3729L16.7312 15.324C16.3106 14.9631 15.6894 14.9631 15.2687 15.324L2.39176 26.3729C2.03518 26.6788 1.90679 27.1744 2.06992 27.6151C2.23305 28.0557 2.65319 28.3482 3.12305 28.3482H6.3064V38.9317C6.3064 39.5518 6.80919 40.0546 7.42938 40.0546H24.5706C25.1908 40.0546 25.6936 39.5518 25.6936 38.9317V28.3481H28.8769C29.3468 28.3481 29.7669 28.0556 29.9301 27.615C30.0932 27.1744 29.9649 26.6788 29.6082 26.3729ZM14.4035 37.8087V34.3006C14.4035 33.4202 15.1197 32.704 16 32.704C16.8804 32.704 17.5966 33.4202 17.5966 34.3006V37.8087H14.4035ZM24.5706 26.1021C23.9504 26.1021 23.4476 26.6049 23.4476 27.2251V37.8086H19.8425V34.3005C19.8425 32.1817 18.1188 30.458 16 30.458C13.8811 30.458 12.1574 32.1817 12.1574 34.3005V37.8086H8.55228V27.2251C8.55228 26.6049 8.04949 26.1021 7.4293 26.1021H6.15622L15.9999 17.6559L25.8437 26.1021H24.5706Z" fill="#9A9A9A"/>
<path d="M13.0877 11.9653C12.6491 12.4038 12.6491 13.1148 13.0877 13.5534C13.5262 13.9919 14.2373 13.9919 14.6758 13.5534C15.0293 13.1999 15.4993 13.0052 15.9993 13.0052C16.4992 13.0052 16.9693 13.1999 17.3228 13.5534C17.542 13.7727 17.8295 13.8823 18.1168 13.8823C18.4041 13.8823 18.6916 13.7727 18.9108 13.5534C19.3494 13.1148 19.3494 12.4038 18.9108 11.9653C17.3054 10.3598 14.6932 10.3598 13.0877 11.9653Z" fill="#9A9A9A"/>
<path d="M21.2413 10.759C21.5286 10.759 21.8161 10.6493 22.0353 10.4301C22.4739 9.99158 22.4739 9.28051 22.0353 8.84195C20.4234 7.22995 18.2801 6.34219 16.0005 6.34219C13.7208 6.34219 11.5775 7.22995 9.96558 8.84195C9.5271 9.28051 9.5271 9.9915 9.96558 10.4301C10.4041 10.8686 11.1151 10.8686 11.5537 10.4301C12.7415 9.24233 14.3207 8.58815 16.0005 8.58815C17.6802 8.58815 19.2594 9.24233 20.4472 10.4301C20.6665 10.6493 20.9539 10.759 21.2413 10.759Z" fill="#9A9A9A"/>
<path d="M8.48247 7.35968C10.4904 5.35179 13.16 4.24596 15.9996 4.24596C18.8393 4.24596 21.5089 5.35179 23.5168 7.35968C23.736 7.57896 24.0234 7.68864 24.3108 7.68864C24.5981 7.68864 24.8856 7.57896 25.1048 7.35968C25.5434 6.9212 25.5434 6.21012 25.1048 5.77156C22.6728 3.33942 19.4392 2 15.9996 2C12.5601 2 9.32642 3.33942 6.89435 5.77156C6.45579 6.21012 6.45579 6.92112 6.89435 7.35968C7.33284 7.79824 8.04391 7.79824 8.48247 7.35968Z" fill="#9A9A9A"/>
<path d="M12.1572 27.2251C12.1572 27.8453 12.66 28.3481 13.2802 28.3481H18.7192C19.3394 28.3481 19.8422 27.8453 19.8422 27.2251C19.8422 26.6049 19.3394 26.1021 18.7192 26.1021H13.2802C12.66 26.1021 12.1572 26.6049 12.1572 27.2251Z" fill="#9A9A9A"/>
</g>
<defs>
<filter id="filter0_f_3248_28026" x="0" y="0" width="32" height="42.0546" filterUnits="userSpaceOnUse" color-interpolation-filters="sRGB">
<feFlood flood-opacity="0" result="BackgroundImageFix"/>
<feBlend mode="normal" in="SourceGraphic" in2="BackgroundImageFix" result="shape"/>
<feGaussianBlur stdDeviation="1" result="effect1_foregroundBlur_3248_28026"/>
</filter>
</defs>
</svg>
