<svg width="279" height="195" viewBox="0 0 279 195" fill="none" xmlns="http://www.w3.org/2000/svg">
<path opacity="0.11" d="M249.937 190C275.733 181.714 275.988 162.23 266.544 143.387C246.086 102.576 260.724 106.343 274.419 77.3978C291.222 41.8896 244.982 28.783 216.759 43.3835C162.339 71.5354 154.36 39.4557 132.728 20.5693C100.059 -7.95613 31.2253 3.74052 41.7742 47.2665C56.5024 108.031 5.69718 92.3648 0.338249 143.388C-2.684 172.16 15.1855 184.685 28.459 189.986C56.0068 188.926 95.3378 188.261 139.004 188.261C182.877 188.261 222.373 188.931 249.937 190Z" fill="#00937D"/>
<path d="M14.2634 59.3536L14.617 59L14.2634 58.6464L12.7865 57.1695L12.4329 57.523L12.7865 57.1695C12.6956 57.0787 12.6236 56.9709 12.5745 56.8522C12.5253 56.7335 12.5 56.6064 12.5 56.478C12.5 56.3496 12.5253 56.2224 12.5745 56.1037C12.6236 55.9851 12.6956 55.8773 12.7865 55.7864C12.8773 55.6956 12.9851 55.6236 13.1037 55.5744C13.2224 55.5253 13.3495 55.5 13.478 55.5C13.6064 55.5 13.7336 55.5253 13.8522 55.5744C13.9709 55.6236 14.0787 55.6956 14.1695 55.7864L15.6464 57.2634L16 57.617L16.3536 57.2634L17.8305 55.7864L17.477 55.4329L17.8305 55.7864C18.0139 55.603 18.2627 55.5 18.522 55.5C18.6505 55.5 18.7776 55.5253 18.8963 55.5744C19.0149 55.6236 19.1228 55.6956 19.2136 55.7864C19.397 55.9698 19.5 56.2186 19.5 56.478C19.5 56.7373 19.397 56.9861 19.2136 57.1695L19.2135 57.1696L17.7373 58.6465L17.3841 59L17.7373 59.3535L19.2135 60.8304L19.2136 60.8305C19.3044 60.9213 19.3764 61.0291 19.4256 61.1478C19.4747 61.2664 19.5 61.3936 19.5 61.522C19.5 61.6505 19.4747 61.7777 19.4256 61.8963C19.3764 62.0149 19.3044 62.1227 19.2136 62.2136C19.1228 62.3044 19.0149 62.3764 18.8963 62.4256C18.7776 62.4747 18.6505 62.5 18.522 62.5C18.2627 62.5 18.0139 62.397 17.8305 62.2136L17.477 62.5671L17.8305 62.2136L16.3536 60.7366L16 60.3831L15.6464 60.7366L14.1695 62.2136C14.0787 62.3044 13.9709 62.3764 13.8522 62.4256C13.7336 62.4747 13.6064 62.5 13.478 62.5C13.3495 62.5 13.2224 62.4747 13.1037 62.4256C12.9851 62.3764 12.8773 62.3044 12.7865 62.2136C12.6956 62.1227 12.6236 62.0149 12.5745 61.8963C12.5253 61.7776 12.5 61.6504 12.5 61.522C12.5 61.3936 12.5253 61.2665 12.5745 61.1478L12.1125 60.9564L12.5745 61.1478C12.6236 61.0291 12.6956 60.9213 12.7865 60.8305L12.4329 60.477L12.7865 60.8305L14.2634 59.3536Z" fill="#94CFC7" stroke="white"/>
<path d="M190.263 20.3536L190.617 20L190.263 19.6464L188.786 18.1695L188.433 18.523L188.786 18.1695C188.696 18.0787 188.624 17.9709 188.574 17.8522C188.525 17.7335 188.5 17.6064 188.5 17.478C188.5 17.3496 188.525 17.2224 188.574 17.1037C188.624 16.9851 188.696 16.8773 188.786 16.7864C188.877 16.6956 188.985 16.6236 189.104 16.5744C189.222 16.5253 189.35 16.5 189.478 16.5C189.606 16.5 189.734 16.5253 189.852 16.5744C189.971 16.6236 190.079 16.6956 190.169 16.7864L191.646 18.2634L192 18.617L192.354 18.2634L193.831 16.7864L193.477 16.4329L193.831 16.7864C194.014 16.603 194.263 16.5 194.522 16.5C194.65 16.5 194.778 16.5253 194.896 16.5744C195.015 16.6236 195.123 16.6956 195.214 16.7864C195.397 16.9698 195.5 17.2186 195.5 17.478C195.5 17.7373 195.397 17.9861 195.214 18.1695L195.213 18.1696L193.737 19.6465L193.384 20L193.737 20.3535L195.213 21.8304L195.214 21.8305C195.304 21.9213 195.376 22.0291 195.426 22.1478C195.475 22.2664 195.5 22.3936 195.5 22.522C195.5 22.6505 195.475 22.7777 195.426 22.8963C195.376 23.0149 195.304 23.1227 195.214 23.2136C195.123 23.3044 195.015 23.3764 194.896 23.4256C194.778 23.4747 194.65 23.5 194.522 23.5C194.263 23.5 194.014 23.397 193.831 23.2136L193.477 23.5671L193.831 23.2136L192.354 21.7366L192 21.3831L191.646 21.7366L190.169 23.2136C190.079 23.3044 189.971 23.3764 189.852 23.4256C189.734 23.4747 189.606 23.5 189.478 23.5C189.35 23.5 189.222 23.4747 189.104 23.4256C188.985 23.3764 188.877 23.3044 188.786 23.2136C188.696 23.1227 188.624 23.0149 188.574 22.8963C188.525 22.7776 188.5 22.6504 188.5 22.522C188.5 22.3936 188.525 22.2665 188.574 22.1478L188.113 21.9564L188.574 22.1478C188.624 22.0291 188.696 21.9213 188.786 21.8305L188.433 21.477L188.786 21.8305L190.263 20.3536Z" fill="#94CFC7" stroke="white"/>
<path d="M273.263 123.354L273.617 123L273.263 122.646L271.786 121.169L271.433 121.523L271.786 121.169C271.696 121.079 271.624 120.971 271.574 120.852C271.525 120.734 271.5 120.606 271.5 120.478C271.5 120.35 271.525 120.222 271.574 120.104C271.624 119.985 271.696 119.877 271.786 119.786C271.877 119.696 271.985 119.624 272.104 119.574C272.222 119.525 272.35 119.5 272.478 119.5C272.606 119.5 272.734 119.525 272.852 119.574C272.971 119.624 273.079 119.696 273.169 119.786L274.646 121.263L275 121.617L275.354 121.263L276.831 119.786L276.477 119.433L276.831 119.786C277.014 119.603 277.263 119.5 277.522 119.5C277.65 119.5 277.778 119.525 277.896 119.574C278.015 119.624 278.123 119.696 278.214 119.786C278.397 119.97 278.5 120.219 278.5 120.478C278.5 120.737 278.397 120.986 278.214 121.169L278.213 121.17L276.737 122.647L276.384 123L276.737 123.353L278.213 124.83L278.214 124.831C278.304 124.921 278.376 125.029 278.426 125.148C278.475 125.266 278.5 125.394 278.5 125.522C278.5 125.65 278.475 125.778 278.426 125.896C278.376 126.015 278.304 126.123 278.214 126.214C278.123 126.304 278.015 126.376 277.896 126.426C277.778 126.475 277.65 126.5 277.522 126.5C277.263 126.5 277.014 126.397 276.831 126.214L276.477 126.567L276.831 126.214L275.354 124.737L275 124.383L274.646 124.737L273.169 126.214C273.079 126.304 272.971 126.376 272.852 126.426C272.734 126.475 272.606 126.5 272.478 126.5C272.35 126.5 272.222 126.475 272.104 126.426C271.985 126.376 271.877 126.304 271.786 126.214C271.696 126.123 271.624 126.015 271.574 125.896C271.525 125.778 271.5 125.65 271.5 125.522C271.5 125.394 271.525 125.266 271.574 125.148L271.113 124.956L271.574 125.148C271.624 125.029 271.696 124.921 271.786 124.831L271.433 124.477L271.786 124.831L273.263 123.354Z" fill="#94CFC7" stroke="white"/>
<path d="M76.0003 24.5C76.6924 24.5001 77.369 24.7053 77.9445 25.0899C78.5201 25.4744 78.9687 26.0211 79.2336 26.6606C79.4985 27.3001 79.5678 28.0039 79.4327 28.6828C79.2977 29.3617 78.9643 29.9854 78.4749 30.4749C77.9854 30.9644 77.3617 31.2977 76.6828 31.4327C76.0039 31.5678 75.3001 31.4985 74.6606 31.2336C74.0211 30.9687 73.4744 30.5201 73.0899 29.9445C72.7053 29.369 72.5001 28.6924 72.5 28.0003C72.5011 27.0723 72.8702 26.1826 73.5264 25.5264C74.1826 24.8702 75.0723 24.5011 76.0003 24.5ZM76 29.7614C76.3482 29.7614 76.6886 29.6581 76.9782 29.4647C77.2677 29.2712 77.4934 28.9962 77.6266 28.6745C77.7599 28.3528 77.7948 27.9988 77.7268 27.6573C77.6589 27.3157 77.4912 27.002 77.245 26.7558C76.9987 26.5095 76.685 26.3418 76.3435 26.2739C76.0019 26.206 75.6479 26.2408 75.3262 26.3741C75.0045 26.5074 74.7295 26.733 74.5361 27.0226C74.3426 27.3121 74.2393 27.6525 74.2393 28.0007C74.2393 28.4677 74.4248 28.9155 74.755 29.2457C75.0852 29.5759 75.5331 29.7614 76 29.7614Z" fill="#94CFC7" stroke="#E3F3F1"/>
<path d="M243 55.5C243.692 55.5001 244.369 55.7053 244.944 56.0899C245.52 56.4744 245.969 57.0211 246.234 57.6606C246.498 58.3001 246.568 59.0039 246.433 59.6828C246.298 60.3617 245.964 60.9854 245.475 61.4749C244.985 61.9644 244.362 62.2977 243.683 62.4327C243.004 62.5678 242.3 62.4985 241.661 62.2336C241.021 61.9687 240.474 61.5201 240.09 60.9445C239.705 60.369 239.5 59.6924 239.5 59.0003C239.501 58.0723 239.87 57.1826 240.526 56.5264C241.183 55.8702 242.072 55.5011 243 55.5ZM243 60.7614C243.348 60.7614 243.689 60.6581 243.978 60.4647C244.268 60.2712 244.493 59.9962 244.627 59.6745C244.76 59.3528 244.795 58.9988 244.727 58.6573C244.659 58.3157 244.491 58.002 244.245 57.7558C243.999 57.5095 243.685 57.3418 243.343 57.2739C243.002 57.206 242.648 57.2408 242.326 57.3741C242.005 57.5074 241.73 57.733 241.536 58.0226C241.343 58.3121 241.239 58.6525 241.239 59.0007C241.239 59.4677 241.425 59.9155 241.755 60.2457C242.085 60.5759 242.533 60.7614 243 60.7614Z" fill="#94CFC7" stroke="#E3F3F1"/>
<path d="M24.0003 111.5C24.6924 111.5 25.369 111.705 25.9445 112.09C26.5201 112.474 26.9687 113.021 27.2336 113.661C27.4985 114.3 27.5678 115.004 27.4327 115.683C27.2977 116.362 26.9643 116.985 26.4749 117.475C25.9854 117.964 25.3617 118.298 24.6828 118.433C24.0039 118.568 23.3001 118.498 22.6606 118.234C22.0211 117.969 21.4744 117.52 21.0899 116.944C20.7053 116.369 20.5001 115.692 20.5 115C20.5011 114.072 20.8702 113.183 21.5264 112.526C22.1826 111.87 23.0723 111.501 24.0003 111.5ZM24 116.761C24.3482 116.761 24.6886 116.658 24.9782 116.465C25.2677 116.271 25.4934 115.996 25.6266 115.675C25.7599 115.353 25.7948 114.999 25.7268 114.657C25.6589 114.316 25.4912 114.002 25.245 113.756C24.9987 113.51 24.685 113.342 24.3435 113.274C24.0019 113.206 23.6479 113.241 23.3262 113.374C23.0045 113.507 22.7295 113.733 22.5361 114.023C22.3426 114.312 22.2393 114.653 22.2393 115.001C22.2393 115.468 22.4248 115.916 22.755 116.246C23.0852 116.576 23.5331 116.761 24 116.761Z" fill="#94CFC7" stroke="#E3F3F1"/>
<g clip-path="url(#clip0_5078_32296)">
<path d="M179.849 35.5057H179.223V24.9675H179.849C180.006 24.9675 180.131 25.0922 180.131 25.2481V35.2313C180.131 35.381 180.006 35.5057 179.849 35.5057Z" fill="#00937D"/>
<path d="M179.849 47.7026H179.223V37.1644H179.849C180.006 37.1644 180.131 37.2891 180.131 37.445V47.422C180.131 47.5779 180.006 47.7026 179.849 47.7026Z" fill="#00937D"/>
<path d="M97.4007 34.2336H97.9643V50.1158H97.4007C97.2128 50.1158 97.0563 49.9662 97.0563 49.7729V34.5704C97.0563 34.3833 97.2066 34.2336 97.4007 34.2336Z" fill="#00937D"/>
<path d="M97.288 22.5917H97.958V29.9872H97.288C97.1565 29.9872 97.0563 29.8812 97.0563 29.7565V22.8224C97.0563 22.6977 97.1627 22.5917 97.288 22.5917Z" fill="#00937D"/>
<path d="M170.474 161.833H106.713C101.878 161.833 97.9643 157.93 97.9643 153.122V8.71118C97.9643 3.90351 101.878 0 106.713 0H170.474C175.309 0 179.223 3.90351 179.223 8.71118V153.122C179.223 157.93 175.303 161.833 170.474 161.833Z" fill="#0AB198"/>
<path d="M100.075 152.748V9.08533C100.075 5.31277 103.149 2.25107 106.938 2.25107H170.249C174.038 2.25107 177.112 5.31277 177.112 9.08533V152.742C177.112 156.514 174.038 159.576 170.249 159.576H106.938C103.149 159.582 100.075 156.521 100.075 152.748Z" fill="#00937D"/>
<path d="M101.383 152.212V9.62159C101.383 6.18576 104.176 3.40466 107.627 3.40466H169.56C173.011 3.40466 175.804 6.18576 175.804 9.62159V152.212C175.804 155.648 173.011 158.429 169.56 158.429H107.627C104.176 158.429 101.383 155.648 101.383 152.212Z" fill="white"/>
<path d="M149.959 154.918H127.228C126.896 154.918 126.626 154.65 126.626 154.32C126.626 153.989 126.896 153.721 127.228 153.721H149.959C150.291 153.721 150.561 153.989 150.561 154.32C150.561 154.644 150.291 154.918 149.959 154.918Z" fill="#3D3D3D"/>
<path d="M138.529 85.2255C140.135 85.2255 141.436 83.9295 141.436 82.3307C141.436 80.732 140.135 79.436 138.529 79.436C136.924 79.436 135.622 80.732 135.622 82.3307C135.622 83.9295 136.924 85.2255 138.529 85.2255Z" fill="#0AB198"/>
<path d="M145.962 78.7611C145.714 78.7611 145.465 78.6861 145.255 78.5211C142.272 76.2488 139.139 75.5364 135.931 76.4063C133.476 77.0737 131.879 78.4536 131.864 78.4686C131.382 78.8886 130.644 78.8436 130.214 78.3636C129.785 77.8837 129.83 77.1487 130.312 76.7288C130.388 76.6613 132.263 75.0189 135.208 74.194C137.942 73.4291 142.152 73.2341 146.67 76.6763C147.183 77.0662 147.28 77.7937 146.889 78.3036C146.663 78.6036 146.316 78.7611 145.962 78.7611Z" fill="#0AB198"/>
<path d="M150.745 75.5965C150.496 75.5965 150.248 75.5215 150.037 75.3565C144.893 71.4418 139.471 70.2419 133.92 71.8018C129.763 72.9642 127.119 75.2815 127.089 75.304C126.607 75.7315 125.869 75.6865 125.44 75.2065C125.01 74.7266 125.056 73.9916 125.538 73.5642C125.658 73.4517 128.618 70.8719 133.287 69.5595C136.044 68.7871 138.83 68.6221 141.572 69.0645C144.976 69.612 148.297 71.1119 151.453 73.5117C151.965 73.9016 152.063 74.6291 151.671 75.139C151.438 75.439 151.091 75.5965 150.745 75.5965Z" fill="#0AB198"/>
<path d="M154.254 70.6917C154.006 70.6917 153.757 70.6167 153.547 70.4517C146.866 65.3597 139.817 63.7923 132.587 65.7871C127.134 67.2945 123.61 70.3692 123.572 70.3992C123.09 70.8267 122.352 70.7817 121.923 70.3017C121.493 69.8218 121.538 69.0868 122.02 68.6594C122.179 68.5169 125.922 65.2397 131.864 63.5748C135.366 62.5924 138.906 62.3824 142.385 62.9449C146.716 63.6423 150.948 65.5472 154.962 68.6069C155.475 68.9969 155.572 69.7243 155.181 70.2342C154.955 70.5342 154.608 70.6917 154.254 70.6917Z" fill="#0AB198"/>
<path d="M119.447 98.8558L120.523 99.9269C120.297 100.205 120.028 100.452 119.716 100.677C119.167 101.052 118.37 101.427 117.294 101.427C114.969 101.427 113.203 99.6592 113.203 97.5169C113.203 95.3747 114.969 93.6073 117.294 93.6073C118.338 93.6073 119.145 93.9822 119.673 94.3571C119.985 94.582 120.243 94.8284 120.469 95.1069L119.393 96.178C119.231 95.9745 119.048 95.8031 118.844 95.6424C118.489 95.3747 117.972 95.1069 117.294 95.1069C115.948 95.1069 114.872 96.178 114.872 97.5169C114.872 98.8558 115.948 99.9269 117.294 99.9269C117.993 99.9269 118.521 99.6592 118.898 99.3914C119.113 99.2307 119.296 99.0593 119.447 98.8558Z" fill="#0AB198"/>
<path d="M123.81 100.034C124.564 100.034 125.156 99.4449 125.156 98.6416C125.156 97.8382 124.564 97.2491 123.81 97.2491C123.057 97.2491 122.464 97.8382 122.464 98.6416C122.464 99.4449 123.057 100.034 123.81 100.034ZM121.011 98.6416C121.011 97.142 122.249 95.9102 123.81 95.9102C125.371 95.9102 126.609 97.142 126.609 98.6416C126.609 100.141 125.371 101.373 123.81 101.373C122.249 101.373 121.011 100.141 121.011 98.6416Z" fill="#0AB198"/>
<path d="M127.684 101.266V96.0173H129.137V96.7671H129.191C129.309 96.6065 129.438 96.4672 129.589 96.3387C129.847 96.1244 130.235 95.9102 130.752 95.9102C131.828 95.9102 132.689 96.7671 132.689 98.106V101.266H131.236V98.3203C131.236 97.6776 130.87 97.3027 130.267 97.3027C129.621 97.3027 129.137 97.7847 129.137 98.4809V101.266H127.684Z" fill="#0AB198"/>
<path d="M134.086 101.266V96.0173H135.539V96.7671H135.593C135.711 96.6065 135.84 96.4672 135.991 96.3387C136.249 96.1244 136.637 95.9102 137.154 95.9102C138.23 95.9102 139.091 96.7671 139.091 98.106V101.266H137.638V98.3203C137.638 97.6776 137.272 97.3027 136.669 97.3027C136.023 97.3027 135.539 97.7847 135.539 98.4809V101.266H134.086Z" fill="#0AB198"/>
<path d="M144.47 99.4985L145.224 100.516C145.063 100.677 144.869 100.816 144.643 100.945C144.255 101.159 143.695 101.373 142.963 101.373C141.403 101.373 140.165 100.141 140.165 98.6416C140.165 97.142 141.403 95.9102 142.91 95.9102C144.363 95.9102 145.547 97.0885 145.547 98.5345C145.547 98.738 145.525 98.8772 145.515 98.9951L145.493 99.1772H141.672C141.833 99.6592 142.264 100.088 143.071 100.088C143.534 100.088 143.868 99.9591 144.115 99.7984C144.255 99.7127 144.374 99.6163 144.47 99.4985ZM141.672 98.106H144.04C143.878 97.624 143.459 97.1956 142.856 97.1956C142.253 97.1956 141.833 97.624 141.672 98.106Z" fill="#0AB198"/>
<path d="M150.394 99.3914L151.309 100.302C151.169 100.505 150.986 100.677 150.771 100.837C150.394 101.105 149.867 101.373 149.103 101.373C147.542 101.373 146.304 100.141 146.304 98.6416C146.304 97.142 147.542 95.9102 149.103 95.9102C149.867 95.9102 150.394 96.178 150.771 96.4458C150.986 96.6065 151.169 96.7778 151.309 96.9813L150.394 97.8918C150.298 97.774 150.179 97.6669 150.05 97.5705C149.824 97.4098 149.501 97.2491 149.103 97.2491C148.349 97.2491 147.757 97.8382 147.757 98.6416C147.757 99.4449 148.349 100.034 149.103 100.034C149.501 100.034 149.824 99.8734 150.05 99.7127C150.179 99.6163 150.298 99.5092 150.394 99.3914Z" fill="#0AB198"/>
<path d="M152.65 99.4449V97.4634H151.735V96.1244H152.219C152.618 96.1244 152.811 95.9102 152.811 95.4818V94.5178H154.103V96.1244H155.287V97.4634H154.103V99.2307C154.103 99.7127 154.372 99.9805 154.803 99.9805C154.964 99.9805 155.104 99.9591 155.223 99.9269C155.287 99.9162 155.341 99.8948 155.395 99.8734V101.212C155.309 101.244 155.212 101.266 155.115 101.298C154.943 101.341 154.695 101.373 154.426 101.373C153.35 101.373 152.65 100.687 152.65 99.4449Z" fill="#0AB198"/>
<path d="M156.26 100.516C156.26 100.034 156.637 99.6592 157.121 99.6592C157.606 99.6592 157.983 100.034 157.983 100.516C157.983 100.998 157.606 101.373 157.121 101.373C156.637 101.373 156.26 100.998 156.26 100.516ZM159.167 100.516C159.167 100.034 159.543 99.6592 160.028 99.6592C160.512 99.6592 160.889 100.034 160.889 100.516C160.889 100.998 160.512 101.373 160.028 101.373C159.543 101.373 159.167 100.998 159.167 100.516ZM162.073 100.516C162.073 100.034 162.45 99.6592 162.934 99.6592C163.419 99.6592 163.795 100.034 163.795 100.516C163.795 100.998 163.419 101.373 162.934 101.373C162.45 101.373 162.073 100.998 162.073 100.516Z" fill="#0AB198"/>
</g>
<path d="M103.794 71.1316C103.779 71.1316 103.769 71.1217 103.769 71.1069C103.769 71.0921 103.779 71.0823 103.794 71.0823" fill="#E6E6E6"/>
<g filter="url(#filter0_f_5078_32296)">
<path d="M65.3342 180.45C63.5917 180.45 61.9737 181.356 61.0626 182.844C60.1914 184.358 60.2113 186.334 61.0626 187.812H65.1998H69.6057C70.4272 186.393 70.6014 184.572 69.6057 182.844C68.6997 181.356 67.0816 180.45 65.3342 180.45Z" fill="black" fill-opacity="0.3"/>
</g>
<path d="M63.2148 179.304V188.89L71.8027 188.87L71.8077 179.314L63.2148 179.304Z" fill="#04AA91"/>
<path d="M67.492 181.529C65.7495 181.529 64.1315 182.435 63.2204 183.923C62.3492 185.436 62.3691 187.412 63.2204 188.891H67.3575H71.7635C72.585 187.472 72.7592 185.65 71.7635 183.923C70.8574 182.435 69.2394 181.529 67.492 181.529Z" fill="#04AA91"/>
<path d="M62.633 187.178C62.7226 187.786 62.9217 188.368 63.2204 188.89H67.3576H71.7635C72.0672 188.368 72.2813 187.786 72.3809 187.178H62.633Z" fill="#331E13"/>
<path d="M67.4919 181.449C65.7544 181.449 64.1364 182.34 63.2055 183.804C63.1955 183.824 63.1905 183.843 63.1955 183.863C63.2005 183.883 63.2104 183.903 63.2303 183.913C63.2652 183.938 63.315 183.928 63.3399 183.888C64.241 182.47 65.8092 181.609 67.4919 181.609C67.9251 181.609 68.3482 181.663 68.7515 181.773C68.7963 181.783 68.8361 181.758 68.8511 181.718C68.856 181.698 68.856 181.673 68.8411 181.658C68.8312 181.638 68.8112 181.629 68.7913 181.624C68.3781 181.509 67.94 181.449 67.4919 181.449ZM69.8816 182.057C69.8517 182.057 69.8268 182.072 69.8169 182.096C69.8069 182.116 69.8069 182.136 69.8119 182.156C69.8169 182.176 69.8318 182.196 69.8517 182.206C70.5836 182.604 71.2109 183.186 71.6689 183.913C71.6788 183.933 71.6988 183.943 71.7187 183.948C71.7386 183.953 71.7635 183.948 71.7784 183.938C71.8133 183.913 71.8282 183.863 71.8033 183.829C71.3304 183.077 70.6832 182.475 69.9264 182.067C69.9115 182.062 69.8965 182.057 69.8816 182.057Z" fill="#331E13"/>
<g filter="url(#filter1_f_5078_32296)">
<path d="M81.6109 181.823L83.7686 187.277L87.0078 190L91.2416 189.996L97.6118 189.992C99.2422 189.992 99.6314 186.445 96.708 185.814L91.233 184.63L86.4659 181.369L81.6109 181.823Z" fill="black" fill-opacity="0.3"/>
</g>
<path d="M86.8723 179.334L86.8823 188.896L90.6012 188.891L95.4752 188.886L102.808 188.881C104.685 188.881 105.133 184.212 101.768 183.381L95.4652 181.823V179.324L86.8723 179.334Z" fill="#04AA91"/>
<path d="M104.217 187.238C104.063 188.159 103.545 188.88 102.813 188.88L95.4797 188.885L90.6058 188.89L86.8868 188.895V187.248V187.243L104.217 187.238Z" fill="#331E13"/>
<path fill-rule="evenodd" clip-rule="evenodd" d="M60.8661 115.021L61.0055 123.284L61.4237 147.976L61.9813 180.931H72.9688L73.5264 147.976L73.9297 124.304L78.958 147.986L85.8034 180.951H96.6017L91.7079 150.36C91.4839 148.962 91.2548 147.563 91.0059 146.17L85.4649 115.021L72.5955 114.155L60.8661 115.021Z" fill="#23282A"/>
<path fill-rule="evenodd" clip-rule="evenodd" d="M70.1946 77.3476C67.3519 73.3608 64.7581 65.7455 70.2394 65.0437C70.4635 63.6799 72.3155 62.1568 74.2322 63.2369C76.5522 64.5459 77.4931 65.0237 78.9319 64.4016C80.7242 63.6301 82.3621 65.2328 80.6993 68.2889C80.6793 69.3938 80.8486 70.5038 79.7434 71.6088L70.1946 77.3476Z" fill="#181524"/>
<path d="M69.8706 73.5257H76.4622V84.003H69.8706V73.5257Z" fill="#FFBE9D"/>
<path fill-rule="evenodd" clip-rule="evenodd" d="M72.096 78.324H76.4622V80.6733C76.4522 80.6733 76.4472 80.6733 76.4373 80.6733C76.3775 80.6782 76.3178 80.6782 76.2531 80.6782H75.4416C75.3818 80.6782 75.3171 80.6782 75.2574 80.6733C75.1976 80.6683 75.1379 80.6633 75.0781 80.6583C75.0184 80.6534 74.9587 80.6434 74.8989 80.6334C74.8392 80.6235 74.7794 80.6135 74.7247 80.6036C74.6649 80.5936 74.6102 80.5787 74.5504 80.5638C74.4957 80.5488 74.4359 80.5339 74.3811 80.514C74.3264 80.4991 74.2716 80.4792 74.2169 80.4592C74.1621 80.4393 74.1073 80.4194 74.0575 80.3945C74.0078 80.3697 73.953 80.3497 73.8982 80.3249C73.8484 80.3 73.7937 80.2751 73.7439 80.2452C73.6941 80.2203 73.6443 80.1905 73.5945 80.1606C73.5448 80.1307 73.5 80.1009 73.4502 80.066C73.4004 80.0312 73.3556 80.0013 73.3108 79.9665C73.266 79.9316 73.2212 79.8968 73.1764 79.862C73.1315 79.8271 73.0917 79.7873 73.0469 79.7525C73.0071 79.7126 72.9623 79.6728 72.9225 79.633C72.8826 79.5932 72.8428 79.5534 72.803 79.5086C72.7631 79.4688 72.7283 79.424 72.6934 79.3792C72.6586 79.3344 72.6237 79.2896 72.5889 79.2448C72.554 79.2 72.5242 79.1552 72.4893 79.1054C72.4595 79.0606 72.4246 79.0108 72.3947 78.9611C72.3649 78.9113 72.335 78.8615 72.3101 78.8117C72.2852 78.762 72.2553 78.7122 72.2304 78.6574C72.2055 78.6077 72.1807 78.5529 72.1607 78.4982C72.1358 78.4434 72.1159 78.3936 72.096 78.3389C72.101 78.3389 72.096 78.3289 72.096 78.324Z" fill="#181524" fill-opacity="0.1"/>
<path fill-rule="evenodd" clip-rule="evenodd" d="M79.8674 70.1957C79.8674 68.9116 79.3596 67.6822 78.4486 66.7763C77.5425 65.8704 76.3128 65.3578 75.0283 65.3578C73.7439 65.3578 72.5142 65.8655 71.6081 66.7763C70.702 67.6822 70.1892 68.9116 70.1892 70.1957V75.1432C70.1892 76.4274 70.697 77.6568 71.6081 78.5626C72.5142 79.4685 73.7439 79.9812 75.0283 79.9812C76.3128 79.9812 77.5425 79.4735 78.4486 78.5626C79.3546 77.6568 79.8674 76.4274 79.8674 75.1432V70.1957Z" fill="#FFBE9D"/>
<path d="M74.3311 73.5509C74.0259 73.5509 73.7785 73.3036 73.7785 72.9985C73.7785 72.6933 74.0259 72.446 74.3311 72.446C74.6363 72.446 74.8838 72.6933 74.8838 72.9985C74.8838 73.3036 74.6363 73.5509 74.3311 73.5509Z" fill="#181524"/>
<path d="M74.4063 71.0224C74.7697 71.122 75.1133 71.326 75.2178 71.6446C75.2676 71.7939 75.163 71.8735 75.0734 71.8088C74.8793 71.6645 74.6154 71.5301 74.2968 71.4405C73.9782 71.3559 73.6795 71.341 73.4405 71.3708C73.326 71.3858 73.2762 71.2613 73.3957 71.1568C73.6446 70.9328 74.0429 70.9278 74.4063 71.0224Z" fill="#181524"/>
<path d="M69.7105 75.6654C68.8031 75.6654 68.0676 74.93 68.0676 74.0228C68.0676 73.1157 68.8031 72.3803 69.7105 72.3803C70.6178 72.3803 71.3534 73.1157 71.3534 74.0228C71.3534 74.93 70.6178 75.6654 69.7105 75.6654Z" fill="#FFBE9D"/>
<path d="M78.4196 73.5501C78.1144 73.5501 77.8669 73.3027 77.8669 72.9976C77.8669 72.6924 78.1144 72.4451 78.4196 72.4451C78.7248 72.4451 78.9722 72.6924 78.9722 72.9976C78.9722 73.3027 78.7248 73.5501 78.4196 73.5501Z" fill="#181524"/>
<path d="M78.3394 71.0219C78.7028 70.9224 79.1011 70.9323 79.355 71.1563C79.4745 71.2608 79.4247 71.3853 79.3102 71.3703C79.0712 71.3405 78.7725 71.3554 78.4539 71.44C78.1352 71.5246 77.8714 71.659 77.6772 71.8083C77.5876 71.878 77.4831 71.7984 77.5328 71.6441C77.6324 71.3255 77.9759 71.1215 78.3394 71.0219Z" fill="#181524"/>
<path d="M79.8985 68.5538C77.8523 69.1461 75.5871 69.5244 73.5011 68.7031C72.824 68.4343 72.6448 68.7379 72.4158 69.375C72.2764 69.7732 72.0225 70.251 71.5296 71.0524C71.0666 71.8089 70.982 73.332 70.9322 74.0886C70.9073 74.4668 70.6783 74.4967 70.5887 74.1732C70.1257 72.4958 69.125 72.2768 68.3733 73.0284L68.0845 67.1402L75.154 64.5371L79.8636 67.1452L79.8985 68.5538Z" fill="#181524"/>
<path d="M72.3856 62.72C72.7142 62.6703 73.0428 62.6802 73.3365 62.7499C74.2326 62.959 75.1885 63.5413 76.1842 63.9694C77.1799 64.3974 78.2104 64.6811 79.2509 64.3078L79.2659 64.3476C78.2104 64.7259 77.1649 64.4422 76.1692 64.0092C75.1686 63.5761 74.2127 62.9988 73.3265 62.7897C72.744 62.6504 72.0371 62.7449 71.4447 63.1033C70.8522 63.4666 70.3793 64.0938 70.2548 65.0395L70.21 65.0345C70.3345 64.0789 70.8174 63.4368 71.4198 63.0685C71.7284 62.8893 72.057 62.7748 72.3856 62.72Z" fill="#181524"/>
<path d="M70.2399 65.0197V65.0645C68.3979 65.1093 67.3723 65.9853 66.9989 67.3292C66.6255 68.6731 66.9143 70.4948 67.7208 72.421L67.681 72.436C66.8745 70.5047 66.5807 68.6781 66.9591 67.3143C67.3325 65.9555 68.383 65.0645 70.2399 65.0197Z" fill="#181524"/>
<path d="M76.2684 76.7713C76.2485 76.7713 76.2286 76.7614 76.2186 76.7415C75.9946 76.3532 75.5764 76.2188 75.1283 76.4528C75.0984 76.4677 75.0686 76.4578 75.0536 76.4279C75.0487 76.413 75.0437 76.398 75.0487 76.3831C75.0536 76.3682 75.0636 76.3582 75.0785 76.3483C75.5664 76.0944 76.0692 76.2487 76.3182 76.6817C76.3281 76.6967 76.3281 76.7116 76.3231 76.7265C76.3182 76.7415 76.3082 76.7514 76.2983 76.7614C76.2883 76.7663 76.2783 76.7713 76.2684 76.7713Z" fill="#181524"/>
<path d="M68.6609 73.1318C69.0045 73.1318 69.3131 73.2413 69.5421 73.4802C69.7711 73.7191 69.9105 74.0775 69.9205 74.5703C69.9205 74.5951 69.9056 74.6151 69.8857 74.625C69.8657 74.635 69.8359 74.63 69.8209 74.6101C69.5272 74.2915 69.2086 74.187 68.9348 74.2567C68.9198 74.2617 68.9049 74.2567 68.89 74.2517C68.875 74.2418 68.8651 74.2318 68.8651 74.2169C68.8551 74.187 68.875 74.1571 68.9049 74.1472C69.1887 74.0725 69.5023 74.192 69.7861 74.4458C69.7562 74.0526 69.6417 73.749 69.4575 73.5599C69.2534 73.3458 68.9746 73.2463 68.656 73.2463C68.641 73.2463 68.6261 73.2413 68.6161 73.2314C68.6062 73.2214 68.6012 73.2065 68.6012 73.1915C68.6012 73.1766 68.6062 73.1617 68.6161 73.1517C68.6261 73.1418 68.646 73.1318 68.6609 73.1318Z" fill="#181524"/>
<path d="M76.3678 71.9979C76.3976 71.9979 76.4225 72.0228 76.4225 72.0527V73.9888C76.8457 74.0187 77.0797 74.3223 77.0797 74.6359C77.0797 74.9644 76.8308 75.2979 76.3678 75.2979H75.855C75.8251 75.2979 75.8002 75.273 75.8002 75.2431C75.8002 75.2133 75.8251 75.1884 75.855 75.1884H76.3678C76.781 75.1884 76.9652 74.9146 76.9652 74.6409C76.9652 74.3671 76.776 74.0934 76.3678 74.0934C76.3528 74.0934 76.3379 74.0884 76.3279 74.0784C76.318 74.0685 76.313 74.0535 76.313 74.0386V72.0576C76.308 72.0228 76.3329 71.9979 76.3678 71.9979Z" fill="#181524"/>
<path d="M60.5025 86.0643C60.846 86.0643 61.1795 86.1091 61.4733 86.1937C62.8025 86.5869 64.4156 88.2245 64.0073 89.5484L59.0438 105.182C58.2422 107.706 55.3149 108.203 53.3882 106.227L41.6887 94.2421C40.0259 94.3267 39.08 93.814 37.8603 93.3461L35.1371 93.157C34.7736 93.1321 34.4998 92.8185 34.5247 92.4552C34.5496 92.0918 34.8632 91.8181 35.2267 91.843L37.2479 91.9823L34.9379 91.4547C34.5844 91.3751 34.3654 91.0217 34.445 90.6683C34.5247 90.3149 34.8782 90.0959 35.2316 90.1756L35.0425 90.1308C34.689 90.0511 34.4699 89.6977 34.5496 89.3444C34.6292 88.991 34.9827 88.772 35.3362 88.8516L35.1072 88.8018C34.7537 88.7222 34.5347 88.3688 34.6143 88.0154C34.694 87.662 35.0474 87.443 35.4009 87.5227L39.2692 88.4086C39.558 88.4534 39.8567 88.4833 40.1604 88.5082L41.5145 88.5032L40.9071 87.1444C40.7578 86.8109 40.9071 86.4276 41.2407 86.2783C41.5742 86.129 41.9576 86.2783 42.1069 86.6118L42.8537 88.2742C43.4014 89.1453 44.1531 89.2398 44.8053 90.2502L54.3988 98.8859L57.5701 87.6322C57.8589 86.6018 59.2678 86.0643 60.5025 86.0643Z" fill="#FFBE9D"/>
<path fill-rule="evenodd" clip-rule="evenodd" d="M61.6676 85.3976C63.8233 85.9849 65.0829 88.1948 64.4954 90.345L62.1057 99.0902L54.3293 96.9649L56.719 88.2197C57.3065 86.0695 59.5119 84.8102 61.6676 85.3976Z" fill="#04AA91"/>
<path fill-rule="evenodd" clip-rule="evenodd" d="M76.4625 82.1817L85.4686 85.2627V115.022H73.1667H60.8649V85.2627L69.871 82.1817C69.871 83.1025 71.5189 83.5654 73.1667 83.5654C74.8146 83.5654 76.4625 83.1025 76.4625 82.1817Z" fill="#04AA91"/>
<path fill-rule="evenodd" clip-rule="evenodd" d="M69.8717 89.578V82.1817C63.4893 82.1817 56.5542 84.3269 56.5542 89.578H69.8717Z" fill="#04AA91"/>
<path fill-rule="evenodd" clip-rule="evenodd" d="M76.4631 89.578V82.1817C82.8456 82.1817 89.7806 84.3269 89.7806 89.578H76.4631Z" fill="#04AA91"/>
<path fill-rule="evenodd" clip-rule="evenodd" d="M77.872 86.2329C78.0313 86.2329 78.1608 86.3573 78.1558 86.5166L77.7575 94.7491C77.7525 94.9034 77.633 95.0328 77.4737 95.0328H75.2633H73.0528C72.8935 95.0328 72.774 94.9084 72.769 94.7491L72.3708 86.5166C72.3658 86.3623 72.4952 86.2329 72.6545 86.2329H75.2583H77.872Z" fill="#331E13"/>
<path d="M77.8712 86.6655C77.9758 86.6655 78.0754 86.7153 78.1401 86.7899C78.16 86.8148 78.155 86.8497 78.1301 86.8696C78.1052 86.8895 78.0704 86.8845 78.0505 86.8596C78.0106 86.8098 77.9459 86.775 77.8712 86.775H75.2675H72.6637C72.5891 86.775 72.5243 86.8098 72.4845 86.8596C72.4746 86.8696 72.4596 86.8795 72.4447 86.8795C72.4298 86.8795 72.4148 86.8745 72.4049 86.8696C72.38 86.8497 72.375 86.8148 72.3949 86.7899C72.4596 86.7103 72.5592 86.6605 72.6637 86.6605H75.2675L77.8712 86.6655Z" fill="#6A3E28"/>
<path d="M85.7133 86.1336C87.0227 86.1237 88.6357 86.7608 88.8747 87.9006L92.4243 104.744C93.0865 107.88 88.8398 109.482 87.182 107.676L77.1852 96.8C76.2193 96.0584 75.3232 95.1625 74.6312 94.0675L71.8681 92.4897C71.5545 92.3105 71.445 91.9123 71.6242 91.5937C71.8034 91.2802 72.2017 91.1707 72.5203 91.3499L74.7905 92.644L72.366 91.091C72.0573 90.8969 71.9727 90.4888 72.1668 90.1852C72.361 89.8766 72.7692 89.792 73.0729 89.9861L75.6717 91.6485L73.287 89.9462C72.9933 89.7372 72.9186 89.3291 73.1277 89.0304C73.3368 88.7318 73.745 88.6621 74.0437 88.8711L77.3743 91.2503L77.1254 89.3589L75.6866 88.5924C75.368 88.4232 75.2435 88.025 75.4178 87.7065C75.5373 87.4874 75.7613 87.363 75.9953 87.358C76.0998 87.358 76.2094 87.3829 76.3089 87.4377L77.9518 88.3137C78.1709 88.4282 78.3551 88.6621 78.385 88.8711L78.6339 90.7476L80.003 93.6992L84.1451 96.9693L82.3279 89.3689C82.0442 88.1893 83.2938 86.8802 84.5135 86.3675C84.6877 86.2929 84.862 86.2381 85.0313 86.1983C85.2404 86.1585 85.4743 86.1336 85.7133 86.1336Z" fill="#FFBE9D"/>
<path fill-rule="evenodd" clip-rule="evenodd" d="M85.6288 85.3018C87.5057 85.2271 89.2283 86.4764 89.6913 88.3728L91.847 97.1827L86.1615 98.5713L83.3437 96.3465L81.8651 90.2891C81.3324 88.1189 82.6517 85.9488 84.8223 85.4163C85.0912 85.3515 85.365 85.3117 85.6288 85.3018Z" fill="#04AA91"/>
<path d="M84.1397 89.5778C84.1596 89.5778 84.1795 89.5877 84.1945 89.6027C84.2094 89.6176 84.2194 89.6375 84.2194 89.6574V91.061C84.2194 91.0809 84.2094 91.1009 84.1945 91.1158C84.1795 91.1307 84.1596 91.1407 84.1397 91.1407C84.1198 91.1407 84.0999 91.1307 84.0849 91.1158C84.07 91.1009 84.06 91.0809 84.06 91.061V89.6574C84.06 89.6375 84.07 89.6176 84.0849 89.6027C84.0999 89.5877 84.1198 89.5778 84.1397 89.5778ZM84.1397 91.9918C84.1845 91.9918 84.2194 92.0266 84.2194 92.0714V96.7501C84.2194 96.7949 84.1845 96.8298 84.1397 96.8298C84.0949 96.8298 84.06 96.7949 84.06 96.7501V92.0714C84.06 92.0266 84.0949 91.9918 84.1397 91.9918Z" fill="#331E13"/>
<path d="M60.8699 89.5778C60.8898 89.5778 60.9098 89.5877 60.9247 89.6027C60.9396 89.6176 60.9496 89.6375 60.9496 89.6574V94.6049C60.9496 94.6497 60.9147 94.6845 60.8699 94.6845C60.8251 94.6845 60.7903 94.6497 60.7903 94.6049V89.6574C60.7903 89.6375 60.8002 89.6176 60.8152 89.6027C60.8301 89.5877 60.85 89.5778 60.8699 89.5778ZM60.8699 95.4162C60.8898 95.4162 60.9098 95.4262 60.9247 95.4411C60.9396 95.456 60.9496 95.4759 60.9496 95.4958V98.6415C60.9496 98.6863 60.9147 98.7212 60.8699 98.7212C60.8251 98.7212 60.7903 98.6863 60.7903 98.6415V95.4958C60.7903 95.4759 60.8002 95.456 60.8152 95.4411C60.8301 95.4212 60.85 95.4162 60.8699 95.4162Z" fill="#331E13"/>
<path d="M75.4021 91.4055C75.417 91.4055 75.427 91.4105 75.4369 91.4155L76.2932 92.0327C76.3181 92.0526 76.3231 92.0874 76.3082 92.1123C76.2982 92.1222 76.2882 92.1322 76.2733 92.1372C76.2584 92.1372 76.2434 92.1372 76.2285 92.1272L75.3722 91.51C75.3622 91.5001 75.3523 91.4901 75.3473 91.4752C75.3473 91.4603 75.3473 91.4453 75.3573 91.4304C75.3672 91.4155 75.3822 91.4055 75.4021 91.4055ZM74.7698 92.5802C74.7798 92.5802 74.7897 92.5851 74.7997 92.5901L75.412 92.9634C75.427 92.9734 75.4319 92.9833 75.4369 92.9983C75.4419 93.0132 75.4369 93.0281 75.4319 93.0431C75.422 93.058 75.412 93.063 75.3971 93.0679C75.3822 93.0729 75.3672 93.0679 75.3523 93.063L74.7399 92.6897C74.715 92.6747 74.7051 92.6399 74.72 92.61C74.735 92.5951 74.7499 92.5802 74.7698 92.5802ZM78.6431 96.0294C78.658 96.0294 78.6729 96.0344 78.6829 96.0444C78.6929 96.0543 78.7028 96.0693 78.7028 96.0842C78.7028 96.0991 78.6978 96.1141 78.6879 96.124C78.3444 96.4923 77.6324 96.7412 77.0997 96.7213C77.0848 96.7213 77.0699 96.7163 77.0599 96.7014C77.05 96.6914 77.045 96.6765 77.045 96.6616C77.045 96.6466 77.05 96.6317 77.0649 96.6218C77.0798 96.6118 77.0898 96.6068 77.1047 96.6068C77.5976 96.6218 78.2996 96.3729 78.6082 96.0444C78.6132 96.0344 78.6281 96.0294 78.6431 96.0294ZM86.2502 98.5729C86.2602 98.5729 86.2751 98.5778 86.2851 98.5878L88.9187 100.668C88.9286 100.678 88.9386 100.693 88.9386 100.708C88.9386 100.723 88.9336 100.738 88.9286 100.748C88.9187 100.758 88.9037 100.768 88.8888 100.768C88.8739 100.768 88.8589 100.763 88.849 100.758L86.2154 98.6724C86.2054 98.6625 86.1954 98.6475 86.1954 98.6326C86.1954 98.6177 86.2004 98.6027 86.2054 98.5928C86.2104 98.5778 86.2253 98.5729 86.2502 98.5729C86.2452 98.5729 86.2452 98.5729 86.2502 98.5729Z" fill="#F8B68A"/>
<path d="M35.3355 88.8014C35.3405 88.8014 35.3454 88.8014 35.3504 88.8014L37.7052 89.339C37.7202 89.344 37.7351 89.3539 37.7401 89.3639C37.7451 89.3738 37.7501 89.3937 37.7451 89.4087C37.7401 89.4385 37.7052 89.4585 37.6754 89.4535L35.3205 88.9159C35.2907 88.9109 35.2708 88.8761 35.2757 88.8462C35.2857 88.8164 35.3106 88.8014 35.3355 88.8014ZM38.228 89.4634C38.233 89.4634 38.2379 89.4634 38.2429 89.4634L38.9548 89.6277C38.9847 89.6327 39.0046 89.6675 38.9997 89.6974C38.9947 89.7272 38.9598 89.7471 38.93 89.7422L38.218 89.5779C38.2031 89.5729 38.1882 89.568 38.1832 89.553C38.1732 89.5381 38.1732 89.5232 38.1782 89.5082C38.1782 89.4833 38.2031 89.4634 38.228 89.4634ZM35.2757 90.1354C35.2807 90.1354 35.2857 90.1354 35.2907 90.1354L36.2565 90.3544C36.2864 90.3594 36.3063 90.3942 36.3013 90.4241C36.2963 90.4539 36.2615 90.4738 36.2316 90.4689L35.2658 90.2499C35.2359 90.2449 35.216 90.21 35.221 90.1802C35.226 90.1503 35.2459 90.1354 35.2757 90.1354ZM44.7797 90.2897C44.7946 90.2897 44.8096 90.2946 44.8195 90.3046C44.8295 90.3146 44.8344 90.3295 44.8344 90.3444C44.8344 90.7227 44.7697 91.1159 44.5656 91.524C44.5606 91.539 44.5457 91.5489 44.5308 91.5539C44.5158 91.5589 44.5009 91.5589 44.486 91.5489C44.471 91.544 44.4611 91.529 44.4561 91.5141C44.4511 91.4992 44.4511 91.4842 44.4611 91.4693C44.6552 91.0811 44.7199 90.7078 44.7199 90.3444C44.7199 90.3295 44.7249 90.3146 44.7349 90.3046C44.7498 90.2946 44.7648 90.2897 44.7797 90.2897ZM36.7344 90.4689C36.7394 90.4689 36.7444 90.4689 36.7494 90.4689L38.6661 90.9069C38.681 90.9118 38.696 90.9218 38.7009 90.9317C38.7059 90.9417 38.7109 90.9616 38.7059 90.9765C38.7009 91.0064 38.6661 91.0263 38.6362 91.0213L36.7145 90.5833C36.6847 90.5784 36.6647 90.5435 36.6697 90.5136C36.6847 90.4888 36.7046 90.4689 36.7344 90.4689ZM42.0316 91.2802C42.0614 91.2802 42.0813 91.3001 42.0863 91.3299C42.0863 91.3449 42.0863 91.3598 42.0764 91.3747C42.0664 91.3847 42.0515 91.3946 42.0365 91.3946C41.5935 91.4544 41.2798 91.6435 40.9562 91.8526C40.9313 91.8675 40.8965 91.8625 40.8765 91.8376C40.8666 91.8227 40.8666 91.8078 40.8666 91.7928C40.8716 91.7779 40.8765 91.763 40.8915 91.758C41.2151 91.5489 41.5486 91.3498 42.0166 91.2851C42.0266 91.2802 42.0316 91.2802 42.0316 91.2802ZM37.1676 91.9173C37.1725 91.9173 37.1775 91.9173 37.1825 91.9173L38.3873 92.191C38.4172 92.196 38.4371 92.2308 38.4321 92.2607C38.4271 92.2756 38.4221 92.2906 38.4072 92.2955C38.3923 92.3055 38.3773 92.3055 38.3624 92.3055L37.1576 92.0317C37.1427 92.0268 37.1277 92.0218 37.1228 92.0068C37.1128 91.9919 37.1128 91.977 37.1178 91.9621C37.1178 91.9322 37.1377 91.9173 37.1676 91.9173ZM40.5579 91.982C40.5778 91.982 40.5928 91.9919 40.6027 92.0118C40.6127 92.0268 40.6127 92.0417 40.6077 92.0566C40.6027 92.0716 40.5928 92.0815 40.5828 92.0915C40.1995 92.3154 39.7464 92.4996 39.0544 92.4598C39.0245 92.4598 38.9997 92.4299 38.9997 92.4001C38.9997 92.3851 39.0096 92.3702 39.0196 92.3602C39.0295 92.3503 39.0445 92.3453 39.0594 92.3453C39.7265 92.3801 40.1497 92.2109 40.5231 91.9919C40.533 91.9869 40.543 91.982 40.5579 91.982ZM43.1816 93.4353C43.1915 93.4353 43.2015 93.4403 43.2115 93.4453C43.2264 93.4553 43.2314 93.4652 43.2364 93.4801C43.2413 93.4951 43.2364 93.51 43.2264 93.5249C42.8729 94.0426 42.2556 94.381 41.7727 94.2815C41.7428 94.2765 41.7229 94.2466 41.7279 94.2118C41.7329 94.1969 41.7378 94.1819 41.7528 94.177C41.7677 94.167 41.7826 94.167 41.7976 94.167C42.2108 94.2516 42.8032 93.948 43.1368 93.4602C43.1467 93.4453 43.1617 93.4353 43.1816 93.4353ZM54.438 98.8805C54.4529 98.8805 54.4678 98.8855 54.4778 98.8955L55.812 100.095C55.822 100.105 55.8319 100.12 55.8319 100.135C55.8319 100.15 55.827 100.165 55.817 100.175C55.807 100.185 55.7921 100.195 55.7772 100.195C55.7622 100.195 55.7473 100.19 55.7374 100.18L54.4031 98.9801C54.3932 98.9701 54.3832 98.9552 54.3832 98.9403C54.3832 98.9253 54.3882 98.9104 54.3981 98.9005C54.4031 98.8855 54.423 98.8805 54.438 98.8805Z" fill="#F8B68A"/>
<path d="M72.4994 117.406C72.5342 117.411 72.5641 117.436 72.5741 117.471L74.0079 124.295C74.0129 124.315 74.0079 124.34 73.9979 124.355C73.988 124.374 73.968 124.384 73.9481 124.389C73.9282 124.394 73.9033 124.389 73.8884 124.379C73.8685 124.37 73.8585 124.35 73.8535 124.33L72.4197 117.506C72.4098 117.461 72.4396 117.421 72.4795 117.411C72.4845 117.406 72.4944 117.406 72.4994 117.406Z" fill="#1F120C"/>
<path d="M191.278 179.911C191.278 179.911 189.162 179.528 189.756 181.235C189.756 181.235 194.67 183.342 198.115 182.872C198.115 182.872 200.528 182.785 200.144 180.173L200.179 178.048L196.943 178.657L197.136 180.678L191.278 179.911Z" fill="#FFBE9D"/>
<g filter="url(#filter2_f_5078_32296)">
<path d="M196.816 180.006C196.816 180.337 196.711 180.668 196.484 180.912C195.645 181.887 193.966 181.922 192.794 181.835C190.941 181.713 188.999 181.434 187.181 181.051C186.779 180.964 186.674 180.842 186.656 180.72C186.866 180.25 187.251 179.849 187.915 179.727L186.114 179.501C184.453 179.449 183.701 179.814 183.316 180.076C182.862 181.382 185.082 182.252 185.082 182.252C185.082 182.252 187.461 183.141 190.311 183.698C190.311 183.698 196.606 185.178 197.376 183.245L196.816 180.006Z" fill="url(#paint0_linear_5078_32296)" fill-opacity="0.3"/>
</g>
<g filter="url(#filter3_f_5078_32296)">
<path d="M211.051 176.447C211.051 176.778 210.946 177.109 210.719 177.353C209.88 178.328 208.201 178.363 207.029 178.276C205.175 178.154 203.234 177.875 201.416 177.492C201.014 177.405 200.909 177.283 200.891 177.161C201.101 176.691 201.486 176.291 202.15 176.169L200.349 175.942C198.688 175.89 197.936 176.256 197.551 176.517C197.096 177.823 199.317 178.694 199.317 178.694C199.317 178.694 201.696 179.582 204.546 180.139C204.546 180.139 210.841 181.619 211.611 179.686L211.051 176.447Z" fill="url(#paint1_linear_5078_32296)" fill-opacity="0.4"/>
</g>
<path d="M200.142 180.174C200.142 180.505 200.037 180.835 199.809 181.079C198.97 182.054 197.291 182.089 196.12 182.002C194.266 181.88 192.325 181.602 190.506 181.219C190.104 181.131 189.999 181.01 189.982 180.888C190.191 180.417 190.576 180.017 191.241 179.895L189.44 179.669C187.778 179.616 187.026 179.982 186.642 180.243C186.187 181.549 188.408 182.42 188.408 182.42C188.408 182.42 190.786 183.308 193.636 183.866C193.636 183.866 199.932 185.346 200.701 183.413L200.142 180.174Z" fill="#2C2C2C"/>
<path d="M203.779 176.986C203.779 176.986 201.663 176.603 202.257 178.31C202.257 178.31 207.171 180.417 210.616 179.947C210.616 179.947 213.029 179.86 212.645 177.248L212.68 175.123L209.444 175.733L209.637 177.753L203.779 176.986Z" fill="#E59375"/>
<path d="M212.663 177.265C212.663 177.596 212.558 177.927 212.33 178.171C211.491 179.146 209.812 179.181 208.641 179.094C206.787 178.972 204.846 178.693 203.027 178.31C202.625 178.223 202.52 178.101 202.503 177.979C202.713 177.509 203.097 177.108 203.762 176.987L201.961 176.76C200.299 176.708 199.547 177.074 199.163 177.335C198.708 178.641 200.929 179.512 200.929 179.512C200.929 179.512 203.307 180.4 206.158 180.957C206.158 180.957 212.453 182.437 213.222 180.504L212.663 177.265Z" fill="#2C2C2C"/>
<path d="M203.202 120.319C203.202 123.628 205.895 126.31 209.218 126.31C212.54 126.31 215.233 123.628 215.233 120.319C215.233 117.01 212.54 114.328 209.218 114.328C205.895 114.328 203.202 117.01 203.202 120.319Z" fill="#00468B"/>
<path d="M213.013 149.175C213.013 149.175 212.926 150.69 210.215 150.725C210.215 150.725 207.645 151.596 206.525 148.269C202.154 135.139 203.308 121.433 203.308 121.433C203.308 121.433 209.481 118.003 215.234 120.354C215.234 120.319 214.307 137.559 213.013 149.175Z" fill="#23282B"/>
<path d="M206.525 148.253C206.525 148.253 208.641 176.638 208.851 177.649C210.915 178.955 212.751 177.614 212.751 177.614C212.733 176.221 214.272 164.605 214.429 162.428C214.692 158.684 215.146 153.947 212.768 148.566L206.525 148.253Z" fill="#23282B"/>
<path d="M195.561 150.029C195.561 150.029 194.984 151.422 192.396 150.569C192.396 150.569 189.685 150.551 189.738 147.033C189.982 133.189 196.068 118.857 196.068 118.857C196.068 118.857 202.923 118.212 207.574 122.322C207.592 122.305 200.65 139.51 195.561 150.029Z" fill="#23282A"/>
<path d="M196.244 118.334C195.142 121.451 196.786 124.881 199.934 125.979C203.064 127.076 206.509 125.439 207.61 122.304C208.712 119.187 207.068 115.756 203.921 114.659C200.773 113.579 197.346 115.216 196.244 118.334Z" fill="#23282B"/>
<path d="M215.233 119.448C214.499 112.779 211.141 109.696 211.141 109.696L199.513 108.233C199.513 108.233 196.312 113.789 195.963 119.448C197.362 123.227 202.31 124.325 202.31 124.325L206.07 125.439C206.088 125.439 214.621 124.15 215.233 119.448Z" fill="#23282B"/>
<path d="M190.298 149.784C190.298 149.784 196.069 179.616 196.419 180.573C196.261 180.504 199.147 181.897 200.423 180.103C200.213 178.728 200.091 163.577 199.916 161.4C199.619 157.656 199.671 154.156 196.524 149.192C196.506 149.192 188.619 143.567 190.298 149.784Z" fill="#23282A"/>
<path d="M216.091 97.5769C216.091 97.5769 213.975 100.067 209.761 106.058L210.495 107.294C210.495 107.294 217.717 103.672 220.008 99.6145L216.091 97.5769Z" fill="#FFBE9D"/>
<path d="M210.128 88.6762C210.128 88.6762 215.567 100.483 218.819 100.03C218.819 100.03 219.939 100.1 220.166 99.2642C220.166 99.2642 222.474 97.2267 212.891 82.5462C212.891 82.5462 211.947 81.2924 210.041 81.6232C210.041 81.6232 207.138 83.5388 210.128 88.6762Z" fill="#FFBE9D"/>
<path d="M207.225 79.4292H201.349V85.6462H207.225V79.4292Z" fill="#FFBE9D"/>
<path d="M197.712 79.5867L197.484 78.5941L197.047 75.4072C196.995 74.9544 197.099 74.3623 197.257 73.927C197.449 73.4568 197.607 72.9517 197.554 72.4119C197.327 69.8171 199.023 68.1453 199.023 68.1453C201.034 66.0207 204.881 66.5257 204.899 66.5257C206.892 66.9089 208.606 67.7448 209.498 69.4514C210.32 71.0013 210.687 72.8647 210.04 74.5016C209.34 76.3128 208.099 77.6885 206.508 78.925C205.493 79.7086 204.497 79.7609 203.202 80.1092C202.311 80.353 200.614 80.44 199.67 80.3878C199.198 80.3878 197.834 80.144 197.712 79.5867Z" fill="#FFBE9D"/>
<path d="M200.387 76.2073C200.684 75.7894 201.733 75.5456 201.733 75.5456C203.01 75.5456 202.835 77.2348 202.957 77.9662C202.992 78.21 203.045 78.4538 203.097 78.6976C203.709 80.8571 205.528 80.8396 207.084 81.1009C207.137 81.066 207.207 81.0312 207.259 80.9964C207.539 80.0386 208.431 79.0459 208.431 79.0459C210.757 77.0433 211.526 73.421 210.634 70.5824C210.372 69.7291 209.795 68.8061 209.183 68.1618C207.871 66.7686 206.175 66.0198 204.356 65.6889C202.555 65.358 196.085 66.2288 197.851 70.1296C197.851 70.1296 200.509 73.1772 200.387 76.2073Z" fill="#B07341"/>
<path d="M200.388 76.2081C200.616 75.6334 201.193 75.1806 201.822 75.3722C202.294 75.5115 202.574 75.9295 202.522 76.3997C202.504 76.5042 202.487 76.6086 202.487 76.7131C202.294 77.8277 201.123 78.2456 201.123 78.2456" fill="#FFBE9D"/>
<path d="M201.699 75.8937C201.629 75.8415 201.507 75.8241 201.419 75.8241C200.982 75.7892 200.65 76.451 201.069 76.5729C201.227 76.7296 201.069 76.9038 201.069 76.9038C200.93 77.0605 200.72 77.2869 200.772 77.5133C200.807 77.6526 200.947 77.7223 201.087 77.7571C201.192 77.7919 201.209 77.7049 201.122 77.6526C201.052 77.6178 201 77.5655 200.965 77.5133C200.965 77.5133 200.965 77.4959 200.947 77.4959C200.947 77.4959 200.947 77.4785 200.93 77.4785C200.912 77.4436 200.912 77.4088 200.93 77.374C201.034 77.4436 201.192 77.461 201.262 77.374C201.349 77.2695 201.279 77.1302 201.314 77.0083C201.332 76.9386 201.367 76.8515 201.419 76.7819C201.612 76.451 201.262 76.3988 201.262 76.3988C201.209 76.3988 201.174 76.3988 201.139 76.4162C200.965 76.3291 201.157 76.0505 201.262 76.0156C201.384 75.9634 201.542 75.9808 201.629 76.0853C201.716 76.1898 201.751 76.3291 201.751 76.4684C201.734 76.6251 201.699 76.7819 201.629 76.9212C201.594 77.0083 201.542 77.0953 201.507 77.1824C201.454 77.2695 201.577 77.3217 201.612 77.2172C201.699 77.0257 201.874 76.747 201.909 76.4684C201.944 76.2594 201.909 76.033 201.699 75.8937Z" fill="#E59378"/>
<path d="M200.388 76.208C200.388 76.208 200.441 76.1384 200.528 75.9991C200.563 75.9294 200.633 75.8772 200.703 75.7901C200.773 75.7204 200.878 75.6333 200.965 75.5811C201.07 75.5289 201.193 75.4592 201.333 75.4418C201.472 75.4244 201.612 75.4244 201.752 75.4766C201.805 75.494 201.91 75.5289 201.962 75.5637C202.015 75.5985 202.067 75.6333 202.137 75.6856C202.242 75.7901 202.329 75.912 202.364 76.0687C202.399 76.2254 202.399 76.3648 202.364 76.5389L202.347 76.6608V76.6782C202.347 76.6782 202.347 76.6956 202.347 76.6608V76.6956L202.329 76.7653C202.312 76.8524 202.294 76.922 202.277 76.9917C202.224 77.131 202.154 77.2703 202.084 77.3922C202.015 77.5141 201.91 77.6186 201.822 77.7057C201.647 77.8798 201.472 78.0191 201.333 78.1062C201.21 78.1933 201.123 78.2281 201.123 78.2281C201.123 78.2281 201.21 78.2107 201.35 78.1585C201.49 78.0888 201.7 78.0017 201.927 77.8276C202.032 77.7405 202.154 77.636 202.242 77.5141C202.347 77.3922 202.434 77.2529 202.504 77.0788C202.539 76.9917 202.574 76.9046 202.592 76.8175L202.609 76.7479V76.7131V76.6956V76.6782L202.627 76.5563C202.662 76.3996 202.662 76.1732 202.627 75.9816C202.574 75.7901 202.452 75.6159 202.312 75.4766C202.277 75.4418 202.242 75.407 202.189 75.3895L202.049 75.3199C201.962 75.2851 201.91 75.2502 201.787 75.2328C201.612 75.1806 201.42 75.198 201.263 75.2328C201.105 75.2676 200.965 75.3547 200.843 75.4418C200.72 75.5463 200.651 75.6159 200.581 75.7204C200.528 75.8249 200.458 75.8946 200.441 75.9642C200.406 76.121 200.388 76.208 200.388 76.208Z" fill="#E59378"/>
<path d="M201.121 77.9838C201.121 78.1753 200.964 78.3321 200.772 78.3321C200.579 78.3321 200.422 78.1753 200.422 77.9838C200.422 77.7922 200.579 77.6355 200.772 77.6355C200.964 77.6355 201.121 77.7922 201.121 77.9838Z" fill="white"/>
<path d="M200.842 78.1753C200.685 78.1753 200.562 78.0534 200.562 77.8967C200.562 77.7748 200.65 77.6703 200.755 77.6355C200.562 77.6355 200.405 77.7922 200.405 77.9838C200.405 78.1753 200.562 78.3321 200.755 78.3321C200.947 78.3321 201.105 78.1753 201.105 77.9838V77.9663C201.087 78.0882 200.982 78.1753 200.842 78.1753Z" fill="#E6E7E8"/>
<path d="M211.962 102.974C211.665 101.616 211.595 98.4115 211.595 98.4115L212.627 84.9326C212.382 83.313 212.277 81.2407 210.056 81.6064C208.5 81.8676 208.185 82.0766 207.223 82.39C207.503 83.7135 205.212 84.5494 205.212 84.5494C202.064 85.9078 201.348 85.0022 201.348 85.0022C200.508 85.455 197.675 86.8656 196.941 87.4577C196.171 88.0846 195.717 89.0598 195.962 90.6968L198.217 104.158L197.815 107.502L195.227 118.821C195.227 118.821 210.948 122.078 214.882 114.346L211.962 102.974Z" fill="url(#paint2_linear_5078_32296)"/>
<path d="M188.669 106.16L197.43 96.0939C197.43 96.0939 202.676 89.5635 198.619 87.4911C198.619 87.4911 196.363 86.8468 193.531 90.3471L184.35 103.896C184.35 103.896 185.312 105.933 188.669 106.16Z" fill="#FFBE9D"/>
<path d="M214.289 75.8764C214.096 80.5435 212.435 85.0017 212.697 89.721C212.837 92.0894 213.327 94.4404 213.607 96.7914C209.008 95.7117 208.605 91.776 208.605 87.7532C208.605 83.9742 210.547 78.2796 209.2 74.6922C208.658 73.2642 206.664 71.8885 206.874 70.2167C207.084 68.5623 209.2 68.1269 210.616 68.4752C213.659 69.2589 214.394 73.2294 214.289 75.8764Z" fill="#A36B3C"/>
<path d="M206.228 70.6166C206.035 69.8504 206.403 68.8403 207.032 68.3701C208.099 67.6039 209.638 67.5342 209.515 68.3701C209.463 68.701 208.344 67.987 207.294 69.4672C206.962 69.9374 206.735 72.6193 206.228 70.6166Z" fill="#303945"/>
<path d="M186.536 102.172L170.868 98.8456C169.312 99.7338 169.731 100.413 169.731 100.413L180.031 105.115C184.368 107.187 187.026 106.926 187.026 106.926C187.026 106.926 189.492 107.187 188.88 103.913C188.88 103.913 188.6 102.45 186.536 102.172Z" fill="#FFBE9D"/>
<path d="M171.306 98.9334C171.306 98.9334 170.834 97.5054 169.085 96.356L165.221 93.7264C165.221 93.7264 164.032 93.6916 165.028 94.632C165.028 94.632 163.787 94.1444 164.521 95.2415L166.987 97.1049C166.987 97.1049 165.78 100.257 169.995 100.536L171.306 98.9334Z" fill="#FFBE9D"/>
<defs>
<filter id="filter0_f_5078_32296" x="55.4167" y="175.45" width="19.8721" height="17.3615" filterUnits="userSpaceOnUse" color-interpolation-filters="sRGB">
<feFlood flood-opacity="0" result="BackgroundImageFix"/>
<feBlend mode="normal" in="SourceGraphic" in2="BackgroundImageFix" result="shape"/>
<feGaussianBlur stdDeviation="2.5" result="effect1_foregroundBlur_5078_32296"/>
</filter>
<filter id="filter1_f_5078_32296" x="76.6109" y="176.369" width="27.2622" height="18.6311" filterUnits="userSpaceOnUse" color-interpolation-filters="sRGB">
<feFlood flood-opacity="0" result="BackgroundImageFix"/>
<feBlend mode="normal" in="SourceGraphic" in2="BackgroundImageFix" result="shape"/>
<feGaussianBlur stdDeviation="2.5" result="effect1_foregroundBlur_5078_32296"/>
</filter>
<filter id="filter2_f_5078_32296" x="180.255" y="176.496" width="20.1209" height="10.7437" filterUnits="userSpaceOnUse" color-interpolation-filters="sRGB">
<feFlood flood-opacity="0" result="BackgroundImageFix"/>
<feBlend mode="normal" in="SourceGraphic" in2="BackgroundImageFix" result="shape"/>
<feGaussianBlur stdDeviation="1.5" result="effect1_foregroundBlur_5078_32296"/>
</filter>
<filter id="filter3_f_5078_32296" x="193.49" y="171.937" width="22.1209" height="12.7437" filterUnits="userSpaceOnUse" color-interpolation-filters="sRGB">
<feFlood flood-opacity="0" result="BackgroundImageFix"/>
<feBlend mode="normal" in="SourceGraphic" in2="BackgroundImageFix" result="shape"/>
<feGaussianBlur stdDeviation="2" result="effect1_foregroundBlur_5078_32296"/>
</filter>
<linearGradient id="paint0_linear_5078_32296" x1="182.662" y1="180.514" x2="195.71" y2="185.852" gradientUnits="userSpaceOnUse">
<stop stop-color="#2C2C2C"/>
<stop offset="1" stop-color="#2C2C2C" stop-opacity="0"/>
</linearGradient>
<linearGradient id="paint1_linear_5078_32296" x1="196.897" y1="176.955" x2="209.945" y2="182.293" gradientUnits="userSpaceOnUse">
<stop stop-color="#2C2C2C"/>
<stop offset="1" stop-color="#2C2C2C" stop-opacity="0"/>
</linearGradient>
<linearGradient id="paint2_linear_5078_32296" x1="205.053" y1="81.0241" x2="205.058" y2="125.388" gradientUnits="userSpaceOnUse">
<stop stop-color="#00937D"/>
<stop offset="0.9939" stop-color="#81CEC3"/>
</linearGradient>
<clipPath id="clip0_5078_32296">
<rect width="83.0745" height="161.833" fill="white" transform="translate(97.0563)"/>
</clipPath>
</defs>
</svg>
