<svg width="22" height="22" viewBox="0 0 22 22" fill="none" xmlns="http://www.w3.org/2000/svg">
<path d="M19.314 4.79482C17.8382 4.64815 16.3624 4.53815 14.8774 4.45565V4.44648L14.6757 3.25482C14.5382 2.41148 14.3365 1.14648 12.1915 1.14648H9.78986C7.65403 1.14648 7.45236 2.35648 7.30569 3.24565L7.11319 4.41898C6.26069 4.47398 5.40819 4.52898 4.55569 4.61148L2.68569 4.79482C2.30069 4.83148 2.02569 5.17065 2.06236 5.54648C2.09903 5.92232 2.42903 6.19732 2.81403 6.16065L4.68403 5.97732C9.48736 5.50065 14.3274 5.68398 19.1857 6.16982C19.2132 6.16982 19.2315 6.16982 19.259 6.16982C19.6074 6.16982 19.9099 5.90398 19.9465 5.54648C19.974 5.17065 19.699 4.83148 19.314 4.79482Z" fill="white"/>
<path d="M17.6276 7.46102C17.4076 7.23185 17.1051 7.10352 16.7934 7.10352H5.20676C4.8951 7.10352 4.58343 7.23185 4.3726 7.46102C4.16176 7.69018 4.0426 8.00185 4.06093 8.32268L4.62926 17.7277C4.7301 19.121 4.85843 20.8627 8.0576 20.8627H13.9426C17.1418 20.8627 17.2701 19.1302 17.3709 17.7277L17.9393 8.33185C17.9576 8.00185 17.8384 7.69018 17.6276 7.46102ZM12.5218 16.2702H9.46926C9.09343 16.2702 8.78176 15.9585 8.78176 15.5827C8.78176 15.2068 9.09343 14.8952 9.46926 14.8952H12.5218C12.8976 14.8952 13.2093 15.2068 13.2093 15.5827C13.2093 15.9585 12.8976 16.2702 12.5218 16.2702ZM13.2918 12.6035H8.70843C8.3326 12.6035 8.02093 12.2918 8.02093 11.916C8.02093 11.5402 8.3326 11.2285 8.70843 11.2285H13.2918C13.6676 11.2285 13.9793 11.5402 13.9793 11.916C13.9793 12.2918 13.6676 12.6035 13.2918 12.6035Z" fill="white"/>
</svg>
