<svg width="253" height="153" viewBox="0 0 253 153" fill="none" xmlns="http://www.w3.org/2000/svg">
<path d="M253 151.39C253 150.895 198.239 151.012 128.383 151.012C58.5271 151.012 0 150.895 0 151.39C0 151.886 58.4968 152 128.383 152C198.239 152 253 151.886 253 151.39Z" fill="#81CEC3"/>
<path d="M15.4863 117.125C15.4863 117.125 18.388 116.062 19.141 119.143C19.8941 122.223 22.0427 121.434 22.4511 120.755C23.2552 119.424 23.3659 114.607 21.9874 114.317C20.3153 113.968 16.0437 115.717 15.4863 117.125Z" fill="#81CEC3"/>
<g opacity="0.4">
<path d="M15.4863 117.12C15.4863 117.12 18.388 116.058 19.141 119.138C19.8941 122.219 22.0427 121.429 22.4511 120.751C23.2552 119.42 23.3659 114.603 21.9874 114.313C20.3153 113.963 16.0437 115.712 15.4863 117.12Z" fill="#1E919E"/>
</g>
<path d="M21.9656 114.317C18.5619 114.364 17.66 117.363 17.1111 120.008L16.0049 117.956L16.7878 121.634C16.7027 122.039 16.6176 122.41 16.5155 122.73C16.247 123.514 15.8069 124.227 15.2275 124.818C14.648 125.409 13.944 125.862 13.1671 126.144C13.1671 126.144 13.0139 125.085 12.8778 123.584L14.1201 121.63L12.7714 122.197C12.6225 119.868 12.6012 117.077 13.1671 115.469C14.2605 112.384 17.1962 113.336 17.1962 113.336L21.9656 114.317Z" fill="#41CBD6"/>
<path d="M30.4495 111.076C30.4495 111.076 28.6626 110.534 26.7906 113.099C24.9909 115.565 24.2718 115.855 23.0508 114.895C21.8297 113.935 22.5658 108.559 23.9485 108.269C25.595 107.923 29.8667 109.673 30.4495 111.076Z" fill="#81CEC3"/>
<g opacity="0.4">
<path d="M30.4495 111.078C30.4495 111.078 28.6626 110.537 26.7906 113.101C24.9909 115.567 24.2718 115.857 23.0508 114.897C21.8297 113.937 22.5658 108.561 23.9485 108.271C25.595 107.925 29.8667 109.675 30.4495 111.078Z" fill="#1E919E"/>
</g>
<path d="M36.1882 125.085C34.696 124.538 33.3951 123.567 32.4441 122.291L34.414 117.657L31.7123 121.032C31.5938 120.773 31.4929 120.507 31.4102 120.234C30.2402 116.518 30.4785 108.446 23.752 108.348L30.4444 106.82C30.4444 106.82 34.631 105.464 36.1924 109.867C36.6132 111.269 36.8366 112.724 36.8561 114.189L34.4182 111.927C34.4182 111.927 36.1201 114.385 36.8817 115.409C36.8618 118.646 36.6301 121.878 36.1882 125.085Z" fill="#41CBD6"/>
<path d="M13.4219 103.928C13.4219 103.928 16.3278 102.866 17.0808 105.951C17.8339 109.035 21.612 110.217 22.0034 108.707C22.4289 107.098 21.5014 101.368 20.1186 101.078C18.4636 100.733 14.0048 102.525 13.4219 103.928Z" fill="#81CEC3"/>
<g opacity="0.4">
<path d="M13.4219 103.928C13.4219 103.928 16.3278 102.866 17.0808 105.951C17.8339 109.035 21.612 110.217 22.0034 108.707C22.4289 107.098 21.5014 101.368 20.1186 101.078C18.4636 100.733 14.0048 102.525 13.4219 103.928Z" fill="#1E919E"/>
</g>
<path d="M20.2419 101.105C14.7407 101.186 13.8175 106.651 13.0091 110.683L10.2053 106.626C10.2394 106.745 11.7242 111.583 12.3028 113.499C11.0265 116.887 7.66532 117.936 7.66532 117.936C7.66532 117.936 6.73356 111.464 7.03139 106.493L9.30335 104.595L7.15477 105.128C7.23679 104.308 7.408 103.5 7.66532 102.718C9.22676 98.3189 13.4175 99.6756 13.4175 99.6756L20.2419 101.105Z" fill="#41CBD6"/>
<path d="M22.4293 128.046C22.3789 128.04 22.3329 128.014 22.3012 127.974C22.2694 127.935 22.2543 127.884 22.2592 127.833C23.3464 117.248 22.346 106.552 19.315 96.355C19.2986 96.3063 19.3019 96.2531 19.3242 96.2069C19.3464 96.1606 19.3859 96.1249 19.4341 96.1075C19.4826 96.0926 19.5351 96.0971 19.5803 96.1202C19.6256 96.1433 19.6601 96.1831 19.6766 96.2312C19.7277 96.372 24.5269 110.789 22.6123 127.876C22.6072 127.922 22.586 127.964 22.5524 127.995C22.5188 128.027 22.4752 128.045 22.4293 128.046Z" fill="#59B6B4"/>
<path d="M29.8307 126.81H15.1055V128.879H29.8307V126.81Z" fill="#263238"/>
<path opacity="0.2" d="M29.8307 126.81H15.1055V128.879H29.8307V126.81Z" fill="white"/>
<path d="M27.4537 128.879H17.4044C16.2003 131.686 12.2988 139.971 12.2988 142.416C12.2988 145.313 15.8982 151.346 15.8982 151.346C15.8982 151.773 28.9641 151.773 28.9641 151.346C28.9641 151.346 32.5635 145.313 32.5635 142.416C32.5635 139.971 28.6748 131.686 27.4537 128.879Z" fill="#707071"/>
<path d="M113.887 51.2461H78.7168V23.3888V21.0219H85.7266L88.9433 23.3888H113.887V51.2461Z" fill="#41CBD6"/>
<path d="M112.732 25.9985H79.959V27.6675H112.732V25.9985Z" fill="#F1F2F2"/>
<path d="M114.582 51.2462H77.2867C76.7101 51.2462 76.2246 50.7607 76.2246 50.1841V28.7297C76.2246 28.1531 76.7101 27.6676 77.2867 27.6676H114.582C115.158 27.6676 115.644 28.1531 115.644 28.7297V50.1841C115.644 50.791 115.158 51.2462 114.582 51.2462Z" fill="#41CBD6"/>
<path d="M113.371 49.8806H77.229C76.6525 49.8806 76.1973 49.4254 76.1973 48.8488V28.669C76.1973 28.0924 76.6525 27.6372 77.229 27.6372H113.371C113.947 27.6372 114.402 28.0924 114.402 28.669V48.8488C114.402 49.4254 113.947 49.8806 113.371 49.8806Z" fill="#41CBD6"/>
<path d="M114.641 53.9774H84.0527V29.7312V27.6677H90.1219L92.944 29.7312H114.641V53.9774Z" fill="#F3B344"/>
<path d="M113.64 32.0072H85.1152V33.4638H113.64V32.0072Z" fill="#F1F2F2"/>
<path d="M115.248 53.9774H82.7786C82.2627 53.9774 81.8379 53.5526 81.8379 53.0367V34.3438C81.8379 33.8279 82.2627 33.4031 82.7786 33.4031H115.248C115.764 33.4031 116.189 33.8279 116.189 34.3438V53.0671C116.189 53.5829 115.764 53.9774 115.248 53.9774Z" fill="#E5A03C"/>
<path d="M114.214 52.7939H82.7453C82.2597 52.7939 81.8652 52.3994 81.8652 51.9139V34.3438C81.8652 33.8582 82.2597 33.4637 82.7453 33.4637H114.214C114.699 33.4637 115.094 33.8582 115.094 34.3438V51.9139C115.094 52.3994 114.699 52.7939 114.214 52.7939Z" fill="#F3B344"/>
<path d="M153.212 48.3027H128.844C128.51 48.3027 128.207 48.0296 128.207 47.6655V34.6775C128.207 34.3437 128.48 34.0403 128.844 34.0403H153.212C153.546 34.0403 153.849 34.3134 153.849 34.6775V47.6655C153.849 48.0296 153.546 48.3027 153.212 48.3027Z" fill="#F1F2F2"/>
<path d="M141.015 25.0276L128.483 34.0706C128.391 34.1313 128.452 34.283 128.543 34.283H153.457C153.578 34.283 153.609 34.1313 153.518 34.0706L141.015 25.0276Z" fill="#41CBD6"/>
<path d="M148.294 27.6676H133.729V45.1164H148.294V27.6676Z" fill="#F7F7F7"/>
<path d="M148.294 32.6746V45.1163H133.729V42.021L148.294 32.6746Z" fill="#E4E5EA"/>
<path d="M146.048 30.0042H135.912V30.4593H146.048V30.0042Z" fill="#DDDDDD"/>
<g opacity="0.35">
<path d="M146.534 33.585H137.976C137.642 33.585 137.369 33.3422 137.369 33.0388C137.369 32.7353 137.642 32.4926 137.976 32.4926H146.534C146.867 32.4926 147.14 32.7353 147.14 33.0388C147.14 33.3422 146.867 33.585 146.534 33.585Z" fill="#D1CBCB"/>
<path d="M146.595 36.3465H137.947C137.643 36.3465 137.4 36.1037 137.4 35.8003C137.4 35.4968 137.643 35.254 137.947 35.254H146.595C146.899 35.254 147.141 35.4968 147.141 35.8003C147.141 36.1037 146.899 36.3465 146.595 36.3465Z" fill="#D1CBCB"/>
<path d="M136.398 36.4982H135.154C135.032 36.4982 134.941 36.4072 134.941 36.2858V35.254C134.941 35.1327 135.032 35.0416 135.154 35.0416H136.398C136.519 35.0416 136.61 35.1327 136.61 35.254V36.2858C136.61 36.4072 136.519 36.4982 136.398 36.4982Z" fill="#DDDDDD"/>
<path d="M136.398 39.2597H135.154C135.032 39.2597 134.941 39.1686 134.941 39.0473V38.0155C134.941 37.8941 135.032 37.8031 135.154 37.8031H136.398C136.519 37.8031 136.61 37.8941 136.61 38.0155V39.0473C136.61 39.1686 136.519 39.2597 136.398 39.2597Z" fill="#DDDDDD"/>
<path d="M136.425 42.0211H135.151C135.06 42.0211 134.969 41.9301 134.969 41.839V40.7769C134.969 40.6859 135.06 40.5948 135.151 40.5948H136.425C136.516 40.5948 136.607 40.6859 136.607 40.7769V41.839C136.607 41.9604 136.516 42.0211 136.425 42.0211Z" fill="#DDDDDD"/>
<path d="M136.398 33.7367H135.154C135.032 33.7367 134.941 33.6457 134.941 33.5243V32.4926C134.941 32.3712 135.032 32.2802 135.154 32.2802H136.398C136.519 32.2802 136.61 32.3712 136.61 32.4926V33.5243C136.61 33.6457 136.519 33.7367 136.398 33.7367Z" fill="#DDDDDD"/>
<path d="M146.534 39.1079H137.976C137.642 39.1079 137.369 38.8652 137.369 38.5617C137.369 38.2583 137.642 38.0155 137.976 38.0155H146.534C146.867 38.0155 147.14 38.2583 147.14 38.5617C147.14 38.8652 146.867 39.1079 146.534 39.1079Z" fill="#D1CBCB"/>
<path d="M146.534 41.8694H137.976C137.642 41.8694 137.369 41.6267 137.369 41.3232C137.369 41.0197 137.642 40.777 137.976 40.777H146.534C146.867 40.777 147.14 41.0197 147.14 41.3232C147.14 41.6267 146.867 41.8694 146.534 41.8694Z" fill="#D1CBCB"/>
</g>
<path d="M148.603 40.5948L146.327 41.8997L145.144 40.9893L144.719 41.5356L141.108 44.1149L137.618 41.5356L136.92 40.9893L135.736 41.8997L133.491 40.6252C133.339 40.6252 133.248 40.8376 133.248 41.1107V47.2405C133.248 47.5137 133.369 47.7261 133.491 47.7261H148.603C148.755 47.7261 148.846 47.5137 148.846 47.2405V41.1107C148.846 40.8073 148.724 40.5948 148.603 40.5948Z" fill="#0046A4"/>
<path d="M136.889 40.9894L128.24 34.4651C128.21 34.5561 128.18 34.6168 128.18 34.7078V47.6655L136.889 40.9894Z" fill="#41CBD6"/>
<path d="M153.852 47.6655V34.7078C153.852 34.6168 153.821 34.5258 153.791 34.4651L145.143 40.9894L153.852 47.6655Z" fill="#41CBD6"/>
<path d="M153.215 48.3027C153.367 48.3027 153.519 48.242 153.64 48.151L144.718 41.5356L141.107 44.115L137.617 41.5356L128.908 48.3331H153.215V48.3027Z" fill="url(#paint0_linear_2507_93664)"/>
<path d="M123.837 44.0239L103.566 39.6541C102.868 39.5024 102.413 38.8044 102.564 38.1065L105.356 25.1489C105.508 24.4509 106.206 23.9958 106.904 24.1475L127.175 28.5173C127.873 28.669 128.328 29.3669 128.176 30.0649L125.384 43.0225C125.233 43.7204 124.535 44.1756 123.837 44.0239Z" fill="#41CBD6"/>
<path d="M123.501 42.9618L103.685 38.6831C103.017 38.5314 102.593 37.8638 102.714 37.1962L105.324 25.0579C105.475 24.3903 106.143 23.9654 106.811 24.0868L126.626 28.3656C127.294 28.5173 127.719 29.1849 127.597 29.8525L124.988 41.9908C124.836 42.6887 124.168 43.1136 123.501 42.9618Z" fill="white"/>
<path d="M119.588 33.9492L116.948 36.1947L113.883 29.6704L102.716 37.621C102.686 38.1672 103.171 38.7134 103.9 38.8652L123.291 43.0528C124.08 43.2349 124.808 42.9011 124.96 42.3246L125.263 40.868L119.588 33.9492Z" fill="#41CBD6"/>
<path d="M123.414 31.3394C123.262 32.0374 122.564 32.4925 121.867 32.3408C121.169 32.1891 120.713 31.4911 120.865 30.7932C121.017 30.0952 121.715 29.64 122.413 29.7918C123.111 29.9435 123.566 30.6415 123.414 31.3394Z" fill="#41CBD6"/>
<path d="M73.6504 37.9548L85.5762 148.899C85.7583 150.628 87.2149 151.933 88.975 151.933H165.325C167.054 151.933 168.511 150.628 168.693 148.899L181.286 37.9548H73.6504Z" fill="#81CEC3"/>
<path d="M127.453 138.976C125.39 138.976 123.721 137.307 123.721 135.243V53.3099C123.721 51.2464 125.39 49.5774 127.453 49.5774C129.517 49.5774 131.186 51.2464 131.186 53.3099V135.243C131.186 137.307 129.517 138.976 127.453 138.976Z" fill="#41B1A0"/>
<path d="M106.88 138.642C104.847 138.885 102.996 137.428 102.723 135.395L92.7393 54.0686C92.4966 52.0354 93.9532 50.1843 95.9863 49.9112C98.0195 49.6684 99.8706 51.125 100.144 53.1582L110.127 134.485C110.37 136.548 108.914 138.399 106.88 138.642Z" fill="#41B1A0"/>
<path d="M147.391 138.642C149.424 138.885 151.275 137.428 151.548 135.395L161.532 54.0684C161.774 52.0353 160.318 50.1842 158.285 49.9111C156.252 49.6683 154.4 51.1249 154.127 53.1581L144.144 134.484C143.901 136.548 145.357 138.399 147.391 138.642Z" fill="#41B1A0"/>
<path d="M149.543 22.5695L144.415 21.1129L146.509 13.7693C146.691 13.132 146.327 12.4341 145.72 12.2823L122.323 5.60629C121.716 5.42422 121.049 5.81871 120.867 6.45597L118.773 13.7996L113.645 12.343L115.738 4.99938C116.77 1.38825 120.412 -0.735955 123.871 0.235106L147.298 6.91115C150.757 7.88221 152.73 11.6451 151.698 15.2562L149.543 22.5695Z" fill="#41B1A0"/>
<path d="M186.416 33.0995L79.7509 2.66279C78.5978 2.32899 77.4143 2.99659 77.0805 4.14973L74.4708 13.3445C74.137 14.4976 74.8046 15.6811 75.9577 16.0149L182.623 46.4819C183.776 46.8157 184.959 46.1481 185.293 44.995L187.903 35.8003C188.237 34.6168 187.569 33.4333 186.416 33.0995Z" fill="#41B1A0"/>
<path d="M241.596 94.3796L227.394 97.6569L224.785 86.3987L224.572 85.4276L227.394 84.7903L228.942 85.4579L239.017 83.1213L241.596 94.3796Z" fill="#F3B344"/>
<path d="M238.789 84.2951L225.541 87.343L225.697 88.0232L238.946 84.9752L238.789 84.2951Z" fill="#F1F2F2"/>
<path d="M241.865 94.3189L226.813 97.7783C226.571 97.839 226.328 97.6873 226.297 97.4445L224.295 88.7656C224.234 88.5229 224.386 88.2801 224.628 88.2498L239.71 84.7904C239.953 84.7297 240.196 84.8814 240.226 85.1242L242.229 93.803C242.259 94.0458 242.108 94.2582 241.865 94.3189Z" fill="#E5A03C"/>
<path d="M241.261 93.8637L226.665 97.2321C226.452 97.2928 226.21 97.1411 226.149 96.9286L224.267 88.7656C224.207 88.5532 224.358 88.3105 224.571 88.2498L239.167 84.8814C239.38 84.8207 239.622 84.9724 239.683 85.1849L241.564 93.3478C241.625 93.5906 241.504 93.8334 241.261 93.8637Z" fill="#F3B344"/>
<path d="M184.302 64.0947L164.031 59.7249C163.333 59.5732 162.877 58.8752 163.029 58.1773L165.821 45.2197C165.973 44.5217 166.671 44.0666 167.369 44.2183L187.64 48.5881C188.338 48.7398 188.793 49.4377 188.641 50.1357L185.849 63.0933C185.697 63.7912 185.03 64.2464 184.302 64.0947Z" fill="#41CBD6"/>
<path d="M184.001 63.0326L164.185 58.7539C163.517 58.6022 163.093 57.9346 163.214 57.267L165.824 45.1287C165.975 44.4611 166.643 44.0362 167.311 44.1576L187.126 48.4364C187.794 48.5881 188.219 49.2557 188.097 49.9233L185.488 62.0616C185.336 62.7595 184.668 63.1844 184.001 63.0326Z" fill="#DBFCFF"/>
<path d="M180.053 54.02L177.413 56.2655L174.348 49.7412L163.181 57.6918C163.151 58.238 163.636 58.7842 164.365 58.936L183.755 63.1237C184.544 63.3057 185.273 62.9719 185.424 62.3953L185.728 60.9388L180.053 54.02Z" fill="#41CBD6"/>
<path d="M183.906 51.4406C183.755 52.1386 183.057 52.5937 182.359 52.442C181.661 52.2903 181.206 51.5923 181.357 50.8944C181.509 50.1964 182.207 49.7412 182.905 49.893C183.603 50.0447 184.058 50.7123 183.906 51.4406Z" fill="#41CBD6"/>
<path d="M200.169 64.0644C200.169 64.0644 197.286 59.027 197.772 53.4434C198.227 47.8901 197.863 46.7977 199.441 45.2501C200.989 43.7024 204.205 42.4886 206.178 43.2169C208.15 43.9149 209.334 46.4032 210.123 47.6777C211.518 49.893 212.247 52.5937 212.49 55.1124C212.732 57.6311 211.852 59.6339 213.157 62.4561C214.553 65.5513 214.948 68.768 214.644 71.1046C214.341 73.4412 211.549 79.2372 208.423 78.2358C205.267 77.2344 201.474 63.4271 201.474 63.4271L200.169 64.0644Z" fill="#263238"/>
<path d="M201.93 61.3333C201.93 61.3333 202.567 59.2092 201.93 58.6933C201.293 58.1774 199.199 58.0864 198.804 55.8104C198.41 53.5042 198.41 49.802 199.442 48.1633C199.442 48.1633 202.325 50.682 204.631 50.8337C204.631 50.8337 205.359 55.8104 205.359 56.9332C205.359 58.056 205.359 58.4809 205.359 58.4809C205.359 58.4809 206.482 59.2092 206.907 59.7554C207.726 60.7568 205.663 65.4604 204.024 65.0962C202.385 64.7321 201.353 63.3058 201.353 63.3058L201.93 61.3333Z" fill="#FFBE9D"/>
<path d="M199.99 85.7615C199.99 85.7615 194.406 107.094 191.705 117.26C188.974 127.456 185.879 141.84 185.879 141.84H188.853C188.853 141.84 199.079 128.245 197.289 115.622C197.289 115.622 201.962 111.859 203.297 109.128C204.602 106.427 202.023 86.7325 199.99 85.7615Z" fill="#404040"/>
<path d="M199.99 85.7615C199.99 85.7615 203.783 113.346 204.33 116.198C204.33 116.198 208.396 141.203 209.215 143.631H212.341C212.341 143.631 215.74 123.815 210.308 114.711C210.308 114.711 217.5 92.7106 209.367 85.7918H199.99V85.7615Z" fill="#404040"/>
<path d="M185.876 141.871C185.876 141.871 182.902 146.089 180.99 146.089C179.079 146.089 176.499 146.756 178.017 148.82H181.719C181.719 148.82 185.057 147.606 185.876 144.753L186.331 144.875V148.82H187.302C187.302 148.82 189.245 143.358 188.88 141.901H185.876V141.871Z" fill="#455A64"/>
<path d="M209.15 143.57C209.15 143.57 207.359 148.425 205.539 148.911C203.718 149.396 201.381 150.732 203.384 152.31L206.965 151.339C206.965 151.339 210.242 149.245 210.273 146.271L210.667 146.362L211.395 150.094L212.336 150.125C212.336 150.125 212.791 144.936 212.366 143.6L209.15 143.57Z" fill="#455A64"/>
<path d="M212.885 71.7115C212.885 71.7115 220.228 82.2414 226.449 84.0015C226.449 84.0015 229.423 84.1229 229.18 85.4277C228.907 86.7326 230.728 86.9147 231.76 85.7615C232.792 84.6084 231.851 82.12 228.422 82.7877C228.422 82.7877 222.717 79.3282 220.623 76.0509C218.529 72.8039 215.009 68.7073 215.009 68.7073L212.885 71.7115Z" fill="#FFBE9D"/>
<path d="M186.969 63.852C186.969 63.852 187.364 59.6339 185.209 60.3319C183.025 60.9995 183.298 61.6367 183.449 62.365C183.571 63.1237 185.634 63.3968 185.634 63.852C185.634 64.3375 188.153 70.3156 189.974 72.3791C191.794 74.4426 194.07 76.0206 196.528 71.8936L194.859 67.979L193.008 70.5584C193.008 70.5584 189.397 67.6452 186.969 63.852Z" fill="#FFBE9D"/>
<path d="M207.331 59.8463C207.149 59.7553 206.997 59.6946 206.815 59.6036C206.481 62.9416 204.448 65.2175 203.113 64.2161C201.899 63.3057 201.474 62.8506 201.838 61.7278C202.415 59.9981 202.597 58.7842 201.838 59.3305C201.687 59.3912 201.626 59.4215 201.626 59.4215C201.626 59.4215 196.588 62.9416 194.768 67.1596C194.768 67.1596 194.707 69.4659 196.892 72.3791L198.804 69.9211C198.804 69.9211 198.47 73.866 199.077 76.5668C199.684 79.2979 200.018 85.7312 200.018 85.7312H209.394C209.394 85.7312 207.574 77.7806 208.302 75.5351C209.061 73.2895 210.335 70.0425 210.335 70.0425L212.581 72.1363L215.555 67.9183C215.555 67.979 210.79 61.5457 207.331 59.8463Z" fill="#81CEC3"/>
<path d="M203.295 109.128L201.08 93.439C200.837 91.77 201.747 90.1617 203.295 89.4941L210.153 86.5202C210.153 86.5202 210.153 86.5202 210.153 86.4898C209.971 86.3078 209.667 86.0347 209.303 85.7312H200.048C200.048 85.7312 199.198 89.0389 197.984 93.6514L203.052 109.613C203.113 109.492 203.204 109.31 203.295 109.128C203.265 109.158 203.265 109.158 203.295 109.128C203.416 110.038 203.538 110.888 203.659 111.677L203.295 109.128Z" fill="#4F4E4E"/>
<path d="M60.1986 59.1671C60.1986 59.1671 61.291 58.287 61.3821 57.5891C61.4427 56.9518 61.4427 57.1946 61.4427 56.9215C61.4427 56.8304 61.4731 56.6484 61.4731 56.6484C61.4731 56.6484 61.6552 54.949 62.1104 54.6759C62.5655 54.4331 62.8083 54.7669 62.5655 55.6773C62.3228 56.5877 63.4759 56.9822 64.1739 55.6166C64.8718 54.2511 66.0553 52.8855 66.2677 53.371C66.4801 53.8869 65.7215 54.949 65.7215 54.949C65.7215 54.949 65.7518 54.9794 65.9339 54.7063C66.116 54.4331 66.3284 53.6138 66.4498 53.7352C66.5712 53.8869 67.4815 54.7669 66.6925 56.6787C65.9036 58.5905 64.6897 59.1064 64.2345 59.4098C63.749 59.6829 62.2621 61.0485 62.0193 61.6858C62.0497 61.6858 59.6827 60.1988 60.1986 59.1671Z" fill="#FFBE9D"/>
<path d="M50.9752 50.6096C50.9752 50.6096 52.2194 54.4332 52.2194 56.7698C52.2194 59.1064 48.6993 60.8664 48.6993 60.8664V62.93H41.7805C41.7805 62.93 41.9019 61.8072 41.7805 61.352C41.6895 60.8664 46.8179 50.8827 50.9752 50.6096Z" fill="#FFBE9D"/>
<path d="M45.1819 143.467H39.3252C39.3252 143.467 39.9018 128.234 42.2384 120.617C42.2384 120.617 40.1749 111.544 39.5983 105.687C39.5983 105.687 37.8383 102.744 38.4148 95.1571L54.8015 94.5806C54.8015 94.5806 58.8982 113.911 59.4747 117.431C60.0513 120.951 55.9546 139.098 55.9546 143.801H49.5213C49.5213 143.801 50.0979 126.231 52.4649 120.951C52.4649 120.951 49.5213 116.278 47.7916 113.334C47.7916 113.334 48.9751 122.711 48.3682 124.471C47.822 126.17 45.4854 137.307 45.1819 143.467Z" fill="#404040"/>
<path d="M54.832 63.9922L60.7191 58.2568L63.0557 60.5934L60.5977 64.3563L54.832 63.9922Z" fill="#81CEC3"/>
<path d="M48.4274 124.41C49.004 122.65 47.8508 113.273 47.8508 113.273C48.0329 113.577 48.215 113.88 48.397 114.184C48.6702 109.541 45.2107 104.777 45.2107 104.777C47.5474 114.73 46.3942 121.163 45.2107 125.867C44.0273 130.54 43.2383 143.437 43.2383 143.437H45.2107C45.4839 137.307 47.8205 126.17 48.4274 124.41Z" fill="#292929"/>
<path d="M39.3224 143.467C39.3224 143.467 38.4424 150.507 39.6259 151.084C40.8094 151.661 53.0994 150.507 53.0994 150.507C53.0994 150.507 54.2829 148.747 52.5228 148.171C50.7628 147.594 44.9667 145.834 44.3598 143.498H39.3224V143.467Z" fill="#455A64"/>
<path d="M50.4631 143.74C50.4631 143.74 49.583 150.781 50.7665 151.357C51.95 151.934 64.24 150.781 64.24 150.781C64.24 150.781 65.4235 149.021 63.6634 148.444C61.9034 147.867 56.1074 146.107 55.5005 143.771H50.4631V143.74Z" fill="#455A64"/>
<path d="M53.405 46.2399C52.525 47.1199 50.1884 47.1199 50.1884 47.1199C51.3719 46.5433 51.3719 45.3599 51.3719 45.3599C49.6118 46.5433 46.3952 45.0564 42.8751 45.0564C39.355 45.0564 38.2018 48.5765 38.2018 48.5765C37.6253 47.9999 37.6253 47.393 37.6253 47.393C37.0487 48.5765 37.6253 49.7296 37.6253 49.7296C37.0487 49.1531 35.8652 50.3062 35.8652 50.3062C36.4418 50.3062 37.0487 50.8828 37.0487 50.8828C36.4721 54.4029 39.1122 57.6195 40.2654 58.1961C41.4488 58.7726 40.8419 60.5327 41.4488 61.1396C42.0254 61.7162 47.0021 61.4431 48.1856 60.2596C49.3691 59.0761 48.7621 52.6428 48.7621 52.6428C49.9456 52.6428 50.5222 54.9794 50.5222 54.9794C51.0988 53.2194 49.976 51.7021 49.976 51.7021C52.4947 49.3958 53.405 46.2399 53.405 46.2399Z" fill="#263238"/>
<path d="M60.5963 64.3562L63.0543 60.5934L62.2957 59.8347L59.1094 64.2652L60.5963 64.3562Z" fill="#416762"/>
<path d="M89.3882 51.6413L66.2648 61.4733C65.931 61.625 65.5669 61.4733 65.4151 61.1395L60.1957 48.8192C60.0439 48.4854 60.1957 48.1212 60.5295 47.9695L83.6529 38.1678C83.9867 38.0161 84.3508 38.1678 84.5026 38.5016L89.722 50.822C89.8737 51.1254 89.722 51.5199 89.3882 51.6413Z" fill="#DC8744"/>
<path d="M70.9672 51.2771L71.8472 51.4895L76.217 52.5516L78.6143 48.637L78.7963 47.9391L82.1951 48.8191L77.6735 54.7062L69.9961 52.9765L70.9672 51.2771Z" fill="#DC8744"/>
<path d="M70.9682 51.2771L60.1348 48.546C60.1348 48.6371 60.1651 48.7281 60.1955 48.7888L65.4149 61.0788L70.9682 51.2771Z" fill="#F3B344"/>
<path d="M89.7224 50.7613L84.5029 38.4713C84.4726 38.3803 84.4119 38.3196 84.3512 38.2589L78.7676 47.9392L89.7224 50.7613Z" fill="#F3B344"/>
<path d="M89.391 51.6414C89.5427 51.5807 89.6641 51.4593 89.7248 51.3076L78.5879 48.6068L76.1906 52.5214L71.8208 51.4593L66.2676 61.4127L89.391 51.6414Z" fill="#F3B344"/>
<path d="M75.8236 51.8234L60.2866 48.273C60.1653 48.2426 60.1653 48.0909 60.2563 48.0302L83.8956 38.0161C84.017 37.9555 84.108 38.0768 84.0473 38.1982L75.8236 51.8234Z" fill="#F3B344"/>
<path d="M70.0983 58.9851C70.0983 58.9851 71.2817 58.2568 71.4638 57.5892C71.6155 56.9822 71.5549 57.1947 71.6155 56.9216C71.6459 56.8305 71.6762 56.6484 71.6762 56.6484C71.6762 56.6484 72.0707 54.9794 72.5563 54.767C73.0418 54.5546 73.2542 54.9187 72.8901 55.7988C72.5259 56.6788 73.6184 57.1947 74.4984 55.9201C75.3481 54.6456 76.6833 53.4318 76.835 53.9477C76.9867 54.4636 76.1067 55.4346 76.1067 55.4346C76.1067 55.4346 76.1371 55.465 76.3495 55.2222C76.5619 54.9794 76.8653 54.1601 76.9867 54.3422C77.1081 54.4939 77.8971 55.4953 76.8957 57.316C75.8943 59.1368 74.6198 59.5009 74.1342 59.7134C73.6184 59.9258 71.9797 61.1092 71.6459 61.7162C71.6156 61.7162 69.461 59.9865 70.0983 58.9851Z" fill="#FFBE9D"/>
<path d="M49.0068 62.93H40.8135C40.8135 62.93 36.7168 64.1135 36.1403 69.3633C35.5637 74.6435 39.0838 83.4134 38.4769 86.9335C37.9003 90.4536 36.5347 96.0068 38.3858 96.7351C40.2369 97.4634 52.5269 96.8868 54.8635 94.5502C57.2001 92.2136 52.5269 85.1734 53.1035 81.6533C53.68 78.1332 53.68 71.1234 53.68 71.1234C53.68 71.1234 64.21 70.5468 66.577 68.7867C68.9136 67.0267 73.6171 60.5934 73.6171 60.5934L71.2805 57.6499C71.2805 57.6499 66.6073 61.17 64.2403 64.6901C64.2403 64.6901 52.5269 63.5066 50.1903 64.1135L49.0068 62.93Z" fill="#81CEC3"/>
<path d="M53.6816 71.1234C53.6816 71.1234 64.2115 70.5468 66.5785 68.7867C68.9151 67.0267 73.6187 60.5934 73.6187 60.5934L72.86 59.6527C71.1303 61.5645 66.9123 66.2377 66.0019 67.6033C64.8184 69.3633 56.6251 69.3633 53.7119 69.3633C50.7684 69.3633 47.8552 67.0267 47.8552 67.0267C47.8552 67.0267 49.6153 68.7868 50.7987 73.46C51.9822 78.1332 50.2222 79.8933 50.2222 82.8368C50.2222 85.7803 51.9822 85.7803 51.9822 91.0301C51.9822 93.8826 49.2511 95.7034 46.7324 96.7655C50.2525 96.4013 53.7726 95.673 54.8954 94.5502C57.232 92.2136 52.5588 85.1734 53.1354 81.6533C53.6816 78.1636 53.6816 71.1234 53.6816 71.1234Z" fill="#416762"/>
<defs>
<linearGradient id="paint0_linear_2507_93664" x1="128.881" y1="44.9192" x2="153.636" y2="44.9192" gradientUnits="userSpaceOnUse">
<stop stop-color="#29A9E1"/>
<stop offset="0.245" stop-color="#2A91D0"/>
<stop offset="0.7587" stop-color="#2D55A5"/>
<stop offset="1" stop-color="#2F368F"/>
</linearGradient>
</defs>
</svg>
