<svg width="22" height="22" viewBox="0 0 22 22" fill="none" xmlns="http://www.w3.org/2000/svg">
<path d="M19.25 20.166H2.75C2.37417 20.166 2.0625 19.8543 2.0625 19.4785C2.0625 19.1027 2.37417 18.791 2.75 18.791H19.25C19.6258 18.791 19.9375 19.1027 19.9375 19.4785C19.9375 19.8543 19.6258 20.166 19.25 20.166Z" fill="white"/>
<path d="M17.4336 3.19084C15.6552 1.4125 13.9136 1.36667 12.0894 3.19084L10.9802 4.3C10.8886 4.39167 10.8519 4.53834 10.8886 4.66667C11.5852 7.09584 13.5286 9.03917 15.9577 9.73584C15.9944 9.745 16.0311 9.75417 16.0677 9.75417C16.1686 9.75417 16.2602 9.7175 16.3336 9.64417L17.4336 8.535C18.3411 7.63667 18.7811 6.76584 18.7811 5.88584C18.7902 4.97834 18.3502 4.09834 17.4336 3.19084Z" fill="white"/>
<path d="M14.3077 10.5683C14.0418 10.4399 13.7852 10.3116 13.5377 10.1649C13.336 10.0458 13.1435 9.91742 12.951 9.77992C12.7952 9.67909 12.6118 9.53242 12.4377 9.38575C12.4193 9.37659 12.3552 9.32159 12.2818 9.24826C11.9793 8.99159 11.6402 8.66159 11.3377 8.29492C11.3102 8.27659 11.2643 8.21242 11.2002 8.12992C11.1085 8.01992 10.9527 7.83659 10.8152 7.62575C10.7052 7.48825 10.5768 7.28659 10.4577 7.08492C10.311 6.83742 10.1827 6.58992 10.0543 6.33325C10.0442 6.31157 10.0343 6.28995 10.0245 6.26839C9.87385 5.93644 9.43973 5.83869 9.18197 6.09645L3.97684 11.3016C3.85767 11.4208 3.74767 11.6499 3.72017 11.8058L3.22517 15.3166C3.1335 15.9399 3.30767 16.5266 3.69267 16.9208C4.02267 17.2416 4.481 17.4158 4.976 17.4158C5.086 17.4158 5.196 17.4066 5.306 17.3883L8.826 16.8933C8.991 16.8658 9.22017 16.7558 9.33017 16.6366L14.5281 11.4386C14.7877 11.1791 14.69 10.733 14.3529 10.5878C14.3379 10.5813 14.3228 10.5748 14.3077 10.5683Z" fill="white"/>
</svg>
