<svg width="22" height="22" viewBox="0 0 22 22" fill="none" xmlns="http://www.w3.org/2000/svg">
<path d="M15.5833 3.20831H6.41667C3.66667 3.20831 1.83334 4.58331 1.83334 7.79165V14.2083C1.83334 17.4166 3.66667 18.7916 6.41667 18.7916H15.5833C18.3333 18.7916 20.1667 17.4166 20.1667 14.2083V7.79165C20.1667 4.58331 18.3333 3.20831 15.5833 3.20831ZM16.0142 8.79081L13.145 11.0825C12.54 11.5683 11.77 11.8066 11 11.8066C10.23 11.8066 9.45084 11.5683 8.855 11.0825L5.98584 8.79081C5.6925 8.55248 5.64667 8.11248 5.87584 7.81915C6.11417 7.52581 6.545 7.47081 6.83834 7.70915L9.7075 10.0008C10.4042 10.56 11.5867 10.56 12.2833 10.0008L15.1525 7.70915C15.4458 7.47081 15.8858 7.51665 16.115 7.81915C16.3533 8.11248 16.3075 8.55248 16.0142 8.79081Z" fill="#797979"/>
</svg>
