<svg width="279" height="195" viewBox="0 0 279 195" fill="none" xmlns="http://www.w3.org/2000/svg">
<path opacity="0.11" d="M249.937 190C275.733 181.714 275.988 162.23 266.544 143.387C246.086 102.576 260.724 106.343 274.419 77.3978C291.222 41.8896 244.982 28.783 216.759 43.3835C162.339 71.5354 154.36 39.4557 132.728 20.5693C100.059 -7.95613 31.2253 3.74052 41.7742 47.2665C56.5024 108.031 5.69718 92.3648 0.338249 143.388C-2.684 172.16 15.1855 184.685 28.459 189.986C56.0068 188.926 95.3378 188.261 139.004 188.261C182.877 188.261 222.373 188.931 249.937 190Z" fill="#00937D"/>
<path d="M14.2634 59.3536L14.617 59L14.2634 58.6464L12.7865 57.1695L12.4329 57.523L12.7865 57.1695C12.6956 57.0787 12.6236 56.9709 12.5745 56.8522C12.5253 56.7335 12.5 56.6064 12.5 56.478C12.5 56.3496 12.5253 56.2224 12.5745 56.1037C12.6236 55.9851 12.6956 55.8773 12.7865 55.7864C12.8773 55.6956 12.9851 55.6236 13.1037 55.5744C13.2224 55.5253 13.3495 55.5 13.478 55.5C13.6064 55.5 13.7336 55.5253 13.8522 55.5744C13.9709 55.6236 14.0787 55.6956 14.1695 55.7864L15.6464 57.2634L16 57.617L16.3536 57.2634L17.8305 55.7864L17.477 55.4329L17.8305 55.7864C18.0139 55.603 18.2627 55.5 18.522 55.5C18.6505 55.5 18.7776 55.5253 18.8963 55.5744C19.0149 55.6236 19.1228 55.6956 19.2136 55.7864C19.397 55.9698 19.5 56.2186 19.5 56.478C19.5 56.7373 19.397 56.9861 19.2136 57.1695L19.2135 57.1696L17.7373 58.6465L17.3841 59L17.7373 59.3535L19.2135 60.8304L19.2136 60.8305C19.3044 60.9213 19.3764 61.0291 19.4256 61.1478C19.4747 61.2664 19.5 61.3936 19.5 61.522C19.5 61.6505 19.4747 61.7777 19.4256 61.8963C19.3764 62.0149 19.3044 62.1227 19.2136 62.2136C19.1228 62.3044 19.0149 62.3764 18.8963 62.4256C18.7776 62.4747 18.6505 62.5 18.522 62.5C18.2627 62.5 18.0139 62.397 17.8305 62.2136L17.477 62.5671L17.8305 62.2136L16.3536 60.7366L16 60.3831L15.6464 60.7366L14.1695 62.2136C14.0787 62.3044 13.9709 62.3764 13.8522 62.4256C13.7336 62.4747 13.6064 62.5 13.478 62.5C13.3495 62.5 13.2224 62.4747 13.1037 62.4256C12.9851 62.3764 12.8773 62.3044 12.7865 62.2136C12.6956 62.1227 12.6236 62.0149 12.5745 61.8963C12.5253 61.7776 12.5 61.6504 12.5 61.522C12.5 61.3936 12.5253 61.2665 12.5745 61.1478L12.1125 60.9564L12.5745 61.1478C12.6236 61.0291 12.6956 60.9213 12.7865 60.8305L12.4329 60.477L12.7865 60.8305L14.2634 59.3536Z" fill="#94CFC7" stroke="white"/>
<path d="M190.263 20.3536L190.617 20L190.263 19.6464L188.786 18.1695L188.433 18.523L188.786 18.1695C188.696 18.0787 188.624 17.9709 188.574 17.8522C188.525 17.7335 188.5 17.6064 188.5 17.478C188.5 17.3496 188.525 17.2224 188.574 17.1037C188.624 16.9851 188.696 16.8773 188.786 16.7864C188.877 16.6956 188.985 16.6236 189.104 16.5744C189.222 16.5253 189.35 16.5 189.478 16.5C189.606 16.5 189.734 16.5253 189.852 16.5744C189.971 16.6236 190.079 16.6956 190.169 16.7864L191.646 18.2634L192 18.617L192.354 18.2634L193.831 16.7864L193.477 16.4329L193.831 16.7864C194.014 16.603 194.263 16.5 194.522 16.5C194.65 16.5 194.778 16.5253 194.896 16.5744C195.015 16.6236 195.123 16.6956 195.214 16.7864C195.397 16.9698 195.5 17.2186 195.5 17.478C195.5 17.7373 195.397 17.9861 195.214 18.1695L195.213 18.1696L193.737 19.6465L193.384 20L193.737 20.3535L195.213 21.8304L195.214 21.8305C195.304 21.9213 195.376 22.0291 195.426 22.1478C195.475 22.2664 195.5 22.3936 195.5 22.522C195.5 22.6505 195.475 22.7777 195.426 22.8963C195.376 23.0149 195.304 23.1227 195.214 23.2136C195.123 23.3044 195.015 23.3764 194.896 23.4256C194.778 23.4747 194.65 23.5 194.522 23.5C194.263 23.5 194.014 23.397 193.831 23.2136L193.477 23.5671L193.831 23.2136L192.354 21.7366L192 21.3831L191.646 21.7366L190.169 23.2136C190.079 23.3044 189.971 23.3764 189.852 23.4256C189.734 23.4747 189.606 23.5 189.478 23.5C189.35 23.5 189.222 23.4747 189.104 23.4256C188.985 23.3764 188.877 23.3044 188.786 23.2136C188.696 23.1227 188.624 23.0149 188.574 22.8963C188.525 22.7776 188.5 22.6504 188.5 22.522C188.5 22.3936 188.525 22.2665 188.574 22.1478L188.113 21.9564L188.574 22.1478C188.624 22.0291 188.696 21.9213 188.786 21.8305L188.433 21.477L188.786 21.8305L190.263 20.3536Z" fill="#94CFC7" stroke="white"/>
<path d="M273.263 123.354L273.617 123L273.263 122.646L271.786 121.169L271.433 121.523L271.786 121.169C271.696 121.079 271.624 120.971 271.574 120.852C271.525 120.734 271.5 120.606 271.5 120.478C271.5 120.35 271.525 120.222 271.574 120.104C271.624 119.985 271.696 119.877 271.786 119.786C271.877 119.696 271.985 119.624 272.104 119.574C272.222 119.525 272.35 119.5 272.478 119.5C272.606 119.5 272.734 119.525 272.852 119.574C272.971 119.624 273.079 119.696 273.169 119.786L274.646 121.263L275 121.617L275.354 121.263L276.831 119.786L276.477 119.433L276.831 119.786C277.014 119.603 277.263 119.5 277.522 119.5C277.65 119.5 277.778 119.525 277.896 119.574C278.015 119.624 278.123 119.696 278.214 119.786C278.397 119.97 278.5 120.219 278.5 120.478C278.5 120.737 278.397 120.986 278.214 121.169L278.213 121.17L276.737 122.647L276.384 123L276.737 123.353L278.213 124.83L278.214 124.831C278.304 124.921 278.376 125.029 278.426 125.148C278.475 125.266 278.5 125.394 278.5 125.522C278.5 125.65 278.475 125.778 278.426 125.896C278.376 126.015 278.304 126.123 278.214 126.214C278.123 126.304 278.015 126.376 277.896 126.426C277.778 126.475 277.65 126.5 277.522 126.5C277.263 126.5 277.014 126.397 276.831 126.214L276.477 126.567L276.831 126.214L275.354 124.737L275 124.383L274.646 124.737L273.169 126.214C273.079 126.304 272.971 126.376 272.852 126.426C272.734 126.475 272.606 126.5 272.478 126.5C272.35 126.5 272.222 126.475 272.104 126.426C271.985 126.376 271.877 126.304 271.786 126.214C271.696 126.123 271.624 126.015 271.574 125.896C271.525 125.778 271.5 125.65 271.5 125.522C271.5 125.394 271.525 125.266 271.574 125.148L271.113 124.956L271.574 125.148C271.624 125.029 271.696 124.921 271.786 124.831L271.433 124.477L271.786 124.831L273.263 123.354Z" fill="#94CFC7" stroke="white"/>
<path d="M76.0003 24.5C76.6924 24.5001 77.369 24.7053 77.9445 25.0899C78.5201 25.4744 78.9687 26.0211 79.2336 26.6606C79.4985 27.3001 79.5678 28.0039 79.4327 28.6828C79.2977 29.3617 78.9643 29.9854 78.4749 30.4749C77.9854 30.9644 77.3617 31.2977 76.6828 31.4327C76.0039 31.5678 75.3001 31.4985 74.6606 31.2336C74.0211 30.9687 73.4744 30.5201 73.0899 29.9445C72.7053 29.369 72.5001 28.6924 72.5 28.0003C72.5011 27.0723 72.8702 26.1826 73.5264 25.5264C74.1826 24.8702 75.0723 24.5011 76.0003 24.5ZM76 29.7614C76.3482 29.7614 76.6886 29.6581 76.9782 29.4647C77.2677 29.2712 77.4934 28.9962 77.6266 28.6745C77.7599 28.3528 77.7948 27.9988 77.7268 27.6573C77.6589 27.3157 77.4912 27.002 77.245 26.7558C76.9987 26.5095 76.685 26.3418 76.3435 26.2739C76.0019 26.206 75.6479 26.2408 75.3262 26.3741C75.0045 26.5074 74.7295 26.733 74.5361 27.0226C74.3426 27.3121 74.2393 27.6525 74.2393 28.0007C74.2393 28.4677 74.4248 28.9155 74.755 29.2457C75.0852 29.5759 75.5331 29.7614 76 29.7614Z" fill="#94CFC7" stroke="#E3F3F1"/>
<path d="M243 55.5C243.692 55.5001 244.369 55.7053 244.944 56.0899C245.52 56.4744 245.969 57.0211 246.234 57.6606C246.498 58.3001 246.568 59.0039 246.433 59.6828C246.298 60.3617 245.964 60.9854 245.475 61.4749C244.985 61.9644 244.362 62.2977 243.683 62.4327C243.004 62.5678 242.3 62.4985 241.661 62.2336C241.021 61.9687 240.474 61.5201 240.09 60.9445C239.705 60.369 239.5 59.6924 239.5 59.0003C239.501 58.0723 239.87 57.1826 240.526 56.5264C241.183 55.8702 242.072 55.5011 243 55.5ZM243 60.7614C243.348 60.7614 243.689 60.6581 243.978 60.4647C244.268 60.2712 244.493 59.9962 244.627 59.6745C244.76 59.3528 244.795 58.9988 244.727 58.6573C244.659 58.3157 244.491 58.002 244.245 57.7558C243.999 57.5095 243.685 57.3418 243.343 57.2739C243.002 57.206 242.648 57.2408 242.326 57.3741C242.005 57.5074 241.73 57.733 241.536 58.0226C241.343 58.3121 241.239 58.6525 241.239 59.0007C241.239 59.4677 241.425 59.9155 241.755 60.2457C242.085 60.5759 242.533 60.7614 243 60.7614Z" fill="#94CFC7" stroke="#E3F3F1"/>
<path d="M24.0003 111.5C24.6924 111.5 25.369 111.705 25.9445 112.09C26.5201 112.474 26.9687 113.021 27.2336 113.661C27.4985 114.3 27.5678 115.004 27.4327 115.683C27.2977 116.362 26.9643 116.985 26.4749 117.475C25.9854 117.964 25.3617 118.298 24.6828 118.433C24.0039 118.568 23.3001 118.498 22.6606 118.234C22.0211 117.969 21.4744 117.52 21.0899 116.944C20.7053 116.369 20.5001 115.692 20.5 115C20.5011 114.072 20.8702 113.183 21.5264 112.526C22.1826 111.87 23.0723 111.501 24.0003 111.5ZM24 116.761C24.3482 116.761 24.6886 116.658 24.9782 116.465C25.2677 116.271 25.4934 115.996 25.6266 115.675C25.7599 115.353 25.7948 114.999 25.7268 114.657C25.6589 114.316 25.4912 114.002 25.245 113.756C24.9987 113.51 24.685 113.342 24.3435 113.274C24.0019 113.206 23.6479 113.241 23.3262 113.374C23.0045 113.507 22.7295 113.733 22.5361 114.023C22.3426 114.312 22.2393 114.653 22.2393 115.001C22.2393 115.468 22.4248 115.916 22.755 116.246C23.0852 116.576 23.5331 116.761 24 116.761Z" fill="#94CFC7" stroke="#E3F3F1"/>
<g clip-path="url(#clip0_462_56720)">
<path d="M179.85 35.5058H179.224V24.9675H179.85C180.006 24.9675 180.132 25.0922 180.132 25.2481V35.2314C180.132 35.381 180.006 35.5058 179.85 35.5058Z" fill="#00937D"/>
<path d="M179.85 47.7027H179.224V37.1644H179.85C180.006 37.1644 180.132 37.2891 180.132 37.445V47.4221C180.132 47.5779 180.006 47.7027 179.85 47.7027Z" fill="#00937D"/>
<path d="M97.4011 34.2336H97.9647V50.1158H97.4011C97.2132 50.1158 97.0566 49.9662 97.0566 49.7729V34.5704C97.0566 34.3833 97.2069 34.2336 97.4011 34.2336Z" fill="#00937D"/>
<path d="M97.2883 22.5917H97.9584V29.9871H97.2883C97.1568 29.9871 97.0566 29.8811 97.0566 29.7564V22.8224C97.0566 22.6977 97.1631 22.5917 97.2883 22.5917Z" fill="#00937D"/>
<path d="M170.475 161.833H106.713C101.879 161.833 97.9648 157.93 97.9648 153.122V8.71118C97.9648 3.90351 101.879 0 106.713 0H170.475C175.309 0 179.223 3.90351 179.223 8.71118V153.122C179.223 157.93 175.303 161.833 170.475 161.833Z" fill="#0AB198"/>
<path d="M100.075 152.748V9.08536C100.075 5.3128 103.15 2.2511 106.939 2.2511H170.25C174.038 2.2511 177.113 5.3128 177.113 9.08536V152.742C177.113 156.515 174.038 159.576 170.25 159.576H106.939C103.15 159.582 100.075 156.521 100.075 152.748Z" fill="#00937D"/>
<path d="M101.384 152.212V9.62159C101.384 6.18576 104.177 3.40466 107.627 3.40466H169.561C173.011 3.40466 175.804 6.18576 175.804 9.62159V152.212C175.804 155.648 173.011 158.429 169.561 158.429H107.627C104.177 158.429 101.384 155.648 101.384 152.212Z" fill="white"/>
<path d="M149.96 154.918H127.228C126.896 154.918 126.627 154.65 126.627 154.32C126.627 153.989 126.896 153.721 127.228 153.721H149.96C150.292 153.721 150.561 153.989 150.561 154.32C150.561 154.644 150.292 154.918 149.96 154.918Z" fill="#3D3D3D"/>
<path d="M138.529 85.2254C140.135 85.2254 141.436 83.9294 141.436 82.3307C141.436 80.7319 140.135 79.4359 138.529 79.4359C136.924 79.4359 135.622 80.7319 135.622 82.3307C135.622 83.9294 136.924 85.2254 138.529 85.2254Z" fill="#0AB198"/>
<path d="M145.963 78.7611C145.714 78.7611 145.466 78.6861 145.255 78.5211C142.272 76.2488 139.139 75.5363 135.931 76.4063C133.476 77.0737 131.879 78.4536 131.864 78.4686C131.382 78.8885 130.644 78.8435 130.215 78.3636C129.786 77.8836 129.831 77.1487 130.313 76.7287C130.388 76.6612 132.263 75.0189 135.208 74.1939C137.942 73.429 142.152 73.234 146.671 76.6762C147.183 77.0662 147.281 77.7936 146.889 78.3036C146.663 78.6036 146.317 78.7611 145.963 78.7611Z" fill="#0AB198"/>
<path d="M150.746 75.5964C150.497 75.5964 150.249 75.5214 150.038 75.3564C144.894 71.4418 139.471 70.2419 133.921 71.8017C129.763 72.9641 127.12 75.2814 127.09 75.3039C126.608 75.7314 125.87 75.6864 125.44 75.2064C125.011 74.7265 125.056 73.9915 125.538 73.5641C125.659 73.4516 128.619 70.8718 133.288 69.5594C136.044 68.787 138.831 68.622 141.572 69.0645C144.977 69.6119 148.298 71.1118 151.454 73.5116C151.966 73.9016 152.064 74.629 151.672 75.1389C151.438 75.4389 151.092 75.5964 150.746 75.5964Z" fill="#0AB198"/>
<path d="M154.255 70.6917C154.006 70.6917 153.758 70.6167 153.547 70.4517C146.867 65.3597 139.817 63.7923 132.587 65.7871C127.134 67.2945 123.61 70.3692 123.572 70.3992C123.09 70.8267 122.352 70.7817 121.923 70.3017C121.494 69.8218 121.539 69.0868 122.021 68.6594C122.179 68.5169 125.922 65.2397 131.864 63.5748C135.366 62.5924 138.906 62.3824 142.385 62.9449C146.716 63.6423 150.949 65.5471 154.963 68.6069C155.475 68.9968 155.573 69.7243 155.181 70.2342C154.955 70.5342 154.609 70.6917 154.255 70.6917Z" fill="#0AB198"/>
<path d="M119.447 98.8558L120.523 99.927C120.297 100.205 120.028 100.452 119.716 100.677C119.167 101.052 118.37 101.427 117.294 101.427C114.969 101.427 113.203 99.6592 113.203 97.5169C113.203 95.3747 114.969 93.6073 117.294 93.6073C118.338 93.6073 119.145 93.9822 119.673 94.3571C119.985 94.582 120.243 94.8284 120.469 95.1069L119.393 96.178C119.231 95.9745 119.048 95.8031 118.844 95.6424C118.489 95.3747 117.972 95.1069 117.294 95.1069C115.948 95.1069 114.872 96.178 114.872 97.5169C114.872 98.8558 115.948 99.927 117.294 99.927C117.993 99.927 118.521 99.6592 118.898 99.3914C119.113 99.2307 119.296 99.0593 119.447 98.8558Z" fill="#0AB198"/>
<path d="M123.81 100.034C124.564 100.034 125.156 99.4449 125.156 98.6416C125.156 97.8383 124.564 97.2491 123.81 97.2491C123.057 97.2491 122.464 97.8383 122.464 98.6416C122.464 99.4449 123.057 100.034 123.81 100.034ZM121.011 98.6416C121.011 97.142 122.249 95.9102 123.81 95.9102C125.371 95.9102 126.609 97.142 126.609 98.6416C126.609 100.141 125.371 101.373 123.81 101.373C122.249 101.373 121.011 100.141 121.011 98.6416Z" fill="#0AB198"/>
<path d="M127.684 101.266V96.0173H129.137V96.7671H129.191C129.309 96.6065 129.438 96.4672 129.589 96.3387C129.847 96.1245 130.235 95.9102 130.752 95.9102C131.828 95.9102 132.689 96.7671 132.689 98.106V101.266H131.236V98.3203C131.236 97.6776 130.87 97.3027 130.267 97.3027C129.621 97.3027 129.137 97.7847 129.137 98.4809V101.266H127.684Z" fill="#0AB198"/>
<path d="M134.086 101.266V96.0173H135.539V96.7671H135.593C135.711 96.6065 135.84 96.4672 135.991 96.3387C136.249 96.1245 136.637 95.9102 137.153 95.9102C138.23 95.9102 139.091 96.7671 139.091 98.106V101.266H137.638V98.3203C137.638 97.6776 137.272 97.3027 136.669 97.3027C136.023 97.3027 135.539 97.7847 135.539 98.4809V101.266H134.086Z" fill="#0AB198"/>
<path d="M144.47 99.4985L145.224 100.516C145.063 100.677 144.869 100.816 144.643 100.945C144.255 101.159 143.695 101.373 142.963 101.373C141.403 101.373 140.165 100.141 140.165 98.6416C140.165 97.142 141.403 95.9102 142.91 95.9102C144.363 95.9102 145.547 97.0885 145.547 98.5345C145.547 98.738 145.525 98.8773 145.515 98.9951L145.493 99.1772H141.672C141.833 99.6592 142.264 100.088 143.071 100.088C143.534 100.088 143.868 99.9591 144.115 99.7984C144.255 99.7127 144.374 99.6163 144.47 99.4985ZM141.672 98.106H144.04C143.878 97.624 143.459 97.1956 142.856 97.1956C142.253 97.1956 141.833 97.624 141.672 98.106Z" fill="#0AB198"/>
<path d="M150.394 99.3914L151.309 100.302C151.169 100.505 150.986 100.677 150.771 100.837C150.394 101.105 149.867 101.373 149.103 101.373C147.542 101.373 146.304 100.141 146.304 98.6416C146.304 97.142 147.542 95.9102 149.103 95.9102C149.867 95.9102 150.394 96.178 150.771 96.4458C150.986 96.6065 151.169 96.7778 151.309 96.9814L150.394 97.8918C150.297 97.774 150.179 97.6669 150.05 97.5705C149.824 97.4098 149.501 97.2491 149.103 97.2491C148.349 97.2491 147.757 97.8383 147.757 98.6416C147.757 99.4449 148.349 100.034 149.103 100.034C149.501 100.034 149.824 99.8734 150.05 99.7127C150.179 99.6163 150.297 99.5092 150.394 99.3914Z" fill="#0AB198"/>
<path d="M152.65 99.4449V97.4634H151.735V96.1245H152.219C152.618 96.1245 152.811 95.9102 152.811 95.4818V94.5178H154.103V96.1245H155.287V97.4634H154.103V99.2307C154.103 99.7127 154.372 99.9805 154.803 99.9805C154.964 99.9805 155.104 99.9591 155.223 99.927C155.287 99.9162 155.341 99.8948 155.395 99.8734V101.212C155.309 101.244 155.212 101.266 155.115 101.298C154.943 101.341 154.695 101.373 154.426 101.373C153.35 101.373 152.65 100.687 152.65 99.4449Z" fill="#0AB198"/>
<path d="M156.26 100.516C156.26 100.034 156.637 99.6592 157.121 99.6592C157.606 99.6592 157.983 100.034 157.983 100.516C157.983 100.998 157.606 101.373 157.121 101.373C156.637 101.373 156.26 100.998 156.26 100.516ZM159.167 100.516C159.167 100.034 159.543 99.6592 160.028 99.6592C160.512 99.6592 160.889 100.034 160.889 100.516C160.889 100.998 160.512 101.373 160.028 101.373C159.543 101.373 159.167 100.998 159.167 100.516ZM162.073 100.516C162.073 100.034 162.45 99.6592 162.934 99.6592C163.419 99.6592 163.795 100.034 163.795 100.516C163.795 100.998 163.419 101.373 162.934 101.373C162.45 101.373 162.073 100.998 162.073 100.516Z" fill="#0AB198"/>
</g>
<path d="M103.794 71.1316C103.779 71.1316 103.769 71.1217 103.769 71.1069C103.769 71.0921 103.779 71.0823 103.794 71.0823" fill="#E6E6E6"/>
<g filter="url(#filter0_f_462_56720)">
<path d="M65.3345 180.45C63.5921 180.45 61.974 181.356 61.063 182.844C60.1917 184.358 60.2117 186.334 61.063 187.812H65.2001H69.6061C70.4275 186.393 70.6018 184.572 69.6061 182.844C68.7 181.356 67.082 180.45 65.3345 180.45Z" fill="black" fill-opacity="0.3"/>
</g>
<path d="M63.2147 179.304V188.89L71.8026 188.871L71.8076 179.314L63.2147 179.304Z" fill="#04AA91"/>
<path d="M67.4918 181.529C65.7493 181.529 64.1313 182.435 63.2202 183.923C62.349 185.436 62.3689 187.412 63.2202 188.891H67.3573H71.7633C72.5847 187.472 72.759 185.651 71.7633 183.923C70.8572 182.435 69.2392 181.529 67.4918 181.529Z" fill="#04AA91"/>
<path d="M62.633 187.178C62.7226 187.786 62.9217 188.368 63.2204 188.891H67.3576H71.7635C72.0672 188.368 72.2813 187.786 72.3809 187.178H62.633Z" fill="#331E13"/>
<path d="M67.4917 181.449C65.7542 181.449 64.1362 182.34 63.2052 183.804C63.1953 183.824 63.1903 183.843 63.1953 183.863C63.2002 183.883 63.2102 183.903 63.2301 183.913C63.265 183.938 63.3147 183.928 63.3396 183.888C64.2407 182.47 65.809 181.609 67.4917 181.609C67.9248 181.609 68.348 181.663 68.7513 181.773C68.7961 181.783 68.8359 181.758 68.8508 181.718C68.8558 181.698 68.8558 181.673 68.8409 181.658C68.8309 181.638 68.811 181.629 68.7911 181.624C68.3779 181.509 67.9398 181.449 67.4917 181.449ZM69.8814 182.057C69.8515 182.057 69.8266 182.072 69.8166 182.096C69.8067 182.116 69.8067 182.136 69.8117 182.156C69.8167 182.176 69.8316 182.196 69.8515 182.206C70.5833 182.604 71.2106 183.186 71.6686 183.913C71.6786 183.933 71.6985 183.943 71.7184 183.948C71.7383 183.953 71.7632 183.948 71.7782 183.938C71.813 183.913 71.828 183.863 71.8031 183.829C71.3301 183.077 70.6829 182.475 69.9262 182.067C69.9112 182.062 69.8963 182.057 69.8814 182.057Z" fill="#331E13"/>
<g filter="url(#filter1_f_462_56720)">
<path d="M81.6108 181.823L83.7686 187.277L87.0077 190L91.2416 189.996L97.6118 189.992C99.2422 189.992 99.6314 186.445 96.7079 185.814L91.2329 184.63L86.4658 181.369L81.6108 181.823Z" fill="black" fill-opacity="0.3"/>
</g>
<path d="M86.8726 179.334L86.8826 188.896L90.6015 188.891L95.4755 188.886L102.809 188.881C104.686 188.881 105.134 184.212 101.768 183.381L95.4655 181.823V179.324L86.8726 179.334Z" fill="#04AA91"/>
<path d="M104.217 187.238C104.062 188.159 103.545 188.88 102.813 188.88L95.4795 188.885L90.6056 188.89L86.8867 188.895V187.248V187.243L104.217 187.238Z" fill="#331E13"/>
<path fill-rule="evenodd" clip-rule="evenodd" d="M60.8659 115.021L61.0053 123.284L61.4235 147.976L61.9811 180.931H72.9687L73.5262 147.976L73.9295 124.304L78.9578 147.986L85.8032 180.951H96.6016L91.7077 150.361C91.4837 148.962 91.2547 147.563 91.0057 146.17L85.4647 115.021L72.5953 114.155L60.8659 115.021Z" fill="#23282A"/>
<path fill-rule="evenodd" clip-rule="evenodd" d="M70.1944 77.3477C67.3516 73.3608 64.7578 65.7455 70.2392 65.0437C70.4632 63.6799 72.3152 62.1568 74.2319 63.2369C76.5519 64.546 77.4928 65.0238 78.9316 64.4016C80.7239 63.6301 82.3618 65.2328 80.699 68.2889C80.6791 69.3939 80.8483 70.5038 79.7431 71.6088L70.1944 77.3477Z" fill="#181524"/>
<path d="M69.8704 73.5258H76.4619V84.003H69.8704V73.5258Z" fill="#FFBE9D"/>
<path fill-rule="evenodd" clip-rule="evenodd" d="M72.0958 78.324H76.4619V80.6733C76.452 80.6733 76.447 80.6733 76.437 80.6733C76.3773 80.6783 76.3175 80.6783 76.2528 80.6783H75.4413C75.3816 80.6783 75.3169 80.6783 75.2571 80.6733C75.1974 80.6683 75.1376 80.6633 75.0779 80.6583C75.0182 80.6534 74.9584 80.6434 74.8987 80.6335C74.8389 80.6235 74.7792 80.6135 74.7244 80.6036C74.6647 80.5936 74.6099 80.5787 74.5502 80.5638C74.4954 80.5488 74.4357 80.5339 74.3809 80.514C74.3261 80.4991 74.2714 80.4792 74.2166 80.4592C74.1619 80.4393 74.1071 80.4194 74.0573 80.3945C74.0075 80.3697 73.9528 80.3497 73.898 80.3249C73.8482 80.3 73.7934 80.2751 73.7437 80.2452C73.6939 80.2203 73.6441 80.1905 73.5943 80.1606C73.5445 80.1307 73.4997 80.1009 73.4499 80.066C73.4001 80.0312 73.3553 80.0013 73.3105 79.9665C73.2657 79.9317 73.2209 79.8968 73.1761 79.862C73.1313 79.8271 73.0915 79.7873 73.0467 79.7525C73.0068 79.7126 72.962 79.6728 72.9222 79.633C72.8824 79.5932 72.8425 79.5534 72.8027 79.5086C72.7629 79.4688 72.728 79.424 72.6932 79.3792C72.6583 79.3344 72.6235 79.2896 72.5886 79.2448C72.5538 79.2 72.5239 79.1552 72.4891 79.1054C72.4592 79.0606 72.4244 79.0108 72.3945 78.9611C72.3646 78.9113 72.3347 78.8615 72.3098 78.8118C72.285 78.762 72.2551 78.7122 72.2302 78.6575C72.2053 78.6077 72.1804 78.5529 72.1605 78.4982C72.1356 78.4434 72.1157 78.3937 72.0958 78.3389C72.1008 78.3389 72.0958 78.329 72.0958 78.324Z" fill="#181524" fill-opacity="0.1"/>
<path fill-rule="evenodd" clip-rule="evenodd" d="M79.8672 70.1958C79.8672 68.9116 79.3594 67.6822 78.4483 66.7763C77.5422 65.8705 76.3125 65.3578 75.0281 65.3578C73.7436 65.3578 72.514 65.8655 71.6079 66.7763C70.7018 67.6822 70.189 68.9116 70.189 70.1958V75.1432C70.189 76.4274 70.6968 77.6568 71.6079 78.5627C72.514 79.4685 73.7436 79.9812 75.0281 79.9812C76.3125 79.9812 77.5422 79.4735 78.4483 78.5627C79.3544 77.6568 79.8672 76.4274 79.8672 75.1432V70.1958Z" fill="#FFBE9D"/>
<path d="M74.3312 73.551C74.026 73.551 73.7786 73.3037 73.7786 72.9985C73.7786 72.6934 74.026 72.446 74.3312 72.446C74.6364 72.446 74.8838 72.6934 74.8838 72.9985C74.8838 73.3037 74.6364 73.551 74.3312 73.551Z" fill="#181524"/>
<path d="M74.4061 71.0225C74.7695 71.122 75.1131 71.3261 75.2176 71.6447C75.2674 71.794 75.1628 71.8736 75.0732 71.8089C74.8791 71.6646 74.6152 71.5302 74.2966 71.4406C73.978 71.356 73.6792 71.341 73.4403 71.3709C73.3258 71.3858 73.276 71.2614 73.3955 71.1569C73.6444 70.9329 74.0427 70.9279 74.4061 71.0225Z" fill="#181524"/>
<path d="M69.7106 75.6654C68.8033 75.6654 68.0677 74.93 68.0677 74.0229C68.0677 73.1158 68.8033 72.3804 69.7106 72.3804C70.618 72.3804 71.3535 73.1158 71.3535 74.0229C71.3535 74.93 70.618 75.6654 69.7106 75.6654Z" fill="#FFBE9D"/>
<path d="M78.42 73.55C78.1148 73.55 77.8674 73.3027 77.8674 72.9976C77.8674 72.6924 78.1148 72.4451 78.42 72.4451C78.7252 72.4451 78.9727 72.6924 78.9727 72.9976C78.9727 73.3027 78.7252 73.55 78.42 73.55Z" fill="#181524"/>
<path d="M78.3394 71.022C78.7028 70.9224 79.1011 70.9324 79.355 71.1564C79.4745 71.2609 79.4247 71.3853 79.3102 71.3704C79.0712 71.3405 78.7725 71.3555 78.4539 71.4401C78.1353 71.5247 77.8714 71.6591 77.6773 71.8084C77.5876 71.8781 77.4831 71.7985 77.5329 71.6442C77.6324 71.3256 77.976 71.1215 78.3394 71.022Z" fill="#181524"/>
<path d="M79.8984 68.5538C77.8523 69.1461 75.5871 69.5244 73.5011 68.7031C72.824 68.4344 72.6448 68.738 72.4158 69.3751C72.2764 69.7733 72.0225 70.2511 71.5296 71.0524C71.0666 71.809 70.982 73.3321 70.9322 74.0886C70.9073 74.4669 70.6783 74.4968 70.5887 74.1732C70.1257 72.4959 69.125 72.2769 68.3732 73.0284L68.0845 67.1403L75.1539 64.5371L79.8636 67.1452L79.8984 68.5538Z" fill="#181524"/>
<path d="M72.3853 62.7201C72.7139 62.6703 73.0425 62.6803 73.3362 62.7499C74.2324 62.959 75.1882 63.5413 76.1839 63.9694C77.1796 64.3974 78.2102 64.6811 79.2507 64.3078L79.2656 64.3477C78.2102 64.7259 77.1647 64.4422 76.169 64.0092C75.1683 63.5762 74.2125 62.9988 73.3263 62.7898C72.7438 62.6504 72.0369 62.745 71.4444 63.1033C70.852 63.4667 70.379 64.0938 70.2546 65.0395L70.2097 65.0345C70.3342 64.0789 70.8171 63.4368 71.4195 63.0685C71.7282 62.8893 72.0568 62.7748 72.3853 62.7201Z" fill="#181524"/>
<path d="M70.2402 65.0198V65.0646C68.3982 65.1094 67.3726 65.9854 66.9992 67.3293C66.6258 68.6731 66.9146 70.4948 67.7211 72.4211L67.6813 72.436C66.8748 70.5048 66.581 68.6781 66.9594 67.3143C67.3328 65.9555 68.3833 65.0646 70.2402 65.0198Z" fill="#181524"/>
<path d="M76.2681 76.7714C76.2482 76.7714 76.2283 76.7614 76.2184 76.7415C75.9943 76.3533 75.5761 76.2189 75.1281 76.4529C75.0982 76.4678 75.0683 76.4578 75.0534 76.428C75.0484 76.413 75.0434 76.3981 75.0484 76.3832C75.0534 76.3682 75.0633 76.3583 75.0783 76.3483C75.5662 76.0945 76.069 76.2488 76.3179 76.6818C76.3279 76.6967 76.3279 76.7117 76.3229 76.7266C76.3179 76.7415 76.308 76.7515 76.298 76.7614C76.2881 76.7664 76.2781 76.7714 76.2681 76.7714Z" fill="#181524"/>
<path d="M68.6613 73.1318C69.0049 73.1318 69.3135 73.2413 69.5425 73.4802C69.7715 73.7192 69.9109 74.0775 69.9209 74.5703C69.9209 74.5952 69.906 74.6151 69.8861 74.625C69.8661 74.635 69.8363 74.63 69.8213 74.6101C69.5276 74.2916 69.209 74.187 68.9352 74.2567C68.9202 74.2617 68.9053 74.2567 68.8904 74.2517C68.8754 74.2418 68.8655 74.2318 68.8655 74.2169C68.8555 74.187 68.8754 74.1572 68.9053 74.1472C69.1891 74.0726 69.5027 74.192 69.7865 74.4459C69.7566 74.0526 69.6421 73.749 69.4579 73.5599C69.2538 73.3459 68.975 73.2463 68.6564 73.2463C68.6414 73.2463 68.6265 73.2413 68.6165 73.2314C68.6066 73.2214 68.6016 73.2065 68.6016 73.1916C68.6016 73.1766 68.6066 73.1617 68.6165 73.1517C68.6265 73.1418 68.6464 73.1318 68.6613 73.1318Z" fill="#181524"/>
<path d="M76.3682 71.9979C76.398 71.9979 76.4229 72.0228 76.4229 72.0527V73.9889C76.8461 74.0187 77.0801 74.3223 77.0801 74.6359C77.0801 74.9644 76.8312 75.2979 76.3682 75.2979H75.8554C75.8255 75.2979 75.8006 75.273 75.8006 75.2431C75.8006 75.2133 75.8255 75.1884 75.8554 75.1884H76.3682C76.7814 75.1884 76.9656 74.9146 76.9656 74.6409C76.9656 74.3671 76.7764 74.0934 76.3682 74.0934C76.3532 74.0934 76.3383 74.0884 76.3283 74.0784C76.3184 74.0685 76.3134 74.0536 76.3134 74.0386V72.0577C76.3084 72.0228 76.3333 71.9979 76.3682 71.9979Z" fill="#181524"/>
<path d="M60.503 86.0643C60.8465 86.0643 61.18 86.1091 61.4738 86.1937C62.803 86.587 64.4161 88.2245 64.0078 89.5485L59.0443 105.182C58.2427 107.706 55.3154 108.204 53.3887 106.228L41.6892 94.2421C40.0264 94.3267 39.0805 93.814 37.8608 93.3462L35.1375 93.157C34.7741 93.1321 34.5003 92.8186 34.5252 92.4552C34.5501 92.0919 34.8637 91.8181 35.2271 91.843L37.2484 91.9824L34.9384 91.4548C34.5849 91.3751 34.3659 91.0218 34.4455 90.6684C34.5252 90.315 34.8787 90.096 35.2321 90.1756L35.0429 90.1308C34.6895 90.0512 34.4704 89.6978 34.5501 89.3444C34.6297 88.991 34.9832 88.772 35.3367 88.8516L35.1077 88.8019C34.7542 88.7222 34.5351 88.3688 34.6148 88.0154C34.6945 87.6621 35.0479 87.4431 35.4014 87.5227L39.2697 88.4087C39.5584 88.4535 39.8572 88.4833 40.1608 88.5082L41.515 88.5032L40.9076 87.1444C40.7583 86.8109 40.9076 86.4277 41.2412 86.2784C41.5747 86.129 41.9581 86.2784 42.1074 86.6118L42.8542 88.2743C43.4018 89.1453 44.1536 89.2399 44.8058 90.2503L54.3993 98.8859L57.5706 87.6322C57.8594 86.6019 59.2683 86.0643 60.503 86.0643Z" fill="#FFBE9D"/>
<path fill-rule="evenodd" clip-rule="evenodd" d="M61.6676 85.3976C63.8233 85.9849 65.0829 88.1949 64.4954 90.3451L62.1058 99.0903L54.3294 96.9649L56.719 88.2198C57.3065 86.0696 59.512 84.8103 61.6676 85.3976Z" fill="#04AA91"/>
<path fill-rule="evenodd" clip-rule="evenodd" d="M76.4627 82.1818L85.4688 85.2627V115.022H73.1669H60.865V85.2627L69.8711 82.1818C69.8711 83.1026 71.519 83.5655 73.1669 83.5655C74.8148 83.5655 76.4627 83.1026 76.4627 82.1818Z" fill="#04AA91"/>
<path fill-rule="evenodd" clip-rule="evenodd" d="M69.8721 89.5781V82.1818C63.4896 82.1818 56.5546 84.327 56.5546 89.5781H69.8721Z" fill="#04AA91"/>
<path fill-rule="evenodd" clip-rule="evenodd" d="M76.4628 89.5781V82.1818C82.8452 82.1818 89.7803 84.327 89.7803 89.5781H76.4628Z" fill="#04AA91"/>
<path fill-rule="evenodd" clip-rule="evenodd" d="M77.8723 86.2329C78.0316 86.2329 78.1611 86.3573 78.1561 86.5166L77.7578 94.7491C77.7529 94.9034 77.6334 95.0328 77.4741 95.0328H75.2636H73.0532C72.8938 95.0328 72.7744 94.9084 72.7694 94.7491L72.3711 86.5166C72.3661 86.3623 72.4956 86.2329 72.6549 86.2329H75.2586H77.8723Z" fill="#331E13"/>
<path d="M77.8712 86.6655C77.9758 86.6655 78.0753 86.7153 78.1401 86.7899C78.16 86.8148 78.155 86.8497 78.1301 86.8696C78.1052 86.8895 78.0704 86.8845 78.0504 86.8596C78.0106 86.8098 77.9459 86.775 77.8712 86.775H75.2675H72.6637C72.589 86.775 72.5243 86.8098 72.4845 86.8596C72.4745 86.8696 72.4596 86.8795 72.4447 86.8795C72.4297 86.8795 72.4148 86.8745 72.4048 86.8696C72.3799 86.8497 72.375 86.8148 72.3949 86.7899C72.4596 86.7103 72.5592 86.6605 72.6637 86.6605H75.2675L77.8712 86.6655Z" fill="#6A3E28"/>
<path d="M85.7136 86.1337C87.023 86.1237 88.636 86.7608 88.875 87.9006L92.4247 104.744C93.0868 107.88 88.8401 109.482 87.1823 107.676L77.1855 96.8001C76.2197 96.0585 75.3235 95.1625 74.6315 94.0675L71.8685 92.4897C71.5548 92.3105 71.4453 91.9123 71.6245 91.5938C71.8037 91.2802 72.202 91.1707 72.5206 91.3499L74.7908 92.644L72.3663 91.0911C72.0576 90.897 71.973 90.4888 72.1672 90.1852C72.3613 89.8766 72.7696 89.792 73.0733 89.9861L75.672 91.6485L73.2873 89.9463C72.9936 89.7372 72.9189 89.3291 73.128 89.0305C73.3371 88.7318 73.7454 88.6621 74.0441 88.8712L77.3747 91.2504L77.1257 89.359L75.687 88.5925C75.3683 88.4232 75.2439 88.025 75.4181 87.7065C75.5376 87.4875 75.7616 87.3631 75.9956 87.3581C76.1002 87.3581 76.2097 87.383 76.3093 87.4377L77.9522 88.3137C78.1712 88.4282 78.3554 88.6621 78.3853 88.8712L78.6342 90.7476L80.0033 93.6992L84.1454 96.9693L82.3283 89.3689C82.0445 88.1893 83.2941 86.8803 84.5138 86.3676C84.6881 86.2929 84.8623 86.2382 85.0316 86.1984C85.2407 86.1585 85.4747 86.1337 85.7136 86.1337Z" fill="#FFBE9D"/>
<path fill-rule="evenodd" clip-rule="evenodd" d="M85.6285 85.3018C87.5054 85.2271 89.228 86.4764 89.691 88.3728L91.8467 97.1827L86.1612 98.5713L83.3434 96.3465L81.8648 90.289C81.3321 88.1189 82.6514 85.9488 84.822 85.4162C85.0909 85.3515 85.3647 85.3117 85.6285 85.3018Z" fill="#04AA91"/>
<path d="M84.1401 89.5778C84.16 89.5778 84.1799 89.5877 84.1948 89.6026C84.2098 89.6176 84.2197 89.6375 84.2197 89.6574V91.061C84.2197 91.0809 84.2098 91.1008 84.1948 91.1158C84.1799 91.1307 84.16 91.1406 84.1401 91.1406C84.1202 91.1406 84.1002 91.1307 84.0853 91.1158C84.0704 91.1008 84.0604 91.0809 84.0604 91.061V89.6574C84.0604 89.6375 84.0704 89.6176 84.0853 89.6026C84.1002 89.5877 84.1202 89.5778 84.1401 89.5778ZM84.1401 91.9918C84.1849 91.9918 84.2197 92.0266 84.2197 92.0714V96.7501C84.2197 96.7949 84.1849 96.8297 84.1401 96.8297C84.0953 96.8297 84.0604 96.7949 84.0604 96.7501V92.0714C84.0604 92.0266 84.0953 91.9918 84.1401 91.9918Z" fill="#331E13"/>
<path d="M60.8696 89.5778C60.8895 89.5778 60.9094 89.5877 60.9243 89.6026C60.9393 89.6176 60.9492 89.6375 60.9492 89.6574V94.6049C60.9492 94.6497 60.9144 94.6845 60.8696 94.6845C60.8248 94.6845 60.7899 94.6497 60.7899 94.6049V89.6574C60.7899 89.6375 60.7999 89.6176 60.8148 89.6026C60.8297 89.5877 60.8496 89.5778 60.8696 89.5778ZM60.8696 95.4162C60.8895 95.4162 60.9094 95.4261 60.9243 95.4411C60.9393 95.456 60.9492 95.4759 60.9492 95.4958V98.6415C60.9492 98.6863 60.9144 98.7211 60.8696 98.7211C60.8248 98.7211 60.7899 98.6863 60.7899 98.6415V95.4958C60.7899 95.4759 60.7999 95.456 60.8148 95.4411C60.8297 95.4211 60.8496 95.4162 60.8696 95.4162Z" fill="#331E13"/>
<path d="M75.402 91.4055C75.4169 91.4055 75.4268 91.4105 75.4368 91.4155L76.2931 92.0327C76.318 92.0526 76.323 92.0874 76.308 92.1123C76.2981 92.1223 76.2881 92.1322 76.2732 92.1372C76.2583 92.1372 76.2433 92.1372 76.2284 92.1272L75.3721 91.51C75.3621 91.5001 75.3522 91.4901 75.3472 91.4752C75.3472 91.4603 75.3472 91.4453 75.3571 91.4304C75.3671 91.4155 75.382 91.4055 75.402 91.4055ZM74.7697 92.5802C74.7796 92.5802 74.7896 92.5851 74.7996 92.5901L75.4119 92.9634C75.4268 92.9734 75.4318 92.9833 75.4368 92.9983C75.4418 93.0132 75.4368 93.0281 75.4318 93.0431C75.4219 93.058 75.4119 93.063 75.397 93.0679C75.382 93.0729 75.3671 93.0679 75.3522 93.063L74.7398 92.6897C74.7149 92.6747 74.705 92.6399 74.7199 92.61C74.7348 92.5951 74.7498 92.5802 74.7697 92.5802ZM78.643 96.0295C78.6579 96.0295 78.6728 96.0344 78.6828 96.0444C78.6927 96.0543 78.7027 96.0693 78.7027 96.0842C78.7027 96.0991 78.6977 96.1141 78.6878 96.124C78.3442 96.4924 77.6323 96.7412 77.0996 96.7213C77.0847 96.7213 77.0697 96.7163 77.0598 96.7014C77.0498 96.6914 77.0449 96.6765 77.0449 96.6616C77.0449 96.6466 77.0498 96.6317 77.0648 96.6218C77.0797 96.6118 77.0897 96.6068 77.1046 96.6068C77.5975 96.6218 78.2994 96.3729 78.6081 96.0444C78.6131 96.0344 78.628 96.0295 78.643 96.0295ZM86.2501 98.5729C86.26 98.5729 86.275 98.5779 86.2849 98.5878L88.9186 100.668C88.9285 100.678 88.9385 100.693 88.9385 100.708C88.9385 100.723 88.9335 100.738 88.9285 100.748C88.9186 100.758 88.9036 100.768 88.8887 100.768C88.8738 100.768 88.8588 100.763 88.8489 100.758L86.2152 98.6724C86.2053 98.6625 86.1953 98.6475 86.1953 98.6326C86.1953 98.6177 86.2003 98.6027 86.2053 98.5928C86.2103 98.5779 86.2252 98.5729 86.2501 98.5729C86.2451 98.5729 86.2451 98.5729 86.2501 98.5729Z" fill="#F8B68A"/>
<path d="M35.3356 88.8015C35.3406 88.8015 35.3455 88.8015 35.3505 88.8015L37.7053 89.3391C37.7203 89.344 37.7352 89.354 37.7402 89.364C37.7452 89.3739 37.7501 89.3938 37.7452 89.4087C37.7402 89.4386 37.7053 89.4585 37.6755 89.4535L35.3206 88.916C35.2908 88.911 35.2709 88.8762 35.2758 88.8463C35.2858 88.8164 35.3107 88.8015 35.3356 88.8015ZM38.2281 89.4635C38.2331 89.4635 38.238 89.4635 38.243 89.4635L38.9549 89.6278C38.9848 89.6327 39.0047 89.6676 38.9997 89.6974C38.9948 89.7273 38.9599 89.7472 38.93 89.7422L38.2181 89.578C38.2032 89.573 38.1883 89.568 38.1833 89.5531C38.1733 89.5382 38.1733 89.5232 38.1783 89.5083C38.1783 89.4834 38.2032 89.4635 38.2281 89.4635ZM35.2758 90.1354C35.2808 90.1354 35.2858 90.1354 35.2908 90.1354L36.2566 90.3544C36.2865 90.3594 36.3064 90.3943 36.3014 90.4241C36.2964 90.454 36.2616 90.4739 36.2317 90.4689L35.2659 90.2499C35.236 90.2449 35.2161 90.2101 35.2211 90.1802C35.226 90.1504 35.246 90.1354 35.2758 90.1354ZM44.7798 90.2897C44.7947 90.2897 44.8097 90.2947 44.8196 90.3047C44.8296 90.3146 44.8345 90.3296 44.8345 90.3445C44.8345 90.7228 44.7698 91.116 44.5657 91.5241C44.5607 91.539 44.5458 91.549 44.5309 91.554C44.5159 91.559 44.501 91.559 44.486 91.549C44.4711 91.544 44.4612 91.5291 44.4562 91.5142C44.4512 91.4992 44.4512 91.4843 44.4612 91.4694C44.6553 91.0811 44.72 90.7078 44.72 90.3445C44.72 90.3296 44.725 90.3146 44.735 90.3047C44.7499 90.2947 44.7648 90.2897 44.7798 90.2897ZM36.7345 90.4689C36.7395 90.4689 36.7445 90.4689 36.7495 90.4689L38.6662 90.9069C38.6811 90.9119 38.6961 90.9219 38.701 90.9318C38.706 90.9418 38.711 90.9617 38.706 90.9766C38.701 91.0065 38.6662 91.0264 38.6363 91.0214L36.7146 90.5834C36.6847 90.5784 36.6648 90.5436 36.6698 90.5137C36.6847 90.4888 36.7047 90.4689 36.7345 90.4689ZM42.0317 91.2802C42.0615 91.2802 42.0814 91.3001 42.0864 91.33C42.0864 91.3449 42.0864 91.3599 42.0765 91.3748C42.0665 91.3847 42.0516 91.3947 42.0366 91.3947C41.5935 91.4544 41.2799 91.6436 40.9563 91.8526C40.9314 91.8676 40.8966 91.8626 40.8766 91.8377C40.8667 91.8228 40.8667 91.8078 40.8667 91.7929C40.8717 91.778 40.8766 91.763 40.8916 91.7581C41.2152 91.549 41.5487 91.3499 42.0167 91.2852C42.0267 91.2802 42.0317 91.2802 42.0317 91.2802ZM37.1677 91.9173C37.1726 91.9173 37.1776 91.9173 37.1826 91.9173L38.3874 92.1911C38.4173 92.1961 38.4372 92.2309 38.4322 92.2608C38.4272 92.2757 38.4222 92.2906 38.4073 92.2956C38.3924 92.3056 38.3774 92.3056 38.3625 92.3056L37.1577 92.0318C37.1428 92.0268 37.1278 92.0218 37.1229 92.0069C37.1129 91.992 37.1129 91.9771 37.1179 91.9621C37.1179 91.9323 37.1378 91.9173 37.1677 91.9173ZM40.558 91.982C40.5779 91.982 40.5929 91.992 40.6028 92.0119C40.6128 92.0268 40.6128 92.0418 40.6078 92.0567C40.6028 92.0716 40.5929 92.0816 40.5829 92.0915C40.1996 92.3155 39.7465 92.4997 39.0545 92.4599C39.0246 92.4599 38.9997 92.43 38.9997 92.4001C38.9997 92.3852 39.0097 92.3703 39.0197 92.3603C39.0296 92.3504 39.0446 92.3454 39.0595 92.3454C39.7266 92.3802 40.1498 92.211 40.5232 91.992C40.5331 91.987 40.5431 91.982 40.558 91.982ZM43.1817 93.4354C43.1916 93.4354 43.2016 93.4404 43.2116 93.4454C43.2265 93.4553 43.2315 93.4653 43.2364 93.4802C43.2414 93.4951 43.2364 93.5101 43.2265 93.525C42.873 94.0426 42.2557 94.3811 41.7728 94.2816C41.7429 94.2766 41.723 94.2467 41.728 94.2119C41.7329 94.1969 41.7379 94.182 41.7529 94.177C41.7678 94.1671 41.7827 94.1671 41.7977 94.1671C42.2109 94.2517 42.8033 93.9481 43.1369 93.4603C43.1468 93.4454 43.1618 93.4354 43.1817 93.4354ZM54.4381 98.8806C54.453 98.8806 54.4679 98.8856 54.4779 98.8955L55.8121 100.095C55.8221 100.105 55.832 100.12 55.832 100.135C55.832 100.15 55.8271 100.165 55.8171 100.175C55.8071 100.185 55.7922 100.195 55.7773 100.195C55.7623 100.195 55.7474 100.19 55.7374 100.18L54.4032 98.9802C54.3932 98.9702 54.3833 98.9553 54.3833 98.9403C54.3833 98.9254 54.3883 98.9105 54.3982 98.9005C54.4032 98.8856 54.4231 98.8806 54.4381 98.8806Z" fill="#F8B68A"/>
<path d="M72.4993 117.406C72.5342 117.411 72.5641 117.436 72.574 117.471L74.0078 124.295C74.0128 124.315 74.0078 124.34 73.9979 124.355C73.9879 124.375 73.968 124.384 73.9481 124.389C73.9282 124.394 73.9033 124.389 73.8883 124.379C73.8684 124.37 73.8585 124.35 73.8535 124.33L72.4197 117.506C72.4097 117.461 72.4396 117.421 72.4794 117.411C72.4844 117.406 72.4944 117.406 72.4993 117.406Z" fill="#1F120C"/>
<path d="M191.278 179.911C191.278 179.911 189.162 179.528 189.757 181.235C189.757 181.235 194.671 183.342 198.116 182.872C198.116 182.872 200.529 182.785 200.144 180.173L200.179 178.048L196.944 178.657L197.136 180.678L191.278 179.911Z" fill="#FFBE9D"/>
<g filter="url(#filter2_f_462_56720)">
<path d="M196.816 180.006C196.816 180.337 196.711 180.668 196.484 180.912C195.645 181.887 193.966 181.922 192.794 181.835C190.941 181.713 189 181.434 187.181 181.051C186.779 180.964 186.674 180.842 186.656 180.72C186.866 180.25 187.251 179.849 187.915 179.727L186.114 179.501C184.453 179.449 183.701 179.814 183.316 180.076C182.862 181.382 185.082 182.253 185.082 182.253C185.082 182.253 187.461 183.141 190.311 183.698C190.311 183.698 196.606 185.178 197.376 183.245L196.816 180.006Z" fill="url(#paint0_linear_462_56720)" fill-opacity="0.3"/>
</g>
<g filter="url(#filter3_f_462_56720)">
<path d="M211.052 176.447C211.052 176.778 210.947 177.109 210.719 177.353C209.88 178.328 208.201 178.363 207.03 178.276C205.176 178.154 203.235 177.875 201.416 177.492C201.014 177.405 200.909 177.283 200.892 177.161C201.101 176.691 201.486 176.291 202.151 176.169L200.35 175.942C198.688 175.89 197.936 176.256 197.552 176.517C197.097 177.823 199.318 178.694 199.318 178.694C199.318 178.694 201.696 179.582 204.546 180.139C204.546 180.139 210.842 181.619 211.611 179.686L211.052 176.447Z" fill="url(#paint1_linear_462_56720)" fill-opacity="0.4"/>
</g>
<path d="M200.141 180.174C200.141 180.505 200.037 180.836 199.809 181.079C198.97 182.055 197.291 182.089 196.119 182.002C194.266 181.88 192.325 181.602 190.506 181.219C190.104 181.132 189.999 181.01 189.981 180.888C190.191 180.418 190.576 180.017 191.241 179.895L189.439 179.669C187.778 179.616 187.026 179.982 186.641 180.243C186.187 181.55 188.408 182.42 188.408 182.42C188.408 182.42 190.786 183.308 193.636 183.866C193.636 183.866 199.932 185.346 200.701 183.413L200.141 180.174Z" fill="#2C2C2C"/>
<path d="M203.779 176.986C203.779 176.986 201.663 176.603 202.258 178.31C202.258 178.31 207.172 180.417 210.616 179.947C210.616 179.947 213.03 179.86 212.645 177.248L212.68 175.123L209.445 175.733L209.637 177.753L203.779 176.986Z" fill="#E59375"/>
<path d="M212.663 177.265C212.663 177.596 212.558 177.927 212.331 178.171C211.491 179.146 209.813 179.181 208.641 179.094C206.787 178.972 204.846 178.693 203.028 178.31C202.625 178.223 202.52 178.101 202.503 177.979C202.713 177.509 203.098 177.108 203.762 176.987L201.961 176.76C200.3 176.708 199.548 177.074 199.163 177.335C198.708 178.641 200.929 179.512 200.929 179.512C200.929 179.512 203.307 180.4 206.158 180.957C206.158 180.957 212.453 182.437 213.223 180.504L212.663 177.265Z" fill="#2C2C2C"/>
<path d="M203.203 120.319C203.203 123.628 205.896 126.31 209.219 126.31C212.541 126.31 215.234 123.628 215.234 120.319C215.234 117.01 212.541 114.328 209.219 114.328C205.896 114.328 203.203 117.01 203.203 120.319Z" fill="#00468B"/>
<path d="M213.014 149.175C213.014 149.175 212.927 150.69 210.216 150.725C210.216 150.725 207.645 151.595 206.526 148.269C202.155 135.139 203.309 121.433 203.309 121.433C203.309 121.433 209.482 118.003 215.235 120.354C215.235 120.319 214.308 137.559 213.014 149.175Z" fill="#23282B"/>
<path d="M206.525 148.253C206.525 148.253 208.641 176.639 208.851 177.649C210.915 178.955 212.751 177.614 212.751 177.614C212.733 176.221 214.272 164.605 214.43 162.428C214.692 158.684 215.146 153.947 212.768 148.566L206.525 148.253Z" fill="#23282B"/>
<path d="M195.561 150.029C195.561 150.029 194.984 151.422 192.396 150.569C192.396 150.569 189.686 150.551 189.738 147.033C189.983 133.189 196.068 118.857 196.068 118.857C196.068 118.857 202.923 118.212 207.575 122.322C207.592 122.305 200.65 139.51 195.561 150.029Z" fill="#23282A"/>
<path d="M196.245 118.334C195.143 121.451 196.787 124.881 199.934 125.979C203.065 127.076 206.51 125.439 207.611 122.304C208.713 119.187 207.069 115.756 203.921 114.659C200.774 113.579 197.346 115.216 196.245 118.334Z" fill="#23282B"/>
<path d="M215.234 119.449C214.499 112.779 211.142 109.696 211.142 109.696L199.513 108.234C199.513 108.234 196.313 113.789 195.963 119.449C197.362 123.228 202.311 124.325 202.311 124.325L206.07 125.439C206.088 125.439 214.622 124.15 215.234 119.449Z" fill="#23282B"/>
<path d="M190.299 149.784C190.299 149.784 196.07 179.616 196.419 180.574C196.262 180.504 199.147 181.897 200.424 180.103C200.214 178.728 200.092 163.577 199.917 161.4C199.619 157.656 199.672 154.156 196.524 149.192C196.507 149.192 188.62 143.567 190.299 149.784Z" fill="#23282A"/>
<path d="M216.091 97.5769C216.091 97.5769 213.975 100.067 209.761 106.058L210.495 107.294C210.495 107.294 217.717 103.672 220.008 99.6144L216.091 97.5769Z" fill="#FFBE9D"/>
<path d="M210.128 88.6762C210.128 88.6762 215.567 100.483 218.819 100.03C218.819 100.03 219.939 100.1 220.166 99.2642C220.166 99.2642 222.474 97.2267 212.891 82.5462C212.891 82.5462 211.947 81.2924 210.041 81.6232C210.041 81.6232 207.138 83.5388 210.128 88.6762Z" fill="#FFBE9D"/>
<path d="M207.225 79.4292H201.35V85.6462H207.225V79.4292Z" fill="#FFBE9D"/>
<path d="M197.711 79.5868L197.484 78.5942L197.047 75.4073C196.994 74.9545 197.099 74.3624 197.257 73.927C197.449 73.4568 197.606 72.9518 197.554 72.412C197.327 69.8172 199.023 68.1454 199.023 68.1454C201.034 66.0208 204.881 66.5258 204.899 66.5258C206.892 66.9089 208.606 67.7448 209.498 69.4515C210.32 71.0014 210.687 72.8647 210.04 74.5017C209.34 76.3128 208.099 77.6886 206.507 78.925C205.493 79.7087 204.496 79.7609 203.202 80.1092C202.31 80.353 200.614 80.4401 199.67 80.3879C199.198 80.3879 197.834 80.1441 197.711 79.5868Z" fill="#FFBE9D"/>
<path d="M200.387 76.2074C200.684 75.7894 201.733 75.5456 201.733 75.5456C203.01 75.5456 202.835 77.2348 202.957 77.9662C202.992 78.2101 203.045 78.4539 203.097 78.6977C203.709 80.8571 205.528 80.8397 207.084 81.1009C207.137 81.0661 207.207 81.0312 207.259 80.9964C207.539 80.0386 208.431 79.046 208.431 79.046C210.757 77.0433 211.526 73.421 210.634 70.5824C210.372 69.7291 209.795 68.8062 209.183 68.1618C207.871 66.7686 206.175 66.0198 204.356 65.6889C202.555 65.3581 196.085 66.2288 197.851 70.1297C197.851 70.1297 200.509 73.1772 200.387 76.2074Z" fill="#B07341"/>
<path d="M200.389 76.2081C200.616 75.6335 201.193 75.1807 201.823 75.3722C202.295 75.5116 202.575 75.9295 202.522 76.3997C202.505 76.5042 202.487 76.6087 202.487 76.7132C202.295 77.8277 201.123 78.2457 201.123 78.2457" fill="#FFBE9D"/>
<path d="M201.7 75.8937C201.63 75.8415 201.507 75.8241 201.42 75.8241C200.983 75.7893 200.65 76.451 201.07 76.5729C201.228 76.7296 201.07 76.9038 201.07 76.9038C200.93 77.0605 200.72 77.2869 200.773 77.5133C200.808 77.6526 200.948 77.7223 201.088 77.7571C201.193 77.7919 201.21 77.7049 201.123 77.6526C201.053 77.6178 201 77.5655 200.965 77.5133C200.965 77.5133 200.965 77.4959 200.948 77.4959C200.948 77.4959 200.948 77.4785 200.93 77.4785C200.913 77.4436 200.913 77.4088 200.93 77.374C201.035 77.4436 201.193 77.4611 201.263 77.374C201.35 77.2695 201.28 77.1302 201.315 77.0083C201.332 76.9386 201.367 76.8515 201.42 76.7819C201.612 76.451 201.263 76.3988 201.263 76.3988C201.21 76.3988 201.175 76.3988 201.14 76.4162C200.965 76.3291 201.158 76.0505 201.263 76.0156C201.385 75.9634 201.542 75.9808 201.63 76.0853C201.717 76.1898 201.752 76.3291 201.752 76.4684C201.735 76.6252 201.7 76.7819 201.63 76.9212C201.595 77.0083 201.542 77.0953 201.507 77.1824C201.455 77.2695 201.577 77.3217 201.612 77.2172C201.7 77.0257 201.875 76.7471 201.91 76.4684C201.945 76.2594 201.91 76.0331 201.7 75.8937Z" fill="#E59378"/>
<path d="M200.389 76.208C200.389 76.208 200.441 76.1384 200.529 75.999C200.564 75.9294 200.633 75.8771 200.703 75.7901C200.773 75.7204 200.878 75.6333 200.966 75.5811C201.071 75.5289 201.193 75.4592 201.333 75.4418C201.473 75.4244 201.613 75.4244 201.753 75.4766C201.805 75.494 201.91 75.5288 201.963 75.5637C202.015 75.5985 202.067 75.6333 202.137 75.6856C202.242 75.7901 202.33 75.912 202.365 76.0687C202.4 76.2254 202.4 76.3648 202.365 76.5389L202.347 76.6608V76.6782C202.347 76.6782 202.347 76.6956 202.347 76.6608V76.6956L202.33 76.7653C202.312 76.8524 202.295 76.922 202.277 76.9917C202.225 77.131 202.155 77.2703 202.085 77.3922C202.015 77.5141 201.91 77.6186 201.823 77.7057C201.648 77.8798 201.473 78.0191 201.333 78.1062C201.211 78.1933 201.123 78.2281 201.123 78.2281C201.123 78.2281 201.211 78.2107 201.35 78.1585C201.49 78.0888 201.7 78.0017 201.928 77.8276C202.032 77.7405 202.155 77.636 202.242 77.5141C202.347 77.3922 202.435 77.2529 202.505 77.0788C202.54 76.9917 202.575 76.9046 202.592 76.8175L202.61 76.7479V76.713V76.6956V76.6782L202.627 76.5563C202.662 76.3996 202.662 76.1732 202.627 75.9816C202.575 75.7901 202.452 75.6159 202.312 75.4766C202.277 75.4418 202.242 75.4069 202.19 75.3895L202.05 75.3199C201.963 75.285 201.91 75.2502 201.788 75.2328C201.613 75.1806 201.42 75.198 201.263 75.2328C201.106 75.2676 200.966 75.3547 200.843 75.4418C200.721 75.5463 200.651 75.6159 200.581 75.7204C200.529 75.8249 200.459 75.8946 200.441 75.9642C200.406 76.1209 200.389 76.208 200.389 76.208Z" fill="#E59378"/>
<path d="M201.121 77.9838C201.121 78.1754 200.964 78.3321 200.772 78.3321C200.579 78.3321 200.422 78.1754 200.422 77.9838C200.422 77.7922 200.579 77.6355 200.772 77.6355C200.964 77.6355 201.121 77.7922 201.121 77.9838Z" fill="white"/>
<path d="M200.842 78.1754C200.685 78.1754 200.563 78.0534 200.563 77.8967C200.563 77.7748 200.65 77.6703 200.755 77.6355C200.563 77.6355 200.405 77.7922 200.405 77.9838C200.405 78.1754 200.563 78.3321 200.755 78.3321C200.947 78.3321 201.105 78.1754 201.105 77.9838V77.9664C201.087 78.0883 200.982 78.1754 200.842 78.1754Z" fill="#E6E7E8"/>
<path d="M211.963 102.974C211.665 101.616 211.595 98.4115 211.595 98.4115L212.627 84.9326C212.382 83.313 212.277 81.2407 210.057 81.6064C208.5 81.8676 208.185 82.0766 207.224 82.3901C207.503 83.7136 205.213 84.5495 205.213 84.5495C202.065 85.9078 201.348 85.0023 201.348 85.0023C200.509 85.455 197.676 86.8656 196.941 87.4577C196.172 88.0847 195.717 89.0599 195.962 90.6968L198.218 104.158L197.816 107.502L195.228 118.821C195.228 118.821 210.948 122.078 214.883 114.346L211.963 102.974Z" fill="url(#paint2_linear_462_56720)"/>
<path d="M188.669 106.16L197.43 96.0939C197.43 96.0939 202.676 89.5635 198.619 87.4911C198.619 87.4911 196.363 86.8468 193.53 90.3471L184.35 103.896C184.35 103.896 185.311 105.933 188.669 106.16Z" fill="#FFBE9D"/>
<path d="M214.289 75.8765C214.097 80.5436 212.436 85.0017 212.698 89.7211C212.838 92.0895 213.327 94.4404 213.607 96.7914C209.008 95.7117 208.606 91.776 208.606 87.7532C208.606 83.9743 210.547 78.2797 209.201 74.6923C208.658 73.2643 206.665 71.8885 206.875 70.2167C207.085 68.5623 209.201 68.1269 210.617 68.4752C213.66 69.2589 214.394 73.2294 214.289 75.8765Z" fill="#A36B3C"/>
<path d="M206.228 70.6166C206.036 69.8504 206.403 68.8403 207.032 68.3701C208.099 67.6039 209.638 67.5342 209.516 68.3701C209.463 68.701 208.344 67.987 207.295 69.4673C206.962 69.9374 206.735 72.6193 206.228 70.6166Z" fill="#303945"/>
<path d="M186.536 102.172L170.868 98.8457C169.312 99.7338 169.731 100.413 169.731 100.413L180.031 105.115C184.368 107.187 187.026 106.926 187.026 106.926C187.026 106.926 189.492 107.187 188.88 103.913C188.88 103.913 188.6 102.451 186.536 102.172Z" fill="#FFBE9D"/>
<path d="M171.306 98.9335C171.306 98.9335 170.834 97.5055 169.086 96.3561L165.221 93.7265C165.221 93.7265 164.032 93.6917 165.029 94.632C165.029 94.632 163.787 94.1444 164.521 95.2416L166.987 97.1049C166.987 97.1049 165.78 100.257 169.995 100.536L171.306 98.9335Z" fill="#FFBE9D"/>
<defs>
<filter id="filter0_f_462_56720" x="55.417" y="175.45" width="19.8721" height="17.3615" filterUnits="userSpaceOnUse" color-interpolation-filters="sRGB">
<feFlood flood-opacity="0" result="BackgroundImageFix"/>
<feBlend mode="normal" in="SourceGraphic" in2="BackgroundImageFix" result="shape"/>
<feGaussianBlur stdDeviation="2.5" result="effect1_foregroundBlur_462_56720"/>
</filter>
<filter id="filter1_f_462_56720" x="76.6104" y="176.369" width="27.2627" height="18.6311" filterUnits="userSpaceOnUse" color-interpolation-filters="sRGB">
<feFlood flood-opacity="0" result="BackgroundImageFix"/>
<feBlend mode="normal" in="SourceGraphic" in2="BackgroundImageFix" result="shape"/>
<feGaussianBlur stdDeviation="2.5" result="effect1_foregroundBlur_462_56720"/>
</filter>
<filter id="filter2_f_462_56720" x="180.255" y="176.496" width="20.1211" height="10.7438" filterUnits="userSpaceOnUse" color-interpolation-filters="sRGB">
<feFlood flood-opacity="0" result="BackgroundImageFix"/>
<feBlend mode="normal" in="SourceGraphic" in2="BackgroundImageFix" result="shape"/>
<feGaussianBlur stdDeviation="1.5" result="effect1_foregroundBlur_462_56720"/>
</filter>
<filter id="filter3_f_462_56720" x="193.49" y="171.937" width="22.1211" height="12.7438" filterUnits="userSpaceOnUse" color-interpolation-filters="sRGB">
<feFlood flood-opacity="0" result="BackgroundImageFix"/>
<feBlend mode="normal" in="SourceGraphic" in2="BackgroundImageFix" result="shape"/>
<feGaussianBlur stdDeviation="2" result="effect1_foregroundBlur_462_56720"/>
</filter>
<linearGradient id="paint0_linear_462_56720" x1="182.662" y1="180.514" x2="195.71" y2="185.852" gradientUnits="userSpaceOnUse">
<stop stop-color="#2C2C2C"/>
<stop offset="1" stop-color="#2C2C2C" stop-opacity="0"/>
</linearGradient>
<linearGradient id="paint1_linear_462_56720" x1="196.897" y1="176.955" x2="209.945" y2="182.293" gradientUnits="userSpaceOnUse">
<stop stop-color="#2C2C2C"/>
<stop offset="1" stop-color="#2C2C2C" stop-opacity="0"/>
</linearGradient>
<linearGradient id="paint2_linear_462_56720" x1="205.054" y1="81.0242" x2="205.059" y2="125.388" gradientUnits="userSpaceOnUse">
<stop stop-color="#00937D"/>
<stop offset="0.9939" stop-color="#81CEC3"/>
</linearGradient>
<clipPath id="clip0_462_56720">
<rect width="83.0745" height="161.833" fill="white" transform="translate(97.0566)"/>
</clipPath>
</defs>
</svg>
