<svg width="60" height="60" viewBox="0 0 60 60" fill="none" xmlns="http://www.w3.org/2000/svg">
<g filter="url(#filter0_d_1048_59317)">
<circle cx="30" cy="28" r="14" fill="#00937D"/>
<circle cx="30" cy="28" r="14.5" stroke="white"/>
</g>
<path d="M27.5 19.666C25.3166 19.666 23.5416 21.441 23.5416 23.6243C23.5416 25.766 25.2166 27.4993 27.4 27.5743C27.4666 27.566 27.5333 27.566 27.5833 27.5743C27.6 27.5743 27.6083 27.5743 27.625 27.5743C27.6333 27.5743 27.6333 27.5743 27.6416 27.5743C29.775 27.4993 31.45 25.766 31.4583 23.6243C31.4583 21.441 29.6833 19.666 27.5 19.666Z" fill="white"/>
<path d="M31.7333 29.7914C29.4083 28.2414 25.6166 28.2414 23.275 29.7914C22.2166 30.4997 21.6333 31.4581 21.6333 32.4831C21.6333 33.5081 22.2166 34.4581 23.2666 35.1581C24.4333 35.9414 25.9666 36.3331 27.5 36.3331C29.0333 36.3331 30.5666 35.9414 31.7333 35.1581C32.7833 34.4497 33.3666 33.4997 33.3666 32.4664C33.3583 31.4414 32.7833 30.4914 31.7333 29.7914Z" fill="white"/>
<path d="M36.6583 24.1171C36.7916 25.7337 35.6416 27.1504 34.05 27.3421C34.0416 27.3421 34.0416 27.3421 34.0333 27.3421H34.0083C33.9583 27.3421 33.9083 27.3421 33.8666 27.3587C33.0583 27.4004 32.3166 27.1421 31.7583 26.6671C32.6166 25.9004 33.1083 24.7504 33.0083 23.5004C32.95 22.8254 32.7166 22.2087 32.3666 21.6837C32.6833 21.5254 33.05 21.4254 33.425 21.3921C35.0583 21.2504 36.5166 22.4671 36.6583 24.1171Z" fill="white"/>
<path d="M38.325 31.8247C38.2583 32.633 37.7417 33.333 36.875 33.808C36.0417 34.2663 34.9917 34.483 33.95 34.458C34.55 33.9163 34.9 33.2413 34.9667 32.5247C35.05 31.4913 34.5583 30.4997 33.575 29.708C33.0167 29.2663 32.3667 28.9163 31.6583 28.658C33.5 28.1247 35.8167 28.483 37.2417 29.633C38.0083 30.2497 38.4 31.0247 38.325 31.8247Z" fill="white"/>
<defs>
<filter id="filter0_d_1048_59317" x="0" y="0" width="60" height="60" filterUnits="userSpaceOnUse" color-interpolation-filters="sRGB">
<feFlood flood-opacity="0" result="BackgroundImageFix"/>
<feColorMatrix in="SourceAlpha" type="matrix" values="0 0 0 0 0 0 0 0 0 0 0 0 0 0 0 0 0 0 127 0" result="hardAlpha"/>
<feOffset dy="2"/>
<feGaussianBlur stdDeviation="7.5"/>
<feComposite in2="hardAlpha" operator="out"/>
<feColorMatrix type="matrix" values="0 0 0 0 0 0 0 0 0 0 0 0 0 0 0 0 0 0 0.1 0"/>
<feBlend mode="normal" in2="BackgroundImageFix" result="effect1_dropShadow_1048_59317"/>
<feBlend mode="normal" in="SourceGraphic" in2="effect1_dropShadow_1048_59317" result="shape"/>
</filter>
</defs>
</svg>
