<svg width="164" height="91" viewBox="0 0 164 91" fill="none" xmlns="http://www.w3.org/2000/svg">
<path d="M82 91C127.287 91 164 87.866 164 84C164 80.134 127.287 77 82 77C36.7127 77 0 80.134 0 84C0 87.866 36.7127 91 82 91Z" fill="#DAF3F0"/>
<path d="M92.653 34.3479C92.653 34.3479 92.5828 35.5762 92.653 41.294C92.7053 45.5479 98.6798 82.7766 98.6798 82.7766H105.131L102.876 40.9436L111.275 82.7766H117.532C117.532 82.7766 112.787 42.4391 112.299 37.4747C111.447 28.8222 104.07 25.9468 104.07 25.9468L92.653 34.3464V34.3479Z" fill="#404040"/>
<path d="M111.752 63.6865C111.746 63.6145 111.09 56.3952 109.787 48.7077C108.067 38.5469 106.006 32.1883 103.827 30.3207L103.918 30.2141C105.151 31.2714 106.336 33.6913 107.442 37.4064C108.324 40.3711 109.159 44.1657 109.925 48.6852C111.228 56.3779 111.885 63.6017 111.891 63.6737L111.752 63.6865H111.752Z" fill="#494554"/>
<path d="M100.155 65.4807C98.8822 58.5923 96.3333 35.0969 96.3071 34.8597L96.446 34.8447C96.4714 35.0811 99.0203 58.5721 100.292 65.4552L100.155 65.4807Z" fill="#494554"/>
<path d="M78.9541 45.9861L78.8047 46.5812L76.3835 45.8811L77.0706 44.9844L78.9541 45.9861Z" fill="#FFBE9D"/>
<path d="M90.5824 31.7486L89.0895 30.2673L84.0171 31.7883L85.0485 35.5792C85.0485 35.5792 80.8611 38.8088 76.2719 44.453L76.2652 44.4485L75.5751 45.3715L75.0852 46.5578C75.0852 46.5578 75.4646 46.6711 75.8679 46.3987C76.0874 46.2502 76.425 45.8442 76.6864 45.505C76.9157 45.2079 77.3234 45.1194 77.6543 45.2949L78.9545 45.986C78.9545 45.986 90.4778 39.8203 90.8699 37.8393C91.2612 35.8583 90.5831 31.7486 90.5831 31.7486H90.5824Z" fill="#FFBE9D"/>
<path d="M84.0171 31.7884L89.0036 30.3552L90.5823 31.7487C90.5823 31.7487 91.0499 33.6628 90.8908 35.1531C90.8908 35.1531 89.1148 36.5915 85.0492 35.5793L84.0178 31.7884H84.0171Z" fill="#FFBE9D"/>
<path d="M94.1801 35.4891L80.3535 21.7762C80.3535 21.7762 80.8195 16.342 84.7747 13.0982C88.7298 9.85435 96.3765 10.3578 96.3765 10.3578L104.889 27.6103L94.1793 35.4891H94.1801Z" fill="#00937D"/>
<path d="M80.3547 21.7764L81.5698 32.5847L89.0044 30.3553L80.3547 21.7764Z" fill="#017C6A"/>
<path d="M96.3774 10.3579L107.153 14.635L102.308 22.3773L96.3774 10.3579Z" fill="#017C6A"/>
<path d="M76.1311 4.91327L78.1221 11.0655C78.73 12.9445 80.4649 14.2223 82.4305 14.2411C82.8532 15.0125 83.7972 15.9954 84.55 16.4464L88.048 18.3996L88.4775 15.2901C88.6686 13.9072 88.4491 12.498 87.8471 11.2396L83.4379 2.02661L76.1311 4.91327Z" fill="#FFBE9D"/>
<path d="M80.1428 9.47637C80.2309 9.70223 80.4199 9.83879 80.564 9.78176C80.7082 9.72473 80.7537 9.49587 80.6656 9.27001C80.5775 9.04415 80.3885 8.90759 80.2444 8.96461C80.1002 9.02164 80.0547 9.2505 80.1428 9.47637Z" fill="#494554"/>
<path d="M78.3665 10.2236C78.4464 10.4277 78.6167 10.5507 78.7466 10.4989C78.8773 10.4472 78.9184 10.2408 78.8385 10.0367C78.7586 9.83262 78.5883 9.70956 78.4583 9.76134C78.3276 9.81311 78.2866 10.0195 78.3665 10.2236Z" fill="#494554"/>
<path d="M79.4155 9.00586C79.3901 9.29175 79.3983 9.57539 79.4215 9.85828C79.4439 10.1412 79.4872 10.4211 79.5492 10.7009C79.5843 10.8398 79.6216 10.9793 79.6754 11.1189C79.7038 11.1887 79.7336 11.2577 79.7807 11.3305C79.8038 11.3658 79.8315 11.4055 79.8838 11.4438C79.8935 11.4528 79.9181 11.4626 79.9353 11.4693C79.9532 11.4776 79.9741 11.4813 80.0003 11.4798C80.0607 11.4768 80.0615 11.4671 80.0839 11.4611C80.2333 11.4055 80.3528 11.32 80.4655 11.2299C80.576 11.1369 80.6799 11.0371 80.768 10.9238C80.6403 10.9883 80.5171 11.0551 80.3916 11.1114C80.2684 11.1699 80.1407 11.2217 80.0212 11.2472C80.0107 11.2502 79.9779 11.2555 80.0032 11.2487C80.0107 11.2495 80.0152 11.251 80.0174 11.2487C80.0197 11.2472 80.0249 11.254 80.0234 11.2495C80.0212 11.2442 80.0055 11.2262 79.9943 11.2014C79.9696 11.1534 79.9472 11.0911 79.9293 11.0289C79.8897 10.9035 79.8561 10.7707 79.827 10.6364L79.641 9.82376C79.5768 9.55138 79.5081 9.27824 79.4162 9.00661L79.4155 9.00586Z" fill="#494554"/>
<path d="M78.6764 8.37615C78.6764 8.37615 78.0169 9.42517 76.9236 9.606C76.9236 9.606 77.1372 8.24259 78.6764 8.37615Z" fill="#494554"/>
<path d="M81.225 7.81501C81.225 7.81501 80.1974 8.50234 79.1257 8.21945C79.1257 8.21945 79.8748 7.06164 81.225 7.81501Z" fill="#494554"/>
<path d="M78.7432 11.1877C78.2137 11.3971 77.614 11.1345 77.4057 10.6025C77.1973 10.0705 77.4587 9.46791 77.9882 9.25855C78.5177 9.0492 79.1174 9.31183 79.3257 9.84384C79.5341 10.3759 79.2727 10.9784 78.7432 11.1877ZM78.0218 9.34335C77.5386 9.53394 77.3004 10.084 77.4901 10.5694C77.6798 11.0549 78.2272 11.2943 78.7104 11.1037C79.1935 10.9131 79.4318 10.3631 79.2421 9.87761C79.0524 9.39212 78.505 9.15275 78.0218 9.34335Z" fill="#494554"/>
<path d="M81.0587 10.2732C80.5292 10.4825 79.9295 10.2199 79.7211 9.68791C79.5127 9.1559 79.7741 8.55336 80.3036 8.344C80.8331 8.13465 81.4328 8.39728 81.6412 8.92929C81.8495 9.4613 81.5881 10.0638 81.0587 10.2732ZM80.3372 8.42879C79.854 8.61939 79.6158 9.1694 79.8055 9.65489C79.9952 10.1404 80.5426 10.3797 81.0258 10.1892C81.509 9.99856 81.7472 9.44854 81.5575 8.96306C81.3678 8.47757 80.8204 8.2382 80.3372 8.42879Z" fill="#494554"/>
<path d="M80.0107 12.3801C80.0107 12.3801 81.0608 12.1557 81.6776 11.3093C81.6776 11.3093 81.8994 13.6955 80.0107 12.3801Z" fill="#FCF5F2"/>
<path d="M84.0264 3.25575C84.0264 3.25575 81.8457 5.87153 77.125 7.98456C77.125 7.98456 74.5478 5.70195 76.0339 3.56565C77.5201 1.42936 83.7583 1.71374 83.7583 1.71374L84.0264 3.25575Z" fill="#494554"/>
<path d="M81.8942 3.43805C81.8942 3.43805 81.7964 6.7119 85.0839 6.02232L88.0203 11.6013L91.7843 7.65437C91.7843 7.65437 87.2145 1.37679 84.7455 0.396815C80.8882 -1.13468 78.1362 2.26073 78.1362 2.26073L81.8942 3.43805Z" fill="#494554"/>
<path d="M87.1015 6.93833C87.3226 5.87004 86.9735 4.8936 86.3218 4.75739C85.67 4.62118 84.9624 5.37678 84.7413 6.44507C84.5201 7.51337 84.8692 8.48981 85.5209 8.62602C86.1727 8.76223 86.8803 8.00662 87.1015 6.93833Z" fill="#FFBE9D"/>
<path d="M85.5393 6.84485C85.6297 6.49217 85.6812 6.15001 85.7776 5.82885C85.8268 5.67052 85.8836 5.51595 85.9747 5.39439C86.021 5.33511 86.0763 5.28183 86.1465 5.24656C86.2159 5.20829 86.2996 5.19104 86.3907 5.17978C86.3093 5.13851 86.2122 5.12125 86.1129 5.13401C86.0136 5.14827 85.9172 5.19629 85.8418 5.26382C85.6864 5.39889 85.6051 5.58198 85.5498 5.75907C85.4975 5.93915 85.4729 6.12224 85.4721 6.30383C85.4699 6.48542 85.4871 6.66776 85.5393 6.8441V6.84485Z" fill="#494554"/>
<path d="M84.7947 5.95973L81.4541 8.58398L81.5001 8.6431L84.8407 6.01885L84.7947 5.95973Z" fill="#494554"/>
<path d="M82.4304 14.2402C82.4304 14.2402 83.7344 14.1795 84.5469 13.0847C84.7821 12.7673 85.2795 12.9916 85.1981 13.3796C85.0674 14.0001 84.6485 14.7963 83.5805 15.6772C83.5805 15.6772 82.9099 15.1819 82.4312 14.241L82.4304 14.2402Z" fill="#FFBE9D"/>
<path d="M105.019 37.949L80.79 29.262C80.7758 29.2567 80.7609 29.253 80.7467 29.2485C80.926 28.5221 81.0215 27.768 81.0215 26.9929C81.0215 21.2541 75.826 16.6018 69.4168 16.6018C63.0076 16.6018 57.812 21.2541 57.812 26.9929C57.812 32.7317 63.0076 37.384 69.4168 37.384C73.6871 37.384 77.4174 35.319 79.4323 32.2432C79.504 32.3032 79.5869 32.3528 79.6803 32.3865L103.909 41.0735C104.331 41.2251 104.796 41.0037 104.946 40.5798L105.51 38.9905C105.661 38.5666 105.441 38.1006 105.019 37.949Z" fill="#494554"/>
<path d="M69.4177 35.7512C74.8193 35.7512 79.198 31.8303 79.198 26.9936C79.198 22.157 74.8193 18.2361 69.4177 18.2361C64.0162 18.2361 59.6375 22.157 59.6375 26.9936C59.6375 31.8303 64.0162 35.7512 69.4177 35.7512Z" fill="white"/>
<mask id="mask0_3274_59751" style="mask-type:luminance" maskUnits="userSpaceOnUse" x="59" y="18" width="21" height="18">
<path d="M69.4177 35.7512C74.8193 35.7512 79.198 31.8303 79.198 26.9936C79.198 22.157 74.8193 18.2361 69.4177 18.2361C64.0162 18.2361 59.6375 22.157 59.6375 26.9936C59.6375 31.8303 64.0162 35.7512 69.4177 35.7512Z" fill="white"/>
</mask>
<g mask="url(#mask0_3274_59751)">
<path d="M73.3199 18.0737L67.8394 15.5188L58.9388 34.7934L64.4194 37.3483L73.3199 18.0737Z" fill="#FCF5F2"/>
<path d="M77.7307 19.0024L75.4653 17.9463L66.5648 37.2209L68.8302 38.2769L77.7307 19.0024Z" fill="#FCF5F2"/>
</g>
<path d="M111.796 20.812C111.1 18.4145 106.315 15.9751 106.315 15.9751L102.684 21.7762L104.294 22.8597C101.605 23.6401 96.3776 34.8521 96.3776 34.8521L93.7525 37.0191C93.5673 37.1722 93.5658 37.4581 93.7525 37.6097C94.1199 37.9106 94.2865 38.5837 95.1042 38.7735C96.4097 39.0759 97.4993 38.7652 97.4993 38.7652C97.4993 38.7652 99.208 37.161 99.3536 35.9071C101.991 33.3153 112.406 22.9062 111.797 20.8112L111.796 20.812Z" fill="#FFBE9D"/>
<path d="M88.0486 18.3989L90.2794 17.7228C90.2794 17.7228 90.6386 12.4628 88.021 11.6006C88.021 11.6006 88.7574 14.8969 88.0486 18.3982V18.3989Z" fill="white"/>
<path d="M82.9478 15.0381C82.9478 15.0381 82.431 18.1146 87.0799 19.9928L88.0485 18.3997C88.0485 18.3997 84.9701 16.7984 82.9478 15.0381Z" fill="white"/>
<path d="M106.315 15.9751C106.315 15.9751 105.167 21.2472 103.424 22.2744L102.684 21.7762L106.315 15.9751Z" fill="#FFBE9D"/>
<path d="M17.1101 73.2029L41.6998 61.2751C41.6998 61.2751 71.9264 53.0735 88.5856 71.3705L84.1234 82.2133L17.1101 73.2029Z" fill="#FCF5F2"/>
<path d="M148.394 72.7023L133.636 61.2742C133.636 61.2742 110.741 53.2708 91.1038 67.8947L84.124 77.4319L148.394 72.7023Z" fill="#92DCD1"/>
<path d="M24.0347 58.1803C24.0347 58.1803 40.8589 48.3198 53.8632 48.3723H72.5769L88.5864 71.3703L83.945 78.904C83.945 78.904 73.8809 49.8355 24.0354 58.1803H24.0347Z" fill="#92DCD1"/>
<path d="M83.9443 78.9033C83.9443 78.9033 76.0967 45.7716 33.7358 45.1676C33.7358 45.1676 63.4651 40.3375 82.8502 47.8846C82.8502 47.8846 92.8411 55.152 93.9329 69.49L83.945 78.9033H83.9443Z" fill="#92DCD1"/>
<path d="M33.7358 45.1677C35.101 45.0409 36.4752 45.0154 37.8471 45.0364C39.2197 45.0589 40.5916 45.1407 41.9598 45.2667C44.6954 45.5271 47.416 45.9833 50.0889 46.6452C50.4242 46.7239 50.7565 46.814 51.0896 46.9018C51.4234 46.9866 51.7543 47.0826 52.0851 47.1772C52.4174 47.268 52.746 47.3723 53.0746 47.4743C53.2389 47.5261 53.404 47.5749 53.5683 47.6281L54.0589 47.791C55.3666 48.2262 56.6586 48.7117 57.9297 49.2489C59.2015 49.7839 60.4457 50.3865 61.6645 51.0348C62.8833 51.6846 64.0752 52.3855 65.2358 53.1366C66.3896 53.8982 67.5091 54.7116 68.5927 55.5708L69.3978 56.2251L70.1834 56.9019C70.4486 57.124 70.6995 57.3627 70.9549 57.5953C71.2096 57.8294 71.4665 58.0605 71.7099 58.3066C73.6965 60.2321 75.5008 62.3451 77.093 64.6052C78.6725 66.8743 80.0705 69.2695 81.2296 71.7742C82.3909 74.2774 83.3625 76.8654 84.1242 79.5112C83.2146 76.9142 82.1616 74.3712 80.9212 71.9258C80.8435 71.7727 80.7703 71.6181 80.6911 71.4666L80.4484 71.0133L79.963 70.1076L79.4499 69.2177L79.193 68.7735C79.1071 68.6257 79.0138 68.4823 78.9242 68.336L78.3835 67.4641C78.2005 67.1752 78.0078 66.8931 77.8204 66.6072L77.5373 66.1795C77.4432 66.0369 77.3409 65.8996 77.2431 65.76L76.6501 64.9241C76.4462 64.6502 76.2379 64.3801 76.0317 64.1077L75.7218 63.7003L75.3992 63.3026C75.1834 63.0384 74.9735 62.7698 74.7539 62.5079L74.087 61.732C73.8682 61.4702 73.6315 61.2248 73.403 60.9719C73.1714 60.7213 72.9459 60.4662 72.7039 60.2253L71.9892 59.4944L71.2529 58.7861C71.0102 58.5467 70.754 58.3216 70.5031 58.092C70.2506 57.8639 70.0027 57.6298 69.7406 57.4122L68.9639 56.7488L68.1685 56.108C67.0983 55.2661 65.9923 54.4707 64.8542 53.7234C62.5741 52.2354 60.1686 50.9403 57.669 49.8567C56.4211 49.312 55.1508 48.8167 53.8633 48.371L53.3801 48.2044C53.2188 48.1496 53.056 48.0994 52.8939 48.0461L52.4077 47.8893C52.2457 47.8367 52.0821 47.7895 51.9193 47.7384C51.5937 47.6386 51.2681 47.5373 50.9395 47.4465C50.6116 47.3535 50.2845 47.2575 49.9544 47.1727C48.6371 46.8185 47.3055 46.5183 45.9664 46.255C44.6274 45.9923 43.2779 45.7747 41.9224 45.6066C41.2451 45.5174 40.5655 45.4468 39.8851 45.3815C39.2048 45.3193 38.5229 45.2705 37.8403 45.2292C37.1577 45.1887 36.4737 45.1624 35.7896 45.1512C35.1055 45.1384 34.4207 45.1362 33.7358 45.1669V45.1677Z" fill="#5ADECA"/>
<path d="M84.1235 77.4318C84.1235 77.4318 70.5068 49.6307 24.0347 58.1796C24.0347 58.1796 63.3246 49.8925 84.1235 77.4318Z" fill="#5ADECA"/>
<path d="M84.1233 77.4318C84.1233 77.4318 83.9276 56.2099 31.2181 70.2935L17.11 73.2019L12.2117 82.2123H153.489L148.394 72.7022C148.394 72.7022 131.739 68.6277 114.3 66.8553C96.861 65.0837 86.2794 72.6512 84.124 77.431L84.1233 77.4318Z" fill="#5FBBAD"/>
<path d="M154.567 81.7398H89.136C88.9613 80.1167 88.0965 77.1963 84.1234 77.4319C79.7486 77.6915 79.0727 80.5842 78.9786 81.7398H11.8018C11.2275 81.7398 10.7622 82.2072 10.7622 82.7843C10.7622 83.3613 11.2275 83.8288 11.8018 83.8288H154.568C155.141 83.8288 155.607 83.3613 155.607 82.7843C155.607 82.2072 155.142 81.7398 154.568 81.7398H154.567Z" fill="#00937D"/>
<path d="M84.1235 77.432C84.1235 77.432 87.4461 70.2389 93.9322 65.9543C93.9322 65.9543 84.5298 69.3813 84.1235 77.432Z" fill="#F8E7DF"/>
<path d="M31.8999 74.8611C31.8999 74.8611 62.8808 65.6564 80.5818 76.3701C80.5818 76.3701 63.5895 68.6744 31.8999 74.8611Z" fill="#5ADECA"/>
<path d="M91.2385 76.2456C91.2385 76.2456 107.117 70.2517 123.76 74.2399C123.76 74.2399 106.049 67.5121 91.2385 76.2456Z" fill="#5ADECA"/>
</svg>
