<svg width="80" height="112" viewBox="0 0 80 112" fill="none" xmlns="http://www.w3.org/2000/svg">
<path d="M21.5636 14.568C21.037 14.568 20.3717 14.568 19.5678 14.568C19.3737 14.568 19.152 14.5403 18.9579 14.6234C18.7639 14.7066 18.5976 14.8452 18.4867 15.0393C18.4312 15.1501 18.4035 15.2333 18.3758 15.3719C18.3481 15.4828 18.3758 15.5937 18.3481 15.7323C18.3481 15.8431 18.3481 15.9817 18.3481 16.0926C18.3481 16.2035 18.3481 16.3421 18.3204 16.4807C18.2649 16.7302 18.0986 16.9797 17.8768 17.1183C17.7659 17.2014 17.6273 17.2292 17.4887 17.2569C17.3501 17.2569 17.2115 17.2569 17.0729 17.2569C16.5185 17.2569 15.9087 17.2569 15.2988 17.2569C14.0514 17.2569 12.6931 17.2569 11.2516 17.2569C10.8913 17.2569 10.5309 17.2569 10.1428 17.2569C10.0597 17.2569 9.94878 17.2569 9.86562 17.2569C9.78246 17.2569 9.67157 17.2569 9.58841 17.2292C9.39437 17.1737 9.22805 17.0628 9.08945 16.9242C8.95084 16.7856 8.86768 16.5916 8.83996 16.3976C8.83996 16.2867 8.83996 16.2035 8.83996 16.0926C8.83996 15.9817 8.83996 15.8986 8.83996 15.7877C8.83996 15.5937 8.86768 15.3719 8.78452 15.2056C8.72908 15.0115 8.59048 14.8452 8.42416 14.7343C8.25783 14.6234 8.06379 14.568 7.84203 14.568C7.62026 14.568 7.42622 14.568 7.20445 14.568C6.78865 14.568 6.34512 14.568 5.92932 14.568C5.06998 14.568 4.15521 14.568 3.26815 14.568C2.82463 14.568 2.35338 14.6234 1.93757 14.8175C1.52176 15.0115 1.13368 15.2887 0.828753 15.6491C0.523828 16.0095 0.302065 16.453 0.191183 16.9242C0.163463 17.0351 0.163463 17.1737 0.135742 17.2846C0.135742 17.3955 0.135742 17.4787 0.135742 17.5895V37.5205C0.135742 37.7977 0.135742 38.0472 0.135742 38.3244C0.135742 39.1283 0.135742 39.9599 0.135742 40.7638V66.6824C0.135742 67.0151 0.163463 67.3477 0.246624 67.6527C0.440667 68.3179 0.856474 68.9001 1.4386 69.2882C1.99301 69.6762 2.68602 69.8703 3.37903 69.8148C4.07204 69.8148 4.76506 69.8148 5.45807 69.8148C6.84409 69.8148 8.20239 69.8148 9.56069 69.8148C12.2773 69.8148 14.9385 69.8148 17.5719 69.8148C18.8748 69.8148 20.1776 69.8148 21.4805 69.8148C22.1181 69.8148 22.7833 69.8148 23.3932 69.8148C24.0308 69.7871 24.6406 69.5376 25.1119 69.1496C25.3613 68.9555 25.5554 68.706 25.7217 68.4565C25.888 68.2071 26.0266 67.9021 26.1098 67.6249C26.193 67.32 26.2207 67.0151 26.2207 66.7102C26.2207 66.4052 26.2207 66.1003 26.2207 65.7677C26.2207 64.5202 26.2207 63.3005 26.2207 62.1086C26.2207 52.4618 26.2207 43.7576 26.2484 36.4394C26.2484 29.1212 26.2484 23.2168 26.2761 19.1419C26.2761 18.6429 26.2761 18.1439 26.2761 17.7004C26.2761 17.2569 26.193 16.8411 26.0544 16.453C25.9158 16.0926 25.694 15.7877 25.4722 15.5382C25.2505 15.2887 25.001 15.0947 24.7792 14.9838C24.308 14.7066 23.9199 14.6234 23.6427 14.568C23.5041 14.5403 23.3932 14.5403 23.3378 14.5403C23.2546 14.5403 23.2269 14.5403 23.2269 14.5403C23.2269 14.5403 23.0883 14.5403 22.8111 14.5403C22.5061 14.5403 22.0903 14.5403 21.5636 14.568Z" fill="#FAFAFA"/>
<path d="M23.2297 14.5401C23.2297 14.5401 23.2575 14.5401 23.3406 14.5401C23.4238 14.5401 23.5069 14.5401 23.6455 14.5679C23.9227 14.5956 24.3385 14.6787 24.8098 14.9559C25.0316 15.0945 25.281 15.2886 25.5028 15.5103C25.7246 15.7598 25.9463 16.0648 26.0849 16.4251C26.2235 16.7855 26.3067 17.229 26.3067 17.6725C26.3067 18.1161 26.3067 18.615 26.3067 19.114C26.3067 23.1889 26.3067 29.1211 26.3067 36.4116C26.3067 43.7298 26.3067 52.4063 26.3067 62.0807C26.3067 63.3004 26.3067 64.5201 26.3067 65.7398C26.3067 66.0447 26.3067 66.3496 26.3067 66.6823C26.3067 66.9872 26.279 67.3199 26.1958 67.6248C26.1127 67.9297 25.9741 68.2346 25.8077 68.4841C25.6414 68.7613 25.4196 68.9831 25.1702 69.2048C24.6712 69.5929 24.0336 69.8701 23.3961 69.8979C22.7585 69.9256 22.1209 69.8979 21.4556 69.8979C20.1528 69.8979 18.8499 69.8979 17.547 69.8979C14.9136 69.8979 12.2524 69.8979 9.53583 69.8979C8.17753 69.8979 6.81923 69.8979 5.43321 69.8979C4.7402 69.8979 4.04718 69.8979 3.35417 69.8979C2.66116 69.9256 1.94043 69.7593 1.3583 69.3434C0.776173 68.9554 0.332645 68.3455 0.138602 67.6525C0.0277204 67.3199 0 66.9595 0 66.6268C0 66.2942 0 65.9338 0 65.6012C0 64.2152 0 62.8569 0 61.4986C0 58.782 0 56.1208 0 53.4874C0 48.2205 0 43.1476 0 38.3243C0 33.5009 0 28.8993 0 24.6027C0 22.4682 0 20.3891 0 18.3933C0 18.1438 0 17.8943 0 17.6448C0 17.5339 -4.23393e-07 17.3953 0.02772 17.2845C0.0554405 17.1736 0.0554407 17.035 0.0831611 16.9241C0.249484 16.4251 0.471247 15.9539 0.776172 15.5935C1.0811 15.2331 1.46918 14.9282 1.91271 14.7342C2.35624 14.5401 2.82749 14.457 3.27101 14.4847C4.18579 14.4847 5.07284 14.4847 5.93218 14.4847C6.3757 14.4847 6.79151 14.4847 7.20731 14.4847C7.42908 14.4847 7.62312 14.4847 7.84489 14.4847C8.06665 14.4847 8.28841 14.5401 8.45473 14.651C8.62106 14.7619 8.75966 14.9559 8.84282 15.15C8.92598 15.344 8.89826 15.5658 8.89826 15.7598C8.89826 15.8707 8.89826 15.9539 8.89826 16.0648C8.89826 16.1756 8.89826 16.2588 8.89826 16.3697C8.92598 16.5637 9.00914 16.73 9.12003 16.8964C9.23091 17.035 9.39723 17.1459 9.59127 17.1736C9.67443 17.2013 9.78532 17.2013 9.86848 17.2013C9.95164 17.2013 10.0625 17.2013 10.1457 17.2013C10.5338 17.2013 10.8941 17.2013 11.2545 17.2013C12.696 17.2013 14.0543 17.2013 15.3017 17.2013C15.9115 17.2013 16.5214 17.2013 17.0758 17.2013C17.2144 17.2013 17.353 17.2013 17.4916 17.2013C17.6302 17.1736 17.7688 17.1459 17.8797 17.0627C18.1014 16.9241 18.2678 16.7023 18.3232 16.4528C18.3509 16.342 18.3509 16.2034 18.3509 16.0925C18.3509 15.9816 18.3509 15.843 18.3509 15.7321C18.3509 15.6212 18.3509 15.4826 18.3787 15.3717C18.4064 15.2609 18.4341 15.15 18.4895 15.0391C18.6004 14.8451 18.7667 14.6787 18.9885 14.5956C19.1825 14.5124 19.4043 14.5401 19.5984 14.5401C20.3745 14.5401 21.0398 14.5401 21.5942 14.5401C22.1209 14.5401 22.5367 14.5401 22.8139 14.5401C23.0911 14.5124 23.2297 14.5401 23.2297 14.5401C23.2297 14.5401 23.0911 14.5401 22.8139 14.5401C22.5367 14.5401 22.1209 14.5401 21.5942 14.5401C21.0675 14.5401 20.4022 14.5401 19.5984 14.5401C19.4043 14.5401 19.1825 14.5124 18.9885 14.5956C18.7945 14.6787 18.6281 14.8173 18.5173 15.0114C18.4618 15.1223 18.4341 15.2054 18.4064 15.344C18.3787 15.4549 18.4064 15.5658 18.3787 15.7044C18.3787 15.8153 18.3787 15.9539 18.3787 16.0648C18.3787 16.1756 18.3787 16.3142 18.3509 16.4528C18.2955 16.7023 18.1292 16.9518 17.9074 17.0904C17.7965 17.1736 17.6579 17.2013 17.5193 17.229C17.3807 17.229 17.2421 17.229 17.1035 17.229C16.5491 17.229 15.9393 17.229 15.3294 17.229C14.082 17.229 12.7237 17.229 11.2822 17.229C10.9219 17.229 10.5615 17.229 10.1734 17.229C10.0902 17.229 9.97936 17.229 9.8962 17.229C9.81304 17.229 9.70215 17.229 9.61899 17.2013C9.42495 17.1459 9.25863 17.035 9.12003 16.8964C8.98142 16.7578 8.89826 16.5637 8.87054 16.3697C8.87054 16.2588 8.87054 16.1756 8.87054 16.0648C8.87054 15.9539 8.87054 15.8707 8.87054 15.7598C8.87054 15.5658 8.89826 15.344 8.8151 15.1777C8.75966 14.9837 8.62106 14.8173 8.45473 14.7065C8.28841 14.5956 8.09437 14.5401 7.87261 14.5401C7.65084 14.5401 7.4568 14.5401 7.23503 14.5401C6.81923 14.5401 6.3757 14.5401 5.9599 14.5401C5.10056 14.5401 4.18579 14.5401 3.29873 14.5401C2.85521 14.5401 2.38396 14.5956 1.96815 14.7896C1.55234 14.9837 1.16426 15.2609 0.859333 15.6212C0.554408 15.9816 0.332645 16.4251 0.221763 16.8964C0.194043 17.0073 0.194043 17.1459 0.166322 17.2567C0.166322 17.3676 0.138602 17.5062 0.138602 17.6171C0.138602 17.8666 0.138602 18.1161 0.138602 18.3656C0.138602 20.3614 0.138602 22.4405 0.138602 24.5749C0.138602 28.8716 0.138602 33.4732 0.138602 38.2966C0.138602 43.1199 0.138602 48.1927 0.138602 53.4596C0.138602 56.0931 0.138602 58.7542 0.138602 61.4708C0.138602 62.8291 0.138602 64.1874 0.138602 65.5735C0.138602 65.9061 0.138602 66.2665 0.138602 66.5991C0.138602 66.9318 0.166323 67.2921 0.249484 67.6248C0.443527 68.2901 0.859334 68.8722 1.44146 69.2603C1.99587 69.6484 2.68888 69.8424 3.38189 69.787C4.0749 69.787 4.76792 69.787 5.46093 69.787C6.84695 69.787 8.20525 69.787 9.56355 69.787C12.2802 69.787 14.9413 69.787 17.5748 69.787C18.8776 69.787 20.1805 69.787 21.4833 69.787C22.1209 69.787 22.7862 69.787 23.3961 69.787C24.0336 69.7593 24.6435 69.5098 25.1147 69.1217C25.3642 68.9276 25.5582 68.6782 25.7246 68.4287C25.8909 68.1792 26.0295 67.8743 26.1127 67.5971C26.1958 67.2921 26.2235 66.9872 26.2235 66.6823C26.2235 66.3774 26.2235 66.0724 26.2235 65.7398C26.2235 64.4924 26.2235 63.2727 26.2235 62.0807C26.2235 52.434 26.2235 43.7298 26.2513 36.4116C26.2513 29.0934 26.2513 23.1889 26.279 19.114C26.279 18.615 26.279 18.1161 26.279 17.6725C26.279 17.229 26.1958 16.8132 26.0572 16.4251C25.9186 16.0648 25.6968 15.7598 25.4751 15.5103C25.2533 15.2609 25.0038 15.0668 24.7821 14.9559C24.3108 14.6787 23.9227 14.5956 23.6455 14.5401C23.5069 14.5124 23.3961 14.5124 23.3406 14.5124C23.2575 14.5401 23.2297 14.5401 23.2297 14.5401Z" fill="#212A2F"/>
<path d="M23.8087 19.5021C23.8087 19.5021 23.3098 19.5298 22.6722 19.5298C22.0346 19.5298 21.5356 19.5298 21.5356 19.5021C21.5356 19.5021 22.0346 19.4744 22.6722 19.4744C23.3098 19.4744 23.8087 19.4744 23.8087 19.5021Z" fill="#212A2F"/>
<path d="M23.8087 20.0844C23.8087 20.0844 23.3098 20.1121 22.6722 20.1121C22.0346 20.1121 21.5356 20.1121 21.5356 20.0844C21.5356 20.0844 22.0346 20.0566 22.6722 20.0566C23.3098 20.0566 23.8087 20.0566 23.8087 20.0844Z" fill="#212A2F"/>
<path d="M23.8087 20.6661C23.8087 20.6661 23.3098 20.6939 22.6722 20.6939C22.0346 20.6939 21.5356 20.6939 21.5356 20.6661C21.5356 20.6661 22.0346 20.6384 22.6722 20.6384C23.3098 20.6384 23.8087 20.6384 23.8087 20.6661Z" fill="#212A2F"/>
<path d="M15.5494 24.4917C15.5494 25.6283 14.6346 26.5431 13.4981 26.5431C12.3616 26.5431 11.4468 25.6283 11.4468 24.4917C11.4468 23.3552 12.3616 22.4404 13.4981 22.4404C14.6346 22.4404 15.5494 23.3552 15.5494 24.4917Z" fill="#92DCD1"/>
<path d="M14.1921 25.3234H12.7783V25.1571C12.7783 24.769 13.0832 24.4641 13.4713 24.4641C13.8594 24.4641 14.1643 24.769 14.1643 25.1571V25.3234H14.1921Z" fill="white"/>
<path d="M13.9146 24.0762C13.9146 24.298 13.7206 24.492 13.4988 24.492C13.2771 24.492 13.083 24.298 13.083 24.0762C13.083 23.8544 13.2771 23.6604 13.4988 23.6604C13.7206 23.6604 13.9146 23.8544 13.9146 24.0762Z" fill="white"/>
<path d="M18.5991 29.8973C18.5991 29.9804 16.1597 30.0636 13.1936 30.0636C10.1998 30.0636 7.78809 29.9804 7.78809 29.8973C7.78809 29.8141 10.1998 29.731 13.1936 29.731C16.1597 29.731 18.5991 29.8141 18.5991 29.8973Z" fill="#212A2F"/>
<path d="M2.12225 35.2595L2.08301 42.3005L11.4248 42.3526L11.464 35.3116L2.12225 35.2595Z" fill="#92DCD1"/>
<path d="M2.0752 42.3162L5.37393 37.9641L7.3698 40.7084L8.75582 39.2393L11.4447 42.3439L2.0752 42.3162Z" fill="#92DCD1"/>
<path d="M8.2623 37.4368C8.2623 37.8526 7.92966 38.1853 7.51385 38.1576C7.09804 38.1576 6.7654 37.8249 6.79312 37.4091C6.79312 36.9933 7.12576 36.6607 7.54157 36.6884C7.92966 36.6884 8.2623 37.021 8.2623 37.4368Z" fill="#92DCD1"/>
<g opacity="0.2">
<path d="M2.0752 42.3162L5.37393 37.9641L7.3698 40.7084L8.75582 39.2393L11.4447 42.3439L2.0752 42.3162Z" fill="black"/>
</g>
<g opacity="0.2">
<path d="M8.2623 37.4368C8.2623 37.8526 7.92966 38.1853 7.51385 38.1576C7.09804 38.1576 6.7654 37.8249 6.79312 37.4091C6.79312 36.9933 7.12576 36.6607 7.54157 36.6884C7.92966 36.6884 8.2623 37.021 8.2623 37.4368Z" fill="black"/>
</g>
<path d="M2.08612 44.4741L1.99561 60.7183L23.6176 60.8387L23.7081 44.5946L2.08612 44.4741Z" fill="#92DCD1"/>
<path d="M1.99365 60.7224L9.61677 50.6599L14.2461 57.0079L17.4339 53.6537L23.6156 60.861L1.99365 60.7224Z" fill="#92DCD1"/>
<path d="M16.2714 49.4679C16.2714 50.4104 15.4953 51.1589 14.5528 51.1589C13.6103 51.1589 12.8618 50.3827 12.8618 49.4402C12.8618 48.4977 13.638 47.7493 14.5805 47.7493C15.523 47.7493 16.2991 48.5254 16.2714 49.4679Z" fill="#92DCD1"/>
<g opacity="0.2">
<path d="M1.99365 60.7224L9.61677 50.6599L14.2461 57.0079L17.4339 53.6537L23.6156 60.861L1.99365 60.7224Z" fill="black"/>
</g>
<g opacity="0.2">
<path d="M16.2714 49.4679C16.2714 50.4104 15.4953 51.1589 14.5528 51.1589C13.6103 51.1589 12.8618 50.3827 12.8618 49.4402C12.8618 48.4977 13.638 47.7493 14.5805 47.7493C15.523 47.7493 16.2991 48.5254 16.2714 49.4679Z" fill="black"/>
</g>
<path d="M14.4728 35.2732L14.4336 42.3142L23.7754 42.3663L23.8146 35.3253L14.4728 35.2732Z" fill="#92DCD1"/>
<path d="M14.4409 42.3162L17.7119 37.9641L19.7355 40.7084L21.1215 39.2393L23.7827 42.3439L14.4409 42.3162Z" fill="#92DCD1"/>
<path d="M19.8691 38.1859C20.2824 38.1859 20.6175 37.8508 20.6175 37.4374C20.6175 37.0241 20.2824 36.689 19.8691 36.689C19.4557 36.689 19.1206 37.0241 19.1206 37.4374C19.1206 37.8508 19.4557 38.1859 19.8691 38.1859Z" fill="#92DCD1"/>
<g opacity="0.2">
<path d="M14.4409 42.3162L17.7119 37.9641L19.7355 40.7084L21.1215 39.2393L23.7827 42.3439L14.4409 42.3162Z" fill="black"/>
</g>
<g opacity="0.2">
<path d="M19.8691 38.1859C20.2824 38.1859 20.6175 37.8508 20.6175 37.4374C20.6175 37.0241 20.2824 36.689 19.8691 36.689C19.4557 36.689 19.1206 37.0241 19.1206 37.4374C19.1206 37.8508 19.4557 38.1859 19.8691 38.1859Z" fill="black"/>
</g>
<path d="M74.509 14.5678C73.9823 14.5678 73.317 14.5678 72.5131 14.5678C72.319 14.5678 72.0973 14.54 71.9032 14.6232C71.7092 14.7064 71.5429 14.845 71.432 15.039C71.3765 15.1499 71.3488 15.2331 71.3211 15.3717C71.2934 15.4825 71.3211 15.5934 71.2934 15.732C71.2934 15.8429 71.2934 15.9815 71.2934 16.0924C71.2934 16.2033 71.2934 16.3419 71.2657 16.4805C71.2102 16.73 71.0439 16.9794 70.8221 17.118C70.7113 17.2012 70.5727 17.2289 70.4341 17.2566C70.2954 17.2566 70.1568 17.2566 70.0182 17.2566C69.4638 17.2566 68.854 17.2566 68.2441 17.2566C66.9967 17.2566 65.6384 17.2566 64.197 17.2566C63.8366 17.2566 63.4762 17.2566 63.0881 17.2566C63.005 17.2566 62.8941 17.2566 62.8109 17.2566C62.7278 17.2566 62.6169 17.2566 62.5337 17.2289C62.3397 17.1735 62.1734 17.0626 62.0348 16.924C61.8962 16.7854 61.813 16.5914 61.7853 16.3973C61.7853 16.2864 61.7853 16.2033 61.7853 16.0924C61.7853 15.9815 61.7853 15.8983 61.7853 15.7875C61.7853 15.5934 61.813 15.3717 61.7298 15.2053C61.6744 15.0113 61.5358 14.845 61.3695 14.7341C61.2031 14.6232 61.0091 14.5678 60.7873 14.5678C60.5656 14.5678 60.3715 14.5678 60.1498 14.5678C59.734 14.5678 59.2904 14.5678 58.8746 14.5678C58.0153 14.5678 57.1005 14.5678 56.2135 14.5678C55.7699 14.5678 55.2987 14.6232 54.8829 14.8172C54.4671 15.0113 54.079 15.2885 53.7741 15.6489C53.4691 16.0092 53.2474 16.4527 53.1365 16.924C53.1088 17.0349 53.1088 17.1735 53.0811 17.2844C53.0811 17.3952 53.0811 17.4784 53.0811 17.5893V37.5203C53.0811 37.7975 53.0811 38.047 53.0811 38.3242C53.0811 39.1281 53.0811 39.9597 53.0811 40.7636V66.6822C53.0811 67.0148 53.1088 67.3475 53.1919 67.6524C53.386 68.3177 53.8018 68.8998 54.3839 69.2879C54.9383 69.676 55.6313 69.87 56.3243 69.8146C57.0174 69.8146 57.7104 69.8146 58.4034 69.8146C59.7894 69.8146 61.1477 69.8146 62.506 69.8146C65.2226 69.8146 67.8838 69.8146 70.5172 69.8146C71.8201 69.8146 73.1229 69.8146 74.4258 69.8146C75.0634 69.8146 75.7287 69.8146 76.3385 69.8146C76.9761 69.7869 77.5859 69.5374 78.0572 69.1493C78.3067 68.9553 78.5007 68.7058 78.667 68.4563C78.8333 68.2068 78.9719 67.9019 79.0551 67.6247C79.1383 67.3198 79.166 67.0148 79.166 66.7099C79.166 66.405 79.166 66.1001 79.166 65.7674C79.166 64.52 79.166 63.3003 79.166 62.1083C79.166 52.4616 79.166 43.7574 79.1937 36.4392C79.1937 29.121 79.1937 23.2165 79.2214 19.1416C79.2214 18.6427 79.2214 18.1437 79.2214 17.7002C79.2214 17.2566 79.1383 16.8408 78.9997 16.4527C78.8611 16.0924 78.6393 15.7875 78.4175 15.538C78.1958 15.2885 77.9463 15.0944 77.7245 14.9836C77.2533 14.7064 76.8652 14.6232 76.588 14.5678C76.4494 14.54 76.3385 14.54 76.2831 14.54C76.1999 14.54 76.1722 14.54 76.1722 14.54C76.1722 14.54 76.0336 14.54 75.7564 14.54C75.4515 14.54 75.0356 14.54 74.509 14.5678Z" fill="#FAFAFA"/>
<path d="M76.178 14.5401C76.178 14.5401 76.2057 14.5401 76.2889 14.5401C76.372 14.5401 76.4552 14.5401 76.5938 14.5679C76.871 14.5956 77.2868 14.6787 77.758 14.9559C77.9798 15.0945 78.2293 15.2886 78.451 15.5103C78.6728 15.7598 78.8946 16.0648 79.0332 16.4251C79.1718 16.7855 79.2549 17.229 79.2549 17.6725C79.2549 18.1161 79.2549 18.615 79.2549 19.114C79.2549 23.1889 79.2549 29.1211 79.2549 36.4116C79.2549 43.7298 79.2549 52.4063 79.2549 62.0807C79.2549 63.3004 79.2549 64.5201 79.2549 65.7398C79.2549 66.0447 79.2549 66.3496 79.2549 66.6823C79.2549 66.9872 79.2272 67.3199 79.1441 67.6248C79.0609 67.9297 78.9223 68.2346 78.756 68.4841C78.5897 68.7613 78.3679 68.9831 78.1184 69.2048C77.6194 69.5929 76.9819 69.8701 76.3443 69.8979C75.7067 69.9256 75.0692 69.8979 74.4039 69.8979C73.101 69.8979 71.7981 69.8979 70.4953 69.8979C67.8618 69.8979 65.2007 69.8979 62.4841 69.8979C61.1258 69.8979 59.7675 69.8979 58.3814 69.8979C57.6884 69.8979 56.9954 69.8979 56.3024 69.8979C55.6094 69.9256 54.8887 69.7593 54.3065 69.3434C53.7244 68.9554 53.2809 68.3455 53.0868 67.6525C52.976 67.3199 52.9482 66.9595 52.9482 66.6268C52.9482 66.2942 52.9482 65.9338 52.9482 65.6012C52.9482 64.2152 52.9482 62.8569 52.9482 61.4986C52.9482 58.782 52.9482 56.1208 52.9482 53.4874C52.9482 48.2205 52.9482 43.1476 52.9482 38.3243C52.9482 33.5009 52.9482 28.8993 52.9482 24.6027C52.9482 22.4682 52.9482 20.3891 52.9482 18.3933C52.9482 18.1438 52.9482 17.8943 52.9482 17.6448C52.9482 17.5339 52.9482 17.3953 52.976 17.2845C53.0037 17.1736 53.0037 17.035 53.0314 16.9241C53.1977 16.4251 53.4195 15.9539 53.7244 15.5935C54.0293 15.2331 54.4174 14.9282 54.861 14.7342C55.3045 14.5401 55.7757 14.457 56.2193 14.4847C57.134 14.4847 58.0211 14.4847 58.8804 14.4847C59.3239 14.4847 59.7398 14.4847 60.1556 14.4847C60.3773 14.4847 60.5714 14.4847 60.7931 14.4847C61.0149 14.4847 61.2367 14.5401 61.403 14.651C61.5693 14.7619 61.7079 14.9559 61.7911 15.15C61.8742 15.344 61.8465 15.5658 61.8465 15.7598C61.8465 15.8707 61.8465 15.9539 61.8465 16.0648C61.8465 16.1756 61.8465 16.2588 61.8465 16.3697C61.8742 16.5637 61.9574 16.73 62.0683 16.8964C62.1791 17.035 62.3455 17.1459 62.5395 17.1736C62.6227 17.2013 62.7336 17.2013 62.8167 17.2013C62.8999 17.2013 63.0108 17.2013 63.0939 17.2013C63.482 17.2013 63.8424 17.2013 64.2027 17.2013C65.6442 17.2013 67.0025 17.2013 68.2499 17.2013C68.8598 17.2013 69.4696 17.2013 70.024 17.2013C70.1626 17.2013 70.3012 17.2013 70.4398 17.2013C70.5784 17.1736 70.717 17.1459 70.8279 17.0627C71.0497 16.9241 71.216 16.7023 71.2715 16.4528C71.2992 16.342 71.2992 16.2034 71.2992 16.0925C71.2992 15.9816 71.2992 15.843 71.2992 15.7321C71.2992 15.6212 71.2992 15.4826 71.3269 15.3717C71.3546 15.2609 71.3823 15.15 71.4378 15.0391C71.5487 14.8451 71.715 14.6787 71.9367 14.5956C72.1308 14.5124 72.3526 14.5401 72.5466 14.5401C73.3228 14.5401 73.9881 14.5401 74.5425 14.5401C75.0692 14.5401 75.485 14.5401 75.7622 14.5401C76.0394 14.5124 76.178 14.5401 76.178 14.5401C76.178 14.5401 76.0394 14.5401 75.7622 14.5401C75.485 14.5401 75.0692 14.5401 74.5425 14.5401C74.0158 14.5401 73.3505 14.5401 72.5466 14.5401C72.3526 14.5401 72.1308 14.5124 71.9367 14.5956C71.7427 14.6787 71.5764 14.8173 71.4655 15.0114C71.4101 15.1223 71.3823 15.2054 71.3546 15.344C71.3269 15.4549 71.3546 15.5658 71.3269 15.7044C71.3269 15.8153 71.3269 15.9539 71.3269 16.0648C71.3269 16.1756 71.3269 16.3142 71.2992 16.4528C71.2437 16.7023 71.0774 16.9518 70.8556 17.0904C70.7448 17.1736 70.6062 17.2013 70.4676 17.229C70.329 17.229 70.1904 17.229 70.0518 17.229C69.4973 17.229 68.8875 17.229 68.2776 17.229C67.0302 17.229 65.6719 17.229 64.2305 17.229C63.8701 17.229 63.5097 17.229 63.1216 17.229C63.0385 17.229 62.9276 17.229 62.8444 17.229C62.7613 17.229 62.6504 17.229 62.5672 17.2013C62.3732 17.1459 62.2069 17.035 62.0683 16.8964C61.9297 16.7578 61.8465 16.5637 61.8188 16.3697C61.8188 16.2588 61.8188 16.1756 61.8188 16.0648C61.8188 15.9539 61.8188 15.8707 61.8188 15.7598C61.8188 15.5658 61.8465 15.344 61.7633 15.1777C61.7079 14.9837 61.5693 14.8173 61.403 14.7065C61.2367 14.5956 61.0426 14.5401 60.8208 14.5401C60.5991 14.5401 60.405 14.5401 60.1833 14.5401C59.7675 14.5401 59.3239 14.5401 58.9081 14.5401C58.0488 14.5401 57.134 14.5401 56.247 14.5401C55.8034 14.5401 55.3322 14.5956 54.9164 14.7896C54.5006 14.9837 54.1125 15.2609 53.8076 15.6212C53.5027 15.9816 53.2809 16.4251 53.17 16.8964C53.1423 17.0073 53.1423 17.1459 53.1146 17.2567C53.1146 17.3676 53.0868 17.5062 53.0868 17.6171C53.0868 17.8666 53.0868 18.1161 53.0868 18.3656C53.0868 20.3614 53.0868 22.4405 53.0868 24.5749C53.0868 28.8716 53.0868 33.4732 53.0868 38.2966C53.0868 43.1199 53.0868 48.1927 53.0868 53.4596C53.0868 56.0931 53.0868 58.7542 53.0868 61.4708C53.0868 62.8291 53.0868 64.1874 53.0868 65.5735C53.0868 65.9061 53.0868 66.2665 53.0868 66.5991C53.0868 66.9318 53.1146 67.2921 53.1977 67.6248C53.3918 68.2901 53.8076 68.8722 54.3897 69.2603C54.9441 69.6484 55.6371 69.8424 56.3301 69.787C57.0231 69.787 57.7162 69.787 58.4092 69.787C59.7952 69.787 61.1535 69.787 62.5118 69.787C65.2284 69.787 67.8896 69.787 70.523 69.787C71.8259 69.787 73.1287 69.787 74.4316 69.787C75.0692 69.787 75.7344 69.787 76.3443 69.787C76.9819 69.7593 77.5917 69.5098 78.063 69.1217C78.3124 68.9276 78.5065 68.6782 78.6728 68.4287C78.8391 68.1792 78.9777 67.8743 79.0609 67.5971C79.1441 67.2921 79.1718 66.9872 79.1718 66.6823C79.1718 66.3774 79.1718 66.0724 79.1718 65.7398C79.1718 64.4924 79.1718 63.2727 79.1718 62.0807C79.1718 52.434 79.1718 43.7298 79.1995 36.4116C79.1995 29.0934 79.1995 23.1889 79.2272 19.114C79.2272 18.615 79.2272 18.1161 79.2272 17.6725C79.2272 17.229 79.1441 16.8132 79.0055 16.4251C78.8669 16.0648 78.6451 15.7598 78.4233 15.5103C78.2016 15.2609 77.9521 15.0668 77.7303 14.9559C77.2591 14.6787 76.871 14.5956 76.5938 14.5401C76.4552 14.5124 76.3443 14.5124 76.2889 14.5124C76.2057 14.5401 76.178 14.5401 76.178 14.5401Z" fill="#212A2F"/>
<path d="M76.7653 19.5021C76.7653 19.5021 76.2663 19.5298 75.6287 19.5298C74.9912 19.5298 74.4922 19.5298 74.4922 19.5021C74.4922 19.5021 74.9912 19.4744 75.6287 19.4744C76.2663 19.4744 76.7653 19.4744 76.7653 19.5021Z" fill="#212A2F"/>
<path d="M76.7653 20.0841C76.7653 20.0841 76.2663 20.1118 75.6287 20.1118C74.9912 20.1118 74.4922 20.1118 74.4922 20.0841C74.4922 20.0841 74.9912 20.0564 75.6287 20.0564C76.2663 20.0564 76.7653 20.0564 76.7653 20.0841Z" fill="#212A2F"/>
<path d="M76.7653 20.6659C76.7653 20.6659 76.2663 20.6936 75.6287 20.6936C74.9912 20.6936 74.4922 20.6936 74.4922 20.6659C74.4922 20.6659 74.9912 20.6382 75.6287 20.6382C76.2663 20.6382 76.7653 20.6382 76.7653 20.6659Z" fill="#212A2F"/>
<path d="M68.4908 24.4915C68.4908 25.628 67.576 26.5428 66.4395 26.5428C65.303 26.5428 64.3882 25.628 64.3882 24.4915C64.3882 23.355 65.303 22.4402 66.4395 22.4402C67.576 22.4402 68.4908 23.355 68.4908 24.4915Z" fill="#92DCD1"/>
<path d="M67.1344 25.3232H65.7207V25.1569C65.7207 24.7688 66.0256 24.4639 66.4137 24.4639C66.8018 24.4639 67.1067 24.7688 67.1067 25.1569V25.3232H67.1344Z" fill="white"/>
<path d="M66.8565 24.076C66.8565 24.2977 66.6625 24.4918 66.4407 24.4918C66.2189 24.4918 66.0249 24.2977 66.0249 24.076C66.0249 23.8542 66.2189 23.6602 66.4407 23.6602C66.6625 23.6602 66.8565 23.8542 66.8565 24.076Z" fill="white"/>
<path d="M71.5439 29.897C71.5439 29.9802 69.1045 30.0634 66.1384 30.0634C63.1446 30.0634 60.7329 29.9802 60.7329 29.897C60.7329 29.8139 63.1446 29.7307 66.1384 29.7307C69.1045 29.7307 71.5439 29.8139 71.5439 29.897Z" fill="#212A2F"/>
<path d="M55.0685 35.2593L55.0293 42.3003L64.3711 42.3524L64.4103 35.3114L55.0685 35.2593Z" fill="#92DCD1"/>
<path d="M55.0239 42.316L58.3227 37.9639L60.3185 40.7082L61.7046 39.239L64.3934 42.3437L55.0239 42.316Z" fill="#92DCD1"/>
<path d="M61.2071 37.4371C61.2071 37.8529 60.8745 38.1855 60.4587 38.1578C60.0429 38.1578 59.7102 37.8252 59.7379 37.4094C59.7379 36.9936 60.0706 36.6609 60.4864 36.6886C60.8745 36.6886 61.2071 37.0213 61.2071 37.4371Z" fill="#92DCD1"/>
<g opacity="0.2">
<path d="M55.0239 42.316L58.3227 37.9639L60.3185 40.7082L61.7046 39.239L64.3934 42.3437L55.0239 42.316Z" fill="black"/>
</g>
<g opacity="0.2">
<path d="M61.2071 37.4371C61.2071 37.8529 60.8745 38.1855 60.4587 38.1578C60.0429 38.1578 59.7102 37.8252 59.7379 37.4094C59.7379 36.9936 60.0706 36.6609 60.4864 36.6886C60.8745 36.6886 61.2071 37.0213 61.2071 37.4371Z" fill="black"/>
</g>
<path d="M55.0324 44.4741L54.9419 60.7183L76.5638 60.8387L76.6544 44.5946L55.0324 44.4741Z" fill="#92DCD1"/>
<path d="M54.9409 60.7224L62.564 50.6599L67.1934 57.0079L70.3812 53.6537L76.5629 60.861L54.9409 60.7224Z" fill="#92DCD1"/>
<path d="M69.2197 49.4682C69.2197 50.4107 68.4435 51.1591 67.501 51.1591C66.5585 51.1591 65.8101 50.383 65.8101 49.4405C65.8101 48.498 66.5862 47.7495 67.5287 47.7495C68.4712 47.7495 69.2474 48.5257 69.2197 49.4682Z" fill="#92DCD1"/>
<g opacity="0.2">
<path d="M54.9409 60.7224L62.564 50.6599L67.1934 57.0079L70.3812 53.6537L76.5629 60.861L54.9409 60.7224Z" fill="black"/>
</g>
<g opacity="0.2">
<path d="M69.2197 49.4682C69.2197 50.4107 68.4435 51.1591 67.501 51.1591C66.5585 51.1591 65.8101 50.383 65.8101 49.4405C65.8101 48.498 66.5862 47.7495 67.5287 47.7495C68.4712 47.7495 69.2474 48.5257 69.2197 49.4682Z" fill="black"/>
</g>
<path d="M67.4191 35.2732L67.3799 42.3142L76.7217 42.3663L76.7609 35.3253L67.4191 35.2732Z" fill="#92DCD1"/>
<path d="M67.3843 42.316L70.6553 37.9639L72.6789 40.7082L74.0649 39.239L76.7261 42.3437L67.3843 42.316Z" fill="#92DCD1"/>
<path d="M72.8236 38.1859C73.237 38.1859 73.5721 37.8508 73.5721 37.4374C73.5721 37.0241 73.237 36.689 72.8236 36.689C72.4103 36.689 72.0752 37.0241 72.0752 37.4374C72.0752 37.8508 72.4103 38.1859 72.8236 38.1859Z" fill="#92DCD1"/>
<g opacity="0.2">
<path d="M67.3843 42.316L70.6553 37.9639L72.6789 40.7082L74.0649 39.239L76.7261 42.3437L67.3843 42.316Z" fill="black"/>
</g>
<g opacity="0.2">
<path d="M72.8236 38.1859C73.237 38.1859 73.5721 37.8508 73.5721 37.4374C73.5721 37.0241 73.237 36.689 72.8236 36.689C72.4103 36.689 72.0752 37.0241 72.0752 37.4374C72.0752 37.8508 72.4103 38.1859 72.8236 38.1859Z" fill="black"/>
</g>
<path d="M52.0563 1.0945C51.2524 1.0945 50.2545 1.0945 49.0902 1.0945C48.7853 1.0945 48.4803 1.06678 48.2031 1.17766C47.9259 1.28855 47.6487 1.51031 47.5101 1.81523C47.427 1.95384 47.3715 2.12016 47.3438 2.28648C47.3161 2.45281 47.3161 2.61913 47.3161 2.81317C47.3161 2.97949 47.3161 3.17354 47.3161 3.36758C47.3161 3.56162 47.3161 3.75567 47.2884 3.92199C47.2052 4.31007 46.9834 4.67044 46.6231 4.86448C46.4568 4.97537 46.2627 5.05853 46.0409 5.05853C45.8192 5.08625 45.6251 5.05853 45.4034 5.05853C44.5718 5.05853 43.6847 5.05853 42.7422 5.05853C40.8849 5.05853 38.8891 5.05853 36.7269 5.05853C36.2002 5.05853 35.6458 5.05853 35.0914 5.05853C34.9528 5.05853 34.8142 5.05853 34.6756 5.05853C34.537 5.05853 34.3984 5.05853 34.232 5.00309C33.9548 4.91992 33.6776 4.78132 33.4836 4.55956C33.2895 4.3378 33.1509 4.06059 33.1232 3.75567C33.0955 3.61706 33.0955 3.45074 33.0955 3.31214C33.0955 3.17354 33.0955 3.00721 33.0955 2.86861C33.0955 2.56369 33.1232 2.25876 33.0123 1.98156C32.9292 1.70435 32.7351 1.45487 32.4857 1.28855C32.2362 1.12222 31.9312 1.03906 31.6263 1.06678C31.3214 1.06678 31.0165 1.06678 30.6838 1.06678C30.0463 1.06678 29.4087 1.06678 28.7711 1.06678C27.4683 1.06678 26.1377 1.06678 24.7794 1.06678C24.1141 1.06678 23.4211 1.14994 22.7835 1.45487C22.1459 1.73207 21.5915 2.14788 21.1203 2.70229C20.6767 3.22898 20.3441 3.89427 20.1778 4.58728C20.1223 4.7536 20.1223 4.94764 20.0946 5.11397C20.0946 5.25257 20.0669 5.41889 20.0669 5.55749V35.2461C20.0669 35.6342 20.0669 36.0223 20.0669 36.4381C20.0669 37.63 20.0669 38.8497 20.0669 40.0694V78.6286C20.0669 79.1275 20.0946 79.5988 20.2609 80.07C20.5659 81.0403 21.1757 81.9273 22.035 82.5094C22.8944 83.0916 23.92 83.3688 24.9457 83.3133C25.9713 83.3133 26.997 83.3133 28.0227 83.3133C30.074 83.3133 32.0976 83.3133 34.1212 83.3133C38.1683 83.3133 42.1601 83.3133 46.0687 83.3133C48.0368 83.3133 49.9773 83.3133 51.89 83.3133C52.8602 83.3133 53.8027 83.341 54.7452 83.3133C55.6877 83.2579 56.6024 82.8975 57.3232 82.3154C57.6835 82.0105 57.9885 81.6778 58.2379 81.2897C58.4874 80.9017 58.6815 80.4858 58.7924 80.0423C58.931 79.5988 58.9587 79.1553 58.9587 78.684C58.9587 78.2128 58.9587 77.7692 58.9587 77.298C58.9587 75.4685 58.9587 73.6389 58.9587 71.8371C58.9587 57.4502 58.9864 44.5047 58.9864 33.6383C58.9864 22.7719 59.0141 13.9568 59.0141 7.88601C59.0141 7.13756 59.0141 6.41683 59.0141 5.72382C59.0141 5.05853 58.9032 4.42096 58.6815 3.89427C58.4597 3.33986 58.1548 2.89633 57.8221 2.53597C57.4895 2.1756 57.1291 1.8984 56.7965 1.70435C56.1035 1.28855 55.4936 1.14994 55.1055 1.0945C54.9115 1.06678 54.7452 1.06678 54.6343 1.03906C54.5234 1.03906 54.468 1.03906 54.468 1.03906C54.468 1.03906 54.2462 1.03906 53.8581 1.03906C53.47 1.0945 52.8602 1.0945 52.0563 1.0945Z" fill="#FAFAFA"/>
<path d="M54.5549 1.09477C54.5549 1.09477 54.6103 1.09477 54.7212 1.09477C54.8321 1.09477 54.9707 1.09477 55.1925 1.12249C55.6083 1.17793 56.2181 1.28882 56.9111 1.70462C57.2715 1.89867 57.6041 2.17587 57.9645 2.53624C58.2971 2.8966 58.6021 3.34013 58.8238 3.89454C59.0456 4.44895 59.1842 5.0588 59.1565 5.75181C59.1565 6.4171 59.1565 7.13783 59.1565 7.88628C59.1565 13.9571 59.1565 22.7444 59.1842 33.5831C59.1842 44.4495 59.1842 57.3673 59.1842 71.6987C59.1842 73.5006 59.1842 75.3024 59.1842 77.132C59.1842 77.6032 59.1842 78.0467 59.1842 78.518C59.1842 78.9892 59.1565 79.4605 59.0179 79.904C58.8793 80.3475 58.7129 80.791 58.4357 81.1791C58.1863 81.5672 57.8536 81.9276 57.4932 82.2325C56.7448 82.8146 55.83 83.2027 54.8598 83.2582C53.9173 83.2859 52.9471 83.2582 52.0046 83.2582C50.0919 83.2582 48.1515 83.2582 46.211 83.2582C42.3024 83.2582 38.3384 83.2582 34.2912 83.2582C32.2676 83.2582 30.2441 83.2582 28.1927 83.2582C27.1671 83.2582 26.1414 83.2582 25.1158 83.2582C24.0901 83.3136 23.009 83.0364 22.1497 82.4266C21.2903 81.8444 20.6528 80.9296 20.3479 79.9317C20.1815 79.4327 20.1538 78.9061 20.1538 78.3794C20.1538 77.8527 20.1538 77.3537 20.1538 76.8547C20.1538 74.8034 20.1538 72.7798 20.1538 70.7562C20.1538 66.7368 20.1538 62.745 20.1538 58.8365C20.1538 51.0193 20.1538 43.507 20.1538 36.3275C20.1538 29.1479 20.1538 22.3286 20.1538 15.9529C20.1538 12.7651 20.1538 9.68811 20.1538 6.72202C20.1538 6.36166 20.1538 5.97357 20.1538 5.6132C20.1538 5.41916 20.1815 5.25284 20.1815 5.0588C20.2092 4.86475 20.237 4.69843 20.2647 4.50439C20.431 3.78366 20.7637 3.11837 21.2349 2.56396C21.7062 2.00955 22.2883 1.59374 22.9259 1.28882C23.5634 1.01161 24.2842 0.90073 24.9494 0.90073C26.3077 0.90073 27.6383 0.90073 28.9135 0.90073C29.551 0.90073 30.1886 0.90073 30.8262 0.90073C31.1311 0.90073 31.4637 0.90073 31.7687 0.90073C32.0736 0.873009 32.4062 0.983891 32.6557 1.15021C32.9052 1.34426 33.0993 1.59374 33.2101 1.87095C33.321 2.17587 33.2933 2.48079 33.2933 2.758C33.2933 2.8966 33.2933 3.06292 33.2933 3.20153C33.2933 3.34013 33.2933 3.50645 33.321 3.64505C33.3487 3.92226 33.4873 4.19946 33.6537 4.42123C33.8477 4.64299 34.0695 4.78159 34.3467 4.86475C34.4853 4.89247 34.6239 4.92019 34.7625 4.89247C34.9011 4.89247 35.0397 4.89247 35.1783 4.89247C35.7327 4.89247 36.2871 4.89247 36.8138 4.89247C38.976 4.89247 40.9719 4.89247 42.8291 4.89247C43.7439 4.89247 44.631 4.89247 45.4903 4.89247C45.7121 4.89247 45.9061 4.89247 46.1001 4.89247C46.2942 4.86475 46.4882 4.80931 46.6546 4.69843C46.9872 4.47667 47.209 4.14402 47.2921 3.78366C47.3476 3.58961 47.3198 3.42329 47.3198 3.22925C47.3198 3.0352 47.3198 2.86888 47.3198 2.67484C47.3198 2.50852 47.3198 2.31447 47.3476 2.14815C47.3753 1.98183 47.4307 1.8155 47.5139 1.64918C47.6802 1.34426 47.9574 1.12249 48.2346 1.01161C48.5395 0.873009 48.8445 0.92845 49.1494 0.92845C50.3137 0.92845 51.3116 0.92845 52.1155 0.92845C52.9194 0.92845 53.5292 0.92845 53.945 0.92845C54.3331 1.09477 54.5549 1.09477 54.5549 1.09477C54.5549 1.09477 54.3331 1.09477 53.945 1.09477C53.5292 1.09477 52.9194 1.09477 52.1155 1.09477C51.3116 1.09477 50.3414 1.09477 49.1494 1.09477C48.8722 1.09477 48.5395 1.06705 48.2623 1.17793C47.9851 1.28882 47.7079 1.51058 47.5693 1.8155C47.4862 1.95411 47.4307 2.12043 47.403 2.28675C47.3753 2.45307 47.3753 2.6194 47.3753 2.81344C47.3753 2.97976 47.3753 3.17381 47.3753 3.36785C47.3753 3.56189 47.3753 3.75593 47.3476 3.92226C47.2644 4.31034 47.0426 4.67071 46.6823 4.86475C46.516 4.97563 46.3219 5.0588 46.1001 5.0588C45.8784 5.08652 45.6843 5.0588 45.4626 5.0588C44.631 5.0588 43.7439 5.0588 42.8014 5.0588C40.9441 5.0588 38.9483 5.0588 36.7861 5.0588C36.2594 5.0588 35.705 5.0588 35.1506 5.0588C35.012 5.0588 34.8734 5.0588 34.7348 5.0588C34.5962 5.0588 34.4576 5.0588 34.319 5.00336C34.0417 4.92019 33.7645 4.78159 33.5705 4.55983C33.3765 4.33806 33.2379 4.06086 33.2101 3.75594C33.1824 3.61733 33.1824 3.45101 33.1824 3.31241C33.1824 3.17381 33.1824 3.00748 33.1824 2.86888C33.1824 2.56396 33.2101 2.25903 33.0993 2.00955C33.0161 1.73234 32.8221 1.48286 32.5726 1.31654C32.3231 1.15021 32.0182 1.06705 31.7132 1.09477C31.4083 1.09477 31.1034 1.09477 30.7707 1.09477C30.1332 1.09477 29.4956 1.09477 28.858 1.09477C27.5552 1.09477 26.2523 1.09477 24.894 1.09477C24.2287 1.09477 23.5357 1.17793 22.8981 1.48286C22.2606 1.76006 21.7062 2.17587 21.2349 2.73028C20.7914 3.25697 20.4587 3.92226 20.2924 4.61527C20.237 4.78159 20.237 4.97563 20.2092 5.14196C20.2092 5.336 20.1815 5.50232 20.1815 5.69637C20.1815 6.05673 20.1815 6.44482 20.1815 6.80518C20.1815 9.77127 20.1815 12.8482 20.1815 16.0361C20.1815 22.4118 20.1815 29.231 20.1815 36.4106C20.1815 43.5902 20.1815 51.1302 20.1815 58.9196C20.1815 62.8282 20.1815 66.7922 20.1815 70.8394C20.1815 72.863 20.1815 74.8866 20.1815 76.9379C20.1815 77.4369 20.1815 77.9636 20.1815 78.4625C20.1815 78.9615 20.2092 79.4882 20.3756 79.9594C20.6528 80.9296 21.2903 81.8167 22.122 82.3711C22.9536 82.9532 23.9792 83.2304 25.0049 83.175C26.0305 83.175 27.0562 83.175 28.0819 83.175C30.1332 83.175 32.1568 83.175 34.1804 83.175C38.1998 83.175 42.1916 83.175 46.1001 83.175C48.0406 83.175 49.981 83.175 51.8937 83.175C52.8362 83.175 53.8064 83.2027 54.7489 83.175C55.6914 83.1196 56.5785 82.7592 57.2992 82.1771C57.6596 81.8721 57.9645 81.5395 58.214 81.1514C58.4635 80.7633 58.6575 80.3475 58.7684 79.904C58.907 79.4605 58.9347 79.0169 58.9347 78.5457C58.9347 78.0744 58.9347 77.6309 58.9347 77.1597C58.9347 75.3301 58.9347 73.5006 58.9347 71.7265C58.9347 57.3673 58.9624 44.4495 58.9624 33.6109C58.9624 22.7444 58.9902 13.9848 58.9902 7.914C58.9902 7.16555 58.9902 6.44482 58.9902 5.77953C58.9902 5.11424 58.8793 4.47667 58.6575 3.94998C58.4357 3.42329 58.1308 2.95204 57.7982 2.59168C57.4655 2.23131 57.1052 1.95411 56.7725 1.76006C56.0795 1.34426 55.4697 1.20565 55.0816 1.15021C54.8875 1.12249 54.7212 1.12249 54.6103 1.09477H54.5549Z" fill="#212A2F"/>
<path d="M55.439 8.49623C55.439 8.52395 54.6906 8.55168 53.7481 8.55168C52.8056 8.55168 52.0571 8.55167 52.0571 8.52395C52.0571 8.49623 52.8056 8.46851 53.7481 8.46851C54.6628 8.44079 55.439 8.46851 55.439 8.49623Z" fill="#212A2F"/>
<path d="M55.439 9.35536C55.439 9.38309 54.6906 9.41081 53.7481 9.41081C52.8056 9.41081 52.0571 9.41081 52.0571 9.38309C52.0571 9.35536 52.8056 9.32764 53.7481 9.32764C54.6906 9.29992 55.439 9.32764 55.439 9.35536Z" fill="#212A2F"/>
<path d="M55.439 10.2145C55.439 10.2422 54.6906 10.2699 53.7481 10.2699C52.8056 10.2699 52.0571 10.2699 52.0571 10.2422C52.0571 10.2145 52.8056 10.1868 53.7481 10.1868C54.6906 10.1868 55.439 10.1868 55.439 10.2145Z" fill="#212A2F"/>
<path d="M24.8309 11.185C24.8309 11.185 24.8587 11.185 24.9141 11.185C24.9695 11.185 25.025 11.185 25.1081 11.185C25.3022 11.185 25.524 11.185 25.8289 11.1573L25.8012 11.185C25.8012 11.0187 25.8012 10.8524 25.8012 10.6584C25.8012 10.5752 25.8012 10.4643 25.8012 10.3534C25.8289 10.2425 25.912 10.1317 26.0506 10.1317C26.1615 10.1317 26.2724 10.1317 26.3833 10.1317C26.5219 10.1594 26.6328 10.2703 26.6051 10.4089C26.6051 10.6584 26.6051 10.9078 26.6051 11.1573L26.5773 11.1296C26.8545 11.1296 27.1595 11.1296 27.4921 11.1296L27.4367 11.1573C27.4367 10.797 27.4367 10.4089 27.4367 10.0208C27.4367 9.93762 27.4367 9.82674 27.4367 9.74358C27.4367 9.66042 27.3812 9.60497 27.2981 9.52181C27.1595 9.38321 27.0209 9.27233 26.91 9.13373C26.7714 8.99512 26.6605 8.88424 26.5219 8.74564C26.4664 8.6902 26.411 8.63476 26.3278 8.5516C26.2724 8.49616 26.217 8.44072 26.1338 8.413C26.0506 8.38528 25.9952 8.413 25.9398 8.44072C25.8843 8.49616 25.8289 8.5516 25.7734 8.60704C25.6626 8.71792 25.5517 8.8288 25.4408 8.93968C25.2467 9.16145 25.025 9.35549 24.8587 9.52181C24.8032 9.6327 24.8309 9.74358 24.8032 9.85446C24.8032 9.96534 24.8032 10.0762 24.8032 10.1871C24.8032 10.3811 24.8032 10.5475 24.8032 10.7138C24.8032 10.8524 24.8032 10.9633 24.8032 11.0464C24.8309 11.1573 24.8309 11.185 24.8309 11.185C24.8309 11.185 24.8309 11.1573 24.8309 11.0742C24.8309 10.991 24.8309 10.8801 24.8309 10.7415C24.8309 10.6029 24.8309 10.4089 24.8309 10.2148C24.8309 10.1039 24.8309 9.99306 24.8309 9.88218C24.8309 9.82674 24.8309 9.7713 24.8309 9.71586C24.8309 9.66042 24.8587 9.57725 24.8864 9.52181C25.0527 9.32777 25.2467 9.13373 25.4685 8.91196C25.5794 8.80108 25.6903 8.6902 25.8012 8.57932C25.8566 8.52388 25.912 8.46844 25.9675 8.413C26.0506 8.35755 26.1338 8.32983 26.217 8.35755C26.3001 8.38527 26.3833 8.46844 26.4387 8.52388C26.4942 8.57932 26.5496 8.63476 26.6328 8.71792C26.7714 8.8288 26.8823 8.9674 27.0209 9.10601C27.1595 9.24461 27.2703 9.35549 27.4089 9.49409C27.4367 9.52181 27.4921 9.54953 27.5198 9.60497C27.5475 9.66042 27.5753 9.71586 27.5753 9.7713C27.5753 9.85446 27.5753 9.96534 27.5753 10.0485C27.5753 10.4366 27.5753 10.8247 27.5753 11.185V11.2128H27.5475C27.2426 11.2128 26.9377 11.2128 26.6328 11.2128H26.6051V11.185C26.6051 10.9356 26.6051 10.6584 26.6051 10.4366C26.6051 10.3257 26.5219 10.2425 26.411 10.2148C26.3001 10.2148 26.1892 10.2148 26.0784 10.2148C25.9675 10.2148 25.912 10.298 25.8843 10.3811C25.8843 10.4643 25.8843 10.5752 25.8843 10.6584C25.8843 10.8524 25.8843 11.0187 25.8843 11.185V11.2128H25.8566C25.5517 11.2128 25.3022 11.2128 25.1359 11.2128C25.0527 11.2128 24.9973 11.2128 24.9418 11.2128C24.8587 11.185 24.8309 11.185 24.8309 11.185Z" fill="#212A2F"/>
<path d="M45.1507 27.0132C45.1507 27.0409 42.8221 27.0686 39.9669 27.0686C37.1117 27.0686 34.7832 27.0409 34.7832 27.0132C34.7832 26.9855 37.1117 26.9578 39.9669 26.9578C42.8221 26.9578 45.1507 26.9855 45.1507 27.0132Z" fill="#92DCD1"/>
<path d="M45.1507 15.6514C45.1507 15.6791 42.8221 15.7068 39.9669 15.7068C37.1117 15.7068 34.7832 15.6791 34.7832 15.6514C34.7832 15.6237 37.1117 15.5959 39.9669 15.5959C42.8221 15.5959 45.1507 15.6237 45.1507 15.6514Z" fill="#92DCD1"/>
<path d="M53.4394 29.1477C53.4394 29.1754 49.2536 29.2032 44.0976 29.2032C38.9416 29.2032 34.7559 29.1754 34.7559 29.1477C34.7559 29.12 38.9416 29.0923 44.0976 29.0923C49.2536 29.0923 53.4394 29.12 53.4394 29.1477Z" fill="#212A2F"/>
<path d="M53.4394 17.7859C53.4394 17.8136 49.2536 17.8414 44.0976 17.8414C38.9416 17.8414 34.7559 17.8136 34.7559 17.7859C34.7559 17.7582 38.9416 17.7305 44.0976 17.7305C49.2536 17.7305 53.4394 17.7582 53.4394 17.7859Z" fill="#212A2F"/>
<path d="M53.2177 30.6724C53.2177 30.7001 49.0873 30.7278 43.9868 30.7278C38.8862 30.7278 34.7559 30.7001 34.7559 30.6724C34.7559 30.6447 38.8862 30.6169 43.9868 30.6169C49.0873 30.6169 53.2177 30.6447 53.2177 30.6724Z" fill="#212A2F"/>
<path d="M53.2177 19.3103C53.2177 19.338 49.0873 19.3658 43.9868 19.3658C38.8862 19.3658 34.7559 19.338 34.7559 19.3103C34.7559 19.2826 38.8862 19.2549 43.9868 19.2549C49.0873 19.2549 53.2177 19.2826 53.2177 19.3103Z" fill="#212A2F"/>
<path d="M45.6496 32.114C45.6496 32.1418 43.2102 32.1695 40.2164 32.1695C37.1949 32.1695 34.7832 32.1418 34.7832 32.114C34.7832 32.0863 37.2226 32.0586 40.2164 32.0586C43.2102 32.0586 45.6496 32.0863 45.6496 32.114Z" fill="#212A2F"/>
<path d="M45.6496 20.752C45.6496 20.7797 43.2102 20.8074 40.2164 20.8074C37.1949 20.8074 34.7832 20.7797 34.7832 20.752C34.7832 20.7243 37.2226 20.6965 40.2164 20.6965C43.2102 20.6965 45.6496 20.7243 45.6496 20.752Z" fill="#212A2F"/>
<path d="M45.1507 38.6006C45.1507 38.6283 42.8221 38.656 39.9669 38.656C37.1117 38.656 34.7832 38.6283 34.7832 38.6006C34.7832 38.5729 37.1117 38.5452 39.9669 38.5452C42.8221 38.5452 45.1507 38.5729 45.1507 38.6006Z" fill="#92DCD1"/>
<path d="M53.4394 40.7349C53.4394 40.7626 49.2536 40.7903 44.0976 40.7903C38.9416 40.7903 34.7559 40.7626 34.7559 40.7349C34.7559 40.7072 38.9416 40.6794 44.0976 40.6794C49.2536 40.6794 53.4394 40.7072 53.4394 40.7349Z" fill="#212A2F"/>
<path d="M53.2177 42.2595C53.2177 42.2873 49.0873 42.315 43.9868 42.315C38.8862 42.315 34.7559 42.2873 34.7559 42.2595C34.7559 42.2318 38.8862 42.2041 43.9868 42.2041C49.0873 42.2041 53.2177 42.2318 53.2177 42.2595Z" fill="#212A2F"/>
<path d="M45.6496 43.7012C45.6496 43.7289 43.2102 43.7566 40.2164 43.7566C37.1949 43.7566 34.7832 43.7289 34.7832 43.7012C34.7832 43.6735 37.2226 43.6458 40.2164 43.6458C43.2102 43.6458 45.6496 43.6735 45.6496 43.7012Z" fill="#212A2F"/>
<path d="M45.1507 50.1878C45.1507 50.2155 42.8221 50.2432 39.9669 50.2432C37.1117 50.2432 34.7832 50.2155 34.7832 50.1878C34.7832 50.16 37.1117 50.1323 39.9669 50.1323C42.8221 50.1323 45.1507 50.16 45.1507 50.1878Z" fill="#92DCD1"/>
<path d="M53.4394 52.3223C53.4394 52.35 49.2536 52.3777 44.0976 52.3777C38.9416 52.3777 34.7559 52.35 34.7559 52.3223C34.7559 52.2946 38.9416 52.2668 44.0976 52.2668C49.2536 52.2668 53.4394 52.2946 53.4394 52.3223Z" fill="#212A2F"/>
<path d="M53.2177 53.8469C53.2177 53.8747 49.0873 53.9024 43.9868 53.9024C38.8862 53.9024 34.7559 53.8747 34.7559 53.8469C34.7559 53.8192 38.8862 53.7915 43.9868 53.7915C49.0873 53.7915 53.2177 53.8192 53.2177 53.8469Z" fill="#212A2F"/>
<path d="M45.6496 55.2881C45.6496 55.3158 43.2102 55.3435 40.2164 55.3435C37.1949 55.3435 34.7832 55.3158 34.7832 55.2881C34.7832 55.2604 37.2226 55.2327 40.2164 55.2327C43.2102 55.2327 45.6496 55.2604 45.6496 55.2881Z" fill="#212A2F"/>
<path d="M45.1507 61.7747C45.1507 61.8024 42.8221 61.8301 39.9669 61.8301C37.1117 61.8301 34.7832 61.8024 34.7832 61.7747C34.7832 61.747 37.1117 61.7192 39.9669 61.7192C42.8221 61.7192 45.1507 61.747 45.1507 61.7747Z" fill="#92DCD1"/>
<path d="M53.4394 63.9092C53.4394 63.9369 49.2536 63.9646 44.0976 63.9646C38.9416 63.9646 34.7559 63.9369 34.7559 63.9092C34.7559 63.8815 38.9416 63.8538 44.0976 63.8538C49.2536 63.8538 53.4394 63.8815 53.4394 63.9092Z" fill="#212A2F"/>
<path d="M53.2177 65.4339C53.2177 65.4616 49.0873 65.4893 43.9868 65.4893C38.8862 65.4893 34.7559 65.4616 34.7559 65.4339C34.7559 65.4061 38.8862 65.3784 43.9868 65.3784C49.0873 65.3784 53.2177 65.4061 53.2177 65.4339Z" fill="#212A2F"/>
<path d="M45.6496 66.8753C45.6496 66.903 43.2102 66.9307 40.2164 66.9307C37.1949 66.9307 34.7832 66.903 34.7832 66.8753C34.7832 66.8475 37.2226 66.8198 40.2164 66.8198C43.2102 66.8198 45.6496 66.8475 45.6496 66.8753Z" fill="#212A2F"/>
<path d="M45.1507 73.2788C45.1507 73.3066 42.8221 73.3343 39.9669 73.3343C37.1117 73.3343 34.7832 73.3066 34.7832 73.2788C34.7832 73.2511 37.1117 73.2234 39.9669 73.2234C42.8221 73.2234 45.1507 73.2511 45.1507 73.2788Z" fill="#92DCD1"/>
<path d="M53.4394 75.4133C53.4394 75.4411 49.2536 75.4688 44.0976 75.4688C38.9416 75.4688 34.7559 75.4411 34.7559 75.4133C34.7559 75.3856 38.9416 75.3579 44.0976 75.3579C49.2536 75.3579 53.4394 75.3856 53.4394 75.4133Z" fill="#212A2F"/>
<path d="M53.2177 76.9378C53.2177 76.9655 49.0873 76.9932 43.9868 76.9932C38.8862 76.9932 34.7559 76.9655 34.7559 76.9378C34.7559 76.91 38.8862 76.8823 43.9868 76.8823C49.0873 76.8823 53.2177 76.91 53.2177 76.9378Z" fill="#212A2F"/>
<path d="M45.6496 78.3792C45.6496 78.4069 43.2102 78.4346 40.2164 78.4346C37.1949 78.4346 34.7832 78.4069 34.7832 78.3792C34.7832 78.3515 37.2226 78.3237 40.2164 78.3237C43.2102 78.3237 45.6496 78.3515 45.6496 78.3792Z" fill="#212A2F"/>
<path d="M23.6448 26.9504L23.6094 33.2983L32.0641 33.3455L32.0995 26.9975L23.6448 26.9504Z" fill="#92DCD1"/>
<path d="M23.6162 33.2781L26.5823 29.3418L28.4118 31.8366L29.6593 30.5338L32.0709 33.3335L23.6162 33.2781Z" fill="#92DCD1"/>
<path d="M29.1841 28.8982C29.1841 29.2586 28.8792 29.5635 28.5188 29.5635C28.1584 29.5635 27.8535 29.2586 27.8535 28.8982C27.8535 28.5379 28.1584 28.233 28.5188 28.233C28.9069 28.2052 29.1841 28.5102 29.1841 28.8982Z" fill="#92DCD1"/>
<g opacity="0.2">
<path d="M23.6162 33.2781L26.5823 29.3418L28.4118 31.8366L29.6593 30.5338L32.0709 33.3335L23.6162 33.2781Z" fill="black"/>
</g>
<g opacity="0.2">
<path d="M29.1841 28.8982C29.1841 29.2586 28.8792 29.5635 28.5188 29.5635C28.1584 29.5635 27.8535 29.2586 27.8535 28.8982C27.8535 28.5379 28.1584 28.233 28.5188 28.233C28.9069 28.2052 29.1841 28.5102 29.1841 28.8982Z" fill="black"/>
</g>
<path d="M23.6448 15.5885L23.6094 21.9365L32.0641 21.9836L32.0995 15.6357L23.6448 15.5885Z" fill="#92DCD1"/>
<path d="M23.6162 21.9163L26.5823 17.98L28.4118 20.4748L29.6593 19.172L32.0709 21.9717L23.6162 21.9163Z" fill="#92DCD1"/>
<path d="M29.1841 17.5364C29.1841 17.8968 28.8792 18.2017 28.5188 18.2017C28.1584 18.2017 27.8535 17.8968 27.8535 17.5364C27.8535 17.1761 28.1584 16.8711 28.5188 16.8711C28.9069 16.8434 29.1841 17.1483 29.1841 17.5364Z" fill="#92DCD1"/>
<g opacity="0.2">
<path d="M23.6162 21.9163L26.5823 17.98L28.4118 20.4748L29.6593 19.172L32.0709 21.9717L23.6162 21.9163Z" fill="black"/>
</g>
<g opacity="0.2">
<path d="M29.1841 17.5364C29.1841 17.8968 28.8792 18.2017 28.5188 18.2017C28.1584 18.2017 27.8535 17.8968 27.8535 17.5364C27.8535 17.1761 28.1584 16.8711 28.5188 16.8711C28.9069 16.8434 29.1841 17.1483 29.1841 17.5364Z" fill="black"/>
</g>
<path d="M23.6511 38.3893L23.6157 44.7373L32.0705 44.7844L32.1058 38.4364L23.6511 38.3893Z" fill="#92DCD1"/>
<path d="M23.6157 44.7266L26.5818 40.7903L28.4114 43.2851L29.6588 41.9545L32.0705 44.782L23.6157 44.7266Z" fill="#92DCD1"/>
<path d="M29.1846 40.3191C29.1846 40.6795 28.8797 40.9844 28.5193 40.9844C28.1589 40.9844 27.854 40.6795 27.854 40.3191C27.854 39.9587 28.1589 39.6538 28.5193 39.6538C28.9074 39.6538 29.1846 39.9587 29.1846 40.3191Z" fill="#92DCD1"/>
<g opacity="0.2">
<path d="M23.6157 44.7266L26.5818 40.7903L28.4114 43.2851L29.6588 41.9545L32.0705 44.782L23.6157 44.7266Z" fill="black"/>
</g>
<g opacity="0.2">
<path d="M29.1846 40.3191C29.1846 40.6795 28.8797 40.9844 28.5193 40.9844C28.1589 40.9844 27.854 40.6795 27.854 40.3191C27.854 39.9587 28.1589 39.6538 28.5193 39.6538C28.9074 39.6538 29.1846 39.9587 29.1846 40.3191Z" fill="black"/>
</g>
<path d="M23.633 49.8283L23.5977 56.1763L32.0524 56.2234L32.0877 49.8754L23.633 49.8283Z" fill="#92DCD1"/>
<path d="M23.6157 56.1751L26.5818 52.2388L28.4114 54.7059L29.6588 53.403L32.0705 56.2305L23.6157 56.1751Z" fill="#92DCD1"/>
<path d="M29.186 51.7673C29.186 52.1277 28.8811 52.4326 28.5208 52.4326C28.1604 52.4326 27.8555 52.1277 27.8555 51.7673C27.8555 51.407 28.1604 51.1021 28.5208 51.1021C28.9088 51.1021 29.186 51.407 29.186 51.7673Z" fill="#92DCD1"/>
<g opacity="0.2">
<path d="M23.6157 56.1751L26.5818 52.2388L28.4114 54.7059L29.6588 53.403L32.0705 56.2305L23.6157 56.1751Z" fill="black"/>
</g>
<g opacity="0.2">
<path d="M29.186 51.7673C29.186 52.1277 28.8811 52.4326 28.5208 52.4326C28.1604 52.4326 27.8555 52.1277 27.8555 51.7673C27.8555 51.407 28.1604 51.1021 28.5208 51.1021C28.9088 51.1021 29.186 51.407 29.186 51.7673Z" fill="black"/>
</g>
<path d="M23.6448 61.2675L23.6094 67.6155L32.0641 67.6626L32.0995 61.3146L23.6448 61.2675Z" fill="#92DCD1"/>
<path d="M23.6162 67.596L26.5823 63.6597L28.4118 66.1545L29.6593 64.8516L32.0709 67.6514L23.6162 67.596Z" fill="#92DCD1"/>
<path d="M29.1841 63.2164C29.1841 63.5767 28.8792 63.8816 28.5188 63.8816C28.1584 63.8816 27.8535 63.5767 27.8535 63.2164C27.8535 62.856 28.1584 62.5511 28.5188 62.5511C28.9069 62.5233 29.1841 62.8283 29.1841 63.2164Z" fill="#92DCD1"/>
<g opacity="0.2">
<path d="M23.6162 67.596L26.5823 63.6597L28.4118 66.1545L29.6593 64.8516L32.0709 67.6514L23.6162 67.596Z" fill="black"/>
</g>
<g opacity="0.2">
<path d="M29.1841 63.2164C29.1841 63.5767 28.8792 63.8816 28.5188 63.8816C28.1584 63.8816 27.8535 63.5767 27.8535 63.2164C27.8535 62.856 28.1584 62.5511 28.5188 62.5511C28.9069 62.5233 29.1841 62.8283 29.1841 63.2164Z" fill="black"/>
</g>
<path d="M23.6535 72.6508L23.6182 78.9988L32.0729 79.0459L32.1083 72.6979L23.6535 72.6508Z" fill="#92DCD1"/>
<path d="M23.6157 78.989L26.5818 75.0527L28.4114 77.5476L29.6588 76.217L32.0705 79.0445L23.6157 78.989Z" fill="#92DCD1"/>
<path d="M29.1836 74.5815C29.1836 74.9419 28.8787 75.2468 28.5183 75.2468C28.158 75.2468 27.853 74.9419 27.853 74.5815C27.853 74.2212 28.158 73.9163 28.5183 73.9163C28.9064 73.9163 29.1836 74.2212 29.1836 74.5815Z" fill="#92DCD1"/>
<g opacity="0.2">
<path d="M23.6157 78.989L26.5818 75.0527L28.4114 77.5476L29.6588 76.217L32.0705 79.0445L23.6157 78.989Z" fill="black"/>
</g>
<g opacity="0.2">
<path d="M29.1836 74.5815C29.1836 74.9419 28.8787 75.2468 28.5183 75.2468C28.158 75.2468 27.853 74.9419 27.853 74.5815C27.853 74.2212 28.158 73.9163 28.5183 73.9163C28.9064 73.9163 29.1836 74.2212 29.1836 74.5815Z" fill="black"/>
</g>
<path d="M22.5229 39.8436L22.7019 39.1783C22.8213 38.7625 22.8213 38.2913 22.6721 37.8755L21.9263 35.6024C21.8666 35.3806 21.7175 35.2143 21.5087 35.1034C20.9418 34.7985 19.838 34.2164 19.7485 34.2995C19.0624 34.8262 20.5839 35.741 20.5839 35.741C20.5839 35.741 21.1805 36.3509 20.7032 36.7944C20.1662 37.2934 19.1817 36.1845 19.1817 36.1845C19.1817 36.1845 19.2414 36.0737 19.2712 36.1014C19.3011 36.1014 19.7784 36.4895 20.2259 36.4895V35.741L19.3309 35.2143C19.1221 35.1034 18.8834 35.048 18.6746 35.1034L18.3763 35.1589C18.1674 35.1866 17.9884 35.2975 17.8989 35.4638L17.6006 35.8796L17.4813 36.0459C17.362 36.1845 17.3321 36.4063 17.4216 36.5726L17.5708 36.8498L17.362 37.0993C17.2128 37.3211 17.1531 37.5983 17.2725 37.82L18.7939 39.7605L21.0313 43.1424L23.4478 40.7307L22.5229 39.8436Z" fill="#FFBE9D"/>
<path d="M17.8087 37.8201C17.8087 37.8201 17.7491 37.7647 17.7192 37.6815C17.6894 37.5984 17.6894 37.432 17.7789 37.3212V37.2934C17.7789 37.2657 17.7491 37.2657 17.7491 37.238C17.5999 36.9331 17.4507 36.6836 17.4209 36.6836C17.4209 36.6836 17.5402 36.9608 17.6894 37.2657C17.6894 37.2934 17.7192 37.2934 17.7192 37.3212V37.2934C17.5999 37.432 17.5999 37.5984 17.6596 37.7092C17.7491 37.7924 17.8087 37.8478 17.8087 37.8201Z" fill="#EB996E"/>
<path d="M18.0162 35.2974C18.0162 35.2974 17.9267 35.436 17.9565 35.6854C18.0162 35.9349 18.1653 36.2676 18.3742 36.5725C18.4338 36.6557 18.4935 36.7388 18.5233 36.822C18.5532 36.9052 18.5532 37.016 18.5532 37.0992C18.5233 37.2655 18.5532 37.4041 18.6128 37.515C18.7322 37.7368 18.9111 37.7922 18.9111 37.7922C18.9111 37.7922 18.7023 37.7645 18.5532 37.5427C18.4637 37.4318 18.4637 37.2655 18.4637 37.0992C18.4637 37.016 18.4637 36.9329 18.4338 36.8497C18.404 36.7665 18.3443 36.6834 18.3145 36.6002C18.1057 36.2676 17.9565 35.9349 17.9267 35.6577C17.8372 35.436 17.9863 35.2974 18.0162 35.2974Z" fill="#EB996E"/>
<path d="M19.2119 36.1568C19.1821 36.1568 19.1821 36.0182 19.0926 35.8519C19.0031 35.6856 18.9136 35.5747 18.9136 35.547C18.9434 35.5192 19.0627 35.6301 19.1522 35.7965C19.2716 35.9905 19.2417 36.1568 19.2119 36.1568Z" fill="#EB996E"/>
<path d="M23.3266 51.4587L24.2514 52.5398L29.0544 47.1898L22.7896 39.5112L19.687 41.7843L23.3266 51.4587Z" fill="#00937D"/>
<path d="M44.6543 103.185L45.0421 111.889L50.0838 111.778L49.7258 103.074L44.6543 103.185Z" fill="#00937D"/>
<path d="M47.5195 111.501C47.5493 111.501 47.4897 109.588 47.3405 107.26C47.1913 104.904 47.0422 103.019 47.0123 103.019C46.9825 103.019 47.0422 104.931 47.1913 107.26C47.3405 109.588 47.4897 111.501 47.5195 111.501Z" fill="#263238"/>
<path d="M45.0112 111.279L50.0529 111.168L50.0827 111.778L45.0411 111.889L45.0112 111.279Z" fill="#263238"/>
<path d="M49.9659 108.978C49.9659 108.978 49.9361 108.895 49.8168 108.784C49.7273 108.674 49.5483 108.535 49.3394 108.369C49.1306 108.202 48.8323 108.036 48.5041 107.897C48.176 107.759 47.7583 107.676 47.3108 107.703C46.4457 107.731 45.7297 108.175 45.3717 108.59C45.1927 108.784 45.0734 108.978 45.0138 109.117C44.9541 109.256 44.9243 109.339 44.9541 109.339C44.9839 109.339 45.1032 109.034 45.4612 108.674C45.8192 108.285 46.4755 107.897 47.3108 107.87C48.1461 107.842 48.8323 108.175 49.2499 108.479C49.7273 108.757 49.9659 109.006 49.9659 108.978Z" fill="#263238"/>
<g opacity="0.3">
<path d="M49.8161 105.541L49.8757 106.511L44.8042 106.595L44.7744 105.874L49.8161 105.541Z" fill="black"/>
</g>
<path d="M32.7577 103.712L32.9964 109.007C32.9964 109.007 27.2984 111.002 27.2388 112L38.2767 111.917L38.2469 103.656L32.7577 103.712Z" fill="#00937D"/>
<path d="M36.3658 108.563C36.5747 108.618 36.7238 108.84 36.694 109.034C36.6343 109.228 36.3957 109.395 36.1868 109.339C35.978 109.284 35.7692 109.034 35.8587 108.84C35.9183 108.646 36.2167 108.48 36.4255 108.591" fill="#E0E0E0"/>
<path d="M38.3047 111.917V111.085L27.6247 111.474C27.6247 111.474 27.1176 111.668 27.1772 112L38.3047 111.917Z" fill="#263238"/>
<path d="M32.9028 109.034C32.9028 109.089 33.1713 109.117 33.4398 109.256C33.7083 109.422 33.8575 109.616 33.9171 109.616C33.9768 109.616 33.8873 109.311 33.5591 109.117C33.231 108.923 32.9028 108.979 32.9028 109.034Z" fill="#263238"/>
<path d="M31.7427 109.478C31.7427 109.533 31.9813 109.616 32.1603 109.81C32.3393 110.004 32.399 110.254 32.4587 110.254C32.5183 110.254 32.5481 109.977 32.3095 109.699C32.0708 109.45 31.7427 109.45 31.7427 109.478Z" fill="#263238"/>
<path d="M31.088 110.78C31.1477 110.78 31.2073 110.531 31.0582 110.254C30.909 109.977 30.6704 109.866 30.6405 109.921C30.6107 109.977 30.7897 110.115 30.8792 110.337C31.0283 110.586 31.0582 110.78 31.088 110.78Z" fill="#263238"/>
<path d="M32.9969 107.814C33.0267 107.87 33.2654 107.787 33.5637 107.814C33.862 107.814 34.1007 107.925 34.1305 107.87C34.1604 107.842 33.9217 107.648 33.5637 107.62C33.2356 107.62 32.9671 107.787 32.9969 107.814Z" fill="#263238"/>
<path d="M32.7871 106.678C32.7871 106.706 32.9959 106.733 33.3539 106.678C33.5329 106.65 33.7119 106.595 33.9506 106.511C34.0699 106.456 34.1594 106.401 34.2787 106.345C34.3384 106.317 34.3981 106.29 34.4577 106.234C34.5174 106.179 34.5472 106.04 34.4876 105.957C34.4279 105.874 34.3384 105.846 34.2489 105.846C34.1594 105.846 34.0997 105.874 34.0401 105.874C33.9207 105.902 33.8014 105.929 33.6821 105.985C33.4733 106.068 33.2943 106.179 33.1749 106.29C32.9064 106.511 32.8169 106.706 32.8468 106.706C32.8766 106.733 32.9959 106.567 33.2644 106.373C33.3838 106.29 33.5627 106.179 33.7716 106.096C33.8611 106.068 33.9804 106.013 34.0997 106.013C34.2191 105.985 34.3086 105.985 34.3384 106.04C34.3384 106.068 34.3384 106.068 34.3384 106.096C34.3086 106.123 34.2787 106.151 34.2191 106.179C34.1296 106.234 34.0102 106.29 33.9207 106.345C33.7417 106.428 33.5329 106.511 33.3838 106.539C32.9959 106.622 32.7871 106.65 32.7871 106.678Z" fill="#263238"/>
<path d="M32.878 106.733C32.9079 106.733 32.9974 106.567 33.0272 106.234C33.0272 106.068 33.0272 105.874 32.9377 105.68C32.9079 105.569 32.8482 105.458 32.7885 105.375C32.7289 105.264 32.6394 105.125 32.4306 105.125C32.3112 105.125 32.2217 105.209 32.1919 105.264C32.1621 105.347 32.1621 105.403 32.1322 105.458C32.1024 105.569 32.1024 105.708 32.1322 105.818C32.1621 106.04 32.2814 106.234 32.3709 106.345C32.5797 106.622 32.8184 106.678 32.8184 106.65C32.8482 106.622 32.6394 106.539 32.4902 106.262C32.4007 106.123 32.3411 105.957 32.3112 105.763C32.3112 105.68 32.3112 105.569 32.3112 105.458C32.3411 105.347 32.3709 105.264 32.4306 105.264C32.4902 105.264 32.5797 105.347 32.6394 105.43C32.6991 105.514 32.7289 105.624 32.7885 105.708C32.8482 105.902 32.878 106.068 32.9079 106.234C32.9079 106.539 32.8482 106.733 32.878 106.733Z" fill="#263238"/>
<g opacity="0.3">
<path d="M38.3009 106.816V108.008H32.9609V106.927L38.3009 106.816Z" fill="black"/>
</g>
<path d="M56.1726 18.8317L56.9781 21.6869C56.9781 21.6869 57.2764 23.267 56.4709 23.267C55.7848 23.267 55.6953 22.4076 55.6953 22.4076C55.6953 22.4076 56.0533 20.689 55.1285 20.7721C55.0091 20.7721 54.681 21.9641 54.502 22.574C54.4423 22.7957 54.4722 23.0175 54.5915 23.2392L55.9041 25.4014C56.1428 25.7895 56.5008 26.1222 56.9483 26.3717L57.6046 26.732L57.6941 28.0072L61.3933 28.0626L60.2596 24.0431L59.7823 21.6037C59.663 21.3543 59.3945 21.1879 59.126 21.1602L58.768 21.1048L58.6487 20.7998C58.5592 20.6058 58.3802 20.4949 58.1714 20.4672L57.9625 20.4395L57.6642 19.7465C57.5747 19.5247 56.8289 18.0001 56.5604 18.0001C56.5903 17.9724 55.9936 18.111 56.1726 18.8317Z" fill="#FFBE9D"/>
<path d="M58.8271 22.2689C58.8271 22.2689 58.8271 22.1303 58.7674 21.964C58.7078 21.77 58.5586 21.5482 58.2603 21.3819C58.1111 21.1047 58.0216 20.8275 57.9918 20.6334C57.9321 20.4394 57.9321 20.3008 57.962 20.3008C57.962 20.3008 57.9918 20.4117 58.0515 20.6057C58.1111 20.7997 58.2006 21.077 58.32 21.3264C58.3796 21.3819 58.4393 21.4096 58.499 21.465C58.5586 21.5205 58.6183 21.5759 58.6481 21.6314C58.7376 21.7422 58.7973 21.8531 58.8271 21.964C58.8569 22.0749 58.8569 22.1581 58.8569 22.2135C58.8271 22.2412 58.8271 22.2689 58.8271 22.2689Z" fill="#EB996E"/>
<path d="M59.391 21.9919C59.391 21.9919 59.391 21.9364 59.3313 21.8255C59.2716 21.7424 59.1523 21.6315 58.9733 21.6315H58.9435V21.6038C58.9435 21.576 58.9435 21.576 58.9137 21.5483C58.7943 21.2157 58.675 20.9385 58.7048 20.9385C58.7347 20.9385 58.854 21.2157 58.9733 21.5483C58.9733 21.576 58.9733 21.576 59.0032 21.6038L58.9733 21.576C59.1523 21.6038 59.3015 21.7146 59.3611 21.8255C59.4208 21.9087 59.391 21.9919 59.391 21.9919Z" fill="#EB996E"/>
<path d="M37.5869 35.7691L44.2991 35.6859L43.5533 30.3636C43.5533 30.3636 44.0008 30.2804 44.0307 27.9519C44.0605 25.6511 44.1798 21.7148 44.1798 21.7148C41.2861 20.5783 37.9747 20.9664 35.4986 22.7405L35.1406 23.0177L37.5869 35.7691Z" fill="#FFBE9D"/>
<path d="M35.9138 25.8453C35.884 25.8176 34.2134 25.3741 34.273 26.9541C34.3327 28.5342 36.0332 28.1461 36.0332 28.1184C36.0033 28.063 35.9138 25.8453 35.9138 25.8453Z" fill="#FFBE9D"/>
<path d="M43.912 25.5124C43.9419 25.4847 45.4633 25.1244 45.4037 26.7044C45.344 28.2845 43.6436 27.8964 43.6436 27.8687C43.6436 27.8132 43.912 25.5124 43.912 25.5124Z" fill="#FFBE9D"/>
<path d="M35.3496 25.6788C35.6181 27.0094 35.5584 27.7024 35.7971 28.5895C36.1551 29.9755 36.9307 31.0566 38.2732 31.7496C39.6156 32.4426 41.4652 32.4426 42.6287 31.4724C43.4342 30.8071 44.001 30.0587 44.1203 29.0607C44.2396 28.0628 44.359 26.3164 44.359 25.3185C44.359 23.5166 44.5081 21.798 44.5081 21.798L38.9593 20.8555L35.7971 22.6019L35.3496 25.6788Z" fill="#263238"/>
<path d="M41.0763 32.5534C41.0763 32.5811 40.6586 32.692 40.0918 32.6366C39.5549 32.5811 39.1372 32.3871 39.167 32.3594C39.1969 32.3316 39.5847 32.4425 40.1217 32.498C40.6586 32.5534 41.0763 32.498 41.0763 32.5534Z" fill="#263238"/>
<path d="M35.6196 27.9243C35.4705 26.566 35.3512 25.0136 35.1125 23.5722C35.023 23.0455 34.8142 22.2693 34.8738 21.7149C34.9335 21.1605 34.9932 20.6061 35.2318 20.1349C35.56 19.525 36.1865 19.0538 36.9323 18.9152C37.6482 18.7766 38.4239 18.9706 38.9907 19.4141C39.4083 18.8597 40.184 18.5548 40.9 18.7211C41.6159 18.8874 42.1827 19.4696 42.2722 20.1349C42.6601 19.7745 43.3164 19.719 43.7937 19.9963C44.271 20.2457 44.5097 20.8279 44.3605 21.2991C44.7483 21.3546 45.1063 21.6318 45.2853 21.9644C45.4345 22.297 45.4046 22.7129 45.1958 23.0455C44.9273 23.4059 44.4798 23.6276 44.1815 23.9603C43.8534 24.3761 43.8235 24.9582 44.092 25.374" fill="#263238"/>
<path d="M43.3433 23.0178C43.3433 23.0178 43.3433 23.0732 43.2837 23.1564C43.224 23.2395 43.1345 23.3781 42.9555 23.489C42.7765 23.5999 42.5379 23.7108 42.2396 23.7108C41.9412 23.7108 41.6131 23.5999 41.3446 23.3227L41.4639 23.295C41.4042 23.6276 41.1059 23.9603 40.7181 24.0989C40.3303 24.2652 39.8231 24.182 39.4651 23.9603C39.137 23.7385 38.8983 23.4336 38.7492 23.1009L38.8983 23.1286C38.6 23.5445 38.0929 23.7662 37.6454 23.7662C37.1979 23.7662 36.8101 23.5722 36.6012 23.3781C36.3626 23.1564 36.2731 22.9346 36.2134 22.7683C36.1836 22.602 36.1836 22.5188 36.1836 22.5188C36.1836 22.5188 36.2134 22.602 36.2731 22.7683C36.3328 22.9069 36.4521 23.1286 36.6609 23.3227C36.8697 23.5167 37.2277 23.6831 37.6454 23.6553C38.063 23.6276 38.5105 23.4336 38.779 23.0732L38.8685 22.9623L38.9282 23.1009C39.0475 23.4059 39.2563 23.6831 39.5845 23.8771C39.9126 24.0989 40.3601 24.1543 40.6883 24.0157C41.0463 23.9048 41.2849 23.6276 41.3446 23.3227L41.3744 23.1841L41.4639 23.295C41.6727 23.5445 41.9711 23.6553 42.2694 23.6553C42.5379 23.6831 42.7765 23.5722 42.9555 23.489C43.224 23.2395 43.3135 23.0178 43.3433 23.0178Z" fill="#00937D"/>
<path d="M43.3141 22.4078C43.2843 22.4078 43.3141 22.1583 43.0755 21.8257C42.9561 21.6594 42.7473 21.5208 42.4788 21.4653C42.2103 21.4099 41.8822 21.4376 41.6435 21.6039L41.5242 21.6871V21.5208C41.5242 21.3822 41.5242 21.2158 41.4645 21.0772C41.3452 20.7446 41.0767 20.4674 40.7784 20.3288C40.4801 20.1902 40.1519 20.1902 39.9132 20.2456C39.4061 20.3565 39.1973 20.6337 39.1973 20.6337C39.1973 20.6337 39.2271 20.5506 39.3464 20.4674C39.4658 20.3565 39.6447 20.2456 39.9132 20.1625C40.1817 20.0793 40.5099 20.0793 40.8679 20.2179C41.196 20.3565 41.4944 20.6614 41.6435 21.0218C41.7032 21.1881 41.733 21.3544 41.7032 21.5208L41.5839 21.4653C41.8822 21.2713 42.27 21.2436 42.5385 21.299C42.8368 21.3822 43.0456 21.5485 43.165 21.7425C43.2843 21.9089 43.3141 22.0752 43.344 22.1861C43.344 22.3247 43.3141 22.4078 43.3141 22.4078Z" fill="#00937D"/>
<path d="M39.795 22.4355C39.7652 22.4355 39.795 22.3524 39.795 22.2138C39.795 22.0752 39.7354 21.9088 39.616 21.7425C39.4967 21.5762 39.3774 21.4099 39.2879 21.3267C39.1984 21.2435 39.1089 21.299 39.1089 21.299C39.1089 21.299 39.1089 21.2713 39.1387 21.2436C39.1686 21.2158 39.2879 21.2158 39.3475 21.2713C39.4072 21.3267 39.4669 21.3822 39.5265 21.4653C39.5862 21.5485 39.6459 21.6039 39.7055 21.7148C39.8249 21.9088 39.8845 22.1029 39.8547 22.2692C39.8547 22.3801 39.795 22.4632 39.795 22.4355Z" fill="#00937D"/>
<path d="M36.4838 20.4674C36.454 20.4674 36.4838 20.3565 36.5733 20.1902C36.633 20.107 36.6927 20.0239 36.812 19.9407C36.9313 19.8576 37.1103 19.8298 37.2595 19.8576C37.5876 19.913 37.7965 20.107 37.9456 20.2456C38.065 20.3843 38.1246 20.4951 38.1246 20.4951C38.0948 20.4951 38.0053 20.4397 37.886 20.3011C37.7368 20.1902 37.528 20.0239 37.2595 19.9962C36.991 19.9684 36.7822 20.107 36.6628 20.2456C36.5733 20.3565 36.5137 20.4674 36.4838 20.4674Z" fill="#00937D"/>
<path d="M37.3492 27.1479C37.3193 27.1756 36.9912 26.7321 36.7525 26.15C36.5437 25.5401 36.5139 25.0134 36.5735 25.0134C36.6332 25.0134 36.6929 25.5124 36.9315 26.0945C37.1403 26.7044 37.4088 27.1479 37.3492 27.1479Z" fill="#00937D"/>
<path d="M38.0952 27.5361C38.0654 27.5638 37.8566 27.2312 37.6776 26.8154C37.4986 26.3996 37.4389 26.0392 37.4688 26.0115C37.4986 26.0115 37.6477 26.3441 37.8267 26.7599C38.0057 27.1757 38.1549 27.5084 38.0952 27.5361Z" fill="#00937D"/>
<path d="M42.7774 27.6472C42.8073 27.6472 42.8968 28.2848 42.5984 29.0332C42.3001 29.7817 41.7631 30.2252 41.7631 30.1975C41.7333 30.1698 42.1808 29.6985 42.4493 28.9778C42.7178 28.2848 42.7178 27.6472 42.7774 27.6472Z" fill="#00937D"/>
<path d="M43.5236 26.4826C43.5534 26.4549 43.7623 27.037 43.6429 27.7301C43.5236 28.4231 43.106 28.8943 43.0761 28.8666C43.0463 28.8389 43.3744 28.3676 43.4938 27.7023C43.6131 27.0648 43.4639 26.5104 43.5236 26.4826Z" fill="#00937D"/>
<path d="M41.3765 70.0592L43.0173 84.6678L44.1808 106.706H50.4456L50.5947 59.8303L32.6953 60.9946L28.9663 85.6103L32.1882 107.121H39.0496L37.4387 86.6637L41.3765 70.0592Z" fill="#404040"/>
<path d="M41.3758 70.0591C41.4056 70.0868 40.8686 70.5858 40.1527 71.1679C39.4665 71.75 38.8699 72.1936 38.8401 72.1658C38.8102 72.1381 39.3472 71.6392 40.0632 71.057C40.7493 70.4749 41.346 70.0314 41.3758 70.0591Z" fill="#222222"/>
<path d="M41.3434 69.7544C41.3136 69.7544 41.3434 68.9227 41.3732 67.8694C41.4031 66.8437 41.4329 65.9844 41.4926 65.9844C41.5224 65.9844 41.5821 66.816 41.5224 67.8694C41.4926 68.9227 41.4031 69.7544 41.3434 69.7544Z" fill="#222222"/>
<path d="M43.4302 64.2932C43.4302 64.2932 43.4601 64.2932 43.5197 64.2932C43.6092 64.2932 43.6987 64.2932 43.818 64.2655C44.1164 64.2655 44.5042 64.2377 45.0113 64.21C46.0555 64.1823 47.5172 64.0991 49.2475 64.0437H49.3072V64.0991C49.3072 65.3188 49.3072 66.7326 49.3072 68.2018V68.2849V68.3404L49.2475 68.3681C48.2929 68.7285 47.3681 69.0611 46.503 69.3937H46.4731H46.4433C45.5781 69.1165 44.7428 68.8393 43.997 68.6176H43.9672V68.5899C43.7882 67.3147 43.639 66.2613 43.5197 65.4852C43.4601 65.1248 43.4302 64.8476 43.4004 64.6258C43.4302 64.4041 43.4004 64.2932 43.4302 64.2932C43.4302 64.2932 43.4302 64.3209 43.4601 64.3763C43.4601 64.4318 43.4899 64.5149 43.4899 64.5981C43.5197 64.8199 43.5794 65.0971 43.639 65.4574C43.7584 66.2059 43.9374 67.2593 44.1462 68.5067L44.1164 68.4512C44.8622 68.7007 45.6975 68.9502 46.5626 69.2274H46.503C47.3681 68.8948 48.2929 68.5621 49.2475 68.2018L49.1879 68.2572V68.174C49.1879 66.7049 49.1879 65.3188 49.1879 64.0714L49.2475 64.1269C47.5471 64.1546 46.0853 64.21 45.0412 64.21C44.534 64.21 44.1462 64.2377 43.8479 64.2377C43.7285 64.2377 43.6092 64.2377 43.5197 64.2377C43.4601 64.2932 43.4302 64.2932 43.4302 64.2932Z" fill="#222222"/>
<path d="M34.4824 64.3765C34.5719 64.3765 34.6614 64.3765 34.7508 64.3765C35.0193 64.3765 35.3773 64.3488 35.8248 64.3488C36.7794 64.3211 38.1219 64.2933 39.703 64.2656H39.7627V64.3211C39.7328 65.5408 39.6732 66.9268 39.6135 68.4237V68.4514L39.5837 68.4791C39.4345 68.5623 39.2854 68.6455 39.1362 68.7563C38.3606 69.2276 37.5849 69.6988 36.8689 70.1424L36.8391 70.1701L36.8093 70.1424C35.8845 69.6157 35.0193 69.1444 34.2437 68.7009L34.2139 68.6732V68.6455C34.2735 67.3703 34.3034 66.3169 34.3332 65.5408C34.363 65.1804 34.363 64.9032 34.363 64.6814C34.363 64.4597 34.3929 64.3765 34.3929 64.3765C34.3929 64.3765 34.3929 64.4042 34.3929 64.4597C34.3929 64.5151 34.3929 64.5983 34.3929 64.6814C34.3929 64.9032 34.3929 65.1804 34.3929 65.5408C34.3929 66.2892 34.363 67.3426 34.3332 68.6177L34.3034 68.5623C35.079 69.0058 35.9441 69.4771 36.8689 70.0038H36.7794C37.4954 69.5602 38.2711 69.1167 39.0467 68.6177C39.1959 68.5346 39.345 68.4237 39.4942 68.3405L39.4644 68.396C39.524 66.8991 39.5837 65.513 39.6135 64.2933L39.6732 64.3488C38.0921 64.3488 36.7794 64.3765 35.8546 64.3765C35.4072 64.3765 35.0492 64.3765 34.7807 64.3765C34.6614 64.3765 34.5719 64.3765 34.4824 64.3765Z" fill="#222222"/>
<path d="M48.6555 71.0015C48.6555 71.0292 48.3274 71.0015 47.8202 70.9738C47.3131 70.9461 46.5673 70.8629 45.7916 70.7797C44.9862 70.6966 44.3 70.5857 43.763 70.4748C43.2559 70.3917 42.9277 70.3085 42.9277 70.3085C42.9277 70.2808 43.2559 70.3085 43.763 70.3917C44.3299 70.4748 45.016 70.558 45.7916 70.6411C46.5673 70.7243 47.2534 70.8075 47.8202 70.8906C48.3572 70.9183 48.6854 70.9738 48.6555 71.0015Z" fill="#222222"/>
<path d="M48.5368 87.301C48.5368 87.301 48.5069 87.3842 48.3876 87.495C48.2683 87.6059 48.0296 87.6891 47.7611 87.6891C47.4628 87.6891 47.1347 87.5782 46.8363 87.3564C46.538 87.1347 46.2695 86.8575 45.9712 86.5526C45.4044 85.9427 44.9867 85.3606 44.7182 84.8893C44.4498 84.4458 44.3006 84.1409 44.3304 84.1409C44.3603 84.1409 44.5094 84.4181 44.8077 84.8339C45.1061 85.2774 45.5535 85.8595 46.0905 86.4417C46.359 86.7466 46.6275 87.0238 46.9258 87.2178C47.1943 87.4396 47.4926 87.5505 47.7611 87.5505C48.0296 87.5505 48.2385 87.495 48.3578 87.4119C48.4771 87.3564 48.5069 87.301 48.5368 87.301Z" fill="#222222"/>
<path d="M36.1553 87.8003C36.1553 87.8003 36.1553 87.8834 36.0658 87.9943C36.0062 88.1052 35.857 88.2438 35.6482 88.3824C35.4394 88.4933 35.141 88.6042 34.7831 88.6042C34.4549 88.6042 34.0671 88.4933 33.7389 88.2992C33.0826 87.9112 32.7246 87.329 32.486 86.9132C32.2771 86.4974 32.1578 86.2479 32.1876 86.2202C32.2175 86.2202 32.3368 86.4697 32.6053 86.8578C32.844 87.2459 33.2019 87.8003 33.8284 88.1606C34.1267 88.327 34.4847 88.4379 34.7831 88.4656C35.0814 88.4656 35.3797 88.4101 35.5885 88.2992C36.036 88.0775 36.1553 87.8003 36.1553 87.8003Z" fill="#222222"/>
<path d="M36.5691 85.6103C36.5691 85.6103 36.3901 85.7489 36.062 85.8875C35.7338 86.0261 35.2267 86.1647 34.6598 86.1647C34.093 86.1924 33.5859 86.0815 33.2279 85.9706C32.8699 85.8597 32.6909 85.7489 32.6909 85.7211C32.6909 85.6657 33.5561 86.0538 34.63 85.9983C35.7338 85.9983 36.5393 85.5548 36.5691 85.6103Z" fill="#222222"/>
<path d="M56.9156 33.9947H47.7869C47.7869 33.9947 46.534 33.3294 45.9373 33.4403C45.3407 33.5512 44.8037 34.1333 44.8037 34.1333L45.997 43.4751L48.9504 41.4515L59.9585 40.3981C60.9132 40.3981 61.8081 40.01 62.4644 39.3725C63.1804 38.6794 63.5086 37.7092 63.3892 36.7667L61.3606 26.7319L57.1841 26.8705L57.0051 29.4208L56.9156 33.9947Z" fill="#00937D"/>
<path d="M31.8289 36.3511C31.8289 36.3511 30.3671 37.0995 29.6213 38.735C29.0843 39.927 25.4447 45.8592 23.5355 48.9362C22.8493 50.0727 23.0283 51.4864 23.983 52.4289C25.1464 53.5655 26.5485 53.1219 28.2192 52.5953C28.9948 52.3735 32.3957 47.4947 32.3957 47.4947L31.8289 36.3511Z" fill="#00937D"/>
<path d="M33.412 57.5018L31.3237 40.7863L31.8309 36.3511L37.141 34.2166L44.0323 33.8008L50.5954 34.4938L49.074 51.625L50.7446 61.2995L32.3679 62.0756L33.412 57.5018Z" fill="#00937D"/>
<path d="M33.4109 57.4461C33.3811 57.4461 32.874 53.7316 32.3071 49.13C31.7403 44.5284 31.2928 40.8139 31.3525 40.7861C31.3823 40.7861 31.8895 44.5007 32.4563 49.1023C32.9933 53.7039 33.4408 57.4461 33.4109 57.4461Z" fill="#263238"/>
<path d="M50.4739 38.2361C50.4739 38.2361 50.4739 38.2915 50.4739 38.3747C50.4739 38.4856 50.4441 38.6242 50.4441 38.7905C50.4143 39.1786 50.3546 39.7053 50.2651 40.3706C50.116 41.7289 49.9071 43.5584 49.6983 45.582C49.4895 47.6056 49.3105 49.4629 49.221 50.7934C49.1613 51.4587 49.1315 51.9854 49.1017 52.3735C49.1017 52.5398 49.0718 52.6784 49.0718 52.7893C49.0718 52.9002 49.042 52.9279 49.042 52.9279C49.042 52.9279 49.042 52.8725 49.042 52.7893C49.042 52.6784 49.042 52.5398 49.042 52.3458C49.042 51.9577 49.0718 51.431 49.1017 50.7657C49.1912 49.4351 49.3403 47.5779 49.5491 45.5543C49.758 43.5307 49.9668 41.6734 50.1458 40.3428C50.2353 39.6775 50.3248 39.1509 50.3546 38.7628C50.3844 38.5965 50.4143 38.4579 50.4143 38.347C50.4441 38.2915 50.4739 38.2361 50.4739 38.2361Z" fill="#263238"/>
<path d="M47.3118 54.8684C47.3118 54.8684 47.2223 54.9793 47.0134 55.2011C46.9239 55.3119 46.8046 55.4228 46.6256 55.5614C46.4764 55.7 46.2975 55.8663 46.0886 56.0049C45.8798 56.1713 45.671 56.3376 45.4025 56.5039C45.1638 56.6702 44.8655 56.8366 44.5672 57.0029C43.9407 57.3078 43.2546 57.6127 42.4491 57.8345C41.6734 58.0563 40.8978 58.1671 40.2117 58.2226C39.8537 58.2503 39.5255 58.2503 39.2272 58.2503C38.9289 58.2503 38.6306 58.2226 38.3621 58.1949C38.0936 58.1671 37.8549 58.1394 37.6461 58.084C37.4373 58.0563 37.2583 58.0008 37.1091 57.9731C36.8108 57.8899 36.6616 57.8622 36.6616 57.8345C36.6616 57.8068 37.2881 57.9731 38.3322 58.084C38.6007 58.1117 38.8692 58.1394 39.1974 58.1117C39.4957 58.1117 39.8238 58.084 40.1818 58.084C40.868 58.0285 41.6138 57.9177 42.3894 57.6959C43.1651 57.4741 43.8512 57.1969 44.4777 56.892C44.776 56.7257 45.0743 56.5871 45.313 56.4208C45.5815 56.2544 45.7903 56.1158 45.9991 55.9495C46.8643 55.3397 47.2819 54.8684 47.3118 54.8684Z" fill="white"/>
<path d="M48.4439 34.3275C48.4439 34.2998 49.13 34.5493 49.6372 35.2146C50.1443 35.8798 50.204 36.5451 50.1742 36.5451C50.1145 36.5451 50.025 35.9076 49.5179 35.2977C49.0405 34.6601 48.4141 34.3552 48.4439 34.3275Z" fill="#263238"/>
<path d="M47.8186 34.1335C47.8186 34.1335 47.7589 34.1058 47.6694 34.0504C47.5799 33.9949 47.401 33.9672 47.1623 34.0227C46.9535 34.0781 46.7148 34.189 46.4762 34.4107C46.2375 34.6048 46.0585 34.882 45.7303 35.1315C45.4022 35.3532 44.9547 35.4641 44.5072 35.4918C44.0299 35.5196 43.5526 35.4641 43.0156 35.4641C41.9715 35.4364 40.808 35.4364 39.6147 35.5196C37.1983 35.7136 35.0504 36.2126 33.5886 36.767C32.8428 37.0442 32.276 37.2937 31.8882 37.4877C32.276 37.2937 32.8726 37.0442 33.5886 36.767C35.0504 36.2126 37.1983 35.6859 39.6147 35.5196C40.808 35.4364 41.9715 35.4087 43.0156 35.4641C43.5526 35.4918 44.0299 35.5196 44.5072 35.5196C44.9547 35.4918 45.4022 35.4087 45.7303 35.1869C46.0585 34.9651 46.2673 34.6879 46.4762 34.4939C46.685 34.2721 46.9535 34.1613 47.1623 34.1058C47.3711 34.0504 47.5501 34.1058 47.6694 34.1335C47.7888 34.0781 47.8186 34.1335 47.8186 34.1335Z" fill="#FAFAFA"/>
<path d="M49.8781 37.5709C49.8781 37.5709 49.8184 37.5431 49.6991 37.5431C49.5798 37.5154 49.4008 37.5154 49.1621 37.5154C48.9234 37.5431 48.6549 37.5986 48.3268 37.7095C48.0285 37.8203 47.6705 38.0144 47.3125 38.1807C46.9545 38.3747 46.5369 38.5688 46.0297 38.6797C45.5524 38.8183 45.0154 38.8737 44.4486 38.9014C43.3448 38.9569 42.0918 38.9846 40.809 39.0678C38.2435 39.2341 35.9166 39.5113 34.2459 39.7608C33.4106 39.8716 32.7543 40.0102 32.277 40.0934C32.0682 40.1211 31.8892 40.1766 31.74 40.1766C31.6207 40.2043 31.561 40.2043 31.561 40.2043C31.561 40.2043 31.6207 40.1766 31.74 40.1766C31.8892 40.1489 32.0682 40.1211 32.277 40.0657C32.7543 39.9825 33.4106 39.8439 34.2459 39.733C35.9166 39.4836 38.2136 39.1786 40.809 39.0123C42.0918 38.9292 43.315 38.9014 44.4486 38.846C45.0154 38.8183 45.5226 38.7351 45.9999 38.6242C46.4772 38.5133 46.8948 38.3193 47.2528 38.1253C47.6108 37.9312 47.9688 37.7649 48.2671 37.654C48.5655 37.5431 48.8638 37.4877 49.1024 37.46C49.3411 37.4322 49.5201 37.46 49.6394 37.4877C49.8184 37.5431 49.8781 37.5709 49.8781 37.5709Z" fill="#FAFAFA"/>
<path d="M49.9371 42.2832C49.9371 42.2832 49.6984 42.3941 49.2808 42.5327C48.8631 42.699 48.2068 42.8931 47.4312 43.1148C45.8501 43.5306 43.5828 43.9187 41.0769 44.0019C38.571 44.085 36.2739 43.9741 34.6331 43.8633C33.8276 43.8078 33.1713 43.7524 32.694 43.7247C32.4852 43.6969 32.3062 43.6969 32.157 43.6692C32.0377 43.6692 31.978 43.6415 31.978 43.6415C31.978 43.6415 32.0377 43.6415 32.157 43.6415C32.3062 43.6415 32.4852 43.6692 32.694 43.6692C33.1713 43.6969 33.8276 43.7524 34.6331 43.7801C36.2739 43.8633 38.571 44.0019 41.0769 43.9187C43.5828 43.8355 45.8501 43.4752 47.4312 43.0594C48.2366 42.8653 48.8631 42.6436 49.2808 42.505C49.4896 42.4218 49.6686 42.3664 49.7879 42.3386C49.8774 42.2832 49.9371 42.2832 49.9371 42.2832Z" fill="#FAFAFA"/>
<path d="M49.2207 47.7166C49.2207 47.7166 49.0119 47.7997 48.5943 47.9383C48.1766 48.0769 47.6098 48.2155 46.8342 48.3541C46.0883 48.4927 45.1934 48.5759 44.1791 48.6036C43.1648 48.6313 42.061 48.6036 40.8975 48.5482C38.5706 48.4096 36.4823 48.2432 34.9609 48.2987C34.1853 48.3264 33.5886 48.3541 33.171 48.4096C32.9621 48.4373 32.7831 48.465 32.6936 48.465C32.5743 48.465 32.5146 48.4927 32.5146 48.4927C32.5146 48.4927 33.4394 48.2987 34.9609 48.271C36.4823 48.2155 38.6004 48.3541 40.8975 48.4927C42.061 48.5482 43.1648 48.5759 44.1791 48.5482C45.1934 48.5204 46.0883 48.4373 46.8342 48.2987C47.58 48.1878 48.1766 48.0215 48.5943 47.9106C48.8031 47.8552 48.9523 47.7997 49.0716 47.772C49.1611 47.7443 49.2207 47.7166 49.2207 47.7166Z" fill="#FAFAFA"/>
<path d="M48.6561 51.9299C48.6561 51.9299 47.8208 52.1794 46.4187 52.4843C45.7325 52.6229 44.8972 52.7893 43.9426 52.9279C43.0178 53.0665 41.9737 53.1774 40.8699 53.2328C39.7661 53.2882 38.7518 53.2882 37.7971 53.2882C36.8425 53.2605 36.0072 53.2051 35.2912 53.1219C33.8593 52.9833 32.9941 52.817 32.9941 52.817C32.9941 52.817 33.0538 52.817 33.1433 52.8447C33.2626 52.8724 33.4118 52.8724 33.5908 52.9001C33.9786 52.9556 34.5753 53.011 35.2614 53.0942C35.9774 53.1496 36.8127 53.2051 37.7673 53.2328C38.7219 53.2605 39.7661 53.2328 40.84 53.1774C41.914 53.1219 42.9581 53.011 43.8829 52.8724C44.8077 52.7338 45.643 52.5952 46.359 52.4566C47.0452 52.318 47.612 52.1794 47.9998 52.0963C48.1788 52.0408 48.3279 52.0131 48.4473 51.9854C48.5964 51.9299 48.6561 51.9299 48.6561 51.9299Z" fill="#FAFAFA"/>
<path d="M49.2799 53.4546C49.2799 53.4546 49.2203 53.4823 49.1308 53.51C49.0114 53.5378 48.8623 53.5932 48.6833 53.6486C48.2955 53.7872 47.7286 53.9813 47.0723 54.2585C46.3862 54.5357 45.5807 54.8961 44.6857 55.2287C43.7908 55.5613 42.7466 55.894 41.6428 56.088C39.4054 56.4761 37.347 56.4207 35.8554 56.393C35.1096 56.3652 34.5129 56.3375 34.0953 56.3098C33.9163 56.3098 33.7373 56.2821 33.618 56.2821C33.4986 56.2821 33.439 56.2544 33.439 56.2544C33.439 56.2544 33.4986 56.2544 33.618 56.2544C33.7373 56.2544 33.9163 56.2544 34.0953 56.2821C34.5428 56.3098 35.1394 56.3098 35.8554 56.3652C37.347 56.393 39.4054 56.4484 41.613 56.0603C42.7168 55.8663 43.7609 55.5336 44.6559 55.201C45.5509 54.8683 46.3564 54.508 47.0425 54.2308C47.7286 53.9536 48.2955 53.7595 48.6833 53.6209C49.0711 53.51 49.2799 53.4546 49.2799 53.4546Z" fill="#FAFAFA"/>
<path d="M50.2353 58.0559C50.2353 58.0559 50.0265 58.1945 49.6387 58.3886C49.2508 58.5826 48.6542 58.8598 47.9084 59.1093C46.4168 59.636 44.2092 60.0241 41.7629 60.0795C39.3167 60.1072 37.1091 59.9409 35.528 59.8855C34.7225 59.8577 34.096 59.83 33.6485 59.83C33.4397 59.83 33.2607 59.83 33.1414 59.83C33.2906 59.83 33.4397 59.83 33.6485 59.83C34.096 59.83 34.7523 59.8577 35.528 59.8855C37.1389 59.9409 39.3465 60.1072 41.7629 60.0795C44.2092 60.0518 46.3869 59.6637 47.8786 59.137C48.6244 58.8875 49.221 58.6103 49.6088 58.4163C49.8177 58.3331 49.9668 58.2222 50.0563 58.1945C50.1756 58.0836 50.2353 58.0559 50.2353 58.0559Z" fill="#FAFAFA"/>
<path d="M53.0095 41.1191C53.0095 41.1191 53.0095 41.0913 53.0393 41.0359C53.0691 40.9805 53.0691 40.8973 53.099 40.8419C53.1586 40.6755 53.2183 40.426 53.278 40.1211C53.4271 39.5113 53.5464 38.6242 53.5166 37.6817C53.4868 36.7115 53.3376 35.8522 53.1885 35.2423C53.099 34.9374 53.0393 34.6879 52.9796 34.5216C52.9498 34.4384 52.9498 34.383 52.92 34.3275C52.92 34.2721 52.8901 34.2721 52.8901 34.2444C52.8901 34.2444 52.8901 34.2721 52.92 34.2998C52.9498 34.3553 52.9796 34.4107 52.9796 34.4939C53.0393 34.6602 53.1288 34.9097 53.2183 35.2146C53.3973 35.8245 53.5464 36.6838 53.5763 37.654C53.5763 38.6242 53.457 39.4835 53.3078 40.1211C53.2183 40.426 53.1586 40.6755 53.099 40.8419C53.0691 40.925 53.0393 40.9805 53.0393 41.0359C53.0095 41.1191 53.0095 41.1191 53.0095 41.1191Z" fill="#FAFAFA"/>
<path d="M57.4262 40.121C57.4262 40.121 57.4262 40.0933 57.4262 40.0656C57.4262 40.0101 57.4262 39.9547 57.4262 39.8715C57.4262 39.7052 57.456 39.4835 57.4262 39.2063C57.4262 38.6518 57.3665 37.8757 57.1577 37.0441C56.9489 36.2124 56.6505 35.4917 56.3821 34.965C56.2627 34.7155 56.1434 34.5215 56.0539 34.3829C56.0241 34.3275 55.9942 34.272 55.9644 34.2166C55.9346 34.1889 55.9346 34.1611 55.9346 34.1611C55.9346 34.1611 55.9644 34.1889 55.9644 34.2166C55.9942 34.272 56.0241 34.3275 56.0539 34.3829C56.1434 34.5215 56.2627 34.7155 56.3821 34.965C56.6505 35.464 56.9489 36.2124 57.1577 37.0441C57.3665 37.8757 57.4262 38.6796 57.4262 39.234C57.4262 39.5112 57.4262 39.7329 57.3964 39.8993C57.3964 39.9547 57.3964 40.0101 57.3665 40.0933C57.4262 40.0933 57.4262 40.121 57.4262 40.121Z" fill="#FAFAFA"/>
<path d="M63.392 38.2084C63.392 38.2084 63.3621 38.1807 63.3323 38.153C63.2726 38.0975 63.2428 38.0421 63.1831 37.9866C63.0638 37.848 62.855 37.6263 62.6163 37.3768C62.1092 36.8778 61.3932 36.2403 60.4982 35.6581C59.6033 35.0483 58.7083 34.6325 58.052 34.3553C57.7238 34.2167 57.4553 34.1058 57.2465 34.0503C57.157 34.0226 57.0973 33.9949 57.0377 33.9672C56.978 33.9395 56.9482 33.9395 56.978 33.9395C56.978 33.9395 57.0078 33.9395 57.0675 33.9672C57.1272 33.9949 57.2167 34.0226 57.2763 34.0503C57.4553 34.1058 57.7537 34.2167 58.0818 34.3553C58.7381 34.6325 59.6331 35.0483 60.5579 35.6581C61.4529 36.268 62.1987 36.9055 62.676 37.4045C62.9146 37.654 63.1235 37.8758 63.2428 38.0144C63.3025 38.0698 63.3323 38.1252 63.392 38.1807V38.2084Z" fill="#FAFAFA"/>
<path d="M62.0486 30.3356C62.0486 30.3356 61.9889 30.3356 61.8696 30.3356C61.7204 30.3356 61.5414 30.3356 61.3624 30.3356C60.9149 30.3356 60.3183 30.3356 59.662 30.3356C59.0057 30.3356 58.3792 30.3633 57.9615 30.391C57.7825 30.391 57.6035 30.4188 57.4544 30.4188C57.3351 30.4188 57.2754 30.4188 57.2754 30.4188C57.2754 30.4188 57.3351 30.4188 57.4544 30.391C57.5737 30.391 57.7527 30.3633 57.9615 30.3356C58.409 30.3079 59.0057 30.2802 59.662 30.2524C60.3183 30.2524 60.9448 30.2524 61.3624 30.2802C61.5712 30.2802 61.7502 30.3079 61.8696 30.3079C61.9889 30.3356 62.0486 30.3356 62.0486 30.3356Z" fill="#FAFAFA"/>
<path d="M28.2495 41.3406C28.2495 41.3406 28.2793 41.3683 28.3688 41.4515C28.4285 41.5346 28.5478 41.6178 28.6672 41.7564C28.9357 42.0059 29.3235 42.3108 29.771 42.6157C30.2483 42.9206 30.6958 43.1424 31.0239 43.3087C31.1731 43.3642 31.2924 43.4473 31.4117 43.5028C31.5012 43.5582 31.5609 43.5859 31.5609 43.5859C31.5609 43.5859 31.5012 43.5582 31.4117 43.5305C31.3222 43.5028 31.1731 43.4196 31.0239 43.3365C30.6958 43.1701 30.2483 42.9484 29.771 42.6434C29.2936 42.3385 28.9058 42.0059 28.6672 41.7564C28.5478 41.6178 28.4285 41.5069 28.3688 41.4515C28.2793 41.396 28.2495 41.3406 28.2495 41.3406Z" fill="#FAFAFA"/>
<path d="M29.5039 39.123C29.5039 39.123 29.5636 39.2062 29.7127 39.3448C29.8619 39.4834 30.0707 39.622 30.3094 39.7883C30.548 39.9547 30.7867 40.0655 30.9657 40.1487C31.1447 40.2319 31.264 40.2873 31.2342 40.2873C31.2342 40.315 30.7569 40.1487 30.2497 39.8161C30.0111 39.6497 29.7724 39.4834 29.6531 39.3448C29.5337 39.2339 29.5039 39.123 29.5039 39.123Z" fill="#FAFAFA"/>
<path d="M31.6221 48.5758C31.6221 48.5758 31.5923 48.5758 31.5624 48.5481C31.5028 48.5203 31.4431 48.4926 31.3834 48.4649C31.2343 48.3817 30.9956 48.2709 30.7271 48.1045C30.1901 47.7996 29.4742 47.3006 28.788 46.6631C28.072 46.0532 27.5351 45.4157 27.1771 44.9167C26.9981 44.6672 26.8489 44.4732 26.7893 44.3346C26.7594 44.2791 26.7296 44.2237 26.6998 44.1682C26.6699 44.1405 26.6699 44.1128 26.6699 44.1128C26.6699 44.1128 26.6998 44.1405 26.6998 44.1682C26.7296 44.2237 26.7594 44.2791 26.8191 44.3346C26.9086 44.4732 27.0577 44.6672 27.2367 44.9167C27.5947 45.3879 28.1615 46.0255 28.8775 46.6354C29.5637 47.2452 30.2796 47.7442 30.8166 48.0768C31.0851 48.2431 31.2939 48.354 31.4431 48.4372C31.5028 48.4649 31.5624 48.4926 31.6221 48.5481C31.5923 48.5758 31.6221 48.5758 31.6221 48.5758Z" fill="#FAFAFA"/>
<path d="M23.3268 51.4588C23.3268 51.4588 23.297 51.3479 23.2671 51.1539C23.2373 50.9599 23.2373 50.6549 23.2373 50.2668C23.2671 49.5184 23.5356 48.4927 24.2218 47.5502C24.8482 46.6077 25.4449 45.7484 25.8924 45.1108C26.1012 44.8336 26.2802 44.5842 26.3995 44.3901C26.5189 44.2238 26.6084 44.1406 26.6084 44.1406C26.6084 44.1406 26.5487 44.2515 26.4592 44.4178C26.3399 44.6119 26.1609 44.8614 25.9819 45.1663C25.5642 45.8039 24.9974 46.6632 24.3709 47.6057C23.7146 48.5482 23.4163 49.5461 23.3566 50.2668C23.297 50.9876 23.3566 51.4588 23.3268 51.4588Z" fill="#263238"/>
<path d="M28.5463 52.5674C28.5463 52.5674 28.1286 52.5674 27.5022 52.4288C26.8757 52.2902 26.0404 51.9299 25.3244 51.2646C24.6084 50.5993 24.2504 49.8231 24.0714 49.241C23.8924 48.6588 23.9223 48.2708 23.9223 48.2708C23.9223 48.2708 23.9223 48.2985 23.9223 48.3262C23.9223 48.3816 23.9223 48.4371 23.9521 48.5202C23.9819 48.6866 24.0118 48.936 24.1013 49.2132C24.2803 49.7954 24.6681 50.5438 25.3542 51.2091C26.0404 51.8467 26.8757 52.2071 27.5022 52.3734C27.8005 52.4565 28.069 52.512 28.248 52.512C28.3375 52.512 28.3971 52.5397 28.4568 52.5397C28.5463 52.5674 28.5463 52.5674 28.5463 52.5674Z" fill="#FAFAFA"/>
<path d="M25.5636 43.1147C25.5636 43.1147 25.5338 43.1147 25.5039 43.1425C25.4443 43.1702 25.4144 43.1979 25.3548 43.2256C25.2056 43.3088 25.0266 43.4197 24.788 43.5583C24.3405 43.8632 23.7438 44.3344 23.2069 44.9443C22.6699 45.5819 22.3119 46.2194 22.1031 46.6907C21.9837 46.9402 21.9241 47.1342 21.8644 47.2728C21.8346 47.3283 21.8346 47.3837 21.8047 47.4391C21.8047 47.4669 21.7749 47.4946 21.7749 47.4946C21.7749 47.4946 21.7749 47.4669 21.7749 47.4391C21.7749 47.3837 21.8047 47.3283 21.8346 47.2728C21.8644 47.1342 21.9539 46.9402 22.0434 46.6907C22.2522 46.1917 22.6102 45.5541 23.1472 44.9166C23.6842 44.279 24.2808 43.8078 24.7581 43.5306C24.9968 43.392 25.1758 43.2811 25.3249 43.1979C25.3846 43.1702 25.4443 43.1425 25.4741 43.1147C25.5338 43.1147 25.5636 43.1147 25.5636 43.1147Z" fill="#FAFAFA"/>
<path d="M23.8928 41.0635C23.8928 41.0635 23.8331 41.0912 23.7138 41.1189C23.5944 41.1466 23.4453 41.2021 23.2663 41.2852C22.8785 41.4238 22.3713 41.6733 21.894 42.0614C21.4167 42.4218 21.0289 42.8376 20.7902 43.1425C20.6709 43.2811 20.5516 43.4197 20.4919 43.5029C20.4322 43.586 20.3726 43.6415 20.3726 43.6415C20.3726 43.6415 20.4024 43.586 20.4621 43.5029C20.5217 43.4197 20.6112 43.2811 20.7305 43.1425C20.9692 42.8376 21.357 42.4218 21.8343 42.0337C22.3117 41.6456 22.8486 41.3961 23.2365 41.2575C23.4453 41.2021 23.5944 41.1466 23.7138 41.1189C23.8331 41.0635 23.8928 41.0635 23.8928 41.0635Z" fill="#FAFAFA"/>
<g clip-path="url(#clip0_3274_58589)">
<path d="M55.6124 56.9828C52.2127 56.0212 50.1901 52.5682 50.8787 49.1152C50.8141 49.2901 50.7496 49.443 50.7066 49.6179C49.6953 53.2238 51.7609 56.9828 55.3112 58.0099C58.8615 59.0371 62.5624 56.9391 63.5736 53.3331C63.6167 53.1583 63.6597 52.9834 63.7027 52.8086C62.4978 56.1086 58.9906 57.9662 55.6124 56.9828Z" fill="#263238"/>
<path d="M58.9043 44.9848C62.2825 45.9682 64.3051 49.4212 63.6381 52.8523C63.7026 52.6775 63.7672 52.5245 63.8102 52.3497C64.8215 48.7437 62.7559 44.9848 59.2056 43.9576C55.6338 42.9086 51.9329 45.0066 50.9216 48.6126C50.8785 48.7874 50.8355 48.9623 50.7925 49.1371C51.9974 45.859 55.5262 44.0013 58.9043 44.9848Z" fill="#455A64"/>
<path d="M63.8747 52.284C63.8747 52.284 63.8747 52.2402 63.8963 52.1747C63.9178 52.1091 63.9393 51.9999 63.9608 51.8687C63.9823 51.8032 63.9823 51.7157 64.0038 51.6283C64.0254 51.5409 64.0254 51.4535 64.0469 51.3442C64.0684 51.1475 64.1114 50.9071 64.0899 50.623C64.1114 50.0767 64.0469 49.421 63.8532 48.678C63.6596 47.935 63.3153 47.1263 62.7343 46.3614C62.1749 45.6184 61.4003 44.8972 60.4105 44.3946C60.1523 44.2853 59.9156 44.1542 59.6359 44.0667C59.4853 44.023 59.3562 43.9575 59.2056 43.9356C59.055 43.8919 58.9259 43.8701 58.7752 43.8263C58.7107 43.8045 58.6246 43.8045 58.5601 43.7826L58.3449 43.7608C58.1943 43.7389 58.0437 43.7171 57.893 43.7171C57.5918 43.7171 57.2906 43.6952 56.9678 43.7171C56.6451 43.7171 56.3438 43.8045 56.0211 43.8482C55.8705 43.8919 55.7198 43.9356 55.5477 43.9793C55.3971 44.023 55.2465 44.0667 55.0958 44.1323C54.7946 44.2416 54.4934 44.3946 54.1921 44.5475C53.9124 44.7224 53.6327 44.8972 53.3745 45.1158C52.8366 45.531 52.3417 46.0336 51.9544 46.6456C51.5671 47.2356 51.2658 47.8912 51.0507 48.5906C50.857 49.2899 50.771 50.0111 50.814 50.7323C50.8355 51.4535 50.9861 52.131 51.2228 52.7866C51.3304 53.1144 51.481 53.4204 51.6316 53.7263C51.8038 54.0104 51.9759 54.2946 52.1911 54.5568C52.2987 54.6879 52.3847 54.8191 52.4923 54.9283C52.5999 55.0376 52.7075 55.1687 52.8151 55.278C53.0517 55.4965 53.2884 55.7151 53.5466 55.8899C53.7833 56.0866 54.063 56.2396 54.3212 56.3926C54.4503 56.4581 54.601 56.5237 54.7301 56.5893L54.9237 56.6767C54.9883 56.6985 55.0743 56.7204 55.1389 56.7422C55.2895 56.7859 55.4186 56.8296 55.5477 56.8952C55.6768 56.9389 55.8274 56.9608 55.978 57.0045C56.2578 57.0919 56.5375 57.1138 56.8172 57.1356C57.9146 57.2449 58.9689 57.0482 59.8511 56.6985C60.7333 56.3489 61.4433 55.8462 62.0028 55.3217C62.5407 54.7972 62.9495 54.2727 63.2077 53.7919C63.3583 53.5734 63.4444 53.3548 63.5305 53.1581C63.5735 53.0707 63.6165 52.9833 63.6381 52.8959C63.6596 52.8085 63.7026 52.7429 63.7241 52.6773C63.7672 52.5462 63.8102 52.4369 63.8317 52.3714C63.8532 52.3277 63.8747 52.284 63.8747 52.284C63.8747 52.284 63.8747 52.3277 63.8532 52.3932C63.8317 52.4588 63.7887 52.5681 63.7456 52.6992C63.7241 52.7648 63.7026 52.8522 63.6811 52.9177C63.6596 53.0051 63.6165 53.0926 63.5735 53.18C63.4874 53.3767 63.4014 53.5952 63.2507 53.8138C62.9925 54.2946 62.6052 54.8191 62.0673 55.3654C61.5294 55.8899 60.7978 56.4144 59.9156 56.7641C59.0334 57.1138 57.9791 57.3323 56.8387 57.223C56.559 57.1793 56.2793 57.1575 55.9996 57.0919C55.8489 57.0482 55.7198 57.0263 55.5692 56.9826C55.4186 56.9389 55.2895 56.8952 55.1389 56.8296C55.0743 56.8078 54.9883 56.7859 54.9237 56.7641L54.7085 56.6767C54.5794 56.6111 54.4288 56.5455 54.2997 56.48C54.0415 56.327 53.7618 56.174 53.5036 55.9773C53.2454 55.8025 53.0087 55.584 52.772 55.3654C52.6644 55.2561 52.5569 55.125 52.4278 54.9939C52.3202 54.8846 52.2126 54.7316 52.105 54.6005C51.8898 54.3383 51.7177 54.0542 51.5456 53.7482C51.3949 53.4422 51.2228 53.1363 51.1152 52.8085C50.8785 52.1528 50.7064 51.4535 50.6849 50.7323C50.6634 50.0111 50.7494 49.2681 50.9216 48.5469C51.1367 47.8257 51.438 47.1701 51.8468 46.5581C52.2341 45.9462 52.7505 45.4436 53.2884 45.0065C53.5466 44.7879 53.8479 44.6131 54.1491 44.4164C54.4503 44.2853 54.7516 44.1323 55.0743 44.023C55.225 43.9575 55.3756 43.8919 55.5477 43.8701C55.6983 43.8263 55.8705 43.7826 56.0211 43.7389C56.3438 43.6734 56.6451 43.6078 56.9678 43.6078C57.2906 43.5641 57.5918 43.6078 57.9146 43.6078C58.0652 43.6297 58.2158 43.6515 58.3664 43.6734L58.5816 43.6952C58.6461 43.7171 58.7322 43.7389 58.7968 43.7389C58.9474 43.7826 59.098 43.8045 59.2271 43.8482C59.3777 43.8919 59.5068 43.9356 59.6359 43.9793C59.9156 44.0667 60.1738 44.1979 60.432 44.3071C61.4433 44.8098 62.2395 45.5528 62.7989 46.3396C63.3798 47.1263 63.7241 47.935 63.9178 48.678C64.1114 49.421 64.1545 50.0985 64.1329 50.623C64.1329 50.8853 64.0899 51.1257 64.0684 51.3442C64.0469 51.4535 64.0469 51.5409 64.0254 51.6283C64.0038 51.7157 63.9823 51.7813 63.9608 51.8687C63.9178 51.9999 63.8963 52.1091 63.8747 52.1747C63.8747 52.2621 63.8747 52.284 63.8747 52.284Z" fill="#263238"/>
<path d="M61.3359 56.1523C61.422 56.2179 67.748 62.1623 70.0718 64.3696C70.4591 64.7411 71.0831 64.7411 71.4704 64.3477C71.8792 63.9325 71.8792 63.255 71.4489 62.8616L62.7776 54.71L61.3359 56.1523Z" fill="#263238"/>
</g>
<defs>
<clipPath id="clip0_3274_58589">
<rect width="21.3447" height="21.0675" fill="white" transform="translate(50.4482 43.5859)"/>
</clipPath>
</defs>
</svg>
