<svg width="20" height="20" viewBox="0 0 20 20" fill="none" xmlns="http://www.w3.org/2000/svg">
<path d="M10.0001 9.23257C11.2746 9.23257 12.3078 8.19938 12.3078 6.92488C12.3078 5.65038 11.2746 4.61719 10.0001 4.61719C8.72557 4.61719 7.69238 5.65038 7.69238 6.92488C7.69238 8.19938 8.72557 9.23257 10.0001 9.23257Z" fill="white"/>
<path d="M10.0001 10.7715C7.88026 10.7715 6.15393 12.3869 6.15393 14.3773C6.15393 14.5119 6.24702 14.6176 6.36549 14.6176H13.6347C13.7532 14.6176 13.8462 14.5119 13.8462 14.3773C13.8462 12.3869 12.1199 10.7715 10.0001 10.7715Z" fill="white"/>
<path d="M2.30786 7.69126V5.76818C2.30786 3.85279 3.85402 2.30664 5.7694 2.30664H7.69248" stroke="white" stroke-width="1.5" stroke-linecap="round" stroke-linejoin="round"/>
<path d="M12.3079 2.30664H14.2309C16.1463 2.30664 17.6925 3.85279 17.6925 5.76818V7.69126" stroke="white" stroke-width="1.5" stroke-linecap="round" stroke-linejoin="round"/>
<path d="M17.6925 13.0762V14.23C17.6925 16.1454 16.1464 17.6916 14.231 17.6916H13.0771" stroke="white" stroke-width="1.5" stroke-linecap="round" stroke-linejoin="round"/>
<path d="M7.69248 17.6913H5.7694C3.85402 17.6913 2.30786 16.1451 2.30786 14.2297V12.3066" stroke="white" stroke-width="1.5" stroke-linecap="round" stroke-linejoin="round"/>
</svg>
