<svg width="28" height="28" viewBox="0 0 28 28" fill="none" xmlns="http://www.w3.org/2000/svg">
<path d="M2.33398 11.3737C1.85565 11.3737 1.45898 10.977 1.45898 10.4987V7.58203C1.45898 4.1987 4.21232 1.45703 7.58398 1.45703H10.5007C10.979 1.45703 11.3757 1.8537 11.3757 2.33203C11.3757 2.81036 10.979 3.20703 10.5007 3.20703H7.58398C5.16898 3.20703 3.20898 5.16703 3.20898 7.58203V10.4987C3.20898 10.977 2.81232 11.3737 2.33398 11.3737Z" fill="#797979"/>
<path d="M25.6667 11.3737C25.1883 11.3737 24.7917 10.977 24.7917 10.4987V7.58203C24.7917 5.16703 22.8317 3.20703 20.4167 3.20703H17.5C17.0217 3.20703 16.625 2.81036 16.625 2.33203C16.625 1.8537 17.0217 1.45703 17.5 1.45703H20.4167C23.7883 1.45703 26.5417 4.1987 26.5417 7.58203V10.4987C26.5417 10.977 26.145 11.3737 25.6667 11.3737Z" fill="#797979"/>
<path d="M20.418 26.543H18.668C18.1896 26.543 17.793 26.1463 17.793 25.668C17.793 25.1896 18.1896 24.793 18.668 24.793H20.418C22.833 24.793 24.793 22.833 24.793 20.418V18.668C24.793 18.1896 25.1896 17.793 25.668 17.793C26.1463 17.793 26.543 18.1896 26.543 18.668V20.418C26.543 23.8013 23.7896 26.543 20.418 26.543Z" fill="#797979"/>
<path d="M10.5007 26.5417H7.58398C4.21232 26.5417 1.45898 23.8 1.45898 20.4167V17.5C1.45898 17.0217 1.85565 16.625 2.33398 16.625C2.81232 16.625 3.20898 17.0217 3.20898 17.5V20.4167C3.20898 22.8317 5.16898 24.7917 7.58398 24.7917H10.5007C10.979 24.7917 11.3757 25.1883 11.3757 25.6667C11.3757 26.145 10.979 26.5417 10.5007 26.5417Z" fill="#797979"/>
<path d="M14 6.5C12.035 6.5 10.4375 8.0975 10.4375 10.0625C10.4375 11.99 11.945 13.55 13.91 13.6175C13.97 13.61 14.03 13.61 14.075 13.6175C14.09 13.6175 14.0975 13.6175 14.1125 13.6175C14.12 13.6175 14.12 13.6175 14.1275 13.6175C16.0475 13.55 17.555 11.99 17.5625 10.0625C17.5625 8.0975 15.965 6.5 14 6.5Z" fill="#797979"/>
<path d="M17.8107 15.6127C15.7182 14.2177 12.3057 14.2177 10.1982 15.6127C9.2457 16.2502 8.7207 17.1127 8.7207 18.0352C8.7207 18.9577 9.2457 19.8127 10.1907 20.4427C11.2407 21.1477 12.6207 21.5002 14.0007 21.5002C15.3807 21.5002 16.7607 21.1477 17.8107 20.4427C18.7557 19.8052 19.2807 18.9502 19.2807 18.0202C19.2732 17.0977 18.7557 16.2427 17.8107 15.6127Z" fill="#797979"/>
</svg>
