<svg width="26" height="26" viewBox="0 0 26 26" fill="none" xmlns="http://www.w3.org/2000/svg">
<path d="M13 12C14.6569 12 16 10.6569 16 9C16 7.34315 14.6569 6 13 6C11.3431 6 10 7.34315 10 9C10 10.6569 11.3431 12 13 12Z" fill="white"/>
<path d="M13 14C10.2442 14 8 16.1 8 18.6875C8 18.8625 8.12101 19 8.27503 19H17.725C17.879 19 18 18.8625 18 18.6875C18 16.1 15.7558 14 13 14Z" fill="white"/>
<path d="M3 10V7.5C3 5.01 5.01 3 7.5 3H10" stroke="white" stroke-width="1.5" stroke-linecap="round" stroke-linejoin="round"/>
<path d="M16 3H18.5C20.99 3 23 5.01 23 7.5V10" stroke="white" stroke-width="1.5" stroke-linecap="round" stroke-linejoin="round"/>
<path d="M23 17V18.5C23 20.99 20.99 23 18.5 23H17" stroke="white" stroke-width="1.5" stroke-linecap="round" stroke-linejoin="round"/>
<path d="M10 23H7.5C5.01 23 3 20.99 3 18.5V16" stroke="white" stroke-width="1.5" stroke-linecap="round" stroke-linejoin="round"/>
</svg>
