<svg width="22" height="22" viewBox="0 0 22 22" fill="none" xmlns="http://www.w3.org/2000/svg">
<path d="M18.8833 3.75911V5.77578C18.8833 6.50911 18.425 7.42578 17.9666 7.88412L14.025 11.3674C13.475 11.8258 13.1083 12.7424 13.1083 13.4758V17.4174C13.1083 17.9674 12.7416 18.7008 12.2833 18.9758L11 19.8008C9.80831 20.5341 8.15831 19.7091 8.15831 18.2424V13.3841C8.15831 12.7424 7.79164 11.9174 7.42498 11.4591L6.99414 11.0099C6.70998 10.7074 6.65498 10.2491 6.88414 9.89162L11.5775 2.35661C11.7425 2.09078 12.0358 1.92578 12.3566 1.92578H17.05C18.0583 1.92578 18.8833 2.75078 18.8833 3.75911Z" fill="white"/>
<path d="M9.48753 3.32828L6.23337 8.54411C5.9217 9.04828 5.2067 9.12161 4.7942 8.69078L3.9417 7.79245C3.48337 7.33411 3.1167 6.50911 3.1167 5.95911V3.85078C3.1167 2.75078 3.9417 1.92578 4.95003 1.92578H8.70837C9.42337 1.92578 9.86337 2.71411 9.48753 3.32828Z" fill="white"/>
</svg>
