<svg width="191" height="175" viewBox="0 0 191 175" fill="none" xmlns="http://www.w3.org/2000/svg">
<path d="M180.782 82.3869C180.782 83.1135 180.566 83.8238 180.161 84.4279C179.756 85.0321 179.18 85.5029 178.507 85.781C177.834 86.059 177.093 86.1318 176.379 85.99C175.664 85.8483 175.007 85.4984 174.492 84.9846C173.977 84.4708 173.626 83.8162 173.484 83.1036C173.342 82.391 173.415 81.6523 173.694 80.981C173.972 80.3097 174.445 79.736 175.05 79.3323C175.656 78.9286 176.369 78.7132 177.097 78.7132C178.074 78.7132 179.012 79.1002 179.703 79.7892C180.393 80.4781 180.782 81.4126 180.782 82.3869Z" fill="#E0E0E0"/>
<path d="M168.933 85.1534C170.467 83.6245 170.467 81.1456 168.933 79.6167C167.4 78.0878 164.914 78.0878 163.381 79.6167C161.847 81.1456 161.847 83.6245 163.381 85.1534C164.914 86.6823 167.4 86.6823 168.933 85.1534Z" fill="#E0E0E0"/>
<path d="M157.751 79.6156C160.051 79.6156 161.916 77.7565 161.916 75.4632C161.916 73.1699 160.051 71.3108 157.751 71.3108C155.451 71.3108 153.587 73.1699 153.587 75.4632C153.587 77.7565 155.451 79.6156 157.751 79.6156Z" fill="#E0E0E0"/>
<path d="M160.335 65.5933C160.76 63.2345 159.187 60.979 156.821 60.5555C154.456 60.1319 152.194 61.7007 151.769 64.0595C151.344 66.4182 152.918 68.6737 155.283 69.0973C157.649 69.5208 159.911 67.952 160.335 65.5933Z" fill="#E0E0E0"/>
<path d="M161.373 59.9804C163.856 59.9804 165.869 57.9732 165.869 55.4971C165.869 53.0211 163.856 51.0139 161.373 51.0139C158.89 51.0139 156.877 53.0211 156.877 55.4971C156.877 57.9732 158.89 59.9804 161.373 59.9804Z" fill="#E0E0E0"/>
<path d="M173.502 56.3367C176 55.2958 177.179 52.4328 176.135 49.942C175.091 47.4512 172.22 46.2758 169.722 47.3167C167.224 48.3576 166.045 51.2206 167.089 53.7114C168.133 56.2022 171.004 57.3776 173.502 56.3367Z" fill="#E0E0E0"/>
<path d="M188.692 76.1874C189.142 74.2793 187.955 72.3687 186.041 71.9201C184.128 71.4715 182.212 72.6547 181.762 74.5629C181.312 76.471 182.499 78.3815 184.412 78.8301C186.326 79.2787 188.242 78.0955 188.692 76.1874Z" fill="#E0E0E0"/>
<path d="M188.312 67.7586C190.015 67.1082 190.866 65.2044 190.214 63.5064C189.562 61.8084 187.652 60.9592 185.95 61.6097C184.247 62.2601 183.395 64.1639 184.047 65.8619C184.7 67.5599 186.609 68.4091 188.312 67.7586Z" fill="#E0E0E0"/>
<path d="M184.629 55.8696C184.895 54.2295 183.778 52.6847 182.133 52.4191C180.488 52.1534 178.939 53.2676 178.673 54.9077C178.406 56.5477 179.524 58.0926 181.169 58.3582C182.813 58.6238 184.363 57.5096 184.629 55.8696Z" fill="#E0E0E0"/>
<path fill-rule="evenodd" clip-rule="evenodd" d="M32.9082 36.0563C33.234 37.3275 33.3898 38.6359 33.3716 39.9471L36.5599 41.6982L34.9368 47.4667L31.3045 47.27C30.6359 48.3971 29.82 49.4301 28.8782 50.3419L29.912 53.8267L24.6599 56.7497L22.2247 54.0492C20.9535 54.3741 19.6436 54.5254 18.3308 54.4991L16.5829 57.6816L10.8035 56.0437L11.0088 52.4268C9.87654 51.7591 8.83963 50.9417 7.92629 49.9969L4.44202 51.0225L1.50001 45.7748L4.19882 43.3498C3.87302 42.0786 3.71718 40.7702 3.73537 39.459L0.547146 37.7079L2.17024 31.9394L5.80249 32.1361C6.4714 31.0092 7.28728 29.9762 8.22877 29.0642L7.19843 25.5812L12.4471 22.6564L14.8823 25.3569C16.154 25.0347 17.4636 24.8834 18.7762 24.907L20.5241 21.7245L26.3036 23.3624L26.0982 26.9793C27.2296 27.6483 28.2663 28.4656 29.1807 29.4093L32.665 28.3836L35.6104 33.6332L32.9082 36.0563ZM24.3077 36.7983C23.6832 35.6851 22.7426 34.781 21.6048 34.2003C20.467 33.6195 19.1831 33.3883 17.9155 33.5358C16.6478 33.6832 15.4534 34.2028 14.4831 35.0288C13.5128 35.8548 12.8103 36.95 12.4644 38.1761C12.1185 39.4022 12.1447 40.7041 12.5397 41.9171C12.9348 43.1301 13.6809 44.1998 14.6837 44.9909C15.6866 45.782 16.9011 46.259 18.1738 46.3616C19.4465 46.4642 20.7202 46.1877 21.8338 45.5672C22.5737 45.1555 23.2248 44.6019 23.7497 43.9382C24.2746 43.2745 24.663 42.5137 24.8928 41.6993C25.1225 40.8848 25.1891 40.0328 25.0887 39.1918C24.9883 38.3509 24.7229 37.5375 24.3077 36.7983Z" fill="#E0E0E0"/>
<path fill-rule="evenodd" clip-rule="evenodd" d="M47.8631 16.1947C48.0419 16.8993 48.1274 17.6239 48.1175 18.3502L49.8827 19.3197L48.9808 22.5184L46.9708 22.4001C46.601 23.0257 46.1486 23.5986 45.6257 24.1034L46.1977 26.0292L43.2917 27.6478L41.9442 26.1529C41.2393 26.3312 40.5135 26.4149 39.786 26.4017L38.8175 28.1652L35.6135 27.2536L35.7184 25.2466C35.0921 24.8765 34.5184 24.424 34.0127 23.9013L32.0799 24.4693L30.4519 21.5639L31.9458 20.2221C31.7655 19.5178 31.68 18.7929 31.6914 18.0666L29.9262 17.0971L30.8281 13.8984L32.8412 14.0272C33.2107 13.403 33.6624 12.8313 34.1845 12.3274L33.6125 10.4016L36.5169 8.77775L37.866 10.2779C38.5694 10.0978 39.2942 10.0135 40.0207 10.0272L40.9893 8.26368L44.192 9.16133L44.0887 11.1736C44.7144 11.544 45.2885 11.9952 45.7962 12.5155L47.7271 11.9509L49.3551 14.8564L47.8612 16.1982L47.8631 16.1947ZM43.0996 16.6066C42.7542 15.9902 42.2336 15.4896 41.6039 15.1679C40.9742 14.8463 40.2635 14.7181 39.5617 14.7996C38.86 14.8811 38.1987 15.1686 37.6616 15.6257C37.1244 16.0829 36.7355 16.6892 36.544 17.3679C36.3525 18.0466 36.367 18.7673 36.5858 19.4388C36.8045 20.1102 37.2176 20.7023 37.7728 21.1401C38.328 21.578 39.0004 21.8419 39.705 21.8985C40.4095 21.9551 41.1145 21.8018 41.7308 21.4581C42.5569 20.9974 43.1652 20.2275 43.4219 19.3177C43.6786 18.408 43.5626 17.4328 43.0996 16.6066Z" fill="#E0E0E0"/>
<path d="M20.2065 7.83912C20.2065 7.83912 20.2466 7.88777 20.3071 7.99648C20.3928 8.15251 20.4604 8.31775 20.5086 8.48899C20.6644 9.03214 20.6598 9.60833 20.4953 10.1481C20.3307 10.688 20.0133 11.1684 19.5811 11.5316C19.1757 11.8712 18.6863 12.0961 18.1637 12.1828C17.5812 12.2784 16.9829 12.2 16.444 11.9576C15.8637 11.697 15.3826 11.2568 15.072 10.7023C14.7613 10.1478 14.6377 9.50848 14.7195 8.87924C14.7517 8.5818 14.8327 8.2918 14.9594 8.02088C15.0775 7.75847 15.235 7.51558 15.4262 7.3005C15.7756 6.90141 16.2254 6.60285 16.7295 6.43562C17.1678 6.29312 17.6338 6.25553 18.0899 6.32589C18.7514 6.43196 19.3559 6.76401 19.8003 7.26528C19.9229 7.39453 20.0295 7.53804 20.1177 7.69268C20.1748 7.79952 20.2059 7.85652 20.1987 7.86146C20.1915 7.86641 20.0655 7.64181 19.748 7.312C19.2968 6.85286 18.705 6.55751 18.0669 6.47311C17.605 6.41348 17.1357 6.46832 16.7006 6.63278C16.2655 6.79724 15.8779 7.06627 15.572 7.41609C15.2099 7.83695 14.9819 8.3564 14.9174 8.90802C14.8451 9.49873 14.962 10.0976 15.2513 10.6188C15.5465 11.1372 15.9968 11.5507 16.5389 11.801C16.7944 11.9205 17.0673 11.9984 17.3472 12.0318C17.6135 12.0734 17.8846 12.0724 18.1503 12.0289C18.6157 11.957 19.0553 11.7694 19.4287 11.4834C19.8021 11.1974 20.0973 10.8221 20.2872 10.392C20.55 9.80623 20.6084 9.14895 20.4531 8.52512C20.3253 8.06866 20.1887 7.84713 20.2065 7.83912Z" fill="#E0E0E0"/>
<path d="M24.062 7.50741C24.062 7.50741 24.0789 7.47671 24.1328 7.43529C24.1867 7.39386 24.2631 7.3115 24.3607 7.22302L25.2648 6.38757L25.248 6.41827L23.9131 4.07345L23.9645 4.10163L22.4001 4.57447L22.3684 4.58366L22.341 4.56863C21.9323 4.1499 21.4691 3.78796 20.9639 3.49261L20.9399 3.47946L20.9549 3.45217L21.0333 1.82579L21.0814 1.89219L18.4817 1.16142L18.5633 1.12632C18.3216 1.56635 18.0537 2.05413 17.7802 2.55215L17.7577 2.59308L17.7201 2.57242C17.1381 2.56486 16.5579 2.63439 15.9946 2.77917L15.9489 2.78955L15.9078 2.76701L14.8132 1.55757L14.9156 1.57384L12.5586 2.89003L12.6092 2.79793L13.0734 4.38489L13.0908 4.43438L13.0664 4.47872C12.6507 4.88314 12.2903 5.3405 11.9942 5.83903L11.968 5.88678L11.9123 5.88282L10.2575 5.74209L10.3507 5.67783C10.1193 6.49644 9.86471 7.3734 9.62164 8.26998L9.57669 8.16536L11.0066 8.9507L11.0545 8.977L11.0541 9.03449C11.0446 9.61405 11.1134 10.1924 11.2585 10.754C11.2379 10.7916 11.3016 10.6756 11.2306 10.8453L11.2194 10.8658L11.195 10.9101L11.1174 10.9785L10.9675 11.1137L10.6604 11.389L10.0497 11.9416L10.0713 11.8292L11.3884 14.182L11.2892 14.1275L12.8775 13.6678L12.9304 13.6525L12.9749 13.6769C13.3789 14.0953 13.8374 14.4577 14.338 14.7541L14.3859 14.7804L14.3839 14.8327C14.3547 15.3805 14.3273 15.9249 14.2968 16.4587L14.2338 16.3708L16.8332 17.1103L16.7358 17.1499C17.0018 16.6656 17.2622 16.1914 17.5188 15.7241L17.5432 15.6798L17.5921 15.68C18.1746 15.692 18.756 15.626 19.3206 15.4838L19.3664 15.4734L19.404 15.4941L20.5138 16.7163L20.4183 16.7038C21.2473 16.2401 22.0297 15.8128 22.775 15.3963L22.7337 15.4714L22.2695 13.8844L22.2571 13.8421L22.274 13.8114C22.6951 13.408 23.0593 12.9494 23.3567 12.448L23.3736 12.4173L23.401 12.4324L25.0331 12.5251L24.9758 12.5647C25.2629 11.5635 25.5096 10.7089 25.7204 9.97663L25.7396 10.0227L24.2686 9.21483C24.2695 8.78185 24.2296 8.34964 24.1494 7.92392C24.1213 7.78861 24.1044 7.68163 24.0899 7.60263C24.0805 7.56792 24.0731 7.53271 24.0677 7.49718C24.0677 7.49718 24.0838 7.53268 24.1039 7.60144C24.124 7.67021 24.1497 7.77754 24.1793 7.91814C24.2665 8.35483 24.3089 8.79914 24.3059 9.2442L24.282 9.23105L25.7119 10.0164L25.7427 10.0333L25.7277 10.0606C25.5204 10.7948 25.2961 11.6572 25.0055 12.6565L24.9849 12.694L24.9507 12.6752L23.3198 12.5964L23.3733 12.5637C23.0729 13.0761 22.7054 13.5462 22.2806 13.9615L22.3124 13.9035L22.7898 15.4666L22.8034 15.5229L22.757 15.5507L20.4052 16.8654L20.3516 16.8981L20.3116 16.8495L19.1999 15.6306L19.2683 15.6682C18.6919 15.816 18.0981 15.8856 17.5027 15.8751L17.5741 15.8344C17.3174 16.3017 17.057 16.7758 16.791 17.2602L16.7591 17.3182L16.701 17.2862L14.1171 16.5509L14.0589 16.5189L14.0634 16.4459C14.0886 15.9136 14.1194 15.3711 14.1452 14.8214L14.1893 14.9033C13.6751 14.5986 13.2041 14.2264 12.7889 13.7968L12.8675 13.84L11.2998 14.3109L11.2275 14.329L11.195 14.2667L9.87446 11.912L9.83846 11.8478L9.89271 11.7977L10.5034 11.2451L10.8071 10.9679L10.9623 10.8311L11.0365 10.7609L11.059 10.72L11.0703 10.6995C11.0164 10.8786 11.0459 10.7438 11.0443 10.7873C10.8932 10.2107 10.8226 9.61611 10.8347 9.02054L10.8806 9.09905L9.45068 8.31372L9.38568 8.27802L9.41941 8.21662C9.67273 7.32568 9.92044 6.44497 10.1537 5.62294L10.1875 5.56154L10.2572 5.56431L11.9074 5.64038L11.8289 5.68606C12.1329 5.17384 12.5033 4.70398 12.9304 4.28858L12.9097 4.37489L12.4455 2.78794L12.4235 2.72258L12.4824 2.68832L14.853 1.42844L14.91 1.3976L14.9647 1.42766L16.0521 2.64204L15.9837 2.60446C16.5611 2.45956 17.1553 2.39177 17.7509 2.40285L17.6848 2.44205C17.9583 1.94403 18.2262 1.45625 18.4679 1.01622L18.496 0.965057L18.5439 0.99136L21.1415 1.73424L21.1859 1.75866L21.184 1.81087C21.1503 2.3829 21.1211 2.93071 21.0969 3.4369L21.064 3.38331C21.575 3.68866 22.043 4.06069 22.4557 4.48954L22.4078 4.46323L23.9961 4.00355L24.0331 3.99282L24.0605 4.00785L25.3651 6.36716L25.3822 6.37655L24.4725 7.17344C24.3734 7.25663 24.2958 7.325 24.2363 7.37666C24.1767 7.42832 24.0673 7.50588 24.062 7.50741Z" fill="#E0E0E0"/>
<path d="M134.32 2.34635L122.845 2.29187C122.471 2.29946 122.101 2.38058 121.758 2.5306C121.415 2.68062 121.104 2.8966 120.845 3.1662C120.585 3.4358 120.382 3.75374 120.245 4.10186C120.109 4.44998 120.043 4.82145 120.051 5.19505V7.26931C120.058 7.6424 119.991 8.01316 119.854 8.3604C119.717 8.70765 119.512 9.02458 119.252 9.29309C118.993 9.5616 118.682 9.77644 118.339 9.92533C117.996 10.0742 117.627 10.1542 117.253 10.1608L94.8855 10.0596C94.1294 10.0393 93.4124 9.72037 92.8921 9.17306C92.3717 8.62574 92.0906 7.89479 92.1106 7.14089V5.06663C92.1305 4.31272 91.8494 3.58178 91.3291 3.03446C90.8087 2.48714 90.0917 2.16825 89.3357 2.14788H85.3002L75.2543 2.08172C72.8628 2.0724 70.5653 3.00971 68.8663 4.68788C67.1672 6.36605 66.2054 8.64792 66.1919 11.0326L65.5792 155.445C65.5688 157.83 66.5082 160.123 68.1912 161.818C69.8742 163.514 72.1632 164.474 74.5557 164.489L133.621 164.757C136.014 164.768 138.313 163.83 140.013 162.151C141.713 160.472 142.675 158.189 142.687 155.803L143.3 11.3906C143.306 10.2087 143.079 9.03715 142.631 7.94291C142.183 6.84867 141.523 5.85317 140.689 5.01329C139.855 4.1734 138.863 3.50558 137.77 3.04797C136.677 2.59037 135.505 2.35196 134.32 2.34635Z" fill="white"/>
<path d="M133.83 2.34635C133.83 2.34635 133.935 2.34635 134.138 2.34635C134.446 2.34921 134.752 2.37392 135.056 2.42029C136.253 2.56509 137.405 2.96313 138.435 3.58779C139.2 4.036 139.891 4.59913 140.484 5.25732C141.215 6.05563 141.795 6.97836 142.198 7.98149C142.66 9.14346 142.884 10.386 142.857 11.6358C142.857 12.9628 142.857 14.3599 142.857 15.8777C142.814 27.8757 142.752 45.2325 142.674 66.6756C142.596 88.1187 142.49 113.66 142.377 142.018C142.362 145.565 142.347 149.152 142.334 152.779C142.334 153.689 142.334 154.596 142.334 155.503C142.345 156.423 142.226 157.34 141.979 158.227C141.721 159.124 141.326 159.976 140.808 160.753C140.284 161.528 139.65 162.224 138.927 162.819C137.442 164.01 135.62 164.707 133.717 164.812C133.241 164.843 132.772 164.835 132.3 164.831H130.88H128.038L116.541 164.777L92.9402 164.672L80.8688 164.617L74.7726 164.586C72.6938 164.695 70.6367 164.119 68.9184 162.948C67.2102 161.754 65.9593 160.016 65.3707 158.021C65.0892 157.032 64.9667 156.005 65.0077 154.978V151.942C65.0233 147.902 65.0402 143.89 65.0585 139.905C65.0923 131.935 65.1261 124.088 65.1599 116.364C65.2263 100.934 65.2926 86.0483 65.3551 71.8671C65.4175 57.6859 65.48 44.2129 65.5346 31.6039C65.5632 25.2994 65.5905 19.2167 65.6166 13.3559C65.6166 12.6242 65.6166 11.8965 65.6166 11.1727C65.6166 10.8107 65.6517 10.4449 65.6712 10.083C65.6907 9.72106 65.7649 9.35914 65.8585 9.01278C66.1818 7.62936 66.8267 6.34112 67.7413 5.25205C68.6558 4.16298 69.8144 3.3036 71.1234 2.7433C72.3889 2.20642 73.7573 1.95397 75.1316 2.00389L83.0036 2.0428L86.7777 2.08172H88.6315C89.2601 2.05143 89.8812 2.22781 90.3995 2.58374C90.9052 2.93858 91.2872 3.44196 91.4923 4.02366C91.6592 4.59949 91.7174 5.20123 91.664 5.79826C91.664 6.09014 91.664 6.38201 91.664 6.67389C91.6534 6.96086 91.6625 7.24822 91.6913 7.53394C91.76 8.09481 91.9936 8.62288 92.3626 9.05169C92.7215 9.47822 93.2064 9.78063 93.7481 9.91564C94.0148 9.98142 94.2892 10.0102 94.5638 10.0013H95.3951H98.6539L110.561 10.0674L115.811 10.0947C116.224 10.0947 116.646 10.118 117.04 10.0947C117.436 10.0499 117.816 9.91684 118.152 9.70549C118.476 9.50319 118.755 9.23856 118.974 8.92713C119.193 8.61571 119.348 8.26377 119.429 7.89198C119.494 7.53005 119.519 7.16196 119.503 6.79453C119.503 6.4326 119.503 6.07068 119.503 5.72043C119.488 5.36937 119.505 5.01773 119.554 4.66968C119.613 4.33229 119.729 4.00732 119.897 3.70844C120.218 3.13573 120.726 2.6905 121.337 2.44754C121.93 2.19458 122.559 2.2763 123.129 2.26463L128.983 2.30354L132.585 2.32689C133.397 2.32689 133.811 2.32689 133.811 2.32689H132.585H128.983H123.129C122.534 2.2679 121.934 2.33013 121.364 2.5098C120.766 2.74491 120.269 3.18134 119.959 3.74346C119.795 4.03477 119.681 4.35196 119.624 4.68135C119.579 5.02575 119.563 5.37337 119.577 5.72043C119.577 6.07457 119.577 6.4326 119.577 6.79453C119.593 7.16712 119.568 7.54031 119.503 7.90754C119.42 8.29033 119.261 8.65277 119.036 8.97356C118.811 9.29435 118.524 9.56702 118.191 9.77554C117.844 9.98875 117.453 10.1217 117.048 10.1647C116.63 10.1997 116.224 10.1647 115.807 10.1647L110.585 10.1686L98.6774 10.1219H95.4185H94.5833C94.2984 10.1321 94.0135 10.1032 93.7364 10.0363C93.1714 9.89491 92.665 9.58052 92.2884 9.13731C91.9036 8.68942 91.6593 8.13863 91.5859 7.5534C91.5594 7.26233 91.5502 6.96993 91.5586 6.67778C91.5586 6.3859 91.5586 6.09403 91.5586 5.80215C91.6114 5.2195 91.5545 4.63215 91.3908 4.07036C91.1929 3.51461 90.8276 3.03343 90.3448 2.69271C89.8482 2.35253 89.2527 2.1856 88.651 2.21793H86.7972H83.0075L75.1394 2.1829C73.7688 2.12557 72.4032 2.38155 71.1471 2.93128C69.8909 3.48101 68.7775 4.30992 67.8919 5.35461C66.9825 6.43786 66.3408 7.71885 66.0186 9.0945C65.9249 9.43697 65.8976 9.795 65.8312 10.1453C65.7649 10.4955 65.7844 10.8574 65.7805 11.2194C65.7805 11.9432 65.7805 12.6709 65.7805 13.4026C65.7597 19.2556 65.7363 25.3383 65.7102 31.6506C65.6595 44.2596 65.6049 57.7248 65.5502 71.9177C65.4956 86.1106 65.4292 100.981 65.3668 116.415C65.3356 124.128 65.303 131.974 65.2692 139.952C65.2536 143.937 65.2367 147.95 65.2185 151.993C65.2185 152.999 65.2185 154.011 65.2185 155.028C65.1797 156.034 65.2995 157.04 65.5736 158.009C66.1471 159.948 67.3583 161.638 69.012 162.808C70.6993 163.954 72.7179 164.516 74.757 164.407L80.8532 164.438L92.9207 164.493L116.521 164.602L128.023 164.656H130.864H132.277C132.749 164.656 133.221 164.656 133.682 164.637C135.543 164.536 137.326 163.856 138.779 162.691C139.489 162.109 140.111 161.427 140.625 160.667C141.129 159.907 141.512 159.073 141.761 158.196C142.006 157.322 142.124 156.418 142.112 155.511V152.787C142.127 149.154 142.143 145.567 142.159 142.026C142.287 113.667 142.405 88.1304 142.498 66.6834C142.592 45.2364 142.689 27.8835 142.748 15.8855C142.748 14.3872 142.748 12.9706 142.771 11.6435C142.802 10.4009 142.582 9.16482 142.124 8.00873C141.724 7.02296 141.153 6.11525 140.438 5.32737C139.027 3.78293 137.124 2.77349 135.052 2.47089C134.749 2.42395 134.444 2.39536 134.138 2.38527L133.83 2.34635Z" fill="#263238"/>
<path d="M123.715 47.8127L122.829 46.7658L125.467 45.3532L113.209 41.2163L117.357 53.0625L118.868 51.0895C118.868 51.0895 126.798 65.0061 118.868 73.4666C110.992 81.8687 101.695 80.0474 101.695 80.0474L103.487 85.8849C103.487 85.8849 118.099 86.9201 125.94 73.7506C133.78 60.5812 123.715 47.8127 123.715 47.8127Z" fill="#81CEC3"/>
<path d="M86.9588 77.0158L87.8448 78.0626L85.2026 79.4753L97.4613 83.6121L93.3126 71.7659L91.8061 73.739C91.8061 73.739 83.8717 59.8224 91.8061 51.3619C99.682 42.9598 108.979 44.7811 108.979 44.7811L107.187 38.9436C107.187 38.9436 92.5711 37.9084 84.7459 51.07C76.9208 64.2316 86.9588 77.0158 86.9588 77.0158Z" fill="#81CEC3"/>
<path d="M123.715 47.8127L122.829 46.7658L125.467 45.3532L113.209 41.2163L117.357 53.0625L118.868 51.0895C118.868 51.0895 126.798 65.0061 118.868 73.4666C110.992 81.8687 101.695 80.0474 101.695 80.0474L103.487 85.8849C103.487 85.8849 118.099 86.9201 125.94 73.7506C133.78 60.5812 123.715 47.8127 123.715 47.8127Z" fill="#81CEC3"/>
<path d="M86.9588 77.0158L87.8448 78.0626L85.2026 79.4753L97.4613 83.6121L93.3126 71.7659L91.8061 73.739C91.8061 73.739 83.8717 59.8224 91.8061 51.3619C99.682 42.9598 108.979 44.7811 108.979 44.7811L107.187 38.9436C107.187 38.9436 92.5711 37.9084 84.7459 51.07C76.9208 64.2316 86.9588 77.0158 86.9588 77.0158Z" fill="#81CEC3"/>
<g opacity="0.8">
<path d="M123.715 47.8127L122.829 46.7658L125.467 45.3532L113.209 41.2163L117.357 53.0625L118.868 51.0895C118.868 51.0895 126.798 65.0061 118.868 73.4666C110.992 81.8687 101.695 80.0474 101.695 80.0474L103.487 85.8849C103.487 85.8849 118.099 86.9201 125.94 73.7506C133.78 60.5812 123.715 47.8127 123.715 47.8127Z" fill="white"/>
</g>
<g opacity="0.8">
<path d="M86.9588 77.0158L87.8448 78.0626L85.2026 79.4753L97.4613 83.6121L93.3126 71.7659L91.8061 73.739C91.8061 73.739 83.8717 59.8224 91.8061 51.3619C99.682 42.9598 108.979 44.7811 108.979 44.7811L107.187 38.9436C107.187 38.9436 92.5711 37.9084 84.7459 51.07C76.9208 64.2316 86.9588 77.0158 86.9588 77.0158Z" fill="white"/>
</g>
<path fill-rule="evenodd" clip-rule="evenodd" d="M112.327 55.5026C112.908 56.1229 113.403 56.8179 113.799 57.5691H116.14L117.015 61.3557L114.895 62.3792C114.867 63.227 114.725 64.0672 114.474 64.8777L116.148 66.5316L114.08 69.824L111.855 69.0456C111.236 69.6271 110.54 70.122 109.787 70.5167V72.8517L106.001 73.7312L104.978 71.6141C104.133 71.5856 103.296 71.4456 102.488 71.1977L100.83 72.8634L97.5239 70.8047L98.3045 68.5864C97.7234 67.9678 97.2285 67.2741 96.8331 66.5238H94.4914L93.6172 62.7372L95.7364 61.7176C95.7646 60.8698 95.9064 60.0295 96.1579 59.2192L94.4875 57.5652L96.5521 54.269L98.7767 55.0473C99.3973 54.4671 100.093 53.9723 100.845 53.5763V51.2413L104.643 50.3656L105.665 52.4827C106.516 52.5092 107.358 52.6506 108.171 52.903L109.83 51.2335L113.135 53.2961L112.355 55.5104L112.327 55.5026ZM107.679 58.616C106.978 58.1774 106.163 57.9561 105.336 57.9801C104.509 58.004 103.707 58.2722 103.033 58.7507C102.359 59.2291 101.843 59.8962 101.549 60.6676C101.256 61.4389 101.198 62.2798 101.384 63.0837C101.57 63.8876 101.992 64.6183 102.594 65.1834C103.197 65.7484 103.955 66.1223 104.771 66.2577C105.587 66.3932 106.425 66.284 107.179 65.9441C107.933 65.6042 108.569 65.0489 109.006 64.3484C109.297 63.8843 109.494 63.3677 109.585 62.8279C109.675 62.2881 109.659 61.7357 109.536 61.2023C109.412 60.6689 109.185 60.1649 108.866 59.7192C108.548 59.2734 108.144 58.8946 107.679 58.6043V58.616Z" fill="#81CEC3"/>
<g opacity="0.6">
<path fill-rule="evenodd" clip-rule="evenodd" d="M107.679 58.6043C106.978 58.1671 106.163 57.947 105.336 57.9718C104.51 57.9966 103.71 58.2651 103.036 58.7435C102.363 59.2219 101.847 59.8886 101.554 60.6593C101.261 61.43 101.203 62.2702 101.389 63.0735C101.574 63.8768 101.995 64.6072 102.597 65.1723C103.198 65.7374 103.955 66.1119 104.77 66.2484C105.586 66.3848 106.423 66.2771 107.177 65.939C107.931 65.6008 108.567 65.0472 109.006 64.3484C109.297 63.8843 109.494 63.3677 109.584 62.8279C109.675 62.288 109.659 61.7357 109.535 61.2023C109.412 60.6689 109.185 60.1649 108.866 59.7192C108.548 59.2734 108.144 58.8946 107.679 58.6043Z" fill="white"/>
</g>
<path d="M119.337 143.864H91.4514C89.741 143.864 88.1007 143.187 86.8909 141.982C85.6812 140.776 85.001 139.141 85 137.435C85 135.729 85.6797 134.093 86.8896 132.887C88.0994 131.68 89.7404 131.002 91.4514 131.002H119.337C121.048 131.002 122.689 131.68 123.899 132.887C125.109 134.093 125.788 135.729 125.788 137.435C125.787 139.141 125.107 140.776 123.897 141.982C122.688 143.187 121.047 143.864 119.337 143.864Z" fill="#81CEC3"/>
<path d="M98.6758 140.003V135.803H100.086C101.316 135.803 102.276 136.769 102.276 137.903C102.276 139.037 101.316 140.003 100.086 140.003H98.6758ZM99.3358 139.403H100.086C100.956 139.403 101.616 138.743 101.616 137.903C101.616 137.063 100.956 136.403 100.086 136.403H99.3358V139.403Z" fill="#00937D"/>
<path d="M102.845 138.563C102.845 137.723 103.505 137.063 104.345 137.063C105.185 137.063 105.845 137.723 105.845 138.563C105.845 139.403 105.185 140.063 104.345 140.063C103.505 140.063 102.845 139.403 102.845 138.563ZM104.345 139.493C104.855 139.493 105.245 139.109 105.245 138.563C105.245 138.017 104.855 137.633 104.345 137.633C103.835 137.633 103.445 138.017 103.445 138.563C103.445 139.109 103.835 139.493 104.345 139.493Z" fill="#00937D"/>
<path d="M106.506 140.003V137.123H107.106V137.543C107.166 137.453 107.238 137.375 107.328 137.303C107.478 137.183 107.7 137.063 108.006 137.063C108.666 137.063 109.146 137.537 109.146 138.323V140.003H108.546V138.323C108.546 137.897 108.276 137.633 107.886 137.633C107.436 137.633 107.106 137.963 107.106 138.443V140.003H106.506Z" fill="#00937D"/>
<path d="M112.176 139.103L112.536 139.523C112.458 139.625 112.356 139.715 112.236 139.793C112.026 139.931 111.732 140.063 111.306 140.063C110.466 140.063 109.806 139.403 109.806 138.563C109.806 137.723 110.466 137.063 111.276 137.063C112.092 137.063 112.686 137.657 112.686 138.473C112.686 138.563 112.674 138.635 112.668 138.689L112.656 138.773H110.436C110.502 139.163 110.85 139.493 111.336 139.493C111.594 139.493 111.804 139.397 111.948 139.301C112.032 139.247 112.11 139.181 112.176 139.103ZM110.436 138.263H112.056C111.966 137.873 111.702 137.603 111.276 137.603C110.82 137.603 110.556 137.873 110.436 138.263Z" fill="#00937D"/>
<path d="M132.114 112.967C132.114 113.021 120.125 113.068 105.337 113.068C90.549 113.068 78.5557 113.021 78.5557 112.967C78.5557 112.912 90.5451 112.866 105.337 112.866C120.129 112.866 132.114 112.909 132.114 112.967Z" fill="#263238"/>
<path d="M121.444 116.24C121.444 116.294 114.232 116.341 105.337 116.341C96.4429 116.341 89.2266 116.294 89.2266 116.24C89.2266 116.185 96.439 116.139 105.337 116.139C114.236 116.139 121.444 116.181 121.444 116.24Z" fill="#263238"/>
<path d="M38.412 164.459L36.0391 173.2L43.7471 173.904L45.3668 165.58L38.412 164.459Z" fill="#81CEC3"/>
<path d="M43.9699 173.192C43.5935 173.216 43.2157 173.203 42.8419 173.153C42.1472 173.099 41.191 172.994 40.1373 172.858L37.4443 172.496C37.0684 172.467 36.6959 172.403 36.332 172.305C36.7085 172.282 37.0864 172.296 37.4599 172.348C38.1546 172.402 39.1108 172.511 40.1646 172.644L42.8575 173.002C43.2332 173.033 43.6053 173.097 43.9699 173.192Z" fill="#263238"/>
<g opacity="0.6">
<path d="M36.0391 173.2L43.7471 173.904L43.872 173.262L36.2615 172.297L36.0469 173.114" fill="white"/>
</g>
<path d="M39.8682 172.815C40.0551 171.686 40.3 170.568 40.6019 169.464C40.8453 168.346 41.1488 167.242 41.5113 166.156C41.3243 167.285 41.0794 168.403 40.7775 169.507C40.532 170.624 40.2284 171.729 39.8682 172.815Z" fill="#263238"/>
<path d="M43.5442 173.134C43.6662 172.6 43.6662 172.045 43.5442 171.511C43.4095 170.936 43.1177 170.409 42.7012 169.989C42.1827 169.486 41.506 169.175 40.785 169.11C40.0639 169.033 39.3377 169.198 38.7204 169.577C38.2212 169.895 37.8094 170.333 37.5222 170.849C37.2657 171.334 37.1003 171.862 37.0343 172.406C37.0343 172.406 37.0343 172.363 37.0343 172.289C37.0263 172.178 37.0263 172.066 37.0343 171.955C37.086 171.547 37.2103 171.152 37.4012 170.787C37.6896 170.232 38.1189 169.763 38.6462 169.425C39.2919 169.018 40.0564 168.84 40.8162 168.919C41.5086 168.973 42.1642 169.252 42.6824 169.713C43.2006 170.174 43.5527 170.792 43.6848 171.472C43.7679 171.877 43.7679 172.294 43.6848 172.698C43.6614 172.807 43.6301 172.913 43.5911 173.017C43.5677 173.099 43.5482 173.138 43.5442 173.134Z" fill="#263238"/>
<path d="M70.2275 162.113L69.7123 169.896C69.7123 169.896 77.4633 172.461 77.5179 173.908L62.3711 174.017L62.6755 161.883L70.2275 162.113Z" fill="#81CEC3"/>
<g opacity="0.6">
<path d="M65.0685 169.087C64.9217 169.126 64.7947 169.218 64.7119 169.345C64.629 169.472 64.5962 169.626 64.6197 169.775C64.6535 169.924 64.7433 170.054 64.8705 170.138C64.9977 170.222 65.1525 170.254 65.3027 170.227C65.4587 170.185 65.5933 170.086 65.6799 169.95C65.7666 169.814 65.7991 169.65 65.7711 169.491C65.7193 169.341 65.6111 169.216 65.4692 169.144C65.3273 169.071 65.1627 169.056 65.01 169.102" fill="white"/>
</g>
<g opacity="0.6">
<path d="M62.3633 174.002L62.3945 172.776L77.0223 173.165C77.1776 173.244 77.3107 173.361 77.4095 173.504C77.5083 173.648 77.5697 173.813 77.5882 173.986L62.3633 174.002Z" fill="white"/>
</g>
<path d="M69.9619 169.814C69.9619 169.888 69.5717 169.912 69.2126 170.137C68.8535 170.363 68.6389 170.667 68.5725 170.635C68.5062 170.604 68.6272 170.184 69.0838 169.916C69.5404 169.647 69.9776 169.744 69.9619 169.814Z" fill="#263238"/>
<path d="M71.5276 170.515C71.5276 170.585 71.2192 170.702 70.9577 171.005C70.6963 171.309 70.6143 171.64 70.5441 171.632C70.4738 171.624 70.4348 171.208 70.7665 170.853C71.0983 170.499 71.5276 170.445 71.5276 170.515Z" fill="#263238"/>
<path d="M72.3747 172.437C72.3044 172.437 72.2147 172.079 72.4176 171.682C72.6206 171.285 72.9679 171.134 72.9991 171.196C73.0304 171.258 72.8079 171.468 72.6479 171.795C72.4879 172.122 72.4488 172.433 72.3747 172.437Z" fill="#263238"/>
<path d="M69.8802 168.028C69.8489 168.094 69.5133 167.985 69.0996 168.001C68.6859 168.016 68.3542 168.137 68.319 168.071C68.2839 168.005 68.6039 167.756 69.0996 167.744C69.5953 167.732 69.9192 167.974 69.8802 168.028Z" fill="#263238"/>
<path d="M69.9548 166.46C69.7046 166.519 69.4429 166.51 69.1977 166.432C68.9276 166.376 68.6655 166.287 68.4171 166.168C68.2695 166.094 68.1262 166.012 67.9878 165.923C67.905 165.873 67.8301 165.811 67.7653 165.74C67.7188 165.687 67.6913 165.62 67.6871 165.549C67.6829 165.479 67.7021 165.409 67.7419 165.351C67.7798 165.299 67.8299 165.257 67.8877 165.229C67.9456 165.201 68.0095 165.188 68.0737 165.191C68.1691 165.193 68.2638 165.209 68.3547 165.238C68.5157 165.282 68.6725 165.341 68.823 165.413C69.0743 165.536 69.3047 165.697 69.506 165.892C69.8494 166.226 69.9587 166.506 69.9353 166.518C69.9119 166.53 69.7363 166.308 69.385 166.028C69.1811 165.871 68.9582 165.74 68.7215 165.639C68.5833 165.577 68.4395 165.529 68.2922 165.495C68.1322 165.448 67.9956 165.44 67.9527 165.495C67.9097 165.549 67.9527 165.533 67.9527 165.58C68.0023 165.633 68.0587 165.679 68.1205 165.716C68.2452 165.804 68.3756 165.883 68.5108 165.954C68.7424 166.078 68.9855 166.18 69.2367 166.257C69.4808 166.307 69.7208 166.375 69.9548 166.46Z" fill="#263238"/>
<path d="M69.8568 166.565C69.7208 166.343 69.658 166.085 69.6772 165.825C69.6692 165.377 69.7853 164.936 70.0129 164.549C70.057 164.451 70.1258 164.365 70.2126 164.301C70.2994 164.237 70.4013 164.196 70.5085 164.183C70.5762 164.185 70.6418 164.207 70.6973 164.246C70.7528 164.284 70.7957 164.338 70.8208 164.401C70.8565 164.491 70.8802 164.585 70.891 164.681C70.9147 164.85 70.9147 165.022 70.891 165.191C70.8406 165.475 70.7214 165.742 70.5437 165.969C70.2353 166.359 69.9231 166.432 69.9192 166.405C69.9153 166.378 70.1573 166.234 70.3953 165.864C70.5319 165.651 70.6211 165.411 70.6568 165.16C70.6764 165.015 70.6764 164.869 70.6568 164.724C70.6373 164.564 70.5788 164.432 70.5202 164.448C70.4617 164.463 70.3134 164.561 70.247 164.685C70.1684 164.808 70.1017 164.939 70.048 165.074C69.9554 165.315 69.8975 165.568 69.8763 165.825C69.8255 166.273 69.8958 166.553 69.8568 166.565Z" fill="#263238"/>
<path d="M70.2317 94.639L47.1504 94.4639L36 167.503L45.5775 168.717L57.8519 108.661L61.5245 168.931L61.5362 169.11L71.8943 168.931L70.2317 94.639Z" fill="#263238"/>
<path d="M59.7333 100.543C59.8913 100.523 60.0503 100.513 60.2095 100.512L61.5989 100.461L66.5867 100.321H66.6803V100.418C66.6803 101.862 66.6803 103.473 66.6803 105.189V105.232L66.6452 105.263L65.7788 106.042L63.2185 108.377L63.1483 108.439L63.0819 108.38L59.667 105.345L59.6396 105.322V105.283C59.6396 103.835 59.6709 102.64 59.6826 101.78C59.6826 101.391 59.6826 101.076 59.7021 100.838C59.6996 100.732 59.7061 100.625 59.7216 100.519C59.7276 100.636 59.7276 100.753 59.7216 100.87C59.7216 101.111 59.7216 101.434 59.745 101.831C59.745 102.675 59.7684 103.851 59.788 105.279L59.7606 105.22L63.199 108.225H63.0624L65.6188 105.89L66.4891 105.111L66.454 105.189C66.454 103.473 66.454 101.862 66.454 100.418L66.5515 100.512L61.6184 100.558H59.8309C59.798 100.556 59.7653 100.551 59.7333 100.543Z" fill="#455A64"/>
<path d="M48.8715 100.243C49.0131 100.234 49.1553 100.234 49.2969 100.243L50.538 100.344L55.0263 100.733H55.1199V100.827C54.9521 102.239 54.757 103.847 54.554 105.563V105.606L54.5228 105.633L53.5276 106.411L51.0727 108.357L50.9907 108.419L50.9283 108.342L48.247 104.956L48.2236 104.929V104.894C48.4188 103.461 48.5788 102.282 48.692 101.43C48.7505 101.041 48.7934 100.733 48.8286 100.492C48.8364 100.386 48.8561 100.282 48.8871 100.181C48.8847 100.298 48.8756 100.415 48.8598 100.531C48.8364 100.775 48.8052 101.094 48.7661 101.488L48.3758 104.917V104.855C49.1564 105.831 50.0853 106.972 51.0883 108.213H50.9439L53.3949 106.267L54.3901 105.489L54.3511 105.555C54.5657 103.843 54.7687 102.236 54.9443 100.823L55.0263 100.924L50.6044 100.434L49.3476 100.282C49.1883 100.279 49.0292 100.266 48.8715 100.243Z" fill="#455A64"/>
<path d="M62.9918 111.326C62.6289 111.189 62.2789 111.019 61.9459 110.821C61.3097 110.49 60.4316 110.042 59.452 109.548C58.4723 109.054 57.5825 108.637 56.9346 108.33C56.5747 108.182 56.2275 108.005 55.8965 107.801C56.2743 107.893 56.6418 108.023 56.9932 108.19C57.6606 108.462 58.5543 108.867 59.5495 109.357C60.5447 109.848 61.3995 110.326 62.0161 110.692C62.3606 110.873 62.6873 111.085 62.9918 111.326Z" fill="#455A64"/>
<path d="M62.6957 113.101C62.4197 113.051 62.1552 112.95 61.9152 112.805C60.6961 112.182 59.6978 111.202 59.0544 109.996C58.9049 109.757 58.8004 109.493 58.7461 109.217C59.2107 110.033 59.7715 110.791 60.4165 111.474C61.1107 112.103 61.8755 112.648 62.6957 113.101Z" fill="#455A64"/>
<path d="M69.2086 134.206C69.1943 134.34 69.1588 134.471 69.1033 134.595C68.9776 134.934 68.8168 135.258 68.6232 135.564C67.9839 136.587 67.0427 137.387 65.9288 137.856C64.8149 138.324 63.583 138.437 62.4021 138.179C62.0481 138.104 61.7029 137.994 61.3718 137.848C61.2471 137.802 61.13 137.738 61.0244 137.657C61.4859 137.811 61.9548 137.941 62.4294 138.047C63.5801 138.259 64.7679 138.13 65.8463 137.678C66.9247 137.225 67.8466 136.467 68.4983 135.498C69.0018 134.735 69.1696 134.19 69.2086 134.206Z" fill="#455A64"/>
<path d="M67.6906 133.583C67.4218 133.763 67.1232 133.895 66.8086 133.972C66.065 134.206 65.2929 134.337 64.5137 134.361C63.7384 134.39 62.9621 134.344 62.1955 134.225C61.8742 134.193 61.5582 134.121 61.2549 134.011C61.2549 133.937 62.7145 134.217 64.5059 134.151C65.2694 134.128 66.0282 134.023 66.7696 133.84C67.3355 133.688 67.6789 133.552 67.6906 133.583Z" fill="#455A64"/>
<path d="M50.5341 134.011C50.3024 134.29 50.0316 134.533 49.7301 134.735C49.0266 135.256 48.2527 135.675 47.4314 135.98C46.6096 136.285 45.7492 136.473 44.875 136.541C44.514 136.584 44.1484 136.575 43.79 136.513C43.79 136.478 44.2037 136.474 44.8594 136.393C46.5715 136.18 48.21 135.571 49.6443 134.614C49.9301 134.398 50.2271 134.196 50.5341 134.011Z" fill="#455A64"/>
<path d="M48.509 133.929C47.824 134.135 47.1033 134.195 46.3937 134.104C45.678 134.079 44.9753 133.906 44.3291 133.598C44.3291 133.536 45.258 133.805 46.4093 133.894C47.5606 133.984 48.5012 133.867 48.509 133.929Z" fill="#455A64"/>
<path d="M57.715 109.167C57.3889 109.363 57.0404 109.52 56.6769 109.634C55.8136 109.947 54.9223 110.178 54.0152 110.322C53.1122 110.468 52.1974 110.527 51.2832 110.498C50.9024 110.502 50.5225 110.462 50.1514 110.377C50.5276 110.343 50.9057 110.333 51.2832 110.35C53.1029 110.325 54.9093 110.037 56.6457 109.493C56.9946 109.361 57.3518 109.252 57.715 109.167Z" fill="#455A64"/>
<path d="M57.0832 106.808C57.1417 106.808 57.1925 106.987 57.1964 107.197C57.2003 107.408 57.1534 107.587 57.0949 107.587C57.0363 107.587 56.9895 107.408 56.9856 107.197C56.9817 106.987 57.0246 106.808 57.0832 106.808Z" fill="#455A64"/>
<path d="M57.0868 105.189C57.1454 105.189 57.1922 105.372 57.1883 105.578C57.1844 105.785 57.1415 105.968 57.0829 105.968C57.0244 105.968 56.9775 105.785 56.9775 105.578C56.9775 105.372 57.0283 105.189 57.0868 105.189Z" fill="#455A64"/>
<path d="M57.118 103.574C57.1766 103.574 57.2195 103.757 57.2156 103.963C57.2117 104.17 57.157 104.353 57.0985 104.353C57.04 104.353 56.997 104.17 57.0048 103.963C57.0126 103.757 57.0634 103.57 57.118 103.574Z" fill="#455A64"/>
<path d="M57.1845 101.955C57.243 101.955 57.282 102.142 57.2703 102.364C57.2586 102.586 57.2079 102.753 57.1494 102.753C57.0908 102.753 57.0518 102.566 57.0596 102.364C57.0674 102.162 57.1259 101.951 57.1845 101.955Z" fill="#455A64"/>
<path d="M57.2819 100.34C57.3405 100.34 57.3756 100.527 57.36 100.753C57.3444 100.979 57.2858 101.142 57.2273 101.142C57.1687 101.142 57.1336 100.951 57.1492 100.729C57.1648 100.508 57.2234 100.336 57.2819 100.34Z" fill="#455A64"/>
<path d="M57.4071 98.7291C57.4656 98.7291 57.4968 98.9159 57.4812 99.1378C57.4656 99.3596 57.3992 99.5269 57.3407 99.5269C57.2822 99.5269 57.2509 99.3362 57.2705 99.1144C57.29 98.8926 57.3524 98.7214 57.4071 98.7291Z" fill="#455A64"/>
<path d="M57.5358 97.406C57.5944 97.406 57.6295 97.5344 57.6139 97.6745C57.5983 97.8146 57.5436 97.9275 57.4851 97.9236C57.4265 97.9197 57.3914 97.7951 57.407 97.655C57.4226 97.5149 57.4773 97.4021 57.5358 97.406Z" fill="#455A64"/>
<path d="M44.489 167.114C44.5475 167.114 44.5592 167.312 44.5124 167.534C44.4656 167.756 44.3875 167.923 44.329 167.923C44.2704 167.923 44.2626 167.725 44.3056 167.507C44.3485 167.289 44.4344 167.09 44.489 167.114Z" fill="#455A64"/>
<path d="M44.8083 165.534C44.863 165.534 44.8747 165.732 44.8318 165.95C44.7888 166.168 44.7069 166.339 44.6483 166.339C44.5898 166.339 44.582 166.141 44.6249 165.919C44.6678 165.697 44.7498 165.534 44.8083 165.534Z" fill="#455A64"/>
<path d="M45.1251 163.942C45.1836 163.942 45.1954 164.14 45.1485 164.358C45.1017 164.576 45.0236 164.747 44.969 164.747C44.9143 164.747 44.8987 164.549 44.9417 164.331C44.9846 164.113 45.0705 163.93 45.1251 163.942Z" fill="#455A64"/>
<path d="M45.4451 162.354C45.5036 162.354 45.5114 162.552 45.4685 162.774C45.4255 162.996 45.3436 163.163 45.285 163.163C45.2265 163.163 45.2187 162.965 45.2616 162.747C45.3046 162.529 45.3865 162.346 45.4451 162.354Z" fill="#455A64"/>
<path d="M45.761 160.77C45.8195 160.77 45.8312 160.969 45.7883 161.187C45.7454 161.404 45.6595 161.576 45.6049 161.576C45.5502 161.576 45.5346 161.377 45.5814 161.155C45.6283 160.934 45.7063 160.758 45.761 160.77Z" fill="#455A64"/>
<path d="M46.0808 159.182C46.1393 159.182 46.1471 159.381 46.1042 159.599C46.0613 159.817 45.9793 159.988 45.9208 159.988C45.8622 159.988 45.8544 159.789 45.8974 159.571C45.9403 159.354 46.0223 159.171 46.0808 159.182Z" fill="#455A64"/>
<path d="M46.4006 157.598C46.4553 157.598 46.467 157.793 46.424 158.015C46.3811 158.237 46.2952 158.404 46.2406 158.404C46.186 158.404 46.1703 158.205 46.2172 157.988C46.264 157.77 46.3343 157.587 46.4006 157.598Z" fill="#455A64"/>
<path d="M46.7253 156.011C46.7839 156.011 46.7917 156.209 46.7487 156.427C46.7058 156.645 46.6239 156.816 46.5653 156.816C46.5068 156.816 46.499 156.618 46.5419 156.396C46.5848 156.174 46.659 155.999 46.7253 156.011Z" fill="#455A64"/>
<path d="M47.0375 154.423C47.0922 154.423 47.1039 154.621 47.0609 154.839C47.018 155.057 46.9361 155.228 46.8775 155.228C46.819 155.228 46.8073 155.03 46.8541 154.812C46.9009 154.594 46.979 154.411 47.0375 154.423Z" fill="#455A64"/>
<path d="M47.3533 152.839C47.4118 152.839 47.4235 153.033 47.3767 153.255C47.3298 153.477 47.2518 153.644 47.1932 153.644C47.1347 153.644 47.1269 153.446 47.1698 153.228C47.2128 153.01 47.2986 152.827 47.3533 152.839Z" fill="#455A64"/>
<path d="M47.6736 151.251C47.7282 151.251 47.7399 151.45 47.697 151.667C47.6541 151.885 47.5721 152.057 47.5136 152.057C47.455 152.057 47.4472 151.858 47.4901 151.636C47.5331 151.415 47.615 151.239 47.6736 151.251Z" fill="#455A64"/>
<path d="M47.9894 149.663C48.0479 149.663 48.0596 149.862 48.0128 150.08C47.9659 150.298 47.8879 150.469 47.8332 150.469C47.7786 150.469 47.763 150.27 47.8059 150.052C47.8489 149.835 47.9347 149.652 47.9894 149.663Z" fill="#455A64"/>
<path d="M48.3093 148.079C48.364 148.079 48.3757 148.278 48.3327 148.496C48.2898 148.714 48.2078 148.885 48.1493 148.885C48.0908 148.885 48.0829 148.686 48.1259 148.469C48.1688 148.251 48.2508 148.068 48.3093 148.079Z" fill="#455A64"/>
<path d="M48.6261 146.492C48.6846 146.492 48.6963 146.69 48.6534 146.908C48.6105 147.126 48.5246 147.297 48.47 147.297C48.4153 147.297 48.3997 147.099 48.4426 146.881C48.4856 146.663 48.5714 146.464 48.6261 146.492Z" fill="#455A64"/>
<path d="M48.946 144.908C49.0046 144.908 49.0124 145.106 48.9694 145.328C48.9265 145.55 48.8446 145.717 48.786 145.717C48.7275 145.717 48.7197 145.519 48.7626 145.301C48.8055 145.083 48.8875 144.908 48.946 144.908Z" fill="#455A64"/>
<path d="M49.2619 143.32C49.3205 143.32 49.3322 143.518 49.2893 143.736C49.2463 143.954 49.1605 144.125 49.1058 144.125C49.0512 144.125 49.0356 143.931 49.0824 143.709C49.1293 143.487 49.2073 143.308 49.2619 143.32Z" fill="#455A64"/>
<path d="M49.5818 141.732C49.6403 141.732 49.6481 141.931 49.6052 142.148C49.5623 142.366 49.4803 142.538 49.4218 142.538C49.3632 142.538 49.3554 142.339 49.3983 142.121C49.4413 141.903 49.5232 141.72 49.5818 141.732Z" fill="#455A64"/>
<path d="M49.9016 140.144C49.9562 140.144 49.9679 140.343 49.925 140.565C49.8821 140.786 49.7962 140.954 49.7416 140.954C49.6869 140.954 49.6713 140.755 49.7182 140.537C49.765 140.319 49.847 140.133 49.9016 140.144Z" fill="#455A64"/>
<path d="M50.237 138.56C50.2956 138.56 50.3073 138.759 50.2605 138.977C50.2136 139.195 50.1356 139.366 50.077 139.366C50.0185 139.366 50.0107 139.167 50.0536 138.946C50.0965 138.724 50.159 138.549 50.237 138.56Z" fill="#455A64"/>
<path d="M50.5375 136.973C50.5922 136.973 50.6039 137.171 50.5609 137.389C50.518 137.607 50.4361 137.778 50.3775 137.778C50.319 137.778 50.3073 137.58 50.3541 137.362C50.4009 137.144 50.479 136.961 50.5375 136.973Z" fill="#455A64"/>
<path d="M50.8542 135.385C50.9128 135.385 50.9245 135.583 50.8776 135.805C50.8308 136.027 50.7528 136.194 50.6942 136.194C50.6357 136.194 50.6279 135.996 50.6708 135.778C50.7137 135.56 50.7996 135.373 50.8542 135.385Z" fill="#455A64"/>
<path d="M51.1745 133.801C51.2292 133.801 51.2409 133.999 51.198 134.217C51.155 134.435 51.0731 134.606 51.0145 134.606C50.956 134.606 50.9482 134.408 50.9911 134.186C51.034 133.964 51.116 133.789 51.1745 133.801Z" fill="#455A64"/>
<path d="M51.4903 132.213C51.5489 132.213 51.5606 132.412 51.5138 132.629C51.4669 132.847 51.3889 133.019 51.3342 133.019C51.2796 133.019 51.264 132.82 51.3069 132.602C51.3498 132.384 51.4357 132.201 51.4903 132.213Z" fill="#455A64"/>
<path d="M51.7986 130.625C51.8571 130.625 51.8649 130.824 51.822 131.046C51.7791 131.267 51.6971 131.435 51.6386 131.435C51.58 131.435 51.5722 131.236 51.6151 131.018C51.6581 130.8 51.7517 130.614 51.7986 130.625Z" fill="#455A64"/>
<path d="M52.1261 129.041C52.1846 129.041 52.1963 129.24 52.1534 129.458C52.1105 129.676 52.0246 129.847 51.97 129.847C51.9153 129.847 51.8997 129.648 51.9426 129.427C51.9856 129.205 52.0714 129.03 52.1261 129.041Z" fill="#455A64"/>
<path d="M52.446 127.454C52.5046 127.454 52.5124 127.652 52.4694 127.87C52.4265 128.088 52.3446 128.259 52.286 128.259C52.2275 128.259 52.2197 128.061 52.2626 127.843C52.3055 127.625 52.3875 127.442 52.446 127.454Z" fill="#455A64"/>
<path d="M52.7668 125.866C52.8215 125.866 52.8332 126.064 52.7902 126.286C52.7473 126.508 52.6615 126.675 52.6068 126.675C52.5522 126.675 52.5366 126.477 52.5834 126.259C52.6302 126.041 52.7083 125.858 52.7668 125.866Z" fill="#455A64"/>
<path d="M53.0827 124.282C53.1413 124.282 53.1491 124.48 53.1062 124.698C53.0632 124.916 52.9813 125.087 52.9227 125.087C52.8642 125.087 52.8564 124.889 52.8993 124.667C52.9422 124.445 53.0242 124.282 53.0827 124.282Z" fill="#455A64"/>
<path d="M53.4026 122.694C53.4572 122.694 53.4689 122.892 53.426 123.11C53.3831 123.328 53.2972 123.5 53.2426 123.5C53.1879 123.5 53.1723 123.301 53.2191 123.083C53.266 122.865 53.3596 122.682 53.4026 122.694Z" fill="#455A64"/>
<path d="M53.7185 121.11C53.777 121.11 53.7887 121.305 53.7419 121.527C53.6951 121.748 53.617 121.916 53.5585 121.916C53.4999 121.916 53.4921 121.717 53.5351 121.499C53.578 121.281 53.6639 121.098 53.7185 121.11Z" fill="#455A64"/>
<path d="M54.0388 119.522C54.0934 119.522 54.1052 119.721 54.0622 119.939C54.0193 120.157 53.9373 120.328 53.8788 120.328C53.8202 120.328 53.8124 120.129 53.8554 119.908C53.8983 119.686 53.9803 119.511 54.0388 119.522Z" fill="#455A64"/>
<path d="M54.3552 117.935C54.4138 117.935 54.4255 118.133 54.3786 118.351C54.3318 118.569 54.2537 118.74 54.1952 118.74C54.1366 118.74 54.1288 118.542 54.1718 118.324C54.2147 118.106 54.3006 117.923 54.3552 117.935Z" fill="#455A64"/>
<path d="M54.6745 116.351C54.7292 116.351 54.7409 116.549 54.698 116.767C54.655 116.985 54.5731 117.156 54.5145 117.156C54.456 117.156 54.4482 116.958 54.4911 116.74C54.534 116.522 54.616 116.339 54.6745 116.351Z" fill="#455A64"/>
<path d="M54.9913 114.763C55.0498 114.763 55.0616 114.961 55.0186 115.179C54.9757 115.397 54.8898 115.568 54.8352 115.568C54.7806 115.568 54.7649 115.37 54.8079 115.152C54.8508 114.934 54.9211 114.751 54.9913 114.763Z" fill="#455A64"/>
<path d="M55.3113 113.175C55.3698 113.175 55.3776 113.373 55.3347 113.591C55.2917 113.809 55.2098 113.981 55.1512 113.981C55.0927 113.981 55.0849 113.782 55.1278 113.564C55.1708 113.346 55.2527 113.163 55.3113 113.175Z" fill="#455A64"/>
<path d="M55.6272 111.591C55.6857 111.591 55.6974 111.79 55.6545 112.008C55.6116 112.225 55.5257 112.397 55.4711 112.397C55.4164 112.397 55.4008 112.202 55.4477 111.98C55.4945 111.758 55.5725 111.579 55.6272 111.591Z" fill="#455A64"/>
<path d="M55.947 110.003C56.0055 110.003 56.0134 110.202 55.9704 110.42C55.9275 110.638 55.8455 110.809 55.787 110.809C55.7284 110.809 55.7206 110.61 55.7636 110.392C55.8065 110.175 55.8885 109.992 55.947 110.003Z" fill="#455A64"/>
<path d="M87.7588 61.0773C87.7588 61.0773 90.4595 57.0416 90.5337 57.0066C90.5337 57.0066 92.9691 52.9125 93.7808 52.9125C94.5926 52.9125 94.2999 53.7415 93.4608 55.2086C93.0588 55.8467 92.7844 56.5564 92.6529 57.2984L94.6551 58.501C94.6551 58.501 95.9937 57.9873 96.0484 59.2287C96.0289 59.798 95.9517 60.3639 95.8181 60.9177C95.7362 61.3613 95.5371 61.8322 95.1156 61.6649C95.0111 61.6302 94.9203 61.5632 94.8564 61.4737C94.7926 61.3841 94.759 61.2766 94.7605 61.1668C94.7331 60.4312 94.8697 60.1588 94.7605 60.1588C94.6512 60.1588 93.3203 64.0155 93.3203 64.0155L87.7588 61.0773Z" fill="#FFBE9D"/>
<path d="M93.2119 57.9095C93.4133 57.759 93.6289 57.6286 93.8559 57.5203C94.0834 57.4139 94.3366 57.3748 94.5857 57.4074C94.6796 57.4158 94.77 57.4464 94.8495 57.4968C94.929 57.5472 94.9953 57.6159 95.0427 57.6971C95.0901 57.7783 95.1173 57.8696 95.1219 57.9635C95.1266 58.0573 95.1087 58.1509 95.0697 58.2364C94.9896 58.436 94.8776 58.6213 94.7379 58.7851" fill="#FFBE9D"/>
<path d="M92.2979 57.0961C92.4892 56.9571 92.693 56.8359 92.9067 56.7342C93.1222 56.6343 93.3619 56.5979 93.5975 56.6291C93.7484 56.6453 93.8878 56.7175 93.9878 56.8315C94.0468 56.9139 94.0844 57.0097 94.0973 57.1102C94.1103 57.2106 94.0981 57.3128 94.0619 57.4074C93.8801 57.694 93.671 57.9625 93.4375 58.2091" fill="#FFBE9D"/>
<path d="M88.7036 58.8007L84.8008 67.121L89.0939 71.5069L91.3341 65.3036C91.3341 65.3036 92.5362 65.541 93.0279 64.7471C93.5743 63.8598 94.2924 61.2991 94.2924 61.2991L88.7036 58.8007Z" fill="#FFBE9D"/>
<path d="M91.4902 58.571C91.5217 58.1443 91.6823 57.7372 91.9508 57.4035C92.1285 57.1598 92.3576 56.9579 92.6221 56.812C92.8211 56.7069 92.9577 56.668 92.9694 56.6914C92.9811 56.7147 92.5011 57.0027 92.1225 57.5281C91.7439 58.0534 91.5566 58.5983 91.4902 58.571Z" fill="#EB996E"/>
<path d="M95.8182 58.6061C95.8182 58.6333 95.666 58.5594 95.4279 58.5205C95.1375 58.4675 94.8376 58.5141 94.5771 58.6528C94.3236 58.8173 94.1091 59.0352 93.9488 59.291C93.8122 59.4856 93.7185 59.6062 93.6912 59.5907C93.6639 59.5751 93.7107 59.435 93.8239 59.2015C93.9668 58.8972 94.1961 58.6415 94.4835 58.466C94.634 58.385 94.7995 58.3353 94.9699 58.3199C95.1403 58.3045 95.3121 58.3237 95.4748 58.3765C95.7246 58.4621 95.8338 58.5866 95.8182 58.6061Z" fill="#EB996E"/>
<path d="M94.3667 57.4308C94.0446 57.5803 93.7375 57.7602 93.4496 57.9678C93.0125 58.357 92.7978 58.8045 92.7393 58.7773C92.795 58.3935 92.9996 58.0469 93.3091 57.8121C93.5119 57.6245 93.7589 57.4906 94.0272 57.423C94.234 57.3918 94.3628 57.4074 94.3667 57.4308Z" fill="#EB996E"/>
<path d="M95.3267 59.2287C95.3813 59.2093 95.4828 59.5323 95.2759 59.8514C95.0691 60.1705 94.7374 60.2405 94.7335 60.1666C94.7295 60.0927 94.9442 59.9954 95.1003 59.7424C95.2564 59.4895 95.2642 59.2365 95.3267 59.2287Z" fill="#EB996E"/>
<path d="M87.7712 60.9177C87.7712 60.9177 87.6346 58.4348 88.2356 57.8706C88.8366 57.3063 90.5773 57.8939 90.5773 57.8939" fill="#FFBE9D"/>
<path d="M90.8264 56.7108C90.5886 57.217 90.2884 57.6915 89.9327 58.1235C89.6332 58.5959 89.2767 59.0299 88.8711 59.4155C89.4037 58.435 90.0595 57.5261 90.8225 56.7108H90.8264Z" fill="#EB996E"/>
<path d="M56.2597 37.8868L56.2012 57.2634L64.5376 57.6526L64.7796 52.9398C64.7796 52.9398 67.7418 53.5274 68.5029 50.7838C68.9946 49.0326 68.8697 35.4935 68.8697 35.4935L56.2597 37.8868Z" fill="#FFBE9D"/>
<path d="M69.9663 36.8594C68.6549 37.2486 68.37 39.3773 68.37 39.3773L66.3093 43.9111C65.2595 43.0939 63.8505 43.1328 63.5774 44.9813C63.3822 46.3084 65.0409 46.5769 65.0409 46.5769C64.0769 48.2153 63.4212 49.5385 62.0162 51.0951C60.498 52.7802 59.6472 52.9476 57.9963 52.9748H56.1815C56.1815 52.9748 55.2917 50.095 53.6447 42.8954C51.8142 34.9058 61.2903 35.9332 63.0466 33.894C65.9151 30.5744 74.1072 35.6802 69.9663 36.8594Z" fill="#263238"/>
<path d="M53.8241 43.6465C52.2864 42.6191 52.1498 39.7548 53.0435 38.0152C53.503 37.1541 54.1823 36.4292 55.013 35.9139C55.8436 35.3986 56.796 35.1113 57.7737 35.0809C58.037 35.0984 58.3012 35.0694 58.5543 34.9953C58.8956 34.8153 59.1816 34.5463 59.3817 34.217C60.7555 32.4385 62.1137 30.6911 64.6622 30.6911C65.2247 30.6631 65.7832 30.7982 66.2702 31.0803C66.7242 31.3887 67.0643 31.8371 67.2381 32.3568C67.7066 32.1041 68.2105 31.9231 68.7329 31.8197C68.9947 31.7684 69.2645 31.7742 69.5239 31.8367C69.7833 31.8992 70.026 32.0168 70.2355 32.1816C70.4381 32.355 70.5727 32.5942 70.6156 32.857C70.6584 33.1198 70.6067 33.3892 70.4696 33.6177C70.9026 33.6116 71.3234 33.76 71.6562 34.0362C71.989 34.3124 72.2119 34.6981 72.2844 35.1237C72.421 35.976 71.1995 36.5753 71.0707 36.6415C71.0707 36.6415 71.7419 38.0425 70.1418 38.8831C69.4978 39.2178 68.6587 38.813 68.5807 38.7624" fill="#263238"/>
<path d="M59.9129 45.5106C60.0255 45.9967 60.0094 46.5036 59.866 46.9816C59.7879 47.4744 59.5851 47.9392 59.2767 48.332C59.2182 48.3048 59.4875 47.7094 59.667 46.9349C59.8465 46.1605 59.8504 45.5106 59.9129 45.5106Z" fill="#455A64"/>
<path d="M60.9195 44.561C60.9924 45.0335 60.9658 45.5159 60.8414 45.9776C60.7854 46.4519 60.6369 46.9106 60.4043 47.328C60.4363 46.8586 60.5134 46.3934 60.6346 45.9387C60.688 45.4719 60.7834 45.0108 60.9195 44.561Z" fill="#455A64"/>
<path d="M63.8077 41.3621C63.8077 41.3893 63.5931 41.5606 63.2925 41.9108C62.9058 42.3744 62.6021 42.901 62.3949 43.4675C62.187 44.0347 62.0201 44.6161 61.8953 45.2071C61.8595 45.4603 61.79 45.7077 61.6885 45.9426C61.6698 45.6817 61.6895 45.4195 61.747 45.1643C61.8312 44.5531 61.9817 43.9528 62.1959 43.3741C62.4147 42.7933 62.7508 42.2635 63.1833 41.8174C63.3498 41.6158 63.5646 41.4592 63.8077 41.3621Z" fill="#455A64"/>
<path d="M64.9748 39.1828C65.0707 39.3424 65.1269 39.5225 65.1387 39.7081C65.2601 40.6003 65.0323 41.5047 64.5026 42.2338C64.2996 42.5062 64.1123 42.623 64.1123 42.623C64.4295 42.1101 64.6812 41.5597 64.8616 40.9846C64.975 40.3911 65.0131 39.7857 64.9748 39.1828Z" fill="#455A64"/>
<path d="M55.0266 44.024C54.9954 44.0746 54.7417 43.9851 54.4529 43.8255C54.1641 43.666 53.9572 43.4986 53.9885 43.4363C54.0197 43.3741 54.2695 43.4714 54.5583 43.6309C54.8471 43.7905 55.0539 43.9734 55.0266 44.024Z" fill="#455A64"/>
<path d="M59.0542 41.9536C59.088 42.2553 59.0026 42.5582 58.8161 42.7981C58.5586 43.2262 58.2112 43.4441 58.1761 43.4013C58.141 43.3585 58.3985 43.0822 58.6327 42.6891C58.8669 42.2961 58.9918 41.9419 59.0542 41.9536Z" fill="#455A64"/>
<path d="M60.291 41.292C60.2821 41.6595 60.1517 42.0139 59.9202 42.3C59.5846 42.8059 59.167 43.0783 59.1396 43.0316C59.3273 42.7372 59.5319 42.454 59.7524 42.1832C59.9132 41.8753 60.0931 41.5777 60.291 41.292Z" fill="#455A64"/>
<path d="M66.4502 33.1779C66.4502 33.1779 66.2902 33.0573 65.9897 32.886C65.5583 32.6596 65.0798 32.537 64.5925 32.528C63.8706 32.5096 63.1589 32.7002 62.5435 33.0767C61.8013 33.562 61.1997 34.233 60.7989 35.0226C60.496 35.6005 60.2578 36.21 60.0886 36.84L60.0574 36.9606L59.9442 36.9022C59.3705 36.6017 58.7343 36.4392 58.0865 36.4275C57.5721 36.4151 57.0596 36.4928 56.5722 36.6571C56.1388 36.8172 55.724 37.0233 55.335 37.2719C55.4151 37.1774 55.5084 37.0948 55.6121 37.0268C55.8945 36.8232 56.2029 36.6583 56.5292 36.5364C57.0279 36.3481 57.5571 36.2531 58.0904 36.2562C58.7688 36.2551 59.4377 36.4152 60.0418 36.7232L59.8935 36.7894C60.0604 36.1414 60.3013 35.5146 60.6116 34.9214C61.0334 34.1025 61.6666 33.4107 62.4459 32.9172C63.095 32.5301 63.845 32.3445 64.6003 32.384C65.1073 32.4078 65.6 32.5591 66.0326 32.8238C66.1473 32.8975 66.2544 32.9822 66.3526 33.0767C66.4229 33.1351 66.4541 33.1701 66.4502 33.1779Z" fill="#455A64"/>
<path d="M70.833 34.2325C70.833 34.2325 71.0633 34.1703 71.3131 34.4466C71.4534 34.6165 71.522 34.8342 71.5043 35.0537C71.4824 35.1979 71.4273 35.3352 71.3434 35.4547C71.2594 35.5742 71.1489 35.6727 71.0204 35.7425C70.7128 35.9175 70.3494 35.9677 70.0056 35.8826C69.6262 35.7864 69.2703 35.6143 68.9597 35.3767C68.6332 35.1241 68.2918 34.8915 67.9371 34.6801C67.5528 34.4723 67.1378 34.3265 66.7077 34.2481C65.8685 34.0995 65.0055 34.1583 64.1943 34.4193C63.5307 34.6373 62.9043 34.9549 62.3366 35.3611C61.8187 35.7519 61.3223 36.1702 60.8496 36.6142C60.9424 36.4634 61.0539 36.3248 61.1813 36.2017C61.5074 35.8506 61.8639 35.5289 62.2468 35.2405C62.8164 34.8061 63.4531 34.467 64.1319 34.2364C64.9729 33.9515 65.8727 33.8846 66.7468 34.0419C67.1988 34.1246 67.6348 34.2783 68.0386 34.4972C68.3989 34.7156 68.7444 34.9574 69.0729 35.221C69.3618 35.4458 69.6919 35.6123 70.0447 35.7114C70.3465 35.7959 70.6695 35.761 70.9462 35.6141C71.0588 35.5579 71.1571 35.4768 71.2335 35.377C71.31 35.2772 71.3625 35.1613 71.3872 35.0381C71.4119 34.8465 71.3616 34.6528 71.2467 34.4972C71.1439 34.3637 70.9976 34.2701 70.833 34.2325Z" fill="#455A64"/>
<path d="M47.3849 59.291L39.9383 71.7443C39.1031 73.1998 38.3342 74.7487 37.5966 76.3559C37.3159 77.1625 37.2402 78.0259 37.3765 78.8688C37.5127 79.7117 37.8565 80.5077 38.3771 81.1855L38.1664 80.882C38.5745 81.3848 39.0901 81.7905 39.6755 82.0692C40.2609 82.348 40.9014 82.4928 41.5501 82.4931H41.7453C42.5919 82.4926 43.42 82.2456 44.1279 81.7824C44.8358 81.3192 45.3926 80.66 45.7301 79.8857L48.1225 76.2664L47.3849 59.291Z" fill="#81CEC3"/>
<path d="M69.8531 56.9093C67.8549 55.8897 65.88 55.6601 63.7257 55.5978C61.2201 55.5238 57.6841 55.1736 54.9794 55.4616C54.9794 55.4616 47.2831 56.0298 46.7484 61.2991L47.7983 86.0112L46.0342 96.4797L70.7117 97.2231L70.5322 84.8631C70.8366 78.438 70.1887 69.3354 70.1887 69.3354C70.579 65.8796 72.4641 64.3268 72.7334 62.0774C72.9715 60.0927 71.6367 57.816 69.8531 56.9093Z" fill="#81CEC3"/>
<path d="M62.8979 86.3575C62.7919 86.4865 62.67 86.6016 62.535 86.7C62.1833 86.991 61.8072 87.2514 61.411 87.4784C60.0965 88.2314 58.6122 88.6403 57.0965 88.6669C55.5807 88.6934 54.0829 88.3368 52.7428 87.6301C52.3391 87.4203 51.954 87.1769 51.5915 86.9024C51.4485 86.8082 51.3175 86.6971 51.2012 86.5716C51.2246 86.5366 51.771 86.9997 52.7935 87.4978C54.1238 88.1533 55.5922 88.4815 57.0758 88.4551C58.5595 88.4287 60.0152 88.0484 61.3212 87.346C62.3359 86.8051 62.8706 86.3264 62.8979 86.3575Z" fill="#263238"/>
<path d="M46.7246 61.5715C46.7425 61.6507 46.7517 61.7316 46.752 61.8128C46.752 61.9957 46.7793 62.2214 46.7949 62.5055C46.8222 63.1321 46.8651 63.9921 46.912 65.0429C47.0056 67.2144 47.1266 70.1682 47.2632 73.4294C47.3998 76.6906 47.5481 79.6561 47.6535 81.8121C47.7081 82.8628 47.7511 83.7229 47.7823 84.3494C47.7823 84.6335 47.8057 84.8592 47.8135 85.0421C47.8228 85.1223 47.8228 85.2033 47.8135 85.2834C47.7917 85.206 47.7786 85.1264 47.7745 85.046C47.755 84.8631 47.7316 84.6374 47.7042 84.3572C47.6457 83.7579 47.5833 82.8901 47.5091 81.8198C47.3608 79.6755 47.2047 76.714 47.0642 73.4372C46.9237 70.1604 46.83 67.2105 46.7754 65.0507C46.7754 63.996 46.7363 63.136 46.7246 62.5055C46.7246 62.2253 46.7246 61.9957 46.7246 61.8167C46.7155 61.7352 46.7155 61.653 46.7246 61.5715Z" fill="#263238"/>
<path d="M45.1639 62.883C45.1451 62.9505 45.1161 63.0148 45.078 63.0737L44.8009 63.6068C44.5512 64.0661 44.1804 64.7237 43.7043 65.5254C42.7676 67.1405 41.3626 69.3042 39.938 71.7521C39.2238 72.9819 38.6228 74.1961 38.0998 75.3052C37.6064 76.268 37.3597 77.3375 37.3817 78.4185C37.4191 79.1471 37.6149 79.8588 37.9554 80.5045C38.1974 80.9598 38.4003 81.1699 38.3808 81.1855C38.3263 81.1415 38.2766 81.0919 38.2325 81.0376C38.1023 80.8825 37.9849 80.7172 37.8812 80.5434C37.5041 79.8971 37.2823 79.1724 37.2334 78.4263C37.1865 77.3167 37.4228 76.2133 37.9203 75.2196C38.4393 74.0949 39.0365 72.8846 39.7546 71.6392C41.183 69.1719 42.6076 67.0276 43.5755 65.4126C44.0516 64.6342 44.4419 64.0038 44.7268 63.529C44.8556 63.3266 44.9571 63.1398 45.0429 63.0192C45.1288 62.8986 45.1639 62.8791 45.1639 62.883Z" fill="#263238"/>
<path d="M90.5536 69.6662L84.8438 65.9418L81.2376 72.1685C81.2376 72.1685 76.242 65.2452 73.9745 61.1901C71.8825 57.4541 69.1818 56.4501 67.8782 56.1777C67.7887 56.1592 67.6961 56.1622 67.6079 56.1864C67.5198 56.2105 67.4387 56.2553 67.3712 56.3168C67.3038 56.3783 67.252 56.455 67.22 56.5404C67.1881 56.6258 67.1769 56.7176 67.1874 56.8081L69.1389 70.2733C69.3886 70.9738 73.51 76.9319 75.8127 79.9285C79.657 84.9332 85.32 81.7303 86.8733 78.2278C88.1261 75.4453 90.0463 71.2228 90.5536 69.6662Z" fill="#81CEC3"/>
<path d="M82.8807 77.7842C82.8096 77.4937 82.7729 77.1959 82.7714 76.8969C82.724 76.1848 82.6314 75.4764 82.4943 74.7759C82.3535 74.08 82.1074 73.4095 81.7645 72.7873C81.4991 72.3164 81.2688 72.0595 81.2962 72.0362C81.5412 72.2154 81.7449 72.445 81.8933 72.7095C82.2842 73.3292 82.558 74.015 82.7012 74.7331C82.8436 75.4431 82.9168 76.1651 82.9197 76.8891C82.9443 77.1879 82.9312 77.4886 82.8807 77.7842Z" fill="#263238"/>
<path d="M84.5514 75.0017C84.5162 75.0017 84.4889 74.7137 84.3484 74.2739C84.1624 73.7036 83.8503 73.1823 83.4351 72.7484C83.0513 72.2919 82.5094 71.996 81.9169 71.9195C81.671 71.9211 81.4271 71.9632 81.1949 72.044C81.1715 72.044 81.4096 71.7871 81.9209 71.7716C82.2407 71.7887 82.5537 71.8712 82.8403 72.0137C83.1269 72.1563 83.3812 72.356 83.5874 72.6005C84.0274 73.0555 84.3396 73.6178 84.4928 74.2311C84.5734 74.4797 84.5934 74.7438 84.5514 75.0017Z" fill="#263238"/>
<path d="M67.5076 57.8394C67.4672 57.8967 67.42 57.949 67.3671 57.9951L67.1915 58.1741C67.129 58.2558 67.0549 58.3414 66.9729 58.4387C66.5221 59.0069 66.1867 59.6572 65.9855 60.3534C65.6852 61.3841 65.612 62.4674 65.7708 63.529C65.8507 64.1552 66.0148 64.7678 66.2587 65.3503C66.5357 65.9753 66.8444 66.5857 67.1837 67.1794C68.5809 69.6273 70.021 71.7443 71.0592 73.2737C71.5743 74.0132 71.9997 74.6203 72.3159 75.0678C72.4779 75.2819 72.629 75.504 72.7686 75.7333C72.7686 75.7333 72.714 75.6866 72.6242 75.5815C72.5344 75.4764 72.4056 75.3246 72.2339 75.1184C71.91 74.7292 71.4534 74.1104 70.9226 73.3594C69.5208 71.3993 68.2182 69.3705 67.0197 67.2806C66.6756 66.6817 66.3642 66.0646 66.087 65.432C65.834 64.8375 65.662 64.2119 65.5757 63.5718C65.4243 62.4821 65.5163 61.3725 65.845 60.3223C66.0624 59.6146 66.4252 58.9599 66.9105 58.3998L67.1485 58.1468L67.3398 57.9795C67.4452 57.8744 67.4998 57.8316 67.5076 57.8394Z" fill="#263238"/>
<path d="M67.5193 93.6116C67.466 93.6446 67.4081 93.6695 67.3475 93.6855L66.8324 93.8646C66.6099 93.9424 66.3367 94.028 66.0128 94.1136C65.6888 94.1992 65.322 94.316 64.9122 94.4016C63.9506 94.631 62.9774 94.809 61.9968 94.9348C59.5917 95.2487 57.1563 95.2565 54.7492 94.9581C53.7692 94.835 52.7962 94.6622 51.8338 94.4405C51.4201 94.3549 51.0532 94.2459 50.7293 94.1564C50.4054 94.0669 50.1322 93.9891 49.9058 93.9113L49.3945 93.7361C49.2775 93.6972 49.215 93.67 49.2189 93.6622C49.2823 93.6681 49.345 93.6798 49.4063 93.6972L49.9292 93.8334C50.1556 93.8957 50.4327 93.9696 50.7605 94.0436C51.0884 94.1175 51.4513 94.2187 51.865 94.2926C52.6846 94.4717 53.672 94.6312 54.7726 94.7635C55.9689 94.8947 57.1715 94.9609 58.3749 94.962C59.5774 94.953 60.7786 94.8802 61.9733 94.7441C63.0739 94.6079 64.0574 94.4405 64.877 94.2576C65.2907 94.1798 65.6576 94.0786 65.9815 94.0008C66.3055 93.9229 66.5826 93.849 66.8089 93.7867L67.3319 93.6466C67.392 93.6246 67.4553 93.6128 67.5193 93.6116Z" fill="#263238"/>
<g opacity="0.3">
<path d="M46.2646 79.1035L47.3809 77.3795L46.7993 63.7975L46.2646 79.1035Z" fill="black"/>
</g>
<g opacity="0.3">
<path d="M65.5088 62.883C65.5088 62.883 65.5439 67.8293 66.6796 69.7907C67.8154 71.7521 70.5317 75.9862 70.5317 75.7333C70.5317 75.4803 70.3795 72.2308 70.3795 72.2308C70.3795 72.2308 65.5322 65.65 65.5088 62.883Z" fill="black"/>
</g>
<path d="M45.2772 79.5277C45.1683 79.5889 45.0469 79.6248 44.9221 79.6327C44.5806 79.6697 44.2353 79.6244 43.9151 79.5004C43.442 79.3208 43.0162 79.036 42.6701 78.6676C42.2604 78.2143 41.9102 77.7108 41.6281 77.1693C41.3529 76.6324 41.0453 76.1125 40.707 75.6126C40.4267 75.2186 40.0824 74.874 39.6884 74.593C39.3156 74.3473 38.8956 74.1816 38.4551 74.1066C38.5838 74.0804 38.7166 74.0804 38.8454 74.1066C39.1817 74.1614 39.5032 74.2846 39.7898 74.4685C40.2095 74.7458 40.5779 75.0934 40.8787 75.4959C41.2282 75.9931 41.5437 76.5132 41.8232 77.0526C42.0978 77.58 42.4331 78.0736 42.8223 78.5236C43.1493 78.8795 43.5484 79.1621 43.9932 79.3525C44.3987 79.5211 44.8412 79.5815 45.2772 79.5277Z" fill="white"/>
<path d="M46.7874 70.9893C46.7522 70.9893 46.6664 70.6936 46.4283 70.2577C46.1166 69.6897 45.6875 69.1941 45.1695 68.8036C44.6514 68.4132 44.0562 68.1368 43.4231 67.9928C42.9353 67.8838 42.6191 67.8838 42.6191 67.8488C42.8918 67.7898 43.1739 67.7898 43.4465 67.8488C44.1171 67.9585 44.7511 68.2281 45.2947 68.6346C45.8383 69.0412 46.2754 69.5726 46.5688 70.1838C46.6992 70.4334 46.7738 70.7082 46.7874 70.9893Z" fill="white"/>
<path d="M65.5993 63.7002C65.5993 63.7002 65.33 63.6497 64.8461 63.6107C64.1616 63.5636 63.4739 63.6254 62.8088 63.7936C61.8211 64.0513 60.8693 64.4304 59.9754 64.9222C58.9528 65.4554 57.8717 66.1325 56.6463 66.6929C55.4939 67.2292 54.2507 67.5447 52.9815 67.623C51.9466 67.683 50.9085 67.5872 49.9022 67.339C49.2264 67.1754 48.5717 66.9351 47.9508 66.6229C47.7283 66.5178 47.5605 66.4127 47.4551 66.3505C47.3497 66.2882 47.2873 66.2454 47.2912 66.2376C47.2951 66.2298 47.541 66.3544 47.9859 66.5489C48.6129 66.8303 49.2666 67.048 49.9373 67.1989C50.9314 67.4234 51.9528 67.5033 52.9698 67.4362C54.2143 67.3472 55.4323 67.0333 56.5643 66.51C57.7703 65.9574 58.8552 65.288 59.8895 64.7588C60.7971 64.2645 61.7672 63.8941 62.7737 63.6574C63.4545 63.4952 64.1585 63.4531 64.8539 63.5329C65.0422 63.5547 65.2287 63.5898 65.412 63.638C65.4772 63.6494 65.5403 63.6703 65.5993 63.7002Z" fill="white"/>
<path d="M70.3961 77.1654C70.3253 77.1993 70.2506 77.2241 70.1736 77.2394C69.9558 77.3067 69.7343 77.3613 69.5101 77.4028C68.6896 77.567 67.8525 77.6336 67.0162 77.6013C65.7769 77.5497 64.5456 77.3777 63.3398 77.0876C61.9738 76.7762 60.5063 76.3287 58.9647 75.8773C57.5214 75.4413 56.0471 75.1148 54.5545 74.9005C53.3384 74.7265 52.1044 74.7173 50.8859 74.8732C50.0643 74.9791 49.2616 75.1991 48.5012 75.527C47.9665 75.7605 47.6816 75.9162 47.6738 75.9162C47.7329 75.8639 47.7985 75.8194 47.869 75.7839C48.0095 75.7138 48.1968 75.5776 48.47 75.4609C49.2288 75.1034 50.0362 74.8595 50.8663 74.737C52.0976 74.5662 53.3467 74.5662 54.5779 74.737C56.0819 74.9415 57.5671 75.2656 59.0193 75.706C60.5805 76.1575 62.0284 76.6089 63.3827 76.928C64.5748 77.227 65.7928 77.412 67.0201 77.4806C67.8486 77.5247 68.6794 77.4803 69.4984 77.3483C70.076 77.2277 70.3922 77.146 70.3961 77.1654Z" fill="white"/>
<path d="M70.5318 84.8631C69.5024 84.4032 68.4064 84.109 67.2846 83.9914C66.0662 83.894 64.8405 83.9358 63.6316 84.1159C62.2617 84.3027 60.7708 84.6141 59.198 84.8943C57.6251 85.1745 56.1187 85.4469 54.7292 85.5675C53.5013 85.6918 52.2635 85.684 51.0372 85.5442C50.2093 85.4462 49.3958 85.2516 48.6135 84.9643C48.3364 84.8709 48.1335 84.758 47.993 84.6997C47.9186 84.6719 47.8478 84.6353 47.7822 84.5907C47.7822 84.5712 48.0866 84.7036 48.6408 84.8904C49.4247 85.1439 50.2331 85.3148 51.0528 85.4002C52.2698 85.5263 53.4966 85.5263 54.7136 85.4002C56.0874 85.2717 57.59 85.011 59.1629 84.7152C60.7357 84.4195 62.2266 84.112 63.6082 83.9369C64.8309 83.7599 66.0706 83.7312 67.3002 83.8513C68.1299 83.9407 68.943 84.145 69.7161 84.4584C69.9261 84.5431 70.1308 84.6405 70.3288 84.7503C70.4003 84.7806 70.4684 84.8184 70.5318 84.8631Z" fill="white"/>
<path d="M57.8483 94.7869C57.7093 94.7202 57.5783 94.638 57.458 94.5417C57.216 94.3705 56.8648 94.1292 56.4238 93.8412C55.2801 93.0865 54.0885 92.4066 52.8566 91.8059C51.6203 91.206 50.3467 90.686 49.0435 90.2492C48.544 90.0819 48.1381 89.9573 47.8727 89.86C47.7222 89.8268 47.5766 89.7745 47.4395 89.7044C47.5927 89.7145 47.7444 89.7406 47.8922 89.7822C48.1849 89.8445 48.5986 89.9535 49.106 90.1013C51.7573 90.892 54.2619 92.1078 56.5213 93.7011C56.9545 94.0047 57.3019 94.2654 57.5204 94.4561C57.6426 94.5529 57.7527 94.664 57.8483 94.7869Z" fill="white"/>
<path d="M69.861 94.6546C69.6149 94.8392 69.3372 94.9776 69.0414 95.0632C67.6243 95.5654 66.0696 95.5182 64.6858 94.9309C64.4012 94.8235 64.1372 94.6682 63.9053 94.4716C64.1929 94.5663 64.4756 94.6754 64.7522 94.7985C65.435 95.0338 66.1494 95.165 66.8714 95.1877C67.5944 95.2067 68.3159 95.1135 69.0102 94.9114C69.5292 94.7713 69.8454 94.6234 69.861 94.6546Z" fill="white"/>
<path d="M78.4045 68.9618C78.4126 69.0792 78.3967 69.1971 78.3577 69.3082C78.2647 69.6154 78.1093 69.9002 77.901 70.1449C77.5922 70.5042 77.2207 70.8048 76.8044 71.0322C76.3004 71.3005 75.7789 71.5346 75.2432 71.7327C74.7181 71.9292 74.2199 72.1906 73.7602 72.511C73.3941 72.7784 73.0927 73.1241 72.8781 73.5228C72.6858 73.8946 72.5994 74.3119 72.6283 74.7292C72.5725 74.6253 72.5456 74.5084 72.5503 74.3907C72.5378 74.0677 72.6062 73.7467 72.7493 73.4567C72.957 73.0272 73.2632 72.6526 73.6431 72.3631C74.1108 72.024 74.623 71.7504 75.1652 71.5497C75.6976 71.3527 76.2187 71.1266 76.7263 70.8726C77.1276 70.6606 77.4915 70.3845 77.8035 70.0553C78.077 69.7359 78.2816 69.3636 78.4045 68.9618Z" fill="white"/>
<path d="M73.6078 60.7037C73.6038 60.8244 73.5814 60.9438 73.5414 61.0578C73.5113 61.1905 73.4709 61.3206 73.4204 61.447C73.3643 61.6245 73.2979 61.7986 73.2214 61.9685C73.0277 62.4149 72.7925 62.8423 72.5189 63.2449C72.1753 63.7345 71.783 64.1882 71.348 64.5992C70.9103 65.0054 70.4316 65.3653 69.9196 65.6733C69.5006 65.922 69.0589 66.1305 68.6004 66.296C68.4254 66.3615 68.2469 66.4173 68.0657 66.4633C67.9381 66.5037 67.8076 66.5349 67.6755 66.5567C67.5584 66.5882 67.4376 66.6039 67.3164 66.6034C67.3164 66.5645 67.8121 66.4672 68.5692 66.1598C69.0062 65.9801 69.4277 65.7654 69.8298 65.5177C70.8246 64.9013 71.6858 64.0929 72.3628 63.1398C72.6397 62.7528 72.8826 62.3427 73.0887 61.914C73.4438 61.1862 73.5687 60.692 73.6078 60.7037Z" fill="white"/>
<path d="M66.0948 55.5978C65.9131 55.6969 65.7239 55.7814 65.5289 55.8508C65.162 56.0064 64.6156 56.201 63.9326 56.4151C63.2496 56.6291 62.4261 56.8393 61.4973 57.0299C59.4811 57.43 57.423 57.5803 55.3698 57.4775C54.5321 57.4362 53.6971 57.3517 52.8681 57.2245C52.1617 57.1117 51.5958 56.9988 51.2055 56.8976C51.0018 56.8602 50.8019 56.8042 50.6084 56.7303C50.8162 56.7446 51.0224 56.7758 51.225 56.8237C51.6153 56.8976 52.1851 56.991 52.8876 57.0805C53.5902 57.17 54.4488 57.2518 55.3776 57.2907C56.3965 57.3271 57.4165 57.3103 58.4336 57.2401C59.4491 57.1626 60.46 57.0327 61.4621 56.8509C62.3832 56.6719 63.2106 56.4618 63.8936 56.2789C64.5766 56.0959 65.1269 55.913 65.5016 55.7807C65.694 55.7037 65.8924 55.6425 66.0948 55.5978Z" fill="white"/>
<path d="M81.4292 72.5226C81.4962 72.6442 81.5436 72.7755 81.5697 72.9118C81.6631 73.2802 81.7193 73.657 81.7375 74.0365C81.7515 75.2888 81.6206 76.5385 81.3472 77.7608C81.2405 78.4442 81.0626 79.1146 80.8164 79.7611C80.6096 80.2932 80.3022 80.7807 79.911 81.1972C79.6477 81.4792 79.3323 81.7078 78.9821 81.8704C78.8613 81.9366 78.7287 81.9789 78.5918 81.995C79.0524 81.7768 79.467 81.473 79.8134 81.0999C80.1764 80.6848 80.4607 80.2075 80.6525 79.6911C80.8822 79.052 81.0508 78.3927 81.156 77.7219C81.4218 76.5131 81.5695 75.2815 81.597 74.0443C81.5701 73.5343 81.5141 73.0263 81.4292 72.5226Z" fill="white"/>
<path d="M89.2658 73.5345C89.2307 73.5345 89.0473 73.1453 88.6414 72.546C88.1028 71.778 87.4346 71.1091 86.6665 70.569C85.8948 70.0344 85.0348 69.6392 84.1258 69.4015C83.4272 69.2225 82.955 69.1914 82.9784 69.1564C83.0841 69.1364 83.1927 69.1364 83.2984 69.1564C83.5874 69.1708 83.8747 69.2098 84.157 69.2731C84.5809 69.3634 84.9951 69.4937 85.3942 69.6623C86.3754 70.0668 87.2559 70.6805 87.974 71.4602C88.2646 71.7772 88.5259 72.1198 88.7546 72.4837C88.9076 72.7311 89.0382 72.9916 89.1448 73.2621C89.1988 73.3462 89.2396 73.4381 89.2658 73.5345Z" fill="white"/>
<g opacity="0.3">
<path d="M66.3211 93.9268C66.4145 93.881 66.4969 93.8156 66.5626 93.7351C66.6283 93.6545 66.6757 93.5608 66.7017 93.4602C66.7276 93.3597 66.7315 93.2547 66.7129 93.1525C66.6944 93.0504 66.6539 92.9534 66.5943 92.8683C66.4486 92.7229 66.2718 92.6123 66.0771 92.5449C65.8824 92.4775 65.6749 92.455 65.4702 92.4791C63.4525 92.5181 61.6923 93.8646 59.7097 94.2265C58.2032 94.4989 56.646 94.1915 55.1785 93.7478C53.711 93.3042 52.2787 92.7243 50.7722 92.4402C50.4606 92.3606 50.135 92.3526 49.8199 92.4169C49.6625 92.4514 49.5185 92.5309 49.4056 92.6456C49.2926 92.7603 49.2156 92.9053 49.1838 93.0629C49.1447 93.3781 49.2189 93.6155 49.695 93.7751C49.695 93.7751 54.6867 95.1605 58.2812 95.106C60.9955 94.9983 63.6906 94.6031 66.3211 93.9268Z" fill="black"/>
</g>
<path d="M158.768 141.919C158.768 141.919 161.379 140.963 162.056 143.735C162.734 146.507 164.667 145.797 165.035 145.186C165.758 143.989 165.858 139.654 164.617 139.393C163.113 139.078 159.269 140.652 158.768 141.919Z" fill="#81CEC3"/>
<g opacity="0.4">
<path d="M158.768 141.915C158.768 141.915 161.379 140.959 162.056 143.731C162.734 146.503 164.667 145.793 165.035 145.182C165.758 143.985 165.858 139.65 164.617 139.389C163.113 139.074 159.269 140.648 158.768 141.915Z" fill="#1E919E"/>
</g>
<path d="M164.599 139.393C161.536 139.435 160.725 142.134 160.231 144.514L159.235 142.667L159.94 145.977C159.863 146.341 159.787 146.675 159.695 146.963C159.453 147.668 159.057 148.31 158.536 148.842C158.015 149.373 157.381 149.781 156.682 150.035C156.682 150.035 156.544 149.082 156.422 147.731L157.539 145.973L156.326 146.483C156.192 144.387 156.173 141.877 156.682 140.429C157.666 137.654 160.307 138.51 160.307 138.51L164.599 139.393Z" fill="#41CBD6"/>
<path d="M172.232 136.477C172.232 136.477 170.624 135.989 168.94 138.297C167.32 140.515 166.673 140.777 165.575 139.913C164.476 139.049 165.138 134.212 166.382 133.951C167.864 133.64 171.708 135.214 172.232 136.477Z" fill="#81CEC3"/>
<g opacity="0.4">
<path d="M172.232 136.479C172.232 136.479 170.624 135.991 168.94 138.298C167.32 140.517 166.673 140.778 165.575 139.915C164.476 139.051 165.138 134.214 166.382 133.953C167.864 133.642 171.708 135.216 172.232 136.479Z" fill="#1E919E"/>
</g>
<path d="M177.397 149.082C176.055 148.59 174.884 147.716 174.028 146.568L175.801 142.399L173.37 145.435C173.263 145.202 173.172 144.963 173.098 144.717C172.045 141.374 172.26 134.11 166.207 134.022L172.229 132.647C172.229 132.647 175.996 131.427 177.401 135.388C177.78 136.651 177.981 137.96 177.998 139.277L175.805 137.243C175.805 137.243 177.336 139.454 178.021 140.375C178.003 143.288 177.795 146.197 177.397 149.082Z" fill="#41CBD6"/>
<path d="M156.911 130.045C156.911 130.045 159.526 129.089 160.204 131.865C160.881 134.64 164.281 135.704 164.633 134.345C165.016 132.897 164.181 127.742 162.937 127.48C161.448 127.17 157.436 128.782 156.911 130.045Z" fill="#81CEC3"/>
<g opacity="0.4">
<path d="M156.911 130.045C156.911 130.045 159.526 129.089 160.204 131.865C160.881 134.64 164.281 135.704 164.633 134.345C165.016 132.897 164.181 127.742 162.937 127.48C161.448 127.17 157.436 128.782 156.911 130.045Z" fill="#1E919E"/>
</g>
<path d="M163.048 127.505C158.098 127.577 157.267 132.495 156.54 136.123L154.017 132.472C154.048 132.58 155.384 136.933 155.905 138.657C154.756 141.705 151.732 142.65 151.732 142.65C151.732 142.65 150.893 136.826 151.161 132.353L153.206 130.645L151.272 131.125C151.346 130.387 151.5 129.66 151.732 128.956C153.137 124.998 156.908 126.218 156.908 126.218L163.048 127.505Z" fill="#41CBD6"/>
<path d="M165.016 151.747C164.97 151.741 164.929 151.718 164.9 151.682C164.872 151.646 164.858 151.601 164.863 151.555C165.841 142.031 164.941 132.406 162.213 123.23C162.199 123.187 162.202 123.139 162.222 123.097C162.242 123.056 162.277 123.023 162.321 123.008C162.364 122.994 162.411 122.998 162.452 123.019C162.493 123.04 162.524 123.076 162.539 123.119C162.585 123.246 166.903 136.218 165.18 151.593C165.176 151.634 165.157 151.673 165.126 151.701C165.096 151.729 165.057 151.745 165.016 151.747Z" fill="#59B6B4"/>
<path d="M171.678 150.634H158.428V152.496H171.678V150.634Z" fill="#263238"/>
<path opacity="0.2" d="M171.678 150.634H158.428V152.496H171.678V150.634Z" fill="white"/>
<path d="M169.537 152.496H160.494C159.411 155.022 155.9 162.477 155.9 164.677C155.9 167.284 159.139 172.712 159.139 172.712C159.139 173.096 170.896 173.096 170.896 172.712C170.896 172.712 174.135 167.284 174.135 164.677C174.135 162.477 170.636 155.022 169.537 152.496Z" fill="#707071"/>
<path d="M186.879 173.852C186.879 173.91 149.966 173.953 104.443 173.953C58.9207 173.953 22 173.91 22 173.852C22 173.794 58.9051 173.751 104.443 173.751C149.981 173.751 186.879 173.798 186.879 173.852Z" fill="#81CEC3"/>
<path d="M83.7402 102.002V97.1016H85.7702C86.7152 97.1016 87.3802 97.7736 87.3802 98.6416C87.3802 99.1946 87.1422 99.5306 86.9112 99.7476C86.7712 99.8736 86.6172 99.9716 86.4422 100.042L87.5552 102.002H86.6802L85.6652 100.182H84.5102V102.002H83.7402ZM84.5102 99.4816H85.7702C86.2672 99.4816 86.6102 99.1386 86.6102 98.6416C86.6102 98.1446 86.2672 97.8016 85.7702 97.8016H84.5102V99.4816Z" fill="#81CEC3"/>
<path d="M90.8499 100.952L91.2699 101.442C91.1789 101.561 91.0599 101.666 90.9199 101.757C90.6749 101.918 90.3319 102.072 89.8349 102.072C88.8549 102.072 88.0849 101.302 88.0849 100.322C88.0849 99.3416 88.8549 98.5716 89.7999 98.5716C90.7519 98.5716 91.4449 99.2646 91.4449 100.217C91.4449 100.322 91.4309 100.406 91.4239 100.469L91.4099 100.567H88.8199C88.8969 101.022 89.3029 101.407 89.8699 101.407C90.1709 101.407 90.4159 101.295 90.5839 101.183C90.6819 101.12 90.7729 101.043 90.8499 100.952ZM88.8199 99.9716H90.7099C90.6049 99.5166 90.2969 99.2016 89.7999 99.2016C89.2679 99.2016 88.9599 99.5166 88.8199 99.9716Z" fill="#81CEC3"/>
<path d="M91.8969 101.442L92.3519 100.987C92.4219 101.078 92.4989 101.155 92.5899 101.218C92.7509 101.33 92.9539 101.442 93.2269 101.442C93.6189 101.442 93.8219 101.239 93.8219 101.022C93.8219 100.462 92.0369 100.749 92.0369 99.5516C92.0369 99.0266 92.4989 98.5716 93.2619 98.5716C93.6609 98.5716 93.9619 98.6906 94.1579 98.8026C94.2769 98.8656 94.3749 98.9426 94.4519 99.0266L93.9969 99.4816C93.9409 99.4326 93.8779 99.3836 93.8009 99.3416C93.6679 99.2646 93.4859 99.2016 93.2619 99.2016C92.9049 99.2016 92.7369 99.3766 92.7369 99.5516C92.7369 100.112 94.5219 99.8316 94.5219 101.022C94.5219 101.582 94.0389 102.072 93.2269 102.072C92.7789 102.072 92.4569 101.918 92.2329 101.757C92.0999 101.666 91.9879 101.561 91.8969 101.442Z" fill="#81CEC3"/>
<path d="M97.8089 100.952L98.2289 101.442C98.1379 101.561 98.0189 101.666 97.8789 101.757C97.6339 101.918 97.2909 102.072 96.7939 102.072C95.8139 102.072 95.0439 101.302 95.0439 100.322C95.0439 99.3416 95.8139 98.5716 96.7589 98.5716C97.7109 98.5716 98.4039 99.2646 98.4039 100.217C98.4039 100.322 98.3899 100.406 98.3829 100.469L98.3689 100.567H95.7789C95.8559 101.022 96.2619 101.407 96.8289 101.407C97.1299 101.407 97.3749 101.295 97.5429 101.183C97.6409 101.12 97.7319 101.043 97.8089 100.952ZM95.7789 99.9716H97.6689C97.5639 99.5166 97.2559 99.2016 96.7589 99.2016C96.2269 99.2016 95.9189 99.5166 95.7789 99.9716Z" fill="#81CEC3"/>
<path d="M99.5209 100.952V99.3066H98.8909V98.6416H99.2759C99.4929 98.6416 99.5909 98.5366 99.5909 98.2566V97.5216H100.221V98.6416H100.991V99.3066H100.221V100.882C100.221 101.232 100.382 101.407 100.711 101.407C100.816 101.407 100.907 101.386 100.984 101.358L101.096 101.302V101.967L100.949 102.023C100.858 102.051 100.732 102.072 100.571 102.072C99.8989 102.072 99.5209 101.687 99.5209 100.952Z" fill="#81CEC3"/>
<path d="M103.612 102.002V97.1016H105.257C106.692 97.1016 107.812 98.2286 107.812 99.5516C107.812 100.875 106.692 102.002 105.257 102.002H103.612ZM104.382 101.302H105.257C106.272 101.302 107.042 100.532 107.042 99.5516C107.042 98.5716 106.272 97.8016 105.257 97.8016H104.382V101.302Z" fill="#81CEC3"/>
<path d="M111.241 100.952L111.661 101.442C111.57 101.561 111.451 101.666 111.311 101.757C111.066 101.918 110.723 102.072 110.226 102.072C109.246 102.072 108.476 101.302 108.476 100.322C108.476 99.3416 109.246 98.5716 110.191 98.5716C111.143 98.5716 111.836 99.2646 111.836 100.217C111.836 100.322 111.822 100.406 111.815 100.469L111.801 100.567H109.211C109.288 101.022 109.694 101.407 110.261 101.407C110.562 101.407 110.807 101.295 110.975 101.183C111.073 101.12 111.164 101.043 111.241 100.952ZM109.211 99.9716H111.101C110.996 99.5166 110.688 99.2016 110.191 99.2016C109.659 99.2016 109.351 99.5166 109.211 99.9716Z" fill="#81CEC3"/>
<path d="M113.513 102.002L112.183 98.6416H112.953L113.898 101.127L114.843 98.6416H115.613L114.283 102.002H113.513Z" fill="#81CEC3"/>
<path d="M116.207 102.002V98.6416H116.907V102.002H116.207ZM116.137 97.5916C116.137 97.3466 116.34 97.1716 116.557 97.1716C116.774 97.1716 116.977 97.3466 116.977 97.5916C116.977 97.8366 116.774 98.0116 116.557 98.0116C116.34 98.0116 116.137 97.8366 116.137 97.5916Z" fill="#81CEC3"/>
<path d="M120.407 100.917L120.897 101.372C120.792 101.505 120.673 101.617 120.533 101.722C120.288 101.897 119.938 102.072 119.462 102.072C118.482 102.072 117.712 101.302 117.712 100.322C117.712 99.3416 118.482 98.5716 119.462 98.5716C119.938 98.5716 120.288 98.7396 120.519 98.9076C120.652 99.0056 120.771 99.1176 120.862 99.2366L120.372 99.6916C120.309 99.6076 120.232 99.5306 120.141 99.4676C119.98 99.3556 119.763 99.2366 119.462 99.2366C118.867 99.2366 118.412 99.6846 118.412 100.322C118.412 100.959 118.867 101.407 119.462 101.407C119.763 101.407 119.994 101.295 120.155 101.162C120.246 101.092 120.33 101.008 120.407 100.917Z" fill="#81CEC3"/>
<path d="M124.045 100.952L124.465 101.442C124.374 101.561 124.255 101.666 124.115 101.757C123.87 101.918 123.527 102.072 123.03 102.072C122.05 102.072 121.28 101.302 121.28 100.322C121.28 99.3416 122.05 98.5716 122.995 98.5716C123.947 98.5716 124.64 99.2646 124.64 100.217C124.64 100.322 124.626 100.406 124.619 100.469L124.605 100.567H122.015C122.092 101.022 122.498 101.407 123.065 101.407C123.366 101.407 123.611 101.295 123.779 101.183C123.877 101.12 123.968 101.043 124.045 100.952ZM122.015 99.9716H123.905C123.8 99.5166 123.492 99.2016 122.995 99.2016C122.463 99.2016 122.155 99.5166 122.015 99.9716Z" fill="#81CEC3"/>
<path d="M125.092 101.442L125.547 100.987C125.617 101.078 125.694 101.155 125.785 101.218C125.946 101.33 126.149 101.442 126.422 101.442C126.814 101.442 127.017 101.239 127.017 101.022C127.017 100.462 125.232 100.749 125.232 99.5516C125.232 99.0266 125.694 98.5716 126.457 98.5716C126.856 98.5716 127.157 98.6906 127.353 98.8026C127.472 98.8656 127.57 98.9426 127.647 99.0266L127.192 99.4816C127.136 99.4326 127.073 99.3836 126.996 99.3416C126.863 99.2646 126.681 99.2016 126.457 99.2016C126.1 99.2016 125.932 99.3766 125.932 99.5516C125.932 100.112 127.717 99.8316 127.717 101.022C127.717 101.582 127.234 102.072 126.422 102.072C125.974 102.072 125.652 101.918 125.428 101.757C125.295 101.666 125.183 101.561 125.092 101.442Z" fill="#81CEC3"/>
</svg>
