<svg width="277" height="199" viewBox="0 0 277 199" fill="none" xmlns="http://www.w3.org/2000/svg">
<g clip-path="url(#clip0_1048_24933)">
<path opacity="0.11" d="M248.937 199C274.733 190.714 274.988 171.23 265.544 152.387C245.086 111.576 259.724 115.343 273.419 86.3978C290.222 50.8896 243.982 37.783 215.759 52.3835C161.339 80.5354 153.36 48.4557 131.728 29.5693C99.0594 1.04387 30.2253 12.7405 40.7742 56.2665C55.5024 117.031 4.69718 101.365 -0.661751 152.388C-3.684 181.16 14.1855 193.685 27.459 198.986C55.0068 197.926 94.3378 197.261 138.004 197.261C181.877 197.261 221.373 197.931 248.937 199Z" fill="#00937D"/>
<path d="M14.2634 68.3536L14.617 68L14.2634 67.6464L12.7865 66.1695L12.4329 66.523L12.7865 66.1695C12.6956 66.0787 12.6236 65.9709 12.5745 65.8522C12.5253 65.7335 12.5 65.6064 12.5 65.478C12.5 65.3496 12.5253 65.2224 12.5745 65.1037C12.6236 64.9851 12.6956 64.8773 12.7865 64.7864C12.8773 64.6956 12.9851 64.6236 13.1037 64.5744C13.2224 64.5253 13.3495 64.5 13.478 64.5C13.6064 64.5 13.7336 64.5253 13.8522 64.5744C13.9709 64.6236 14.0787 64.6956 14.1695 64.7864L15.6464 66.2634L16 66.617L16.3536 66.2634L17.8305 64.7864L17.477 64.4329L17.8305 64.7864C18.0139 64.603 18.2627 64.5 18.522 64.5C18.6505 64.5 18.7776 64.5253 18.8963 64.5744C19.0149 64.6236 19.1228 64.6956 19.2136 64.7864C19.397 64.9698 19.5 65.2186 19.5 65.478C19.5 65.7373 19.397 65.9861 19.2136 66.1695L19.2135 66.1696L17.7373 67.6465L17.3841 68L17.7373 68.3535L19.2135 69.8304L19.2136 69.8305C19.3044 69.9213 19.3764 70.0291 19.4256 70.1478C19.4747 70.2664 19.5 70.3936 19.5 70.522C19.5 70.6505 19.4747 70.7777 19.4256 70.8963C19.3764 71.0149 19.3044 71.1227 19.2136 71.2136C19.1228 71.3044 19.0149 71.3764 18.8963 71.4256C18.7776 71.4747 18.6505 71.5 18.522 71.5C18.2627 71.5 18.0139 71.397 17.8305 71.2136L17.477 71.5671L17.8305 71.2136L16.3536 69.7366L16 69.3831L15.6464 69.7366L14.1695 71.2136C14.0787 71.3044 13.9709 71.3764 13.8522 71.4256C13.7336 71.4747 13.6064 71.5 13.478 71.5C13.3495 71.5 13.2224 71.4747 13.1037 71.4256C12.9851 71.3764 12.8773 71.3044 12.7865 71.2136C12.6956 71.1227 12.6236 71.0149 12.5745 70.8963C12.5253 70.7776 12.5 70.6504 12.5 70.522C12.5 70.3936 12.5253 70.2665 12.5745 70.1478L12.1125 69.9564L12.5745 70.1478C12.6236 70.0291 12.6956 69.9213 12.7865 69.8305L12.4329 69.477L12.7865 69.8305L14.2634 68.3536Z" fill="#94CFC7" stroke="white"/>
<path d="M190.263 29.3536L190.617 29L190.263 28.6464L188.786 27.1695L188.433 27.523L188.786 27.1695C188.696 27.0787 188.624 26.9709 188.574 26.8522C188.525 26.7335 188.5 26.6064 188.5 26.478C188.5 26.3496 188.525 26.2224 188.574 26.1037C188.624 25.9851 188.696 25.8773 188.786 25.7864C188.877 25.6956 188.985 25.6236 189.104 25.5744C189.222 25.5253 189.35 25.5 189.478 25.5C189.606 25.5 189.734 25.5253 189.852 25.5744C189.971 25.6236 190.079 25.6956 190.169 25.7864L191.646 27.2634L192 27.617L192.354 27.2634L193.831 25.7864L193.477 25.4329L193.831 25.7864C194.014 25.603 194.263 25.5 194.522 25.5C194.65 25.5 194.778 25.5253 194.896 25.5744C195.015 25.6236 195.123 25.6956 195.214 25.7864C195.397 25.9698 195.5 26.2186 195.5 26.478C195.5 26.7373 195.397 26.9861 195.214 27.1695L195.213 27.1696L193.737 28.6465L193.384 29L193.737 29.3535L195.213 30.8304L195.214 30.8305C195.304 30.9213 195.376 31.0291 195.426 31.1478C195.475 31.2664 195.5 31.3936 195.5 31.522C195.5 31.6505 195.475 31.7777 195.426 31.8963C195.376 32.0149 195.304 32.1227 195.214 32.2136C195.123 32.3044 195.015 32.3764 194.896 32.4256C194.778 32.4747 194.65 32.5 194.522 32.5C194.263 32.5 194.014 32.397 193.831 32.2136L193.477 32.5671L193.831 32.2136L192.354 30.7366L192 30.3831L191.646 30.7366L190.169 32.2136C190.079 32.3044 189.971 32.3764 189.852 32.4256C189.734 32.4747 189.606 32.5 189.478 32.5C189.35 32.5 189.222 32.4747 189.104 32.4256C188.985 32.3764 188.877 32.3044 188.786 32.2136C188.696 32.1227 188.624 32.0149 188.574 31.8963C188.525 31.7776 188.5 31.6504 188.5 31.522C188.5 31.3936 188.525 31.2665 188.574 31.1478L188.113 30.9564L188.574 31.1478C188.624 31.0291 188.696 30.9213 188.786 30.8305L188.433 30.477L188.786 30.8305L190.263 29.3536Z" fill="#94CFC7" stroke="white"/>
<path d="M273.263 132.354L273.617 132L273.263 131.646L271.786 130.169L271.433 130.523L271.786 130.169C271.696 130.079 271.624 129.971 271.574 129.852C271.525 129.734 271.5 129.606 271.5 129.478C271.5 129.35 271.525 129.222 271.574 129.104C271.624 128.985 271.696 128.877 271.786 128.786C271.877 128.696 271.985 128.624 272.104 128.574C272.222 128.525 272.35 128.5 272.478 128.5C272.606 128.5 272.734 128.525 272.852 128.574C272.971 128.624 273.079 128.696 273.169 128.786L274.646 130.263L275 130.617L275.354 130.263L276.831 128.786L276.477 128.433L276.831 128.786C277.014 128.603 277.263 128.5 277.522 128.5C277.65 128.5 277.778 128.525 277.896 128.574C278.015 128.624 278.123 128.696 278.214 128.786C278.397 128.97 278.5 129.219 278.5 129.478C278.5 129.737 278.397 129.986 278.214 130.169L278.213 130.17L276.737 131.647L276.384 132L276.737 132.353L278.213 133.83L278.214 133.831C278.304 133.921 278.376 134.029 278.426 134.148C278.475 134.266 278.5 134.394 278.5 134.522C278.5 134.65 278.475 134.778 278.426 134.896C278.376 135.015 278.304 135.123 278.214 135.214C278.123 135.304 278.015 135.376 277.896 135.426C277.778 135.475 277.65 135.5 277.522 135.5C277.263 135.5 277.014 135.397 276.831 135.214L276.477 135.567L276.831 135.214L275.354 133.737L275 133.383L274.646 133.737L273.169 135.214C273.079 135.304 272.971 135.376 272.852 135.426C272.734 135.475 272.606 135.5 272.478 135.5C272.35 135.5 272.222 135.475 272.104 135.426C271.985 135.376 271.877 135.304 271.786 135.214C271.696 135.123 271.624 135.015 271.574 134.896C271.525 134.778 271.5 134.65 271.5 134.522C271.5 134.394 271.525 134.266 271.574 134.148L271.113 133.956L271.574 134.148C271.624 134.029 271.696 133.921 271.786 133.831L271.433 133.477L271.786 133.831L273.263 132.354Z" fill="#94CFC7" stroke="white"/>
<path d="M76.0003 33.5C76.6924 33.5001 77.369 33.7053 77.9445 34.0899C78.5201 34.4744 78.9687 35.0211 79.2336 35.6606C79.4985 36.3001 79.5678 37.0039 79.4327 37.6828C79.2977 38.3617 78.9643 38.9854 78.4749 39.4749C77.9854 39.9644 77.3617 40.2977 76.6828 40.4327C76.0039 40.5678 75.3001 40.4985 74.6606 40.2336C74.0211 39.9687 73.4744 39.5201 73.0899 38.9445C72.7053 38.369 72.5001 37.6924 72.5 37.0003C72.5011 36.0723 72.8702 35.1826 73.5264 34.5264C74.1826 33.8702 75.0723 33.5011 76.0003 33.5ZM76 38.7614C76.3482 38.7614 76.6886 38.6581 76.9782 38.4647C77.2677 38.2712 77.4934 37.9962 77.6266 37.6745C77.7599 37.3528 77.7948 36.9988 77.7268 36.6573C77.6589 36.3157 77.4912 36.002 77.245 35.7558C76.9987 35.5095 76.685 35.3418 76.3435 35.2739C76.0019 35.206 75.6479 35.2408 75.3262 35.3741C75.0045 35.5074 74.7295 35.733 74.5361 36.0226C74.3426 36.3121 74.2393 36.6525 74.2393 37.0007C74.2393 37.4677 74.4248 37.9155 74.755 38.2457C75.0852 38.5759 75.5331 38.7614 76 38.7614Z" fill="#94CFC7" stroke="#E3F3F1"/>
<path d="M243 64.5C243.692 64.5001 244.369 64.7053 244.944 65.0899C245.52 65.4744 245.969 66.0211 246.234 66.6606C246.498 67.3001 246.568 68.0039 246.433 68.6828C246.298 69.3617 245.964 69.9854 245.475 70.4749C244.985 70.9644 244.362 71.2977 243.683 71.4327C243.004 71.5678 242.3 71.4985 241.661 71.2336C241.021 70.9687 240.474 70.5201 240.09 69.9445C239.705 69.369 239.5 68.6924 239.5 68.0003C239.501 67.0723 239.87 66.1826 240.526 65.5264C241.183 64.8702 242.072 64.5011 243 64.5ZM243 69.7614C243.348 69.7614 243.689 69.6581 243.978 69.4647C244.268 69.2712 244.493 68.9962 244.627 68.6745C244.76 68.3528 244.795 67.9988 244.727 67.6573C244.659 67.3157 244.491 67.002 244.245 66.7558C243.999 66.5095 243.685 66.3418 243.343 66.2739C243.002 66.206 242.648 66.2408 242.326 66.3741C242.005 66.5074 241.73 66.733 241.536 67.0226C241.343 67.3121 241.239 67.6525 241.239 68.0007C241.239 68.4677 241.425 68.9155 241.755 69.2457C242.085 69.5759 242.533 69.7614 243 69.7614Z" fill="#94CFC7" stroke="#E3F3F1"/>
<path d="M24.0003 120.5C24.6924 120.5 25.369 120.705 25.9445 121.09C26.5201 121.474 26.9687 122.021 27.2336 122.661C27.4985 123.3 27.5678 124.004 27.4327 124.683C27.2977 125.362 26.9643 125.985 26.4749 126.475C25.9854 126.964 25.3617 127.298 24.6828 127.433C24.0039 127.568 23.3001 127.498 22.6606 127.234C22.0211 126.969 21.4744 126.52 21.0899 125.944C20.7053 125.369 20.5001 124.692 20.5 124C20.5011 123.072 20.8702 122.183 21.5264 121.526C22.1826 120.87 23.0723 120.501 24.0003 120.5ZM24 125.761C24.3482 125.761 24.6886 125.658 24.9782 125.465C25.2677 125.271 25.4934 124.996 25.6266 124.675C25.7599 124.353 25.7948 123.999 25.7268 123.657C25.6589 123.316 25.4912 123.002 25.245 122.756C24.9987 122.51 24.685 122.342 24.3435 122.274C24.0019 122.206 23.6479 122.241 23.3262 122.374C23.0045 122.507 22.7295 122.733 22.5361 123.023C22.3426 123.312 22.2393 123.653 22.2393 124.001C22.2393 124.468 22.4248 124.916 22.755 125.246C23.0852 125.576 23.5331 125.761 24 125.761Z" fill="#94CFC7" stroke="#E3F3F1"/>
<path d="M117.526 197.951C117.367 196.05 117.722 194.142 118.554 192.425C119.386 190.708 120.665 189.245 122.258 188.189C123.85 187.133 125.698 186.523 127.608 186.421C129.517 186.32 131.42 186.732 133.115 187.613C133.936 185.425 134.778 183.198 136.23 181.367C137.681 179.537 139.875 178.132 142.217 178.219V197.951H117.526Z" fill="#DBDBDB"/>
<path d="M52.478 121.51L39.852 146.902L43.6229 147.044L32.9234 167.225H38.5432L29.7788 185.152H78.7667L67.9808 167.225L73.1513 167.001L62.8146 146.833L66.6331 146.605L52.478 121.51Z" fill="#DBDBDB"/>
<path d="M54.6118 150.967C54.6723 150.967 54.5643 161.735 54.3699 174.985C54.1755 188.235 53.9682 199.003 53.9034 198.999C53.8386 198.995 53.9509 188.23 54.1453 174.981C54.3397 161.731 54.547 150.967 54.6118 150.967Z" fill="#BBBBBB"/>
<path d="M60.6162 156.887C60.3735 157.299 60.0975 157.691 59.7911 158.058C59.2598 158.765 58.4953 159.717 57.6314 160.759L55.4284 163.417C55.1383 163.797 54.8222 164.157 54.4824 164.494C54.7216 164.079 54.9962 163.685 55.3031 163.318C55.8388 162.616 56.599 161.659 57.4629 160.617L59.6659 157.959C59.9551 157.578 60.2727 157.22 60.6162 156.887Z" fill="#BBBBBB"/>
<path d="M54.4997 164.494C53.5366 163.884 52.6132 163.214 51.7352 162.487C50.8114 161.816 49.9326 161.085 49.1046 160.299C50.0696 160.908 50.9944 161.579 51.8734 162.306C52.7975 162.975 53.675 163.706 54.4997 164.494Z" fill="#BBBBBB"/>
<path d="M54.158 176.948C53.8266 176.734 53.517 176.489 53.2336 176.215C52.6807 175.746 51.9378 175.1 51.0739 174.402C50.21 173.704 49.4238 173.088 48.8536 172.644C48.53 172.42 48.2265 172.168 47.9465 171.891C48.2991 172.065 48.6334 172.274 48.9443 172.515C49.5448 172.946 50.3525 173.527 51.2164 174.238C52.0803 174.949 52.8276 175.608 53.3546 176.108C53.6489 176.361 53.9179 176.642 54.158 176.948Z" fill="#BBBBBB"/>
<path d="M61.1388 169.25C61.0766 169.374 60.9998 169.489 60.9099 169.595C60.7544 169.806 60.5168 170.103 60.2144 170.456C59.6054 171.175 58.7242 172.132 57.7264 173.17C56.7286 174.208 55.8344 175.138 55.1995 175.832C54.8727 176.219 54.5252 176.589 54.1584 176.939C54.2148 176.814 54.2906 176.699 54.3831 176.598C54.5386 176.383 54.7761 176.086 55.0785 175.737C55.6876 175.013 56.5687 174.057 57.5666 173.023C58.5644 171.99 59.4585 171.051 60.0935 170.357C60.4208 169.969 60.7698 169.599 61.1388 169.25Z" fill="#BBBBBB"/>
<path d="M155.236 150.402H206.422L215.986 136.86L226.011 150.786L237.791 150.596L225.096 133.543L168.022 133.78L155.236 150.402Z" fill="#E0E0E0"/>
<path d="M180.833 150.6V198.072H231.946V150.6H226.089L215.986 136.863L206.392 150.393L180.833 150.6Z" fill="#FCFCFC"/>
<path d="M200.012 177.488H188.055V198.069H200.012V177.488Z" fill="#E0E0E0"/>
<path d="M226.011 176.908H207.178V188.543H226.011V176.908Z" fill="#E0E0E0"/>
<path d="M212.832 176.908H212.4V188.65H212.832V176.908Z" fill="#DBDBDB"/>
<path d="M220.663 176.908H220.231V188.65H220.663V176.908Z" fill="#DBDBDB"/>
<path d="M220.448 182.92H212.616V183.351H220.448V182.92Z" fill="#DBDBDB"/>
<path d="M226.011 153.625H207.178V165.259H226.011V153.625Z" fill="#E0E0E0"/>
<path d="M212.832 153.625H212.4V165.367H212.832V153.625Z" fill="#DBDBDB"/>
<path d="M220.663 153.625H220.231V165.367H220.663V153.625Z" fill="#DBDBDB"/>
<path d="M220.448 159.637H212.616V160.067H220.448V159.637Z" fill="#DBDBDB"/>
<path d="M198.763 153.73H186.885V164.947H198.763V153.73Z" fill="#E0E0E0"/>
<path d="M180.837 150.598H160.091V198.066H180.837V150.598Z" fill="#E0E0E0"/>
<path d="M193.04 153.73H192.608V164.947H193.04V153.73Z" fill="#DBDBDB"/>
<path d="M198.763 159.396H186.885V159.827H198.763V159.396Z" fill="#DBDBDB"/>
<path d="M215.959 148.437C217.35 148.437 218.478 147.312 218.478 145.925C218.478 144.538 217.35 143.414 215.959 143.414C214.568 143.414 213.441 144.538 213.441 145.925C213.441 147.312 214.568 148.437 215.959 148.437Z" fill="#E0E0E0"/>
<path d="M197.995 142.846L201.174 138.934V129.531H194.517V142.919L197.995 142.846Z" fill="#FCFCFC"/>
<path d="M197.994 142.846V129.531H201.174V138.934L197.994 142.846Z" fill="#DBDBDB"/>
<path d="M201.619 128.146H193.774V129.529H201.619V128.146Z" fill="#DBDBDB"/>
<path d="M180.833 171.365H142.234V198.071H180.833V171.365Z" fill="#FCFCFC"/>
<path d="M166.401 171.365H142.234V198.071H166.401V171.365Z" fill="#E0E0E0"/>
<path d="M162.803 179.977H146.998V198.025H162.803V179.977Z" fill="#FCFCFC"/>
<path d="M178.708 179.902H168.527V182.487H178.708V179.902Z" fill="#DBDBDB"/>
<path d="M155.235 150.404V151.778H206.392V150.391L155.235 150.404Z" fill="#DBDBDB"/>
<path d="M206.392 151.78L215.959 138.388L215.985 136.863L206.422 150.406L206.392 151.78Z" fill="#DBDBDB"/>
<path d="M237.544 150.598H226.089V151.485H237.544V150.598Z" fill="#DBDBDB"/>
<path d="M195.934 174.338H191.705V175.94H195.934V174.338Z" fill="#E0E0E0"/>
<path d="M259.319 198.072C259.319 198.132 201.265 198.184 129.664 198.184C58.0632 198.184 0 198.132 0 198.072C0 198.011 58.0416 197.951 129.66 197.951C201.277 197.951 259.319 198.007 259.319 198.072Z" fill="#5FB8AB"/>
<path d="M159.002 73.1261C149.434 60.0013 135.525 53.8848 120.99 53.8848C120.99 53.8848 85.4444 53.8848 74.9177 85.6176C71.0301 97.3123 71.894 110.011 76.6023 121.399C78.37 125.729 80.5971 129.857 83.2457 133.714C92.442 146.938 121.02 183.039 121.02 183.039H127.232C135.205 171.995 155.278 135.308 161.291 123.545C168.829 108.783 169.986 88.1935 159.002 73.1261ZM126.938 131.823C120.932 131.823 115.061 130.047 110.067 126.72C105.073 123.392 101.181 118.663 98.8826 113.129C96.5844 107.596 95.9833 101.507 97.1553 95.6331C98.3274 89.7589 101.22 84.3633 105.467 80.1286C109.714 75.8939 115.126 73.0102 121.016 71.8423C126.907 70.6744 133.013 71.2746 138.562 73.5672C144.11 75.8598 148.852 79.7417 152.189 84.722C155.525 89.7023 157.305 95.5573 157.304 101.547C157.303 109.577 154.103 117.278 148.409 122.956C142.714 128.634 134.991 131.823 126.938 131.823Z" fill="#5FB8AB" fill-opacity="0.6"/>
<path d="M165.252 73.3757C155.684 60.2552 141.775 54.1387 127.24 54.1387C127.24 54.1387 91.6945 54.1387 81.1678 85.8715C77.2803 97.5662 78.1442 110.265 82.8568 121.653C84.6221 125.983 86.8478 130.112 89.4959 133.968C98.6922 147.188 127.257 183.306 127.257 183.306C127.257 183.306 160.263 138.03 167.528 123.816C175.079 109.028 176.241 88.4474 165.252 73.3757ZM126.977 132.077C120.971 132.077 115.1 130.301 110.106 126.974C105.112 123.647 101.22 118.917 98.9217 113.384C96.6233 107.851 96.022 101.763 97.1937 95.8885C98.3654 90.0146 101.257 84.619 105.504 80.384C109.751 76.1491 115.162 73.2651 121.052 72.0967C126.943 70.9283 133.049 71.528 138.597 73.8199C144.146 76.1118 148.889 79.993 152.225 84.9728C155.562 89.9525 157.343 95.8071 157.343 101.796C157.373 105.781 156.608 109.732 155.092 113.419C153.577 117.107 151.341 120.457 148.515 123.275C145.69 126.092 142.33 128.322 138.632 129.833C134.935 131.344 130.973 132.107 126.977 132.077Z" fill="#5FB8AB"/>
<path d="M126.938 71.2676C120.663 71.2675 114.542 73.2061 109.416 76.8168C104.291 80.4274 100.413 85.5327 98.3167 91.4307C100.66 86.2671 104.634 82.0107 109.631 79.3119C114.629 76.6132 120.376 75.6206 125.992 76.486C131.609 77.3514 136.787 80.0271 140.735 84.1041C144.683 88.1811 147.184 93.4351 147.854 99.063C148.525 104.691 147.33 110.383 144.45 115.269C141.571 120.156 137.166 123.967 131.909 126.122C126.653 128.276 120.833 128.655 115.34 127.199C109.847 125.744 104.983 122.535 101.492 118.064C104.362 122.46 108.328 126.037 113.002 128.445C117.676 130.852 122.897 132.008 128.154 131.797C133.41 131.587 138.522 130.018 142.987 127.245C147.453 124.471 151.119 120.589 153.627 115.977C156.135 111.365 157.398 106.183 157.292 100.938C157.187 95.6932 155.717 90.5655 153.026 86.0577C150.335 81.5499 146.516 77.8167 141.942 75.2239C137.369 72.6312 132.199 71.2678 126.938 71.2676Z" fill="#00937D"/>
<path d="M187.485 115.432C186.263 114.595 184.781 114.223 183.308 114.385C180.82 114.669 177.213 115.035 177.213 115.035V115.152L159.792 116.22L154.458 105.43L146.376 110.741C146.376 110.741 147.438 112.438 151.97 120.781C152.854 122.41 154.218 123.728 155.879 124.559C157.539 125.389 159.414 125.692 161.252 125.425L181.766 122.41V122.371C183.887 122.255 186.18 122.056 186.517 121.751C187.156 121.173 187.735 119.063 187.735 119.063C187.735 119.063 191.39 121.216 192.094 121.277C192.798 121.337 192.927 120.738 193.364 120.118C193.675 119.735 189.908 117.077 187.485 115.432Z" fill="#FFBE9D"/>
<path d="M155.546 104.739C155.546 104.739 152.159 98.2391 149.067 92.101C145.257 84.5673 136.855 83.0554 136.855 83.0554L124.683 81.4616C124.683 81.4616 114.497 76.8742 105.038 88.2674L97.2625 96.9296L98.9168 98.4157L106.627 105.308L108.152 106.677L111.642 103.094L110.022 112.169L107.159 124.825L113.348 124.079L117.534 98.5578L141.136 100.432L139.253 116.537C139.633 116.481 142.488 115.921 143.417 112.053C143.715 110.819 143.715 109.531 143.417 108.297L144.782 111.782L155.546 104.739Z" fill="#455A64"/>
<path d="M117.504 98.5703L113.318 124.092L107.128 124.837C111.263 128.394 116.284 130.772 121.662 131.72C127.039 132.668 132.574 132.15 137.681 130.221L139.253 116.537L141.106 100.444L117.504 98.5703Z" fill="#263238"/>
<path d="M118.903 80.1955L118.394 100.927L122.316 101.547L122.843 80.5358C122.843 80.5358 121.474 79.8896 118.903 80.1955Z" fill="#263238"/>
<path d="M135.56 101.033L138.804 83.2256C138.989 83.0275 141.65 83.9794 142.454 84.884L139.542 101.403L135.56 101.033Z" fill="#263238"/>
<path d="M122.472 98.4993C122.514 98.6124 122.534 98.7321 122.532 98.8526C122.562 99.1793 122.562 99.5079 122.532 99.8347C122.502 100.336 122.333 100.819 122.044 101.23C121.866 101.476 121.63 101.674 121.357 101.807C121.056 101.943 120.72 101.984 120.394 101.924C120.089 101.859 119.801 101.733 119.547 101.553C119.292 101.373 119.078 101.143 118.917 100.877C118.667 100.447 118.519 99.9648 118.485 99.4685C118.456 99.1418 118.456 98.8132 118.485 98.4864C118.483 98.3642 118.505 98.2427 118.55 98.1289C118.589 98.1289 118.55 98.6458 118.64 99.4513C118.701 99.9086 118.855 100.349 119.094 100.744C119.243 100.981 119.439 101.187 119.67 101.347C119.901 101.508 120.162 101.62 120.437 101.678C120.71 101.726 120.991 101.696 121.247 101.591C121.504 101.485 121.725 101.31 121.884 101.084C122.16 100.704 122.331 100.258 122.381 99.7916C122.476 99.0162 122.429 98.4993 122.472 98.4993Z" fill="#455A64"/>
<path d="M120.156 100.33C119.934 100.242 119.757 100.07 119.662 99.8515C119.568 99.633 119.565 99.386 119.653 99.165C119.741 98.9439 119.914 98.7669 120.133 98.6728C120.352 98.5787 120.6 98.5752 120.821 98.6632C120.931 98.7067 121.031 98.7714 121.116 98.8535C121.201 98.9357 121.268 99.0336 121.315 99.1418C121.362 99.25 121.387 99.3663 121.388 99.4841C121.39 99.6019 121.368 99.7189 121.325 99.8283C121.281 99.9378 121.216 100.038 121.134 100.122C121.051 100.207 120.953 100.274 120.845 100.321C120.736 100.367 120.619 100.392 120.501 100.394C120.383 100.395 120.266 100.374 120.156 100.33Z" fill="#455A64"/>
<path d="M138.609 100.443C138.61 100.621 138.558 100.796 138.459 100.944C138.361 101.093 138.22 101.209 138.055 101.278C137.89 101.346 137.708 101.365 137.533 101.331C137.358 101.296 137.196 101.211 137.07 101.085C136.943 100.96 136.857 100.799 136.821 100.624C136.786 100.45 136.804 100.268 136.872 100.104C136.94 99.9389 137.056 99.798 137.204 99.6989C137.353 99.5998 137.528 99.5469 137.706 99.5469C137.945 99.5469 138.174 99.6411 138.343 99.809C138.513 99.9769 138.608 100.205 138.609 100.443Z" fill="#455A64"/>
<path d="M139.814 99.8193C139.807 100.177 139.738 100.531 139.611 100.866C139.49 101.247 139.285 101.596 139.011 101.887C138.836 102.068 138.622 102.206 138.386 102.293C138.149 102.379 137.896 102.411 137.646 102.387C137.146 102.333 136.684 102.095 136.35 101.719C136.09 101.412 135.917 101.042 135.849 100.646C135.799 100.387 135.79 100.121 135.823 99.8581C135.828 99.7603 135.855 99.6647 135.901 99.5781C135.907 99.9264 135.941 100.274 136.004 100.616C136.089 100.974 136.261 101.306 136.506 101.581C136.81 101.908 137.223 102.115 137.667 102.163C137.887 102.185 138.109 102.159 138.317 102.084C138.525 102.009 138.714 101.889 138.868 101.732C139.13 101.47 139.333 101.156 139.464 100.81C139.689 100.211 139.775 99.8064 139.814 99.8193Z" fill="#455A64"/>
<path d="M120.083 108.357C120.052 108.357 120.04 108.185 120.048 107.927C120.048 107.793 120.048 107.629 120.07 107.453C120.07 107.358 120.07 107.263 120.091 107.173V107.026V106.949V106.876L120.217 106.764C120.724 106.781 121.226 106.872 121.707 107.035C121.202 107.091 120.691 107.074 120.191 106.983C120.165 107.009 120.428 106.772 120.316 106.876V106.94V107.018V107.169C120.316 107.263 120.294 107.354 120.281 107.453C120.281 107.634 120.234 107.793 120.212 107.931C120.156 108.177 120.113 108.357 120.083 108.357Z" fill="#455A64"/>
<path d="M119.452 114.276C119.395 113.779 119.411 113.275 119.5 112.782C119.515 112.28 119.606 111.784 119.767 111.309C119.83 111.806 119.815 112.31 119.724 112.803C119.704 113.305 119.613 113.801 119.452 114.276Z" fill="#455A64"/>
<path d="M120.329 119.412C119.835 119.291 119.362 119.098 118.925 118.839C118.925 118.865 118.809 118.628 118.86 118.727V118.663V118.585V118.435L118.899 118.155C118.925 117.978 118.951 117.814 118.973 117.681C119.025 117.414 119.068 117.25 119.098 117.25C119.128 117.25 119.141 117.427 119.133 117.681C119.133 117.819 119.124 117.978 119.107 118.159C119.107 118.258 119.107 118.348 119.081 118.443V118.59V118.667V118.736C119.137 118.835 119.007 118.598 119.02 118.624C119.493 118.821 119.934 119.087 120.329 119.412Z" fill="#455A64"/>
<path d="M124.32 121.388C123.594 121.2 122.912 120.869 122.316 120.414C122.688 120.475 123.043 120.61 123.361 120.81C123.716 120.938 124.042 121.134 124.32 121.388Z" fill="#455A64"/>
<path d="M129.072 122.478C128.654 122.767 128.195 122.994 127.711 123.15H127.603H127.568L127.499 123.115L127.365 123.046L127.115 122.917L126.683 122.68C126.45 122.542 126.311 122.443 126.324 122.413C126.337 122.383 126.502 122.413 126.756 122.538C126.882 122.59 127.033 122.654 127.188 122.732L127.443 122.853L127.581 122.917L127.651 122.947H127.685H127.612C128.072 122.719 128.564 122.561 129.072 122.478Z" fill="#455A64"/>
<path d="M132.299 121.176C132.32 121.236 131.979 121.426 131.534 121.607C131.089 121.787 130.709 121.887 130.67 121.831C130.631 121.775 130.99 121.581 131.435 121.4C131.88 121.219 132.273 121.12 132.299 121.176Z" fill="#455A64"/>
<path d="M135.469 118.455C135.526 118.959 135.511 119.468 135.426 119.967L135.352 120.062H135.318L135.244 120.092L135.106 120.148L134.843 120.247C134.67 120.307 134.519 120.363 134.385 120.402C134.126 120.488 133.953 120.527 133.953 120.497C133.953 120.467 134.091 120.381 134.333 120.256L134.765 120.053L135.028 119.941L135.167 119.885L135.236 119.855H135.275L135.205 119.95C135.218 119.441 135.306 118.937 135.469 118.455Z" fill="#455A64"/>
<path d="M136.043 112.871C136.1 113.811 136.003 114.754 135.754 115.662C135.694 115.195 135.705 114.722 135.788 114.258C135.8 113.785 135.886 113.317 136.043 112.871Z" fill="#455A64"/>
<path d="M134.985 108.423C135.49 108.367 136.001 108.384 136.501 108.475L136.601 108.595V108.664V108.742V108.888C136.601 108.983 136.579 109.073 136.566 109.168C136.54 109.349 136.519 109.508 136.493 109.646C136.445 109.913 136.398 110.077 136.367 110.077C136.337 110.077 136.328 109.9 136.333 109.646C136.333 109.508 136.333 109.345 136.359 109.164L136.38 108.884V108.733V108.591L136.48 108.712C135.97 108.689 135.466 108.592 134.985 108.423Z" fill="#455A64"/>
<path d="M129.685 107.855C130.579 107.8 131.476 107.896 132.338 108.139C131.893 108.202 131.44 108.192 130.999 108.109C130.55 108.095 130.107 108.009 129.685 107.855Z" fill="#455A64"/>
<path d="M124.385 107.283C124.83 107.22 125.282 107.23 125.724 107.313C126.167 107.329 126.604 107.415 127.02 107.567C126.126 107.622 125.229 107.526 124.368 107.283H124.385Z" fill="#455A64"/>
<path d="M96.6147 99.9851C96.5845 100.502 96.5715 101.023 96.5715 101.549C96.5701 103.595 96.777 105.635 97.1892 107.639V107.7C97.2411 107.95 97.3016 108.195 97.362 108.441C97.5953 109.414 97.8761 110.375 98.1871 111.322C98.2259 111.439 98.2648 111.559 98.308 111.675C99.4224 111.426 102.653 108.634 106.373 105.15L98.6665 98.2578C97.5996 99.3088 96.9646 99.8645 96.6147 99.9851Z" fill="#FFBE9D"/>
<path d="M145.261 55.2461C145.529 58.2225 148.929 60.7295 151.927 60.639C153.577 60.5873 155.248 59.8551 156.834 60.3116C159.494 61.0827 160.57 64.7828 163.313 65.2781C165.352 65.6485 167.231 63.9859 169.3 63.8911C170.82 63.8093 172.254 64.5674 173.516 65.4203C174.777 66.2731 175.978 67.2595 177.403 67.7463C178.829 68.233 180.168 67.3715 181.623 66.9279C181.982 67.8496 182.219 68.9868 182.682 69.9431C183.144 70.8993 183.705 72.6697 182.885 73.0487C182.885 73.0487 180.591 74.2333 179.265 74.1687C179.8 74.7072 180.469 75.0952 181.203 75.2934C181.938 75.4915 182.711 75.4929 183.446 75.2972C183.813 77.5112 184.09 80.0655 182.582 81.7325C181.878 82.4552 180.977 82.9567 179.991 83.1755C175.179 84.416 170.146 81.0605 165.261 81.9737C163.257 82.3528 161.421 83.4296 159.395 83.6967C158.396 83.8202 157.382 83.7432 156.413 83.4702C155.445 83.1972 154.54 82.7338 153.754 82.1073C151.827 80.5523 150.501 77.9506 148.056 77.5414C146.972 77.3648 145.875 77.6749 144.812 77.9721C143.75 78.2693 142.652 78.5536 141.568 78.3253C140.484 78.097 139.482 77.1839 139.529 76.0898" fill="#263238"/>
<path d="M135.707 84.156C136.246 81.1408 136.869 78.0093 136.869 78.0093C136.869 78.0093 140.86 78.048 142.557 73.1419C144.173 68.464 145.339 57.2044 145.339 57.2044C142.779 55.6151 139.792 54.8458 136.781 54.9998C133.769 55.1538 130.877 56.2238 128.493 58.0658L124.515 82.5105C124.052 85.3491 126.13 88.0025 129.18 88.472C132.251 88.9717 135.175 87.0161 135.707 84.156Z" fill="#FFBE9D"/>
<path d="M142.354 65.6381C142.327 65.8069 142.234 65.9581 142.096 66.0595C141.958 66.1609 141.785 66.2045 141.616 66.1809C141.531 66.1734 141.45 66.1491 141.375 66.1095C141.3 66.0699 141.235 66.0157 141.181 65.9502C141.128 65.8847 141.089 65.8093 141.065 65.7283C141.042 65.6473 141.035 65.5624 141.045 65.4788C141.074 65.3097 141.168 65.1584 141.307 65.0571C141.445 64.9557 141.618 64.9123 141.788 64.936C141.872 64.944 141.954 64.9687 142.028 65.0085C142.102 65.0484 142.167 65.1026 142.22 65.1681C142.273 65.2335 142.312 65.3088 142.335 65.3895C142.358 65.4703 142.364 65.5548 142.354 65.6381Z" fill="#263238"/>
<path d="M143.534 65.1005C143.439 65.1694 143.011 64.7214 142.311 64.6008C141.611 64.4802 141.041 64.7343 140.981 64.6396C140.92 64.5448 141.059 64.4543 141.309 64.3337C141.649 64.1763 142.029 64.1281 142.398 64.1959C142.759 64.2615 143.091 64.4376 143.348 64.6999C143.534 64.9023 143.581 65.066 143.534 65.1005Z" fill="#263238"/>
<path d="M135.184 64.5053C135.155 64.6744 135.061 64.8256 134.923 64.927C134.784 65.0283 134.611 65.0717 134.441 65.0481C134.357 65.04 134.276 65.0154 134.201 64.9755C134.127 64.9357 134.062 64.8814 134.009 64.816C133.957 64.7506 133.918 64.6753 133.894 64.5945C133.871 64.5138 133.865 64.4293 133.875 64.3459C133.904 64.1769 133.997 64.0256 134.136 63.9243C134.275 63.8229 134.448 63.7795 134.618 63.8032C134.702 63.8112 134.783 63.8359 134.857 63.8757C134.931 63.9156 134.997 63.9698 135.049 64.0353C135.102 64.1007 135.141 64.176 135.164 64.2567C135.187 64.3375 135.194 64.422 135.184 64.5053Z" fill="#263238"/>
<path d="M136.203 64.0705C136.108 64.1395 135.681 63.6915 134.981 63.5709C134.281 63.4503 133.711 63.7087 133.646 63.6097C133.581 63.5106 133.724 63.4287 133.979 63.3038C134.318 63.1501 134.696 63.1035 135.063 63.1703C135.427 63.2322 135.762 63.4089 136.018 63.6743C136.203 63.8767 136.251 64.0404 136.203 64.0705Z" fill="#263238"/>
<path d="M137.823 69.684C138.212 69.6345 138.605 69.6345 138.994 69.684C139.175 69.684 139.352 69.684 139.404 69.5763C139.45 69.3955 139.441 69.205 139.378 69.0293C139.287 68.5684 139.192 68.086 139.089 67.582C138.696 65.5273 138.449 63.8474 138.531 63.8302C138.613 63.813 138.998 65.4713 139.395 67.5303C139.486 68.0343 139.577 68.5167 139.659 68.9776C139.735 69.2119 139.724 69.4656 139.629 69.6926C139.592 69.7506 139.542 69.7996 139.484 69.8362C139.426 69.8727 139.36 69.8958 139.292 69.9037C139.188 69.9152 139.084 69.9152 138.981 69.9037C138.587 69.8784 138.198 69.8046 137.823 69.684Z" fill="#263238"/>
<path d="M136.851 78.0093C134.46 77.6207 132.224 76.5768 130.393 74.9941C130.393 74.9941 131.426 78.7502 136.575 79.1637L136.851 78.0093Z" fill="#EB996E"/>
<path d="M137.231 71.3094C137.126 71.1206 136.976 70.961 136.793 70.8451C136.611 70.7292 136.402 70.6608 136.186 70.6461C136.03 70.6341 135.874 70.653 135.725 70.7018C135.577 70.7506 135.44 70.8283 135.322 70.9304C135.208 71.0305 135.128 71.1632 135.092 71.3104C135.057 71.4577 135.068 71.6122 135.123 71.7531C135.213 71.8954 135.343 72.0083 135.497 72.078C135.65 72.1476 135.821 72.171 135.987 72.1451C136.337 72.0842 136.671 71.957 136.972 71.7703C137.061 71.728 137.142 71.6696 137.21 71.598C137.242 71.5643 137.264 71.5215 137.271 71.4754C137.279 71.4293 137.273 71.382 137.253 71.3396" fill="#EB996E"/>
<path d="M135.706 69.8019C135.823 69.8019 135.706 70.5687 136.242 71.2191C136.778 71.8695 137.62 71.9298 137.607 72.0375C137.594 72.1452 137.4 72.1495 137.058 72.1021C136.614 72.0303 136.208 71.8046 135.914 71.4646C135.629 71.1376 135.485 70.7122 135.512 70.2801C135.516 69.9613 135.633 69.7847 135.706 69.8019Z" fill="#263238"/>
<path d="M131.918 54.4559C133.27 57.4324 137.65 61.0506 141.037 62.3342C140.726 61.7226 138.825 59.9953 138.519 59.3836C139.884 60.8611 141.858 62.8683 143.944 63.3723C144.184 63.4517 144.442 63.4592 144.687 63.3938C144.822 63.3252 144.939 63.2266 145.03 63.1056C145.12 62.9846 145.182 62.8445 145.21 62.696C145.614 61.1958 145.855 59.6562 145.927 58.1043C145.998 56.7955 145.565 55.509 144.717 54.5076C143.564 53.2154 141.693 52.5951 139.871 52.2074C138.37 51.8214 136.809 51.7336 135.275 51.949C133.776 52.2333 132.376 53.0948 131.927 54.3655" fill="#263238"/>
<path d="M123.845 65.6594C123.82 64.5092 123.864 63.3586 123.975 62.2135C124.316 59.5859 125.141 50.0363 133.979 52.4916L133.037 54.9425C133.037 54.9425 133.715 61.0892 129.18 64.3887C129.18 64.3887 129.201 70.5268 126.057 72.7408C126.057 72.7408 123.867 68.5799 123.845 65.6766" fill="#263238"/>
<path d="M129.37 63.9573C128.847 63.7461 128.276 63.682 127.72 63.7721C127.164 63.8682 126.668 64.1774 126.337 64.6336C126.038 65.1138 125.931 65.6893 126.039 66.2445C126.151 66.7956 126.384 67.315 126.722 67.7651C126.941 68.1035 127.237 68.3854 127.586 68.5878C127.764 68.6832 127.963 68.7331 128.165 68.7331C128.367 68.7331 128.566 68.6832 128.743 68.5878" fill="#FFBE9D"/>
<path d="M128.493 67.1748C128.549 67.2049 128.255 67.4892 127.784 67.2695C127.661 67.2023 127.552 67.1114 127.463 67.002C127.375 66.8926 127.31 66.7669 127.27 66.632C127.17 66.3282 127.132 66.0075 127.158 65.6887C127.176 65.3478 127.317 65.025 127.555 64.7798C127.655 64.6746 127.777 64.5935 127.912 64.5427C128.048 64.4919 128.193 64.4728 128.337 64.4869C128.851 64.5645 128.946 64.9435 128.886 64.9435C128.825 64.9435 128.674 64.7583 128.324 64.7798C128.108 64.8227 127.913 64.9413 127.776 65.1142C127.639 65.2871 127.569 65.503 127.577 65.7232C127.538 66.2917 127.663 66.8388 127.936 67.0154C128.208 67.192 128.467 67.1231 128.493 67.1748Z" fill="#EB996E"/>
<path d="M180.543 64.3696C180.484 64.4997 180.404 64.619 180.306 64.7229C180.023 65.0221 179.658 65.2319 179.256 65.3259C178.619 65.4851 177.947 65.4383 177.338 65.1924C176.556 64.8487 175.829 64.393 175.178 63.8398C174.435 63.2799 173.606 62.6165 172.544 62.3882C171.994 62.2847 171.428 62.3082 170.889 62.4571C170.314 62.6242 169.757 62.8478 169.226 63.1248C168.673 63.4048 168.112 63.7149 167.498 63.9863C166.888 64.2846 166.224 64.4602 165.546 64.5032C164.83 64.5267 164.125 64.3231 163.533 63.9217C162.948 63.4973 162.437 62.9791 162.021 62.3882C161.157 61.2424 160.457 59.9976 159.403 59.1835C158.892 58.7827 158.282 58.5268 157.637 58.4426C157.013 58.3725 156.382 58.4001 155.766 58.5245C154.557 58.7484 153.425 59.1318 152.311 59.2739C151.277 59.3984 150.228 59.3075 149.231 59.0069C147.785 58.5775 146.491 57.7451 145.503 56.6076C145.14 56.1973 144.838 55.7375 144.605 55.2422C144.631 55.2674 144.653 55.2965 144.67 55.3283C144.713 55.4016 144.769 55.4877 144.838 55.5954C145.867 57.186 147.445 58.3448 149.274 58.8518C150.255 59.1388 151.284 59.2194 152.298 59.0887C153.386 58.9423 154.509 58.5546 155.753 58.322C156.389 58.1877 157.043 58.1571 157.689 58.2315C158.37 58.3186 159.016 58.5864 159.559 59.0069C160.665 59.8684 161.369 61.1261 162.224 62.2547C162.623 62.826 163.115 63.3268 163.68 63.7364C164.232 64.1129 164.89 64.3045 165.559 64.2835C166.21 64.2433 166.847 64.0749 167.433 63.7881C168.025 63.5297 168.582 63.2239 169.14 62.9267C169.684 62.6428 170.256 62.4148 170.846 62.2461C171.41 62.0944 172 62.0723 172.574 62.1815C173.574 62.4791 174.495 62.9956 175.269 63.6934C175.903 64.2446 176.613 64.7029 177.377 65.0545C177.961 65.2991 178.607 65.3578 179.226 65.2225C179.616 65.1354 179.976 64.9449 180.267 64.6712C180.466 64.4946 180.535 64.3653 180.543 64.3696Z" fill="#263238"/>
<path d="M81.0559 149.939L73.2203 165.7L75.5571 165.787L68.9223 178.313H72.4082L66.9656 189.439H97.3708L90.6798 178.313L93.8849 178.175L87.4704 165.657L89.8419 165.515L81.0559 149.939Z" fill="#455A64"/>
<path d="M82.3775 168.229C82.4423 168.229 82.3775 174.905 82.2738 183.137C82.1701 191.368 82.0017 198.04 81.9412 198.04C81.8807 198.04 81.9412 191.364 82.0492 183.132C82.1572 174.901 82.317 168.229 82.3775 168.229Z" fill="#263238"/>
<path d="M86.1057 172.275C85.9859 172.528 85.827 172.761 85.6348 172.965C85.2082 173.482 84.7524 173.976 84.2699 174.442C83.717 174.998 83.2159 175.493 82.866 175.868C82.6903 176.083 82.4935 176.281 82.2786 176.458C82.3969 176.204 82.5543 175.97 82.7451 175.764C83.1742 175.249 83.6298 174.756 84.11 174.287C84.6673 173.731 85.1683 173.236 85.5182 172.861C85.6916 172.645 85.8886 172.448 86.1057 172.275Z" fill="#263238"/>
<path d="M82.3044 176.615C81.6887 176.272 81.1097 175.866 80.5766 175.405C79.994 174.998 79.4555 174.532 78.9697 174.014C79.5858 174.357 80.1647 174.763 80.6975 175.224C81.2809 175.63 81.8195 176.096 82.3044 176.615Z" fill="#263238"/>
<path d="M82.097 184.347C81.4189 183.869 80.7685 183.353 80.1489 182.801C79.4809 182.307 78.842 181.774 78.2354 181.207C78.9755 181.595 79.6659 182.071 80.2914 182.624C80.9624 183.122 81.5689 183.701 82.097 184.347Z" fill="#263238"/>
<path d="M86.4295 179.566C86.4856 179.609 85.5958 180.764 84.3431 182.035L82.7665 183.68C82.5672 183.925 82.3428 184.149 82.097 184.348C82.0408 184.305 82.9307 183.15 84.1833 181.879L85.76 180.238C85.9601 179.993 86.1844 179.768 86.4295 179.566Z" fill="#263238"/>
</g>
<defs>
<clipPath id="clip0_1048_24933">
<rect width="277" height="199" fill="white"/>
</clipPath>
</defs>
</svg>
