<svg width="104" height="109" viewBox="0 0 104 109" fill="none" xmlns="http://www.w3.org/2000/svg">
<g clip-path="url(#clip0_1141_69465)">
<path d="M95.0034 109.001H16.871C16.871 109.001 8.94444 93.3221 10.6431 76.2754C12.3418 59.2286 25.3042 47.9594 30.7135 41.3858C36.1228 34.8121 40.7487 13.1386 57.9682 8.19843C75.1877 3.25828 92.5515 20.2237 93.3047 37.0028C94.058 53.7819 79.2254 68.141 88.0588 82.7476C96.8922 97.3541 95.0034 109.001 95.0034 109.001Z" fill="#00937D" fill-opacity="0.15"/>
<path d="M74.0206 108.996H64.4587C64.4587 108.996 66.2846 100.257 70.4673 95.0793C74.65 89.9014 78.0469 85.0793 78.6742 75.2192C79.3015 65.3591 86.4387 51.9348 90.7977 51.1342C95.1567 50.3337 97.5469 58.2703 92.1384 64.0062C86.73 69.7421 81.7534 73.2998 81.4097 81.1621C81.066 89.0244 80.1856 100.497 74.0206 108.996Z" fill="#41CBD6"/>
<path d="M45.5107 108.996H35.7721C35.7721 108.996 32.1237 103.638 31.1169 95.0794C30.1102 86.5209 24.6347 80.4203 22.277 76.2706C19.9194 72.1209 18.0135 59.9537 19.416 56.2189C22.277 48.6008 28.7264 54.4523 28.8523 63.224C28.9783 71.9956 30.4189 80.1526 34.8572 84.9015C39.2954 89.6504 44.6803 102.673 45.5107 108.996Z" fill="#41CBD6"/>
<path d="M63.5392 90.2382C63.5392 90.2382 71.4414 66.3611 78.6123 55.6555C85.7832 44.95 82.1982 32.1387 77.1026 31.2192C72.007 30.2997 74.6844 39.0633 73.3457 45.2003C72.007 51.3373 67.5261 65.3361 63.5388 71.765C59.5515 78.1939 55.2356 87.0218 55.2356 87.0218L63.5392 90.2382Z" fill="#41CBD6"/>
<path d="M49.9351 75.2191C49.9351 75.2191 48.4554 64.2681 45.511 51.1341C42.5667 38.0001 40.3021 35.4193 39.3583 27.2246C38.4145 19.03 40.4878 14.8888 36.485 13.8545C33.2563 13.02 31.3476 21.7418 32.1443 28.3701C32.941 34.9983 41.2942 47.0038 41.8362 53.8642C42.3782 60.7245 39.9267 74.4387 39.9267 74.4387L49.9351 75.2191Z" fill="#41CBD6"/>
<path d="M75.642 20.71C69.8955 20.71 65.237 16.0739 65.237 10.355C65.237 4.63609 69.8955 0 75.642 0C81.3884 0 86.0469 4.63609 86.0469 10.355C86.0469 16.0739 81.3884 20.71 75.642 20.71Z" fill="white"/>
<path d="M10.4047 72.003C4.65818 72.003 -0.000265121 67.3669 -0.000265121 61.648C-0.000265121 55.9291 4.65818 51.293 10.4047 51.293C16.1511 51.293 20.8096 55.9291 20.8096 61.648C20.8096 67.3669 16.1511 72.003 10.4047 72.003Z" fill="white"/>
<path d="M89.1376 93.6143C83.3911 93.6143 78.7327 88.9782 78.7327 83.2593C78.7327 77.5404 83.3911 72.9043 89.1376 72.9043C94.884 72.9043 99.5425 77.5404 99.5425 83.2593C99.5425 88.9782 94.884 93.6143 89.1376 93.6143Z" fill="white"/>
<path d="M80.6703 6.08828C80.3237 5.77169 79.7155 5.7074 79.3775 6.08828L77.2039 8.53571L73.7374 12.4383L73.6367 12.552L71.199 9.35126L70.7464 8.75729C70.5965 8.56038 70.4494 8.40754 70.1999 8.33921C69.9814 8.27937 69.69 8.30646 69.4958 8.43099C69.1204 8.67359 68.8588 9.26999 69.1676 9.67553L72.3439 13.8475L72.7965 14.4414C72.9769 14.6784 73.1593 14.8348 73.4644 14.8757C73.7358 14.9121 74.0426 14.8393 74.2323 14.6254C74.9566 13.8097 75.6811 12.994 76.4059 12.1784C77.5614 10.8772 78.7167 9.5762 79.8719 8.27532L80.6703 7.37689C80.9868 7.01865 81.0493 6.43479 80.6703 6.08828Z" fill="#00BC08"/>
<path d="M15.4003 57.3812C15.0537 57.0647 14.4455 57.0004 14.1075 57.3812C13.3826 58.1967 12.6581 59.0123 11.9338 59.8283L8.46744 63.7313L8.36667 63.8445L5.92897 60.6438L5.47638 60.0499C5.32646 59.8533 5.17898 59.7001 4.92993 59.6318C4.71135 59.5719 4.41963 59.599 4.22543 59.7236C3.85043 59.9662 3.58878 60.5629 3.89756 60.9685L7.07511 65.1384L7.5277 65.732C7.70809 65.9689 7.89051 66.1258 8.19563 66.1666C8.46703 66.2026 8.77337 66.1298 8.96351 65.9163L11.1371 63.4689L14.6031 59.5663L15.4015 58.6678C15.7163 58.3112 15.7789 57.7274 15.4003 57.3812Z" fill="#00BC08"/>
<path d="M94.8259 78.9942C94.4793 78.678 93.8715 78.6137 93.5331 78.9942L91.3595 81.4417L87.8931 85.3443C87.8598 85.3823 87.826 85.4203 87.7923 85.4579L85.3546 82.2572L84.902 81.6632C84.7521 81.4667 84.605 81.3135 84.356 81.2452C84.137 81.1853 83.8457 81.2124 83.6515 81.3369C83.2761 81.5795 83.0144 82.1759 83.3236 82.5819L86.5011 86.7518L86.9533 87.3453C87.1341 87.5823 87.3161 87.7392 87.6213 87.78C87.8931 87.816 88.1994 87.7432 88.3891 87.5297L90.5628 85.0823L94.0292 81.1797L94.8271 80.2808C95.1424 79.9246 95.205 79.3407 94.8259 78.9942Z" fill="#00BC08"/>
<path d="M68.4898 76.0801V80.6438C68.4898 80.6438 68.7718 84.2662 69.3812 87.7338C69.9907 91.2014 72.3564 109.002 72.3564 109.002H55.4514L53.86 98.0706L51.5324 109.001H35.2961C35.2961 109.001 38.4139 87.623 39.9858 81.2641L40.5916 77.6683L68.4898 76.0801Z" fill="#404040"/>
<path d="M57.0535 32.1445C57.0535 32.1445 70.7859 34.6045 73.6937 36.6613C76.6015 38.7182 83.282 59.3198 82.8667 63.4808C82.4515 67.6418 80.4876 70.9404 68.7155 68.0094C68.7155 68.0094 68.2609 71.1737 68.6749 73.2435C69.0889 75.3133 69.3851 77.5403 68.4916 78.0033C67.5982 78.4663 41.3755 81.2784 39.9876 78.1379C38.5997 74.9975 40.0664 63.4533 39.6045 58.5366C39.1425 53.6199 34.4244 50.3246 34.4244 50.3246C34.4244 50.3246 37.257 37.8 41.0305 36.1939C44.8041 34.5879 57.0535 32.1445 57.0535 32.1445Z" fill="#00937D"/>
<path d="M56.7758 26.6145C56.7758 26.6145 57.2837 23.5011 58.2791 19.296C58.6626 17.6738 57.9488 16.0116 56.2802 16.0585C55.3932 16.0836 54.729 16.8182 53.6665 15.617C52.5594 14.366 50.0973 14.5908 49.0755 16.0791C47.6978 18.0858 46.5188 16.1402 44.7636 17.8157C43.6045 18.922 43.4111 23.1707 49.455 23.5613C55.4989 23.9519 56.7758 26.6145 56.7758 26.6145Z" fill="#3C424F"/>
<path d="M48.2776 21.752C48.2776 21.752 48.6494 29.3834 51.2065 29.6442C51.2065 29.6442 51.805 33.3973 51.6595 33.8344C51.6595 33.8344 51.7127 35.8872 53.5467 35.5875C56.5057 35.1023 57.5482 33.5295 58.1377 32.8955C58.1377 32.8955 56.8672 27.699 56.7787 24.2448C56.7787 24.2448 57.6542 23.8615 57.4592 22.568C57.2642 21.2745 55.8662 21.391 55.7784 21.7998C55.6906 22.2085 53.7584 21.976 53.2188 20.125C53.2213 20.1254 49.8621 23.0997 48.2776 21.752Z" fill="#FFBE9D"/>
<path d="M55.6558 21.0488C56.656 23.4934 57.2122 27.3645 56.9242 28.7089C56.7153 29.6857 56.7531 29.892 54.2187 30.771C51.6843 31.65 51.0863 31.7818 50.4285 30.5931C49.7707 29.4043 48.8651 27.8319 49.0289 27.2128C49.1926 26.5938 52.6818 26.2752 54.1334 26.8267C55.5851 27.3782 55.5022 27.3074 55.5022 27.3074C55.5022 27.3074 56.1486 25.7346 54.4718 20.9998C53.6593 18.7044 55.6558 21.0488 55.6558 21.0488Z" fill="#3C424F"/>
<path d="M52.0008 27.959L50.5426 28.3633C50.5426 28.3633 50.7636 29.1631 51.382 29.0151C52.0662 28.8526 52.0008 27.959 52.0008 27.959Z" fill="white"/>
<path d="M47.9041 23.7048C47.9984 23.4786 48.1641 23.2891 48.3762 23.165C48.5821 23.0523 48.8238 23.0233 49.0506 23.0841C49.4687 23.1917 49.7588 23.5556 49.8977 23.9527C49.9616 23.9124 50.0337 23.8871 50.1088 23.8785C50.1838 23.8699 50.2599 23.8782 50.3312 23.9029C50.3303 23.6847 50.3798 23.4691 50.4759 23.273C50.5856 23.0439 50.7653 22.8554 50.9894 22.7344C51.2182 22.6175 51.482 22.5878 51.7313 22.6507C52.0119 22.7246 52.2569 22.8958 52.422 23.1335C52.5491 23.0692 52.6812 23.0122 52.81 22.9515L53.6611 22.5508L54.6443 22.0879L55.461 21.7037L55.7986 21.5444C55.927 21.4842 56.0184 21.6831 55.8908 21.743L55.8847 21.7458C55.749 21.8161 55.6068 21.8768 55.4683 21.9419L54.6171 22.3426L53.6339 22.8056L52.8173 23.1901L52.5386 23.3211C52.614 23.4654 52.6664 23.6205 52.6942 23.7808C52.7057 23.8548 52.7123 23.9295 52.7141 24.0044C52.7267 24.511 52.465 25.05 51.9755 25.2493C51.4859 25.4487 50.939 25.2388 50.6315 24.826C50.4893 24.6329 50.3943 24.4094 50.354 24.1734C50.3386 24.167 50.3247 24.1573 50.3134 24.1451L50.3036 24.135C50.2955 24.1289 50.287 24.1241 50.2784 24.1184L50.2638 24.112C50.2532 24.1075 50.2423 24.1051 50.2313 24.101L50.215 24.0982C50.2027 24.0962 50.1902 24.0949 50.1777 24.0942H50.1586C50.1468 24.0942 50.1354 24.0942 50.1236 24.0974C50.1118 24.1006 50.096 24.1019 50.083 24.1051H50.0777H50.07H50.0643H50.0676C50.0557 24.1095 50.044 24.1145 50.0326 24.12L50.0156 24.1285L50.018 24.1265L50.0127 24.1306C50.012 24.1304 50.0113 24.1304 50.0107 24.1306C50.003 24.1358 49.9948 24.1411 49.9879 24.1467C49.981 24.1524 49.9794 24.1544 49.9753 24.1585C49.9708 24.1657 49.9655 24.1725 49.9595 24.1787C49.9623 24.1932 49.9656 24.2078 49.968 24.2219C50.055 24.7646 49.873 25.4349 49.3273 25.6775C48.8613 25.8821 48.3559 25.644 48.0788 25.2518C47.7688 24.8175 47.6855 24.2025 47.9041 23.7048ZM50.9106 24.8167C51.2027 25.1159 51.6614 25.2081 52.0181 24.9841C52.4049 24.7415 52.5463 24.249 52.4776 23.8176C52.3964 23.3421 52.0401 22.8779 51.5306 22.8391C51.0987 22.8064 50.7432 23.1221 50.6112 23.522C50.5406 23.7448 50.5312 23.9823 50.5838 24.2099C50.6365 24.4376 50.7493 24.6471 50.9106 24.8167ZM48.3417 25.2344C48.4692 25.3771 48.6431 25.4936 48.8264 25.5279C48.9163 25.546 49.0089 25.546 49.0987 25.5278C49.1886 25.5097 49.2739 25.4739 49.3497 25.4224C49.7153 25.1705 49.8193 24.6809 49.7527 24.2644C49.6755 23.8144 49.3598 23.3174 48.8702 23.2738C48.7788 23.2663 48.6867 23.277 48.5994 23.3053C48.5122 23.3337 48.4314 23.379 48.362 23.4387C48.2087 23.5745 48.0998 23.7528 48.0491 23.9506C47.9894 24.1722 47.9848 24.4048 48.0358 24.6285C48.0868 24.8522 48.1917 25.0602 48.3417 25.2344Z" fill="white"/>
<path d="M50.0166 24.1328C50.0028 24.1456 50.0053 24.1415 50.0116 24.1365C50.0123 24.1363 50.013 24.1363 50.0137 24.1365L50.0166 24.1328Z" fill="white"/>
<path d="M50.0712 24.1094H50.0791C50.0758 24.1109 50.0723 24.1119 50.0687 24.1123L50.0712 24.1094Z" fill="white"/>
<path d="M51.6794 24.1582C51.7054 24.3154 51.6201 24.4602 51.4885 24.4816C51.3568 24.5031 51.2293 24.3935 51.2041 24.2362C51.1789 24.0789 51.2634 23.9338 51.395 23.9127C51.5267 23.8917 51.655 24.0017 51.6794 24.1582Z" fill="#354159"/>
<path d="M49.3977 24.5336C49.4237 24.6909 49.3384 24.8356 49.2067 24.857C49.0751 24.8785 48.9475 24.7685 48.9223 24.6112C48.8971 24.4539 48.9816 24.3088 49.1133 24.2877C49.2449 24.2667 49.3717 24.3763 49.3977 24.5336Z" fill="#354159"/>
<path d="M50.0413 24.4406C49.9638 24.8566 49.8863 25.2726 49.8089 25.6888C49.7735 25.8768 49.7329 26.0745 49.8117 26.2577C49.8905 26.4409 50.0583 26.5209 50.2505 26.5153C50.3643 26.512 50.4788 26.5007 50.5914 26.489C50.7104 26.4765 50.8104 26.3717 50.7295 26.2569C50.7108 26.2348 50.6841 26.2208 50.6551 26.2181C50.6262 26.2154 50.5973 26.2241 50.5747 26.2423C50.5528 26.2612 50.5391 26.2878 50.5364 26.3165C50.5338 26.3452 50.5424 26.3739 50.5605 26.3964L50.5662 26.4045L50.5422 26.3523V26.3608L50.5483 26.3042C50.5506 26.2971 50.5543 26.2905 50.5593 26.2848C50.5642 26.2792 50.5703 26.2746 50.5772 26.2715L50.5337 26.2751L50.4471 26.2824C50.3923 26.2872 50.3375 26.2925 50.2822 26.2965C50.2103 26.3018 50.127 26.3034 50.0693 26.2525C49.9356 26.134 49.9881 25.9148 50.0169 25.7648C50.0982 25.3308 50.1794 24.8971 50.2607 24.4637C50.2623 24.4493 50.2611 24.4348 50.2571 24.4209C50.253 24.4071 50.2463 24.3941 50.2372 24.3829C50.2282 24.3716 50.217 24.3622 50.2043 24.3553C50.1915 24.3483 50.1776 24.3439 50.1632 24.3424C50.1341 24.3394 50.1051 24.3479 50.0823 24.3661C50.0595 24.3842 50.0447 24.4106 50.0413 24.4394V24.4406Z" fill="#FFAA80"/>
<path d="M56.5723 21.9566C56.4801 22.0774 56.4377 22.2287 56.4537 22.3796C56.4552 22.4201 56.471 22.4589 56.4983 22.4891C56.5257 22.5192 56.5628 22.5389 56.6032 22.5445C56.6884 22.5481 56.7738 22.5441 56.8583 22.5324L56.7312 22.4111C56.6741 22.7238 56.7131 23.0463 56.8429 23.3366C56.9002 23.4652 57.1001 23.3738 57.0424 23.2448C56.93 22.9908 56.8977 22.7088 56.9498 22.4362C56.964 22.3597 56.8876 22.3149 56.8226 22.3149C56.7657 22.3181 56.7092 22.3221 56.6524 22.325C56.6304 22.3278 56.6239 22.3278 56.6333 22.325C56.6666 22.3735 56.6792 22.3816 56.6711 22.3496C56.6721 22.334 56.6721 22.3183 56.6711 22.3027C56.6743 22.2223 56.7027 22.1448 56.7523 22.0812C56.838 21.9688 56.6593 21.8414 56.5739 21.9538L56.5723 21.9566Z" fill="#FFAA80"/>
<path d="M39.5196 46.9494L25.9034 49.4927C25.7798 49.5157 25.6622 49.5638 25.558 49.634C25.4538 49.7041 25.3651 49.7947 25.2975 49.9003C25.2299 50.0059 25.1848 50.1242 25.165 50.2478C25.1452 50.3715 25.1511 50.4979 25.1823 50.6191L30.1662 69.9766C30.224 70.201 30.3651 70.3952 30.5612 70.5201C30.7572 70.645 30.9936 70.6912 31.2225 70.6495L44.7956 68.183C44.9195 68.1605 45.0375 68.1129 45.1421 68.0431C45.2468 67.9733 45.3359 67.8829 45.404 67.7774C45.472 67.672 45.5176 67.5537 45.5379 67.4299C45.5581 67.3062 45.5526 67.1797 45.5216 67.0582L40.5812 47.6246C40.5239 47.3987 40.3822 47.2031 40.1849 47.0776C39.9876 46.9521 39.7497 46.9063 39.5196 46.9494Z" fill="#404040"/>
<path d="M25.9317 53.6348L26.3197 55.1543C26.3197 55.1543 31.1216 54.3367 31.6498 54.3076C32.1779 54.2785 32.6179 55.3487 31.6498 55.6738C31.6498 55.6738 32.8711 55.2913 33.0437 55.8457C33.2164 56.4 33.0701 56.7441 32.2409 57.0498C32.2409 57.0498 33.0713 57.7521 32.5391 58.175C32.0069 58.598 31.7213 58.5794 31.7213 58.5794C31.7213 58.5794 32.3039 58.4767 32.4144 59.1208C32.5249 59.7649 31.8293 60.2307 31.033 60.6095C30.2367 60.9884 28.3808 61.3972 27.0238 61.5941C25.6668 61.791 24.708 61.4085 24.2457 61.1408C23.7833 60.8732 22.844 58.5175 23.0743 56.9333C23.3047 55.3491 25.9317 53.6348 25.9317 53.6348Z" fill="#FFBE9D"/>
<path d="M60.5714 56.043C60.5714 56.043 60.6709 56.3098 60.6868 57.3736C60.7026 58.4374 60.9139 61.3515 59.8409 62.5972C58.7679 63.843 58.6538 62.5067 58.6538 62.5067C58.6538 62.5067 59.2087 56.3195 60.5714 56.043Z" fill="#281E1B"/>
<path d="M49.9889 62.6947L49.8809 64.5522L50.9401 63.019L55.1357 50.836L54.1846 50.5117L49.9889 62.6947Z" fill="white"/>
<path d="M60.687 57.3753C60.687 57.3753 58.8316 55.4793 56.315 55.7228C53.7985 55.9662 50.2809 58.6639 50.2903 59.289C50.2996 59.9141 50.5576 60.5497 51.8638 60.0423C51.8638 60.0423 51.1881 61.1 52.2888 61.4133C52.2888 61.4133 51.7407 62.3898 52.8324 62.6373C52.8324 62.6373 52.9181 63.3651 54.2706 63.2806C55.6231 63.1961 57.1528 62.2568 57.3316 62.0542C57.3316 62.0542 58.587 62.6336 59.6372 62.6494C60.6875 62.6652 60.75 58.7836 60.687 57.3753Z" fill="#FFBE9D"/>
<path d="M52.6464 79.8535C52.5768 82.1873 52.601 84.5214 52.7191 86.8558C52.8367 89.1761 53.047 91.4893 53.3501 93.7954C53.5207 95.0946 53.7213 96.3894 53.9518 97.6798C53.9745 97.8072 53.7787 97.8617 53.756 97.7336C53.5512 96.5842 53.3696 95.4309 53.2111 94.2737C53.0527 93.1165 52.9172 91.9594 52.8048 90.8025C52.6922 89.6348 52.6032 88.4649 52.5379 87.2928C52.4729 86.1276 52.4315 84.9609 52.4136 83.7929C52.3957 82.625 52.4013 81.4576 52.4302 80.291C52.4338 80.1452 52.4377 79.9993 52.442 79.8535C52.4461 79.7237 52.6492 79.7229 52.6452 79.8535H52.6464Z" fill="#281E1B"/>
<path d="M68.2441 80.8336C66.4451 81.1687 64.6362 81.4434 62.8174 81.6577C60.9986 81.872 59.1755 82.0249 57.348 82.1166C55.5111 82.2088 53.6725 82.2389 51.8323 82.2071C49.9921 82.1753 48.1558 82.0818 46.3235 81.9265C45.4072 81.8486 44.4925 81.7552 43.5795 81.6463C42.7015 81.5416 41.8182 81.4337 40.9622 81.2044C40.7517 81.1478 40.5437 81.0835 40.3381 81.0115C40.2163 80.9687 40.2683 80.773 40.3922 80.8166C41.2336 81.1114 42.1156 81.259 42.9981 81.3722C43.8979 81.4878 44.7998 81.5868 45.7039 81.669C47.5173 81.8372 49.3349 81.945 51.1567 81.9924C52.9784 82.0399 54.799 82.0255 56.6183 81.9492C58.4471 81.874 60.2718 81.7373 62.0922 81.5392C63.9126 81.3411 65.7234 81.0813 67.5246 80.76C67.7464 80.7204 67.9681 80.68 68.1897 80.6387C68.3172 80.6149 68.3721 80.8098 68.2437 80.8336H68.2441Z" fill="#281E1B"/>
<path d="M50.2458 82.0897C50.2211 82.8838 50.211 83.6779 50.2153 84.472C50.2196 85.2661 50.2386 86.0636 50.2722 86.8645C50.3055 87.658 50.3534 88.4508 50.416 89.2428C50.431 89.4344 50.444 89.6265 50.466 89.8177C50.4813 89.9924 50.5224 90.1639 50.5879 90.3268C50.7252 90.6438 51.0019 90.8831 51.246 91.1185C51.7913 91.6452 52.3579 92.1487 52.9459 92.6291C53.0203 92.6897 53.0946 92.7504 53.1694 92.8094C53.1882 92.8285 53.1987 92.8542 53.1987 92.881C53.1987 92.9077 53.1882 92.9334 53.1694 92.9525C53.15 92.9709 53.1242 92.9811 53.0975 92.9811C53.0707 92.9811 53.045 92.9709 53.0256 92.9525C52.4253 92.4722 51.846 91.9676 51.2875 91.4387C51.0271 91.1921 50.7451 90.9478 50.5395 90.6523C50.325 90.3434 50.2754 89.9803 50.2441 89.6147C50.1762 88.8174 50.1233 88.0186 50.0857 87.2183C50.048 86.4179 50.0246 85.6135 50.0154 84.8048C50.0067 83.9999 50.0132 83.195 50.0349 82.3901C50.0373 82.2904 50.0402 82.1902 50.0434 82.0897C50.0475 81.9599 50.2506 81.9595 50.2466 82.0897H50.2458Z" fill="#281E1B"/>
<path d="M60.3706 79.1616C60.3678 79.8377 60.4117 80.5132 60.5022 81.1833C60.5282 81.3753 60.5587 81.567 60.592 81.7578C60.5986 81.7837 60.5949 81.811 60.5818 81.8342C60.5686 81.8574 60.5469 81.8747 60.5213 81.8824C60.4953 81.8892 60.4676 81.8857 60.4442 81.8724C60.4208 81.8592 60.4036 81.8374 60.3962 81.8116C60.2754 81.1286 60.2021 80.4381 60.1768 79.7451C60.1698 79.5502 60.1666 79.3552 60.1675 79.16C60.1675 79.0302 60.3706 79.0298 60.3706 79.16V79.1616Z" fill="#281E1B"/>
<path d="M59.2925 79.2246C59.3216 80.0342 59.419 80.8399 59.5838 81.6332C59.5903 81.659 59.5866 81.6863 59.5734 81.7095C59.5603 81.7327 59.5387 81.75 59.5131 81.7578C59.4871 81.7646 59.4594 81.761 59.436 81.7478C59.4126 81.7346 59.3954 81.7127 59.388 81.687C59.2191 80.876 59.1192 80.0523 59.0894 79.2246C59.0849 79.0944 59.288 79.0944 59.2925 79.2246Z" fill="#281E1B"/>
<path d="M66.793 81.1017C66.7524 82.0167 66.8617 82.9272 66.9962 83.8305C67.1306 84.7338 67.2765 85.6439 67.4187 86.5501C67.7009 88.3499 67.9884 90.1488 68.2812 91.9467C68.8668 95.5429 69.472 99.1358 70.0969 102.725C70.449 104.756 70.809 106.785 71.1768 108.813C71.2 108.941 71.0041 108.995 70.981 108.867C70.3269 105.245 69.6929 101.62 69.0792 97.9907C68.4689 94.3786 67.8787 90.7647 67.3086 87.1489C67.148 86.1324 66.9894 85.1156 66.8328 84.0986C66.6813 83.1067 66.5484 82.1072 66.5891 81.1012C66.5947 80.9719 66.7979 80.9711 66.7922 81.1012L66.793 81.1017Z" fill="#281E1B"/>
<path d="M63.8543 81.3523C64.1227 81.9774 64.3914 82.6022 64.6604 83.2268C64.9293 83.8514 65.198 84.4762 65.4665 85.1013C65.7351 85.7261 66.0038 86.351 66.2725 86.9758L67.0822 88.8596C67.3512 89.4841 67.6199 90.1088 67.8883 90.7337L67.9883 90.9658C68.001 90.9891 68.0043 91.0164 67.9975 91.0421C67.9907 91.0678 67.9743 91.09 67.9517 91.104C67.9284 91.1175 67.9007 91.1212 67.8747 91.1143C67.8487 91.1075 67.8264 91.0907 67.8127 91.0677L67.0067 89.1936C66.7383 88.5685 66.4696 87.9436 66.2006 87.3191C65.9316 86.6945 65.663 86.0697 65.3945 85.4446L64.5848 83.5608C64.3159 82.9362 64.0472 82.3114 63.7788 81.6863L63.6788 81.4546C63.6661 81.4313 63.6627 81.404 63.6695 81.3783C63.6763 81.3526 63.6927 81.3304 63.7154 81.3163C63.7386 81.303 63.7663 81.2993 63.7922 81.306C63.8182 81.3128 63.8405 81.3294 63.8543 81.3523Z" fill="#281E1B"/>
<path d="M59.0598 33.4198C58.7828 33.6325 58.5723 33.9176 58.3667 34.1962C58.1559 34.4836 57.9422 34.7671 57.6793 35.0101C57.1731 35.4779 56.5514 35.8018 55.901 36.0209C55.573 36.1303 55.2376 36.2167 54.8975 36.2793C54.5319 36.3503 54.1619 36.3955 53.7899 36.4147C53.0668 36.4475 52.2818 36.3428 51.6907 35.8936C51.1881 35.5115 50.8062 34.8896 50.8696 34.2415C50.8766 34.1596 50.8902 34.0785 50.9102 33.9989C50.9427 33.8731 51.1385 33.9265 51.106 34.0526C50.952 34.6458 51.2539 35.2499 51.6964 35.6388C52.2225 36.1022 52.9558 36.2288 53.6364 36.2166C54.3314 36.1995 55.0205 36.0853 55.6836 35.8774C56.3109 35.6837 56.92 35.3922 57.4213 34.966C57.6717 34.7459 57.8962 34.4982 58.0905 34.2277C58.2981 33.9475 58.4967 33.6572 58.7527 33.4158C58.8174 33.3551 58.8852 33.2977 58.9558 33.244C58.9792 33.2307 59.0068 33.227 59.0328 33.2338C59.0588 33.2406 59.0811 33.2573 59.0948 33.2803C59.1078 33.3036 59.1113 33.331 59.1045 33.3568C59.0977 33.3826 59.0811 33.4048 59.0582 33.4186L59.0598 33.4198Z" fill="#281E1B"/>
<path d="M59.0642 63.3744C59.6688 63.6709 60.2744 63.9661 60.8811 64.2599C61.4878 64.5537 62.0955 64.8451 62.7041 65.1341C63.31 65.4219 63.9165 65.7079 64.5234 65.9921C65.1304 66.2762 65.7419 66.5592 66.3578 66.8412C66.9702 67.1231 67.5833 67.4028 68.1971 67.6802L68.425 67.7832C68.4481 67.7969 68.4649 67.8191 68.4717 67.8449C68.4786 67.8708 68.4749 67.8983 68.4615 67.9215C68.4475 67.9442 68.4253 67.9607 68.3994 67.9674C68.3735 67.9742 68.346 67.9708 68.3226 67.9579C67.7083 67.6806 67.0949 67.4013 66.4825 67.1201C65.8701 66.839 65.2585 66.556 64.6478 66.271C64.04 65.9877 63.4332 65.7021 62.8276 65.4143C62.222 65.1264 61.614 64.8355 61.0038 64.5417C60.3971 64.249 59.7912 63.9542 59.1861 63.6574L58.9614 63.547C58.8444 63.4896 58.9472 63.3154 59.0642 63.3728V63.3744Z" fill="#281E1B"/>
<path d="M75.6418 58.5274C74.6712 58.4663 73.7038 58.3656 72.7401 58.2322C71.7764 58.0988 70.8163 57.9399 69.8595 57.7632C68.9027 57.5865 67.9459 57.3924 66.9912 57.1971C66.0364 57.0018 65.0816 56.7988 64.1244 56.6072C63.1672 56.4155 62.2109 56.2332 61.2492 56.0727C61.1273 56.0524 61.0054 56.0322 60.8835 56.0132C60.7547 55.9922 60.8092 55.7973 60.9376 55.8179C61.8952 55.9724 62.8471 56.1495 63.8006 56.3375C64.7542 56.5255 65.7126 56.7265 66.6678 56.9242C67.623 57.1219 68.5684 57.316 69.5215 57.4967C70.4747 57.6775 71.4274 57.8428 72.3858 57.9819C73.3442 58.121 74.3063 58.2314 75.2704 58.3022C75.3931 58.3111 75.5158 58.3194 75.6385 58.3272C75.7685 58.3353 75.7693 58.5375 75.6385 58.5294L75.6418 58.5274Z" fill="#281E1B"/>
<path d="M68.4532 46.6066L69.0684 48.8005C69.2745 49.5324 69.4803 50.2643 69.6859 50.9965L70.3051 53.1976C70.5115 53.9311 70.7177 54.6647 70.9239 55.3984L71.543 57.5996C71.5686 57.6898 71.5938 57.7804 71.6194 57.8705C71.6543 57.9963 71.4569 58.0497 71.4232 57.9243C71.217 57.1908 71.0108 56.4573 70.8044 55.7235L70.1852 53.5223C69.9794 52.7883 69.7731 52.0546 69.5665 51.3211L68.9485 49.1244L68.3318 46.9305C68.306 46.8402 68.2807 46.7501 68.2558 46.6604C68.2204 46.5346 68.4183 46.4812 68.4516 46.6066H68.4532Z" fill="#281E1B"/>
<path d="M41.6872 46.7271C41.5201 47.5615 41.443 48.4112 41.4572 49.2619C41.4609 49.5045 41.4727 49.7471 41.4909 49.9897C41.4909 50.0165 41.4802 50.0422 41.4612 50.0612C41.4421 50.0801 41.4163 50.0908 41.3894 50.0908C41.3624 50.0908 41.3366 50.0801 41.3175 50.0612C41.2985 50.0422 41.2878 50.0165 41.2878 49.9897C41.2222 49.1232 41.2494 48.2522 41.3691 47.3915C41.4024 47.151 41.443 46.9118 41.4909 46.6738C41.4983 46.648 41.5154 46.6262 41.5388 46.613C41.5621 46.5997 41.5897 46.5962 41.6157 46.603C41.6414 46.6106 41.6631 46.6279 41.6764 46.6511C41.6896 46.6743 41.6933 46.7017 41.6868 46.7275L41.6872 46.7271Z" fill="#281E1B"/>
<path d="M22.9922 53.8092C21.9801 56.7924 22.397 59.9838 23.1218 62.9808C23.4874 64.4841 23.925 65.9684 24.3536 67.4539C24.7713 68.901 25.1975 70.3457 25.6537 71.7803C26.5756 74.6814 27.6226 77.5517 28.9719 80.2858C29.6432 81.6437 30.3926 82.9619 31.2166 84.2338C32.0698 85.5555 32.9258 86.8652 33.5779 88.3018C34.8187 91.0347 35.4801 93.973 36.068 96.8975C36.1411 97.2614 36.2136 97.6253 36.2854 97.9892C36.3106 98.1162 36.1147 98.1708 36.0895 98.043C35.502 95.0707 34.9073 92.0726 33.7664 89.252C33.1753 87.7911 32.4058 86.4382 31.5489 85.1172C30.6977 83.8056 29.8738 82.4866 29.1547 81.0973C27.7705 78.4235 26.691 75.6037 25.7529 72.7474C24.7961 69.8362 23.9246 66.8802 23.1482 63.9148C22.3795 60.9789 21.7965 57.8498 22.4868 54.8403C22.5716 54.4735 22.6749 54.1111 22.7964 53.7547C22.837 53.6334 23.0344 53.6847 22.9922 53.8084V53.8092Z" fill="#281E1B"/>
<path d="M92.9066 52.1975C91.8937 53.5496 91.1068 55.0484 90.3677 56.5615C89.6234 58.0854 88.9198 59.6324 88.0576 61.0957C87.1345 62.6633 86.0575 64.1358 85.158 65.7176C84.2828 67.2569 83.5735 68.8835 82.9596 70.5413C82.3457 72.1991 81.822 73.8908 81.3125 75.5838C81.2486 75.7954 81.1849 76.0068 81.1216 76.2182C81.0842 76.3423 80.8879 76.2893 80.9257 76.1644C81.4368 74.4637 81.9496 72.7627 82.5452 71.0896C83.1367 69.4282 83.8116 67.7918 84.6424 66.2339C85.4956 64.6332 86.5519 63.1561 87.5055 61.6164C88.4143 60.1503 89.1582 58.6001 89.9066 57.0475C90.6412 55.5243 91.3952 54.0008 92.3614 52.6067C92.4811 52.4336 92.6045 52.2627 92.7315 52.094C92.8087 51.9909 92.985 52.0915 92.9066 52.1959V52.1975Z" fill="#281E1B"/>
<path d="M78.2993 86.2324C78.0669 87.255 77.8337 88.2772 77.5875 89.2961C77.3413 90.315 77.0812 91.3343 76.7952 92.3448C76.5092 93.3552 76.2004 94.3515 75.8522 95.3368C75.504 96.3222 75.1209 97.2873 74.6886 98.2343C74.2579 99.1824 73.7727 100.105 73.2354 100.998C73.1687 101.108 73.101 101.218 73.0322 101.327C72.9632 101.437 72.7884 101.336 72.8567 101.225C73.4058 100.344 73.9027 99.4321 74.3449 98.4935C74.7882 97.5562 75.1811 96.5959 75.5345 95.6227C75.8916 94.6398 76.2094 93.6415 76.4998 92.6383C76.7903 91.6352 77.0536 90.6223 77.3027 89.6058C77.5517 88.5893 77.7853 87.5732 78.0169 86.5547C78.0458 86.4289 78.0742 86.3032 78.103 86.1775C78.1319 86.0517 78.3277 86.1043 78.2989 86.2308L78.2993 86.2324Z" fill="#281E1B"/>
<path d="M76.6383 31.6917C76.8883 32.426 77.1067 33.17 77.2936 33.9236C77.4797 34.6727 77.634 35.4288 77.7564 36.1919C77.8793 36.9594 77.9706 37.731 78.0302 38.5068C78.0887 39.2763 78.115 40.0474 78.109 40.82C78.1031 41.5925 78.0641 42.3667 77.992 43.1425C77.9831 43.2371 77.9737 43.3321 77.964 43.4255C77.9633 43.4521 77.9523 43.4774 77.9335 43.4962C77.9146 43.515 77.8891 43.5259 77.8624 43.5266C77.8355 43.5265 77.8097 43.5158 77.7907 43.4968C77.7717 43.4779 77.761 43.4523 77.7608 43.4255C77.8399 42.6581 77.8869 41.8881 77.9018 41.1155C77.9167 40.343 77.8987 39.5716 77.8478 38.8015C77.7977 38.0368 77.7164 37.2749 77.604 36.5158C77.4916 35.7568 77.3451 34.9992 77.1644 34.2431C76.9859 33.4921 76.776 32.7495 76.5347 32.0152C76.505 31.9246 76.4746 31.8344 76.4441 31.7447C76.4035 31.621 76.5981 31.568 76.6399 31.6909L76.6383 31.6917Z" fill="#281E1B"/>
<path d="M36.3625 14.8835C35.9909 16.3473 35.7274 17.8361 35.5739 19.3381C35.1166 23.8391 35.6171 28.3854 37.0427 32.6811C37.5163 34.1092 38.0937 35.501 38.7702 36.8458C38.8547 37.014 38.9409 37.1815 39.029 37.3483C39.0895 37.4632 38.9144 37.5659 38.8535 37.4502C38.1478 36.1085 37.5404 34.7177 37.0362 33.2888C36.5307 31.8557 36.1282 30.3886 35.8319 28.8986C35.5358 27.4122 35.3439 25.9072 35.2579 24.3943C35.172 22.8843 35.1933 21.3703 35.3216 19.8633C35.4497 18.3538 35.6873 16.8555 36.0326 15.3801C36.0757 15.1968 36.1204 15.014 36.1667 14.8318C36.1988 14.7056 36.3946 14.759 36.3625 14.8856V14.8835Z" fill="#281E1B"/>
<path d="M54.1906 58.6634C53.8497 58.7871 53.5365 58.9731 53.2236 59.1542L52.2217 59.7353C52.1084 59.8012 52.006 59.6265 52.1189 59.561L53.1387 58.9695C53.4613 58.7827 53.7847 58.5963 54.1365 58.4685C54.1625 58.4614 54.1903 58.4648 54.2137 58.478C54.2371 58.4912 54.2543 58.5132 54.2615 58.539C54.2686 58.5649 54.2652 58.5925 54.2519 58.6158C54.2386 58.6391 54.2166 58.6562 54.1906 58.6634Z" fill="#281E1B"/>
<path d="M54.5666 60.3737C54.3931 60.4424 54.2192 60.5104 54.0465 60.5803C53.8913 60.6461 53.744 60.729 53.6073 60.8274C53.4643 60.9264 53.3168 61.019 53.1645 61.1035C53.0881 61.1461 53.0108 61.1866 52.9325 61.2248C52.8963 61.243 52.8598 61.2604 52.8228 61.2774L52.7635 61.3045C52.7533 61.3089 52.7229 61.3243 52.7229 61.3235L52.7493 61.279L52.7452 61.2891V61.2366L52.7472 61.2446L52.7212 61.2002L52.7277 61.2062L52.6826 61.18L52.6908 61.1828H52.6371H52.644L52.5835 61.2293L52.5872 61.2232C52.6546 61.1116 52.8309 61.2131 52.7627 61.3251C52.751 61.3441 52.734 61.3594 52.7138 61.3691C52.6936 61.3788 52.6711 61.3826 52.6488 61.3799C52.6266 61.3772 52.6056 61.3682 52.5883 61.354C52.571 61.3398 52.5582 61.3209 52.5514 61.2996C52.5222 61.1982 52.6128 61.1549 52.6875 61.1209C52.835 61.0538 52.9796 60.9798 53.1202 60.8993C53.2608 60.8189 53.4009 60.7283 53.5358 60.6345C53.6681 60.542 53.8101 60.4639 53.9592 60.4016C54.1432 60.3256 54.3289 60.2544 54.5138 60.1812C54.5397 60.1743 54.5673 60.1778 54.5906 60.1909C54.614 60.2041 54.6312 60.2259 54.6385 60.2516C54.645 60.2774 54.6412 60.3047 54.6281 60.3279C54.6149 60.3511 54.5934 60.3683 54.5678 60.3761L54.5666 60.3737Z" fill="#281E1B"/>
<path d="M55.1534 61.6242C54.5388 61.8747 53.9451 62.1734 53.378 62.5174C53.2658 62.5849 53.1635 62.4102 53.2752 62.3427C53.858 61.9906 54.468 61.6852 55.0994 61.4293C55.1254 61.4223 55.153 61.4258 55.1765 61.439C55.1999 61.4521 55.2171 61.4739 55.2245 61.4997C55.2309 61.5255 55.2271 61.5528 55.2139 61.576C55.2006 61.5991 55.179 61.6164 55.1534 61.6242Z" fill="#281E1B"/>
<path d="M31.655 58.8046C30.7918 59.2508 29.8608 59.5528 28.8992 59.6986C28.6256 59.7398 28.3508 59.7687 28.0748 59.7851C27.944 59.7928 27.9448 59.5906 28.0748 59.5829C29.0186 59.5266 29.9469 59.3178 30.8233 58.9647C31.0716 58.8648 31.3145 58.7524 31.5522 58.6295C31.6684 58.5697 31.7712 58.7439 31.655 58.8042V58.8046Z" fill="#281E1B"/>
<path d="M31.2699 57.3727C30.4782 57.697 29.6495 57.9235 28.8025 58.0472C28.5614 58.0822 28.3196 58.1092 28.0769 58.128C28.05 58.1279 28.0242 58.1172 28.0052 58.0983C27.9862 58.0794 27.9754 58.0537 27.9753 58.0269C27.9758 58.0003 27.9867 57.9749 28.0056 57.956C28.0246 57.9372 28.0501 57.9264 28.0769 57.9259C28.915 57.8602 29.7419 57.6931 30.5394 57.4281C30.7677 57.3521 30.9932 57.2685 31.2158 57.1774C31.2417 57.1704 31.2694 57.1738 31.2928 57.187C31.3162 57.2002 31.3333 57.222 31.3406 57.2478C31.3471 57.2736 31.3435 57.301 31.3303 57.3242C31.3171 57.3474 31.2955 57.3646 31.2699 57.3723V57.3727Z" fill="#281E1B"/>
<path d="M30.9287 56.0409C30.043 56.4335 29.087 56.607 28.1302 56.7283C27.8593 56.7622 27.5879 56.7918 27.3177 56.8213C27.2908 56.8212 27.265 56.8105 27.246 56.7915C27.227 56.7726 27.2162 56.747 27.2161 56.7202C27.2167 56.6936 27.2276 56.6682 27.2465 56.6494C27.2655 56.6306 27.2909 56.6197 27.3177 56.6191C28.2497 56.518 29.1894 56.4145 30.0893 56.1404C30.3409 56.0647 30.5875 55.9738 30.828 55.8683C30.8514 55.8555 30.8789 55.8521 30.9047 55.8589C30.9306 55.8657 30.9528 55.882 30.9669 55.9047C30.9803 55.9279 30.9839 55.9554 30.9771 55.9812C30.9703 56.0071 30.9535 56.0293 30.9303 56.0429L30.9287 56.0409Z" fill="#281E1B"/>
</g>
<defs>
<clipPath id="clip0_1141_69465">
<rect width="104" height="109" fill="white" transform="matrix(-1 0 0 1 104 0)"/>
</clipPath>
</defs>
</svg>
