<svg width="254" height="188" viewBox="0 0 254 188" fill="none" xmlns="http://www.w3.org/2000/svg">
<g clip-path="url(#clip0_1141_69338)">
<path d="M56.3916 51.879L9.01562 83.7266L55.6807 153.83L103.057 121.983L56.3916 51.879Z" fill="#F5F5F5"/>
<path d="M78.5751 118.665L78.0346 122.009L54.4819 118.598L55.0224 115.254L78.5751 118.665Z" fill="#E0E0E0"/>
<path d="M66.7144 106.738L70.0923 107.226L66.347 130.53L62.9648 130.038L66.7144 106.738Z" fill="#E0E0E0"/>
<path d="M45.0405 77.1197C45.0743 77.1664 40.3283 80.421 34.438 84.3757C28.5477 88.3303 23.7468 91.5043 23.7131 91.4533C23.6793 91.4024 28.4253 88.1521 34.3156 84.1932C40.2059 80.2343 44.9856 77.0688 45.0405 77.1197Z" fill="#E0E0E0"/>
<path d="M62.4452 72.725C62.4789 72.7759 54.583 78.1393 44.8123 84.7078C35.0416 91.2763 27.0781 96.5591 27.0528 96.5125C27.0275 96.4658 34.9065 91.0939 44.6899 84.5254C54.4732 77.9569 62.4114 72.6741 62.4452 72.725Z" fill="#E0E0E0"/>
<path d="M65.9374 77.9691C65.9711 78.02 58.0752 83.3877 48.3045 89.9562C38.5338 96.5247 30.5703 101.808 30.545 101.757C30.5196 101.706 38.4071 96.3422 48.1821 89.7695C57.957 83.1968 65.9036 77.9182 65.9374 77.9691Z" fill="#E0E0E0"/>
<path d="M69.429 83.2172C69.4628 83.2681 61.5669 88.6358 51.7962 95.2C42.0255 101.764 34.062 107.056 34.062 107.005C34.062 106.954 41.9199 101.586 51.6949 95.0175C61.4698 88.449 69.3953 83.1662 69.429 83.2172Z" fill="#E0E0E0"/>
<path d="M72.9082 88.4672C72.942 88.5181 65.0461 93.8815 55.2754 100.45C45.5047 107.019 37.5412 112.301 37.5201 112.25C37.4989 112.199 45.3907 106.836 55.174 100.268C64.9574 93.699 72.9082 88.4162 72.9082 88.4672Z" fill="#E0E0E0"/>
<path d="M214.811 98.8528L175.023 125.6L214.213 184.474L254.001 157.727L214.811 98.8528Z" fill="#F5F5F5"/>
<path d="M233.445 154.954L232.993 157.763L213.211 154.899L213.663 152.09L233.445 154.954Z" fill="#E0E0E0"/>
<path d="M223.48 144.936L226.322 145.347L223.172 164.917L220.334 164.505L223.48 144.936Z" fill="#E0E0E0"/>
<path d="M205.265 120.083C205.298 120.134 201.317 122.871 196.368 126.194C191.419 129.516 187.383 132.172 187.349 132.134C187.315 132.096 191.301 129.351 196.245 126.024C201.19 122.697 205.231 120.011 205.265 120.083Z" fill="#E0E0E0"/>
<path d="M219.895 116.37C219.929 116.42 213.304 120.935 205.117 126.447C196.93 131.959 190.229 136.398 190.195 136.347C190.161 136.296 196.786 131.781 204.973 126.265C213.161 120.749 219.849 116.319 219.895 116.37Z" fill="#E0E0E0"/>
<path d="M222.83 120.774C222.864 120.825 216.239 125.34 208.052 130.856C199.864 136.372 193.163 140.802 193.13 140.751C193.096 140.7 199.7 136.206 207.908 130.69C216.116 125.174 222.805 120.727 222.83 120.774Z" fill="#E0E0E0"/>
<path d="M225.76 125.174C225.794 125.225 219.165 129.74 210.982 135.256C202.799 140.772 196.093 145.202 196.06 145.151C196.026 145.1 202.651 140.59 210.838 135.069C219.025 129.549 225.731 125.132 225.76 125.174Z" fill="#E0E0E0"/>
<path d="M228.716 129.592C228.75 129.643 222.125 134.154 213.937 139.67C205.75 145.186 199.049 149.616 199.015 149.569C198.981 149.523 205.606 145.004 213.794 139.487C221.981 133.971 228.661 129.541 228.716 129.592Z" fill="#E0E0E0"/>
<path d="M151.86 54.4573L108.446 31.123L74.2552 95.3636L117.669 118.698L151.86 54.4573Z" fill="#F5F5F5"/>
<path d="M110.243 98.5993L107.49 99.5455L100.498 80.1243L103.251 79.1738L110.243 98.5993Z" fill="#E0E0E0"/>
<path d="M114.466 84.6641L115.471 87.4519L96.2754 94.0585L95.2705 91.2708L114.466 84.6641Z" fill="#E0E0E0"/>
<path d="M128.104 56.0111C128.07 56.0747 123.67 53.7749 118.27 50.8768C112.869 47.9787 108.525 45.5728 108.558 45.5091C108.592 45.4455 112.996 47.7453 118.397 50.6434C123.797 53.5415 128.138 55.9432 128.104 56.0111Z" fill="#E0E0E0"/>
<path d="M138.525 67.5647C138.491 67.6284 131.203 63.7755 122.248 58.9637C113.292 54.1519 106.063 50.1972 106.097 50.1336C106.131 50.0699 113.414 53.9185 122.37 58.7346C131.326 63.5506 138.559 67.5011 138.525 67.5647Z" fill="#E0E0E0"/>
<path d="M135.966 72.3714C135.932 72.435 128.644 68.5864 119.688 63.7746C110.733 58.9628 103.504 55.0039 103.538 54.9402C103.571 54.8766 110.855 58.7294 119.811 63.5412C128.767 68.353 136 72.3077 135.966 72.3714Z" fill="#E0E0E0"/>
<path d="M133.407 77.18C133.374 77.2436 126.086 73.395 117.13 68.5832C108.174 63.7714 100.945 59.8294 100.979 59.7531C101.013 59.6767 108.297 63.538 117.252 68.3498C126.208 73.1616 133.441 77.1163 133.407 77.18Z" fill="#E0E0E0"/>
<path d="M130.848 81.9882C130.815 82.0519 123.527 78.2033 114.571 73.3915C105.615 68.5797 98.3821 64.625 98.4201 64.5613C98.4581 64.4977 105.738 68.3463 114.693 73.1581C123.649 77.9699 130.882 81.9246 130.848 81.9882Z" fill="#E0E0E0"/>
<path opacity="0.2" d="M131.072 0H129.983V18.6617H131.072V0Z" fill="black"/>
<path d="M105.096 41.2396H155.96C155.96 41.2396 151.264 18.6699 130.144 18.6699C111.358 18.6699 105.096 41.2396 105.096 41.2396Z" fill="#41CBD6"/>
<path d="M131.073 0H129.983V18.6617H131.073V0Z" fill="#41CBD6"/>
<path d="M243.777 186.63C243.777 186.689 189.203 186.74 121.893 186.74C54.5833 186.74 0 186.702 0 186.63C0 186.558 54.5664 186.52 121.893 186.52C189.22 186.52 243.777 186.566 243.777 186.63Z" fill="#416762"/>
<path d="M13.4947 160.055C14.2086 160.107 14.9048 160.303 15.5418 160.631C16.1787 160.959 16.7434 161.412 17.202 161.964C18.114 163.075 18.7598 164.382 19.0894 165.783C19.803 168.465 19.3639 171.635 18.6039 174.304C15.7157 173.264 13.9296 170.167 13.1147 168.537C11.848 165.966 11.0922 160.535 13.4821 160.051" fill="#41CBD6"/>
<path d="M22.7632 177.558C22.3295 176.882 22.0815 176.103 22.0444 175.299C22.0073 174.496 22.1825 173.697 22.5521 172.983C22.9332 172.277 23.4507 171.654 24.0741 171.15C24.6976 170.647 25.4146 170.273 26.1834 170.051C26.8885 169.831 27.7076 169.742 28.3199 170.153C28.5959 170.363 28.8108 170.643 28.9423 170.965C29.0738 171.287 29.1169 171.638 29.0673 171.982C28.9564 172.672 28.665 173.319 28.2228 173.858C26.8167 175.771 25.1109 177.362 22.7336 177.558" fill="#41CBD6"/>
<path d="M23.084 186.524C23.0213 186.344 22.9775 186.158 22.9531 185.969C22.8771 185.57 22.7758 185.056 22.6533 184.441C22.2743 182.756 22.1688 181.021 22.3409 179.303C22.54 177.576 23.1945 175.933 24.2367 174.546C24.5552 174.131 24.9224 173.756 25.3303 173.43C25.4412 173.342 25.5568 173.259 25.6766 173.184C25.7147 173.152 25.7574 173.126 25.8033 173.107C25.2691 173.566 24.7812 174.076 24.3465 174.631C23.3592 176.02 22.7375 177.637 22.5393 179.332C22.2691 181.31 22.6027 183.121 22.7969 184.424C22.8982 185.073 22.9827 185.599 23.0291 185.964C23.0624 186.149 23.0807 186.337 23.084 186.524Z" fill="#263238"/>
<path d="M14.4238 164.141C14.472 164.208 14.5118 164.28 14.5421 164.357C14.6181 164.527 14.7194 164.739 14.8376 165.006C15.0952 165.571 15.4541 166.39 15.889 167.404C16.7588 169.436 17.9242 172.262 19.1403 175.411C20.3563 178.559 21.3908 181.432 22.096 183.524C22.4591 184.567 22.742 185.416 22.9405 186.006C23.0291 186.286 23.0967 186.511 23.1516 186.685C23.1817 186.763 23.203 186.844 23.2149 186.927C23.1721 186.855 23.1381 186.778 23.1136 186.698C23.0502 186.528 22.97 186.307 22.8645 186.031L21.9735 183.57C21.2177 181.495 20.1621 178.627 18.9503 175.483C17.7384 172.339 16.5899 169.504 15.7539 167.459C15.3317 166.453 15.0065 165.634 14.7658 165.036C14.6561 164.764 14.5674 164.548 14.4998 164.374C14.4681 164.298 14.4427 164.22 14.4238 164.141Z" fill="#263238"/>
<path d="M19.6512 180.593C18.7823 179.139 17.5817 177.914 16.1485 177.019C14.7153 176.124 13.0907 175.585 11.409 175.446C10.5645 175.386 9.52578 175.53 9.14576 176.294C8.76574 177.058 9.27243 177.991 9.85513 178.611C11.0932 179.912 12.6869 180.817 14.4355 181.209C16.184 181.602 18.0091 181.466 19.6807 180.817" fill="#41CBD6"/>
<path d="M12.7095 177.746C12.8885 177.737 13.068 177.744 13.2457 177.767C13.4539 177.778 13.6612 177.803 13.8664 177.839C14.1071 177.886 14.39 177.911 14.6856 177.996C15.016 178.067 15.3417 178.157 15.661 178.268C16.0308 178.387 16.3932 178.529 16.7461 178.692C17.5579 179.058 18.3256 179.515 19.0347 180.054C19.7355 180.607 20.3703 181.239 20.9263 181.938C21.1664 182.243 21.3878 182.561 21.5893 182.893C21.7713 183.179 21.9376 183.475 22.0875 183.78C22.2144 184.028 22.3271 184.283 22.4253 184.544C22.51 184.737 22.5819 184.935 22.6406 185.138C22.7032 185.307 22.7498 185.482 22.78 185.66C22.7335 185.66 22.5308 184.93 21.9608 183.843C21.8056 183.552 21.6351 183.268 21.4499 182.995C21.2441 182.673 21.0214 182.363 20.7828 182.066C19.6784 180.694 18.2699 179.601 16.6701 178.875C16.3028 178.713 15.9523 178.561 15.6103 178.45C15.2963 178.335 14.9763 178.238 14.6518 178.158C13.4695 177.831 12.7053 177.793 12.7095 177.746Z" fill="#263238"/>
<path d="M204.378 44.7576C203.137 45.0419 202.533 46.4803 202.415 47.7533C202.297 49.0263 202.457 50.3756 201.925 51.5382C201.325 52.8452 199.894 53.8126 199.848 55.2511C199.818 56.1294 200.337 56.9484 200.312 57.8352C200.27 59.2779 198.809 60.3811 198.729 61.8068C198.674 62.8464 199.362 63.8393 199.197 64.8662C199.071 65.6639 198.45 66.2919 198.188 67.0557C197.669 68.5833 198.712 70.2593 200.067 71.1165C200.826 71.5962 201.681 71.9036 202.571 72.017C203.46 72.1305 204.364 72.0473 205.219 71.7733C206.073 71.4994 206.858 71.0412 207.518 70.4308C208.178 69.8204 208.697 69.0726 209.04 68.2396C209.791 66.4065 209.627 64.34 209.462 62.3669C208.955 56.2114 208.578 50.0475 208.33 43.875" fill="#263238"/>
<path d="M200.772 66.4746C201.028 66.3151 201.227 66.0792 201.342 65.8C201.464 65.4679 201.513 65.1133 201.486 64.7604C201.44 64.2925 201.336 63.8322 201.178 63.3898C200.976 62.8338 200.901 62.2392 200.958 61.6501C201.064 60.9882 201.537 60.445 201.963 59.9104C202.193 59.6487 202.385 59.3559 202.533 59.0405C202.682 58.7216 202.706 58.3581 202.601 58.0222C202.381 57.3305 201.706 56.8213 201.397 56.0194C201.252 55.6223 201.229 55.1909 201.33 54.7803C201.426 54.3954 201.567 54.0235 201.752 53.6729C202.109 53.0413 202.392 52.3707 202.597 51.6743C202.892 50.3292 202.753 49.0435 202.955 47.9869C203.068 47.1407 203.442 46.3512 204.024 45.7296C204.188 45.5621 204.376 45.4192 204.581 45.3052C204.652 45.2682 204.727 45.2411 204.805 45.2246C204.54 45.371 204.297 45.5538 204.083 45.7677C203.543 46.3957 203.204 47.1716 203.107 47.9954C203.033 48.5582 202.994 49.1251 202.989 49.6927C202.988 50.3608 202.923 51.0272 202.795 51.6828C202.594 52.3952 202.31 53.0816 201.951 53.728C201.634 54.3942 201.342 55.175 201.621 55.9048C201.9 56.6346 202.571 57.1396 202.829 57.9203C202.945 58.306 202.917 58.7212 202.749 59.0872C202.584 59.4343 202.371 59.7558 202.115 60.0419C201.693 60.5766 201.233 61.0858 201.131 61.6798C201.072 62.2433 201.139 62.8129 201.326 63.3474C201.476 63.8035 201.57 64.2767 201.604 64.7561C201.625 65.1254 201.56 65.4944 201.414 65.8339C201.323 66.0468 201.178 66.2314 200.992 66.3686C200.926 66.4172 200.852 66.4531 200.772 66.4746Z" fill="#455A64"/>
<path d="M197.471 76.5352L193.67 87.5675L177.777 88.4162L175.125 94.3567L191.72 96.054C192.504 96.3774 193.345 96.5378 194.192 96.5254C195.04 96.513 195.876 96.3281 196.65 95.9819C197.424 95.6357 198.121 95.1353 198.697 94.511C199.274 93.8867 199.718 93.1514 200.004 92.3496L204.433 79.9255L197.471 76.5352Z" fill="#FFBE9D"/>
<path d="M230.325 180.634C230.325 180.634 218.68 143.455 218.431 142.249C218.207 141.155 222.653 114.401 223.219 107.455L207.482 108.045V108.202L200.793 108.575L206.781 184.58H214.022L213.305 159.354C217.772 171.4 224.173 183.68 224.173 183.68L230.325 180.634Z" fill="#FFBE9D"/>
<path d="M213.6 168.404C213.6 168.175 213.511 159.952 213.511 159.952C213.423 160.444 210.737 152.815 210.8 152.352C210.834 152.11 213.6 168.404 213.6 168.404Z" fill="#A36957"/>
<path d="M210.497 148.736C210.459 148.888 210.444 149.043 210.45 149.199C210.427 149.623 210.427 150.048 210.45 150.472C210.45 150.739 210.488 151.028 210.522 151.342C210.556 151.656 210.602 151.987 210.674 152.33C210.824 153.081 211.023 153.821 211.269 154.545C211.793 156.086 212.376 157.431 212.785 158.407C212.979 158.831 213.148 159.234 213.292 159.557C213.344 159.707 213.415 159.849 213.503 159.981C213.48 159.834 213.438 159.691 213.376 159.557C213.279 159.276 213.131 158.873 212.954 158.377C212.582 157.384 212.025 156.026 211.506 154.503C211.26 153.789 211.058 153.061 210.902 152.322C210.826 151.982 210.775 151.656 210.729 151.35C210.682 151.045 210.649 150.756 210.627 150.502C210.577 149.975 210.556 149.551 210.543 149.254C210.551 149.08 210.535 148.906 210.497 148.736Z" fill="#A36957"/>
<path d="M206.646 184.965V184.282L214.065 183.955L214.086 186.777L213.63 186.807C211.59 186.925 203.264 187.273 201.904 186.862C200.38 186.403 206.646 184.965 206.646 184.965Z" fill="#455A64"/>
<path d="M214.183 186.607C214.141 186.61 214.098 186.61 214.056 186.607L213.693 186.633L212.35 186.692C211.219 186.738 209.652 186.78 207.925 186.789C206.198 186.797 204.628 186.768 203.492 186.734L202.153 186.679H201.786H201.659C201.701 186.676 201.744 186.676 201.786 186.679H202.153L203.496 186.705C204.628 186.705 206.194 186.738 207.921 186.73C209.648 186.721 211.219 186.692 212.35 186.662L213.693 186.629H214.183V186.607Z" fill="#263238"/>
<path d="M204.226 186.846C204.165 186.624 204.08 186.409 203.973 186.205C203.839 186.017 203.685 185.845 203.513 185.691C203.743 185.774 203.935 185.941 204.049 186.158C204.189 186.358 204.252 186.602 204.226 186.846Z" fill="#263238"/>
<path d="M206.413 185.729C206.413 185.729 206.291 185.615 206.181 185.445C206.071 185.275 206.004 185.127 206.025 185.114C206.046 185.101 206.147 185.225 206.257 185.394C206.367 185.564 206.434 185.717 206.413 185.729Z" fill="#263238"/>
<path d="M207.013 185.428C207.013 185.449 206.878 185.368 206.752 185.254C206.625 185.139 206.532 185.033 206.549 185.016C206.566 184.999 206.684 185.075 206.811 185.19C206.937 185.305 207.03 185.389 207.013 185.428Z" fill="#263238"/>
<path d="M207.389 184.706C207.265 184.751 207.132 184.769 207 184.757C206.871 184.774 206.74 184.761 206.616 184.719C206.739 184.673 206.87 184.656 207 184.668C207.131 184.65 207.264 184.663 207.389 184.706Z" fill="#263238"/>
<path d="M207.515 184.215C207.39 184.297 207.243 184.341 207.093 184.342C206.95 184.361 206.804 184.34 206.671 184.283C206.81 184.259 206.952 184.248 207.093 184.249C207.232 184.224 207.374 184.213 207.515 184.215Z" fill="#263238"/>
<path d="M206.165 185.081C206.007 185.11 205.845 185.11 205.687 185.081C205.517 185.06 205.349 185.023 205.185 184.97C205.084 184.942 204.986 184.902 204.894 184.852C204.837 184.818 204.795 184.765 204.775 184.703C204.768 184.668 204.77 184.631 204.783 184.597C204.796 184.563 204.818 184.533 204.847 184.512C204.964 184.455 205.092 184.425 205.222 184.424C205.352 184.423 205.481 184.451 205.599 184.505C205.716 184.56 205.821 184.641 205.904 184.741C205.987 184.841 206.047 184.959 206.08 185.085C206.089 185.127 206.089 185.17 206.08 185.212C206.032 185.059 205.958 184.915 205.861 184.788C205.748 184.661 205.601 184.569 205.438 184.525C205.251 184.464 205.048 184.479 204.872 184.567C204.801 184.622 204.83 184.712 204.91 184.762C204.997 184.809 205.087 184.848 205.181 184.877C205.339 184.929 205.502 184.971 205.666 185C205.983 185.068 206.165 185.068 206.165 185.081Z" fill="#263238"/>
<path d="M206.042 185.107C205.981 185.008 205.959 184.89 205.983 184.776C205.998 184.651 206.043 184.532 206.114 184.428C206.154 184.357 206.21 184.297 206.279 184.254C206.348 184.211 206.426 184.186 206.507 184.182C206.554 184.193 206.596 184.222 206.624 184.263C206.651 184.304 206.662 184.354 206.654 184.402C206.644 184.478 206.617 184.551 206.574 184.614C206.51 184.72 206.435 184.818 206.35 184.907C206.277 184.992 206.184 185.057 206.08 185.098C206.08 185.098 206.173 185.013 206.304 184.861C206.38 184.773 206.446 184.678 206.502 184.576C206.566 184.474 206.612 184.292 206.502 184.271C206.393 184.25 206.266 184.381 206.194 184.474C206.127 184.566 206.081 184.672 206.059 184.784C206.042 184.891 206.036 184.999 206.042 185.107Z" fill="#263238"/>
<path d="M214.027 184.58C214.027 184.58 213.815 184.58 213.482 184.601C213.048 184.654 212.636 184.827 212.295 185.103C211.954 185.378 211.697 185.744 211.552 186.159C211.442 186.477 211.434 186.693 211.417 186.689C211.4 186.685 211.417 186.634 211.417 186.541C211.428 186.404 211.453 186.269 211.493 186.137C211.628 185.703 211.886 185.318 212.236 185.03C212.591 184.747 213.022 184.577 213.473 184.542C213.614 184.525 213.755 184.525 213.896 184.542C213.941 184.549 213.985 184.562 214.027 184.58Z" fill="#263238"/>
<path d="M210.476 186.015C210.121 186.097 209.758 186.132 209.395 186.12C209.033 186.138 208.671 186.107 208.318 186.027C208.318 186.002 208.799 186.027 209.395 186.027C209.99 186.027 210.471 185.989 210.476 186.015Z" fill="#263238"/>
<path d="M211.92 186C211.92 186 211.882 186.102 211.831 186.212C211.78 186.323 211.755 186.424 211.73 186.42C211.704 186.416 211.692 186.306 211.751 186.174C211.81 186.043 211.903 185.979 211.92 186Z" fill="#263238"/>
<path d="M212.464 185.318C212.464 185.318 212.435 185.411 212.359 185.487C212.283 185.564 212.207 185.615 212.185 185.598C212.164 185.581 212.215 185.504 212.291 185.424C212.367 185.343 212.443 185.296 212.464 185.318Z" fill="#263238"/>
<path d="M213.241 185.003C213.241 185.029 213.14 185.029 213.03 185.067C212.92 185.105 212.844 185.164 212.823 185.147C212.802 185.13 212.866 185.029 213.001 184.982C213.136 184.935 213.25 184.978 213.241 185.003Z" fill="#263238"/>
<path d="M213.794 184.852C213.794 184.877 213.765 184.915 213.701 184.936C213.638 184.957 213.583 184.961 213.575 184.936C213.566 184.911 213.609 184.873 213.668 184.852C213.727 184.831 213.786 184.831 213.794 184.852Z" fill="#263238"/>
<path d="M224.025 184.308L223.747 183.684L230.38 180.336L231.55 182.882L231.128 183.098C229.316 184.045 221.864 187.787 220.453 187.974C218.895 188.199 224.025 184.308 224.025 184.308Z" fill="#455A64"/>
<path d="M231.575 182.699L231.465 182.767L231.14 182.937L229.941 183.548C228.927 184.053 227.517 184.736 225.942 185.457C224.367 186.179 222.923 186.794 221.876 187.231L220.63 187.736L220.292 187.867C220.253 187.886 220.212 187.898 220.17 187.906L220.284 187.85L220.617 187.702L221.85 187.172C222.893 186.722 224.329 186.094 225.904 185.372C227.479 184.651 228.893 183.981 229.915 183.488L231.123 182.907L231.456 182.75L231.575 182.699Z" fill="#263238"/>
<path d="M222.602 187.016C222.456 186.837 222.29 186.674 222.108 186.532C221.91 186.414 221.699 186.32 221.479 186.252C221.721 186.249 221.959 186.32 222.16 186.457C222.361 186.593 222.515 186.788 222.602 187.016Z" fill="#263238"/>
<path d="M224.127 185.098C224.127 185.098 223.966 185.047 223.797 184.937C223.628 184.826 223.506 184.72 223.518 184.699C223.531 184.678 223.679 184.75 223.848 184.86C224.017 184.971 224.139 185.077 224.127 185.098Z" fill="#263238"/>
<path d="M224.54 184.58C224.54 184.602 224.397 184.58 224.232 184.53C224.068 184.479 223.945 184.415 223.949 184.389C224.056 184.379 224.164 184.397 224.262 184.44C224.422 184.479 224.549 184.538 224.54 184.58Z" fill="#263238"/>
<path d="M224.599 183.766C224.599 183.791 224.46 183.88 224.266 183.974C224.154 184.041 224.028 184.083 223.898 184.097C223.898 184.071 224.038 183.982 224.228 183.889C224.341 183.821 224.468 183.779 224.599 183.766Z" fill="#263238"/>
<path d="M224.515 183.264C224.515 183.264 224.393 183.434 224.173 183.557C224.049 183.642 223.901 183.686 223.751 183.684C223.872 183.603 224.001 183.533 224.135 183.476C224.342 183.362 224.494 183.243 224.515 183.264Z" fill="#263238"/>
<path d="M223.649 184.614C223.521 184.702 223.378 184.768 223.227 184.809C223.061 184.857 222.892 184.893 222.72 184.915C222.617 184.928 222.512 184.928 222.408 184.915C222.343 184.91 222.282 184.879 222.239 184.83C222.219 184.8 222.209 184.764 222.209 184.728C222.209 184.692 222.219 184.657 222.239 184.626C222.367 184.47 222.546 184.363 222.744 184.325C222.942 184.286 223.147 184.318 223.324 184.414C223.429 184.469 223.521 184.546 223.594 184.639C223.645 184.707 223.666 184.749 223.662 184.754C223.558 184.637 223.433 184.541 223.295 184.469C223.146 184.399 222.98 184.374 222.818 184.397C222.721 184.407 222.627 184.436 222.541 184.483C222.456 184.53 222.38 184.593 222.319 184.669C222.273 184.749 222.319 184.817 222.433 184.83C222.53 184.838 222.628 184.838 222.725 184.83C222.893 184.813 223.059 184.783 223.223 184.741C223.464 184.673 223.649 184.601 223.649 184.614Z" fill="#263238"/>
<path d="M223.531 184.685C223.437 184.618 223.371 184.519 223.345 184.405C223.308 184.286 223.299 184.16 223.32 184.036C223.327 183.955 223.355 183.877 223.401 183.809C223.447 183.741 223.509 183.687 223.582 183.65C223.687 183.616 223.932 183.833 223.949 183.913C223.966 183.994 223.827 183.951 223.818 184.019C223.804 184.14 223.776 184.258 223.734 184.371C223.703 184.481 223.645 184.58 223.565 184.66C223.565 184.66 223.615 184.545 223.675 184.354C223.705 184.242 223.726 184.127 223.738 184.011C223.738 183.892 223.738 183.709 223.603 183.739C223.468 183.769 223.43 183.934 223.4 184.053C223.374 184.163 223.374 184.278 223.4 184.388C223.435 184.491 223.479 184.59 223.531 184.685Z" fill="#263238"/>
<path d="M230.604 180.914C230.604 180.914 230.401 180.986 230.114 181.16C229.739 181.386 229.433 181.712 229.232 182.102C229.036 182.496 228.953 182.937 228.991 183.375C229.016 183.715 229.097 183.91 229.08 183.918C229.052 183.876 229.031 183.83 229.016 183.782C228.974 183.653 228.945 183.519 228.928 183.384C228.867 182.932 228.945 182.472 229.151 182.066C229.357 181.659 229.681 181.326 230.08 181.109C230.2 181.043 230.326 180.989 230.456 180.948C230.503 180.929 230.553 180.918 230.604 180.914Z" fill="#263238"/>
<path d="M227.948 183.689C227.352 184.105 226.687 184.409 225.984 184.588C225.984 184.563 226.428 184.393 226.968 184.164C227.509 183.935 227.935 183.667 227.948 183.689Z" fill="#263238"/>
<path d="M229.261 183.081C229.282 183.081 229.261 183.187 229.261 183.31C229.261 183.433 229.261 183.535 229.261 183.544C229.261 183.552 229.177 183.45 229.177 183.31C229.177 183.17 229.24 183.068 229.261 183.081Z" fill="#263238"/>
<path d="M229.476 182.233C229.497 182.233 229.476 182.331 229.451 182.432C229.426 182.534 229.362 182.611 229.341 182.602C229.32 182.594 229.341 182.505 229.366 182.403C229.392 182.301 229.451 182.225 229.476 182.233Z" fill="#263238"/>
<path d="M230.059 181.609C230.059 181.635 229.974 181.673 229.89 181.754C229.806 181.834 229.759 181.919 229.738 181.911C229.717 181.902 229.738 181.783 229.831 181.686C229.924 181.588 230.055 181.609 230.059 181.609Z" fill="#263238"/>
<path d="M230.503 181.261C230.503 181.261 230.503 181.329 230.452 181.375C230.401 181.421 230.355 181.447 230.338 181.43C230.321 181.413 230.338 181.362 230.389 181.316C230.439 181.27 230.486 181.244 230.503 181.261Z" fill="#263238"/>
<path d="M222.197 94.8956L220.964 79.7473L227.297 79.8619C227.297 79.8619 227.589 77.6257 226.656 72.729C226.081 69.7248 224.093 67.8833 221.859 66.7885V66.7461L221.665 66.6952C219.826 65.8656 217.862 65.3507 215.855 65.1719L208.064 65.261C208.064 65.261 202.115 64.4972 198.834 68.7786C197.567 70.4207 193.636 81.661 193.636 81.661L202.989 86.1843L202.115 79.951C202.115 79.951 202.292 84.47 202.866 85.8915C203.183 86.6892 204.133 89.1673 204.133 89.1673L204.011 96.6438L222.197 94.8956Z" fill="#81CEC3"/>
<path d="M217.898 77.5494L216.746 82.497H227.652L226.934 74.1973L217.898 77.5494Z" fill="#81CEC3"/>
<path d="M227.652 82.4961C227.176 82.4079 226.693 82.3596 226.208 82.3518C225.313 82.3009 224.097 82.2542 222.712 82.2627C221.327 82.2712 220.107 82.3306 219.212 82.3985C218.728 82.4154 218.246 82.4751 217.772 82.5767C218.255 82.6154 218.741 82.6154 219.224 82.5767C220.115 82.547 221.336 82.5131 222.712 82.5088C224.089 82.5046 225.309 82.5088 226.204 82.53C226.687 82.5573 227.171 82.5459 227.652 82.4961Z" fill="#263238"/>
<path d="M217.43 74.1582C217.378 74.5804 217.366 75.0067 217.396 75.4312C217.396 76.2077 217.43 77.277 217.476 78.4608C217.523 79.6447 217.577 80.7182 217.628 81.4905C217.63 81.9183 217.675 82.3448 217.763 82.7634C217.815 82.3412 217.826 81.9149 217.797 81.4905C217.797 80.714 217.763 79.6404 217.717 78.4566C217.67 77.2727 217.615 76.2034 217.565 75.4269C217.563 75.0005 217.518 74.5754 217.43 74.1582Z" fill="#263238"/>
<g opacity="0.3">
<path d="M207.507 78.4434C207.507 78.4434 209.931 96.5067 216.746 96.0273C216.746 96.0273 219.816 95.9933 220.8 93.9438V93.1376L207.507 78.4434Z" fill="black"/>
</g>
<g opacity="0.3">
<path d="M217.43 75.2227L216.125 84.0782L216.969 85.6313L218.359 82.5931L217.772 82.5762L217.43 75.2227Z" fill="black"/>
</g>
<path d="M204.096 89.1758C204.015 89.0435 203.952 88.9008 203.91 88.7515C203.804 88.4756 203.665 88.0725 203.488 87.5676C203.065 86.2519 202.717 84.9131 202.445 83.5578C202.174 82.2016 202.001 80.8274 201.929 79.4461C201.904 78.9157 201.896 78.4871 201.904 78.1731C201.893 78.0197 201.903 77.8655 201.934 77.7148C201.967 77.7148 201.993 78.3683 202.081 79.4121C202.2 80.7809 202.393 82.1422 202.66 83.4899C202.972 85.0683 203.348 86.4813 203.635 87.4955C203.77 87.9665 203.884 88.3696 203.977 88.7005C204.035 88.8537 204.075 89.0132 204.096 89.1758Z" fill="#263238"/>
<path d="M206.848 94.3642C206.789 94.3642 206.62 93.995 206.472 93.5155C206.345 93.2217 206.289 92.9019 206.308 92.582C206.494 92.8413 206.622 93.1381 206.684 93.4519C206.805 93.7401 206.861 94.0516 206.848 94.3642Z" fill="#263238"/>
<path d="M207.79 94.2962C207.471 93.445 207.457 92.5085 207.752 91.6484C207.785 92.0891 207.785 92.5316 207.752 92.9723C207.798 93.412 207.811 93.8546 207.79 94.2962Z" fill="#263238"/>
<path d="M203.179 86.3918C203.15 86.4427 200.975 85.4073 198.319 84.075C195.663 82.7426 193.531 81.6139 193.556 81.5587C193.582 81.5036 195.76 82.5432 198.416 83.8755C201.072 85.2079 203.205 86.3366 203.179 86.3918Z" fill="#263238"/>
<path d="M207.013 66.7246C207.06 64.5775 207.072 62.3201 207.072 62.3201C207.072 62.3201 204.332 61.7897 203.855 58.166C203.399 54.712 204.674 46.6032 204.674 46.6032C208.677 45.0842 212.836 46.4632 215.576 49.722L214.897 67.1489C214.816 69.1729 213.022 70.7174 210.868 70.6156C208.69 70.5095 206.967 68.7698 207.013 66.7246Z" fill="#FFBE9D"/>
<path d="M204.463 53.0831C204.459 53.202 204.501 53.3179 204.579 53.407C204.658 53.4962 204.767 53.5518 204.885 53.5626C204.945 53.5684 205.005 53.5619 205.063 53.5434C205.12 53.525 205.173 53.495 205.218 53.4553C205.264 53.4156 205.301 53.367 205.327 53.3125C205.353 53.258 205.368 53.1987 205.37 53.1382C205.374 53.0197 205.332 52.9044 205.254 52.8159C205.175 52.7275 205.066 52.6727 204.948 52.663C204.888 52.6538 204.827 52.6578 204.768 52.6747C204.71 52.6916 204.656 52.7211 204.609 52.7609C204.563 52.8008 204.526 52.8503 204.501 52.9059C204.476 52.9615 204.463 53.0219 204.463 53.0831Z" fill="#263238"/>
<path d="M204.294 52.4751C204.349 52.5345 204.716 52.2842 205.202 52.3011C205.687 52.3181 206.046 52.5727 206.105 52.5133C206.164 52.4539 206.08 52.3775 205.924 52.2544C205.712 52.1005 205.459 52.0161 205.197 52.0126C204.94 52.0027 204.687 52.0772 204.475 52.2247C204.319 52.3393 204.264 52.4454 204.294 52.4751Z" fill="#263238"/>
<path d="M209.492 53.3956C209.487 53.5148 209.528 53.6313 209.607 53.7206C209.685 53.81 209.795 53.8653 209.914 53.8751C209.974 53.8843 210.036 53.8802 210.095 53.863C210.154 53.8459 210.208 53.8161 210.254 53.7757C210.3 53.7354 210.337 53.6854 210.362 53.6293C210.387 53.5732 210.4 53.5123 210.399 53.4507C210.404 53.332 210.363 53.216 210.284 53.1273C210.205 53.0387 210.095 52.9842 209.977 52.9755C209.917 52.9663 209.856 52.9703 209.797 52.9872C209.739 53.0041 209.684 53.0336 209.638 53.0734C209.592 53.1133 209.555 53.1628 209.53 53.2184C209.505 53.274 209.492 53.3344 209.492 53.3956Z" fill="#263238"/>
<path d="M209.458 52.7892C209.513 52.8529 209.88 52.6025 210.366 52.6153C210.851 52.628 211.21 52.8868 211.274 52.8274C211.337 52.768 211.244 52.6916 211.088 52.5728C210.88 52.4149 210.627 52.3286 210.366 52.3267C210.108 52.319 209.854 52.3932 209.64 52.5389C209.488 52.6535 209.433 52.7595 209.458 52.7892Z" fill="#263238"/>
<path d="M207.566 56.4344C207.307 56.3448 207.038 56.2892 206.764 56.2689C206.637 56.2689 206.519 56.2222 206.502 56.1373C206.492 56.0047 206.525 55.8723 206.595 55.7597L206.992 54.805C207.361 53.9935 207.665 53.1535 207.9 52.293C207.468 53.0726 207.098 53.8857 206.794 54.7243C206.663 55.0595 206.532 55.382 206.409 55.6875C206.328 55.8391 206.301 56.0147 206.333 56.184C206.35 56.23 206.377 56.2715 206.412 56.3054C206.447 56.3392 206.49 56.3645 206.536 56.3792C206.606 56.3996 206.679 56.411 206.751 56.4131C207.021 56.4549 207.295 56.462 207.566 56.4344Z" fill="#263238"/>
<path d="M207.072 62.3192C208.762 62.3872 210.437 61.9833 211.911 61.1523C211.911 61.1523 210.682 63.6007 207.098 63.1721L207.072 62.3192Z" fill="#A36957"/>
<path d="M211.045 51.3433C210.944 51.5003 210.564 51.4324 210.142 51.3433C209.72 51.2542 209.348 51.182 209.297 50.9996C209.247 50.8171 209.69 50.5752 210.256 50.6898C210.822 50.8044 211.147 51.2075 211.045 51.3433Z" fill="#263238"/>
<path d="M206.118 50.6208C206.08 50.8032 205.674 50.8711 205.21 50.8923C204.745 50.9135 204.336 50.8923 204.281 50.7056C204.226 50.5189 204.619 50.2558 205.18 50.2304C205.742 50.2049 206.156 50.4468 206.118 50.6208Z" fill="#263238"/>
<path d="M207.574 57.6266C207.521 57.6139 207.465 57.6195 207.415 57.6426C207.366 57.6657 207.325 57.7049 207.3 57.7539C207.276 57.7971 207.264 57.846 207.264 57.8955C207.265 57.9451 207.278 57.9936 207.303 58.0364C207.328 58.0791 207.364 58.1146 207.406 58.1392C207.449 58.1638 207.498 58.1768 207.547 58.1768C207.596 58.1768 207.645 58.1638 207.688 58.1392C207.73 58.1146 207.766 58.0791 207.791 58.0364C207.816 57.9936 207.829 57.9451 207.83 57.8955C207.83 57.846 207.818 57.7971 207.794 57.7539C207.764 57.6969 207.715 57.652 207.656 57.6265C207.597 57.601 207.531 57.5966 207.469 57.6139" fill="#A36957"/>
<path d="M207.689 57.6784C207.689 57.6572 207.609 57.5341 207.393 57.5808C207.329 57.5977 207.27 57.6313 207.223 57.6782C207.175 57.7251 207.141 57.7837 207.123 57.8481C207.1 57.9294 207.102 58.0155 207.129 58.0957C207.155 58.1758 207.205 58.2462 207.271 58.2979C207.341 58.3462 207.424 58.3721 207.509 58.3721C207.595 58.3721 207.678 58.3462 207.748 58.2979C207.804 58.2599 207.848 58.2065 207.875 58.1441C207.902 58.0817 207.911 58.0129 207.9 57.9457C207.858 57.7208 207.693 57.6869 207.685 57.7166C207.676 57.7463 207.744 57.8227 207.731 57.9542C207.728 57.9867 207.718 58.018 207.7 58.0454C207.682 58.0728 207.658 58.0954 207.63 58.1112C207.597 58.1302 207.56 58.1402 207.522 58.1402C207.484 58.1402 207.447 58.1302 207.414 58.1112C207.385 58.0861 207.363 58.0537 207.349 58.0173C207.336 57.9809 207.332 57.9416 207.338 57.9033C207.343 57.8698 207.356 57.8379 207.376 57.8106C207.396 57.7832 207.422 57.7611 207.452 57.7463C207.571 57.6741 207.676 57.7081 207.689 57.6784Z" fill="#263238"/>
<path d="M213.938 53.9768C213.516 54.9697 212.468 55.7377 212.612 56.8113C212.705 57.5029 213.148 58.1479 213.064 58.8438C212.954 59.6924 212.055 60.3204 211.924 61.1903C211.767 62.2553 212.802 63.0827 213.212 64.0756C213.815 65.5268 213.047 67.1562 213.026 68.7432C213.051 69.948 213.509 71.103 214.317 71.994C215.124 72.885 216.226 73.4516 217.417 73.5889C218.38 73.6696 219.465 73.3768 219.95 72.5451C220.373 71.8577 220.28 70.9836 220.525 70.2241C220.896 69.0869 221.973 68.2552 222.214 67.0841C222.636 64.9625 220.06 63.1803 220.229 61.0078C220.301 60.0785 220.871 59.2723 221.112 58.3728C221.265 57.7816 221.277 57.1623 221.146 56.5657C221.015 55.969 220.746 55.4119 220.36 54.94C219.722 54.1805 218.802 53.667 218.249 52.8523C217.637 51.9146 217.615 50.7307 217.404 49.6232C217.121 48.2771 216.502 47.0252 215.607 45.9845C214.711 44.9438 213.567 44.1483 212.283 43.6724C210.998 43.1964 209.614 43.0555 208.261 43.2629C206.907 43.4702 205.628 44.0191 204.543 44.8581C204.543 44.8581 203.931 47.6544 206.789 48.1254C209.648 48.5964 210.969 48.0533 211.29 49.2032C211.215 49.6769 211.252 50.1619 211.399 50.6184C211.545 51.0749 211.798 51.49 212.135 51.8297C213.3 53.0942 214.411 52.8226 213.938 53.9768Z" fill="#263238"/>
<path d="M218.477 73.3742C218.389 73.3772 218.301 73.3687 218.215 73.3488C217.968 73.3046 217.724 73.2379 217.489 73.1493C216.617 72.8134 215.852 72.2458 215.276 71.5072C214.873 70.9975 214.556 70.424 214.339 69.8099C214.092 69.1106 213.962 68.3751 213.955 67.6331C213.946 66.8154 214.048 66.0002 214.259 65.2103C214.374 64.793 214.515 64.3835 214.681 63.984C214.855 63.5863 215.009 63.1798 215.141 62.7662C215.257 62.3585 215.257 61.9263 215.141 61.5187C215.018 61.1174 214.858 60.7282 214.664 60.356C214.468 59.987 214.303 59.6024 214.17 59.2061C214.04 58.8139 214.01 58.3953 214.081 57.9883C214.25 57.1906 214.732 56.5965 215.019 55.9898C215.292 55.4281 215.423 54.807 215.399 54.1821C215.36 53.2677 215.03 52.39 214.457 51.6786C214.235 51.4295 213.997 51.1956 213.744 50.9785C214.04 51.1457 214.304 51.364 214.525 51.6235C215.14 52.3338 215.502 53.2294 215.555 54.1694C215.59 54.8215 215.462 55.472 215.184 56.0619C214.892 56.6899 214.423 57.2882 214.28 58.018C214.136 58.7478 214.478 59.5159 214.854 60.2542C215.059 60.637 215.226 61.0393 215.352 61.455C215.477 61.899 215.477 62.3689 215.352 62.8128C215.212 63.2409 215.05 63.6615 214.867 64.0731C214.701 64.4639 214.56 64.865 214.445 65.2739C214.235 66.0439 214.131 66.8391 214.136 67.6374C214.123 68.9969 214.56 70.3223 215.378 71.4054C215.925 72.1348 216.653 72.7069 217.489 73.0645C218.118 73.3106 218.481 73.3488 218.477 73.3742Z" fill="#455A64"/>
<path d="M218.055 51.962C217.849 52.0155 217.638 52.0468 217.426 52.0554C216.846 52.1176 216.261 52.1019 215.686 52.0087C215.25 51.9438 214.831 51.7922 214.454 51.5627C214.077 51.3331 213.75 51.0304 213.491 50.6721C213.249 50.2187 213.057 49.7408 212.916 49.2463C212.736 48.7525 212.397 48.3329 211.954 48.054C211.029 47.4642 209.944 47.3921 208.998 47.2775C208.125 47.2338 207.278 46.9681 206.536 46.5052C206.039 46.1742 205.68 45.6715 205.527 45.0922C205.49 44.9352 205.48 44.7731 205.497 44.6128C205.497 44.5024 205.523 44.4473 205.531 44.4473C205.536 44.6574 205.563 44.8665 205.612 45.071C205.786 45.6126 206.145 46.0752 206.625 46.3779C207.353 46.8051 208.176 47.0442 209.019 47.0738C209.965 47.1841 211.088 47.2393 212.076 47.8673C212.56 48.1724 212.928 48.6308 213.123 49.17C213.255 49.6519 213.438 50.1184 213.668 50.5617C214.16 51.2397 214.896 51.6968 215.72 51.8347C216.277 51.9387 216.843 51.9771 217.409 51.9493C217.624 51.9371 217.84 51.9414 218.055 51.962Z" fill="#455A64"/>
<path d="M217.008 48.5088C216.849 48.5623 216.681 48.5867 216.514 48.5809C215.727 48.5863 214.969 48.2816 214.403 47.7323C214.144 47.472 213.924 47.1763 213.748 46.8539C213.368 46.209 213.001 45.4155 212.211 45.0845C211.45 44.828 210.64 44.7568 209.847 44.8766C209.177 44.9711 208.498 44.9711 207.828 44.8766C207.362 44.8117 206.924 44.6177 206.562 44.3165C206.468 44.2345 206.386 44.1403 206.317 44.0364C206.266 43.9629 206.245 43.9247 206.253 43.9219C206.253 43.9219 206.371 44.0577 206.616 44.2486C206.977 44.5067 207.397 44.67 207.837 44.7238C208.494 44.7983 209.158 44.7869 209.813 44.6899C210.641 44.554 211.49 44.6269 212.283 44.9021C212.691 45.0862 213.04 45.3799 213.292 45.7507C213.515 46.0815 213.719 46.4243 213.904 46.7776C214.071 47.086 214.277 47.3712 214.517 47.6262C214.728 47.8418 214.972 48.0235 215.239 48.1651C215.631 48.3712 216.063 48.4912 216.505 48.5173C216.83 48.513 217.004 48.4876 217.008 48.5088Z" fill="#455A64"/>
<path d="M219.735 72.4564C219.714 72.4564 219.849 72.1764 220.006 71.6502C220.217 70.9116 220.311 70.144 220.284 69.3758C220.254 68.2388 219.945 67.1268 219.385 66.1383C219.077 65.5824 218.608 65.0859 218.224 64.4749C218.021 64.1636 217.877 63.8168 217.802 63.4523C217.735 63.0687 217.767 62.6743 217.894 62.3066C218.131 61.5726 218.553 60.9573 218.646 60.2826C218.739 59.6079 218.418 59.0097 218.097 58.4453C217.932 58.1707 217.781 57.8874 217.645 57.5967C217.522 57.3147 217.441 57.0158 217.405 56.7098C217.365 56.1706 217.382 55.6288 217.455 55.0932C217.59 54.336 217.52 53.5564 217.253 52.8358C217.133 52.5833 216.964 52.3581 216.754 52.1738C216.754 52.1738 216.776 52.1738 216.805 52.1993C216.855 52.2242 216.901 52.2572 216.94 52.2969C217.105 52.4351 217.239 52.6073 217.333 52.8018C217.638 53.5286 217.733 54.3272 217.607 55.1059C217.549 55.6315 217.542 56.1616 217.586 56.6886C217.69 57.2815 217.924 57.8437 218.27 58.335C218.45 58.6217 218.604 58.9242 218.73 59.2388C218.864 59.5783 218.907 59.9466 218.857 60.3081C218.756 61.0506 218.321 61.6786 218.101 62.3703C217.986 62.704 217.956 63.0613 218.013 63.4099C218.086 63.747 218.221 64.0677 218.41 64.3561C218.769 64.9459 219.254 65.4509 219.562 66.0322C220.128 67.0541 220.43 68.2022 220.441 69.3716C220.454 70.1543 220.334 70.9336 220.086 71.6757C220.018 71.8765 219.936 72.0722 219.841 72.2612C219.815 72.331 219.78 72.3967 219.735 72.4564Z" fill="#455A64"/>
<path d="M202.537 151.521C202.537 151.521 199.691 124.433 199.527 114.423C199.362 104.413 204.007 94.5349 204.007 94.5349L222.197 93.7754C222.197 93.7754 225.794 103.929 225.858 108.202C225.984 116.494 223.666 124.679 223.932 131.256L224.54 151.538" fill="#404040"/>
<path d="M225.153 118.215C225.058 118.298 224.958 118.374 224.853 118.444L224.688 118.559L224.511 118.733C224.355 118.868 224.213 119.021 224.089 119.187C223.502 119.908 223.075 121.202 222.666 122.81C222.456 123.702 222.148 124.568 221.745 125.39C221.623 125.615 221.482 125.83 221.323 126.031C221.247 126.133 221.175 126.243 221.087 126.341L220.808 126.621C220.409 126.995 219.945 127.295 219.44 127.503C218.422 127.953 217.269 128.165 216.222 128.696C215.149 129.276 214.321 130.225 213.887 131.369C213.372 132.519 213.043 133.724 212.621 134.852C212.198 135.981 211.628 137.059 210.72 137.746C209.852 138.353 208.822 138.68 207.765 138.684C206.785 138.744 205.877 138.714 205.062 138.837C204.329 138.913 203.628 139.179 203.027 139.609C202.589 139.954 202.26 140.42 202.081 140.95C201.968 141.284 201.943 141.643 202.01 141.99C202.06 142.227 202.124 142.342 202.111 142.346C202.043 142.239 201.994 142.122 201.967 141.998C201.878 141.644 201.89 141.272 202.001 140.925C202.169 140.368 202.5 139.876 202.951 139.512C203.567 139.045 204.296 138.752 205.062 138.663C205.907 138.527 206.806 138.544 207.773 138.48C208.799 138.474 209.799 138.154 210.64 137.564C211.494 136.815 212.123 135.842 212.46 134.755C212.882 133.639 213.191 132.43 213.727 131.258C214.181 130.067 215.048 129.081 216.167 128.479C217.257 127.936 218.41 127.728 219.402 127.295C219.888 127.093 220.334 126.806 220.719 126.447L220.985 126.179C221.07 126.086 221.141 125.98 221.217 125.882C221.366 125.689 221.498 125.484 221.61 125.267C222.015 124.456 222.328 123.602 222.543 122.721C222.965 121.117 223.426 119.806 224.046 119.08C224.17 118.915 224.312 118.764 224.469 118.631C224.536 118.571 224.595 118.512 224.654 118.465L224.828 118.355C224.933 118.302 225.042 118.255 225.153 118.215Z" fill="#FAFAFA"/>
<path d="M225.262 105.682C225.282 105.801 225.29 105.922 225.288 106.042C225.286 106.393 225.244 106.742 225.161 107.082C224.797 108.323 224.083 109.432 223.105 110.273C222.459 110.869 221.751 111.394 220.994 111.839C220.179 112.322 219.279 112.785 218.355 113.311C217.383 113.834 216.479 114.474 215.661 115.216C214.821 116.053 214.13 117.027 213.617 118.097C213.099 119.182 212.508 120.23 211.848 121.233C211.512 121.701 211.124 122.128 210.691 122.506C210.264 122.871 209.794 123.183 209.293 123.435C208.386 123.883 207.441 124.248 206.468 124.526C205.565 124.806 204.72 125.056 203.986 125.374C203.319 125.641 202.684 125.983 202.094 126.393C201.65 126.702 201.251 127.072 200.907 127.492C200.62 127.856 200.38 128.255 200.194 128.68C200.224 128.562 200.263 128.447 200.312 128.336C200.45 128.016 200.628 127.713 200.84 127.437C201.177 126.999 201.575 126.613 202.022 126.291C202.615 125.866 203.254 125.51 203.926 125.23C204.74 124.897 205.57 124.607 206.413 124.36C207.372 124.076 208.304 123.71 209.2 123.266C209.676 123.016 210.122 122.715 210.53 122.366C210.947 121.993 211.321 121.575 211.645 121.118C212.296 120.12 212.882 119.08 213.397 118.004C213.927 116.91 214.641 115.917 215.509 115.068C216.341 114.314 217.263 113.667 218.253 113.141C219.182 112.619 220.081 112.165 220.896 111.686C221.652 111.256 222.36 110.747 223.008 110.167C223.978 109.351 224.698 108.275 225.085 107.065C225.193 106.612 225.253 106.148 225.262 105.682Z" fill="#FAFAFA"/>
<path d="M199.62 115.839C199.603 115.813 199.59 115.784 199.582 115.754C199.55 115.672 199.523 115.589 199.501 115.504C199.429 115.166 199.444 114.816 199.544 114.485C199.78 113.637 200.713 112.546 202.216 112.007C202.968 111.748 203.817 111.583 204.703 111.362C205.44 111.24 206.136 110.942 206.735 110.494C207.334 110.046 207.817 109.461 208.145 108.787C208.385 108.292 208.595 107.783 208.774 107.263C209.104 106.134 209.553 105.043 210.112 104.009C210.754 102.992 211.727 102.232 212.865 101.858C213.901 101.52 214.957 101.251 216.028 101.051C216.983 100.867 217.908 100.55 218.777 100.109C219.512 99.6871 220.146 99.1076 220.635 98.412C221.356 97.4077 221.767 96.2124 221.817 94.975C221.819 94.5209 221.789 94.0672 221.728 93.6172C221.856 94.058 221.914 94.5161 221.901 94.975C221.885 96.2392 221.487 97.4687 220.761 98.5011C220.267 99.2197 219.619 99.8184 218.865 100.254C217.986 100.711 217.046 101.041 216.074 101.234C215.014 101.436 213.967 101.707 212.941 102.044C211.848 102.404 210.914 103.135 210.298 104.111C209.747 105.131 209.304 106.206 208.977 107.319C208.794 107.848 208.578 108.365 208.33 108.867C208.08 109.35 207.762 109.793 207.385 110.183C206.643 110.862 205.73 111.325 204.746 111.519C203.85 111.748 203.006 111.893 202.267 112.139C200.802 112.64 199.873 113.671 199.624 114.494C199.521 114.811 199.494 115.148 199.544 115.478C199.579 115.596 199.605 115.717 199.62 115.839Z" fill="#FAFAFA"/>
<path d="M223.7 138.752C223.717 138.84 223.727 138.93 223.73 139.019C223.738 139.276 223.711 139.533 223.649 139.783C223.384 140.703 222.823 141.509 222.053 142.074C221.54 142.486 220.971 142.823 220.364 143.076C219.718 143.352 219.005 143.572 218.253 143.806C217.473 144.035 216.71 144.318 215.969 144.654C215.199 145.024 214.509 145.541 213.938 146.178C213.321 146.823 212.789 147.531 212.198 148.159C211.633 148.767 210.976 149.283 210.252 149.687C209.019 150.363 207.64 150.724 206.236 150.739C205.296 150.749 204.361 150.593 203.475 150.277C203.234 150.193 203 150.093 202.774 149.975C202.691 149.941 202.613 149.897 202.542 149.844C202.627 149.865 202.711 149.894 202.791 149.933C203.023 150.032 203.259 150.12 203.5 150.196C204.385 150.475 205.309 150.605 206.236 150.582C207.609 150.546 208.953 150.178 210.155 149.509C210.856 149.109 211.493 148.604 212.042 148.011C212.62 147.391 213.148 146.687 213.777 146.025C214.383 145.365 215.111 144.831 215.922 144.455C216.674 144.117 217.449 143.834 218.24 143.606C218.984 143.377 219.693 143.182 220.352 142.902C220.941 142.659 221.495 142.338 221.998 141.947C222.755 141.41 223.319 140.642 223.607 139.758C223.669 139.426 223.701 139.089 223.7 138.752Z" fill="#FAFAFA"/>
<path d="M221.627 82.5125L218.105 82.5974C217.97 83.3109 217.701 83.9921 217.312 84.6044C214.356 79.4701 212.088 72.5961 211.523 69.8338C211.607 69.558 211.704 69.2524 211.827 68.913C211.914 68.3974 211.899 67.8693 211.78 67.36C211.679 66.7447 211.51 65.9173 211.459 65.5354C211.303 64.3643 211.113 64.1818 210.708 64.3133C210.159 64.4958 210.936 67.5934 210.484 67.6612C210.239 67.6952 209.943 66.6344 209.859 65.7645C209.775 64.8947 209.378 62.2129 209.095 62.0347C208.673 61.7717 208.305 62.1875 208.415 63.0531C208.525 63.9187 208.656 66.5495 208.2 66.5877C207.744 66.6259 207.355 62.179 207.355 62.179C207.355 62.179 207.427 61.2115 206.895 61.2328C205.941 61.2752 206.688 65.9597 206.768 66.4052C206.827 66.7108 206.346 66.7702 206.287 66.435C206.228 66.0997 206.008 61.9923 205.02 62.0262C204.269 62.0262 205.599 65.8833 205.176 66.7744C204.754 67.6655 204.467 63.7532 203.753 63.8042C203.487 63.8254 203.289 63.8763 203.779 66.087C204.248 67.8435 204.812 69.573 205.468 71.268C206.599 77.3994 211.565 97.0158 219.347 93.4261C223.704 91.4148 225.469 82.5125 225.469 82.5125H221.627Z" fill="#FFBE9D"/>
<path d="M206.616 66.7033C206.649 66.7117 206.684 66.7117 206.717 66.7033C206.768 66.6876 206.812 66.6542 206.841 66.6091C206.869 66.564 206.881 66.5101 206.874 66.4571C206.874 66.1941 206.823 65.8122 206.764 65.3157C206.665 64.7174 206.6 64.1139 206.57 63.5081C206.57 63.1517 206.57 62.7698 206.591 62.3667C206.597 62.1617 206.618 61.9575 206.654 61.7557C206.688 61.5647 206.814 61.3313 206.962 61.3695H206.988C207.135 61.3695 207.254 61.4799 207.3 61.6581C207.352 61.8428 207.372 62.0351 207.359 62.2267C207.446 63.415 207.597 64.5978 207.811 65.7697C207.845 65.9267 207.879 66.088 207.929 66.2492C207.952 66.3317 207.98 66.4126 208.014 66.4911C208.035 66.5348 208.059 66.5773 208.085 66.6184C208.104 66.6494 208.13 66.6755 208.161 66.6947C208.192 66.7138 208.227 66.7255 208.263 66.7287C208.324 66.7219 208.382 66.6969 208.43 66.6569C208.477 66.6168 208.512 66.5636 208.529 66.5038C208.565 66.4208 208.592 66.334 208.609 66.245C208.642 66.074 208.664 65.9011 208.677 65.7273C208.715 65.0203 208.705 64.3114 208.647 63.6057C208.594 63.2534 208.579 62.8961 208.605 62.5407C208.62 62.3871 208.694 62.2456 208.812 62.146C208.839 62.1299 208.869 62.1196 208.9 62.116C208.931 62.1123 208.963 62.1153 208.993 62.1248C209.029 62.1335 209.063 62.1478 209.095 62.1673C209.116 62.1834 209.132 62.2055 209.141 62.2309C209.274 62.575 209.372 62.9319 209.432 63.296C209.508 63.6694 209.572 64.0555 209.631 64.4416C209.69 64.8278 209.745 65.2181 209.791 65.6128C209.827 66.02 209.892 66.4241 209.985 66.8221C210.035 67.0256 210.099 67.2254 210.176 67.4204C210.219 67.5295 210.278 67.6311 210.353 67.7216C210.381 67.7592 210.42 67.788 210.464 67.8045C210.508 67.821 210.556 67.8247 210.602 67.815C210.645 67.8008 210.683 67.7758 210.713 67.7423C210.744 67.7089 210.765 67.6681 210.775 67.624C210.825 67.4072 210.841 67.1838 210.822 66.9621C210.822 66.7499 210.796 66.5378 210.775 66.3341C210.746 65.9777 210.712 65.6255 210.699 65.2775C210.688 65.1066 210.688 64.9351 210.699 64.7641C210.707 64.6884 210.726 64.6142 210.754 64.5435C210.763 64.5201 210.776 64.4986 210.792 64.4798H210.847C211.126 64.3652 211.218 64.7556 211.294 65.0696C211.37 65.3836 211.4 65.74 211.468 66.0753C211.577 66.7414 211.721 67.4076 211.793 68.0441C211.842 68.3489 211.83 68.6603 211.759 68.9607C211.658 69.2662 211.556 69.5674 211.459 69.8687V69.8984V69.9239C211.954 72.0085 212.584 74.0581 213.347 76.0596C214.014 77.8714 214.685 79.4541 215.272 80.7271C215.859 82.0001 216.391 82.9972 216.754 83.6676L217.176 84.4272C217.222 84.5177 217.277 84.603 217.341 84.6818C217.305 84.5875 217.262 84.4966 217.21 84.4102L216.788 83.6337C216.442 82.9505 215.943 81.9364 215.369 80.6634C214.795 79.3905 214.145 77.8078 213.494 75.9959C212.75 73.9975 212.133 71.9539 211.645 69.8772V69.9366C211.742 69.6396 211.839 69.3383 211.94 69.037C212.028 68.7064 212.046 68.3607 211.991 68.0229C211.915 67.3567 211.776 66.7117 211.666 66.0413C211.603 65.7103 211.56 65.3709 211.493 65.0229C211.489 64.8442 211.459 64.667 211.404 64.4968C211.356 64.3933 211.274 64.3094 211.172 64.2592C211.064 64.2235 210.947 64.2235 210.838 64.2592H210.771C210.735 64.2707 210.702 64.2895 210.674 64.3143C210.627 64.3543 210.591 64.4053 210.568 64.4628C210.529 64.5547 210.505 64.652 210.496 64.7514C210.484 64.935 210.484 65.1193 210.496 65.303C210.496 65.6594 210.547 66.0159 210.577 66.3723C210.577 66.5802 210.61 66.7966 210.619 66.9876C210.636 67.1789 210.626 67.3718 210.589 67.5604C210.589 67.6028 210.556 67.5943 210.589 67.6156L210.564 67.5901C210.51 67.5208 210.467 67.4435 210.437 67.361C210.364 67.1774 210.303 66.9888 210.256 66.7966C210.163 66.4102 210.099 66.0173 210.066 65.6212C210.021 65.2224 209.966 64.8278 209.901 64.4374C209.842 64.047 209.774 63.6651 209.698 63.2832C209.635 62.8945 209.527 62.5144 209.377 62.1503C209.349 62.0895 209.303 62.038 209.247 62.0018C209.197 61.9731 209.145 61.9503 209.09 61.9339C209.03 61.918 208.967 61.9143 208.906 61.9231C208.844 61.9318 208.785 61.9528 208.731 61.9848C208.644 62.0502 208.572 62.1329 208.518 62.2278C208.464 62.3228 208.43 62.4278 208.419 62.5364C208.392 62.7292 208.392 62.9249 208.419 63.1177C208.419 63.3002 208.461 63.4784 208.474 63.6566C208.533 64.3509 208.545 65.0483 208.512 65.7443C208.502 65.9096 208.481 66.0741 208.449 66.2365C208.436 66.3124 208.415 66.3865 208.385 66.4571C208.374 66.4851 208.359 66.511 208.339 66.5335C208.339 66.5717 208.309 66.5335 208.313 66.5844C208.313 66.542 208.313 66.5844 208.313 66.5293C208.295 66.5006 208.278 66.4709 208.263 66.4402C208.233 66.3723 208.208 66.2959 208.183 66.2238C208.136 66.071 208.102 65.914 208.068 65.7613C207.848 64.5994 207.689 63.4266 207.591 62.2479C207.604 62.0345 207.58 61.8206 207.52 61.6156C207.492 61.5087 207.435 61.4117 207.355 61.3356C207.314 61.2955 207.265 61.2642 207.211 61.2438C207.157 61.2234 207.1 61.2142 207.042 61.2168H207.068C206.996 61.2063 206.923 61.2172 206.858 61.2481C206.793 61.2791 206.738 61.3287 206.7 61.3907C206.638 61.492 206.595 61.6043 206.574 61.7217C206.538 61.9321 206.519 62.1449 206.515 62.3582C206.515 62.7825 206.515 63.1517 206.515 63.5124C206.555 64.122 206.632 64.7285 206.747 65.3285C206.819 65.8207 206.874 66.2026 206.899 66.4614C206.907 66.5067 206.899 66.5535 206.877 66.5937C206.855 66.6339 206.819 66.6651 206.776 66.682C206.65 66.6948 206.612 66.699 206.616 66.7033Z" fill="#A36957"/>
<path d="M179.116 88.3556C178.292 88.3379 177.469 88.4336 176.671 88.6399C174.488 89.217 170.726 91.5083 170.569 94.3385H173.305C173.305 94.3385 171.773 97.6143 172.22 97.3088C173.39 96.5195 175.712 94.1476 175.712 94.1476L179.116 88.3556Z" fill="#FFBE9D"/>
<path d="M216.412 39.0372C216.349 39.0372 216.104 36.7714 215.859 33.9454C215.614 31.1194 215.462 28.8535 215.521 28.8535C215.58 28.8535 215.829 31.1194 216.074 33.9454C216.319 36.7714 216.471 39.0372 216.412 39.0372Z" fill="#263238"/>
<path d="M228.408 29.0277C228.455 29.0616 226.61 31.7561 224.283 35.0445C221.956 38.333 220.027 40.9851 219.976 40.9341C219.925 40.8832 221.775 38.2057 224.101 34.9173C226.428 31.6288 228.358 28.9937 228.408 29.0277Z" fill="#263238"/>
<path d="M233.39 41.2402C233.39 41.2996 231.245 41.7961 228.577 42.3477C225.908 42.8993 223.73 43.2982 223.717 43.2388C223.704 43.1794 225.858 42.6829 228.53 42.1313C231.203 41.5797 233.361 41.1808 233.39 41.2402Z" fill="#263238"/>
<path d="M89.7979 99.5202L74.8505 176.662L72.9082 186.761L172.557 186.277C177.033 186.256 181.002 182.263 182.434 176.331L200.109 103.505C201.202 99.0025 198.804 94.318 195.409 94.3223L94.527 94.4283C92.3314 94.4241 90.3637 96.5118 89.7979 99.5202Z" fill="#81CEC3"/>
<g opacity="0.5">
<path d="M89.7979 99.5202L74.8505 176.662L72.9082 186.761L172.557 186.277C177.033 186.256 181.002 182.263 182.434 176.331L200.109 103.505C201.202 99.0025 198.804 94.318 195.409 94.3223L94.527 94.4283C92.3314 94.4241 90.3637 96.5118 89.7979 99.5202Z" fill="black"/>
</g>
<path d="M163.011 171.426L152.455 85.9631C152.032 82.4625 149.25 79.8486 145.969 79.8614L122.83 79.9335C121.97 79.9432 121.121 80.1289 120.335 80.479C119.549 80.8292 118.842 81.3366 118.257 81.9702L107.279 93.7112L42.9292 94.0592C38.9981 94.0804 35.9749 97.8229 36.4942 102.024L46.2945 181.011C46.7167 184.508 49.4993 187.117 52.7717 187.113L164.94 186.888C177.43 187.147 178.625 183.443 178.625 183.443C164.286 186.629 163.011 171.447 163.011 171.426Z" fill="#81CEC3"/>
<g opacity="0.5">
<path d="M114.643 154.334L110.859 158.416L81.7246 132.074L85.5079 127.992L114.643 154.334Z" fill="#00937D"/>
<path d="M109.276 127.088L113.456 130.869L87.0913 159.319L82.9111 155.539L109.276 127.088Z" fill="#00937D"/>
</g>
<path d="M179.027 44.0362C178.89 43.9784 178.773 43.8826 178.688 43.7601C178.604 43.6376 178.556 43.4935 178.55 43.3446L178.381 39.4069C178.375 39.2845 178.397 39.1625 178.446 39.0503C178.496 38.9382 178.57 38.8391 178.664 38.7609C178.758 38.6827 178.868 38.6275 178.987 38.5997C179.106 38.5719 179.229 38.5722 179.348 38.6007C179.675 38.6716 180.013 38.6746 180.341 38.6097C180.669 38.5448 180.981 38.4132 181.256 38.223C181.51 38.0615 181.729 37.8494 181.898 37.5998C182.067 37.3502 182.183 37.0684 182.24 36.7718C182.278 36.4715 182.256 36.1665 182.175 35.875C182.094 35.5834 181.955 35.3113 181.767 35.0746C181.569 34.8052 181.321 34.5778 181.035 34.4052C180.75 34.2327 180.433 34.1184 180.104 34.0689C179.439 34.0318 178.782 34.2211 178.238 34.6061C177.694 34.9911 177.295 35.5494 177.106 36.1905C177.043 36.3848 176.907 36.5471 176.728 36.6437C176.549 36.7403 176.34 36.7636 176.144 36.7089C175.948 36.6542 175.78 36.5257 175.676 36.3501C175.572 36.1745 175.54 35.9653 175.586 35.7662C175.873 34.7578 176.497 33.8795 177.353 33.2791C178.209 32.6786 179.244 32.3926 180.285 32.4692C180.827 32.5418 181.349 32.723 181.82 33.0022C182.29 33.2814 182.7 33.6528 183.025 34.0944C183.342 34.5036 183.573 34.9725 183.706 35.4732C183.839 35.9739 183.87 36.4963 183.798 37.0095C183.702 37.5219 183.503 38.0091 183.212 38.4411C182.922 38.8731 182.546 39.2408 182.109 39.5214C181.476 39.95 180.736 40.1925 179.973 40.2216L180.104 43.2597C180.108 43.3932 180.08 43.5258 180.02 43.6451C179.96 43.7645 179.872 43.8668 179.762 43.9425C179.653 44.0183 179.526 44.065 179.394 44.0784C179.262 44.0918 179.128 44.0715 179.006 44.0193L179.027 44.0362Z" fill="#81CEC3"/>
<path d="M180.184 45.6492C180.192 45.7774 180.163 45.9053 180.1 46.0168C180.036 46.1283 179.941 46.2184 179.827 46.2756C179.713 46.3329 179.584 46.3547 179.457 46.3384C179.33 46.3221 179.211 46.2683 179.115 46.1839C179.018 46.0996 178.949 45.9883 178.916 45.8644C178.882 45.7404 178.886 45.6092 178.927 45.4875C178.968 45.3657 179.043 45.2589 179.144 45.1804C179.246 45.1019 179.368 45.0554 179.495 45.0467C179.58 45.0404 179.665 45.051 179.746 45.0779C179.826 45.1048 179.901 45.1475 179.965 45.2036C180.029 45.2596 180.081 45.3279 180.119 45.4044C180.156 45.4809 180.178 45.5641 180.184 45.6492Z" fill="#81CEC3"/>
<path d="M165.46 38.4821C165.478 38.3982 165.491 38.3131 165.498 38.2275C165.498 38.0408 165.544 37.8032 165.578 37.468C165.62 37.0564 165.689 36.6481 165.785 36.2459C165.84 36.0083 165.87 35.7452 165.954 35.4779C166.038 35.2106 166.123 34.9221 166.216 34.6293C166.705 33.1786 167.417 31.8141 168.327 30.5855C169.52 28.9946 171.031 27.6732 172.765 26.7072C173.751 26.1482 174.802 25.7122 175.894 25.4088C177.072 25.095 178.285 24.9352 179.504 24.9335C180.146 24.9232 180.788 24.9572 181.425 25.0354C181.75 25.0693 182.071 25.1542 182.396 25.2093C182.725 25.2659 183.049 25.3453 183.367 25.447C184.698 25.8207 185.964 26.3974 187.121 27.157C189.693 28.8336 191.653 31.306 192.703 34.2007C193.269 35.7513 193.555 37.3908 193.548 39.0422C193.565 40.7435 193.266 42.433 192.665 44.0238L192.475 44.5075L192.45 44.5711L192.475 44.6348C193.535 47.0831 194.586 49.489 195.579 51.8186L195.756 51.6149L189.422 49.175L189.346 49.1453L189.283 49.2047C187.607 50.8361 185.556 52.0256 183.312 52.6672C181.395 53.1976 179.388 53.3135 177.422 53.007C175.457 52.7005 173.579 51.9787 171.912 50.8893C170.546 49.9894 169.343 48.8631 168.352 47.5584C166.917 45.6539 165.987 43.4141 165.65 41.0493C165.599 40.6249 165.557 40.2685 165.519 39.946C165.481 39.6235 165.519 39.3605 165.498 39.1356C165.477 38.9107 165.498 38.7622 165.498 38.6391C165.519 38.6359 165.538 38.6248 165.551 38.6081C165.565 38.5913 165.571 38.5702 165.57 38.5488C165.568 38.5275 165.558 38.5075 165.543 38.493C165.527 38.4784 165.507 38.4703 165.485 38.4703C165.464 38.4703 165.444 38.4784 165.428 38.493C165.412 38.5075 165.403 38.5275 165.401 38.5488C165.4 38.5702 165.406 38.5913 165.419 38.6081C165.433 38.6248 165.452 38.6359 165.473 38.6391C165.473 38.7622 165.473 38.9277 165.473 39.1356C165.473 39.3435 165.473 39.632 165.473 39.9545C165.473 40.277 165.544 40.6462 165.587 41.0662C165.726 42.0868 165.967 43.0906 166.309 44.0619C166.792 45.3447 167.442 46.5575 168.243 47.6687C169.237 48.9967 170.449 50.1446 171.827 51.0633C173.515 52.1799 175.42 52.9231 177.415 53.2436C179.411 53.564 181.451 53.4543 183.401 52.9218C185.672 52.2736 187.749 51.0727 189.448 49.4254L189.308 49.4551L195.642 51.9077L195.959 52.0307L195.819 51.704C194.814 49.3745 193.776 46.9728 192.72 44.5202V44.6433L192.914 44.1468C193.53 42.5214 193.837 40.7941 193.818 39.055C193.831 37.3684 193.545 35.693 192.973 34.1074C191.9 31.155 189.897 28.6355 187.269 26.9321C186.083 26.1548 184.784 25.5679 183.418 25.1924C183.095 25.0896 182.765 25.0116 182.43 24.959C182.101 24.8996 181.775 24.8147 181.446 24.785C180.8 24.7045 180.15 24.6676 179.5 24.6747C178.261 24.68 177.029 24.8483 175.834 25.1754C174.728 25.491 173.664 25.9383 172.663 26.5078C170.913 27.4975 169.392 28.8498 168.2 30.4752C167.293 31.7241 166.59 33.1107 166.119 34.5826C166.03 34.8881 165.946 35.1809 165.87 35.4312C165.802 35.687 165.749 35.9462 165.709 36.2078C165.619 36.6127 165.559 37.0241 165.532 37.4383C165.506 37.765 165.49 38.0154 165.477 38.2021C165.459 38.2943 165.453 38.3884 165.46 38.4821Z" fill="#263238"/>
</g>
<defs>
<clipPath id="clip0_1141_69338">
<rect width="254" height="188" fill="white"/>
</clipPath>
</defs>
</svg>
