<svg width="181" height="132" viewBox="0 0 181 132" fill="none" xmlns="http://www.w3.org/2000/svg">
<path d="M120.621 55.2549L106.233 32.3078L0.800598 29.9663L100.85 131.674L120.621 55.2549Z" fill="url(#paint0_linear_10_165)" fill-opacity="0.48"/>
<path d="M165.247 13.4583V35.217C165.247 36.0662 165.927 36.7483 166.759 36.7483C166.91 36.7483 167.054 36.7274 167.192 36.6857C167.817 36.4977 168.277 35.9131 168.277 35.217V13.4583C168.277 12.7622 167.817 12.1776 167.192 11.9896C167.054 11.9479 166.91 11.927 166.759 11.927C166.339 11.927 165.962 12.101 165.687 12.3794C165.419 12.6509 165.247 13.0337 165.247 13.4583Z" fill="white"/>
<path d="M166.113 13.4577V35.2164C166.113 35.9125 166.573 36.4972 167.198 36.6851C167.824 36.4972 168.284 35.9125 168.284 35.2164V13.4577C168.284 12.7617 167.824 12.177 167.198 11.989C166.951 12.0656 166.731 12.1979 166.559 12.3788C166.278 12.6503 166.113 13.0331 166.113 13.4577Z" fill="#40C3AF"/>
<path d="M166.766 36.9502C166.93 36.9502 167.095 36.9293 167.253 36.8806C167.975 36.6648 168.483 35.9758 168.483 35.2171V13.4584C168.483 12.6927 167.975 12.0106 167.253 11.7948C167.095 11.7461 166.93 11.7252 166.766 11.7252C166.305 11.7252 165.879 11.9061 165.549 12.2333C165.226 12.5604 165.048 12.999 165.048 13.4653V35.224C165.048 36.1706 165.817 36.9502 166.766 36.9502ZM166.766 12.1219C166.896 12.1219 167.02 12.1428 167.137 12.1776C167.693 12.3447 168.078 12.8667 168.078 13.4514V35.2101C168.078 35.7948 167.693 36.3238 167.137 36.4839C167.013 36.5187 166.889 36.5396 166.766 36.5396C166.044 36.5396 165.453 35.941 165.453 35.2101V13.4584C165.453 13.1034 165.59 12.7693 165.838 12.5187C166.085 12.2611 166.415 12.1219 166.766 12.1219Z" fill="#1A1F2D"/>
<path d="M102.707 30.3169C102.907 30.3865 109.51 39.6928 109.51 39.6928C109.51 39.6928 98.6873 39.651 95.3477 37.9875C94.5918 37.6116 94.2963 37.4654 93.3137 35.6278C92.6608 34.4028 91.6026 33.4283 90.3107 32.9341C90.0839 32.8436 89.6854 32.6626 89.4449 32.5582C87.349 31.6325 102.158 30.122 102.707 30.3169Z" fill="#1A1F2D"/>
<path d="M161.337 50.9337C161.385 50.9268 161.44 50.9198 161.495 50.9268C161.509 50.9268 161.522 50.9268 161.536 50.9337C161.543 50.9337 161.55 50.9337 161.55 50.9337C161.557 50.9337 161.564 50.9337 161.57 50.9337C161.591 50.9407 161.625 50.9476 161.667 50.9546L161.715 50.9685C162.381 51.1147 164.828 51.6855 167.501 52.3119L167.679 52.3537C171.521 53.2446 175.754 54.24 175.816 54.24C175.857 54.2539 175.905 54.2609 175.946 54.2817C175.987 54.2957 176.029 54.3165 176.07 54.3374C176.077 54.3374 176.077 54.3444 176.084 54.3444C176.09 54.3513 176.104 54.3583 176.111 54.3583C176.118 54.3583 176.118 54.3653 176.125 54.3653C176.228 54.4279 176.317 54.5045 176.4 54.588C176.434 54.6228 176.468 54.6646 176.503 54.6994C176.571 54.7899 176.64 54.8803 176.695 54.9848C176.702 54.9987 176.716 55.0196 176.723 55.0335C176.73 55.0474 176.736 55.0544 176.736 55.0683C176.743 55.0822 176.75 55.0961 176.757 55.117C176.771 55.1448 176.784 55.1727 176.798 55.2005C176.86 55.3537 176.908 55.5138 176.943 55.6669C176.943 55.6739 176.943 55.6738 176.943 55.6808C176.949 55.7156 176.956 55.7504 176.963 55.7852C176.963 55.8061 176.97 55.827 176.97 55.8409C176.984 55.9523 176.991 56.0567 176.991 56.168L176.86 64.4302L176.75 71.4604L176.668 76.8757C176.668 76.9105 176.668 76.9383 176.668 76.9732C176.668 77.008 176.661 77.0358 176.661 77.0706C176.661 77.0984 176.654 77.1332 176.647 77.1611C176.647 77.175 176.64 77.1889 176.64 77.2029C176.633 77.2307 176.626 77.2516 176.626 77.2794C176.62 77.2933 176.62 77.3073 176.613 77.3212C176.606 77.349 176.599 77.3769 176.585 77.4047C176.585 77.4117 176.578 77.4256 176.578 77.4325C176.565 77.4604 176.558 77.4952 176.544 77.523C176.544 77.523 176.544 77.53 176.537 77.53C176.468 77.6692 176.379 77.8015 176.262 77.8989C176.255 77.9059 176.242 77.9128 176.235 77.9198C176.228 77.9267 176.214 77.9337 176.207 77.9407C176.152 77.9755 176.097 78.0033 176.035 78.0242L179.739 76.7783C179.939 76.7087 180.097 76.5555 180.2 76.3745C180.317 76.1797 180.365 75.95 180.385 75.7203C180.385 75.6994 180.406 74.6901 180.44 73.1379C180.468 71.3073 180.523 68.7249 180.578 66.0868C180.688 60.8316 180.798 55.3676 180.804 55.3049C180.818 54.5602 180.454 53.6831 179.705 53.4326C179.561 53.3977 165.48 50.2516 165.343 50.2237C165.322 50.2237 165.295 50.2168 165.274 50.2168C165.226 50.2168 165.185 50.2168 165.144 50.2307L161.357 50.9268L161.337 50.9337Z" fill="#1A1F2D"/>
<path d="M160.608 52.2281L160.773 71.3139C160.773 71.6968 160.883 72.0935 161.069 72.4276C161.234 72.72 161.467 72.9845 161.763 73.0958L162.134 73.2281L175.493 78.01C175.651 78.0657 175.802 78.0796 175.939 78.0518C176.448 77.9334 176.661 77.3905 176.668 76.8754L176.984 56.1678C176.991 55.7293 176.874 55.2838 176.654 54.9149C176.455 54.5877 176.173 54.3232 175.816 54.2327L162.409 51.1214L161.605 50.9334C161.144 50.8221 160.801 51.2119 160.684 51.6504C160.636 51.8244 160.608 52.0193 160.608 52.2281Z" fill="#40C3AF"/>
<path d="M160.608 52.2286L160.773 71.3145C160.773 71.6973 160.883 72.0941 161.069 72.4282C161.234 72.7205 161.467 72.985 161.763 73.0964L162.134 73.2286C162.189 68.7947 161.88 54.811 161.948 49.3887L161.605 50.9409C161.144 50.8296 160.801 51.2193 160.684 51.6579C160.636 51.8249 160.608 52.0198 160.608 52.2286Z" fill="white"/>
<path d="M175.788 78.2679C175.85 78.2679 175.919 78.2609 175.981 78.247C176.015 78.2401 176.056 78.2261 176.084 78.2192L179.787 76.9732C180.323 76.7853 180.543 76.2145 180.571 75.7343C180.619 73.7087 180.736 68.1473 180.832 63.2331C180.921 59.3282 180.99 55.9524 181.004 55.312C181.017 54.5185 180.633 53.5301 179.767 53.2377L179.753 53.2308C179.643 53.2029 165.522 50.0498 165.377 50.022C165.274 50.008 165.185 50.015 165.103 50.0289C165.089 50.0289 164.718 50.0985 164.216 50.189C161.969 50.5997 161.447 50.6971 161.323 50.725C160.945 50.7876 160.622 51.1287 160.499 51.5951C160.444 51.79 160.416 51.9988 160.416 52.2215L160.581 71.3074C160.581 71.718 160.698 72.1496 160.897 72.5185C161.041 72.783 161.302 73.131 161.701 73.2772L175.424 78.1983C175.548 78.247 175.671 78.2679 175.788 78.2679ZM176.015 77.8085C175.981 77.8294 175.939 77.8433 175.898 77.8503C175.795 77.8712 175.678 77.8642 175.561 77.8155L161.838 72.9013C161.557 72.7969 161.364 72.5324 161.248 72.3236C161.076 72.0173 160.98 71.6554 160.98 71.3074L160.815 52.2215C160.815 52.0336 160.835 51.8665 160.883 51.7064V51.6995C160.952 51.4419 161.131 51.1635 161.385 51.1217C161.399 51.1217 161.426 51.1148 161.467 51.1078V51.1217H161.502H161.516H161.529L161.536 51.0939C161.997 51.0104 163.398 50.7528 164.292 50.5858C164.807 50.4883 165.185 50.4187 165.185 50.4187C165.226 50.4118 165.274 50.4118 165.322 50.4187C165.577 50.4674 179.272 53.5301 179.657 53.6206C180.296 53.8364 180.619 54.6299 180.612 55.2911C180.598 55.9315 180.53 59.3074 180.447 63.2122C180.344 68.1194 180.227 73.6879 180.186 75.7064C180.165 76.0266 180.021 76.4512 179.677 76.5765L176.125 77.7807L176.111 77.7598C176.097 77.7667 176.084 77.7807 176.07 77.7876H176.063L176.07 77.8016L176.015 77.8085Z" fill="#1A1F2D"/>
<path d="M172.128 57.7342C172.101 57.2197 172.391 56.7865 172.773 56.7666C173.156 56.7466 173.488 57.1475 173.514 57.662C173.54 58.1764 173.251 58.6096 172.868 58.6296C172.485 58.6495 172.154 58.2486 172.128 57.7342Z" fill="#1A1F2D"/>
<path d="M172.781 74.8494C172.398 74.8303 172.108 74.3978 172.133 73.8833C172.158 73.3688 172.489 72.9672 172.871 72.9862C173.254 73.0053 173.544 73.4378 173.519 73.9524C173.494 74.4669 173.164 74.8685 172.781 74.8494Z" fill="#1A1F2D"/>
<path d="M163.137 55.7156C162.754 55.7156 162.443 55.2981 162.443 54.7829C162.443 54.2678 162.754 53.8502 163.137 53.8502C163.521 53.8502 163.831 54.2678 163.831 54.7829C163.831 55.2981 163.521 55.7156 163.137 55.7156Z" fill="#1A1F2D"/>
<path d="M163.137 71.9335C162.754 71.9335 162.443 71.5159 162.443 71.0008C162.443 70.4856 162.754 70.068 163.137 70.068C163.521 70.068 163.831 70.4856 163.831 71.0008C163.831 71.5159 163.521 71.9335 163.137 71.9335Z" fill="#1A1F2D"/>
<path d="M167.425 66.7344C169.762 68.036 173.252 69.8179 176.75 71.4606C177.994 72.0453 179.238 72.616 180.426 73.1381C180.468 71.3074 180.523 68.7251 180.578 66.087C179.409 65.5511 178.145 64.9873 176.86 64.4304C173.692 63.0522 170.511 61.3886 168.325 60.6787C166.662 60.1357 159.681 62.4049 167.425 66.7344Z" fill="#1A1F2D"/>
<path d="M131.802 67.0199C131.816 68.6278 132.799 69.9921 133.994 70.0617C134.097 70.0686 134.194 70.0617 134.29 70.0477C134.276 70.0477 134.262 70.0547 134.249 70.0547L167.934 66.6788C169.006 66.5744 169.824 65.3911 169.81 63.9016C169.803 63.3099 169.665 62.7461 169.432 62.2728C169.033 61.4654 168.367 60.9085 167.618 60.8598C167.528 60.8528 167.446 60.8598 167.357 60.8668L136.125 63.999L133.685 64.2426C132.62 64.3401 131.789 65.5234 131.802 67.0199Z" fill="#40C3AF"/>
<path d="M135.327 65.4607L169.068 61.6881C168.669 60.8807 168.374 60.9085 167.618 60.8598C167.528 60.8528 167.446 60.8598 167.357 60.8668L136.125 63.999L135.327 65.4607Z" fill="white"/>
<path d="M134.09 70.2705C134.152 70.2705 134.214 70.2705 134.276 70.2635L167.961 66.8877C169.15 66.7693 170.03 65.4886 170.016 63.9085C170.002 62.1962 168.93 60.7415 167.638 60.6649C167.542 60.658 167.446 60.658 167.35 60.6719L133.678 64.0477C132.482 64.1522 131.589 65.4399 131.603 67.0269C131.617 68.7392 132.689 70.1939 133.981 70.2705C134.015 70.2705 134.049 70.2705 134.09 70.2705ZM134.269 69.8529C134.18 69.8668 134.097 69.8668 134.008 69.8598C132.922 69.7972 132.022 68.5164 132.008 67.0199C131.995 65.6417 132.73 64.535 133.719 64.4445L167.391 61.0686C167.466 61.0617 167.542 61.0617 167.618 61.0617C168.71 61.1243 169.604 62.4051 169.617 63.9016C169.631 65.2658 168.903 66.3726 167.92 66.47L134.269 69.8529Z" fill="#1A1F2D"/>
<path d="M134.915 58.2291C136.908 58.2082 138.509 57.7906 138.495 57.2894L138.619 71.3289C138.633 71.8231 137.032 72.2477 135.039 72.2686C133.046 72.2894 131.417 71.9066 131.404 71.4054L131.28 57.366C131.294 57.8672 132.922 58.25 134.915 58.2291Z" fill="#1A1F2D"/>
<path d="M134.922 72.4704C134.963 72.4704 135.004 72.4704 135.046 72.4704C136.496 72.4564 138.179 72.2059 138.674 71.6908C138.804 71.5516 138.832 71.4193 138.825 71.3288L138.701 57.3033C138.674 56.4193 136.179 56.2175 134.86 56.2314C133.41 56.2453 131.727 56.4959 131.232 57.011C131.101 57.1502 131.074 57.2824 131.081 57.3729L131.204 71.4054C131.232 72.2546 133.575 72.4704 134.922 72.4704ZM135.025 56.6351C137.169 56.6351 138.289 57.0945 138.296 57.3033L138.42 71.3358C138.42 71.3497 138.406 71.3776 138.378 71.4124C138.09 71.7186 136.819 72.0527 135.039 72.0667C132.792 72.0875 131.61 71.6142 131.603 71.4054L131.479 57.366C131.479 57.352 131.493 57.3312 131.52 57.2964C131.809 56.9901 133.08 56.656 134.86 56.6421C134.915 56.6351 134.97 56.6351 135.025 56.6351Z" fill="#1A1F2D"/>
<path d="M128.153 63.7697V69.2128C128.153 69.5748 128.62 69.9089 129.418 70.1734C130.641 70.591 132.634 70.8625 134.881 70.8625C135.362 70.8625 135.836 70.8486 136.289 70.8277C139.333 70.6676 141.615 70.0063 141.615 69.2128V63.7697C141.615 64.5632 139.32 65.2244 136.269 65.3845C135.822 65.4054 135.355 65.4193 134.881 65.4193C132.743 65.4193 130.84 65.1757 129.61 64.7929C128.703 64.5145 128.153 64.1525 128.153 63.7697Z" fill="#40C3AF"/>
<path d="M128.153 63.7697V69.2128C128.153 69.5748 128.277 69.8045 129.074 70.0759C129.129 68.5098 129.074 64.6119 129.074 64.6119C128.16 64.3265 128.153 64.1525 128.153 63.7697Z" fill="white"/>
<path d="M136.296 70.8201C139.34 70.66 141.622 69.9988 141.622 69.2053V63.7621C141.622 64.5556 139.327 65.2169 136.276 65.377C136.269 67.0962 136.283 69.7134 136.296 70.8201Z" fill="#1A1F2D"/>
<path d="M128.153 63.7697C128.153 64.3335 129.315 64.8347 131.087 65.134C132.166 65.3149 133.472 65.4193 134.881 65.4193C138.598 65.4193 141.615 64.6815 141.615 63.7697C141.615 62.8579 138.598 62.12 134.881 62.12C134.702 62.12 134.53 62.12 134.358 62.127C130.888 62.1896 128.153 62.8996 128.153 63.7697Z" fill="#40C3AF"/>
<path d="M128.153 63.7692C128.153 64.333 129.315 64.8342 131.087 65.1335C130.015 63.8806 131.836 62.8713 134.358 62.1265C130.888 62.1892 128.153 62.8991 128.153 63.7692Z" fill="white"/>
<path d="M134.888 71.0572C138.248 71.0572 141.821 70.4099 141.821 69.2057V63.7626C141.821 62.5584 138.248 61.9111 134.888 61.9111C131.527 61.9111 127.954 62.5584 127.954 63.7626V69.2057C127.954 70.4099 131.527 71.0572 134.888 71.0572ZM134.888 62.3217C138.935 62.3217 141.416 63.164 141.416 63.7695V69.2127C141.416 69.8183 138.928 70.6605 134.888 70.6605C130.84 70.6605 128.359 69.8183 128.359 69.2127V63.7695C128.353 63.164 130.84 62.3217 134.888 62.3217Z" fill="#1A1F2D"/>
<path d="M134.853 50.2875C136.846 50.2666 138.447 49.849 138.433 49.3478L138.557 63.3873C138.571 63.8815 136.97 64.3061 134.977 64.3269C132.984 64.3478 131.356 63.965 131.342 63.4638L131.218 49.4244C131.232 49.9255 132.86 50.3084 134.853 50.2875Z" fill="#1A1F2D"/>
<path d="M134.798 48.4914C136.791 48.4705 138.42 48.8534 138.433 49.3545C138.447 49.8487 136.846 50.2733 134.853 50.2942C132.86 50.3151 131.232 49.9323 131.218 49.4311C131.198 48.9299 132.805 48.5123 134.798 48.4914Z" fill="#40C3AF"/>
<path d="M134.853 64.5283C134.895 64.5283 134.936 64.5283 134.977 64.5283C136.427 64.5143 138.11 64.2638 138.605 63.7487C138.736 63.6095 138.763 63.4772 138.756 63.3867L138.633 49.3612C138.605 48.4772 136.111 48.2754 134.791 48.2893C133.341 48.3032 131.658 48.5538 131.163 49.0689C131.033 49.2081 131.005 49.3403 131.012 49.4308L131.136 63.4633C131.163 64.3125 133.513 64.5283 134.853 64.5283ZM134.963 48.693C137.107 48.693 138.227 49.1524 138.234 49.3612L138.358 63.3937C138.358 63.4076 138.344 63.4354 138.317 63.4703C138.028 63.7765 136.757 64.1106 134.977 64.1245C132.73 64.1454 131.548 63.6721 131.541 63.4633L131.417 49.4238C131.417 49.4099 131.431 49.389 131.459 49.3542C131.747 49.048 133.019 48.7139 134.798 48.6999C134.853 48.693 134.908 48.693 134.963 48.693Z" fill="#1A1F2D"/>
<path d="M134.888 65.6211C138.248 65.6211 141.821 64.9738 141.821 63.7696C141.821 62.5654 138.248 61.9181 134.888 61.9181C131.527 61.9181 127.954 62.5654 127.954 63.7696C127.954 64.9738 131.527 65.6211 134.888 65.6211ZM134.888 62.3218C138.935 62.3218 141.416 63.164 141.416 63.7696C141.416 64.3752 138.928 65.2174 134.888 65.2174C130.84 65.2174 128.359 64.3752 128.359 63.7696C128.353 63.164 130.84 62.3218 134.888 62.3218Z" fill="#1A1F2D"/>
<path d="M143.635 67.7373C143.642 67.7373 143.649 67.7373 143.656 67.7373L168.298 65.336C168.408 65.322 168.49 65.2246 168.477 65.1132C168.463 65.0018 168.367 64.9183 168.257 64.9322L143.615 67.3336C143.505 67.3476 143.422 67.445 143.436 67.5564C143.443 67.6538 143.532 67.7373 143.635 67.7373Z" fill="#1A1F2D"/>
<path d="M151.091 21.2409C151.139 21.227 151.194 21.2201 151.242 21.2201C151.29 21.2131 151.345 21.2131 151.4 21.2131C151.455 21.2131 151.503 21.2201 151.558 21.227C151.613 21.234 151.668 21.2479 151.723 21.2618L165.247 25.64L113.503 37.5356L100.007 33.0112C99.9517 32.9904 99.9036 32.9764 99.8486 32.9695C99.7936 32.9625 99.7455 32.9556 99.6974 32.9486C99.6493 32.9486 99.5944 32.9486 99.5463 32.9486C99.4982 32.9556 99.4501 32.9625 99.402 32.9695L151.091 21.2409Z" fill="#40C3AF"/>
<path d="M114.856 64.9115L138.646 58.4591L166.573 50.886C166.8 50.8233 167.006 50.705 167.198 50.524C167.384 50.35 167.549 50.1203 167.686 49.8419C167.824 49.5635 167.934 49.2433 168.009 48.8883C168.085 48.5333 168.126 48.1366 168.119 47.712L167.631 31.3129V30.2688L167.178 30.3802L115.887 42.5264L115.935 44.9278L116.286 61.5844C116.293 62.0368 116.265 62.4544 116.203 62.8303C116.141 63.2062 116.038 63.5472 115.915 63.8326C115.791 64.118 115.633 64.3616 115.461 64.5426C115.269 64.7305 115.069 64.8558 114.856 64.9115Z" fill="#40C3AF"/>
<path d="M113.503 37.5351C113.819 37.6395 114.121 37.8622 114.396 38.1615C114.671 38.4678 114.925 38.8576 115.145 39.31C115.358 39.7624 115.537 40.2775 115.667 40.8204C115.791 41.3634 115.874 41.9411 115.88 42.5258L167.171 30.3866L167.625 30.2752C167.625 29.7253 167.556 29.1894 167.432 28.6812C167.308 28.1731 167.137 27.6928 166.924 27.2752C166.711 26.8576 166.449 26.4956 166.168 26.2102C165.886 25.9318 165.577 25.73 165.247 25.6395L163.577 26.0362L113.503 37.5351Z" fill="#40C3AF"/>
<path d="M113.503 37.5355C113.819 37.6399 114.121 37.8626 114.396 38.1619C114.671 38.4682 114.925 38.858 115.145 39.3104C115.358 39.7629 115.537 40.278 115.667 40.8209C115.791 41.3638 115.874 41.9415 115.88 42.5262C115.88 42.5262 115.949 45.8603 115.949 45.8534C115.942 45.5819 118.787 45.9717 119.062 45.9856C122.883 46.1109 126.717 46.7374 130.435 47.6074C131.775 47.9206 133.122 48.2826 134.345 48.9438C135.513 49.5703 136.413 50.6909 136.997 51.8882C137.169 52.2432 137.313 52.619 137.423 53.0019C137.609 53.6492 137.719 54.3592 137.719 55.0343C137.719 56.2385 138.248 58.3963 139.849 58.1248C140.186 58.0691 140.529 57.9438 140.859 57.8534C142.041 57.5332 143.223 57.213 144.398 56.8928C147.848 55.9601 151.297 55.0204 154.747 54.0877C157.86 53.2455 160.973 52.3963 164.079 51.5541C164.903 51.3313 165.735 51.1086 166.559 50.8789C166.786 50.8162 166.992 50.6979 167.185 50.5169C167.37 50.3429 167.535 50.1132 167.673 49.8348C167.81 49.5564 167.92 49.2362 167.996 48.8812C168.071 48.5262 168.112 48.1295 168.106 47.7049L167.618 31.3058C167.487 30.9995 167.329 30.6933 167.157 30.3731C166.243 28.6886 164.855 26.9276 163.563 26.0227L113.503 37.5355Z" fill="#1A1F2D"/>
<path d="M98.0964 34.8483C98.1926 34.3959 98.3369 34.0061 98.5225 33.7068C98.708 33.4005 98.9279 33.1778 99.1822 33.0595C99.4364 32.9411 99.7113 32.9202 100.014 33.0177L113.51 37.542C113.826 37.6465 114.128 37.8692 114.403 38.1685C114.678 38.4748 114.932 38.8646 115.152 39.317C115.365 39.7694 115.544 40.2845 115.674 40.8274C115.798 41.3704 115.874 41.9481 115.887 42.5328L116.286 61.5838C116.3 62.1615 116.245 62.6836 116.142 63.136C116.038 63.5885 115.88 63.9713 115.681 64.2706C115.482 64.5629 115.248 64.7717 114.98 64.8762C114.712 64.9806 114.417 64.9806 114.108 64.8553L100.721 59.6349C100.426 59.5165 100.144 59.3007 99.8831 58.9945C99.6219 58.6952 99.3883 58.3054 99.1822 57.8669C98.9829 57.4284 98.8111 56.9342 98.6943 56.4121C98.5706 55.8901 98.5018 55.3402 98.4881 54.7833L97.9865 36.3727C97.959 35.8158 98.0002 35.3007 98.0964 34.8483Z" fill="#40C3AF"/>
<path d="M114.568 65.1547C114.733 65.1547 114.891 65.1269 115.042 65.0642C115.344 64.9459 115.612 64.7162 115.839 64.3821C116.052 64.0619 116.217 63.6582 116.327 63.1849C116.437 62.7046 116.492 62.1617 116.478 61.5839L116.08 42.5329C116.066 41.9482 115.99 41.3635 115.86 40.7858C115.729 40.2289 115.551 39.7069 115.324 39.2336C115.097 38.7533 114.836 38.3496 114.54 38.0364C114.231 37.6953 113.901 37.4656 113.558 37.3542L100.062 32.8299C99.7249 32.7185 99.3882 32.7324 99.0859 32.8786C98.7973 33.0178 98.5499 33.2614 98.3437 33.6025C98.1444 33.9296 97.9933 34.3403 97.8971 34.8067C97.794 35.2869 97.7527 35.816 97.7665 36.3867L98.2681 54.7974C98.2819 55.3542 98.3575 55.918 98.4812 56.4679C98.6048 57.0039 98.7766 57.505 98.9828 57.9644C99.1958 58.4238 99.4432 58.8206 99.7112 59.1338C99.9998 59.4679 100.309 59.7046 100.632 59.8299L114.018 65.0503C114.211 65.1199 114.389 65.1547 114.568 65.1547ZM99.6356 33.157C99.7387 33.157 99.8418 33.1779 99.9448 33.2127L113.441 37.7371C113.716 37.8276 113.991 38.0224 114.252 38.3148C114.513 38.6071 114.753 38.976 114.966 39.4146C115.179 39.86 115.351 40.3542 115.475 40.8832C115.606 41.4331 115.674 41.99 115.681 42.5468L116.08 61.5978C116.093 62.1408 116.045 62.6489 115.942 63.0944C115.846 63.519 115.702 63.8809 115.509 64.1593C115.331 64.4238 115.124 64.6048 114.898 64.6883C114.671 64.7788 114.424 64.7719 114.169 64.6675L100.783 59.447C100.529 59.3496 100.268 59.1477 100.02 58.8624C99.773 58.577 99.5463 58.215 99.3539 57.7835C99.1546 57.3519 98.9965 56.8786 98.8797 56.3705C98.756 55.8484 98.6873 55.3125 98.6736 54.7835L98.1719 36.3728C98.1582 35.8368 98.1994 35.3426 98.2888 34.8902C98.3781 34.4656 98.5155 34.0967 98.6873 33.8113C98.8522 33.5329 99.0446 33.345 99.2577 33.2405C99.3814 33.1849 99.505 33.157 99.6356 33.157Z" fill="#1A1F2D"/>
<path d="M114.568 65.1548C114.685 65.1548 114.802 65.1409 114.918 65.1061L114.973 65.0922L166.621 51.0806C166.875 51.011 167.116 50.8718 167.329 50.6769C167.535 50.482 167.714 50.2383 167.865 49.939C168.009 49.6467 168.126 49.3056 168.202 48.9367C168.277 48.5608 168.319 48.1502 168.319 47.7186L167.824 30.2755C167.824 29.7325 167.755 29.1757 167.631 28.6397C167.508 28.1177 167.329 27.6305 167.102 27.1919C166.875 26.7465 166.607 26.3776 166.312 26.0783C165.996 25.765 165.659 25.5562 165.302 25.4588L151.778 21.0806C151.703 21.0597 151.648 21.0458 151.586 21.0388C151.531 21.0318 151.469 21.0249 151.407 21.0249C151.339 21.0249 151.284 21.0249 151.222 21.0318C151.16 21.0388 151.105 21.0458 151.05 21.0597L99.3608 32.7952C99.2646 32.8161 99.1752 32.8509 99.0928 32.8926C98.811 33.0318 98.5568 33.2755 98.3506 33.6165C98.1513 33.9437 98.0002 34.3544 97.904 34.8277C97.8009 35.3079 97.7597 35.837 97.7734 36.4077L98.275 54.8184C98.2888 55.3752 98.3644 55.939 98.4881 56.4889C98.6117 57.0179 98.7835 57.526 98.9897 57.9854C99.2027 58.4448 99.4501 58.8416 99.7181 59.1548C100.007 59.4889 100.316 59.7256 100.639 59.8509L114.025 65.0713C114.204 65.12 114.389 65.1548 114.568 65.1548ZM114.76 64.7302C114.575 64.772 114.375 64.7511 114.169 64.6676L100.783 59.4472C100.529 59.3497 100.268 59.1479 100.02 58.8625C99.7731 58.5771 99.5463 58.2151 99.3539 57.7836C99.1546 57.352 98.9966 56.8717 98.8797 56.3706C98.7561 55.8485 98.6873 55.3126 98.6736 54.7836L98.172 36.3729C98.1582 35.837 98.1994 35.3428 98.2957 34.8903C98.385 34.4657 98.5155 34.1038 98.6942 33.8114C98.8591 33.533 99.0515 33.3451 99.2646 33.2407C99.3264 33.2128 99.3951 33.185 99.4638 33.1711L99.5326 33.1571V33.1641H99.5738C99.5807 33.1641 99.5875 33.1641 99.5875 33.1641V33.1502L99.6769 33.1293V33.1641C99.7044 33.1641 99.725 33.1711 99.7525 33.1711L99.7593 33.1084L99.8006 33.1015L99.7937 33.178L99.8143 33.0945L99.8006 33.178L99.8349 33.185L99.8555 33.0875L151.132 21.4425C151.174 21.4356 151.215 21.4286 151.256 21.4216C151.297 21.4147 151.339 21.4147 151.387 21.4147C151.435 21.4147 151.476 21.4216 151.517 21.4286C151.565 21.4356 151.607 21.4425 151.655 21.4564L165.178 25.8346C165.474 25.9182 165.749 26.0922 166.017 26.3567C166.285 26.6212 166.525 26.9622 166.731 27.366C166.944 27.7766 167.109 28.236 167.226 28.7233C167.35 29.2314 167.411 29.7534 167.411 30.2755L167.906 47.7186C167.906 48.1154 167.872 48.4982 167.796 48.8462C167.728 49.1803 167.624 49.4866 167.494 49.7511C167.37 50.0017 167.219 50.2175 167.047 50.3776C166.882 50.5307 166.704 50.6351 166.511 50.6908L114.829 64.7093H114.774L114.76 64.7302Z" fill="#1A1F2D"/>
<path d="M102.377 48.971C102.439 51.0731 103.827 52.7784 105.477 52.7923C105.999 52.7923 106.487 52.6253 106.913 52.326C107.813 51.6786 108.397 50.4397 108.349 49.0058C108.287 46.9037 106.899 45.1984 105.25 45.1844C105.229 45.1844 105.202 45.1844 105.181 45.1844C103.566 45.2262 102.322 46.9037 102.377 48.971Z" fill="#40C3AF"/>
<path d="M103.367 48.6789C103.388 50.5165 104.418 52.1801 105.593 52.7926C106.074 52.7717 106.521 52.6047 106.913 52.3263C107.813 51.6789 108.397 50.44 108.349 49.0061C108.335 48.4423 108.218 47.9133 108.033 47.426C107.462 46.4864 106.693 45.3587 105.703 45.3518C105.683 45.3518 105.655 45.3518 105.635 45.3518C104.453 45.4214 103.339 46.6673 103.367 48.6789Z" fill="#1A1F2D"/>
<path d="M105.566 47.2588C105.752 46.7437 105.009 46.9456 104.7 47.2101C104.144 47.6973 103.917 48.7344 104.322 49.1103C104.721 49.4792 104.439 48.463 105.119 47.6625C105.222 47.5581 105.525 47.3632 105.566 47.2588Z" fill="white"/>
<path d="M106.171 52.3325C106.59 52.3394 107.408 52.1585 107.779 51.4903C107.785 51.4833 107.785 51.4763 107.792 51.4624C107.84 51.3441 108.425 50.3696 108.418 49.5204C108.411 49.068 108.39 49.1376 108.239 48.706C108.06 48.191 107.676 47.4462 107.263 47.3835C107.085 47.3557 106.927 47.5158 106.947 47.7037C107.009 48.2397 107.194 48.5599 107.249 49.0332C107.298 49.4717 107.249 49.7223 107.195 49.9868C107.064 50.5923 106.61 51.1631 106.026 51.4067C105.855 51.4763 105.696 51.6086 105.717 51.8383C105.731 52.0332 105.923 52.3255 106.171 52.3325Z" fill="white"/>
<path d="M111.51 58.0196C111.675 58.0196 111.806 57.9639 111.895 57.9082C112.273 57.6715 112.369 57.1495 112.396 56.9337C112.41 56.8502 112.417 56.7527 112.417 56.6553L112.163 46.3954C112.163 46.0126 112.067 45.6228 111.881 45.3026C111.696 44.9685 111.434 44.7458 111.146 44.6623L102.357 41.2098L101.072 40.7435C100.756 40.6947 100.453 40.7783 100.22 40.9662C99.9999 41.1472 99.7319 41.5161 99.6907 42.2539C99.6907 42.2887 99.6838 42.3305 99.6838 42.3653C99.6769 42.4488 99.6701 42.5323 99.6701 42.6228L99.9449 52.3258C99.9449 52.5068 99.9724 52.6878 100.021 52.8688C100.227 53.6553 100.749 53.9128 101.367 54.1425C101.415 54.1634 105.655 55.7992 108.459 56.885L110.424 57.6437C110.885 57.8247 111.111 57.9082 111.228 57.943L111.221 57.9569C111.331 58.0056 111.428 58.0196 111.51 58.0196ZM102.226 41.5996L111.043 45.059C111.221 45.1077 111.4 45.2678 111.538 45.5045C111.689 45.769 111.764 46.0892 111.764 46.4024L112.019 56.6623C112.019 56.7319 112.012 56.8084 112.005 56.878C111.964 57.2052 111.847 57.4627 111.689 57.5602C111.599 57.6159 111.489 57.6228 111.359 57.5811C111.345 57.5741 110.156 57.1147 108.61 56.5161C104.886 55.0753 101.539 53.7806 101.519 53.7736C100.879 53.53 100.57 53.3351 100.419 52.7783C100.378 52.6321 100.357 52.479 100.357 52.3258L100.082 42.6228C100.082 42.5532 100.089 42.4766 100.096 42.4001C100.096 42.3583 100.103 42.3166 100.103 42.2748C100.13 41.8084 100.261 41.4604 100.488 41.2794C100.666 41.1333 100.866 41.1193 101.01 41.1402L102.226 41.5996Z" fill="#1A1F2D"/>
<path d="M105.477 52.9942C105.518 52.9942 105.559 52.9942 105.6 52.9942C106.102 52.9733 106.597 52.7993 107.023 52.493C108.005 51.79 108.59 50.4536 108.548 48.9988C108.535 48.428 108.418 47.8712 108.218 47.3561C107.662 45.9222 106.501 44.9895 105.25 44.9826C105.222 44.9826 105.195 44.9826 105.167 44.9826C104.46 44.9965 103.772 45.3236 103.243 45.8944C102.529 46.6531 102.144 47.7807 102.178 48.9849C102.247 51.1844 103.724 52.9872 105.477 52.9942ZM105.243 45.3863H105.25C106.336 45.3932 107.353 46.2215 107.847 47.4953C108.033 47.9686 108.136 48.4768 108.15 49.0058C108.191 50.3213 107.669 51.5255 106.796 52.1519C106.425 52.4164 106.02 52.5626 105.587 52.5835C105.552 52.5835 105.518 52.5835 105.484 52.5835C103.944 52.5765 102.645 50.9478 102.584 48.964C102.549 47.8712 102.9 46.8549 103.539 46.1659C104.006 45.6717 104.576 45.4002 105.188 45.3863C105.209 45.3863 105.229 45.3863 105.243 45.3863Z" fill="#1A1F2D"/>
<path d="M89.4929 32.3633L91.6644 33.0106L102.171 37.1869C102.549 37.2983 105.367 38.1196 105.703 38.4468C106.04 38.7739 107.085 39.4909 107.339 39.9781C107.6 40.4653 108.067 41.3006 108.349 41.8366C108.349 42.3029 109.208 42.9155 109.565 43.0964C110.142 43.3888 110.905 43.7786 111.544 43.8134C112.719 43.876 114.272 43.876 115.441 43.8412C117.042 43.7925 118.533 43.709 120.127 43.876C122.491 44.1266 124.511 44.1684 126.834 44.6626C129.115 45.1428 131.692 45.8111 134.001 46.1452C135.753 46.5071 137.025 47.0222 138.268 48.3934C139.389 49.6324 140.041 51.2681 140.089 52.9456L140.131 54.4352C140.186 56.5094 142.117 58.0129 144.109 57.5326C156.753 54.4839 169.205 51.463 169.205 51.463C169.473 51.4004 169.727 51.2681 169.954 51.0802C170.181 50.8923 170.38 50.6417 170.545 50.3493C170.71 50.057 170.84 49.709 170.93 49.3261C171.019 48.9433 171.067 48.5187 171.067 48.0663L170.572 31.5628C170.566 29.2797 167.336 25.6811 167.006 25.5558C165.219 24.8598 162.917 23.8018 161.495 23.2797C158.588 22.2148 157.825 21.4978 155.29 20.8644C154.472 20.6626 154.025 20.3633 153.056 20.1196C151.524 19.7438 148.555 20.3841 147.305 20.5999C147.305 20.5999 89.5823 32.1196 89.6441 32.1336C89.7128 32.1266 89.4311 32.3424 89.4929 32.3633Z" fill="#40C3AF"/>
<path d="M89.493 32.3631L92.6539 33.3098C105.264 30.8875 140.605 23.6276 155.723 20.7669C154.905 20.565 154.032 20.3423 153.056 20.1056C151.524 19.7297 148.555 20.3701 147.305 20.5859C147.305 20.5859 89.5823 32.1056 89.6441 32.1195C89.7128 32.1265 89.4311 32.3423 89.493 32.3631Z" fill="white"/>
<path d="M143.491 57.7832C143.766 57.7832 144.048 57.7484 144.322 57.6858C156.767 54.6858 169.136 51.6858 169.26 51.651C169.555 51.5814 169.837 51.4352 170.091 51.2264C170.339 51.0245 170.552 50.76 170.724 50.4398C170.902 50.1266 171.04 49.7647 171.129 49.361C171.225 48.9503 171.273 48.5118 171.273 48.0524L170.504 30.2682L170.497 30.2473C170.126 28.9596 168.092 25.7368 167.35 25.4514C166.917 25.2844 166.01 24.9085 164.862 24.4282C161.598 23.0709 156.142 20.8018 153.125 19.9039C151.806 19.5141 149.517 19.9526 147.999 20.245C147.724 20.3006 147.483 20.3424 147.284 20.3772H147.277L89.4654 32.0222C89.3417 32.0431 89.2593 32.1475 89.2524 32.2728C89.2455 32.3911 89.3211 32.5025 89.4311 32.5443L104.473 38.4746C104.954 38.6835 105.38 38.8505 105.724 38.9828C106.411 39.2473 106.858 39.4213 107.002 39.6858C107.091 39.8598 107.215 40.0965 107.359 40.361C107.607 40.8343 107.916 41.419 108.184 41.9201C108.665 42.8041 109.105 43.5002 110.087 43.7716C111.599 44.1962 113.262 44.1266 114.87 44.064C115.386 44.0431 115.873 44.0222 116.354 44.0152C120.739 43.9596 124.937 44.3633 129.569 45.289C129.919 45.3586 130.277 45.4282 130.655 45.4978C132.455 45.832 134.496 46.2148 136.035 46.9526C138.152 47.9619 139.815 50.5373 139.897 52.9387C139.897 52.9387 139.897 53.0292 139.931 54.2542C139.959 55.347 140.467 56.3563 141.326 57.0245C141.952 57.5257 142.714 57.7832 143.491 57.7832ZM170.098 30.3308L170.868 48.0593C170.868 48.477 170.827 48.8876 170.737 49.2635C170.655 49.6255 170.531 49.9526 170.373 50.231C170.222 50.5025 170.036 50.7322 169.83 50.9062C169.624 51.0802 169.404 51.1916 169.164 51.2542C169.04 51.2821 156.671 54.2821 144.226 57.289C143.292 57.5118 142.323 57.303 141.567 56.7113C140.804 56.1197 140.357 55.2217 140.33 54.2542L140.296 52.9317C140.213 50.7113 138.784 47.8157 136.2 46.5907C134.613 45.832 132.544 45.4491 130.723 45.1081C130.352 45.0385 129.988 44.9688 129.644 44.8992C124.985 43.9735 120.766 43.5698 116.348 43.6185C115.86 43.6255 115.351 43.6463 114.85 43.6672C113.276 43.7299 111.64 43.7995 110.191 43.3888C109.366 43.1591 108.981 42.5535 108.534 41.7322C108.266 41.231 107.957 40.6463 107.71 40.18C107.572 39.9085 107.442 39.6719 107.353 39.4978C107.139 39.1011 106.658 38.9132 105.868 38.6069C105.511 38.4677 105.105 38.3146 104.631 38.0988L90.0014 32.3285L147.353 20.774C147.552 20.7392 147.8 20.6904 148.074 20.6417C149.462 20.3772 151.785 19.9248 153.008 20.2867C156.011 21.1777 161.454 23.4398 164.711 24.7972C165.865 25.2774 166.772 25.6533 167.212 25.8204C167.721 26.0292 169.7 29.0013 170.098 30.3308Z" fill="#1A1F2D"/>
<path d="M112.218 42.7069C112.231 42.7069 112.245 42.7069 112.259 42.6999L168.841 30.2057C168.951 30.1848 169.019 30.0735 168.992 29.9621C168.971 29.8507 168.861 29.7811 168.751 29.8089L112.17 42.3101C112.06 42.331 111.991 42.4424 112.018 42.5537C112.039 42.6442 112.128 42.7069 112.218 42.7069Z" fill="#1A1F2D"/>
<path d="M109.125 39.3585C109.139 39.3585 109.153 39.3585 109.167 39.3516L166.209 26.405C166.319 26.3771 166.388 26.2727 166.36 26.1613C166.333 26.05 166.23 25.9804 166.12 26.0082L109.077 38.9548C108.967 38.9827 108.899 39.0871 108.926 39.1985C108.947 39.2959 109.029 39.3585 109.125 39.3585Z" fill="#1A1F2D"/>
<circle cx="66" cy="57" r="14.5" fill="white" stroke="#EDEDED"/>
<path d="M66 48.6667C63.8167 48.6667 62.0417 50.4417 62.0417 52.625C62.0417 54.7667 63.7167 56.5 65.9 56.575C65.9667 56.5667 66.0334 56.5667 66.0834 56.575C66.1 56.575 66.1084 56.575 66.125 56.575C66.1334 56.575 66.1334 56.575 66.1417 56.575C68.275 56.5 69.95 54.7667 69.9584 52.625C69.9584 50.4417 68.1834 48.6667 66 48.6667Z" fill="#00937D"/>
<path d="M70.2334 58.7917C67.9084 57.2417 64.1167 57.2417 61.775 58.7917C60.7167 59.5 60.1334 60.4583 60.1334 61.4833C60.1334 62.5083 60.7167 63.4583 61.7667 64.1583C62.9334 64.9417 64.4667 65.3333 66 65.3333C67.5334 65.3333 69.0667 64.9417 70.2334 64.1583C71.2834 63.45 71.8667 62.5 71.8667 61.4667C71.8584 60.4417 71.2834 59.4917 70.2334 58.7917ZM67.6667 62.1083H66.625V63.15C66.625 63.4917 66.3417 63.775 66 63.775C65.6584 63.775 65.375 63.4917 65.375 63.15V62.1083H64.3334C63.9917 62.1083 63.7084 61.825 63.7084 61.4833C63.7084 61.1417 63.9917 60.8583 64.3334 60.8583H65.375V59.8167C65.375 59.475 65.6584 59.1917 66 59.1917C66.3417 59.1917 66.625 59.475 66.625 59.8167V60.8583H67.6667C68.0084 60.8583 68.2917 61.1417 68.2917 61.4833C68.2917 61.825 68.0084 62.1083 67.6667 62.1083Z" fill="#00937D"/>
<circle cx="84" cy="94" r="14.5" fill="white" stroke="#EDEDED"/>
<path d="M84 85.6667C81.8167 85.6667 80.0417 87.4417 80.0417 89.625C80.0417 91.7667 81.7167 93.5 83.9 93.575C83.9667 93.5667 84.0334 93.5667 84.0834 93.575C84.1 93.575 84.1084 93.575 84.125 93.575C84.1334 93.575 84.1334 93.575 84.1417 93.575C86.275 93.5 87.95 91.7667 87.9584 89.625C87.9584 87.4417 86.1834 85.6667 84 85.6667Z" fill="#00937D"/>
<path d="M88.2334 95.7917C85.9084 94.2417 82.1167 94.2417 79.775 95.7917C78.7167 96.5 78.1334 97.4583 78.1334 98.4833C78.1334 99.5083 78.7167 100.458 79.7667 101.158C80.9334 101.942 82.4667 102.333 84 102.333C85.5334 102.333 87.0667 101.942 88.2334 101.158C89.2834 100.45 89.8667 99.5 89.8667 98.4667C89.8584 97.4417 89.2834 96.4917 88.2334 95.7917ZM85.6667 99.1083H84.625V100.15C84.625 100.492 84.3417 100.775 84 100.775C83.6584 100.775 83.375 100.492 83.375 100.15V99.1083H82.3334C81.9917 99.1083 81.7084 98.825 81.7084 98.4833C81.7084 98.1417 81.9917 97.8583 82.3334 97.8583H83.375V96.8167C83.375 96.475 83.6584 96.1917 84 96.1917C84.3417 96.1917 84.625 96.475 84.625 96.8167V97.8583H85.6667C86.0084 97.8583 86.2917 98.1417 86.2917 98.4833C86.2917 98.825 86.0084 99.1083 85.6667 99.1083Z" fill="#00937D"/>
<defs>
<linearGradient id="paint0_linear_10_165" x1="136.458" y1="20.162" x2="60.524" y2="68.6777" gradientUnits="userSpaceOnUse">
<stop stop-color="#40C3AF"/>
<stop offset="1" stop-color="#40C3AF" stop-opacity="0"/>
</linearGradient>
</defs>
</svg>
