<svg width="355" height="357" viewBox="0 0 355 357" fill="none" xmlns="http://www.w3.org/2000/svg">
<g filter="url(#filter0_d_13_342)">
<rect x="10" y="8" width="335" height="337" rx="8" fill="white"/>
<rect x="10.5" y="8.5" width="334" height="336" rx="7.5" stroke="#E0F2EF"/>
</g>
<path d="M23.6 48V36.8H31.52V38.48H25.36V41.36H30.24V43.04H25.36V46.32H31.68V48H23.6ZM33.5263 48V40.32H35.1263V41.44C35.2863 41.2 35.4783 40.992 35.7183 40.8C36.1183 40.48 36.7103 40.16 37.5263 40.16C39.2863 40.16 40.5663 41.424 40.5663 43.52V48H38.9663V43.52C38.9663 42.384 38.2463 41.68 37.2063 41.68C36.0063 41.68 35.1263 42.56 35.1263 43.84V48H33.5263ZM48.6475 45.6L49.6075 46.72C49.3995 46.992 49.1275 47.232 48.8075 47.44C48.2475 47.808 47.4635 48.16 46.3275 48.16C44.0875 48.16 42.3275 46.4 42.3275 44.16C42.3275 41.92 44.0875 40.16 46.2475 40.16C48.4235 40.16 50.0075 41.744 50.0075 43.92C50.0075 44.16 49.9755 44.352 49.9595 44.496L49.9275 44.72H44.0075C44.1835 45.76 45.1115 46.64 46.4075 46.64C47.0955 46.64 47.6555 46.384 48.0395 46.128C48.2635 45.984 48.4715 45.808 48.6475 45.6ZM44.0075 43.36H48.3275C48.0875 42.32 47.3835 41.6 46.2475 41.6C45.0315 41.6 44.3275 42.32 44.0075 43.36ZM51.7606 48V40.32H53.3606V41.36C53.5366 41.152 53.7286 40.944 53.9526 40.768C54.3366 40.464 54.9126 40.16 55.6806 40.16H56.0806V41.84L55.8726 41.808C55.7446 41.792 55.6166 41.76 55.4406 41.76C54.3366 41.76 53.3606 42.72 53.3606 44.08V48H51.7606ZM57.13 49.76L58.25 48.72C58.426 48.928 58.618 49.12 58.826 49.28C59.194 49.584 59.722 49.84 60.41 49.84C61.866 49.84 62.81 48.896 62.81 47.36V46.64C62.65 46.864 62.442 47.072 62.202 47.248C61.77 47.552 61.162 47.84 60.33 47.84C58.49 47.84 56.89 46.24 56.89 44C56.89 41.76 58.49 40.16 60.33 40.16C61.162 40.16 61.77 40.464 62.202 40.768C62.442 40.944 62.65 41.152 62.81 41.36V40.32H64.41V47.36C64.41 49.68 62.73 51.36 60.41 51.36C59.322 51.36 58.522 50.96 57.962 50.56C57.642 50.32 57.37 50.064 57.13 49.76ZM60.65 46.32C61.85 46.32 62.81 45.36 62.81 44C62.81 42.64 61.85 41.68 60.65 41.68C59.45 41.68 58.49 42.64 58.49 44C58.49 45.36 59.45 46.32 60.65 46.32ZM66.1713 51.12V49.6C66.2513 49.648 66.3313 49.68 66.4433 49.728C66.6193 49.792 66.8273 49.84 67.1313 49.84C67.7713 49.84 68.2353 49.44 68.4913 48.8L68.8113 48L65.6913 40.32H67.4513L69.6113 46L71.7713 40.32H73.5312L70.1713 48.88C69.5312 50.496 68.6513 51.36 67.3713 51.36C67.0033 51.36 66.7153 51.312 66.5073 51.248L66.1713 51.12ZM87.0544 44.8L88.1744 45.92C87.8384 46.336 87.4544 46.704 86.9904 47.04C86.2064 47.6 85.0704 48.16 83.5344 48.16C80.1744 48.16 77.6144 45.6 77.6144 42.4C77.6144 39.2 80.1744 36.64 83.5344 36.64C85.0704 36.64 86.1904 37.168 86.9584 37.728C87.3904 38.048 87.7744 38.4 88.0944 38.8L86.9744 39.92C86.7504 39.616 86.4624 39.328 86.1264 39.088C85.5504 38.656 84.6864 38.24 83.5344 38.24C81.2144 38.24 79.3744 40.08 79.3744 42.4C79.3744 44.72 81.2144 46.56 83.5344 46.56C84.6864 46.56 85.5664 46.128 86.1584 45.68C86.5104 45.424 86.8144 45.136 87.0544 44.8ZM89.14 44.16C89.14 41.92 90.9 40.16 93.14 40.16C95.38 40.16 97.14 41.92 97.14 44.16C97.14 46.4 95.38 48.16 93.14 48.16C90.9 48.16 89.14 46.4 89.14 44.16ZM93.14 46.64C94.5 46.64 95.54 45.616 95.54 44.16C95.54 42.704 94.5 41.68 93.14 41.68C91.78 41.68 90.74 42.704 90.74 44.16C90.74 45.616 91.78 46.64 93.14 46.64ZM98.9013 48V40.32H100.501V41.44C100.661 41.2 100.853 40.992 101.093 40.8C101.493 40.48 102.085 40.16 102.901 40.16C104.661 40.16 105.941 41.424 105.941 43.52V48H104.341V43.52C104.341 42.384 103.621 41.68 102.581 41.68C101.381 41.68 100.501 42.56 100.501 43.84V48H98.9013ZM107.463 46.72L108.503 45.68C108.663 45.888 108.839 46.064 109.047 46.208C109.414 46.464 109.879 46.72 110.503 46.72C111.399 46.72 111.863 46.256 111.863 45.76C111.863 44.48 107.783 45.136 107.783 42.4C107.783 41.2 108.839 40.16 110.583 40.16C111.495 40.16 112.183 40.432 112.631 40.688C112.903 40.832 113.127 41.008 113.303 41.2L112.263 42.24C112.135 42.128 111.991 42.016 111.815 41.92C111.511 41.744 111.095 41.6 110.583 41.6C109.767 41.6 109.383 42 109.383 42.4C109.383 43.68 113.463 43.04 113.463 45.76C113.463 47.04 112.359 48.16 110.503 48.16C109.479 48.16 108.743 47.808 108.231 47.44C107.927 47.232 107.671 46.992 107.463 46.72ZM115.136 44.8V40.32H116.736V44.8C116.736 45.936 117.456 46.64 118.496 46.64C119.696 46.64 120.576 45.76 120.576 44.48V40.32H122.176V48H120.576V46.88C120.4 47.12 120.208 47.328 119.968 47.52C119.568 47.84 118.992 48.16 118.176 48.16C116.416 48.16 115.136 46.896 115.136 44.8ZM124.417 48V40.32H126.017V41.44C126.145 41.2 126.321 40.992 126.529 40.8C126.897 40.48 127.441 40.16 128.257 40.16C129.089 40.16 129.697 40.48 130.081 40.8C130.305 40.992 130.497 41.2 130.657 41.44C130.801 41.2 131.009 40.992 131.249 40.8C131.681 40.48 132.337 40.16 133.297 40.16C134.817 40.16 136.097 41.44 136.097 43.44V48H134.497V43.44C134.497 42.304 133.793 41.68 132.897 41.68C131.857 41.68 131.057 42.48 131.057 43.76V48H129.457V43.44C129.457 42.304 128.753 41.68 127.857 41.68C126.817 41.68 126.017 42.48 126.017 43.76V48H124.417ZM144.179 45.6L145.139 46.72C144.931 46.992 144.659 47.232 144.339 47.44C143.779 47.808 142.995 48.16 141.859 48.16C139.619 48.16 137.859 46.4 137.859 44.16C137.859 41.92 139.619 40.16 141.779 40.16C143.955 40.16 145.539 41.744 145.539 43.92C145.539 44.16 145.507 44.352 145.491 44.496L145.459 44.72H139.539C139.715 45.76 140.643 46.64 141.939 46.64C142.627 46.64 143.187 46.384 143.571 46.128C143.795 45.984 144.003 45.808 144.179 45.6ZM139.539 43.36H143.859C143.619 42.32 142.915 41.6 141.779 41.6C140.563 41.6 139.859 42.32 139.539 43.36ZM150.251 47.12C150.251 46.56 150.731 46.08 151.291 46.08C151.851 46.08 152.331 46.56 152.331 47.12C152.331 47.68 151.851 48.16 151.291 48.16C150.731 48.16 150.251 47.68 150.251 47.12ZM150.251 41.2C150.251 40.64 150.731 40.16 151.291 40.16C151.851 40.16 152.331 40.64 152.331 41.2C152.331 41.76 151.851 42.24 151.291 42.24C150.731 42.24 150.251 41.76 150.251 41.2Z" fill="#404040"/>
<rect x="202" y="23" width="130" height="40" rx="20" fill="white"/>
<rect x="202.6" y="23.6" width="128.8" height="38.8" rx="19.4" stroke="url(#paint0_linear_13_342)" stroke-opacity="0.5" stroke-width="1.2"/>
<path d="M312.92 40L306.4 46.52C305.63 47.29 304.37 47.29 303.6 46.52L297.08 40" stroke="#292D32" stroke-width="1.5" stroke-miterlimit="10" stroke-linecap="round" stroke-linejoin="round"/>
<path d="M224 49L220.32 37.8H222.16L224.88 46.2L227.52 37.8H229.28L231.92 46.2L234.64 37.8H236.48L232.8 49H231.04L228.4 40.6L225.76 49H224ZM242.96 46.6L243.92 47.72C243.712 47.992 243.44 48.232 243.12 48.44C242.56 48.808 241.776 49.16 240.64 49.16C238.4 49.16 236.64 47.4 236.64 45.16C236.64 42.92 238.4 41.16 240.56 41.16C242.736 41.16 244.32 42.744 244.32 44.92C244.32 45.16 244.288 45.352 244.272 45.496L244.24 45.72H238.32C238.496 46.76 239.424 47.64 240.72 47.64C241.408 47.64 241.968 47.384 242.352 47.128C242.576 46.984 242.784 46.808 242.96 46.6ZM238.32 44.36H242.64C242.4 43.32 241.696 42.6 240.56 42.6C239.344 42.6 238.64 43.32 238.32 44.36ZM251.913 46.6L252.873 47.72C252.665 47.992 252.393 48.232 252.073 48.44C251.513 48.808 250.729 49.16 249.593 49.16C247.353 49.16 245.593 47.4 245.593 45.16C245.593 42.92 247.353 41.16 249.513 41.16C251.689 41.16 253.273 42.744 253.273 44.92C253.273 45.16 253.241 45.352 253.225 45.496L253.193 45.72H247.273C247.449 46.76 248.377 47.64 249.673 47.64C250.361 47.64 250.921 47.384 251.305 47.128C251.529 46.984 251.737 46.808 251.913 46.6ZM247.273 44.36H251.593C251.353 43.32 250.649 42.6 249.513 42.6C248.297 42.6 247.593 43.32 247.273 44.36ZM255.106 49V37.8H256.706V44.84L259.986 41.32H261.986L259.026 44.44L262.226 49H260.386L257.986 45.56L256.706 46.92V49H255.106ZM263.419 49V37.8H265.019V49H263.419ZM266.859 52.12V50.6C266.939 50.648 267.019 50.68 267.131 50.728C267.307 50.792 267.515 50.84 267.819 50.84C268.459 50.84 268.923 50.44 269.179 49.8L269.499 49L266.379 41.32H268.139L270.299 47L272.459 41.32H274.219L270.859 49.88C270.219 51.496 269.339 52.36 268.059 52.36C267.691 52.36 267.403 52.312 267.195 52.248L266.859 52.12Z" fill="#797979"/>
<path d="M59 262H345" stroke="#F3F4F4" stroke-width="0.8"/>
<path d="M59 217H345" stroke="#F3F4F4" stroke-width="0.8"/>
<path d="M59 172H345" stroke="#F3F4F4" stroke-width="0.8"/>
<path d="M59 127H345" stroke="#F3F4F4" stroke-width="0.8"/>
<path d="M59 82H345" stroke="#F3F4F4" stroke-width="0.8"/>
<path d="M43.1574 308.8C43.1574 306.7 42.1374 305.68 40.9974 305.68C39.8574 305.68 38.8374 306.7 38.8374 308.8C38.8374 310.9 39.8574 311.92 40.9974 311.92C42.1374 311.92 43.1574 310.9 43.1574 308.8ZM40.9974 313.12C39.0774 313.12 37.5174 311.548 37.5174 308.8C37.5174 306.052 39.0774 304.48 40.9974 304.48C42.9174 304.48 44.4774 306.052 44.4774 308.8C44.4774 311.548 42.9174 313.12 40.9974 313.12Z" fill="#9A9A9A"/>
<path d="M26.4995 265.86L27.3995 264.96C27.5315 265.14 27.6995 265.296 27.9035 265.44C28.2395 265.68 28.7315 265.92 29.4395 265.92C30.5315 265.92 31.1795 265.26 31.1795 264.3C31.1795 263.34 30.5315 262.68 29.4395 262.68C28.9235 262.68 28.5515 262.896 28.2755 263.1C28.1195 263.232 27.9875 263.364 27.8795 263.52L26.9195 263.4L27.2195 258.6H31.9595V259.86H28.3595L28.2395 261.9C28.3475 261.828 28.4795 261.756 28.6235 261.696C28.8755 261.588 29.2115 261.48 29.6795 261.48C31.3115 261.48 32.4995 262.668 32.4995 264.3C32.4995 265.932 31.2995 267.12 29.4395 267.12C28.4315 267.12 27.7235 266.82 27.2315 266.496C26.9435 266.316 26.7035 266.1 26.4995 265.86ZM39.3977 262.8C39.3977 260.7 38.3777 259.68 37.2377 259.68C36.0977 259.68 35.0777 260.7 35.0777 262.8C35.0777 264.9 36.0977 265.92 37.2377 265.92C38.3777 265.92 39.3977 264.9 39.3977 262.8ZM37.2377 267.12C35.3177 267.12 33.7577 265.548 33.7577 262.8C33.7577 260.052 35.3177 258.48 37.2377 258.48C39.1577 258.48 40.7177 260.052 40.7177 262.8C40.7177 265.548 39.1577 267.12 37.2377 267.12ZM44.3828 267L41.6228 258.6H43.0028L45.0428 264.9L47.0228 258.6H48.3428L50.3228 264.9L52.3628 258.6H53.7428L50.9828 267H49.6628L47.6828 260.7L45.7028 267H44.3828Z" fill="#9A9A9A"/>
<path d="M22.1153 221V214.58H20.6153V213.74C21.6953 213.608 22.1273 213.2 22.4153 212.6H23.4353V221H22.1153ZM30.9367 216.8C30.9367 214.7 29.9167 213.68 28.7767 213.68C27.6367 213.68 26.6167 214.7 26.6167 216.8C26.6167 218.9 27.6367 219.92 28.7767 219.92C29.9167 219.92 30.9367 218.9 30.9367 216.8ZM28.7767 221.12C26.8567 221.12 25.2967 219.548 25.2967 216.8C25.2967 214.052 26.8567 212.48 28.7767 212.48C30.6967 212.48 32.2567 214.052 32.2567 216.8C32.2567 219.548 30.6967 221.12 28.7767 221.12ZM39.2219 216.8C39.2219 214.7 38.2019 213.68 37.0619 213.68C35.9219 213.68 34.9019 214.7 34.9019 216.8C34.9019 218.9 35.9219 219.92 37.0619 219.92C38.2019 219.92 39.2219 218.9 39.2219 216.8ZM37.0619 221.12C35.1419 221.12 33.5819 219.548 33.5819 216.8C33.5819 214.052 35.1419 212.48 37.0619 212.48C38.9819 212.48 40.5419 214.052 40.5419 216.8C40.5419 219.548 38.9819 221.12 37.0619 221.12ZM44.207 221L41.447 212.6H42.827L44.867 218.9L46.847 212.6H48.167L50.147 218.9L52.187 212.6H53.567L50.807 221H49.487L47.507 214.7L45.527 221H44.207Z" fill="#9A9A9A"/>
<path d="M23.2188 175V168.58H21.7188V167.74C22.7988 167.608 23.2308 167.2 23.5188 166.6H24.5388V175H23.2188ZM26.2202 173.86L27.1202 172.96C27.2522 173.14 27.4202 173.296 27.6242 173.44C27.9602 173.68 28.4522 173.92 29.1602 173.92C30.2522 173.92 30.9002 173.26 30.9002 172.3C30.9002 171.34 30.2522 170.68 29.1602 170.68C28.6442 170.68 28.2722 170.896 27.9962 171.1C27.8402 171.232 27.7082 171.364 27.6002 171.52L26.6402 171.4L26.9402 166.6H31.6802V167.86H28.0802L27.9602 169.9C28.0682 169.828 28.2002 169.756 28.3442 169.696C28.5962 169.588 28.9322 169.48 29.4002 169.48C31.0322 169.48 32.2202 170.668 32.2202 172.3C32.2202 173.932 31.0202 175.12 29.1602 175.12C28.1522 175.12 27.4442 174.82 26.9522 174.496C26.6642 174.316 26.4242 174.1 26.2202 173.86ZM39.1184 170.8C39.1184 168.7 38.0984 167.68 36.9584 167.68C35.8184 167.68 34.7984 168.7 34.7984 170.8C34.7984 172.9 35.8184 173.92 36.9584 173.92C38.0984 173.92 39.1184 172.9 39.1184 170.8ZM36.9584 175.12C35.0384 175.12 33.4784 173.548 33.4784 170.8C33.4784 168.052 35.0384 166.48 36.9584 166.48C38.8784 166.48 40.4384 168.052 40.4384 170.8C40.4384 173.548 38.8784 175.12 36.9584 175.12ZM44.1035 175L41.3435 166.6H42.7235L44.7635 172.9L46.7435 166.6H48.0635L50.0435 172.9L52.0835 166.6H53.4635L50.7035 175H49.3835L47.4035 168.7L45.4235 175H44.1035Z" fill="#9A9A9A"/>
<path d="M20.0386 127.74H24.1186V129H18.4786C18.4786 125.22 22.7986 125.112 22.7986 123.06C22.7986 122.28 22.2586 121.74 21.2986 121.74C20.6626 121.74 20.2666 122.028 20.0146 122.316C19.8706 122.484 19.7626 122.676 19.6786 122.88L18.5986 122.4C18.7066 122.04 18.8866 121.716 19.1146 121.44C19.5106 120.96 20.1826 120.48 21.2986 120.48C22.9786 120.48 24.1186 121.62 24.1186 123.06C24.1186 125.52 20.9986 125.88 20.0386 127.74ZM31.0734 124.8C31.0734 122.7 30.0534 121.68 28.9134 121.68C27.7734 121.68 26.7534 122.7 26.7534 124.8C26.7534 126.9 27.7734 127.92 28.9134 127.92C30.0534 127.92 31.0734 126.9 31.0734 124.8ZM28.9134 129.12C26.9934 129.12 25.4334 127.548 25.4334 124.8C25.4334 122.052 26.9934 120.48 28.9134 120.48C30.8334 120.48 32.3934 122.052 32.3934 124.8C32.3934 127.548 30.8334 129.12 28.9134 129.12ZM39.3586 124.8C39.3586 122.7 38.3386 121.68 37.1986 121.68C36.0586 121.68 35.0386 122.7 35.0386 124.8C35.0386 126.9 36.0586 127.92 37.1986 127.92C38.3386 127.92 39.3586 126.9 39.3586 124.8ZM37.1986 129.12C35.2786 129.12 33.7186 127.548 33.7186 124.8C33.7186 122.052 35.2786 120.48 37.1986 120.48C39.1186 120.48 40.6786 122.052 40.6786 124.8C40.6786 127.548 39.1186 129.12 37.1986 129.12ZM44.3438 129L41.5838 120.6H42.9638L45.0038 126.9L46.9838 120.6H48.3038L50.2838 126.9L52.3238 120.6H53.7038L50.9438 129H49.6238L47.6438 122.7L45.6638 129H44.3438Z" fill="#9A9A9A"/>
<path d="M21.1421 84.74H25.2221V86H19.5821C19.5821 82.22 23.9021 82.112 23.9021 80.06C23.9021 79.28 23.3621 78.74 22.4021 78.74C21.7661 78.74 21.3701 79.028 21.1181 79.316C20.9741 79.484 20.8661 79.676 20.7821 79.88L19.7021 79.4C19.8101 79.04 19.9901 78.716 20.2181 78.44C20.6141 77.96 21.2861 77.48 22.4021 77.48C24.0821 77.48 25.2221 78.62 25.2221 80.06C25.2221 82.52 22.1021 82.88 21.1421 84.74ZM26.357 84.86L27.257 83.96C27.389 84.14 27.557 84.296 27.761 84.44C28.097 84.68 28.589 84.92 29.297 84.92C30.389 84.92 31.037 84.26 31.037 83.3C31.037 82.34 30.389 81.68 29.297 81.68C28.781 81.68 28.409 81.896 28.133 82.1C27.977 82.232 27.845 82.364 27.737 82.52L26.777 82.4L27.077 77.6H31.817V78.86H28.217L28.097 80.9C28.205 80.828 28.337 80.756 28.481 80.696C28.733 80.588 29.069 80.48 29.537 80.48C31.169 80.48 32.357 81.668 32.357 83.3C32.357 84.932 31.157 86.12 29.297 86.12C28.289 86.12 27.581 85.82 27.089 85.496C26.801 85.316 26.561 85.1 26.357 84.86ZM39.2551 81.8C39.2551 79.7 38.2351 78.68 37.0951 78.68C35.9551 78.68 34.9351 79.7 34.9351 81.8C34.9351 83.9 35.9551 84.92 37.0951 84.92C38.2351 84.92 39.2551 83.9 39.2551 81.8ZM37.0951 86.12C35.1751 86.12 33.6151 84.548 33.6151 81.8C33.6151 79.052 35.1751 77.48 37.0951 77.48C39.0151 77.48 40.5751 79.052 40.5751 81.8C40.5751 84.548 39.0151 86.12 37.0951 86.12ZM44.2402 86L41.4802 77.6H42.8602L44.9002 83.9L46.8802 77.6H48.2002L50.1802 83.9L52.2202 77.6H53.6002L50.8402 86H49.5202L47.5402 79.7L45.5602 86H44.2402Z" fill="#9A9A9A"/>
<path d="M59 307H345" stroke="#F3F4F4" stroke-width="0.8"/>
<line x1="59.4" y1="82" x2="59.4" y2="307" stroke="#F3F4F4" stroke-width="0.8"/>
<path d="M74 88C74 85.2386 76.2386 83 79 83V83C81.7614 83 84 85.2386 84 88V198H74V88Z" fill="#E0F2EF"/>
<path d="M71.1414 327V318.6H72.3414L75.5214 322.68L78.7014 318.6H79.9014V327H78.5814V320.82L75.5214 324.72L72.4614 320.82V327H71.1414ZM81.5777 324.12C81.5777 322.44 82.8977 321.12 84.5777 321.12C86.2577 321.12 87.5777 322.44 87.5777 324.12C87.5777 325.8 86.2577 327.12 84.5777 327.12C82.8977 327.12 81.5777 325.8 81.5777 324.12ZM84.5777 325.98C85.5977 325.98 86.3777 325.212 86.3777 324.12C86.3777 323.028 85.5977 322.26 84.5777 322.26C83.5577 322.26 82.7777 323.028 82.7777 324.12C82.7777 325.212 83.5577 325.98 84.5777 325.98Z" fill="#9A9A9A"/>
<path d="M74 162.293L84 162.262L84.4289 301.985C84.4374 304.746 82.2057 306.991 79.4443 307V307C76.6829 307.008 74.4374 304.777 74.4289 302.015L74 162.293Z" fill="#11A9A0"/>
<path d="M238 88C238 85.2386 240.239 83 243 83V83C245.761 83 248 85.2386 248 88V197H238V88Z" fill="#E0F2EF"/>
<path d="M238.528 327V318.6H244.408V319.86H239.848V322.26H243.448V323.52H239.848V327H238.528ZM245.188 327V321.24H246.388V322.02C246.52 321.864 246.664 321.708 246.832 321.576C247.12 321.348 247.552 321.12 248.128 321.12H248.428V322.38L248.272 322.356C248.176 322.344 248.08 322.32 247.948 322.32C247.12 322.32 246.388 323.04 246.388 324.06V327H245.188Z" fill="#9A9A9A"/>
<path d="M238 146H248V302C248 304.761 245.761 307 243 307V307C240.239 307 238 304.761 238 302V146Z" fill="#11A9A0"/>
<path d="M116.215 327V319.86H113.695V318.6H120.055V319.86H117.535V327H116.215ZM120.424 324.6V321.24H121.624V324.6C121.624 325.452 122.164 325.98 122.944 325.98C123.844 325.98 124.504 325.32 124.504 324.36V321.24H125.704V327H124.504V326.16C124.372 326.34 124.228 326.496 124.048 326.64C123.748 326.88 123.316 327.12 122.704 327.12C121.384 327.12 120.424 326.172 120.424 324.6Z" fill="#9A9A9A"/>
<path d="M115 88C115 85.2386 117.239 83 120 83V83C122.761 83 125 85.2386 125 88V197H115V88Z" fill="#E0F2EF"/>
<path d="M115 134H125V302C125 304.761 122.761 307 120 307V307C117.239 307 115 304.761 115 302V134Z" fill="#11A9A0"/>
<path d="M156 208H166V302C166 304.761 163.761 307 161 307V307C158.239 307 156 304.761 156 302V208Z" fill="#11A9A0"/>
<path d="M156 88C156 85.2386 158.239 83 161 83V83C163.761 83 166 85.2386 166 88V208H156V88Z" fill="#E0F2EF"/>
<path d="M154.643 327L151.883 318.6H153.263L155.303 324.9L157.283 318.6H158.603L160.583 324.9L162.623 318.6H164.003L161.243 327H159.923L157.943 320.7L155.963 327H154.643ZM168.863 325.2L169.583 326.04C169.427 326.244 169.223 326.424 168.983 326.58C168.563 326.856 167.975 327.12 167.123 327.12C165.443 327.12 164.123 325.8 164.123 324.12C164.123 322.44 165.443 321.12 167.063 321.12C168.695 321.12 169.883 322.308 169.883 323.94C169.883 324.12 169.859 324.264 169.847 324.372L169.823 324.54H165.383C165.515 325.32 166.211 325.98 167.183 325.98C167.699 325.98 168.119 325.788 168.407 325.596C168.575 325.488 168.731 325.356 168.863 325.2ZM165.383 323.52H168.623C168.443 322.74 167.915 322.2 167.063 322.2C166.151 322.2 165.623 322.74 165.383 323.52Z" fill="#9A9A9A"/>
<path d="M279 88C279 85.2386 281.239 83 284 83V83C286.761 83 289 85.2386 289 88V242H279V88Z" fill="#E0F2EF"/>
<path d="M277.821 325.86L278.721 324.96C278.853 325.14 279.021 325.296 279.225 325.44C279.573 325.68 280.101 325.92 280.821 325.92C281.913 325.92 282.501 325.332 282.501 324.66C282.501 322.8 278.061 323.94 278.061 320.82C278.061 319.56 279.153 318.48 280.941 318.48C281.805 318.48 282.465 318.744 282.909 319.02C283.173 319.176 283.401 319.356 283.581 319.56L282.681 320.46C282.549 320.316 282.405 320.184 282.237 320.076C281.949 319.884 281.505 319.68 280.941 319.68C279.921 319.68 279.381 320.208 279.381 320.82C279.381 322.68 283.821 321.54 283.821 324.66C283.821 325.98 282.681 327.12 280.821 327.12C279.801 327.12 279.045 326.82 278.553 326.496C278.265 326.316 278.025 326.1 277.821 325.86ZM288.505 327V326.16C288.385 326.34 288.229 326.496 288.049 326.64C287.725 326.88 287.269 327.12 286.645 327.12C285.493 327.12 284.725 326.34 284.725 325.44C284.725 324.48 285.385 323.82 286.405 323.64L288.505 323.28C288.505 322.668 288.025 322.2 287.305 322.2C286.837 322.2 286.489 322.404 286.213 322.596C286.057 322.704 285.925 322.836 285.805 322.98L285.025 322.2C285.181 321.996 285.373 321.816 285.601 321.66C285.985 321.384 286.537 321.12 287.305 321.12C288.745 321.12 289.705 322.08 289.705 323.34V327H288.505ZM288.505 324.42V324.24L286.825 324.54C286.213 324.648 285.925 324.948 285.925 325.32C285.925 325.74 286.273 326.1 286.885 326.1C287.785 326.1 288.505 325.38 288.505 324.42Z" fill="#9A9A9A"/>
<path d="M279 116H289V302C289 304.761 286.761 307 284 307V307C281.239 307 279 304.761 279 302V116Z" fill="#11A9A0"/>
<path d="M197 88C197 85.2386 199.239 83 202 83V83C204.761 83 207 85.2386 207 88V282H197V88Z" fill="#E0F2EF"/>
<path d="M197.946 327V319.86H195.426V318.6H201.786V319.86H199.266V327H197.946ZM202.695 327V318.6H203.895V322.08C204.015 321.9 204.159 321.744 204.339 321.6C204.639 321.36 205.083 321.12 205.695 321.12C207.015 321.12 207.975 322.068 207.975 323.64V327H206.775V323.64C206.775 322.788 206.235 322.26 205.455 322.26C204.555 322.26 203.895 322.92 203.895 323.88V327H202.695Z" fill="#9A9A9A"/>
<path d="M197 194H207V302C207 304.761 204.761 307 202 307V307C199.239 307 197 304.761 197 302V194Z" fill="#11A9A0"/>
<path d="M320 87C320 84.2386 322.239 82 325 82V82C327.761 82 330 84.2386 330 87V249H320V87Z" fill="#E0F2EF"/>
<path d="M318.458 325.86L319.358 324.96C319.49 325.14 319.658 325.296 319.862 325.44C320.21 325.68 320.738 325.92 321.458 325.92C322.55 325.92 323.138 325.332 323.138 324.66C323.138 322.8 318.698 323.94 318.698 320.82C318.698 319.56 319.79 318.48 321.578 318.48C322.442 318.48 323.102 318.744 323.546 319.02C323.81 319.176 324.038 319.356 324.218 319.56L323.318 320.46C323.186 320.316 323.042 320.184 322.874 320.076C322.586 319.884 322.142 319.68 321.578 319.68C320.558 319.68 320.018 320.208 320.018 320.82C320.018 322.68 324.458 321.54 324.458 324.66C324.458 325.98 323.318 327.12 321.458 327.12C320.438 327.12 319.682 326.82 319.19 326.496C318.902 326.316 318.662 326.1 318.458 325.86ZM325.781 324.6V321.24H326.981V324.6C326.981 325.452 327.521 325.98 328.301 325.98C329.201 325.98 329.861 325.32 329.861 324.36V321.24H331.061V327H329.861V326.16C329.729 326.34 329.585 326.496 329.405 326.64C329.105 326.88 328.673 327.12 328.061 327.12C326.741 327.12 325.781 326.172 325.781 324.6Z" fill="#9A9A9A"/>
<path d="M320 249H330V302C330 304.761 327.761 307 325 307V307C322.239 307 320 304.761 320 302V249Z" fill="#11A9A0"/>
<defs>
<filter id="filter0_d_13_342" x="0" y="0" width="355" height="357" filterUnits="userSpaceOnUse" color-interpolation-filters="sRGB">
<feFlood flood-opacity="0" result="BackgroundImageFix"/>
<feColorMatrix in="SourceAlpha" type="matrix" values="0 0 0 0 0 0 0 0 0 0 0 0 0 0 0 0 0 0 127 0" result="hardAlpha"/>
<feOffset dy="2"/>
<feGaussianBlur stdDeviation="5"/>
<feComposite in2="hardAlpha" operator="out"/>
<feColorMatrix type="matrix" values="0 0 0 0 0 0 0 0 0 0 0 0 0 0 0 0 0 0 0.04 0"/>
<feBlend mode="normal" in2="BackgroundImageFix" result="effect1_dropShadow_13_342"/>
<feBlend mode="normal" in="SourceGraphic" in2="effect1_dropShadow_13_342" result="shape"/>
</filter>
<linearGradient id="paint0_linear_13_342" x1="137" y1="8.71429" x2="171.415" y2="117.901" gradientUnits="userSpaceOnUse">
<stop stop-color="#00937D"/>
<stop offset="1" stop-color="#00937D" stop-opacity="0.25"/>
</linearGradient>
</defs>
</svg>
