<svg width="313" height="287" viewBox="0 0 313 287" fill="none" xmlns="http://www.w3.org/2000/svg">
<path d="M0 181H313" stroke="#F3F4F4" stroke-width="0.8"/>
<path d="M0 136H313" stroke="#F3F4F4" stroke-width="0.8"/>
<path d="M0 91H313" stroke="#F3F4F4" stroke-width="0.8"/>
<path d="M0 46H313" stroke="#F3F4F4" stroke-width="0.8"/>
<path d="M0 1H313" stroke="#F3F4F4" stroke-width="0.8"/>
<path d="M20 115H30V220C30 222.761 27.7614 225 25 225C22.2386 225 20 222.761 20 220V115Z" fill="#ECECEC"/>
<path d="M20 20C20 17.2386 22.2386 15 25 15C27.7614 15 30 17.2386 30 20V116H20V20Z" fill="#F5F5F5"/>
<path d="M17.1414 245V236.6H18.3414L21.5214 240.68L24.7014 236.6H25.9014V245H24.5814V238.82L21.5214 242.72L18.4614 238.82V245H17.1414ZM27.5777 242.12C27.5777 240.44 28.8977 239.12 30.5777 239.12C32.2577 239.12 33.5777 240.44 33.5777 242.12C33.5777 243.8 32.2577 245.12 30.5777 245.12C28.8977 245.12 27.5777 243.8 27.5777 242.12ZM30.5777 243.98C31.5977 243.98 32.3777 243.212 32.3777 242.12C32.3777 241.028 31.5977 240.26 30.5777 240.26C29.5577 240.26 28.7777 241.028 28.7777 242.12C28.7777 243.212 29.5577 243.98 30.5777 243.98Z" fill="#9A9A9A"/>
<path d="M23.6184 258.8C23.6184 256.7 22.5984 255.68 21.4584 255.68C20.3184 255.68 19.2984 256.7 19.2984 258.8C19.2984 260.9 20.3184 261.92 21.4584 261.92C22.5984 261.92 23.6184 260.9 23.6184 258.8ZM21.4584 263.12C19.5384 263.12 17.9784 261.548 17.9784 258.8C17.9784 256.052 19.5384 254.48 21.4584 254.48C23.3784 254.48 24.9384 256.052 24.9384 258.8C24.9384 261.548 23.3784 263.12 21.4584 263.12ZM26.7435 258.44L29.2035 254.6H30.6435L28.7235 257.54L28.8555 257.516C28.9395 257.504 29.0835 257.48 29.2635 257.48C30.8835 257.48 32.1435 258.74 32.1435 260.3C32.1435 261.86 30.8835 263.12 29.1435 263.12C27.4035 263.12 26.1435 261.86 26.1435 260.3C26.1435 259.82 26.2875 259.364 26.4435 259.016C26.5275 258.812 26.6355 258.62 26.7435 258.44ZM27.4635 260.3C27.4635 261.2 28.1835 261.92 29.1435 261.92C30.1035 261.92 30.8235 261.2 30.8235 260.3C30.8235 259.4 30.1035 258.68 29.1435 258.68C28.1835 258.68 27.4635 259.4 27.4635 260.3Z" fill="#9A9A9A"/>
<rect opacity="0.1" x="180" y="1" width="42" height="280" rx="21" fill="#3FCEE5"/>
<circle cx="201" cy="280" r="5.5" fill="#3FCEE5" stroke="white" stroke-width="3"/>
<path d="M196 115H206V220C206 222.761 203.761 225 201 225C198.239 225 196 222.761 196 220V115Z" fill="#11A9A0"/>
<path d="M196 51C196 48.2386 198.239 46 201 46C203.761 46 206 48.2386 206 51V115H196V51Z" fill="#3FCEE6"/>
<path d="M196.528 245V236.6H202.408V237.86H197.848V240.26H201.448V241.52H197.848V245H196.528ZM203.188 245V239.24H204.388V240.02C204.52 239.864 204.664 239.708 204.832 239.576C205.12 239.348 205.552 239.12 206.128 239.12H206.428V240.38L206.272 240.356C206.176 240.344 206.08 240.32 205.948 240.32C205.12 240.32 204.388 241.04 204.388 242.06V245H203.188Z" fill="#404040"/>
<path d="M196.557 263V256.58H195.057V255.74C196.137 255.608 196.569 255.2 196.857 254.6H197.877V263H196.557ZM205.378 258.8C205.378 256.7 204.358 255.68 203.218 255.68C202.078 255.68 201.058 256.7 201.058 258.8C201.058 260.9 202.078 261.92 203.218 261.92C204.358 261.92 205.378 260.9 205.378 258.8ZM203.218 263.12C201.298 263.12 199.738 261.548 199.738 258.8C199.738 256.052 201.298 254.48 203.218 254.48C205.138 254.48 206.698 256.052 206.698 258.8C206.698 261.548 205.138 263.12 203.218 263.12Z" fill="#404040"/>
<path d="M64 115H74V220C74 222.761 71.7614 225 69 225C66.2386 225 64 222.761 64 220V115Z" fill="#ECECEC"/>
<path d="M64 63C64 60.2386 66.2386 58 69 58C71.7614 58 74 60.2386 74 63V115H64V63Z" fill="#F5F5F5"/>
<path d="M65.2151 245V237.86H62.6951V236.6H69.0551V237.86H66.5351V245H65.2151ZM69.424 242.6V239.24H70.624V242.6C70.624 243.452 71.164 243.98 71.944 243.98C72.844 243.98 73.504 243.32 73.504 242.36V239.24H74.704V245H73.504V244.16C73.372 244.34 73.228 244.496 73.048 244.64C72.748 244.88 72.316 245.12 71.704 245.12C70.384 245.12 69.424 244.172 69.424 242.6Z" fill="#9A9A9A"/>
<path d="M68.2219 258.8C68.2219 256.7 67.2019 255.68 66.0619 255.68C64.9219 255.68 63.9019 256.7 63.9019 258.8C63.9019 260.9 64.9219 261.92 66.0619 261.92C67.2019 261.92 68.2219 260.9 68.2219 258.8ZM66.0619 263.12C64.1419 263.12 62.5819 261.548 62.5819 258.8C62.5819 256.052 64.1419 254.48 66.0619 254.48C67.9819 254.48 69.5419 256.052 69.5419 258.8C69.5419 261.548 67.9819 263.12 66.0619 263.12ZM70.8038 263L74.2838 255.86H70.2038V254.6H75.7238V255.8L72.2438 263H70.8038Z" fill="#9A9A9A"/>
<path d="M108 126H118V220C118 222.761 115.761 225 113 225C110.239 225 108 222.761 108 220V126Z" fill="#ECECEC"/>
<path d="M108 39C108 36.2386 110.239 34 113 34C115.761 34 118 36.2386 118 39V126H108V39Z" fill="#F5F5F5"/>
<path d="M103.01 245L100.25 236.6H101.63L103.67 242.9L105.65 236.6H106.97L108.95 242.9L110.99 236.6H112.37L109.61 245H108.29L106.31 238.7L104.33 245H103.01ZM117.23 243.2L117.95 244.04C117.794 244.244 117.59 244.424 117.35 244.58C116.93 244.856 116.342 245.12 115.49 245.12C113.81 245.12 112.49 243.8 112.49 242.12C112.49 240.44 113.81 239.12 115.43 239.12C117.062 239.12 118.25 240.308 118.25 241.94C118.25 242.12 118.226 242.264 118.214 242.372L118.19 242.54H113.75C113.882 243.32 114.578 243.98 115.55 243.98C116.066 243.98 116.486 243.788 116.774 243.596C116.942 243.488 117.098 243.356 117.23 243.2ZM113.75 241.52H116.99C116.81 240.74 116.282 240.2 115.43 240.2C114.518 240.2 113.99 240.74 113.75 241.52ZM123.885 245V244.16C123.765 244.34 123.609 244.496 123.417 244.64C123.093 244.88 122.589 245.12 121.905 245.12C120.465 245.12 119.205 243.86 119.205 242.12C119.205 240.38 120.465 239.12 121.905 239.12C122.589 239.12 123.093 239.36 123.417 239.6C123.609 239.744 123.765 239.9 123.885 240.08V236.6H125.085V245H123.885ZM122.145 243.98C123.105 243.98 123.885 243.212 123.885 242.12C123.885 241.028 123.105 240.26 122.145 240.26C121.185 240.26 120.405 241.028 120.405 242.12C120.405 243.212 121.185 243.98 122.145 243.98Z" fill="#9A9A9A"/>
<path d="M111.56 258.8C111.56 256.7 110.54 255.68 109.4 255.68C108.26 255.68 107.24 256.7 107.24 258.8C107.24 260.9 108.26 261.92 109.4 261.92C110.54 261.92 111.56 260.9 111.56 258.8ZM109.4 263.12C107.48 263.12 105.92 261.548 105.92 258.8C105.92 256.052 107.48 254.48 109.4 254.48C111.32 254.48 112.88 256.052 112.88 258.8C112.88 261.548 111.32 263.12 109.4 263.12ZM115.465 260.54C115.465 261.32 116.053 261.92 117.145 261.92C118.237 261.92 118.825 261.32 118.825 260.54C118.825 259.76 118.237 259.16 117.145 259.16C116.053 259.16 115.465 259.76 115.465 260.54ZM115.825 256.82C115.825 257.492 116.293 257.96 117.145 257.96C117.997 257.96 118.465 257.492 118.465 256.82C118.465 256.148 117.997 255.68 117.145 255.68C116.293 255.68 115.825 256.148 115.825 256.82ZM114.145 260.6C114.145 259.82 114.493 259.304 114.865 258.968C115.069 258.776 115.309 258.62 115.585 258.5C115.381 258.392 115.201 258.26 115.045 258.092C114.769 257.804 114.505 257.372 114.505 256.7C114.505 255.5 115.525 254.48 117.145 254.48C118.765 254.48 119.785 255.5 119.785 256.7C119.785 257.372 119.521 257.804 119.245 258.092C119.089 258.26 118.909 258.392 118.705 258.5C118.981 258.62 119.221 258.776 119.425 258.968C119.797 259.304 120.145 259.82 120.145 260.6C120.145 261.992 119.005 263.12 117.145 263.12C115.285 263.12 114.145 261.992 114.145 260.6Z" fill="#9A9A9A"/>
<path d="M240 105C240 102.239 242.239 100 245 100C247.761 100 250 102.239 250 105V160H240V105Z" fill="#F5F5F5"/>
<path d="M238.821 243.86L239.721 242.96C239.853 243.14 240.021 243.296 240.225 243.44C240.573 243.68 241.101 243.92 241.821 243.92C242.913 243.92 243.501 243.332 243.501 242.66C243.501 240.8 239.061 241.94 239.061 238.82C239.061 237.56 240.153 236.48 241.941 236.48C242.805 236.48 243.465 236.744 243.909 237.02C244.173 237.176 244.401 237.356 244.581 237.56L243.681 238.46C243.549 238.316 243.405 238.184 243.237 238.076C242.949 237.884 242.505 237.68 241.941 237.68C240.921 237.68 240.381 238.208 240.381 238.82C240.381 240.68 244.821 239.54 244.821 242.66C244.821 243.98 243.681 245.12 241.821 245.12C240.801 245.12 240.045 244.82 239.553 244.496C239.265 244.316 239.025 244.1 238.821 243.86ZM249.505 245V244.16C249.385 244.34 249.229 244.496 249.049 244.64C248.725 244.88 248.269 245.12 247.645 245.12C246.493 245.12 245.725 244.34 245.725 243.44C245.725 242.48 246.385 241.82 247.405 241.64L249.505 241.28C249.505 240.668 249.025 240.2 248.305 240.2C247.837 240.2 247.489 240.404 247.213 240.596C247.057 240.704 246.925 240.836 246.805 240.98L246.025 240.2C246.181 239.996 246.373 239.816 246.601 239.66C246.985 239.384 247.537 239.12 248.305 239.12C249.745 239.12 250.705 240.08 250.705 241.34V245H249.505ZM249.505 242.42V242.24L247.825 242.54C247.213 242.648 246.925 242.948 246.925 243.32C246.925 243.74 247.273 244.1 247.885 244.1C248.785 244.1 249.505 243.38 249.505 242.42Z" fill="#9A9A9A"/>
<path d="M242.479 263V256.58H240.979V255.74C242.059 255.608 242.491 255.2 242.779 254.6H243.799V263H242.479ZM246.92 263V256.58H245.42V255.74C246.5 255.608 246.932 255.2 247.22 254.6H248.24V263H246.92Z" fill="#9A9A9A"/>
<path d="M240 160H250V220C250 222.761 247.761 225 245 225C242.239 225 240 222.761 240 220V160Z" fill="#ECECEC"/>
<path d="M152 200H162V220C162 222.761 159.761 225 157 225C154.239 225 152 222.761 152 220V200Z" fill="#ECECEC"/>
<path d="M152 173C152 170.239 154.239 168 157 168C159.761 168 162 170.239 162 173V200H152V173Z" fill="#F5F5F5"/>
<path d="M152.946 245V237.86H150.426V236.6H156.786V237.86H154.266V245H152.946ZM157.695 245V236.6H158.895V240.08C159.015 239.9 159.159 239.744 159.339 239.6C159.639 239.36 160.083 239.12 160.695 239.12C162.015 239.12 162.975 240.068 162.975 241.64V245H161.775V241.64C161.775 240.788 161.235 240.26 160.455 240.26C159.555 240.26 158.895 240.92 158.895 241.88V245H157.695Z" fill="#9A9A9A"/>
<path d="M155.618 258.8C155.618 256.7 154.598 255.68 153.458 255.68C152.318 255.68 151.298 256.7 151.298 258.8C151.298 260.9 152.318 261.92 153.458 261.92C154.598 261.92 155.618 260.9 155.618 258.8ZM153.458 263.12C151.538 263.12 149.978 261.548 149.978 258.8C149.978 256.052 151.538 254.48 153.458 254.48C155.378 254.48 156.938 256.052 156.938 258.8C156.938 261.548 155.378 263.12 153.458 263.12ZM159.644 263L161.564 260.06L161.432 260.096C161.336 260.108 161.204 260.12 161.024 260.12C159.404 260.12 158.144 258.86 158.144 257.3C158.144 255.74 159.404 254.48 161.144 254.48C162.884 254.48 164.144 255.74 164.144 257.3C164.144 257.78 163.988 258.248 163.844 258.596C163.76 258.8 163.652 258.992 163.544 259.16L161.084 263H159.644ZM159.464 257.3C159.464 258.2 160.184 258.92 161.144 258.92C162.104 258.92 162.824 258.2 162.824 257.3C162.824 256.4 162.104 255.68 161.144 255.68C160.184 255.68 159.464 256.4 159.464 257.3Z" fill="#9A9A9A"/>
<path d="M284 16C284 13.2386 286.239 11 289 11C291.761 11 294 13.2386 294 16V126H284V16Z" fill="#F5F5F5"/>
<path d="M282.458 243.86L283.358 242.96C283.49 243.14 283.658 243.296 283.862 243.44C284.21 243.68 284.738 243.92 285.458 243.92C286.55 243.92 287.138 243.332 287.138 242.66C287.138 240.8 282.698 241.94 282.698 238.82C282.698 237.56 283.79 236.48 285.578 236.48C286.442 236.48 287.102 236.744 287.546 237.02C287.81 237.176 288.038 237.356 288.218 237.56L287.318 238.46C287.186 238.316 287.042 238.184 286.874 238.076C286.586 237.884 286.142 237.68 285.578 237.68C284.558 237.68 284.018 238.208 284.018 238.82C284.018 240.68 288.458 239.54 288.458 242.66C288.458 243.98 287.318 245.12 285.458 245.12C284.438 245.12 283.682 244.82 283.19 244.496C282.902 244.316 282.662 244.1 282.458 243.86ZM289.781 242.6V239.24H290.981V242.6C290.981 243.452 291.521 243.98 292.301 243.98C293.201 243.98 293.861 243.32 293.861 242.36V239.24H295.061V245H293.861V244.16C293.729 244.34 293.585 244.496 293.405 244.64C293.105 244.88 292.673 245.12 292.061 245.12C290.741 245.12 289.781 244.172 289.781 242.6Z" fill="#9A9A9A"/>
<path d="M285.342 263V256.58H283.842V255.74C284.922 255.608 285.354 255.2 285.642 254.6H286.662V263H285.342ZM289.843 261.74H293.923V263H288.283C288.283 259.22 292.603 259.112 292.603 257.06C292.603 256.28 292.063 255.74 291.103 255.74C290.467 255.74 290.071 256.028 289.819 256.316C289.675 256.484 289.567 256.676 289.483 256.88L288.403 256.4C288.511 256.04 288.691 255.716 288.919 255.44C289.315 254.96 289.987 254.48 291.103 254.48C292.783 254.48 293.923 255.62 293.923 257.06C293.923 259.52 290.803 259.88 289.843 261.74Z" fill="#9A9A9A"/>
<path d="M284 85H294V220C294 222.761 291.761 225 289 225C286.239 225 284 222.761 284 220V85Z" fill="#ECECEC"/>
<path d="M0 226H313" stroke="#F3F4F4" stroke-width="0.8"/>
</svg>
