<svg width="355" height="357" viewBox="0 0 355 357" fill="none" xmlns="http://www.w3.org/2000/svg">
<g filter="url(#filter0_d_13_680)">
<rect x="10" y="8" width="335" height="337" rx="8" fill="white"/>
<rect x="10.5" y="8.5" width="334" height="336" rx="7.5" stroke="#E0F2EF"/>
</g>
<path d="M26.14 49V38.29H22.36V36.4H31.9V38.29H28.12V49H26.14ZM33.2641 49V40.36H35.0641V49H33.2641ZM33.0841 37.66C33.0841 37.03 33.6061 36.58 34.1641 36.58C34.7221 36.58 35.2441 37.03 35.2441 37.66C35.2441 38.29 34.7221 38.74 34.1641 38.74C33.6061 38.74 33.0841 38.29 33.0841 37.66ZM37.6741 49V40.36H39.4741V41.62C39.6181 41.35 39.8161 41.116 40.0501 40.9C40.4641 40.54 41.0761 40.18 41.9941 40.18C42.9301 40.18 43.6141 40.54 44.0461 40.9C44.2981 41.116 44.5141 41.35 44.6941 41.62C44.8561 41.35 45.0901 41.116 45.3601 40.9C45.8461 40.54 46.5841 40.18 47.6641 40.18C49.3741 40.18 50.8141 41.62 50.8141 43.87V49H49.0141V43.87C49.0141 42.592 48.2221 41.89 47.2141 41.89C46.0441 41.89 45.1441 42.79 45.1441 44.23V49H43.3441V43.87C43.3441 42.592 42.5521 41.89 41.5441 41.89C40.3741 41.89 39.4741 42.79 39.4741 44.23V49H37.6741ZM59.9062 46.3L60.9862 47.56C60.7522 47.866 60.4462 48.136 60.0862 48.37C59.4562 48.784 58.5742 49.18 57.2962 49.18C54.7762 49.18 52.7962 47.2 52.7962 44.68C52.7962 42.16 54.7762 40.18 57.2062 40.18C59.6542 40.18 61.4362 41.962 61.4362 44.41C61.4362 44.68 61.4002 44.896 61.3822 45.058L61.3462 45.31H54.6862C54.8842 46.48 55.9282 47.47 57.3862 47.47C58.1602 47.47 58.7902 47.182 59.2222 46.894C59.4742 46.732 59.7082 46.534 59.9062 46.3ZM54.6862 43.78H59.5462C59.2762 42.61 58.4842 41.8 57.2062 41.8C55.8382 41.8 55.0462 42.61 54.6862 43.78ZM66.3777 47.56L67.5477 46.39C67.7277 46.624 67.9257 46.822 68.1597 46.984C68.5737 47.272 69.0957 47.56 69.7977 47.56C70.8057 47.56 71.3277 47.038 71.3277 46.48C71.3277 45.04 66.7377 45.778 66.7377 42.7C66.7377 41.35 67.9257 40.18 69.8877 40.18C70.9137 40.18 71.6877 40.486 72.1917 40.774C72.4977 40.936 72.7497 41.134 72.9477 41.35L71.7777 42.52C71.6337 42.394 71.4717 42.268 71.2737 42.16C70.9317 41.962 70.4637 41.8 69.8877 41.8C68.9697 41.8 68.5377 42.25 68.5377 42.7C68.5377 44.14 73.1277 43.42 73.1277 46.48C73.1277 47.92 71.8857 49.18 69.7977 49.18C68.6457 49.18 67.8177 48.784 67.2417 48.37C66.8997 48.136 66.6117 47.866 66.3777 47.56ZM75.01 52.78V40.36H76.81V41.62C76.99 41.35 77.224 41.116 77.512 40.9C77.998 40.54 78.718 40.18 79.78 40.18C81.94 40.18 83.83 42.07 83.83 44.68C83.83 47.29 81.94 49.18 79.78 49.18C78.718 49.18 77.998 48.82 77.512 48.46C77.224 48.244 76.99 48.01 76.81 47.74V52.78H75.01ZM79.42 47.47C80.86 47.47 82.03 46.318 82.03 44.68C82.03 43.042 80.86 41.89 79.42 41.89C77.98 41.89 76.81 43.042 76.81 44.68C76.81 46.318 77.98 47.47 79.42 47.47ZM92.373 46.3L93.453 47.56C93.219 47.866 92.913 48.136 92.553 48.37C91.923 48.784 91.041 49.18 89.763 49.18C87.243 49.18 85.263 47.2 85.263 44.68C85.263 42.16 87.243 40.18 89.673 40.18C92.121 40.18 93.903 41.962 93.903 44.41C93.903 44.68 93.867 44.896 93.849 45.058L93.813 45.31H87.153C87.351 46.48 88.395 47.47 89.853 47.47C90.627 47.47 91.257 47.182 91.689 46.894C91.941 46.732 92.175 46.534 92.373 46.3ZM87.153 43.78H92.013C91.743 42.61 90.951 41.8 89.673 41.8C88.305 41.8 87.513 42.61 87.153 43.78ZM95.8752 49V40.36H97.6752V41.62C97.8552 41.35 98.0712 41.116 98.3412 40.9C98.7912 40.54 99.4572 40.18 100.375 40.18C102.355 40.18 103.795 41.602 103.795 43.96V49H101.995V43.96C101.995 42.682 101.185 41.89 100.015 41.89C98.6652 41.89 97.6752 42.88 97.6752 44.32V49H95.8752ZM107.041 46.3V42.07H105.421V40.36H106.411C106.969 40.36 107.221 40.09 107.221 39.37V37.48H108.841V40.36H110.821V42.07H108.841V46.12C108.841 47.02 109.255 47.47 110.101 47.47C110.371 47.47 110.605 47.416 110.803 47.344L111.091 47.2V48.91L110.713 49.054C110.479 49.126 110.155 49.18 109.741 49.18C108.013 49.18 107.041 48.19 107.041 46.3ZM116.572 48.01C116.572 47.38 117.112 46.84 117.742 46.84C118.372 46.84 118.912 47.38 118.912 48.01C118.912 48.64 118.372 49.18 117.742 49.18C117.112 49.18 116.572 48.64 116.572 48.01ZM116.572 41.35C116.572 40.72 117.112 40.18 117.742 40.18C118.372 40.18 118.912 40.72 118.912 41.35C118.912 41.98 118.372 42.52 117.742 42.52C117.112 42.52 116.572 41.98 116.572 41.35Z" fill="#404040"/>
<rect x="202" y="23" width="130" height="40" rx="20" fill="white"/>
<rect x="202.6" y="23.6" width="128.8" height="38.8" rx="19.4" stroke="url(#paint0_linear_13_680)" stroke-opacity="0.5" stroke-width="1.2"/>
<path d="M312.92 40L306.4 46.52C305.63 47.29 304.37 47.29 303.6 46.52L297.08 40" stroke="#292D32" stroke-width="1.5" stroke-miterlimit="10" stroke-linecap="round" stroke-linejoin="round"/>
<path d="M224 49L220.32 37.8H222.16L224.88 46.2L227.52 37.8H229.28L231.92 46.2L234.64 37.8H236.48L232.8 49H231.04L228.4 40.6L225.76 49H224ZM242.96 46.6L243.92 47.72C243.712 47.992 243.44 48.232 243.12 48.44C242.56 48.808 241.776 49.16 240.64 49.16C238.4 49.16 236.64 47.4 236.64 45.16C236.64 42.92 238.4 41.16 240.56 41.16C242.736 41.16 244.32 42.744 244.32 44.92C244.32 45.16 244.288 45.352 244.272 45.496L244.24 45.72H238.32C238.496 46.76 239.424 47.64 240.72 47.64C241.408 47.64 241.968 47.384 242.352 47.128C242.576 46.984 242.784 46.808 242.96 46.6ZM238.32 44.36H242.64C242.4 43.32 241.696 42.6 240.56 42.6C239.344 42.6 238.64 43.32 238.32 44.36ZM251.913 46.6L252.873 47.72C252.665 47.992 252.393 48.232 252.073 48.44C251.513 48.808 250.729 49.16 249.593 49.16C247.353 49.16 245.593 47.4 245.593 45.16C245.593 42.92 247.353 41.16 249.513 41.16C251.689 41.16 253.273 42.744 253.273 44.92C253.273 45.16 253.241 45.352 253.225 45.496L253.193 45.72H247.273C247.449 46.76 248.377 47.64 249.673 47.64C250.361 47.64 250.921 47.384 251.305 47.128C251.529 46.984 251.737 46.808 251.913 46.6ZM247.273 44.36H251.593C251.353 43.32 250.649 42.6 249.513 42.6C248.297 42.6 247.593 43.32 247.273 44.36ZM255.106 49V37.8H256.706V44.84L259.986 41.32H261.986L259.026 44.44L262.226 49H260.386L257.986 45.56L256.706 46.92V49H255.106ZM263.419 49V37.8H265.019V49H263.419ZM266.859 52.12V50.6C266.939 50.648 267.019 50.68 267.131 50.728C267.307 50.792 267.515 50.84 267.819 50.84C268.459 50.84 268.923 50.44 269.179 49.8L269.499 49L266.379 41.32H268.139L270.299 47L272.459 41.32H274.219L270.859 49.88C270.219 51.496 269.339 52.36 268.059 52.36C267.691 52.36 267.403 52.312 267.195 52.248L266.859 52.12Z" fill="#797979"/>
<path d="M51 262H345" stroke="#F3F4F4" stroke-width="0.8"/>
<path d="M51 217H345" stroke="#F3F4F4" stroke-width="0.8"/>
<path d="M51 172H345" stroke="#F3F4F4" stroke-width="0.8"/>
<path d="M51 127H345" stroke="#F3F4F4" stroke-width="0.8"/>
<path d="M51 82H345" stroke="#F3F4F4" stroke-width="0.8"/>
<path d="M34.1574 308.8C34.1574 306.7 33.1374 305.68 31.9974 305.68C30.8574 305.68 29.8374 306.7 29.8374 308.8C29.8374 310.9 30.8574 311.92 31.9974 311.92C33.1374 311.92 34.1574 310.9 34.1574 308.8ZM31.9974 313.12C30.0774 313.12 28.5174 311.548 28.5174 308.8C28.5174 306.052 30.0774 304.48 31.9974 304.48C33.9174 304.48 35.4774 306.052 35.4774 308.8C35.4774 311.548 33.9174 313.12 31.9974 313.12Z" fill="#9A9A9A"/>
<path d="M22.336 267V260.58H20.836V259.74C21.916 259.608 22.348 259.2 22.636 258.6H23.656V267H22.336ZM31.1574 262.8C31.1574 260.7 30.1374 259.68 28.9974 259.68C27.8574 259.68 26.8374 260.7 26.8374 262.8C26.8374 264.9 27.8574 265.92 28.9974 265.92C30.1374 265.92 31.1574 264.9 31.1574 262.8ZM28.9974 267.12C27.0774 267.12 25.5174 265.548 25.5174 262.8C25.5174 260.052 27.0774 258.48 28.9974 258.48C30.9174 258.48 32.4774 260.052 32.4774 262.8C32.4774 265.548 30.9174 267.12 28.9974 267.12ZM33.9826 267V261.24H35.1826V262.08C35.2786 261.9 35.4106 261.744 35.5666 261.6C35.8426 261.36 36.2506 261.12 36.8626 261.12C37.4866 261.12 37.9426 261.36 38.2306 261.6C38.3986 261.744 38.5426 261.9 38.6626 262.08C38.7706 261.9 38.9266 261.744 39.1066 261.6C39.4306 261.36 39.9226 261.12 40.6426 261.12C41.7826 261.12 42.7426 262.08 42.7426 263.58V267H41.5426V263.58C41.5426 262.728 41.0146 262.26 40.3426 262.26C39.5626 262.26 38.9626 262.86 38.9626 263.82V267H37.7626V263.58C37.7626 262.728 37.2346 262.26 36.5626 262.26C35.7826 262.26 35.1826 262.86 35.1826 263.82V267H33.9826Z" fill="#9A9A9A"/>
<path d="M21.2593 219.74H25.3393V221H19.6993C19.6993 217.22 24.0193 217.112 24.0193 215.06C24.0193 214.28 23.4793 213.74 22.5193 213.74C21.8833 213.74 21.4873 214.028 21.2353 214.316C21.0913 214.484 20.9833 214.676 20.8993 214.88L19.8193 214.4C19.9273 214.04 20.1073 213.716 20.3353 213.44C20.7313 212.96 21.4033 212.48 22.5193 212.48C24.1993 212.48 25.3393 213.62 25.3393 215.06C25.3393 217.52 22.2193 217.88 21.2593 219.74ZM32.2941 216.8C32.2941 214.7 31.2741 213.68 30.1341 213.68C28.9941 213.68 27.9741 214.7 27.9741 216.8C27.9741 218.9 28.9941 219.92 30.1341 219.92C31.2741 219.92 32.2941 218.9 32.2941 216.8ZM30.1341 221.12C28.2141 221.12 26.6541 219.548 26.6541 216.8C26.6541 214.052 28.2141 212.48 30.1341 212.48C32.0541 212.48 33.6141 214.052 33.6141 216.8C33.6141 219.548 32.0541 221.12 30.1341 221.12ZM35.1193 221V215.24H36.3193V216.08C36.4153 215.9 36.5473 215.744 36.7033 215.6C36.9793 215.36 37.3873 215.12 37.9993 215.12C38.6233 215.12 39.0793 215.36 39.3673 215.6C39.5353 215.744 39.6793 215.9 39.7993 216.08C39.9073 215.9 40.0633 215.744 40.2433 215.6C40.5673 215.36 41.0593 215.12 41.7793 215.12C42.9193 215.12 43.8793 216.08 43.8793 217.58V221H42.6793V217.58C42.6793 216.728 42.1513 216.26 41.4793 216.26C40.6993 216.26 40.0993 216.86 40.0993 217.82V221H38.8993V217.58C38.8993 216.728 38.3713 216.26 37.6993 216.26C36.9193 216.26 36.3193 216.86 36.3193 217.82V221H35.1193Z" fill="#9A9A9A"/>
<path d="M19.4841 173.86L20.3841 172.96C20.5161 173.14 20.6841 173.296 20.8881 173.44C21.2241 173.68 21.7161 173.92 22.4241 173.92C23.5161 173.92 24.1041 173.32 24.1041 172.54C24.1041 171.82 23.5161 171.22 22.4241 171.22H21.5241V169.96H22.4241C23.3361 169.96 23.8041 169.492 23.8041 168.82C23.8041 168.148 23.3361 167.68 22.4241 167.68C21.8481 167.68 21.4161 167.896 21.0921 168.1C20.9121 168.232 20.7561 168.364 20.6241 168.52L19.7241 167.62C19.9281 167.416 20.1561 167.224 20.4201 167.056C20.8881 166.768 21.5481 166.48 22.4241 166.48C24.1041 166.48 25.1241 167.5 25.1241 168.7C25.1241 169.408 24.8121 169.864 24.4881 170.152C24.3081 170.32 24.0921 170.452 23.8641 170.56C24.1521 170.668 24.4161 170.812 24.6441 170.992C25.0281 171.316 25.4241 171.82 25.4241 172.6C25.4241 173.992 24.2841 175.12 22.4241 175.12C21.4161 175.12 20.7081 174.82 20.2161 174.496C19.9281 174.316 19.6881 174.1 19.4841 173.86ZM32.3293 170.8C32.3293 168.7 31.3093 167.68 30.1693 167.68C29.0293 167.68 28.0093 168.7 28.0093 170.8C28.0093 172.9 29.0293 173.92 30.1693 173.92C31.3093 173.92 32.3293 172.9 32.3293 170.8ZM30.1693 175.12C28.2493 175.12 26.6893 173.548 26.6893 170.8C26.6893 168.052 28.2493 166.48 30.1693 166.48C32.0893 166.48 33.6493 168.052 33.6493 170.8C33.6493 173.548 32.0893 175.12 30.1693 175.12ZM35.1545 175V169.24H36.3545V170.08C36.4505 169.9 36.5825 169.744 36.7385 169.6C37.0145 169.36 37.4225 169.12 38.0345 169.12C38.6585 169.12 39.1145 169.36 39.4025 169.6C39.5705 169.744 39.7145 169.9 39.8345 170.08C39.9425 169.9 40.0985 169.744 40.2785 169.6C40.6025 169.36 41.0945 169.12 41.8145 169.12C42.9545 169.12 43.9145 170.08 43.9145 171.58V175H42.7145V171.58C42.7145 170.728 42.1865 170.26 41.5145 170.26C40.7345 170.26 40.1345 170.86 40.1345 171.82V175H38.9345V171.58C38.9345 170.728 38.4065 170.26 37.7345 170.26C36.9545 170.26 36.3545 170.86 36.3545 171.82V175H35.1545Z" fill="#9A9A9A"/>
<path d="M19.4577 127.32V125.88L23.2977 120.6H24.8577V126.12H25.9377V127.32H24.8577V129H23.5377V127.32H19.4577ZM20.7177 126.12H23.5377V122.22L20.7177 126.12ZM32.4758 124.8C32.4758 122.7 31.4558 121.68 30.3158 121.68C29.1758 121.68 28.1558 122.7 28.1558 124.8C28.1558 126.9 29.1758 127.92 30.3158 127.92C31.4558 127.92 32.4758 126.9 32.4758 124.8ZM30.3158 129.12C28.3958 129.12 26.8358 127.548 26.8358 124.8C26.8358 122.052 28.3958 120.48 30.3158 120.48C32.2358 120.48 33.7958 122.052 33.7958 124.8C33.7958 127.548 32.2358 129.12 30.3158 129.12ZM35.3009 129V123.24H36.5009V124.08C36.5969 123.9 36.7289 123.744 36.8849 123.6C37.1609 123.36 37.5689 123.12 38.1809 123.12C38.8049 123.12 39.2609 123.36 39.5489 123.6C39.7169 123.744 39.8609 123.9 39.9809 124.08C40.0889 123.9 40.2449 123.744 40.4249 123.6C40.7489 123.36 41.2409 123.12 41.9609 123.12C43.1009 123.12 44.0609 124.08 44.0609 125.58V129H42.8609V125.58C42.8609 124.728 42.3329 124.26 41.6609 124.26C40.8809 124.26 40.2809 124.86 40.2809 125.82V129H39.0809V125.58C39.0809 124.728 38.5529 124.26 37.8809 124.26C37.1009 124.26 36.5009 124.86 36.5009 125.82V129H35.3009Z" fill="#9A9A9A"/>
<path d="M19.5777 84.86L20.4777 83.96C20.6097 84.14 20.7777 84.296 20.9817 84.44C21.3177 84.68 21.8097 84.92 22.5177 84.92C23.6097 84.92 24.2577 84.26 24.2577 83.3C24.2577 82.34 23.6097 81.68 22.5177 81.68C22.0017 81.68 21.6297 81.896 21.3537 82.1C21.1977 82.232 21.0657 82.364 20.9577 82.52L19.9977 82.4L20.2977 77.6H25.0377V78.86H21.4377L21.3177 80.9C21.4257 80.828 21.5577 80.756 21.7017 80.696C21.9537 80.588 22.2897 80.48 22.7577 80.48C24.3897 80.48 25.5777 81.668 25.5777 83.3C25.5777 84.932 24.3777 86.12 22.5177 86.12C21.5097 86.12 20.8017 85.82 20.3097 85.496C20.0217 85.316 19.7817 85.1 19.5777 84.86ZM32.4758 81.8C32.4758 79.7 31.4558 78.68 30.3158 78.68C29.1758 78.68 28.1558 79.7 28.1558 81.8C28.1558 83.9 29.1758 84.92 30.3158 84.92C31.4558 84.92 32.4758 83.9 32.4758 81.8ZM30.3158 86.12C28.3958 86.12 26.8358 84.548 26.8358 81.8C26.8358 79.052 28.3958 77.48 30.3158 77.48C32.2358 77.48 33.7958 79.052 33.7958 81.8C33.7958 84.548 32.2358 86.12 30.3158 86.12ZM35.3009 86V80.24H36.5009V81.08C36.5969 80.9 36.7289 80.744 36.8849 80.6C37.1609 80.36 37.5689 80.12 38.1809 80.12C38.8049 80.12 39.2609 80.36 39.5489 80.6C39.7169 80.744 39.8609 80.9 39.9809 81.08C40.0889 80.9 40.2449 80.744 40.4249 80.6C40.7489 80.36 41.2409 80.12 41.9609 80.12C43.1009 80.12 44.0609 81.08 44.0609 82.58V86H42.8609V82.58C42.8609 81.728 42.3329 81.26 41.6609 81.26C40.8809 81.26 40.2809 81.86 40.2809 82.82V86H39.0809V82.58C39.0809 81.728 38.5529 81.26 37.8809 81.26C37.1009 81.26 36.5009 81.86 36.5009 82.82V86H35.3009Z" fill="#9A9A9A"/>
<path d="M51 307H345" stroke="#F3F4F4" stroke-width="0.8"/>
<line x1="51.4" y1="82" x2="51.4" y2="307" stroke="#F3F4F4" stroke-width="0.8"/>
<path d="M64 88C64 85.2386 66.2386 83 69 83V83C71.7614 83 74 85.2386 74 88V198H64V88Z" fill="#E0F2EF"/>
<path d="M60.1414 327V318.6H61.3414L64.5214 322.68L67.7014 318.6H68.9014V327H67.5814V320.82L64.5214 324.72L61.4614 320.82V327H60.1414ZM70.5777 324.12C70.5777 322.44 71.8977 321.12 73.5777 321.12C75.2577 321.12 76.5777 322.44 76.5777 324.12C76.5777 325.8 75.2577 327.12 73.5777 327.12C71.8977 327.12 70.5777 325.8 70.5777 324.12ZM73.5777 325.98C74.5977 325.98 75.3777 325.212 75.3777 324.12C75.3777 323.028 74.5977 322.26 73.5777 322.26C72.5577 322.26 71.7777 323.028 71.7777 324.12C71.7777 325.212 72.5577 325.98 73.5777 325.98Z" fill="#9A9A9A"/>
<path d="M63.7246 162.293L73.7246 162.262L74.1535 301.985C74.162 304.746 71.9303 306.992 69.1689 307V307C66.4075 307.009 64.162 304.777 64.1536 302.015L63.7246 162.293Z" fill="#11A9A0"/>
<path d="M231 88C231 85.2386 233.239 83 236 83V83C238.761 83 241 85.2386 241 88V197H231V88Z" fill="#E0F2EF"/>
<path d="M231.528 327V318.6H237.408V319.86H232.848V322.26H236.448V323.52H232.848V327H231.528ZM238.188 327V321.24H239.388V322.02C239.52 321.864 239.664 321.708 239.832 321.576C240.12 321.348 240.552 321.12 241.128 321.12H241.428V322.38L241.272 322.356C241.176 322.344 241.08 322.32 240.948 322.32C240.12 322.32 239.388 323.04 239.388 324.06V327H238.188Z" fill="#9A9A9A"/>
<path d="M231 146H241V302C241 304.761 238.761 307 236 307V307C233.239 307 231 304.761 231 302V146Z" fill="#11A9A0"/>
<path d="M106.215 327V319.86H103.695V318.6H110.055V319.86H107.535V327H106.215ZM110.424 324.6V321.24H111.624V324.6C111.624 325.452 112.164 325.98 112.944 325.98C113.844 325.98 114.504 325.32 114.504 324.36V321.24H115.704V327H114.504V326.16C114.372 326.34 114.228 326.496 114.048 326.64C113.748 326.88 113.316 327.12 112.704 327.12C111.384 327.12 110.424 326.172 110.424 324.6Z" fill="#9A9A9A"/>
<path d="M105 88C105 85.2386 107.239 83 110 83V83C112.761 83 115 85.2386 115 88V197H105V88Z" fill="#E0F2EF"/>
<path d="M105 134H115V302C115 304.761 112.761 307 110 307V307C107.239 307 105 304.761 105 302V134Z" fill="#11A9A0"/>
<path d="M147 208H157V302C157 304.761 154.761 307 152 307V307C149.239 307 147 304.761 147 302V208Z" fill="#11A9A0"/>
<path d="M147 88C147 85.2386 149.239 83 152 83V83C154.761 83 157 85.2386 157 88V208H147V88Z" fill="#E0F2EF"/>
<path d="M145.643 327L142.883 318.6H144.263L146.303 324.9L148.283 318.6H149.603L151.583 324.9L153.623 318.6H155.003L152.243 327H150.923L148.943 320.7L146.963 327H145.643ZM159.863 325.2L160.583 326.04C160.427 326.244 160.223 326.424 159.983 326.58C159.563 326.856 158.975 327.12 158.123 327.12C156.443 327.12 155.123 325.8 155.123 324.12C155.123 322.44 156.443 321.12 158.063 321.12C159.695 321.12 160.883 322.308 160.883 323.94C160.883 324.12 160.859 324.264 160.847 324.372L160.823 324.54H156.383C156.515 325.32 157.211 325.98 158.183 325.98C158.699 325.98 159.119 325.788 159.407 325.596C159.575 325.488 159.731 325.356 159.863 325.2ZM156.383 323.52H159.623C159.443 322.74 158.915 322.2 158.063 322.2C157.151 322.2 156.623 322.74 156.383 323.52Z" fill="#9A9A9A"/>
<path d="M273 88C273 85.2386 275.239 83 278 83V83C280.761 83 283 85.2386 283 88V242H273V88Z" fill="#E0F2EF"/>
<path d="M271.821 325.86L272.721 324.96C272.853 325.14 273.021 325.296 273.225 325.44C273.573 325.68 274.101 325.92 274.821 325.92C275.913 325.92 276.501 325.332 276.501 324.66C276.501 322.8 272.061 323.94 272.061 320.82C272.061 319.56 273.153 318.48 274.941 318.48C275.805 318.48 276.465 318.744 276.909 319.02C277.173 319.176 277.401 319.356 277.581 319.56L276.681 320.46C276.549 320.316 276.405 320.184 276.237 320.076C275.949 319.884 275.505 319.68 274.941 319.68C273.921 319.68 273.381 320.208 273.381 320.82C273.381 322.68 277.821 321.54 277.821 324.66C277.821 325.98 276.681 327.12 274.821 327.12C273.801 327.12 273.045 326.82 272.553 326.496C272.265 326.316 272.025 326.1 271.821 325.86ZM282.505 327V326.16C282.385 326.34 282.229 326.496 282.049 326.64C281.725 326.88 281.269 327.12 280.645 327.12C279.493 327.12 278.725 326.34 278.725 325.44C278.725 324.48 279.385 323.82 280.405 323.64L282.505 323.28C282.505 322.668 282.025 322.2 281.305 322.2C280.837 322.2 280.489 322.404 280.213 322.596C280.057 322.704 279.925 322.836 279.805 322.98L279.025 322.2C279.181 321.996 279.373 321.816 279.601 321.66C279.985 321.384 280.537 321.12 281.305 321.12C282.745 321.12 283.705 322.08 283.705 323.34V327H282.505ZM282.505 324.42V324.24L280.825 324.54C280.213 324.648 279.925 324.948 279.925 325.32C279.925 325.74 280.273 326.1 280.885 326.1C281.785 326.1 282.505 325.38 282.505 324.42Z" fill="#9A9A9A"/>
<path d="M273 116H283V302C283 304.761 280.761 307 278 307V307C275.239 307 273 304.761 273 302V116Z" fill="#11A9A0"/>
<path d="M189 88C189 85.2386 191.239 83 194 83V83C196.761 83 199 85.2386 199 88V282H189V88Z" fill="#E0F2EF"/>
<path d="M189.946 327V319.86H187.426V318.6H193.786V319.86H191.266V327H189.946ZM194.695 327V318.6H195.895V322.08C196.015 321.9 196.159 321.744 196.339 321.6C196.639 321.36 197.083 321.12 197.695 321.12C199.015 321.12 199.975 322.068 199.975 323.64V327H198.775V323.64C198.775 322.788 198.235 322.26 197.455 322.26C196.555 322.26 195.895 322.92 195.895 323.88V327H194.695Z" fill="#9A9A9A"/>
<path d="M189 194H199V302C199 304.761 196.761 307 194 307V307C191.239 307 189 304.761 189 302V194Z" fill="#11A9A0"/>
<path d="M315 87C315 84.2386 317.239 82 320 82V82C322.761 82 325 84.2386 325 87V249H315V87Z" fill="#E0F2EF"/>
<path d="M313.458 325.86L314.358 324.96C314.49 325.14 314.658 325.296 314.862 325.44C315.21 325.68 315.738 325.92 316.458 325.92C317.55 325.92 318.138 325.332 318.138 324.66C318.138 322.8 313.698 323.94 313.698 320.82C313.698 319.56 314.79 318.48 316.578 318.48C317.442 318.48 318.102 318.744 318.546 319.02C318.81 319.176 319.038 319.356 319.218 319.56L318.318 320.46C318.186 320.316 318.042 320.184 317.874 320.076C317.586 319.884 317.142 319.68 316.578 319.68C315.558 319.68 315.018 320.208 315.018 320.82C315.018 322.68 319.458 321.54 319.458 324.66C319.458 325.98 318.318 327.12 316.458 327.12C315.438 327.12 314.682 326.82 314.19 326.496C313.902 326.316 313.662 326.1 313.458 325.86ZM320.781 324.6V321.24H321.981V324.6C321.981 325.452 322.521 325.98 323.301 325.98C324.201 325.98 324.861 325.32 324.861 324.36V321.24H326.061V327H324.861V326.16C324.729 326.34 324.585 326.496 324.405 326.64C324.105 326.88 323.673 327.12 323.061 327.12C321.741 327.12 320.781 326.172 320.781 324.6Z" fill="#9A9A9A"/>
<path d="M315 249H325V302C325 304.761 322.761 307 320 307V307C317.239 307 315 304.761 315 302V249Z" fill="#11A9A0"/>
<defs>
<filter id="filter0_d_13_680" x="0" y="0" width="355" height="357" filterUnits="userSpaceOnUse" color-interpolation-filters="sRGB">
<feFlood flood-opacity="0" result="BackgroundImageFix"/>
<feColorMatrix in="SourceAlpha" type="matrix" values="0 0 0 0 0 0 0 0 0 0 0 0 0 0 0 0 0 0 127 0" result="hardAlpha"/>
<feOffset dy="2"/>
<feGaussianBlur stdDeviation="5"/>
<feComposite in2="hardAlpha" operator="out"/>
<feColorMatrix type="matrix" values="0 0 0 0 0 0 0 0 0 0 0 0 0 0 0 0 0 0 0.04 0"/>
<feBlend mode="normal" in2="BackgroundImageFix" result="effect1_dropShadow_13_680"/>
<feBlend mode="normal" in="SourceGraphic" in2="effect1_dropShadow_13_680" result="shape"/>
</filter>
<linearGradient id="paint0_linear_13_680" x1="137" y1="8.71429" x2="171.415" y2="117.901" gradientUnits="userSpaceOnUse">
<stop stop-color="#00937D"/>
<stop offset="1" stop-color="#00937D" stop-opacity="0.25"/>
</linearGradient>
</defs>
</svg>
