<svg width="355" height="386" viewBox="0 0 355 386" fill="none" xmlns="http://www.w3.org/2000/svg">
<g filter="url(#filter0_d_3696_8679)">
<rect x="10" y="37" width="335" height="337" rx="8" fill="white"/>
<rect x="10.5" y="37.5" width="334" height="336" rx="7.5" stroke="#E0F2EF"/>
</g>
<path d="M23.6 77V65.8H28.24C30.4 65.8 31.92 67.336 31.92 69.32C31.92 70.584 31.376 71.352 30.848 71.848C30.528 72.136 30.176 72.36 29.776 72.52L32.32 77H30.32L28 72.84H25.36V77H23.6ZM25.36 71.24H28.24C29.376 71.24 30.16 70.456 30.16 69.32C30.16 68.184 29.376 67.4 28.24 67.4H25.36V71.24ZM39.8506 74.6L40.8106 75.72C40.6026 75.992 40.3306 76.232 40.0106 76.44C39.4506 76.808 38.6666 77.16 37.5306 77.16C35.2906 77.16 33.5306 75.4 33.5306 73.16C33.5306 70.92 35.2906 69.16 37.4506 69.16C39.6266 69.16 41.2106 70.744 41.2106 72.92C41.2106 73.16 41.1786 73.352 41.1626 73.496L41.1306 73.72H35.2106C35.3866 74.76 36.3146 75.64 37.6106 75.64C38.2986 75.64 38.8586 75.384 39.2426 75.128C39.4666 74.984 39.6746 74.808 39.8506 74.6ZM35.2106 72.36H39.5306C39.2906 71.32 38.5866 70.6 37.4506 70.6C36.2346 70.6 35.5306 71.32 35.2106 72.36ZM48.6438 74.52L49.7638 75.56C49.5238 75.864 49.2518 76.12 48.9318 76.36C48.3718 76.76 47.5718 77.16 46.4838 77.16C44.2438 77.16 42.4838 75.4 42.4838 73.16C42.4838 70.92 44.2438 69.16 46.4838 69.16C47.5718 69.16 48.3718 69.544 48.8998 69.928C49.2038 70.152 49.4758 70.408 49.6838 70.68L48.5638 71.72C48.4198 71.528 48.2438 71.352 48.0358 71.208C47.6678 70.952 47.1718 70.68 46.4838 70.68C45.1238 70.68 44.0838 71.704 44.0838 73.16C44.0838 74.616 45.1238 75.64 46.4838 75.64C47.1718 75.64 47.6998 75.384 48.0678 75.08C48.2758 74.92 48.4678 74.728 48.6438 74.52ZM50.64 73.16C50.64 70.92 52.4 69.16 54.64 69.16C56.88 69.16 58.64 70.92 58.64 73.16C58.64 75.4 56.88 77.16 54.64 77.16C52.4 77.16 50.64 75.4 50.64 73.16ZM54.64 75.64C56 75.64 57.04 74.616 57.04 73.16C57.04 71.704 56 70.68 54.64 70.68C53.28 70.68 52.24 71.704 52.24 73.16C52.24 74.616 53.28 75.64 54.64 75.64ZM60.1613 78.76L61.2812 77.72C61.4573 77.928 61.6493 78.12 61.8573 78.28C62.2253 78.584 62.7533 78.84 63.4413 78.84C64.8973 78.84 65.8413 77.896 65.8413 76.36V75.64C65.6813 75.864 65.4733 76.072 65.2333 76.248C64.8013 76.552 64.1933 76.84 63.3613 76.84C61.5213 76.84 59.9213 75.24 59.9213 73C59.9213 70.76 61.5213 69.16 63.3613 69.16C64.1933 69.16 64.8013 69.464 65.2333 69.768C65.4733 69.944 65.6813 70.152 65.8413 70.36V69.32H67.4413V76.36C67.4413 78.68 65.7613 80.36 63.4413 80.36C62.3533 80.36 61.5533 79.96 60.9933 79.56C60.6733 79.32 60.4013 79.064 60.1613 78.76ZM63.6813 75.32C64.8813 75.32 65.8413 74.36 65.8413 73C65.8413 71.64 64.8813 70.68 63.6813 70.68C62.4813 70.68 61.5213 71.64 61.5213 73C61.5213 74.36 62.4813 75.32 63.6813 75.32ZM69.6825 77V69.32H71.2825V70.44C71.4425 70.2 71.6345 69.992 71.8745 69.8C72.2745 69.48 72.8665 69.16 73.6825 69.16C75.4425 69.16 76.7225 70.424 76.7225 72.52V77H75.1225V72.52C75.1225 71.384 74.4025 70.68 73.3625 70.68C72.1625 70.68 71.2825 71.56 71.2825 72.84V77H69.6825ZM79.0438 77V69.32H80.6438V77H79.0438ZM78.8838 66.92C78.8838 66.36 79.3478 65.96 79.8438 65.96C80.3398 65.96 80.8038 66.36 80.8038 66.92C80.8038 67.48 80.3398 67.88 79.8438 67.88C79.3478 67.88 78.8838 67.48 78.8838 66.92ZM83.7638 74.6V70.84H82.3238V69.32H83.2038C83.6998 69.32 83.9238 69.08 83.9238 68.44V66.76H85.3638V69.32H87.1238V70.84H85.3638V74.44C85.3638 75.24 85.7318 75.64 86.4838 75.64C86.7238 75.64 86.9318 75.592 87.1078 75.528L87.3638 75.4V76.92L87.0278 77.048C86.8198 77.112 86.5318 77.16 86.1638 77.16C84.6278 77.16 83.7638 76.28 83.7638 74.6ZM89.3563 77V69.32H90.9563V77H89.3563ZM89.1963 66.92C89.1963 66.36 89.6603 65.96 90.1562 65.96C90.6523 65.96 91.1163 66.36 91.1163 66.92C91.1163 67.48 90.6523 67.88 90.1562 67.88C89.6603 67.88 89.1963 67.48 89.1963 66.92ZM92.7963 73.16C92.7963 70.92 94.5563 69.16 96.7963 69.16C99.0363 69.16 100.796 70.92 100.796 73.16C100.796 75.4 99.0363 77.16 96.7963 77.16C94.5563 77.16 92.7963 75.4 92.7963 73.16ZM96.7963 75.64C98.1563 75.64 99.1963 74.616 99.1963 73.16C99.1963 71.704 98.1563 70.68 96.7963 70.68C95.4363 70.68 94.3963 71.704 94.3963 73.16C94.3963 74.616 95.4363 75.64 96.7963 75.64ZM102.558 77V69.32H104.158V70.44C104.318 70.2 104.51 69.992 104.75 69.8C105.15 69.48 105.742 69.16 106.558 69.16C108.318 69.16 109.598 70.424 109.598 72.52V77H107.998V72.52C107.998 71.384 107.278 70.68 106.238 70.68C105.038 70.68 104.158 71.56 104.158 72.84V77H102.558ZM119.678 77V75.88C119.518 76.12 119.31 76.328 119.07 76.52C118.638 76.84 118.03 77.16 117.198 77.16C115.662 77.16 114.638 76.12 114.638 74.92C114.638 73.64 115.518 72.76 116.878 72.52L119.678 72.04C119.678 71.224 119.038 70.6 118.078 70.6C117.454 70.6 116.99 70.872 116.622 71.128C116.414 71.272 116.238 71.448 116.078 71.64L115.038 70.6C115.246 70.328 115.502 70.088 115.806 69.88C116.318 69.512 117.054 69.16 118.078 69.16C119.998 69.16 121.278 70.44 121.278 72.12V77H119.678ZM119.678 73.56V73.32L117.438 73.72C116.622 73.864 116.238 74.264 116.238 74.76C116.238 75.32 116.702 75.8 117.518 75.8C118.718 75.8 119.678 74.84 119.678 73.56ZM123.511 77V69.32H125.111V70.44C125.271 70.2 125.463 69.992 125.703 69.8C126.103 69.48 126.695 69.16 127.511 69.16C129.271 69.16 130.551 70.424 130.551 72.52V77H128.951V72.52C128.951 71.384 128.231 70.68 127.191 70.68C125.991 70.68 125.111 71.56 125.111 72.84V77H123.511ZM137.272 77V75.88C137.112 76.12 136.904 76.328 136.664 76.52C136.232 76.84 135.624 77.16 134.792 77.16C133.256 77.16 132.232 76.12 132.232 74.92C132.232 73.64 133.112 72.76 134.472 72.52L137.272 72.04C137.272 71.224 136.632 70.6 135.672 70.6C135.048 70.6 134.584 70.872 134.216 71.128C134.008 71.272 133.832 71.448 133.672 71.64L132.632 70.6C132.84 70.328 133.096 70.088 133.4 69.88C133.912 69.512 134.648 69.16 135.672 69.16C137.592 69.16 138.872 70.44 138.872 72.12V77H137.272ZM137.272 73.56V73.32L135.032 73.72C134.216 73.864 133.832 74.264 133.832 74.76C133.832 75.32 134.296 75.8 135.112 75.8C136.312 75.8 137.272 74.84 137.272 73.56ZM141.184 77V65.8H142.784V77H141.184ZM144.624 80.12V78.6C144.704 78.648 144.784 78.68 144.896 78.728C145.072 78.792 145.28 78.84 145.584 78.84C146.224 78.84 146.688 78.44 146.944 77.8L147.264 77L144.144 69.32H145.904L148.064 75L150.224 69.32H151.984L148.624 77.88C147.984 79.496 147.104 80.36 145.824 80.36C145.456 80.36 145.168 80.312 144.96 80.248L144.624 80.12ZM152.541 75.72L153.581 74.68C153.741 74.888 153.917 75.064 154.125 75.208C154.493 75.464 154.957 75.72 155.581 75.72C156.477 75.72 156.941 75.256 156.941 74.76C156.941 73.48 152.861 74.136 152.861 71.4C152.861 70.2 153.917 69.16 155.661 69.16C156.573 69.16 157.261 69.432 157.709 69.688C157.981 69.832 158.205 70.008 158.381 70.2L157.341 71.24C157.213 71.128 157.069 71.016 156.893 70.92C156.589 70.744 156.173 70.6 155.661 70.6C154.845 70.6 154.461 71 154.461 71.4C154.461 72.68 158.541 72.04 158.541 74.76C158.541 76.04 157.437 77.16 155.581 77.16C154.557 77.16 153.821 76.808 153.309 76.44C153.005 76.232 152.749 75.992 152.541 75.72ZM160.294 77V69.32H161.894V77H160.294ZM160.134 66.92C160.134 66.36 160.598 65.96 161.094 65.96C161.59 65.96 162.054 66.36 162.054 66.92C162.054 67.48 161.59 67.88 161.094 67.88C160.598 67.88 160.134 67.48 160.134 66.92ZM163.494 75.72L164.534 74.68C164.694 74.888 164.87 75.064 165.078 75.208C165.446 75.464 165.91 75.72 166.534 75.72C167.43 75.72 167.894 75.256 167.894 74.76C167.894 73.48 163.814 74.136 163.814 71.4C163.814 70.2 164.87 69.16 166.614 69.16C167.526 69.16 168.214 69.432 168.662 69.688C168.934 69.832 169.158 70.008 169.334 70.2L168.294 71.24C168.166 71.128 168.022 71.016 167.846 70.92C167.542 70.744 167.126 70.6 166.614 70.6C165.798 70.6 165.414 71 165.414 71.4C165.414 72.68 169.494 72.04 169.494 74.76C169.494 76.04 168.39 77.16 166.534 77.16C165.51 77.16 164.774 76.808 164.262 76.44C163.958 76.232 163.702 75.992 163.494 75.72ZM174.126 76.12C174.126 75.56 174.606 75.08 175.166 75.08C175.726 75.08 176.206 75.56 176.206 76.12C176.206 76.68 175.726 77.16 175.166 77.16C174.606 77.16 174.126 76.68 174.126 76.12ZM174.126 70.2C174.126 69.64 174.606 69.16 175.166 69.16C175.726 69.16 176.206 69.64 176.206 70.2C176.206 70.76 175.726 71.24 175.166 71.24C174.606 71.24 174.126 70.76 174.126 70.2Z" fill="#404040"/>
<rect x="202" y="52" width="130" height="40" rx="20" fill="white"/>
<rect x="202.6" y="52.6" width="128.8" height="38.8" rx="19.4" stroke="url(#paint0_linear_3696_8679)" stroke-opacity="0.5" stroke-width="1.2"/>
<path d="M312.92 68.9999L306.4 75.5199C305.63 76.2899 304.37 76.2899 303.6 75.5199L297.08 68.9999" stroke="#292D32" stroke-width="1.5" stroke-miterlimit="10" stroke-linecap="round" stroke-linejoin="round"/>
<path d="M224 78L220.32 66.8H222.16L224.88 75.2L227.52 66.8H229.28L231.92 75.2L234.64 66.8H236.48L232.8 78H231.04L228.4 69.6L225.76 78H224ZM242.96 75.6L243.92 76.72C243.712 76.992 243.44 77.232 243.12 77.44C242.56 77.808 241.776 78.16 240.64 78.16C238.4 78.16 236.64 76.4 236.64 74.16C236.64 71.92 238.4 70.16 240.56 70.16C242.736 70.16 244.32 71.744 244.32 73.92C244.32 74.16 244.288 74.352 244.272 74.496L244.24 74.72H238.32C238.496 75.76 239.424 76.64 240.72 76.64C241.408 76.64 241.968 76.384 242.352 76.128C242.576 75.984 242.784 75.808 242.96 75.6ZM238.32 73.36H242.64C242.4 72.32 241.696 71.6 240.56 71.6C239.344 71.6 238.64 72.32 238.32 73.36ZM251.913 75.6L252.873 76.72C252.665 76.992 252.393 77.232 252.073 77.44C251.513 77.808 250.729 78.16 249.593 78.16C247.353 78.16 245.593 76.4 245.593 74.16C245.593 71.92 247.353 70.16 249.513 70.16C251.689 70.16 253.273 71.744 253.273 73.92C253.273 74.16 253.241 74.352 253.225 74.496L253.193 74.72H247.273C247.449 75.76 248.377 76.64 249.673 76.64C250.361 76.64 250.921 76.384 251.305 76.128C251.529 75.984 251.737 75.808 251.913 75.6ZM247.273 73.36H251.593C251.353 72.32 250.649 71.6 249.513 71.6C248.297 71.6 247.593 72.32 247.273 73.36ZM255.106 78V66.8H256.706V73.84L259.986 70.32H261.986L259.026 73.44L262.226 78H260.386L257.986 74.56L256.706 75.92V78H255.106ZM263.419 78V66.8H265.019V78H263.419ZM266.859 81.12V79.6C266.939 79.648 267.019 79.68 267.131 79.728C267.307 79.792 267.515 79.84 267.819 79.84C268.459 79.84 268.923 79.44 269.179 78.8L269.499 78L266.379 70.32H268.139L270.299 76L272.459 70.32H274.219L270.859 78.88C270.219 80.496 269.339 81.36 268.059 81.36C267.691 81.36 267.403 81.312 267.195 81.248L266.859 81.12Z" fill="#797979"/>
<path d="M52 291H345" stroke="#F3F4F4" stroke-width="0.8"/>
<path d="M52 246H345" stroke="#F3F4F4" stroke-width="0.8"/>
<path d="M52 201H345" stroke="#F3F4F4" stroke-width="0.8"/>
<path d="M52 156H345" stroke="#F3F4F4" stroke-width="0.8"/>
<path d="M52 111H345" stroke="#F3F4F4" stroke-width="0.8"/>
<path d="M35.1574 337.8C35.1574 335.7 34.1374 334.68 32.9974 334.68C31.8574 334.68 30.8374 335.7 30.8374 337.8C30.8374 339.9 31.8574 340.92 32.9974 340.92C34.1374 340.92 35.1574 339.9 35.1574 337.8ZM32.9974 342.12C31.0774 342.12 29.5174 340.548 29.5174 337.8C29.5174 335.052 31.0774 333.48 32.9974 333.48C34.9174 333.48 36.4774 335.052 36.4774 337.8C36.4774 340.548 34.9174 342.12 32.9974 342.12Z" fill="#9A9A9A"/>
<path d="M31.6184 291.8C31.6184 289.7 30.5984 288.68 29.4584 288.68C28.3184 288.68 27.2984 289.7 27.2984 291.8C27.2984 293.9 28.3184 294.92 29.4584 294.92C30.5984 294.92 31.6184 293.9 31.6184 291.8ZM29.4584 296.12C27.5384 296.12 25.9784 294.548 25.9784 291.8C25.9784 289.052 27.5384 287.48 29.4584 287.48C31.3784 287.48 32.9384 289.052 32.9384 291.8C32.9384 294.548 31.3784 296.12 29.4584 296.12ZM34.0835 294.86L34.9835 293.96C35.1155 294.14 35.2835 294.296 35.4875 294.44C35.8235 294.68 36.3155 294.92 37.0235 294.92C38.1155 294.92 38.7635 294.26 38.7635 293.3C38.7635 292.34 38.1155 291.68 37.0235 291.68C36.5075 291.68 36.1355 291.896 35.8595 292.1C35.7035 292.232 35.5715 292.364 35.4635 292.52L34.5035 292.4L34.8035 287.6H39.5435V288.86H35.9435L35.8235 290.9C35.9315 290.828 36.0635 290.756 36.2075 290.696C36.4595 290.588 36.7955 290.48 37.2635 290.48C38.8955 290.48 40.0835 291.668 40.0835 293.3C40.0835 294.932 38.8835 296.12 37.0235 296.12C36.0155 296.12 35.3075 295.82 34.8155 295.496C34.5275 295.316 34.2875 295.1 34.0835 294.86Z" fill="#9A9A9A"/>
<path d="M28.0567 250V243.58H26.5567V242.74C27.6367 242.608 28.0687 242.2 28.3567 241.6H29.3767V250H28.0567ZM36.8781 245.8C36.8781 243.7 35.8581 242.68 34.7181 242.68C33.5781 242.68 32.5581 243.7 32.5581 245.8C32.5581 247.9 33.5781 248.92 34.7181 248.92C35.8581 248.92 36.8781 247.9 36.8781 245.8ZM34.7181 250.12C32.7981 250.12 31.2381 248.548 31.2381 245.8C31.2381 243.052 32.7981 241.48 34.7181 241.48C36.6381 241.48 38.1981 243.052 38.1981 245.8C38.1981 248.548 36.6381 250.12 34.7181 250.12Z" fill="#9A9A9A"/>
<path d="M29.1602 204V197.58H27.6602V196.74C28.7402 196.608 29.1722 196.2 29.4602 195.6H30.4802V204H29.1602ZM32.1616 202.86L33.0616 201.96C33.1936 202.14 33.3616 202.296 33.5656 202.44C33.9016 202.68 34.3936 202.92 35.1016 202.92C36.1936 202.92 36.8416 202.26 36.8416 201.3C36.8416 200.34 36.1936 199.68 35.1016 199.68C34.5856 199.68 34.2136 199.896 33.9376 200.1C33.7816 200.232 33.6496 200.364 33.5416 200.52L32.5816 200.4L32.8816 195.6H37.6216V196.86H34.0216L33.9016 198.9C34.0096 198.828 34.1416 198.756 34.2856 198.696C34.5376 198.588 34.8736 198.48 35.3416 198.48C36.9736 198.48 38.1616 199.668 38.1616 201.3C38.1616 202.932 36.9616 204.12 35.1016 204.12C34.0936 204.12 33.3856 203.82 32.8936 203.496C32.6056 203.316 32.3656 203.1 32.1616 202.86Z" fill="#9A9A9A"/>
<path d="M26.98 156.74H31.06V158H25.42C25.42 154.22 29.74 154.112 29.74 152.06C29.74 151.28 29.2 150.74 28.24 150.74C27.604 150.74 27.208 151.028 26.956 151.316C26.812 151.484 26.704 151.676 26.62 151.88L25.54 151.4C25.648 151.04 25.828 150.716 26.056 150.44C26.452 149.96 27.124 149.48 28.24 149.48C29.92 149.48 31.06 150.62 31.06 152.06C31.06 154.52 27.94 154.88 26.98 156.74ZM38.0148 153.8C38.0148 151.7 36.9948 150.68 35.8548 150.68C34.7148 150.68 33.6948 151.7 33.6948 153.8C33.6948 155.9 34.7148 156.92 35.8548 156.92C36.9948 156.92 38.0148 155.9 38.0148 153.8ZM35.8548 158.12C33.9348 158.12 32.3748 156.548 32.3748 153.8C32.3748 151.052 33.9348 149.48 35.8548 149.48C37.7748 149.48 39.3348 151.052 39.3348 153.8C39.3348 156.548 37.7748 158.12 35.8548 158.12Z" fill="#9A9A9A"/>
<path d="M28.0835 113.74H32.1635V115H26.5235C26.5235 111.22 30.8435 111.112 30.8435 109.06C30.8435 108.28 30.3035 107.74 29.3435 107.74C28.7075 107.74 28.3115 108.028 28.0595 108.316C27.9155 108.484 27.8075 108.676 27.7235 108.88L26.6435 108.4C26.7515 108.04 26.9315 107.716 27.1595 107.44C27.5555 106.96 28.2275 106.48 29.3435 106.48C31.0235 106.48 32.1635 107.62 32.1635 109.06C32.1635 111.52 29.0435 111.88 28.0835 113.74ZM33.2984 113.86L34.1984 112.96C34.3304 113.14 34.4984 113.296 34.7024 113.44C35.0384 113.68 35.5304 113.92 36.2384 113.92C37.3304 113.92 37.9784 113.26 37.9784 112.3C37.9784 111.34 37.3304 110.68 36.2384 110.68C35.7224 110.68 35.3504 110.896 35.0744 111.1C34.9184 111.232 34.7864 111.364 34.6784 111.52L33.7184 111.4L34.0184 106.6H38.7584V107.86H35.1584L35.0384 109.9C35.1464 109.828 35.2784 109.756 35.4224 109.696C35.6744 109.588 36.0104 109.48 36.4784 109.48C38.1104 109.48 39.2984 110.668 39.2984 112.3C39.2984 113.932 38.0984 115.12 36.2384 115.12C35.2304 115.12 34.5224 114.82 34.0304 114.496C33.7424 114.316 33.5024 114.1 33.2984 113.86Z" fill="#9A9A9A"/>
<path d="M52 336H345" stroke="#F3F4F4" stroke-width="0.8"/>
<line x1="52.4" y1="111" x2="52.4" y2="336" stroke="#F3F4F4" stroke-width="0.8"/>
<path d="M215 132C215 123.573 215 119.36 217.022 116.333C217.898 115.023 219.023 113.898 220.333 113.022C223.36 111 227.573 111 236 111C244.427 111 248.64 111 251.667 113.022C252.977 113.898 254.102 115.023 254.978 116.333C257 119.36 257 123.573 257 132V365H215V132Z" fill="url(#paint1_linear_3696_8679)"/>
<path d="M64.1414 356V347.6H65.3414L68.5214 351.68L71.7014 347.6H72.9014V356H71.5814V349.82L68.5214 353.72L65.4614 349.82V356H64.1414ZM74.5777 353.12C74.5777 351.44 75.8977 350.12 77.5777 350.12C79.2577 350.12 80.5777 351.44 80.5777 353.12C80.5777 354.8 79.2577 356.12 77.5777 356.12C75.8977 356.12 74.5777 354.8 74.5777 353.12ZM77.5777 354.98C78.5977 354.98 79.3777 354.212 79.3777 353.12C79.3777 352.028 78.5977 351.26 77.5777 351.26C76.5577 351.26 75.7777 352.028 75.7777 353.12C75.7777 354.212 76.5577 354.98 77.5777 354.98Z" fill="#9A9A9A"/>
<path d="M231.203 356V347.6H237.383V349.28H233.003V351.26H236.423V352.94H233.003V356H231.203ZM238.098 356V350.12H239.718V350.96H239.778C239.91 350.78 240.054 350.624 240.222 350.48C240.51 350.24 240.942 350 241.518 350H241.638V351.74L241.506 351.716C241.41 351.704 241.278 351.68 241.098 351.68C240.318 351.68 239.718 352.28 239.718 353.24V356H238.098Z" fill="#00937D"/>
<path d="M109.215 356V348.86H106.695V347.6H113.055V348.86H110.535V356H109.215ZM113.424 353.6V350.24H114.624V353.6C114.624 354.452 115.164 354.98 115.944 354.98C116.844 354.98 117.504 354.32 117.504 353.36V350.24H118.704V356H117.504V355.16C117.372 355.34 117.228 355.496 117.048 355.64C116.748 355.88 116.316 356.12 115.704 356.12C114.384 356.12 113.424 355.172 113.424 353.6Z" fill="#9A9A9A"/>
<path d="M147.643 356L144.883 347.6H146.263L148.303 353.9L150.283 347.6H151.603L153.583 353.9L155.623 347.6H157.003L154.243 356H152.923L150.943 349.7L148.963 356H147.643ZM161.863 354.2L162.583 355.04C162.427 355.244 162.223 355.424 161.983 355.58C161.563 355.856 160.975 356.12 160.123 356.12C158.443 356.12 157.123 354.8 157.123 353.12C157.123 351.44 158.443 350.12 160.063 350.12C161.695 350.12 162.883 351.308 162.883 352.94C162.883 353.12 162.859 353.264 162.847 353.372L162.823 353.54H158.383C158.515 354.32 159.211 354.98 160.183 354.98C160.699 354.98 161.119 354.788 161.407 354.596C161.575 354.488 161.731 354.356 161.863 354.2ZM158.383 352.52H161.623C161.443 351.74 160.915 351.2 160.063 351.2C159.151 351.2 158.623 351.74 158.383 352.52Z" fill="#9A9A9A"/>
<path d="M270.821 354.86L271.721 353.96C271.853 354.14 272.021 354.296 272.225 354.44C272.573 354.68 273.101 354.92 273.821 354.92C274.913 354.92 275.501 354.332 275.501 353.66C275.501 351.8 271.061 352.94 271.061 349.82C271.061 348.56 272.153 347.48 273.941 347.48C274.805 347.48 275.465 347.744 275.909 348.02C276.173 348.176 276.401 348.356 276.581 348.56L275.681 349.46C275.549 349.316 275.405 349.184 275.237 349.076C274.949 348.884 274.505 348.68 273.941 348.68C272.921 348.68 272.381 349.208 272.381 349.82C272.381 351.68 276.821 350.54 276.821 353.66C276.821 354.98 275.681 356.12 273.821 356.12C272.801 356.12 272.045 355.82 271.553 355.496C271.265 355.316 271.025 355.1 270.821 354.86ZM281.505 356V355.16C281.385 355.34 281.229 355.496 281.049 355.64C280.725 355.88 280.269 356.12 279.645 356.12C278.493 356.12 277.725 355.34 277.725 354.44C277.725 353.48 278.385 352.82 279.405 352.64L281.505 352.28C281.505 351.668 281.025 351.2 280.305 351.2C279.837 351.2 279.489 351.404 279.213 351.596C279.057 351.704 278.925 351.836 278.805 351.98L278.025 351.2C278.181 350.996 278.373 350.816 278.601 350.66C278.985 350.384 279.537 350.12 280.305 350.12C281.745 350.12 282.705 351.08 282.705 352.34V356H281.505ZM281.505 353.42V353.24L279.825 353.54C279.213 353.648 278.925 353.948 278.925 354.32C278.925 354.74 279.273 355.1 279.885 355.1C280.785 355.1 281.505 354.38 281.505 353.42Z" fill="#9A9A9A"/>
<path d="M190.946 356V348.86H188.426V347.6H194.786V348.86H192.266V356H190.946ZM195.695 356V347.6H196.895V351.08C197.015 350.9 197.159 350.744 197.339 350.6C197.639 350.36 198.083 350.12 198.695 350.12C200.015 350.12 200.975 351.068 200.975 352.64V356H199.775V352.64C199.775 351.788 199.235 351.26 198.455 351.26C197.555 351.26 196.895 351.92 196.895 352.88V356H195.695Z" fill="#9A9A9A"/>
<path d="M311.458 354.86L312.358 353.96C312.49 354.14 312.658 354.296 312.862 354.44C313.21 354.68 313.738 354.92 314.458 354.92C315.55 354.92 316.138 354.332 316.138 353.66C316.138 351.8 311.698 352.94 311.698 349.82C311.698 348.56 312.79 347.48 314.578 347.48C315.442 347.48 316.102 347.744 316.546 348.02C316.81 348.176 317.038 348.356 317.218 348.56L316.318 349.46C316.186 349.316 316.042 349.184 315.874 349.076C315.586 348.884 315.142 348.68 314.578 348.68C313.558 348.68 313.018 349.208 313.018 349.82C313.018 351.68 317.458 350.54 317.458 353.66C317.458 354.98 316.318 356.12 314.458 356.12C313.438 356.12 312.682 355.82 312.19 355.496C311.902 355.316 311.662 355.1 311.458 354.86ZM318.781 353.6V350.24H319.981V353.6C319.981 354.452 320.521 354.98 321.301 354.98C322.201 354.98 322.861 354.32 322.861 353.36V350.24H324.061V356H322.861V355.16C322.729 355.34 322.585 355.496 322.405 355.64C322.105 355.88 321.673 356.12 321.061 356.12C319.741 356.12 318.781 355.172 318.781 353.6Z" fill="#9A9A9A"/>
<path d="M11.8 18.0002V5.40024H20.62V7.29024H13.78V10.8902H19.18V12.7802H13.78V18.0002H11.8ZM26.6535 18.0002V16.7402C26.4735 17.0102 26.2395 17.2442 25.9695 17.4602C25.4835 17.8202 24.7995 18.1802 23.8635 18.1802C22.1355 18.1802 20.9835 17.0102 20.9835 15.6602C20.9835 14.2202 21.9735 13.2302 23.5035 12.9602L26.6535 12.4202C26.6535 11.5022 25.9335 10.8002 24.8535 10.8002C24.1515 10.8002 23.6295 11.1062 23.2155 11.3942C22.9815 11.5562 22.7835 11.7542 22.6035 11.9702L21.4335 10.8002C21.6675 10.4942 21.9555 10.2242 22.2975 9.99024C22.8735 9.57624 23.7015 9.18024 24.8535 9.18024C27.0135 9.18024 28.4535 10.6202 28.4535 12.5102V18.0002H26.6535ZM26.6535 14.1302V13.8602L24.1335 14.3102C23.2155 14.4722 22.7835 14.9222 22.7835 15.4802C22.7835 16.1102 23.3055 16.6502 24.2235 16.6502C25.5735 16.6502 26.6535 15.5702 26.6535 14.1302ZM37.3551 15.2102L38.6151 16.3802C38.3451 16.7222 38.0391 17.0102 37.6791 17.2802C37.0491 17.7302 36.1491 18.1802 34.9251 18.1802C32.4051 18.1802 30.4251 16.2002 30.4251 13.6802C30.4251 11.1602 32.4051 9.18024 34.9251 9.18024C36.1491 9.18024 37.0491 9.61224 37.6431 10.0442C37.9851 10.2962 38.2911 10.5842 38.5251 10.8902L37.2651 12.0602C37.1031 11.8442 36.9051 11.6462 36.6711 11.4842C36.2571 11.1962 35.6991 10.8902 34.9251 10.8902C33.3951 10.8902 32.2251 12.0422 32.2251 13.6802C32.2251 15.3182 33.3951 16.4702 34.9251 16.4702C35.6991 16.4702 36.2931 16.1822 36.7071 15.8402C36.9411 15.6602 37.1571 15.4442 37.3551 15.2102ZM40.4066 18.0002V9.36024H42.2066V18.0002H40.4066ZM40.2266 6.66024C40.2266 6.03024 40.7486 5.58024 41.3066 5.58024C41.8646 5.58024 42.3866 6.03024 42.3866 6.66024C42.3866 7.29024 41.8646 7.74024 41.3066 7.74024C40.7486 7.74024 40.2266 7.29024 40.2266 6.66024ZM49.8566 18.0002V16.7402C49.6766 17.0102 49.4426 17.2442 49.1726 17.4602C48.6866 17.8202 48.0026 18.1802 47.0666 18.1802C45.3386 18.1802 44.1866 17.0102 44.1866 15.6602C44.1866 14.2202 45.1766 13.2302 46.7066 12.9602L49.8566 12.4202C49.8566 11.5022 49.1366 10.8002 48.0566 10.8002C47.3546 10.8002 46.8326 11.1062 46.4186 11.3942C46.1846 11.5562 45.9866 11.7542 45.8066 11.9702L44.6366 10.8002C44.8706 10.4942 45.1586 10.2242 45.5006 9.99024C46.0766 9.57624 46.9046 9.18024 48.0566 9.18024C50.2166 9.18024 51.6566 10.6202 51.6566 12.5102V18.0002H49.8566ZM49.8566 14.1302V13.8602L47.3366 14.3102C46.4186 14.4722 45.9866 14.9222 45.9866 15.4802C45.9866 16.1102 46.5086 16.6502 47.4266 16.6502C48.7766 16.6502 49.8566 15.5702 49.8566 14.1302ZM54.2582 18.0002V5.40024H56.0582V18.0002H54.2582ZM62.9875 18.0002V5.40024H68.2075C70.6375 5.40024 72.3475 7.12824 72.3475 9.36024C72.3475 10.7822 71.7355 11.6462 71.1415 12.2042C70.7815 12.5282 70.3855 12.7802 69.9355 12.9602L72.7975 18.0002H70.5475L67.9375 13.3202H64.9675V18.0002H62.9875ZM64.9675 11.5202H68.2075C69.4855 11.5202 70.3675 10.6382 70.3675 9.36024C70.3675 8.08224 69.4855 7.20024 68.2075 7.20024H64.9675V11.5202ZM81.2695 15.3002L82.3495 16.5602C82.1155 16.8662 81.8095 17.1362 81.4495 17.3702C80.8195 17.7842 79.9375 18.1802 78.6595 18.1802C76.1395 18.1802 74.1595 16.2002 74.1595 13.6802C74.1595 11.1602 76.1395 9.18024 78.5695 9.18024C81.0175 9.18024 82.7995 10.9622 82.7995 13.4102C82.7995 13.6802 82.7635 13.8962 82.7455 14.0582L82.7095 14.3102H76.0495C76.2475 15.4802 77.2915 16.4702 78.7495 16.4702C79.5235 16.4702 80.1535 16.1822 80.5855 15.8942C80.8375 15.7322 81.0715 15.5342 81.2695 15.3002ZM76.0495 12.7802H80.9095C80.6395 11.6102 79.8475 10.8002 78.5695 10.8002C77.2015 10.8002 76.4095 11.6102 76.0495 12.7802ZM91.1617 15.2102L92.4217 16.3802C92.1517 16.7222 91.8457 17.0102 91.4857 17.2802C90.8557 17.7302 89.9557 18.1802 88.7317 18.1802C86.2117 18.1802 84.2317 16.2002 84.2317 13.6802C84.2317 11.1602 86.2117 9.18024 88.7317 9.18024C89.9557 9.18024 90.8557 9.61224 91.4497 10.0442C91.7917 10.2962 92.0977 10.5842 92.3317 10.8902L91.0717 12.0602C90.9097 11.8442 90.7117 11.6462 90.4777 11.4842C90.0637 11.1962 89.5057 10.8902 88.7317 10.8902C87.2017 10.8902 86.0317 12.0422 86.0317 13.6802C86.0317 15.3182 87.2017 16.4702 88.7317 16.4702C89.5057 16.4702 90.0997 16.1822 90.5137 15.8402C90.7477 15.6602 90.9637 15.4442 91.1617 15.2102ZM93.4075 13.6802C93.4075 11.1602 95.3875 9.18024 97.9075 9.18024C100.428 9.18024 102.408 11.1602 102.408 13.6802C102.408 16.2002 100.428 18.1802 97.9075 18.1802C95.3875 18.1802 93.4075 16.2002 93.4075 13.6802ZM97.9075 16.4702C99.4375 16.4702 100.608 15.3182 100.608 13.6802C100.608 12.0422 99.4375 10.8902 97.9075 10.8902C96.3775 10.8902 95.2075 12.0422 95.2075 13.6802C95.2075 15.3182 96.3775 16.4702 97.9075 16.4702ZM104.119 19.9802L105.379 18.8102C105.577 19.0442 105.793 19.2602 106.027 19.4402C106.441 19.7822 107.035 20.0702 107.809 20.0702C109.447 20.0702 110.509 19.0082 110.509 17.2802V16.4702C110.329 16.7222 110.095 16.9562 109.825 17.1542C109.339 17.4962 108.655 17.8202 107.719 17.8202C105.649 17.8202 103.849 16.0202 103.849 13.5002C103.849 10.9802 105.649 9.18024 107.719 9.18024C108.655 9.18024 109.339 9.52224 109.825 9.86424C110.095 10.0622 110.329 10.2962 110.509 10.5302V9.36024H112.309V17.2802C112.309 19.8902 110.419 21.7802 107.809 21.7802C106.585 21.7802 105.685 21.3302 105.055 20.8802C104.695 20.6102 104.389 20.3222 104.119 19.9802ZM108.079 16.1102C109.429 16.1102 110.509 15.0302 110.509 13.5002C110.509 11.9702 109.429 10.8902 108.079 10.8902C106.729 10.8902 105.649 11.9702 105.649 13.5002C105.649 15.0302 106.729 16.1102 108.079 16.1102ZM114.83 18.0002V9.36024H116.63V10.6202C116.81 10.3502 117.026 10.1162 117.296 9.90024C117.746 9.54024 118.412 9.18024 119.33 9.18024C121.31 9.18024 122.75 10.6022 122.75 12.9602V18.0002H120.95V12.9602C120.95 11.6822 120.14 10.8902 118.97 10.8902C117.62 10.8902 116.63 11.8802 116.63 13.3202V18.0002H114.83ZM125.362 18.0002V9.36024H127.162V18.0002H125.362ZM125.182 6.66024C125.182 6.03024 125.704 5.58024 126.262 5.58024C126.82 5.58024 127.342 6.03024 127.342 6.66024C127.342 7.29024 126.82 7.74024 126.262 7.74024C125.704 7.74024 125.182 7.29024 125.182 6.66024ZM130.672 15.3002V11.0702H129.052V9.36024H130.042C130.6 9.36024 130.852 9.09024 130.852 8.37024V6.48024H132.472V9.36024H134.452V11.0702H132.472V15.1202C132.472 16.0202 132.886 16.4702 133.732 16.4702C134.002 16.4702 134.236 16.4162 134.434 16.3442L134.722 16.2002V17.9102L134.344 18.0542C134.11 18.1262 133.786 18.1802 133.372 18.1802C131.644 18.1802 130.672 17.1902 130.672 15.3002ZM136.963 18.0002V9.36024H138.763V18.0002H136.963ZM136.783 6.66024C136.783 6.03024 137.305 5.58024 137.863 5.58024C138.421 5.58024 138.943 6.03024 138.943 6.66024C138.943 7.29024 138.421 7.74024 137.863 7.74024C137.305 7.74024 136.783 7.29024 136.783 6.66024ZM140.833 13.6802C140.833 11.1602 142.813 9.18024 145.333 9.18024C147.853 9.18024 149.833 11.1602 149.833 13.6802C149.833 16.2002 147.853 18.1802 145.333 18.1802C142.813 18.1802 140.833 16.2002 140.833 13.6802ZM145.333 16.4702C146.863 16.4702 148.033 15.3182 148.033 13.6802C148.033 12.0422 146.863 10.8902 145.333 10.8902C143.803 10.8902 142.633 12.0422 142.633 13.6802C142.633 15.3182 143.803 16.4702 145.333 16.4702ZM151.815 18.0002V9.36024H153.615V10.6202C153.795 10.3502 154.011 10.1162 154.281 9.90024C154.731 9.54024 155.397 9.18024 156.315 9.18024C158.295 9.18024 159.735 10.6022 159.735 12.9602V18.0002H157.935V12.9602C157.935 11.6822 157.125 10.8902 155.955 10.8902C154.605 10.8902 153.615 11.8802 153.615 13.3202V18.0002H151.815Z" fill="#404040"/>
<path d="M90.8344 177.578C70.3125 177.578 52 193.455 52 193.455V336H345V157.387C345 157.387 335.478 146.227 320.419 142.613C293.277 136.099 289.489 183.655 265.646 183.655C248.132 183.655 246.923 153.94 223.571 151.231C200.219 148.523 189.685 216.76 152.041 215.991C123.84 215.415 106.693 177.578 90.8344 177.578Z" fill="url(#paint2_linear_3696_8679)"/>
<path d="M52 193.339C52 193.339 69.8539 177.58 90.4101 177.58C107.518 177.58 123.471 215.418 151.718 215.994C189.426 216.763 199.977 148.523 223.368 151.232C246.759 153.94 247.971 183.656 265.513 183.656C289.397 183.656 293.191 136.099 320.378 142.613C335.462 146.227 345 157.388 345 157.388" stroke="#00937D" stroke-width="2" stroke-linecap="round"/>
<g filter="url(#filter1_d_3696_8679)">
<circle cx="236" cy="156" r="8" fill="url(#paint3_linear_3696_8679)"/>
<circle cx="236" cy="156" r="6" stroke="white" stroke-width="4"/>
</g>
<defs>
<filter id="filter0_d_3696_8679" x="0" y="29" width="355" height="357" filterUnits="userSpaceOnUse" color-interpolation-filters="sRGB">
<feFlood flood-opacity="0" result="BackgroundImageFix"/>
<feColorMatrix in="SourceAlpha" type="matrix" values="0 0 0 0 0 0 0 0 0 0 0 0 0 0 0 0 0 0 127 0" result="hardAlpha"/>
<feOffset dy="2"/>
<feGaussianBlur stdDeviation="5"/>
<feComposite in2="hardAlpha" operator="out"/>
<feColorMatrix type="matrix" values="0 0 0 0 0 0 0 0 0 0 0 0 0 0 0 0 0 0 0.04 0"/>
<feBlend mode="normal" in2="BackgroundImageFix" result="effect1_dropShadow_3696_8679"/>
<feBlend mode="normal" in="SourceGraphic" in2="effect1_dropShadow_3696_8679" result="shape"/>
</filter>
<filter id="filter1_d_3696_8679" x="203" y="128" width="66" height="66" filterUnits="userSpaceOnUse" color-interpolation-filters="sRGB">
<feFlood flood-opacity="0" result="BackgroundImageFix"/>
<feColorMatrix in="SourceAlpha" type="matrix" values="0 0 0 0 0 0 0 0 0 0 0 0 0 0 0 0 0 0 127 0" result="hardAlpha"/>
<feOffset dy="5"/>
<feGaussianBlur stdDeviation="12.5"/>
<feColorMatrix type="matrix" values="0 0 0 0 0 0 0 0 0 0 0 0 0 0 0 0 0 0 0.1 0"/>
<feBlend mode="normal" in2="BackgroundImageFix" result="effect1_dropShadow_3696_8679"/>
<feBlend mode="normal" in="SourceGraphic" in2="effect1_dropShadow_3696_8679" result="shape"/>
</filter>
<linearGradient id="paint0_linear_3696_8679" x1="137" y1="37.7143" x2="171.415" y2="146.901" gradientUnits="userSpaceOnUse">
<stop stop-color="#00937D"/>
<stop offset="1" stop-color="#00937D" stop-opacity="0.25"/>
</linearGradient>
<linearGradient id="paint1_linear_3696_8679" x1="236" y1="111" x2="236" y2="364.321" gradientUnits="userSpaceOnUse">
<stop stop-color="#00937D" stop-opacity="0.28"/>
<stop offset="1" stop-color="#00937D" stop-opacity="0"/>
</linearGradient>
<linearGradient id="paint2_linear_3696_8679" x1="198.5" y1="142" x2="198.5" y2="335.482" gradientUnits="userSpaceOnUse">
<stop stop-color="#00937D" stop-opacity="0.28"/>
<stop offset="1" stop-color="#00937D" stop-opacity="0"/>
</linearGradient>
<linearGradient id="paint3_linear_3696_8679" x1="236" y1="148" x2="236" y2="164" gradientUnits="userSpaceOnUse">
<stop offset="0.0455742" stop-color="#1AAA94"/>
<stop offset="1" stop-color="#00937D"/>
</linearGradient>
</defs>
</svg>
