<svg width="169" height="124" viewBox="0 0 169 124" fill="none" xmlns="http://www.w3.org/2000/svg">
<path d="M-55.4159 29.8762C-30.0106 66.3822 -1.04041 88.9532 30.6893 96.9626C53.6042 102.746 74.297 100.275 92.5543 98.0945C103.183 96.8248 113.222 95.626 122.232 96.2956C132.241 97.0402 139.961 100.006 146.526 105.628C150.579 109.1 153.989 113.461 156.663 118.592C159.032 123.137 160.879 128.391 162.147 134.209C163.241 139.206 163.931 144.737 164.205 150.647C164.428 155.445 164.38 160.637 164.063 166.077L163.93 166.07C165.603 137.404 159.721 117.103 146.44 105.731C132.16 93.4993 113.812 95.6908 92.5687 98.2277C74.3004 100.41 53.5945 102.883 30.6567 97.0933C24.2589 95.4718 18.0116 93.2941 11.9851 90.5847C4.81884 87.3663 -2.2785 83.2971 -9.11214 78.4891C-16.887 73.0173 -24.5433 66.4292 -31.8691 58.9098C-40.0128 50.5499 -47.9719 40.8075 -55.5263 29.9522L-55.4159 29.8762Z" fill="url(#paint0_linear_2334_77415)"/>
<path d="M-54.1405 28.6285C-29.6504 62.7082 -2.1173 83.6295 30.0409 92.5873C51.714 98.6242 70.9145 97.5372 87.8544 96.578C98.2765 95.9878 108.121 95.4303 117.006 96.6854C126.867 98.0846 134.585 101.564 141.295 107.646C145.221 111.205 148.632 115.652 151.43 120.866C153.902 125.47 155.911 130.621 157.572 136.616C160.665 147.775 161.829 159.352 162.763 168.654L162.633 168.667C160.805 150.483 158.044 123.005 141.207 107.745C126.609 94.5135 108.653 95.5305 87.8614 96.7078C70.9116 97.6671 51.6999 98.7549 30.0059 92.7121C15.9943 88.8093 3.21506 82.8222 -9.06134 74.4092C-16.6882 69.1831 -24.1633 62.9525 -31.2787 55.8909C-39.2187 48.0133 -46.9466 38.8675 -54.2471 28.7028L-54.1405 28.6285Z" fill="url(#paint1_linear_2334_77415)"/>
<path d="M-52.8626 27.3786C-22.0378 68.7883 8.84659 81.9295 29.3959 88.2117C49.7268 94.4269 67.4057 94.6404 83.0037 94.828C93.2519 94.9514 102.932 95.0682 111.714 96.9479C121.441 99.0305 129.179 103.073 136.069 109.669C142.255 115.595 147.23 123.617 151.278 134.201C154.811 143.435 157.186 153.439 159.281 162.264C160.028 165.409 160.733 168.38 161.466 171.234L161.336 171.267C160.604 168.412 159.898 165.441 159.151 162.295C154.781 143.889 149.828 123.027 135.975 109.763C120.992 95.4157 104.226 95.2139 82.9995 94.958C67.3929 94.7703 49.7042 94.5582 29.355 88.3364C22.9184 86.3699 17.0018 84.1561 11.2701 81.5724C4.21969 78.3864 -2.56279 74.6271 -9.0102 70.3319C-16.4944 65.3513 -23.781 59.4778 -30.6878 52.8761C-38.4252 45.4762 -45.9208 36.9242 -52.9674 27.4581L-52.8626 27.3786Z" fill="url(#paint2_linear_2334_77415)"/>
<path d="M-51.5937 26.1291C-23.0158 63.0443 6.35072 76.3581 28.7411 83.8359C47.5797 90.1254 63.684 91.5289 77.8922 92.7659C88.0237 93.6485 97.5935 94.4815 106.304 97.0287C115.923 99.8419 123.718 104.5 130.834 111.689C136.063 116.972 140.626 123.89 144.784 132.838C148.451 140.734 151.347 149.161 154.148 157.311C156.161 163.162 158.059 168.69 160.163 173.816L160.041 173.867C157.936 168.737 156.036 163.207 154.024 157.354C148.317 140.746 142.414 123.574 130.742 111.782C115.273 96.1542 98.7727 94.7175 77.8821 92.8977C63.6667 91.6598 47.5544 90.2563 28.7042 83.961C22.0983 81.755 16.4435 79.5618 10.9082 77.0586C4.02701 73.96 -2.61539 70.3466 -8.96342 66.2487C-16.3018 61.5119 -23.4137 55.9971 -30.1011 49.8593C-37.6369 42.9398 -44.9007 34.9843 -51.6916 26.2128L-51.5937 26.1291Z" fill="url(#paint3_linear_2334_77415)"/>
<path d="M-50.3144 24.8788C-24.0405 57.3535 2.89924 70.3027 28.098 79.4593C45.194 85.6714 59.6219 88.1075 72.3522 90.2561C93.0841 93.7564 109.459 96.5208 125.606 113.708C135.512 124.254 141.881 139.066 148.04 153.39C151.568 161.594 154.9 169.344 158.861 176.399L158.747 176.464C154.782 169.403 151.449 161.65 147.92 153.442C141.765 139.129 135.401 124.328 125.51 113.8C109.394 96.6446 93.038 93.8815 72.3302 90.3874C59.5954 88.2404 45.1607 85.8002 28.0532 79.5843C17.3368 75.69 4.56405 70.5753 -8.91683 62.1629C-16.1802 57.6222 -23.0684 52.4967 -29.514 46.8365C-36.8497 40.3975 -43.8815 33.0392 -50.4163 24.9628L-50.3144 24.8788Z" fill="url(#paint4_linear_2334_77415)"/>
<path d="M-49.041 23.6309C-21.7846 55.6867 7.84292 67.3603 27.4485 75.0851C42.3874 80.9712 54.9397 84.1974 66.0143 87.036C76.7528 89.7932 86.0264 92.1738 94.8107 96.2713C104.391 100.739 112.513 106.922 120.374 115.729C124.128 119.935 127.791 125.158 131.581 131.696C134.964 137.536 138.149 143.904 141.235 150.064C146.182 159.952 151.303 170.176 157.558 178.983L157.451 179.058C151.19 170.242 146.069 160.014 141.118 150.121C134.695 137.291 128.628 125.171 120.276 115.815C103.24 96.7291 87.6117 92.7163 65.9822 87.1627C54.9034 84.3217 42.3473 81.0978 27.4009 75.2083C15.5038 70.5209 3.77804 65.6833 -8.86987 58.075C-24.0988 48.914 -37.2718 37.6753 -49.1408 23.716L-49.041 23.6309Z" fill="url(#paint5_linear_2334_77415)"/>
<path d="M-47.7636 22.381C-23.4285 49.4289 2.6281 60.4662 23.5628 69.334C24.6597 69.799 25.7397 70.2573 26.8028 70.7089C38.8099 75.8243 49.048 79.3896 58.081 82.5359C69.4344 86.4895 79.239 89.9047 88.3158 94.9831C93.0431 97.622 97.5141 100.704 101.669 104.188C106.234 108.004 110.639 112.44 115.146 117.753C122.126 125.975 127.844 136.233 133.903 147.093C140.486 158.897 147.293 171.102 156.258 181.572L156.159 181.659C147.185 171.18 140.375 158.967 133.788 147.158C127.735 136.303 122.016 126.051 115.046 117.839C96.5826 96.0885 81.2492 90.7495 58.0384 82.6641C49.004 79.5165 38.7633 75.9514 26.7518 70.831C25.6891 70.3777 24.6093 69.9193 23.5125 69.4561C13.1734 65.0771 1.45632 60.1152 -10.7663 52.8405C-24.9088 44.427 -37.0426 34.4923 -47.8611 22.4713L-47.7636 22.381Z" fill="url(#paint6_linear_2334_77415)"/>
<path d="M-46.4935 21.1296C-24.9563 43.5541 -1.08029 54.178 18.105 62.7163C20.9141 63.9668 23.5677 65.147 26.1528 66.335C33.6439 69.7761 40.4267 72.7269 46.4109 75.3293C73.847 87.2645 88.9606 93.8377 109.914 119.771C115.621 126.834 120.735 135.326 126.148 144.316C134.363 157.957 142.857 172.063 154.955 184.156L154.862 184.25C149.446 178.836 144.233 172.47 138.929 164.791C134.243 158.01 130.075 151.084 126.038 144.385C120.63 135.398 115.515 126.911 109.814 119.854C88.8796 93.9455 73.7769 87.3767 46.3605 75.4506C40.3763 72.847 33.5929 69.8968 26.1004 66.4545C23.516 65.2672 20.863 64.0869 18.0539 62.8371C8.44722 58.5603 -2.43932 53.7186 -13.4732 47.203C-26.16 39.7105 -36.9917 31.2128 -46.5834 21.2233L-46.4935 21.1296Z" fill="url(#paint7_linear_2334_77415)"/>
<path d="M-45.2187 19.8794C-26.3602 38.0812 -5.68293 47.5419 12.565 55.8881C17.1191 57.9711 21.4203 59.9391 25.5025 61.9573C44.793 71.4924 58.7309 78.3845 70.5953 86.921C76.5308 91.1929 81.8154 95.761 87.2262 101.297C92.6277 106.824 98.1744 113.335 104.681 121.789C109.199 127.654 113.504 134.444 118.066 141.633C127.403 156.347 137.985 173.023 153.651 186.74L153.565 186.84C137.884 173.111 127.297 156.426 117.956 141.705C113.396 134.519 109.089 127.733 104.577 121.869C78.8867 88.4926 64.3349 81.3001 25.4447 62.0759C21.3646 60.0589 17.0641 58.0915 12.5107 56.0091C3.28977 51.7903 -6.24349 47.4283 -16.087 41.7297C-27.335 35.2147 -36.895 28.0989 -45.3118 19.9753L-45.2187 19.8794Z" fill="url(#paint8_linear_2334_77415)"/>
<path d="M-43.9421 18.6298C-27.6532 32.9973 -9.28127 41.462 6.92767 48.9304C13.2825 51.8583 19.2846 54.6235 24.8582 57.5826C34.9911 62.962 42.7799 67.4808 49.3708 71.8041C56.2381 76.3091 61.9289 80.6756 67.2806 85.5458C72.3744 90.1812 77.2505 95.3658 82.6275 101.862C88.2367 108.641 94.0297 116.416 99.4537 123.809C102.831 128.413 106.188 133.54 109.742 138.968C120.481 155.368 132.653 173.956 152.353 189.329L152.273 189.433C143.481 182.573 135.388 174.429 127.531 164.534C120.661 155.883 115.058 147.32 109.636 139.04C106.083 133.614 102.729 128.489 99.3507 123.887C73.8408 89.1228 63.1868 78.0802 24.7972 57.7021C19.227 54.7455 13.2263 51.9808 6.8735 49.0534C-9.3436 41.5816 -27.7244 33.1129 -44.0281 18.7326L-43.9421 18.6298Z" fill="url(#paint9_linear_2334_77415)"/>
<path d="M-42.6693 17.3802C-28.8657 28.2985 -13.606 35.226 1.1518 41.9246C9.36797 45.6545 17.1287 49.1774 24.2093 53.2079C32.3424 57.8375 39.1712 62.2496 45.0854 66.6973C50.6946 70.9143 55.6581 75.3019 60.2595 80.1126C69.1462 89.3975 76.3989 99.96 85.5776 113.333C88.2888 117.281 91.0917 121.364 94.2166 125.83C96.4945 129.085 98.7994 132.565 101.241 136.25C112.63 153.439 126.803 174.831 151.046 191.918L150.971 192.026C140.172 184.416 130.459 175.341 121.275 164.285C113.289 154.673 106.831 144.924 101.132 136.321C98.6914 132.637 96.3859 129.159 94.1094 125.904C90.9844 121.437 88.1802 117.354 85.4691 113.406C66.5771 85.8914 57.0945 72.0804 24.1393 53.3207C17.0641 49.2931 9.30625 45.7734 1.0927 42.0433C-13.6663 35.3461 -28.9343 28.4133 -42.7507 17.4826L-42.6693 17.3802Z" fill="url(#paint10_linear_2334_77415)"/>
<path d="M-41.392 16.1287C-30.0164 23.9879 -17.1999 29.5707 -4.80623 34.9673C5.34129 39.3936 14.9299 43.5686 23.5631 48.8321C30.2511 52.9082 35.977 56.9656 41.0689 61.2348C45.6707 65.0798 49.9397 69.3134 53.8292 73.8896C61.2214 82.5848 66.9356 92.1127 73.5514 103.144C77.9096 110.407 82.8455 118.639 88.9933 127.848C90.1891 129.639 91.3939 131.472 92.6694 133.414C105.023 152.215 120.398 175.614 149.752 194.503L149.682 194.616C136.635 186.219 125.177 176.169 114.656 163.889C105.565 153.279 98.6557 142.764 92.5601 133.487C91.2841 131.546 90.0799 129.712 88.8841 127.922C82.7348 118.711 77.7962 110.476 73.4392 103.213C59.8748 80.5987 50.9144 65.6581 23.4977 48.9453C14.8727 43.6865 5.28743 39.5119 -4.85895 35.0922C-17.2581 29.692 -30.0803 24.1043 -41.467 16.2379L-41.392 16.1287Z" fill="url(#paint11_linear_2334_77415)"/>
<path d="M-40.1226 14.8774C-31.155 20.083 -20.9336 24.206 -11.0457 28.1954C0.595428 32.8963 12.6349 37.7539 22.9163 44.4567C34.0013 51.6825 42.4068 59.4387 49.3777 68.8704C55.7337 77.4713 60.33 86.5945 65.6515 97.1579C70.4866 106.756 75.9671 117.635 83.7637 129.869L84.105 130.404C96.4419 149.763 113.333 176.275 148.453 197.094L148.387 197.208C113.239 176.375 96.336 149.846 83.9943 130.476L83.6537 129.941C75.8534 117.701 70.3713 106.819 65.5348 97.2184C55.1327 76.5697 46.9159 60.2605 22.8462 44.5683C12.5752 37.8727 0.541619 33.0153 -11.0966 28.3188C-20.9859 24.3288 -31.2115 20.2002 -40.1872 14.9926L-40.1226 14.8774Z" fill="url(#paint12_linear_2334_77415)"/>
<path d="M-38.8551 13.6262C-32.3419 16.6023 -25.244 19.1171 -17.7302 21.7773C-4.01655 26.6323 10.1646 31.6529 22.2656 40.0815C32.2687 47.0495 39.782 54.7871 45.9127 64.4324C51.4537 73.1507 55.4105 82.7326 59.5991 92.8738C64.3569 104.396 69.7499 117.454 78.5297 131.886C92.8029 155.344 110.995 179.793 147.15 199.679L147.087 199.795C138.013 194.804 129.505 189.167 121.799 183.039C115.025 177.651 108.679 171.735 102.82 165.347C97.8885 159.965 93.3037 154.265 88.8071 147.92C84.5798 141.957 81.0342 136.256 78.4176 131.955C69.6328 117.52 64.2378 104.452 59.4779 92.928C50.8105 71.9364 43.9646 55.3557 22.19 40.1908C10.1029 31.7718 -4.0688 26.7545 -17.7736 21.9028C-25.2902 19.2415 -32.3886 16.7281 -38.9094 13.7472L-38.8551 13.6262Z" fill="url(#paint13_linear_2334_77415)"/>
<path d="M-37.5837 12.3753C-33.7005 13.6176 -29.5554 14.7741 -25.1658 16.0036C-9.91824 20.2687 7.36326 25.1028 21.6234 35.7062C30.8153 42.54 37.6083 50.3567 43.001 60.2973C47.8507 69.2361 51.0933 79.033 54.526 89.4049C58.9155 102.677 63.8957 117.72 73.3015 133.908C85.2955 154.549 104.381 180.973 145.851 202.272L145.793 202.39C135.971 197.345 126.807 191.671 118.557 185.526C111.241 180.075 104.422 174.088 98.2903 167.729C85.9105 154.89 78.0342 142.317 73.1884 133.975C63.7744 117.774 58.7933 102.727 54.3978 89.4456C47.519 68.6623 41.5783 50.7137 21.5416 35.812C7.30426 25.2229 -9.9651 20.3925 -25.2021 16.128C-29.5922 14.8998 -33.7389 13.7401 -37.6241 12.4973L-37.5837 12.3753Z" fill="url(#paint14_linear_2334_77415)"/>
<path d="M-36.3156 11.1249C-35.5983 11.2434 -34.869 11.3633 -34.1277 11.4845C-25.8851 12.8337 -16.5426 14.3636 -6.94682 17.2875C4.21617 20.6888 13.3455 25.2827 20.9745 31.3317C39.6387 46.1433 44.45 64.7797 50.022 86.3622C53.879 101.302 58.2502 118.234 68.0733 135.933C84.4222 165.388 109.44 187.935 144.555 204.863L144.498 204.983C133.927 199.887 124.108 194.177 115.316 188.013C107.458 182.503 100.207 176.479 93.7652 170.109C83.5222 159.984 75.081 148.826 67.9607 135.997C63.5666 128.078 59.8883 119.662 56.716 110.264C53.9207 101.982 51.8746 94.0585 49.8966 86.3954C44.3312 64.8396 39.5246 46.2229 20.8955 31.4393C3.7306 17.8167 -18.1626 14.2326 -34.1458 11.6148C-34.8867 11.4923 -35.6162 11.3726 -36.3342 11.2559L-36.3156 11.1249Z" fill="url(#paint15_linear_2334_77415)"/>
<path d="M-35.054 9.87603C-11.9752 9.64349 6.65335 15.39 20.3224 26.9572C28.3118 33.7196 33.9401 41.8257 38.0443 52.4658C41.7125 61.9859 43.7421 72.4614 45.8903 83.5524C49.0985 100.119 52.7354 118.894 62.8384 137.947C78.1093 166.751 105.165 190.134 143.252 207.451L143.195 207.571C131.876 202.424 121.401 196.682 112.067 190.494C103.67 184.931 95.9874 178.869 89.2283 172.484C83.2888 166.873 77.9144 160.864 73.2538 154.628C69.3234 149.371 65.8014 143.816 62.7193 138.013C58.1987 129.487 54.586 120.318 51.6739 109.981C49.1073 100.871 47.4044 92.0802 45.7578 83.5788C41.4177 61.1693 37.6656 41.8165 20.2344 27.0594C6.59329 15.5135 -12.0114 9.77714 -35.0566 10.0099L-35.054 9.87603Z" fill="url(#paint16_linear_2334_77415)"/>
<defs>
<linearGradient id="paint0_linear_2334_77415" x1="28.0216" y1="142.203" x2="79.3133" y2="14.5824" gradientUnits="userSpaceOnUse">
<stop stop-color="#A0A0A0"/>
<stop offset="1" stop-color="#A0A0A0" stop-opacity="0"/>
</linearGradient>
<linearGradient id="paint1_linear_2334_77415" x1="28.022" y1="143.877" x2="82.3359" y2="15.2806" gradientUnits="userSpaceOnUse">
<stop stop-color="#A0A0A0"/>
<stop offset="1" stop-color="#A0A0A0" stop-opacity="0"/>
</linearGradient>
<linearGradient id="paint2_linear_2334_77415" x1="28.4952" y1="145.532" x2="85.6242" y2="15.8153" gradientUnits="userSpaceOnUse">
<stop stop-color="#A0A0A0"/>
<stop offset="1" stop-color="#A0A0A0" stop-opacity="0"/>
</linearGradient>
<linearGradient id="paint3_linear_2334_77415" x1="28.9638" y1="147.187" x2="88.9373" y2="16.5086" gradientUnits="userSpaceOnUse">
<stop stop-color="#A0A0A0"/>
<stop offset="1" stop-color="#A0A0A0" stop-opacity="0"/>
</linearGradient>
<linearGradient id="paint4_linear_2334_77415" x1="29.433" y1="148.84" x2="92.2699" y2="17.362" gradientUnits="userSpaceOnUse">
<stop stop-color="#A0A0A0"/>
<stop offset="1" stop-color="#A0A0A0" stop-opacity="0"/>
</linearGradient>
<linearGradient id="paint5_linear_2334_77415" x1="29.901" y1="150.49" x2="95.6124" y2="18.381" gradientUnits="userSpaceOnUse">
<stop stop-color="#A0A0A0"/>
<stop offset="1" stop-color="#A0A0A0" stop-opacity="0"/>
</linearGradient>
<linearGradient id="paint6_linear_2334_77415" x1="30.3734" y1="152.146" x2="98.9719" y2="19.5703" gradientUnits="userSpaceOnUse">
<stop stop-color="#A0A0A0"/>
<stop offset="1" stop-color="#A0A0A0" stop-opacity="0"/>
</linearGradient>
<linearGradient id="paint7_linear_2334_77415" x1="30.8426" y1="153.794" x2="102.322" y2="20.9265" gradientUnits="userSpaceOnUse">
<stop stop-color="#A0A0A0"/>
<stop offset="1" stop-color="#A0A0A0" stop-opacity="0"/>
</linearGradient>
<linearGradient id="paint8_linear_2334_77415" x1="31.3079" y1="155.441" x2="105.656" y2="22.4544" gradientUnits="userSpaceOnUse">
<stop stop-color="#A0A0A0"/>
<stop offset="1" stop-color="#A0A0A0" stop-opacity="0"/>
</linearGradient>
<linearGradient id="paint9_linear_2334_77415" x1="31.7827" y1="157.091" x2="108.983" y2="24.1608" gradientUnits="userSpaceOnUse">
<stop stop-color="#A0A0A0"/>
<stop offset="1" stop-color="#A0A0A0" stop-opacity="0"/>
</linearGradient>
<linearGradient id="paint10_linear_2334_77415" x1="32.2507" y1="158.74" x2="112.276" y2="26.0448" gradientUnits="userSpaceOnUse">
<stop stop-color="#A0A0A0"/>
<stop offset="1" stop-color="#A0A0A0" stop-opacity="0"/>
</linearGradient>
<linearGradient id="paint11_linear_2334_77415" x1="32.7271" y1="160.386" x2="115.538" y2="28.0996" gradientUnits="userSpaceOnUse">
<stop stop-color="#A0A0A0"/>
<stop offset="1" stop-color="#A0A0A0" stop-opacity="0"/>
</linearGradient>
<linearGradient id="paint12_linear_2334_77415" x1="33.1992" y1="162.035" x2="118.753" y2="30.3337" gradientUnits="userSpaceOnUse">
<stop stop-color="#A0A0A0"/>
<stop offset="1" stop-color="#A0A0A0" stop-opacity="0"/>
</linearGradient>
<linearGradient id="paint13_linear_2334_77415" x1="33.6682" y1="163.68" x2="121.906" y2="32.742" gradientUnits="userSpaceOnUse">
<stop stop-color="#A0A0A0"/>
<stop offset="1" stop-color="#A0A0A0" stop-opacity="0"/>
</linearGradient>
<linearGradient id="paint14_linear_2334_77415" x1="34.144" y1="165.33" x2="125.005" y2="35.3321" gradientUnits="userSpaceOnUse">
<stop stop-color="#A0A0A0"/>
<stop offset="1" stop-color="#A0A0A0" stop-opacity="0"/>
</linearGradient>
<linearGradient id="paint15_linear_2334_77415" x1="34.6236" y1="166.979" x2="128.033" y2="38.0949" gradientUnits="userSpaceOnUse">
<stop stop-color="#A0A0A0"/>
<stop offset="1" stop-color="#A0A0A0" stop-opacity="0"/>
</linearGradient>
<linearGradient id="paint16_linear_2334_77415" x1="35.0925" y1="168.624" x2="130.961" y2="41.0232" gradientUnits="userSpaceOnUse">
<stop stop-color="#A0A0A0"/>
<stop offset="1" stop-color="#A0A0A0" stop-opacity="0"/>
</linearGradient>
</defs>
</svg>
