<svg width="146" height="88" viewBox="0 0 146 88" fill="none" xmlns="http://www.w3.org/2000/svg">
    <g opacity="0.2">
        <path
            d="M170.841 23.9863C169.782 33.6795 167.762 43.2439 164.812 52.5389C159.779 68.4543 152.086 83.4039 142.058 96.7539L142.895 96.6757C158.12 76.2293 167.838 52.221 171.118 26.9493L170.841 23.9863Z"
            fill="#C3C3C3" />
        <path
            d="M167.019 -16.8562C165.926 -23.8287 164.37 -30.7209 162.362 -37.4872L161.566 -37.4127C164.327 -28.1304 166.239 -18.6168 167.278 -8.98897C168.15 -1.01741 168.482 6.13502 168.296 12.8775C168.043 21.7275 166.914 30.5309 164.927 39.1592C162.962 47.6807 160.161 55.9879 156.564 63.9602C152.138 73.7447 146.609 83.2981 139.658 93.1714C138.679 94.5607 137.685 95.9222 136.676 97.2557L137.733 97.1568C138.598 95.9989 139.453 94.82 140.297 93.6202C147.272 83.7054 152.825 74.1168 157.273 64.2878C160.891 56.266 163.709 47.9073 165.684 39.3332C167.683 30.6547 168.819 21.8002 169.074 12.8989C169.149 10.3394 169.139 7.72178 169.061 5.02585L167.019 -16.8562Z"
            fill="#C3C3C3" />
        <path
            d="M132.727 97.6272C134.69 95.026 136.599 92.2979 138.455 89.4429C143.381 81.8722 149.705 71.7231 154.949 60.3377C162.18 44.5907 165.993 27.0113 165.98 9.51379C165.962 1.82333 165.15 -5.65934 164.36 -11.9557C163.304 -20.4829 161.626 -28.9215 159.339 -37.2041L158.548 -37.13C160.845 -28.8404 162.528 -20.3931 163.585 -11.8565C164.372 -5.58178 165.183 1.86325 165.198 9.51792C165.211 26.9024 161.422 44.3649 154.239 60.0149C149.015 71.3544 142.71 81.4718 137.8 89.0254C135.816 92.0776 133.773 94.9804 131.672 97.7338L132.727 97.6272Z"
            fill="#C3C3C3" />
        <path
            d="M128.09 98.0631C131.197 93.9791 134.065 89.7192 136.68 85.3049L137.663 83.6587C142.818 75.0383 148.147 66.1253 152.696 56.4219C159.954 40.8544 163.505 23.4628 162.963 6.12622C162.724 -0.976805 161.718 -8.03003 160.745 -14.8493C159.697 -22.284 158.228 -29.6533 156.346 -36.922L155.4 -36.8335C157.292 -29.5506 158.766 -22.1659 159.816 -14.7153C160.786 -7.91922 161.789 -0.892446 162.025 6.15752C162.562 23.3485 159.042 40.5928 151.845 56.0259C147.317 65.6865 142 74.5796 136.858 83.1737L135.874 84.8199C133.13 89.4563 130.103 93.9192 126.808 98.183L128.09 98.0631Z"
            fill="#C3C3C3" />
        <path
            d="M123.536 98.4869C127.501 93.5115 131.148 87.8846 134.829 81.1195C136.437 78.1559 138.149 75.1402 139.799 72.226C143.358 65.9385 147.038 59.4373 150.362 52.4685C154.02 44.714 156.673 36.5247 158.255 28.0993C159.846 19.7442 160.386 11.2231 159.86 2.7346C159.492 -2.88223 158.589 -8.33288 157.638 -14.1103C157.439 -15.3077 157.241 -16.5169 157.045 -17.7376C155.969 -24.4342 154.711 -30.7056 153.25 -36.6346L152.304 -36.5461C153.773 -30.6037 155.038 -24.3109 156.121 -17.5946C156.317 -16.3728 156.514 -15.1626 156.713 -13.9641C157.662 -8.21006 158.557 -2.77594 158.925 2.78288C159.446 11.1927 158.911 19.6348 157.334 27.9123C155.768 36.2632 153.14 44.38 149.515 52.0658C146.207 59.0033 142.534 65.4898 138.984 71.7638C137.331 74.683 135.623 77.6999 134.005 80.6724C130.174 87.7089 126.387 93.5028 122.234 98.6088L123.536 98.4869Z"
            fill="#C3C3C3" />
        <path
            d="M119.165 98.8974C125.547 91.4304 129.75 83.7091 133.06 76.9709C135.241 72.5282 137.597 68.256 140.091 63.7322C142.763 58.8873 145.524 53.8754 148.107 48.5522C155.352 33.5118 158.453 16.0305 156.843 -0.662979C156.369 -5.37204 155.487 -9.90946 154.552 -14.7119C154.177 -16.636 153.79 -18.6248 153.429 -20.6364C152.417 -26.2809 151.35 -31.4824 150.205 -36.3468L149.105 -36.2439C150.259 -31.3551 151.333 -26.123 152.354 -20.4416C152.716 -18.4221 153.103 -16.4302 153.478 -14.5015C154.408 -9.72211 155.291 -5.21143 155.755 -0.554847C157.346 15.9363 154.281 33.2164 147.123 48.0776C144.554 53.3745 141.802 58.3729 139.134 63.2065C136.633 67.7419 134.272 72.0271 132.078 76.4913C128.672 83.4238 124.314 91.4061 117.589 99.0401L119.165 98.8974Z"
            fill="#C3C3C3" />
        <path
            d="M114.558 99.3303C114.88 98.9924 115.199 98.6528 115.515 98.3113C122.656 90.5583 126.957 82.4998 131.216 72.7842C133.601 67.346 136.413 62.1881 139.39 56.7259C141.504 52.8485 143.689 48.8387 145.78 44.6038C149.472 37.0224 152.02 28.9372 153.343 20.6108C154.683 12.4528 154.818 4.14277 153.743 -4.05393C153.201 -8.1648 152.289 -12.0918 151.33 -16.2516C150.796 -18.6034 150.229 -21.0338 149.734 -23.5227C148.873 -27.8376 147.997 -32.0082 147.057 -36.0521L145.956 -35.949C146.899 -31.8725 147.791 -27.661 148.659 -23.3075C149.159 -20.8033 149.72 -18.3646 150.263 -16.0057C151.216 -11.8721 152.115 -7.96893 152.652 -3.90787C153.713 4.18261 153.581 12.3849 152.26 20.4375C150.954 28.6567 148.438 36.6379 144.794 44.1216C142.714 48.335 140.535 52.3348 138.425 56.204C135.436 61.6862 132.614 66.8639 130.211 72.3462C125.995 81.9603 121.745 89.9356 114.707 97.5706C114.106 98.2203 113.495 98.8593 112.876 99.4877L114.558 99.3303Z"
            fill="#C3C3C3" />
        <path
            d="M109.588 99.797C111.522 98.026 113.357 96.151 115.086 94.1805C122.366 85.8698 126.134 76.9773 129.372 68.5975C131.748 62.4412 134.868 56.7034 138.171 50.6299C139.915 47.4338 141.706 44.1312 143.452 40.6555C150.742 26.0017 153.364 8.47109 150.644 -7.44655C150.015 -11.127 149.073 -14.6212 148.078 -18.3207C147.377 -20.9238 146.652 -23.6188 146.037 -26.4089C145.333 -29.6066 144.641 -32.7145 143.94 -35.7586L142.84 -35.6557C143.55 -32.5746 144.252 -29.4191 144.967 -26.1738C145.588 -23.359 146.316 -20.6486 147.021 -18.0365C148.01 -14.3616 148.946 -10.8935 149.564 -7.26231C152.246 8.43128 149.666 25.7194 142.473 40.1663C140.735 43.6256 138.943 46.9204 137.209 50.1077C133.888 56.2144 130.751 61.9819 128.35 68.205C125.149 76.4996 121.425 85.2844 114.268 93.4581C112.242 95.7669 110.068 97.9415 107.76 99.9682L109.588 99.797Z"
            fill="#C3C3C3" />
        <path
            d="M103.775 100.338C107.762 97.3129 111.391 93.8427 114.591 89.9949C121.253 81.9932 124.355 73.6559 127.448 64.3792C129.68 57.6806 133.023 51.5579 136.559 45.0779C138.035 42.3809 139.554 39.592 141.048 36.6673C144.767 29.2725 147.205 21.3017 148.259 13.0934C149.323 5.00506 149.047 -3.26558 147.461 -10.8265C146.758 -14.1781 145.772 -17.337 144.73 -20.6836C143.872 -23.4399 142.983 -26.2907 142.258 -29.2809C141.788 -31.2384 141.312 -33.2346 140.852 -35.1585C140.828 -35.2615 140.803 -35.3627 140.779 -35.4657L139.835 -35.3773C139.87 -35.2236 139.905 -35.0856 139.939 -34.9412C140.399 -33.0157 140.874 -31.0257 141.35 -29.0609C142.081 -26.0414 142.974 -23.1754 143.837 -20.4038C144.872 -17.0817 145.856 -13.943 146.546 -10.6341C148.11 -3.17626 148.382 4.98642 147.332 12.9715C146.292 21.0743 143.885 28.9428 140.215 36.243C138.726 39.1546 137.208 41.9372 135.74 44.6287C132.181 51.1469 128.82 57.3043 126.562 64.0822C123.494 73.2687 120.43 81.5129 113.873 89.3949C110.39 93.5855 106.39 97.3192 101.97 100.507L103.775 100.338Z"
            fill="#C3C3C3" />
        <path
            d="M96.4729 101.017C97.898 100.217 99.2926 99.3537 100.657 98.4275C105.778 94.9529 110.333 90.7111 114.162 85.8512C120.729 77.5288 123.096 69.1017 125.605 60.1796C127.586 53.1278 131.05 46.8241 134.717 40.1482C136.029 37.7618 137.385 35.2942 138.723 32.709C146.061 18.5139 148.173 0.968242 144.365 -14.2165C143.59 -17.3072 142.548 -20.2017 141.461 -23.2678C140.445 -26.1084 139.396 -29.0399 138.567 -32.1662C138.302 -33.1702 138.039 -34.1754 137.778 -35.1818L136.833 -35.0933C137.105 -34.0356 137.381 -32.9793 137.661 -31.9244C138.498 -28.7674 139.554 -25.8114 140.576 -22.9511C141.663 -19.9133 142.691 -17.0268 143.458 -13.9887C147.216 0.987144 145.132 18.2869 137.891 32.2894C136.561 34.8675 135.204 37.3303 133.895 39.7118C130.202 46.4341 126.712 52.7858 124.703 59.9407C122.229 68.7685 119.877 77.1078 113.427 85.2843C109.657 90.0684 105.173 94.2442 100.131 97.6651C98.1867 98.9826 96.1631 100.18 94.0719 101.249L96.4729 101.017Z"
            fill="#C3C3C3" />
        <path
            d="M11.7274 98.3602C13.1002 98.3887 14.5069 98.3936 15.8682 98.4012C18.3049 98.4149 20.8234 98.4303 23.3336 98.5423C29.4631 98.8131 36.0634 99.5485 43.5158 100.81C45.5767 101.157 47.6045 101.57 49.5652 101.971C52.7209 102.617 55.7013 103.219 58.829 103.582C60.748 103.807 62.6575 103.952 64.5576 104.019L82.0941 102.378C82.5576 102.272 83.0185 102.161 83.4769 102.044C89.5755 100.5 95.3514 97.8868 100.536 94.3253C105.577 90.8636 110.013 86.5963 113.667 81.6946C119.648 73.6844 121.487 65.6161 123.433 57.0763L123.679 55.9983C125.372 48.6015 128.956 42.1421 132.751 35.3035C133.92 33.1879 135.131 31.0118 136.331 28.7315C143.751 14.6198 145.568 -2.6958 141.19 -17.5886C140.346 -20.4624 139.257 -23.139 138.107 -25.9732C136.957 -28.8074 135.756 -31.7515 134.83 -34.9065L134.036 -34.8322C134.036 -34.8322 134.037 -34.8197 134.038 -34.8135C134.979 -31.572 136.193 -28.5789 137.374 -25.6786C138.517 -22.8642 139.597 -20.204 140.43 -17.3668C142.508 -10.2757 143.2 -2.36425 142.414 5.51125C141.608 13.563 139.263 21.4667 135.634 28.3698C134.433 30.6407 133.233 32.8126 132.067 34.9138C128.245 41.802 124.634 48.3094 122.917 55.8122L122.669 56.8935C120.743 65.353 118.922 73.3442 113.04 81.2212C109.437 86.0541 105.063 90.2615 100.093 93.6745C94.9851 97.1844 89.2938 99.7598 83.2845 101.281C75.4575 103.269 67.2652 103.772 58.916 102.8C55.8216 102.44 52.8553 101.837 49.7175 101.198C47.7507 100.798 45.7135 100.386 43.6386 100.04C36.1563 98.7784 29.5237 98.0335 23.3628 97.7625C20.8382 97.6487 18.3104 97.6342 15.8659 97.6212C14.5077 97.6134 13.1023 97.6052 11.7362 97.5808C3.81771 97.4335 -6.03822 97.2509 -14.9085 95.2445C-15.2521 95.1652 -15.5927 95.0856 -15.9319 95.0028L-15.855 95.8244C-15.5978 95.8867 -15.3407 95.9474 -15.0807 96.0063C-6.13224 98.0257 3.77241 98.2085 11.7274 98.3602Z"
            fill="#C3C3C3" />
        <path
            d="M138.083 -20.9795C137.169 -23.6757 136.026 -26.1683 134.816 -28.807C133.947 -30.702 133.06 -32.641 132.261 -34.6681L131.451 -34.5923C132.278 -32.472 133.201 -30.4516 134.105 -28.4814C135.305 -25.8623 136.44 -23.3862 137.344 -20.7283C139.683 -13.8344 140.572 -6.05437 139.912 1.77012C139.246 9.76472 136.954 17.5882 133.31 24.4111C132.22 26.4487 131.126 28.3971 130.066 30.2812C125.974 37.5715 122.439 43.8677 121.069 51.6613C120.948 52.3561 120.827 53.0476 120.707 53.736C119.31 61.8257 117.991 69.4655 112.606 77.0996C105.462 87.2076 95.0752 94.2817 83.3608 97.0218C75.5993 98.8378 67.4978 99.1016 59.2819 97.8079C56.3732 97.3502 53.6004 96.6662 50.6655 95.9457C48.6181 95.4403 46.5019 94.9226 44.3314 94.479C37.1245 93.0202 30.657 92.1923 24.5678 91.9491C21.8581 91.8385 19.1539 91.8703 16.5377 91.9017C15.4391 91.9151 14.3106 91.9281 13.2063 91.931L12.2434 91.9332C3.73644 91.9446 -5.05969 91.972 -13.3209 90.2446C-14.3893 90.0212 -15.4251 89.7712 -16.4282 89.4946L-16.3518 90.3116C-7.18963 92.7506 2.87695 92.733 12.2456 92.7116L13.2085 92.7094C14.3083 92.7085 15.4492 92.6943 16.5462 92.6811C19.1531 92.6506 21.8478 92.6181 24.5356 92.7292C30.5836 92.97 37.0067 93.7926 44.1752 95.244C46.3293 95.6797 48.4378 96.1997 50.4771 96.7027C53.43 97.431 56.2188 98.1181 59.1611 98.5821C64.4931 99.4349 69.911 99.6181 75.2886 99.1274C78.0625 98.8685 80.8154 98.4204 83.5282 97.7863C95.4319 95.0034 105.981 87.8184 113.236 77.554C118.722 69.7769 120.056 62.051 121.469 53.8734C121.589 53.183 121.709 52.4915 121.83 51.7989C123.185 44.1369 126.688 37.8892 130.748 30.6648C131.808 28.7761 132.902 26.8243 133.998 24.7799C137.692 17.8692 140.007 9.93216 140.69 1.83548C141.358 -6.09502 140.458 -13.9839 138.083 -20.9795Z"
            fill="#C3C3C3" />
        <path
            d="M134.906 -24.3427C133.923 -26.8817 132.666 -29.3228 131.452 -31.6848C130.981 -32.5983 130.505 -33.5208 130.04 -34.4615L129.373 -34.3991C129.874 -33.3817 130.387 -32.3842 130.894 -31.4018C132.157 -28.9471 133.352 -26.6289 134.322 -24.12C136.92 -17.4121 138.012 -9.75317 137.483 -1.96752C136.941 5.98089 134.711 13.7467 131.05 20.488C130.039 22.3471 129.034 24.1303 128.049 25.8426C123.879 33.1636 120.279 39.4879 119.279 47.5216C119.16 48.4825 119.047 49.4538 118.937 50.395C118.037 58.2012 117.174 65.5675 112.214 73.0315C105.376 83.2977 95.1527 90.3361 83.4313 92.8508C75.8223 94.4829 67.5832 94.5022 59.606 92.9051C56.8503 92.353 54.2382 91.5897 51.4711 90.7813C49.3713 90.1693 47.2081 89.5351 44.9745 89.0048C38.0129 87.3472 31.72 86.4386 25.7389 86.2246C22.8931 86.1205 20.0558 86.2071 17.3111 86.2929C16.4196 86.3198 15.5314 86.348 14.6471 86.368L12.3087 86.4299C2.65325 86.6775 -7.78729 86.9468 -16.9536 84.0262L-16.8897 84.7094C-7.69958 87.5649 2.70047 87.2994 12.3244 87.0516L14.6613 86.9899C15.5456 86.9699 16.4354 86.9416 17.3253 86.9148C20.0591 86.83 22.8854 86.7428 25.7108 86.8473C31.6508 87.0589 37.9039 87.9618 44.8238 89.6107C47.0415 90.1394 49.2013 90.7708 51.29 91.3806C54.0684 92.1927 56.695 92.9594 59.4779 93.5168C65.2541 94.6773 71.1685 94.9941 77.036 94.4572C79.227 94.2534 81.4041 93.9207 83.5559 93.4608C95.4392 90.9121 105.798 83.7794 112.729 73.3773C117.773 65.7939 118.638 58.349 119.553 50.4692C119.662 49.5297 119.776 48.5646 119.894 47.6006C120.882 39.6904 124.45 33.4179 128.587 26.1533C129.566 24.4321 130.58 22.6528 131.593 20.7888C135.302 13.9693 137.552 6.1152 138.101 -1.92337C138.644 -9.79821 137.537 -17.5515 134.906 -24.3427Z"
            fill="#C3C3C3" />
        <path
            d="M131.804 -27.7286C130.805 -30.0087 129.569 -32.1912 128.361 -34.3041L127.677 -34.2401C128.989 -31.9705 130.213 -29.8183 131.237 -27.4793C134.088 -20.9709 135.379 -13.4404 134.984 -5.70507C134.577 2.18212 132.416 9.8756 128.74 16.5429C127.788 18.263 126.839 19.906 125.921 21.4943C121.69 28.8147 118.036 35.1362 117.442 43.3799C117.358 44.5558 117.289 45.749 117.222 46.8966C116.78 54.4636 116.362 61.6125 111.789 68.9226C105.246 79.3259 95.2158 86.3149 83.4963 88.5986C75.9356 90.074 67.7968 89.8389 59.9561 87.9214C57.3317 87.2785 54.8554 86.4381 52.2345 85.5469C50.1134 84.8255 47.9209 84.0795 45.6486 83.4539C39.0053 81.6221 32.7068 80.6026 26.9267 80.4215C23.9718 80.326 21.0307 80.4789 18.1863 80.6242C17.489 80.6613 16.7941 80.6959 16.1016 80.7283C14.9816 80.7819 13.8489 80.8387 12.7033 80.8988C2.65548 81.4186 -8.28085 81.9808 -17.4797 78.3773L-17.4134 79.0853C-8.17075 82.6031 2.71998 82.0405 12.735 81.5222C13.8796 81.4638 15.0117 81.4049 16.1303 81.3536C16.8249 81.3215 17.5206 81.2847 18.218 81.2492C21.0498 81.1034 23.9769 80.9519 26.9067 81.0466C32.6379 81.226 38.887 82.2375 45.4819 84.0566C47.7396 84.6773 49.9208 85.4197 52.0338 86.1387C54.5531 87.0018 57.1556 87.8806 59.8071 88.5287C65.9215 90.0344 72.2441 90.5132 78.516 89.9454C80.2371 89.7843 81.9348 89.5407 83.6168 89.2137C95.498 86.896 105.688 79.8042 112.301 69.2482C116.961 61.8013 117.402 54.2437 117.828 46.9277C117.895 45.7786 117.964 44.5901 118.049 43.4189C118.634 35.3172 122.256 29.0538 126.448 21.8013C127.367 20.2098 128.319 18.5634 129.273 16.8383C133.002 10.097 135.191 2.31302 135.603 -5.67197C136.008 -13.5055 134.694 -21.1327 131.804 -27.7286Z"
            fill="#C3C3C3" />
        <path
            d="M128.703 -31.1151C128.188 -32.1658 127.62 -33.1786 127.027 -34.178L126.34 -34.1137C126.981 -33.0449 127.586 -31.9666 128.141 -30.8396C131.245 -24.5369 132.742 -17.131 132.475 -9.4437C132.202 -1.61305 130.102 6.00569 126.401 12.5827C125.493 14.1935 124.589 15.7349 123.715 17.2217C119.441 24.5023 115.742 30.795 115.571 39.2221C115.54 40.5703 115.544 41.9388 115.545 43.2621C115.548 50.3118 115.551 57.6034 111.328 64.8006C108.424 69.7942 104.503 74.1235 99.8194 77.5087C94.9911 80.9932 89.4314 83.332 83.5629 84.3473C76.0501 85.6643 68.007 85.1754 60.306 82.9372C57.796 82.2067 55.438 81.2877 52.9445 80.3139C50.8148 79.4835 48.6149 78.625 46.3223 77.9009C39.8931 75.8716 33.7736 74.7663 28.1159 74.6177C25.0709 74.5338 22.0469 74.7572 19.1226 74.9729C18.6026 75.0121 18.0824 75.0498 17.562 75.086C16.1791 75.184 14.8036 75.2939 13.3502 75.4111C2.77194 76.2569 -8.83407 77.1847 -18.0159 72.5042L-17.946 73.2512C-8.68985 77.8022 2.85994 76.8781 13.3991 76.0345C14.8556 75.917 16.2311 75.8071 17.6109 75.7093C18.1313 75.6732 18.6546 75.6352 19.1809 75.5954C22.088 75.3813 25.0963 75.1578 28.1036 75.2421C33.6984 75.3903 39.7651 76.4849 46.1377 78.4974C48.4045 79.2146 50.6024 80.0685 52.7208 80.8953C55.1181 81.831 57.5979 82.7935 60.1359 83.5371C66.5201 85.4116 73.2005 86.0697 79.8286 85.477C81.1229 85.3559 82.4078 85.1838 83.6752 84.96C89.6377 83.9299 95.2866 81.5542 100.192 78.0138C104.944 74.5778 108.922 70.1838 111.868 65.1158C116.177 57.7708 116.175 50.3944 116.172 43.2599C116.172 41.9396 116.172 40.574 116.199 39.2324C116.368 30.9687 120.028 24.7456 124.256 17.5337C125.131 16.0389 126.037 14.5005 126.946 12.8864C130.697 6.22155 132.828 -1.49421 133.101 -9.42377C133.371 -17.2149 131.85 -24.7176 128.703 -31.1151Z"
            fill="#C3C3C3" />
        <path
            d="M125.741 -34.0589L125.233 -34.0113C128.513 -27.9371 130.177 -20.7429 130.051 -13.1866C129.914 -5.40317 127.873 2.15032 124.148 8.66057C123.271 10.19 122.401 11.6498 121.56 13.0581C117.25 20.273 113.528 26.505 113.801 35.0663C113.848 36.5548 113.939 38.069 114.026 39.5349C114.441 46.4457 114.871 53.5921 110.958 60.7226C108.129 65.8696 104.372 70.1741 99.7918 73.5148C95.0233 77.0018 89.4827 79.2868 83.6412 80.1755C76.1588 81.3468 68.2014 80.5988 60.633 78.031C58.2087 77.2093 55.8493 76.1743 53.5668 75.1556C51.4474 74.2174 49.256 73.2483 46.9638 72.4268C40.7505 70.2031 34.8067 69.0123 29.297 68.9001C26.7777 68.8423 24.2814 69.0305 21.847 69.2583C21.2728 69.3121 20.7017 69.3655 20.1337 69.4187L19.0138 69.5235C17.4344 69.6714 15.8502 69.851 14.1722 70.0364C2.90256 71.2843 -9.57726 72.6628 -18.6119 66.281L-18.5537 66.9035C-9.42512 73.1132 2.9944 71.7451 14.2237 70.5025C15.9001 70.3173 17.4893 70.1403 19.059 69.9902L20.1789 69.8854C23.1371 69.596 26.2104 69.2942 29.2886 69.364C34.7469 69.481 40.6405 70.6561 46.8071 72.8685C49.0831 73.6837 51.2663 74.6488 53.3776 75.5846C55.6722 76.599 58.0393 77.649 60.4766 78.4758C67.2043 80.7565 74.2336 81.6102 80.9792 80.9773C81.8951 80.8915 82.8084 80.7794 83.7112 80.6383C89.626 79.7399 95.2363 77.4273 100.065 73.8974C104.702 70.5152 108.504 66.1595 111.366 60.9513C115.343 53.7017 114.912 46.4911 114.492 39.5101C114.404 38.049 114.314 36.5363 114.267 35.0557C113.998 26.6305 117.513 20.7491 121.959 13.3001C122.802 11.8885 123.674 10.4286 124.551 8.89592C128.316 2.31763 130.38 -5.31487 130.518 -13.1691C130.647 -20.7413 128.999 -27.9512 125.741 -34.0589Z"
            fill="#C3C3C3" />
        <path
            d="M124.484 -33.9412L123.989 -33.8948C126.317 -28.7958 127.534 -23.0103 127.53 -16.93C127.526 -9.21561 125.55 -1.73263 121.815 4.70944C120.978 6.13941 120.149 7.50271 119.347 8.82108C114.8 16.2873 111.208 22.1838 111.942 30.9155C112.077 32.5183 112.274 34.1559 112.462 35.7332C113.279 42.5248 114.123 49.5429 110.505 56.6161C105.025 67.3171 95.2529 74.3572 83.6987 75.9222C76.2516 76.9333 68.3971 75.9417 60.9724 73.0464C58.6405 72.1376 56.3824 71.0099 54.1855 69.9142C52.0859 68.869 49.9155 67.788 47.6346 66.8697C41.6245 64.4496 35.855 63.1733 30.4841 63.0842C28.7914 63.0656 27.099 63.1412 25.4147 63.3107C23.9801 63.445 22.562 63.6201 21.1659 63.7948L20.4669 63.8806C18.7459 64.0935 17.0018 64.3446 15.1568 64.6084C2.94535 66.3699 -10.7396 68.3353 -19.2904 59.0323L-19.2188 59.798C-10.5004 68.776 3.0825 66.828 15.2246 65.0808C17.0679 64.8157 18.809 64.5664 20.5253 64.3539L21.2243 64.2681C24.2343 63.8937 27.3483 63.5065 30.4767 63.559C35.7893 63.6473 41.5024 64.9084 47.4587 67.3068C49.7233 68.2189 51.887 69.2957 53.9768 70.3371C56.1753 71.4327 58.4511 72.565 60.801 73.4816C67.723 76.1759 75.0187 77.2402 82.0167 76.5851C82.6013 76.5304 83.1827 76.4634 83.7608 76.3842C95.4699 74.7953 105.372 67.6645 110.927 56.8183C114.605 49.6249 113.752 42.5338 112.929 35.6786C112.74 34.0982 112.543 32.4667 112.409 30.8717C111.692 22.2971 115.246 16.4559 119.747 9.06464C120.55 7.74458 121.381 6.37957 122.221 4.94464C125.998 -1.56886 127.995 -9.13397 127.999 -16.9285C128.003 -23.0181 126.796 -28.8171 124.484 -33.9412Z"
            fill="#C3C3C3" />
        <path
            d="M123.084 -33.8107L122.603 -33.7657C126.639 -22.8784 125.625 -9.64567 119.488 0.747956C118.665 2.13261 117.855 3.44859 117.06 4.72236C112.492 12.0901 108.884 17.9096 110.088 26.7543C110.319 28.4516 110.634 30.1913 110.938 31.8724C112.148 38.5565 113.398 45.466 110.066 52.4872C104.906 63.3467 95.3176 70.3382 83.7611 71.6774C76.3539 72.5277 68.5938 71.2855 61.3167 68.0704C59.0597 67.0713 56.8785 65.8595 54.7686 64.6865C52.7001 63.5364 50.5604 62.3474 48.3047 61.3294C42.4958 58.7083 36.8993 57.35 31.6727 57.2913C30.3787 57.2817 29.0851 57.3399 27.7972 57.4657C25.9172 57.6417 24.0599 57.9254 22.2398 58.2041L21.9207 58.2528C20.1005 58.5299 18.2415 58.8625 16.2712 59.2149C3.21131 61.5472 -11.5915 64.1933 -19.1581 51.1704C-19.5118 50.5646 -19.8607 49.9426 -20.2044 49.3249L-20.0967 50.4765C-19.9198 50.788 -19.743 51.0995 -19.565 51.4063C-16.1149 57.3453 -10.8831 60.6153 -3.56761 61.4046C2.80029 62.0911 9.68782 60.8593 16.3483 59.6692C18.3155 59.3171 20.1714 58.9848 21.9853 58.7083L22.3045 58.6596C25.3469 58.1958 28.5009 57.7154 31.661 57.7539C36.823 57.8108 42.3553 59.1548 48.1068 61.7498C50.3443 62.7585 52.4743 63.9437 54.5344 65.0884C56.6543 66.2667 58.8439 67.4855 61.1219 68.4905C68.1995 71.6222 75.7336 72.8997 82.9544 72.2238C83.241 72.197 83.5291 72.17 83.8148 72.1339C95.5347 70.7778 105.257 63.6906 110.489 52.6831C113.886 45.527 112.622 38.5403 111.399 31.7837C111.096 30.1072 110.781 28.3738 110.552 26.6826C109.371 18.0022 112.939 12.2476 117.458 4.95985C118.248 3.68496 119.064 2.36683 119.891 0.977079C126.076 -9.487 127.116 -22.8163 123.084 -33.8107Z"
            fill="#C3C3C3" />
        <path
            d="M121.199 -33.6337L120.88 -33.6038C121.973 -30.2269 122.59 -26.714 122.713 -23.1666C122.982 -15.6645 121.076 -8.12369 117.346 -1.91441C116.529 -0.564872 115.722 0.714737 114.942 1.95097C110.367 9.2001 106.759 14.9238 108.432 23.844C108.766 25.618 109.207 27.4416 109.634 29.2053C111.235 35.8136 112.891 42.6489 109.821 49.6614C107.521 54.9001 104.028 59.395 99.7256 62.6688C95.1521 66.1455 89.8492 68.1929 83.9548 68.754L83.8909 68.76C76.5237 69.4496 68.8694 67.9448 61.7507 64.4071C59.5574 63.3173 57.4417 62.0162 55.4075 60.7623C53.3733 59.5085 51.2823 58.2192 49.0631 57.1036C43.4577 54.2908 38.0545 52.8484 32.9832 52.8208C31.9567 52.8148 30.9452 52.8687 29.9281 52.9639C27.7475 53.168 25.6049 53.56 23.5119 53.9443C21.6321 54.2898 19.6885 54.7088 17.6326 55.154C11.2167 56.5394 4.58236 57.9751 -1.5004 57.4645C-8.43161 56.87 -13.3134 53.7634 -16.4323 47.9551C-16.9138 47.0582 -17.3886 46.131 -17.8435 45.2332C-18.858 43.2403 -19.8954 41.2056 -21.139 39.2828L-21.0748 39.9691C-19.9817 41.727 -19.0426 43.5684 -18.1286 45.3761C-17.6705 46.2751 -17.1971 47.2041 -16.7153 48.104C-13.5415 54.0124 -8.5777 57.1725 -1.53985 57.7649C4.58882 58.2791 11.2465 56.8412 17.6854 55.4489C19.7397 55.0038 21.6787 54.5853 23.5538 54.2402C26.6062 53.6814 29.7603 53.102 32.9674 53.1221C37.99 53.1496 43.3544 54.5799 48.9091 57.3723C51.115 58.4797 53.2062 59.7706 55.2289 61.0192C57.2516 62.2679 59.397 63.5851 61.5988 64.6819C68.7706 68.2491 76.4823 69.7627 83.907 69.0662L83.9724 69.0601C89.9167 68.4942 95.274 66.4245 99.8947 62.9136C104.244 59.6071 107.77 55.0652 110.093 49.782C113.212 42.6723 111.545 35.7861 109.932 29.1257C109.505 27.3667 109.064 25.5461 108.732 23.7813C107.076 14.9883 110.662 9.31533 115.2 2.11993C115.983 0.88185 116.79 -0.399317 117.608 -1.75211C121.368 -8.01128 123.291 -15.6196 123.02 -23.1765C122.899 -26.7296 122.286 -30.2488 121.199 -33.6337Z"
            fill="#C3C3C3" />
        <path
            d="M119.155 -33.4425L118.844 -33.4133C121.85 -23.7216 120.716 -12.4917 115.244 -3.53554C114.425 -2.21402 113.629 -0.965287 112.853 0.243908C108.253 7.37764 104.634 13.0176 106.794 22.0114C107.235 23.8539 107.812 25.7481 108.37 27.5812C110.356 34.1172 112.411 40.8745 109.586 47.875C107.449 53.1643 104.081 57.6867 99.848 60.9541C95.3479 64.4271 90.0919 66.4041 84.2263 66.837C74.9567 67.5476 67.1925 64.466 62.3024 61.7574C60.1645 60.5714 58.119 59.1805 56.1422 57.8349C54.1654 56.4894 52.1145 55.0911 49.9384 53.882C44.539 50.8694 39.3008 49.3441 34.3785 49.3464C33.5645 49.3457 32.7501 49.3905 31.9433 49.4661C29.5167 49.6932 27.1635 50.2023 25.1754 50.6333C23.2644 51.0476 21.268 51.5579 19.155 52.0979C13.229 53.6149 6.51288 55.3345 0.64384 54.9922C-6.03913 54.599 -10.6811 51.5877 -13.5439 45.7789C-13.9781 44.8997 -14.4013 43.988 -14.8106 43.1064C-16.28 39.9473 -17.8014 36.6691 -20.195 33.9591C-20.6941 33.396 -21.2257 32.8623 -21.7869 32.3609L-21.7432 32.8278C-21.2844 33.2561 -20.8473 33.7072 -20.4336 34.1793C-18.0643 36.8475 -16.5552 40.0955 -15.0932 43.2427C-14.6837 44.1259 -14.2589 45.039 -13.8244 45.9214C-10.9138 51.8371 -6.18026 54.9042 0.628632 55.2998C6.54498 55.6439 13.2873 53.9187 19.2364 52.3964C21.3463 51.8567 23.3379 51.3469 25.2443 50.933C27.8778 50.3631 31.1563 49.6528 34.3806 49.6539C39.2511 49.6517 44.4361 51.1632 49.7889 54.1487C51.9448 55.3598 53.9923 56.7379 55.9711 58.088C57.9499 59.4381 59.9989 60.8333 62.1531 62.0257C69.2127 65.9394 76.8546 67.7138 84.2518 67.1438C84.4699 67.1234 84.688 67.103 84.906 67.0826C90.5708 66.5524 95.6615 64.572 100.041 61.1904C104.319 57.889 107.72 53.3211 109.879 47.981C112.745 40.8825 110.674 34.0718 108.672 27.4839C108.115 25.6522 107.538 23.7628 107.101 21.9325C104.969 13.0695 108.561 7.48066 113.109 0.406789C113.886 -0.802552 114.69 -2.05357 115.504 -3.37777C121.015 -12.3847 122.166 -23.6869 119.155 -33.4425Z"
            fill="#C3C3C3" />
        <path
            d="M117.058 -33.2464L116.902 -33.2318C117.593 -30.8661 118.031 -28.434 118.21 -25.976C118.755 -18.5893 116.974 -11.1779 113.195 -5.10998C112.383 -3.81112 111.581 -2.587 110.806 -1.40299C106.217 5.60406 102.592 11.1395 105.237 20.1696C105.789 22.0597 106.475 23.9311 107.199 25.9104C109.574 32.3959 112.027 39.1033 109.438 46.1194C105.302 57.3289 95.9762 64.3869 84.5103 64.9986C75.2882 65.5117 67.6218 62.1148 62.822 59.1796C60.7427 57.897 58.763 56.4199 56.8473 54.9886C54.9315 53.5572 52.9078 52.0465 50.7851 50.7366C45.5943 47.535 40.5479 45.9274 35.7856 45.9603C35.1291 45.9636 34.4773 45.9995 33.8278 46.0603C31.5008 46.2781 29.2027 46.8213 26.8679 47.4088C24.9539 47.8925 22.9316 48.4946 20.7901 49.1331C15.035 50.8475 8.51136 52.7941 2.82942 52.6211C-3.66835 52.4271 -8.10189 49.4937 -10.7271 43.6548C-11.123 42.7829 -11.4981 41.8809 -11.8642 41.0078C-13.1867 37.8569 -14.5538 34.5988 -16.8613 31.953C-18.3777 30.2456 -20.1934 28.8291 -22.219 27.7733L-22.2016 27.96C-20.2284 29.0002 -18.4592 30.3874 -16.979 32.0551C-14.6905 34.6822 -13.3261 37.9281 -12.0078 41.0683C-11.6417 41.9414 -11.2616 42.8461 -10.8704 43.7184C-8.21756 49.6175 -3.73876 52.5813 2.82515 52.7769C8.53201 52.9476 15.0715 51.0027 20.834 49.2828C22.9739 48.6445 24.9962 48.0424 26.9073 47.5605C29.8837 46.811 32.8011 46.136 35.7861 46.1172C40.5202 46.0838 45.5374 47.6832 50.7016 50.8685C52.8194 52.1757 54.8194 53.6682 56.7552 55.1133C58.6911 56.5585 60.6558 58.026 62.7418 59.3127C67.562 62.2648 75.2534 65.6767 84.5206 65.1593C84.9239 65.1373 85.3235 65.1093 85.7223 65.0719C96.6999 64.0444 105.567 57.0545 109.586 46.1777C112.196 39.1079 109.732 32.3733 107.348 25.8619C106.625 23.8888 105.94 22.0157 105.388 20.1303C104.18 16.0048 104.192 12.3806 105.433 8.71981C106.566 5.36579 108.6 2.26968 110.936 -1.31307C111.712 -2.49721 112.514 -3.72134 113.327 -5.02191C117.123 -11.118 118.911 -18.5631 118.365 -25.9827C118.186 -28.4431 117.748 -30.8778 117.058 -33.2464Z"
            fill="#C3C3C3" />
        <path
            d="M115.024 -33.0552L114.851 -33.0391C115.4 -31.0899 115.77 -29.0947 115.956 -27.0783C116.642 -19.7533 114.921 -12.4182 111.119 -6.42198C110.306 -5.14334 109.504 -3.94115 108.729 -2.77923C103.949 4.38387 100.498 9.55923 103.635 18.6469C104.303 20.5842 105.126 22.5056 105.996 24.5387C108.752 30.9712 111.601 37.6228 109.248 44.6419C107.437 50.0405 104.31 54.6188 100.207 57.8803C95.9118 61.2948 90.5894 63.2011 84.8205 63.3911C77.6288 63.6388 70.0261 61.3097 63.4103 56.8333C61.3743 55.4431 59.4305 53.8621 57.5571 52.3295C55.6838 50.7969 53.7491 49.2135 51.705 47.8209C46.7143 44.4232 41.8439 42.7315 37.2288 42.793C36.7031 42.7999 36.178 42.8302 35.6577 42.8789C33.2171 43.1073 30.8372 43.7508 28.5826 44.4061C26.6858 44.9557 24.658 45.651 22.5115 46.3872C16.9199 48.303 10.5836 50.4722 5.08496 50.4783C-1.21515 50.4824 -5.42978 47.6384 -7.80619 41.7888C-8.15926 40.9208 -8.49655 40.0199 -8.82158 39.1492C-9.99659 36.0128 -11.2113 32.7718 -13.4313 30.1869C-15.547 27.7272 -18.5893 25.8928 -22.4983 24.703L-22.4825 24.871C-18.631 26.0521 -15.6362 27.8659 -13.5491 30.289C-11.3487 32.8475 -10.1383 36.0763 -8.96464 39.1987C-8.6379 40.0708 -8.30061 40.9717 -7.94726 41.8428C-5.5439 47.7621 -1.28075 50.6377 5.08366 50.6322C10.6075 50.6269 16.9575 48.4533 22.5599 46.5349C24.7049 45.7989 26.7312 45.1053 28.6248 44.5544C31.3505 43.7624 34.2601 42.9877 37.2292 42.9484C41.8113 42.8869 46.6509 44.5688 51.6149 47.9487C53.6605 49.3411 55.5933 50.9215 57.463 52.4482C59.3326 53.9749 61.2776 55.5683 63.3262 56.9589C69.9688 61.4532 77.6063 63.7853 84.8301 63.544C85.4097 63.5253 85.9825 63.4895 86.5484 63.4365C91.6883 62.9554 96.4121 61.1004 100.303 58.0001C104.43 54.719 107.578 50.1152 109.395 44.6878C111.767 37.6135 108.906 30.9349 106.138 24.4767C105.265 22.4471 104.456 20.5275 103.782 18.5969C100.67 9.58083 104.105 4.43835 108.86 -2.69256C109.637 -3.86411 110.439 -5.05852 111.253 -6.33871C116.33 -14.3491 117.494 -24.2757 115.024 -33.0552Z"
            fill="#C3C3C3" />
        <path
            d="M113.84 -28.348C113.668 -29.8721 113.387 -31.3818 112.999 -32.8657L112.844 -32.8511C113.233 -31.3664 113.514 -29.8556 113.686 -28.3304C114.506 -21.0698 112.846 -13.8095 109.025 -7.88521C108.211 -6.62539 107.407 -5.44343 106.631 -4.30018C101.848 2.74392 98.3801 7.83131 102.012 16.9746C102.799 18.9511 103.764 20.9157 104.785 22.9943C107.92 29.3789 111.162 35.9811 109.04 43.0037C107.394 48.4512 104.391 53.0523 100.358 56.3058C96.1391 59.7116 90.867 61.5504 85.1108 61.6245C77.9265 61.7162 70.422 59.1267 63.9799 54.3405C61.9651 52.8416 60.0671 51.1464 58.2278 49.507C56.4276 47.9001 54.5658 46.2392 52.5986 44.7609C47.8079 41.1671 43.1135 39.3914 38.6473 39.483C38.23 39.4906 37.8144 39.5154 37.397 39.5545C34.8644 39.7915 32.4118 40.547 30.2662 41.2596C28.4085 41.8746 26.3954 42.6595 24.2639 43.4886C16.4387 46.5365 7.56761 49.9932 1.29 47.1491C-1.54196 45.8664 -3.56856 43.4517 -4.90008 39.768C-5.21577 38.8965 -5.51227 37.9949 -5.79992 37.1207C-6.82517 34.0064 -7.88555 30.7855 -10.024 28.2668C-12.7046 25.1096 -16.9713 23.1527 -22.7099 22.4418L-22.6953 22.5974C-17.0134 23.3073 -12.7925 25.245 -10.142 28.3657C-8.02316 30.8596 -6.96892 34.0654 -5.94809 37.166C-5.66044 38.0402 -5.36364 38.9448 -5.04626 39.8178C-3.71405 43.492 -1.60278 46.0055 1.22918 47.2883C7.56733 50.158 16.4704 46.6905 24.3259 43.6303C26.4482 42.8037 28.466 42.0183 30.3206 41.4036C32.806 40.5792 35.7039 39.6957 38.652 39.6348C43.0823 39.5451 47.7427 41.3097 52.5063 44.8826C54.4715 46.3564 56.3316 48.0158 58.1346 49.6193C59.9741 51.2603 61.8771 52.9581 63.8969 54.4613C70.3669 59.2763 77.9053 61.8767 85.1243 61.785C85.8722 61.7746 86.6112 61.7353 87.3412 61.6669C92.2677 61.2058 96.7699 59.4171 100.469 56.432C104.525 53.1575 107.546 48.5311 109.2 43.0562C111.341 35.969 108.086 29.3383 104.937 22.9267C103.916 20.8512 102.954 18.8896 102.175 16.917C98.5725 7.85569 102.014 2.7927 106.776 -4.21171C107.553 -5.35511 108.357 -6.53862 109.172 -7.8017C113 -13.7533 114.664 -21.0517 113.84 -28.348Z"
            fill="#C3C3C3" />
        <path
            d="M172.238 38.9073C167.904 59.5751 159.314 79.1167 147.015 96.2903L147.834 96.2136C157.045 83.28 164.173 68.9862 168.961 53.851C170.31 49.5961 171.467 45.3043 172.432 40.9754L172.238 38.9073Z"
            fill="#C3C3C3" />
        <path style="mix-blend-mode:color-dodge" opacity="0.12"
            d="M180.235 12.8755C199.165 -9.94363 195.998 -43.7717 173.162 -62.6815C150.327 -81.5913 116.469 -78.4221 97.5389 -55.6029C78.609 -32.7837 81.7754 1.04427 104.611 19.9541C127.447 38.8639 161.305 35.6947 180.235 12.8755Z"
            fill="url(#paint0_radial_1085_71400)" />
        <path style="mix-blend-mode:color-dodge" opacity="0.4"
            d="M156.518 1.97323C162.251 -2.38919 157.691 -18.0054 146.334 -32.9066C134.976 -47.8078 121.121 -56.3511 115.388 -51.9887C109.656 -47.6263 114.215 -32.0101 125.573 -17.1089C136.931 -2.2077 150.786 6.33566 156.518 1.97323Z"
            fill="url(#paint1_radial_1085_71400)" />
    </g>
    <defs>
        <radialGradient id="paint0_radial_1085_71400" cx="0" cy="0" r="1"
            gradientUnits="userSpaceOnUse"
            gradientTransform="translate(138.887 -21.3628) rotate(174.653) scale(53.7076 53.6604)">
            <stop stop-color="#CFCFCF" />
            <stop offset="0.12" stop-color="#BDBDBD" stop-opacity="0.91" />
            <stop offset="0.38" stop-color="#8C8C8C" stop-opacity="0.68" />
            <stop offset="0.73" stop-color="#404040" stop-opacity="0.31" />
            <stop offset="1" stop-opacity="0" />
        </radialGradient>
        <radialGradient id="paint1_radial_1085_71400" cx="0" cy="0" r="1"
            gradientUnits="userSpaceOnUse"
            gradientTransform="translate(135.584 -24.1195) rotate(31.8502) scale(25.7564 17.1187)">
            <stop stop-color="#EDF6F7" />
            <stop offset="0.11" stop-color="#DBE4E4" stop-opacity="0.93" />
            <stop offset="0.32" stop-color="#ADB4B4" stop-opacity="0.73" />
            <stop offset="0.63" stop-color="#636667" stop-opacity="0.42" />
            <stop offset="1" stop-opacity="0" />
        </radialGradient>
    </defs>
</svg>