<svg width="24" height="22" viewBox="0 0 24 22" fill="none" xmlns="http://www.w3.org/2000/svg">
<path d="M21.5658 6.67687L14.47 1.0002C13.0833 -0.104798 10.9167 -0.115631 9.54084 0.989369L2.445 6.67687C1.42667 7.48937 0.80917 9.11437 1.02584 10.3927L2.39084 18.561C2.705 20.3919 4.40584 21.8327 6.25834 21.8327H17.7417C19.5725 21.8327 21.3058 20.3594 21.62 18.5502L22.985 10.3819C23.18 9.11437 22.5625 7.48937 21.5658 6.67687ZM12.8125 17.4994C12.8125 17.9435 12.4442 18.3119 12 18.3119C11.5558 18.3119 11.1875 17.9435 11.1875 17.4994V14.2494C11.1875 13.8052 11.5558 13.4369 12 13.4369C12.4442 13.4369 12.8125 13.8052 12.8125 14.2494V17.4994Z" fill="#00937D"/>
</svg>
