<svg width="28" height="28" viewBox="0 0 28 28" fill="none" xmlns="http://www.w3.org/2000/svg">
<path d="M14.0007 25.6667C7.57232 25.6667 2.33398 20.4284 2.33398 14C2.33398 7.57169 7.57232 2.33335 14.0007 2.33335C20.429 2.33335 25.6673 7.57169 25.6673 14C25.6673 20.4284 20.429 25.6667 14.0007 25.6667ZM13.1257 18.6667C13.1257 19.145 13.5223 19.5417 14.0007 19.5417C14.479 19.5417 14.8757 19.145 14.8757 18.6667V12.8334C14.8757 12.355 14.479 11.9584 14.0007 11.9584C13.5223 11.9584 13.1257 12.355 13.1257 12.8334V18.6667ZM15.074 8.89002C15.0157 8.73835 14.934 8.62169 14.829 8.50502C14.7123 8.40002 14.584 8.31835 14.444 8.26002C14.304 8.20168 14.1523 8.16669 14.0007 8.16669C13.849 8.16669 13.6973 8.20168 13.5573 8.26002C13.4173 8.31835 13.289 8.40002 13.1723 8.50502C13.0673 8.62169 12.9857 8.73835 12.9273 8.89002C12.869 9.03002 12.834 9.18169 12.834 9.33335C12.834 9.48502 12.869 9.63669 12.9273 9.77669C12.9857 9.91669 13.0673 10.045 13.1723 10.1617C13.289 10.2667 13.4173 10.3484 13.5573 10.4067C13.8373 10.5234 14.164 10.5234 14.444 10.4067C14.584 10.3484 14.7123 10.2667 14.829 10.1617C14.934 10.045 15.0157 9.91669 15.074 9.77669C15.1323 9.63669 15.1673 9.48502 15.1673 9.33335C15.1673 9.18169 15.1323 9.03002 15.074 8.89002Z" fill="#797979"/>
</svg>
