<svg width="24" height="24" viewBox="0 0 24 24" fill="none" xmlns="http://www.w3.org/2000/svg">
<g clip-path="url(#clip0_4173_113535)">
<path d="M12 0H6.8C6.5791 0 6.4 0.179102 6.4 0.4V3.2H0.4C0.179102 3.2 0 3.3791 0 3.6V23.6C0 23.8209 0.179102 24 0.4 24H12C12.2209 24 12.4 23.8209 12.4 23.6V0.4C12.4 0.179102 12.2209 0 12 0ZM11.6 20.8H7.2V20H11.6V20.8ZM0.8 6H6.4V18H0.8V6ZM11.6 4.4H7.2V3.2H11.6V4.4ZM0.8 18.8H6.4V20H0.8V18.8ZM7.2 19.2V5.2H11.6V19.2H7.2ZM11.6 0.8V2.4H7.2V0.8H11.6ZM6.4 4V5.2H0.8V4H6.4ZM0.8 20.8H6.4V23.2H0.8V20.8ZM7.2 23.2V21.6H11.6V23.2H7.2Z" fill="white"/>
<path d="M23.9866 21.8992L19.1866 3.49922C19.1599 3.3961 19.0931 3.30801 19.0009 3.2543C18.9089 3.20078 18.7993 3.18613 18.6964 3.21367L12.6964 4.81367C12.4839 4.87031 12.357 5.08789 12.4124 5.30078L17.2124 23.7008C17.2392 23.8039 17.3062 23.892 17.3984 23.9455C17.4904 23.9988 17.5999 24.0133 17.7027 23.9855L23.7027 22.3855C23.9148 22.3289 24.0415 22.1117 23.9866 21.8992ZM13.9243 7.92715L19.1515 6.5336L19.3396 7.25352L14.1128 8.64922L13.9243 7.92715ZM19.5415 8.02969L21.8615 16.9287L16.6363 18.3229L14.3163 9.42324L19.5415 8.02969ZM22.0652 17.7031L22.4747 19.2729L17.2476 20.6664L16.8396 19.0973L22.0652 17.7031ZM18.514 4.09004L18.9495 5.75996L13.7224 7.15313L13.2872 5.48399L18.514 4.09004ZM17.8851 23.11L17.4495 21.44L22.6767 20.0461L23.1118 21.7152L17.8851 23.11Z" fill="white"/>
<path d="M5.19961 7.19995H1.99961C1.77871 7.19995 1.59961 7.37905 1.59961 7.59995V10.8C1.59961 11.0208 1.77871 11.2 1.99961 11.2H5.19961C5.42051 11.2 5.59961 11.0208 5.59961 10.8V7.59995C5.59961 7.37905 5.42051 7.19995 5.19961 7.19995ZM4.79961 10.4H2.39961V7.99995H4.79961V10.4Z" fill="white"/>
</g>
<defs>
<clipPath id="clip0_4173_113535">
<rect width="24" height="24" fill="white"/>
</clipPath>
</defs>
</svg>
