<svg width="26" height="26" viewBox="0 0 26 26" fill="none" xmlns="http://www.w3.org/2000/svg">
<g clip-path="url(#clip0_1598_9034)">
<path d="M7.8 5.85156H3.9C3.72761 5.85156 3.56228 5.92004 3.44038 6.04194C3.31848 6.16384 3.25 6.32917 3.25 6.50156V22.1016C3.25 22.274 3.31848 22.4393 3.44038 22.5612C3.56228 22.6831 3.72761 22.7516 3.9 22.7516H7.8C7.97239 22.7516 8.13772 22.6831 8.25962 22.5612C8.38152 22.4393 8.45 22.274 8.45 22.1016V6.50156C8.45 6.32917 8.38152 6.16384 8.25962 6.04194C8.13772 5.92004 7.97239 5.85156 7.8 5.85156ZM6.5 20.8016H5.2C5.02761 20.8016 4.86228 20.7331 4.74038 20.6112C4.61848 20.4893 4.55 20.324 4.55 20.1516C4.55 19.9792 4.61848 19.8138 4.74038 19.6919C4.86228 19.57 5.02761 19.5016 5.2 19.5016H6.5C6.67239 19.5016 6.83772 19.57 6.95962 19.6919C7.08152 19.8138 7.15 19.9792 7.15 20.1516C7.15 20.324 7.08152 20.4893 6.95962 20.6112C6.83772 20.7331 6.67239 20.8016 6.5 20.8016ZM6.5 18.8516H5.2C5.02761 18.8516 4.86228 18.7831 4.74038 18.6612C4.61848 18.5393 4.55 18.374 4.55 18.2016C4.55 18.0292 4.61848 17.8638 4.74038 17.7419C4.86228 17.62 5.02761 17.5516 5.2 17.5516H6.5C6.67239 17.5516 6.83772 17.62 6.95962 17.7419C7.08152 17.8638 7.15 18.0292 7.15 18.2016C7.15 18.374 7.08152 18.5393 6.95962 18.6612C6.83772 18.7831 6.67239 18.8516 6.5 18.8516Z" fill="white"/>
<path d="M22.6071 20.891L18.9866 5.72C18.9668 5.63665 18.9306 5.55804 18.8803 5.48869C18.83 5.41935 18.7665 5.36064 18.6934 5.31594C18.6203 5.27123 18.5391 5.24142 18.4544 5.22822C18.3698 5.21502 18.2833 5.21868 18.2001 5.239L14.3001 6.1685V3.9C14.3001 3.72761 14.2316 3.56228 14.1097 3.44038C13.9878 3.31848 13.8225 3.25 13.6501 3.25H9.7501C9.57771 3.25 9.41238 3.31848 9.29048 3.44038C9.16858 3.56228 9.1001 3.72761 9.1001 3.9V22.1C9.1001 22.2724 9.16858 22.4377 9.29048 22.5596C9.41238 22.6815 9.57771 22.75 9.7501 22.75H13.6501C13.8225 22.75 13.9878 22.6815 14.1097 22.5596C14.2316 22.4377 14.3001 22.2724 14.3001 22.1V8.9245L17.4461 22.1C17.4804 22.2454 17.5638 22.3746 17.6822 22.4657C17.8006 22.5569 17.9467 22.6045 18.0961 22.6005H18.2456L22.1456 21.671C22.3089 21.6267 22.4485 21.5204 22.5347 21.3747C22.6209 21.229 22.6469 21.0555 22.6071 20.891ZM11.7001 5.85C11.8287 5.85 11.9543 5.88812 12.0612 5.95954C12.1681 6.03097 12.2514 6.13248 12.3006 6.25126C12.3498 6.37003 12.3627 6.50072 12.3376 6.62681C12.3125 6.7529 12.2506 6.86872 12.1597 6.95962C12.0688 7.05052 11.953 7.11243 11.8269 7.13751C11.7008 7.16259 11.5701 7.14972 11.4514 7.10052C11.3326 7.05132 11.2311 6.96801 11.1596 6.86112C11.0882 6.75423 11.0501 6.62856 11.0501 6.5C11.0501 6.32761 11.1186 6.16228 11.2405 6.04038C11.3624 5.91848 11.5277 5.85 11.7001 5.85ZM12.3501 20.8H11.0501C10.8777 20.8 10.7124 20.7315 10.5905 20.6096C10.4686 20.4877 10.4001 20.3224 10.4001 20.15C10.4001 19.9776 10.4686 19.8123 10.5905 19.6904C10.7124 19.5685 10.8777 19.5 11.0501 19.5H12.3501C12.5225 19.5 12.6878 19.5685 12.8097 19.6904C12.9316 19.8123 13.0001 19.9776 13.0001 20.15C13.0001 20.3224 12.9316 20.4877 12.8097 20.6096C12.6878 20.7315 12.5225 20.8 12.3501 20.8ZM12.3501 18.85H11.0501C10.8777 18.85 10.7124 18.7815 10.5905 18.6596C10.4686 18.5377 10.4001 18.3724 10.4001 18.2C10.4001 18.0276 10.4686 17.8623 10.5905 17.7404C10.7124 17.6185 10.8777 17.55 11.0501 17.55H12.3501C12.5225 17.55 12.6878 17.6185 12.8097 17.7404C12.9316 17.8623 13.0001 18.0276 13.0001 18.2C13.0001 18.3724 12.9316 18.5377 12.8097 18.6596C12.6878 18.7815 12.5225 18.85 12.3501 18.85ZM20.3711 20.15L19.1036 20.449H18.9541C18.7817 20.4688 18.6085 20.4194 18.4726 20.3115C18.3367 20.2036 18.2492 20.0461 18.2293 19.8738C18.2095 19.7014 18.259 19.5282 18.3669 19.3922C18.4748 19.2563 18.6322 19.1688 18.8046 19.149L20.0721 18.85C20.2445 18.8103 20.4256 18.8408 20.5755 18.9347C20.7254 19.0285 20.8319 19.1781 20.8716 19.3505C20.9112 19.5229 20.8808 19.704 20.7869 19.8539C20.6931 20.0038 20.5435 20.1103 20.3711 20.15Z" fill="white"/>
</g>
<defs>
<clipPath id="clip0_1598_9034">
<rect width="26" height="26" fill="white"/>
</clipPath>
</defs>
</svg>
