<svg width="26" height="26" viewBox="0 0 26 26" fill="none" xmlns="http://www.w3.org/2000/svg">
<path d="M3.46099 20.1501C0.29046 15.9394 0.29046 10.0594 3.46099 5.84873C3.8207 5.37163 4.50298 5.27319 4.98258 5.63293C5.46218 5.99267 5.55873 6.67185 5.19902 7.15003C2.60472 10.5937 2.60472 15.4052 5.19902 18.8488C5.55873 19.327 5.46218 20.0061 4.98258 20.3659C4.50501 20.7231 3.82244 20.6305 3.46099 20.1501Z" fill="white"/>
<path d="M22.5385 20.1501C25.7091 15.9394 25.7091 10.0594 22.5385 5.84873C22.1788 5.37163 21.4965 5.27319 21.0169 5.63293C20.5373 5.99267 20.4408 6.67185 20.8005 7.15003C23.3948 10.5937 23.3948 15.4052 20.8005 18.8488C20.4408 19.327 20.5373 20.0061 21.0169 20.3659C21.4945 20.7231 22.1771 20.6305 22.5385 20.1501Z" fill="white"/>
<path d="M7.06077 18.0545C4.86825 15.1725 4.86825 10.8239 7.06077 7.94179C7.40042 7.49636 7.98453 7.46039 8.36013 7.85714C8.73843 8.25599 8.77076 8.94166 8.43202 9.38709C6.86668 11.446 6.86668 14.5503 8.43202 16.6092C8.77076 17.0547 8.73843 17.7402 8.36013 18.1392C7.98312 18.5375 7.39987 18.5012 7.06077 18.0545Z" fill="white"/>
<path d="M18.9387 18.0545C21.1312 15.1725 21.1312 10.8239 18.9387 7.94179C18.599 7.49636 18.0149 7.46039 17.6393 7.85714C17.261 8.25599 17.2287 8.94166 17.5674 9.38709C19.1328 11.446 19.1328 14.5503 17.5674 16.6092C17.2287 17.0547 17.261 17.7402 17.6393 18.1392C18.0163 18.5375 18.5996 18.5012 18.9387 18.0545Z" fill="white"/>
<path d="M13 16.182C11.246 16.182 9.81917 14.7552 9.81917 13.0012C9.81917 11.2472 11.246 9.82031 13 9.82031C14.754 9.82031 16.1809 11.2472 16.1809 13.0012C16.1809 14.7552 14.7541 16.182 13 16.182Z" fill="white"/>
</svg>
