<svg width="16" height="16" viewBox="0 0 16 16" fill="none" xmlns="http://www.w3.org/2000/svg">
    <path
        d="M14.6201 2.46143H1.38181C1.15802 2.46143 0.976562 2.64288 0.976562 2.86667V5.1631H15.0253V2.86667C15.0253 2.64288 14.8439 2.46143 14.6201 2.46143ZM11.243 4.62277H10.7027C10.4788 4.62277 10.2974 4.44132 10.2974 4.21752C10.2974 3.99373 10.4789 3.81228 10.7027 3.81228H11.243C11.4668 3.81228 11.6482 3.99373 11.6482 4.21752C11.6482 4.44132 11.4668 4.62277 11.243 4.62277ZM12.864 4.62277H12.3237C12.0998 4.62277 11.9184 4.44132 11.9184 4.21752C11.9184 3.99373 12.0999 3.81228 12.3237 3.81228H12.864C13.0878 3.81228 13.2692 3.99373 13.2692 4.21752C13.2692 4.44132 13.0878 4.62277 12.864 4.62277Z"
        fill="#00937D" />
    <path
        d="M8.00024 7.59619C7.03191 7.59619 6.24414 8.38397 6.24414 9.35229C6.24414 10.3206 7.03191 11.1084 8.00024 11.1084C8.96856 11.1084 9.75634 10.3206 9.75634 9.35229C9.75634 8.38397 8.96856 7.59619 8.00024 7.59619ZM8.00024 10.1898C7.53841 10.1898 7.16272 9.81409 7.16272 9.35229C7.16272 8.89049 7.53841 8.51477 8.00024 8.51477C8.46206 8.51477 8.83776 8.89049 8.83776 9.35229C8.83776 9.81409 8.46206 10.1898 8.00024 10.1898Z"
        fill="#00937D" />
    <path
        d="M2.19141 5.97363V7.72973C2.19141 9.28127 2.79561 10.74 3.89271 11.837C4.9898 12.9341 6.44849 13.5384 8.00003 13.5384C9.55157 13.5384 11.0103 12.9341 12.1073 11.837C13.2044 10.74 13.8086 9.28127 13.8086 7.72973V5.97363H2.19141ZM8.00003 11.9173C6.5848 11.9173 5.43344 10.766 5.43344 9.35074C5.43344 7.93552 6.5848 6.78415 8.00003 6.78415C9.41525 6.78415 10.5666 7.93552 10.5666 9.35074C10.5666 10.766 9.41525 11.9173 8.00003 11.9173Z"
        fill="#00937D" />
    <circle cx="12" cy="12" r="4" fill="white" />
    <circle cx="12" cy="12" r="2.5" fill="white" stroke="#00937D" />
    <circle cx="12" cy="12" r="1" fill="#FF3E3E" />
</svg>