<svg width="22" height="22" viewBox="0 0 22 22" fill="none" xmlns="http://www.w3.org/2000/svg">
<path d="M11 15.9042C11.8252 15.9042 12.4942 15.2352 12.4942 14.41C12.4942 13.5848 11.8252 12.9158 11 12.9158C10.1748 12.9158 9.50583 13.5848 9.50583 14.41C9.50583 15.2352 10.1748 15.9042 11 15.9042Z" fill="#797979"/>
<path d="M16.7567 8.73584V7.59001C16.7567 5.11501 16.1608 1.83334 11 1.83334C5.83917 1.83334 5.24333 5.11501 5.24333 7.59001V8.73584C2.67667 9.05668 1.83333 10.3583 1.83333 13.5575V15.2625C1.83333 19.0208 2.97917 20.1667 6.7375 20.1667H15.2625C19.0208 20.1667 20.1667 19.0208 20.1667 15.2625V13.5575C20.1667 10.3583 19.3233 9.05668 16.7567 8.73584ZM11 17.1783C9.46917 17.1783 8.23167 15.9317 8.23167 14.41C8.23167 12.8792 9.47833 11.6417 11 11.6417C12.5217 11.6417 13.7683 12.8883 13.7683 14.41C13.7683 15.9408 12.5308 17.1783 11 17.1783ZM6.7375 8.65334C6.66417 8.65334 6.6 8.65334 6.52667 8.65334V7.59001C6.52667 4.90418 7.2875 3.11668 11 3.11668C14.7125 3.11668 15.4733 4.90418 15.4733 7.59001V8.66251C15.4 8.66251 15.3358 8.66251 15.2625 8.66251H6.7375V8.65334Z" fill="#797979"/>
</svg>
