<svg width="18" height="18" viewBox="0 0 18 18" fill="none" xmlns="http://www.w3.org/2000/svg">
<path d="M17.7743 5.225L12.7743 0.225005C12.6577 0.108338 12.4993 0.0416718 12.3327 0.0416718H5.66602C4.39935 0.0416718 3.37435 1.06667 3.37435 2.33334V6.525C1.39935 7.51667 0.0410156 9.55834 0.0410156 11.9167C0.0410156 15.25 2.74935 17.9583 6.08268 17.9583H15.666C16.9327 17.9583 17.9577 16.9333 17.9577 15.6667V5.66667C17.9577 5.50001 17.891 5.34167 17.7743 5.225ZM12.9577 2.175L15.8243 5.04167H12.9577V2.175ZM1.29102 11.9167C1.29102 9.27501 3.44102 7.125 6.08268 7.125C8.72435 7.125 10.8743 9.27501 10.8743 11.9167C10.8743 14.5583 8.72435 16.7083 6.08268 16.7083C3.44102 16.7083 1.29102 14.5583 1.29102 11.9167ZM15.666 16.7083H9.74935C11.191 15.6 12.1243 13.8667 12.1243 11.9167C12.1243 8.58334 9.41602 5.875 6.08268 5.875C5.58268 5.875 5.09102 5.94167 4.62435 6.05834V2.33334C4.62435 1.75834 5.09102 1.29167 5.66602 1.29167H11.7077V5.66667C11.7077 6.00834 11.991 6.29167 12.3327 6.29167H16.7077V15.6667C16.7077 16.2417 16.241 16.7083 15.666 16.7083ZM8.29935 13.25C8.54102 13.4917 8.54102 13.8917 8.29935 14.1333C8.17435 14.2583 8.01602 14.3167 7.85768 14.3167C7.69935 14.3167 7.54102 14.2583 7.41602 14.1333L5.64102 12.3583C5.52435 12.2417 5.45768 12.0833 5.45768 11.9167V9.41667C5.45768 9.07501 5.74102 8.79167 6.08268 8.79167C6.42435 8.79167 6.70768 9.07501 6.70768 9.41667V11.6583L8.29935 13.25Z" fill="white"/>
</svg>
