<svg width="28" height="28" viewBox="0 0 28 28" fill="none" xmlns="http://www.w3.org/2000/svg">
<path d="M19.834 2.83502H8.16732C4.66732 2.83502 2.33398 5.16836 2.33398 8.66835V15.6684C2.33398 19.1684 4.66732 21.5017 8.16732 21.5017V23.9867C8.16732 24.92 9.20565 25.48 9.97565 24.955L15.1673 21.5017H19.834C23.334 21.5017 25.6673 19.1684 25.6673 15.6684V8.66835C25.6673 5.16836 23.334 2.83502 19.834 2.83502ZM14.0007 17.0334C13.5107 17.0334 13.1257 16.6367 13.1257 16.1584C13.1257 15.68 13.5107 15.2834 14.0007 15.2834C14.4907 15.2834 14.8757 15.68 14.8757 16.1584C14.8757 16.6367 14.4907 17.0334 14.0007 17.0334ZM15.4707 12.1917C15.0157 12.495 14.8757 12.6934 14.8757 13.02V13.265C14.8757 13.7434 14.479 14.14 14.0007 14.14C13.5223 14.14 13.1257 13.7434 13.1257 13.265V13.02C13.1257 11.6667 14.1173 11.0017 14.4907 10.745C14.9223 10.4534 15.0623 10.255 15.0623 9.95169C15.0623 9.36835 14.584 8.89002 14.0007 8.89002C13.4173 8.89002 12.939 9.36835 12.939 9.95169C12.939 10.43 12.5423 10.8267 12.064 10.8267C11.5857 10.8267 11.189 10.43 11.189 9.95169C11.189 8.40002 12.449 7.14002 14.0007 7.14002C15.5523 7.14002 16.8123 8.40002 16.8123 9.95169C16.8123 11.2817 15.8323 11.9467 15.4707 12.1917Z" fill="#797979"/>
</svg>
