<svg width="22" height="22" viewBox="0 0 22 22" fill="none" xmlns="http://www.w3.org/2000/svg">
<path d="M17.5265 8.36073C17.169 8.36073 16.8849 8.6449 16.8849 9.0024V10.4507C16.8849 13.6957 14.2449 16.3357 10.9999 16.3357C7.75488 16.3357 5.11488 13.6957 5.11488 10.4507V8.99323C5.11488 8.63573 4.83071 8.35156 4.47321 8.35156C4.11571 8.35156 3.83154 8.63573 3.83154 8.99323V10.4416C3.83154 14.1724 6.70071 17.2432 10.3582 17.5732V19.5257C10.3582 19.8832 10.6424 20.1674 10.9999 20.1674C11.3574 20.1674 11.6415 19.8832 11.6415 19.5257V17.5732C15.2899 17.2524 18.1682 14.1724 18.1682 10.4416V8.99323C18.159 8.6449 17.8749 8.36073 17.5265 8.36073Z" fill="white"/>
<path d="M10.9999 1.83398C8.76324 1.83398 6.94824 3.64898 6.94824 5.88565V10.579C6.94824 12.8157 8.76324 14.6307 10.9999 14.6307C13.2366 14.6307 15.0516 12.8157 15.0516 10.579V5.88565C15.0516 3.64898 13.2366 1.83398 10.9999 1.83398ZM12.2007 8.20482C12.1366 8.44315 11.9257 8.59898 11.6874 8.59898C11.6416 8.59898 11.5957 8.58982 11.5499 8.58065C11.1924 8.47982 10.8166 8.47982 10.4591 8.58065C10.1657 8.66315 9.88158 8.48898 9.80824 8.20482C9.72574 7.92065 9.89991 7.62732 10.1841 7.55398C10.7249 7.40732 11.2932 7.40732 11.8341 7.55398C12.1091 7.62732 12.2741 7.92065 12.2007 8.20482ZM12.6866 6.42648C12.6041 6.64648 12.4024 6.77482 12.1824 6.77482C12.1182 6.77482 12.0632 6.76565 11.9991 6.74732C11.3574 6.50898 10.6424 6.50898 10.0007 6.74732C9.72574 6.84815 9.41408 6.70148 9.31324 6.42648C9.21241 6.15148 9.35908 5.83982 9.63408 5.74815C10.5141 5.42732 11.4857 5.42732 12.3657 5.74815C12.6407 5.84898 12.7874 6.15148 12.6866 6.42648Z" fill="white"/>
</svg>
