<svg width="22" height="22" viewBox="0 0 22 22" fill="none" xmlns="http://www.w3.org/2000/svg">
<path d="M8.3 20H13.7C18.2 20 20 18.2 20 13.7V8.3C20 3.8 18.2 2 13.7 2H8.3C3.8 2 2 3.8 2 8.3V13.7C2 18.2 3.8 20 8.3 20Z" fill="white"/>
<path fill-rule="evenodd" clip-rule="evenodd" d="M14.1992 11.0508C14.1992 10.3604 14.7566 9.80078 15.4441 9.80078H15.4543C16.1419 9.80078 16.6992 10.3604 16.6992 11.0508C16.6992 11.7411 16.1419 12.3008 15.4543 12.3008H15.4441C14.7566 12.3008 14.1992 11.7411 14.1992 11.0508Z" fill="#00937D"/>
<path fill-rule="evenodd" clip-rule="evenodd" d="M9.69922 11.0508C9.69922 10.3604 10.2566 9.80078 10.9441 9.80078H10.9543C11.6419 9.80078 12.1992 10.3604 12.1992 11.0508C12.1992 11.7411 11.6419 12.3008 10.9543 12.3008H10.9441C10.2566 12.3008 9.69922 11.7411 9.69922 11.0508Z" fill="#00937D"/>
<path fill-rule="evenodd" clip-rule="evenodd" d="M5.19922 11.0508C5.19922 10.3604 5.75657 9.80078 6.44409 9.80078H6.45434C7.14187 9.80078 7.69922 10.3604 7.69922 11.0508C7.69922 11.7411 7.14187 12.3008 6.45434 12.3008H6.44409C5.75657 12.3008 5.19922 11.7411 5.19922 11.0508Z" fill="#00937D"/>
</svg>
