<svg width="22" height="22" viewBox="0 0 22 22" fill="none" xmlns="http://www.w3.org/2000/svg">
<path d="M12.8335 4.58333C12.8335 3.575 12.0085 2.75 11.0002 2.75C9.99183 2.75 9.16683 3.575 9.16683 4.58333C9.16683 5.59167 9.99183 6.41667 11.0002 6.41667C12.0085 6.41667 12.8335 5.59167 12.8335 4.58333Z" stroke="#404040" stroke-width="1.5"/>
<path d="M12.8335 17.4166C12.8335 16.4083 12.0085 15.5833 11.0002 15.5833C9.99183 15.5833 9.16683 16.4083 9.16683 17.4166C9.16683 18.425 9.99183 19.25 11.0002 19.25C12.0085 19.25 12.8335 18.425 12.8335 17.4166Z" stroke="#404040" stroke-width="1.5"/>
<path d="M12.8335 11C12.8335 9.99169 12.0085 9.16669 11.0002 9.16669C9.99183 9.16669 9.16683 9.99169 9.16683 11C9.16683 12.0084 9.99183 12.8334 11.0002 12.8334C12.0085 12.8334 12.8335 12.0084 12.8335 11Z" stroke="#404040" stroke-width="1.5"/>
</svg>
