<svg width="26" height="26" viewBox="0 0 26 26" fill="none" xmlns="http://www.w3.org/2000/svg">
    <path
        d="M24.75 13C24.75 16.8617 21.6757 20 17.8929 20C17.0014 20 16.1455 19.8262 15.3641 19.5071C15.0522 19.3797 14.9937 18.9779 15.214 18.7229C16.5687 17.1554 17.3214 15.1251 17.3214 13C17.3214 10.8674 16.5616 8.82943 15.2171 7.27786C14.9959 7.0226 15.0539 6.61946 15.3666 6.49188C16.1473 6.17344 17.0024 6 17.8929 6C21.6757 6 24.75 9.13833 24.75 13Z"
        fill="#404040" />
    <path
        d="M15.75 13C15.75 15.065 14.8517 16.9317 13.4167 18.2033C12.18 19.3233 10.5467 20 8.75 20C4.88833 20 1.75 16.8617 1.75 13C1.75 9.13833 4.88833 6 8.75 6C10.5467 6 12.18 6.67667 13.4167 7.79667C14.8517 9.06833 15.75 10.935 15.75 13Z"
        fill="#404040" />
</svg>