<svg width="375" height="333" viewBox="0 0 375 333" fill="none" xmlns="http://www.w3.org/2000/svg">
<rect x="1" width="375" height="333" fill="white"/>
<ellipse opacity="0.15" cx="188.5" cy="177" rx="187.5" ry="156" fill="url(#paint0_linear_2507_94466)"/>
<mask id="mask0_2507_94466" style="mask-type:alpha" maskUnits="userSpaceOnUse" x="0" y="0" width="375" height="333">
<ellipse cx="187.5" cy="166.5" rx="187.5" ry="166.5" fill="#00937D"/>
</mask>
<g mask="url(#mask0_2507_94466)">
<path opacity="0.7" d="M183.295 201.329C249.674 201.329 303.485 161.478 303.485 112.32C303.485 63.1615 249.674 23.3109 183.295 23.3109C116.916 23.3109 63.1046 63.1615 63.1046 112.32C63.1046 161.478 116.916 201.329 183.295 201.329Z" stroke="#00937D" stroke-width="0.98324" stroke-miterlimit="10" stroke-dasharray="4.91 4.91"/>
<path d="M248.223 122.571H274.341V270.286H248.223V122.571Z" fill="#F0F8F7" stroke="#181524" stroke-width="0.8"/>
<path d="M274.741 270.978H247.823C247.661 270.978 247.529 270.847 247.529 270.684V122.171C247.529 122.009 247.661 121.877 247.823 121.877H274.741C274.903 121.877 275.034 122.009 275.034 122.171V270.686C275.034 270.848 274.903 270.978 274.741 270.978ZM248.116 270.392H274.448V122.465H248.116V270.392Z" fill="#F0F8F7"/>
<path d="M265.602 266.692L266.48 126.663L181.535 88.7466L98.2941 128.005L101.995 268.886C102.044 270.803 103.699 272.327 105.712 272.31L261.097 271.018C263.591 270.998 265.602 269.067 265.602 266.692Z" fill="#F0F8F7"/>
<path d="M105.68 272.603C103.535 272.603 101.755 270.946 101.701 268.894L98.0017 128.013C97.9991 127.897 98.0642 127.79 98.1692 127.74L181.41 88.4822C181.487 88.4463 181.576 88.445 181.654 88.4796L266.6 126.396C266.706 126.443 266.774 126.548 266.774 126.665L265.896 266.695C265.894 269.219 263.744 271.29 261.101 271.313L105.715 272.605C105.704 272.603 105.692 272.603 105.68 272.603ZM98.5931 128.188L102.289 268.878C102.334 270.625 103.878 272.025 105.711 272.016L261.097 270.724C263.42 270.704 265.31 268.896 265.31 266.691V266.69L266.187 126.851L181.539 89.0696L98.5931 128.188Z" fill="#181524"/>
<path d="M129.087 204.935H113.495C112.819 204.935 112.267 204.384 112.267 203.707V180.221C112.267 179.545 112.818 178.993 113.495 178.993H129.087C129.764 178.993 130.315 179.543 130.315 180.221V203.707C130.315 204.383 129.764 204.935 129.087 204.935ZM113.495 179.579C113.142 179.579 112.853 179.866 112.853 180.221V203.707C112.853 204.06 113.141 204.348 113.495 204.348H129.087C129.441 204.348 129.729 204.06 129.729 203.707V180.221C129.729 179.868 129.442 179.579 129.087 179.579H113.495Z" fill="#181524"/>
<path d="M149.478 204.935H134.073C133.344 204.935 132.751 204.342 132.751 203.612V180.315C132.751 179.586 133.344 178.993 134.073 178.993H149.477C150.206 178.993 150.799 179.586 150.799 180.315V203.612C150.8 204.34 150.206 204.935 149.478 204.935ZM134.073 179.579C133.668 179.579 133.337 179.909 133.337 180.315V203.612C133.337 204.018 133.667 204.348 134.073 204.348H149.477C149.882 204.348 150.213 204.019 150.213 203.612V180.315C150.213 179.91 149.883 179.579 149.477 179.579H134.073Z" fill="#181524"/>
<path d="M129.354 233.106H113.228C112.698 233.106 112.267 232.675 112.267 232.145V208.125C112.267 207.595 112.698 207.165 113.228 207.165H129.354C129.885 207.165 130.315 207.595 130.315 208.125V232.145C130.315 232.674 129.885 233.106 129.354 233.106ZM113.228 207.751C113.022 207.751 112.853 207.918 112.853 208.125V232.145C112.853 232.351 113.021 232.52 113.228 232.52H129.354C129.56 232.52 129.729 232.352 129.729 232.145V208.125C129.729 207.919 129.562 207.751 129.354 207.751H113.228Z" fill="#181524"/>
<path d="M149.451 233.106H134.1C133.356 233.106 132.751 232.501 132.751 231.757V208.513C132.751 207.769 133.356 207.165 134.1 207.165H149.451C150.196 207.165 150.8 207.769 150.8 208.513V231.757C150.8 232.501 150.196 233.106 149.451 233.106ZM134.1 207.751C133.68 207.751 133.338 208.092 133.338 208.512V231.756C133.338 232.176 133.68 232.517 134.1 232.517H149.451C149.871 232.517 150.213 232.176 150.213 231.756V208.512C150.213 208.092 149.871 207.751 149.451 207.751H134.1Z" fill="#181524"/>
<path d="M182.919 129.898H167.326C166.65 129.898 166.098 129.348 166.098 128.671V110.023C166.098 109.347 166.648 108.796 167.326 108.796H182.919C183.596 108.796 184.147 109.346 184.147 110.023V128.671C184.146 129.348 183.596 129.898 182.919 129.898ZM167.326 109.383C166.973 109.383 166.686 109.67 166.686 110.025V128.672C166.686 129.025 166.973 129.314 167.326 129.314H182.919C183.273 129.314 183.561 129.025 183.561 128.672V110.023C183.561 109.67 183.274 109.382 182.919 109.382H167.326V109.383Z" fill="#181524"/>
<path d="M203.309 129.898H187.906C187.176 129.898 186.583 129.306 186.583 128.576V110.118C186.583 109.388 187.176 108.796 187.906 108.796H203.31C204.04 108.796 204.632 109.388 204.632 110.118V128.576C204.631 129.306 204.038 129.898 203.309 129.898ZM187.906 109.383C187.5 109.383 187.171 109.713 187.171 110.119V128.578C187.171 128.983 187.5 129.314 187.906 129.314H203.31C203.715 129.314 204.046 128.984 204.046 128.578V110.119C204.046 109.714 203.717 109.383 203.31 109.383H187.906Z" fill="#181524"/>
<path d="M183.187 152.696H167.06C166.53 152.696 166.1 152.265 166.1 151.735V132.554C166.1 132.024 166.53 131.593 167.06 131.593H183.187C183.717 131.593 184.147 132.024 184.147 132.554V151.735C184.147 152.264 183.715 152.696 183.187 152.696ZM167.06 132.179C166.854 132.179 166.686 132.346 166.686 132.554V151.735C166.686 151.941 166.853 152.11 167.06 152.11H183.187C183.393 152.11 183.561 151.942 183.561 151.735V132.554C183.561 132.348 183.394 132.179 183.187 132.179H167.06Z" fill="#181524"/>
<path d="M203.284 152.696H187.932C187.188 152.696 186.583 152.091 186.583 151.347V132.94C186.583 132.196 187.188 131.592 187.932 131.592H203.284C204.028 131.592 204.632 132.196 204.632 132.94V151.347C204.631 152.09 204.026 152.696 203.284 152.696ZM187.932 132.179C187.512 132.179 187.171 132.52 187.171 132.94V151.347C187.171 151.767 187.512 152.108 187.932 152.108H203.284C203.703 152.108 204.045 151.767 204.045 151.347V132.94C204.045 132.52 203.703 132.179 203.284 132.179H187.932Z" fill="#181524"/>
<path d="M236.467 204.891H220.874C220.198 204.891 219.646 204.341 219.646 203.663V180.139C219.646 179.462 220.196 178.911 220.874 178.911H236.467C237.144 178.911 237.695 179.461 237.695 180.139V203.663C237.695 204.341 237.144 204.891 236.467 204.891ZM220.874 179.498C220.521 179.498 220.232 179.787 220.232 180.14V203.664C220.232 204.018 220.519 204.306 220.874 204.306H236.467C236.821 204.306 237.108 204.018 237.108 203.664V180.139C237.108 179.785 236.821 179.497 236.467 179.497H220.874V179.498Z" fill="#181524"/>
<path d="M256.858 204.891H241.453C240.724 204.891 240.131 204.298 240.131 203.569V180.233C240.131 179.504 240.724 178.911 241.453 178.911H256.858C257.588 178.911 258.18 179.504 258.18 180.233V203.569C258.179 204.298 257.586 204.891 256.858 204.891ZM241.453 179.498C241.048 179.498 240.719 179.828 240.719 180.234V203.57C240.719 203.975 241.048 204.306 241.453 204.306H256.858C257.263 204.306 257.594 203.977 257.594 203.57V180.234C257.594 179.829 257.265 179.498 256.858 179.498H241.453Z" fill="#181524"/>
<path d="M236.734 233.106H220.608C220.078 233.106 219.648 232.675 219.648 232.145V208.087C219.648 207.556 220.078 207.126 220.608 207.126H236.734C237.265 207.126 237.695 207.556 237.695 208.087V232.145C237.695 232.674 237.265 233.106 236.734 233.106ZM220.608 207.712C220.402 207.712 220.234 207.879 220.234 208.087V232.145C220.234 232.351 220.402 232.52 220.608 232.52H236.734C236.94 232.52 237.109 232.352 237.109 232.145V208.087C237.109 207.881 236.942 207.712 236.734 207.712H220.608Z" fill="#181524"/>
<path d="M256.831 232.812H241.48C240.897 232.812 240.425 232.339 240.425 231.757V208.475C240.425 207.891 240.898 207.42 241.48 207.42H256.831C257.415 207.42 257.886 207.893 257.886 208.475V231.757C257.886 232.339 257.415 232.812 256.831 232.812Z" fill="#DAF3F0"/>
<path d="M184.065 75.5561L91.7996 124.797C89.8435 125.841 89.4728 127.962 91.001 129.372L98.7577 136.523L184.737 92.3892C185.278 92.1114 185.978 92.1101 186.522 92.3839L274.185 136.617L279.203 130.639C281.267 128.179 280.419 124.894 277.292 123.238L187.194 75.5507C186.251 75.0511 185.007 75.0524 184.065 75.5561Z" fill="#181524"/>
<path d="M206.773 272.869H163.77C162.799 272.869 162.011 272.081 162.011 271.11V178.702C162.011 177.731 162.799 176.943 163.77 176.943H206.773C207.745 176.943 208.533 177.731 208.533 178.702V271.11C208.533 272.081 207.745 272.869 206.773 272.869Z" fill="#181524"/>
<path d="M204.988 269.481H165.738C165.091 269.481 164.565 268.956 164.565 268.307V180.79C164.565 180.143 165.09 179.617 165.738 179.617H204.988C205.636 179.617 206.162 180.142 206.162 180.79V268.308C206.161 268.956 205.636 269.481 204.988 269.481Z" fill="#DAF3F0"/>
<path d="M214.66 273.793H156.081C155.623 273.793 155.25 273.421 155.25 272.962V264.255C155.25 263.797 155.623 263.425 156.081 263.425H214.66C215.119 263.425 215.491 263.797 215.491 264.255V272.962C215.491 273.422 215.119 273.793 214.66 273.793Z" fill="#DFF2EF"/>
<path d="M214.66 274.087H156.081C155.462 274.087 154.957 273.583 154.957 272.962V264.255C154.957 263.636 155.46 263.131 156.081 263.131H214.66C215.279 263.131 215.784 263.635 215.784 264.255V272.962C215.783 273.583 215.279 274.087 214.66 274.087ZM156.081 263.719C155.785 263.719 155.544 263.959 155.544 264.255V272.962C155.544 273.259 155.785 273.499 156.081 273.499H214.66C214.956 273.499 215.197 273.259 215.197 272.962V264.255C215.197 263.959 214.956 263.719 214.66 263.719H156.081Z" fill="#181524"/>
<path d="M113.876 165.809C113.703 165.809 113.563 165.678 113.562 165.517C113.562 165.355 113.701 165.223 113.875 165.223L251.602 165.013C251.775 165.013 251.915 165.145 251.916 165.306C251.916 165.468 251.777 165.599 251.603 165.599L113.876 165.809Z" fill="#181524"/>
<path d="M171.281 200.131C171.207 200.131 171.131 200.101 171.074 200.044C170.959 199.93 170.959 199.744 171.074 199.63L186.068 184.636C186.182 184.521 186.368 184.521 186.482 184.636C186.597 184.75 186.597 184.936 186.482 185.05L171.488 200.044C171.431 200.101 171.357 200.131 171.281 200.131Z" fill="#181524"/>
<path d="M170.752 188.84C170.678 188.84 170.602 188.811 170.545 188.754C170.431 188.64 170.431 188.454 170.545 188.339L175.308 183.577C175.422 183.462 175.608 183.462 175.722 183.577C175.836 183.691 175.836 183.877 175.722 183.991L170.959 188.754C170.902 188.813 170.827 188.84 170.752 188.84Z" fill="#181524"/>
<path d="M114.198 285.666C114.148 285.666 114.097 285.654 114.052 285.631C113.952 285.58 113.886 285.483 113.874 285.373C113.853 285.174 111.961 265.267 124.662 250.074C125.044 249.618 125.736 249.973 126.468 250.349C126.786 250.511 127.379 250.814 127.532 250.769C127.696 250.582 127.621 249.686 127.566 249.033C127.479 247.999 127.405 247.106 127.843 246.694C130.331 244.345 133.128 242.354 136.151 240.773C136.244 240.724 136.355 240.724 136.449 240.77C136.543 240.817 136.608 240.908 136.624 241.011C136.636 241.082 137.71 248.187 135.662 257.278C135.552 257.764 134.86 258.063 133.743 258.509C133.203 258.725 132.311 259.082 132.181 259.297C132.27 259.469 132.842 259.79 133.19 259.984C133.978 260.426 134.723 260.843 134.531 261.444C132.038 269.266 127.869 277.609 114.365 285.622C114.313 285.651 114.256 285.666 114.198 285.666ZM125.144 250.513C113.778 264.125 114.282 281.581 114.483 284.789C126.713 277.418 131.106 270.037 133.908 261.246C133.858 261.107 133.215 260.747 132.87 260.553C132.106 260.124 131.386 259.72 131.542 259.142C131.675 258.653 132.373 258.353 133.5 257.902C134.037 257.687 134.936 257.328 135.028 257.124C136.75 249.479 136.234 243.266 136.039 241.569C133.227 243.086 130.623 244.966 128.291 247.165C128.082 247.362 128.164 248.333 128.217 248.975C128.3 249.96 128.371 250.812 127.986 251.227C127.59 251.656 126.899 251.302 126.171 250.928C125.848 250.766 125.313 250.491 125.144 250.513Z" fill="#00937D"/>
<path d="M117.355 261.758C117.228 261.081 114.275 261.892 114.13 261.237C113.987 260.593 116.601 257.672 116.443 257.05C113.336 244.847 107.498 237.141 107.498 237.141C104.644 241.345 102.088 246.995 100.759 251.407C100.546 252.113 102.99 254.625 102.811 255.332C102.614 256.107 99.7709 255.83 99.6126 256.605C97.2749 268.045 99.4574 276.988 101.984 285.875C107.124 286.036 111.94 285.974 116.5 285.536C118.884 276.2 118.729 269.082 117.355 261.758Z" fill="#00937D"/>
<path d="M109.848 282.462C109.688 282.462 109.549 282.345 109.525 282.182C108.961 278.35 108.489 274.452 108.124 270.594C108.107 270.415 108.239 270.256 108.418 270.239C108.598 270.223 108.757 270.355 108.773 270.534C109.137 274.38 109.607 278.266 110.17 282.088C110.197 282.267 110.073 282.432 109.895 282.458C109.88 282.46 109.864 282.462 109.848 282.462Z" fill="white"/>
<path d="M107.995 265.384C107.825 265.384 107.682 265.252 107.67 265.081C107.214 258.563 107.043 251.944 107.161 245.41L107.214 242.423C107.217 242.243 107.362 242.098 107.547 242.103C107.727 242.105 107.871 242.255 107.868 242.435L107.815 245.422C107.698 251.937 107.869 258.535 108.322 265.035C108.335 265.215 108.199 265.37 108.019 265.382C108.011 265.382 108.002 265.384 107.995 265.384Z" fill="white"/>
<path d="M115.344 285.625C115.344 285.625 120.096 265.428 141.176 267.658C141.176 267.658 138.529 284.248 115.344 285.625Z" fill="#00937D"/>
<path d="M119.836 282.719C119.753 282.719 119.669 282.688 119.605 282.625C119.478 282.497 119.477 282.29 119.604 282.163C124.498 277.244 135.306 271.174 135.413 271.113C135.57 271.025 135.77 271.082 135.857 271.239C135.946 271.396 135.89 271.595 135.731 271.683C135.623 271.743 124.896 277.769 120.065 282.623C120.003 282.687 119.92 282.719 119.836 282.719Z" fill="white"/>
<path d="M121.266 269.463C121.188 269.463 121.109 269.435 121.047 269.379C120.914 269.258 120.904 269.052 121.025 268.918C123.049 266.689 125.471 263.003 126.818 260.514C130.947 252.879 133.534 246.046 133.559 245.978C133.623 245.809 133.811 245.724 133.979 245.787C134.148 245.851 134.234 246.039 134.17 246.207C134.145 246.275 131.542 253.149 127.392 260.823C126.027 263.347 123.568 267.088 121.508 269.355C121.443 269.428 121.355 269.463 121.266 269.463Z" fill="#00937D"/>
<g opacity="0.5">
<path d="M313.687 174.238C313.614 174.238 313.54 174.21 313.484 174.154L312.39 173.06C312.279 172.949 312.279 172.767 312.39 172.655C312.502 172.543 312.684 172.543 312.796 172.655L313.89 173.748C314.001 173.86 314.001 174.042 313.89 174.154C313.834 174.21 313.761 174.238 313.687 174.238Z" fill="#00937D"/>
<path d="M317.516 178.064C317.443 178.064 317.369 178.035 317.313 177.979L316.22 176.886C316.108 176.774 316.108 176.592 316.22 176.48C316.331 176.368 316.514 176.368 316.625 176.48L317.719 177.574C317.831 177.685 317.831 177.868 317.719 177.979C317.663 178.037 317.589 178.064 317.516 178.064Z" fill="#00937D"/>
<path d="M312.593 178.064C312.52 178.064 312.446 178.035 312.39 177.979C312.279 177.868 312.279 177.685 312.39 177.574L313.484 176.48C313.596 176.368 313.778 176.368 313.89 176.48C314.001 176.592 314.001 176.774 313.89 176.886L312.796 177.979C312.74 178.037 312.666 178.064 312.593 178.064Z" fill="#00937D"/>
<path d="M316.423 174.239C316.35 174.239 316.276 174.21 316.22 174.154C316.108 174.042 316.108 173.86 316.22 173.748L317.313 172.655C317.425 172.543 317.607 172.543 317.719 172.655C317.831 172.767 317.831 172.949 317.719 173.06L316.625 174.154C316.569 174.21 316.495 174.239 316.423 174.239Z" fill="#00937D"/>
<path d="M304.894 172.133C303.461 172.133 302.296 170.968 302.296 169.537C302.296 168.105 303.463 166.94 304.894 166.94C306.326 166.94 307.492 168.105 307.492 169.537C307.492 170.968 306.327 172.133 304.894 172.133ZM304.894 167.514C303.777 167.514 302.87 168.421 302.87 169.537C302.87 170.652 303.777 171.56 304.894 171.56C306.011 171.56 306.919 170.652 306.919 169.537C306.919 168.421 306.011 167.514 304.894 167.514Z" fill="#00937D"/>
<path d="M305.572 185.03C304.574 185.03 303.763 184.218 303.763 183.222C303.763 182.226 304.574 181.415 305.572 181.415C306.569 181.415 307.38 182.226 307.38 183.222C307.38 184.22 306.569 185.03 305.572 185.03ZM305.572 181.99C304.89 181.99 304.336 182.543 304.336 183.224C304.336 183.904 304.89 184.458 305.572 184.458C306.253 184.458 306.807 183.904 306.807 183.224C306.807 182.543 306.252 181.99 305.572 181.99Z" fill="#00937D"/>
</g>
<g opacity="0.5">
<mask id="path-42-inside-1_2507_94466" fill="white">
<path d="M145.277 67.1256C145.139 67.1256 145.022 67.0221 145.008 66.8829L144.854 65.4253C144.838 65.2762 144.946 65.1419 145.095 65.1259C145.245 65.1098 145.379 65.2183 145.395 65.3673L145.549 66.825C145.565 66.974 145.456 67.1083 145.307 67.1244C145.297 67.1244 145.287 67.1256 145.277 67.1256Z"/>
</mask>
<path d="M145.008 66.8829L144.277 66.96L144.277 66.9604L145.008 66.8829ZM144.854 65.4253L145.584 65.3481L145.584 65.3468L144.854 65.4253ZM145.095 65.1259L145.017 64.3955L145.017 64.3956L145.095 65.1259ZM145.395 65.3673L146.125 65.2902L146.125 65.2889L145.395 65.3673ZM145.549 66.825L144.818 66.9021L144.818 66.9034L145.549 66.825ZM145.307 67.1244V67.8588H145.346L145.385 67.8546L145.307 67.1244ZM145.277 66.3911C145.512 66.3911 145.713 66.5678 145.738 66.8053L144.277 66.9604C144.332 67.4764 144.767 67.8601 145.277 67.8601V66.3911ZM145.738 66.8057L145.584 65.3481L144.123 65.5024L144.277 66.96L145.738 66.8057ZM145.584 65.3468C145.611 65.6017 145.427 65.8289 145.174 65.8561L145.017 64.3956C144.465 64.4549 144.064 64.9506 144.123 65.5037L145.584 65.3468ZM145.173 65.8562C144.918 65.8833 144.691 65.6978 144.664 65.4458L146.125 65.2889C146.066 64.7388 145.573 64.3363 145.017 64.3955L145.173 65.8562ZM144.664 65.4445L144.818 66.9021L146.279 66.7478L146.125 65.2902L144.664 65.4445ZM144.818 66.9034C144.791 66.6485 144.975 66.4214 145.229 66.3941L145.385 67.8546C145.937 67.7953 146.338 67.2996 146.279 66.7465L144.818 66.9034ZM145.307 66.3899C145.29 66.3899 145.275 66.3905 145.265 66.3909C145.256 66.3913 145.248 66.3919 145.246 66.392C145.243 66.3922 145.246 66.392 145.25 66.3918C145.255 66.3915 145.265 66.3911 145.277 66.3911V67.8601C145.295 67.8601 145.309 67.8595 145.319 67.8591C145.328 67.8586 145.337 67.8581 145.338 67.858C145.341 67.8578 145.338 67.858 145.334 67.8582C145.329 67.8584 145.32 67.8588 145.307 67.8588V66.3899Z" fill="#00937D" mask="url(#path-42-inside-1_2507_94466)"/>
<path d="M145.911 71.9437L145.911 71.9434C145.911 71.9435 145.911 71.9436 145.911 71.9437ZM145.911 71.9437C145.911 71.9437 145.911 71.9438 145.911 71.9439M145.911 71.9437L145.911 71.9439M145.911 71.9439L145.911 71.9441L145.816 71.9541L145.816 71.9542L145.812 71.9546L145.546 71.9827L145.812 71.9545L145.816 71.954L145.816 71.954L145.911 71.9439Z" stroke="#00937D" stroke-width="0.734455"/>
<mask id="path-45-inside-2_2507_94466" fill="white">
<path d="M142.191 69.2905C142.053 69.2905 141.936 69.187 141.921 69.0466C141.905 68.8975 142.014 68.7632 142.164 68.7484L143.621 68.5956C143.771 68.5796 143.905 68.688 143.92 68.8371C143.936 68.9862 143.827 69.1205 143.677 69.1353L142.219 69.2881C142.209 69.2905 142.2 69.2905 142.191 69.2905Z"/>
</mask>
<path d="M141.921 69.0466L142.652 68.9697L142.651 68.9681L141.921 69.0466ZM142.164 68.7484L142.236 69.4793L142.24 69.4788L142.164 68.7484ZM143.621 68.5956L143.698 69.326L143.7 69.3258L143.621 68.5956ZM143.92 68.8371L143.189 68.9096L143.189 68.9155L143.92 68.8371ZM143.677 69.1353L143.605 68.4043L143.6 68.4048L143.677 69.1353ZM142.219 69.2881L142.143 68.5576L142.091 68.563L142.041 68.5755L142.219 69.2881ZM142.191 68.5561C142.427 68.5561 142.627 68.7348 142.652 68.9697L141.191 69.1234C141.245 69.6393 141.679 70.025 142.191 70.025V68.5561ZM142.651 68.9681C142.679 69.2237 142.493 69.454 142.236 69.4793L142.092 68.0175C141.534 68.0723 141.131 68.5713 141.191 69.125L142.651 68.9681ZM142.24 69.4788L143.698 69.326L143.545 67.8651L142.087 68.0179L142.24 69.4788ZM143.7 69.3258C143.446 69.3531 143.215 69.1695 143.189 68.9096L144.651 68.7646C144.595 68.2065 144.095 67.8061 143.543 67.8653L143.7 69.3258ZM143.189 68.9155C143.162 68.66 143.348 68.4296 143.605 68.4043L143.749 69.8662C144.307 69.8113 144.709 69.3124 144.65 68.7586L143.189 68.9155ZM143.6 68.4048L142.143 68.5576L142.296 70.0185L143.753 69.8657L143.6 68.4048ZM142.041 68.5755C142.091 68.563 142.133 68.5589 142.157 68.5573C142.18 68.5558 142.198 68.5561 142.191 68.5561V70.025C142.192 70.025 142.22 70.0252 142.252 70.0231C142.286 70.0209 142.337 70.0156 142.397 70.0006L142.041 68.5755Z" fill="#00937D" mask="url(#path-45-inside-2_2507_94466)"/>
<mask id="path-47-inside-3_2507_94466" fill="white">
<path d="M147.292 68.7558C147.154 68.7558 147.037 68.6523 147.022 68.5118C147.006 68.3628 147.114 68.2284 147.265 68.2137L148.722 68.0609C148.87 68.0449 149.006 68.1533 149.021 68.3024C149.037 68.4515 148.928 68.5858 148.778 68.6006L147.32 68.7533C147.31 68.7558 147.301 68.7558 147.292 68.7558Z"/>
</mask>
<path d="M147.022 68.5118L147.752 68.435L147.752 68.4334L147.022 68.5118ZM147.265 68.2137L147.337 68.9446L147.341 68.9441L147.265 68.2137ZM148.722 68.0609L148.799 68.7913L148.802 68.7911L148.722 68.0609ZM149.021 68.3024L148.29 68.3749L148.29 68.3808L149.021 68.3024ZM148.778 68.6006L148.706 67.8696L148.701 67.8701L148.778 68.6006ZM147.32 68.7533L147.244 68.0229L147.192 68.0283L147.142 68.0408L147.32 68.7533ZM147.292 68.0213C147.528 68.0213 147.728 68.2 147.752 68.435L146.292 68.5887C146.346 69.1046 146.78 69.4903 147.292 69.4903V68.0213ZM147.752 68.4334C147.78 68.689 147.594 68.9193 147.337 68.9446L147.193 67.4827C146.635 67.5376 146.232 68.0365 146.292 68.5903L147.752 68.4334ZM147.341 68.9441L148.799 68.7913L148.646 67.3304L147.188 67.4832L147.341 68.9441ZM148.802 68.7911C148.548 68.8185 148.316 68.6363 148.29 68.3749L149.751 68.2299C149.696 67.6702 149.193 67.2712 148.643 67.3307L148.802 68.7911ZM148.29 68.3808C148.263 68.1253 148.449 67.8949 148.706 67.8696L148.85 69.3315C149.408 69.2766 149.81 68.7777 149.751 68.2239L148.29 68.3808ZM148.701 67.8701L147.244 68.0229L147.397 69.4838L148.854 69.331L148.701 67.8701ZM147.142 68.0408C147.192 68.0283 147.234 68.0242 147.258 68.0226C147.281 68.0211 147.299 68.0213 147.292 68.0213V69.4903C147.293 69.4903 147.321 69.4905 147.353 69.4884C147.387 69.4862 147.438 69.4809 147.498 69.4659L147.142 68.0408Z" fill="#00937D" mask="url(#path-47-inside-3_2507_94466)"/>
<mask id="path-49-inside-4_2507_94466" fill="white">
<path d="M132.522 76.3936C131.978 76.3936 131.43 76.2149 130.975 75.8453C130.464 75.4313 130.144 74.8436 130.075 74.1893C130.006 73.535 130.196 72.8943 130.61 72.383C131.024 71.8717 131.612 71.5525 132.266 71.4848C132.92 71.4158 133.561 71.6067 134.072 72.0207C135.127 72.8746 135.292 74.4283 134.438 75.483C133.952 76.0818 133.24 76.3936 132.522 76.3936ZM132.525 72.0158C132.457 72.0158 132.389 72.0195 132.322 72.0269C131.813 72.0799 131.354 72.3288 131.032 72.7268C130.71 73.1247 130.562 73.6237 130.615 74.1338C130.669 74.6427 130.918 75.1011 131.316 75.4239C132.138 76.0892 133.348 75.9623 134.013 75.1417C134.679 74.3199 134.551 73.1099 133.729 72.4446C133.384 72.1637 132.962 72.0158 132.525 72.0158Z"/>
</mask>
<path d="M134.225 75.679H134.228V74.9445H134.225V75.679ZM130.975 75.8453L131.438 75.2754L131.437 75.2745L130.975 75.8453ZM132.266 71.4848L132.342 72.2153L132.343 72.2152L132.266 71.4848ZM134.072 72.0207L133.61 72.5916L133.61 72.5916L134.072 72.0207ZM134.438 75.483L135.008 75.9463L135.009 75.9452L134.438 75.483ZM132.322 72.0269L132.398 72.7574L132.401 72.757L132.322 72.0269ZM131.032 72.7268L130.461 72.2641L130.46 72.2651L131.032 72.7268ZM130.615 74.1338L129.885 74.2097L129.885 74.2117L130.615 74.1338ZM131.316 75.4239L130.853 75.9943L130.854 75.9947L131.316 75.4239ZM134.013 75.1417L134.584 75.6043L134.584 75.6039L134.013 75.1417ZM133.729 72.4446L133.265 73.0141L133.267 73.0154L133.729 72.4446ZM132.522 75.6591C132.139 75.6591 131.756 75.5338 131.438 75.2754L130.512 76.4152C131.103 76.8961 131.817 77.128 132.522 77.128V75.6591ZM131.437 75.2745C131.077 74.9831 130.854 74.573 130.806 74.1123L129.345 74.2663C129.434 75.1141 129.85 75.8795 130.513 76.4161L131.437 75.2745ZM130.806 74.1123C130.757 73.6519 130.89 73.2051 131.181 72.8451L130.039 71.9208C129.503 72.5835 129.256 73.4182 129.345 74.2663L130.806 74.1123ZM131.181 72.8451C131.472 72.4852 131.882 72.2629 132.342 72.2153L132.19 70.7542C131.342 70.8421 130.576 71.2581 130.039 71.9208L131.181 72.8451ZM132.343 72.2152C132.803 72.1667 133.25 72.2995 133.61 72.5916L134.535 71.4499C133.873 70.914 133.038 70.6648 132.189 70.7544L132.343 72.2152ZM133.61 72.5916C134.35 73.1908 134.466 74.2821 133.868 75.0209L135.009 75.9452C136.119 74.5745 135.904 72.5585 134.535 71.4499L133.61 72.5916ZM133.868 75.0198C133.527 75.4396 133.028 75.6591 132.522 75.6591V77.128C133.451 77.128 134.376 76.724 135.008 75.9463L133.868 75.0198ZM132.525 71.2814C132.43 71.2814 132.336 71.2865 132.242 71.2968L132.401 72.757C132.443 72.7525 132.484 72.7503 132.525 72.7503V71.2814ZM132.246 71.2964C131.542 71.3696 130.906 71.7153 130.461 72.2641L131.602 73.1894C131.802 72.9422 132.083 72.7901 132.398 72.7574L132.246 71.2964ZM130.46 72.2651C130.016 72.8144 129.812 73.5067 129.885 74.2097L131.346 74.058C131.313 73.7408 131.403 73.4351 131.603 73.1884L130.46 72.2651ZM129.885 74.2117C129.96 74.9137 130.305 75.5491 130.853 75.9943L131.779 74.8535C131.532 74.653 131.379 74.3718 131.345 74.056L129.885 74.2117ZM130.854 75.9947C131.991 76.915 133.663 76.74 134.584 75.6043L133.443 74.6792C133.033 75.1847 132.285 75.2634 131.778 74.8531L130.854 75.9947ZM134.584 75.6039C135.505 74.4663 135.327 72.794 134.191 71.8738L133.267 73.0154C133.774 73.4259 133.852 74.1735 133.442 74.6796L134.584 75.6039ZM134.192 71.8751C133.716 71.487 133.13 71.2814 132.525 71.2814V72.7503C132.794 72.7503 133.052 72.8404 133.265 73.0141L134.192 71.8751Z" fill="#00937D" mask="url(#path-49-inside-4_2507_94466)"/>
<mask id="path-51-inside-5_2507_94466" fill="white">
<path d="M124.861 86.1286C124.481 86.1286 124.101 86.0042 123.784 85.7479C123.05 85.1528 122.935 84.0722 123.529 83.3378C124.123 82.6035 125.205 82.4901 125.939 83.0852C126.673 83.6804 126.788 84.7609 126.194 85.4953C125.855 85.9117 125.36 86.1286 124.861 86.1286ZM124.861 83.2479C124.52 83.2479 124.182 83.3957 123.952 83.6804C123.546 84.1818 123.624 84.9186 124.125 85.3253C124.627 85.7306 125.365 85.6542 125.77 85.1528C126.176 84.6513 126.098 83.9145 125.597 83.5079C125.381 83.3329 125.12 83.2479 124.861 83.2479Z"/>
</mask>
<path d="M125.982 85.6912H125.985V84.9568H125.982V85.6912ZM123.784 85.7479L123.322 86.3185L123.322 86.3188L123.784 85.7479ZM126.194 85.4953L126.764 85.9588L126.765 85.9571L126.194 85.4953ZM123.952 83.6804L123.381 83.2182L123.38 83.2186L123.952 83.6804ZM124.125 85.3253L123.663 85.8957L123.664 85.8964L124.125 85.3253ZM125.597 83.5079L125.134 84.0782L125.134 84.0784L125.597 83.5079ZM124.861 85.3941C124.643 85.3941 124.427 85.3232 124.246 85.177L123.322 86.3188C123.775 86.6851 124.32 86.8631 124.861 86.8631V85.3941ZM124.247 85.1773C123.826 84.8368 123.762 84.2182 124.1 83.7997L122.958 82.876C122.109 83.9262 122.273 85.4687 123.322 86.3185L124.247 85.1773ZM124.1 83.7997C124.438 83.3814 125.057 83.3159 125.477 83.6558L126.402 82.5146C125.352 81.6643 123.807 81.8255 122.958 82.876L124.1 83.7997ZM125.477 83.6558C125.897 83.9963 125.962 84.615 125.623 85.0334L126.765 85.9571C127.615 84.9069 127.45 83.3644 126.402 82.5146L125.477 83.6558ZM125.624 85.0318C125.431 85.2696 125.148 85.3941 124.861 85.3941V86.8631C125.571 86.8631 126.28 86.5539 126.764 85.9588L125.624 85.0318ZM124.861 82.5134C124.308 82.5134 123.757 82.7534 123.381 83.2182L124.523 84.1425C124.607 84.0381 124.731 83.9823 124.861 83.9823V82.5134ZM123.38 83.2186C122.72 84.0356 122.847 85.2342 123.663 85.8957L124.588 84.7548C124.401 84.6031 124.372 84.3281 124.523 84.1421L123.38 83.2186ZM123.664 85.8964C124.479 86.5555 125.68 86.433 126.341 85.6145L125.199 84.691C125.05 84.8754 124.775 84.9058 124.587 84.7541L123.664 85.8964ZM126.341 85.6145C127.002 84.7975 126.875 83.5989 126.059 82.9374L125.134 84.0784C125.321 84.23 125.349 84.505 125.199 84.691L126.341 85.6145ZM126.059 82.9375C125.707 82.6515 125.28 82.5134 124.861 82.5134V83.9823C124.959 83.9823 125.055 84.0143 125.134 84.0782L126.059 82.9375Z" fill="#00937D" mask="url(#path-51-inside-5_2507_94466)"/>
</g>
<path d="M181.452 298.644C176.792 298.644 172.638 298.19 169.173 297.585C158.819 295.778 152.204 292.269 152.139 292.233C152.017 292.167 151.97 292.015 152.036 291.892C152.102 291.77 152.254 291.723 152.377 291.789C152.442 291.825 159 295.301 169.28 297.092C178.761 298.745 193.439 299.26 209.522 292.33C209.65 292.275 209.798 292.335 209.853 292.461C209.908 292.589 209.85 292.738 209.722 292.792C199.392 297.242 189.641 298.644 181.452 298.644Z" fill="#181524"/>
<path d="M172.273 304.407C166.936 304.407 151.853 303.434 138.534 293.39C138.424 293.307 138.401 293.148 138.485 293.038C138.568 292.927 138.726 292.904 138.838 292.988C155.117 305.265 174.043 303.865 174.231 303.849C174.369 303.836 174.491 303.94 174.503 304.079C174.514 304.217 174.412 304.339 174.272 304.351C174.236 304.354 173.521 304.407 172.273 304.407Z" fill="#181524"/>
<path d="M247.346 213.381C245.511 212.371 242.285 211.921 238.704 208.519C236.961 206.861 234.441 204.468 234.273 200.878C234.076 196.685 237.162 192.187 241.365 191.228C252.602 188.667 257.156 196.644 260.149 201.75C262.167 205.191 265.51 209.345 268.111 210.703C274.164 213.863 279.651 205.871 285.887 208.225C291.256 210.251 289.432 217.02 295.325 220.667C302.094 224.856 307.661 217.881 315.771 221.351C323.219 224.537 328.352 234.621 326.459 241.4C325.148 246.095 321.469 245.606 318.25 251.126C313.236 259.727 319.014 266.324 315.733 273.797C311.336 283.811 294.662 286.311 284.167 285.131C282.222 284.912 261.91 282.315 253.553 266.176C243.411 246.594 256.836 218.602 247.346 213.381Z" fill="#181524"/>
<path d="M236.652 331.681H289.851C288.17 316.169 285.368 302.909 280.814 295.15L248.901 297.052C248.901 297.052 249.205 298.007 249.746 299.776L241.038 300.465C241.037 300.464 238.808 315.585 236.652 331.681Z" fill="#181524"/>
<path d="M236.881 301.848C236.881 301.848 235.949 319.631 239.327 322.69C239.327 322.69 248.337 310.201 248.064 301.848H236.881Z" fill="url(#paint1_linear_2507_94466)"/>
<path d="M239.326 322.984C239.253 322.984 239.184 322.958 239.129 322.908C235.688 319.792 236.549 302.566 236.587 301.834C236.595 301.678 236.724 301.555 236.879 301.555H248.061C248.22 301.555 248.35 301.68 248.355 301.839C248.628 310.196 239.934 322.349 239.563 322.862C239.514 322.93 239.439 322.974 239.355 322.982C239.346 322.983 239.337 322.984 239.326 322.984ZM237.16 302.142C237.064 304.348 236.541 318.942 239.292 322.229C240.607 320.337 247.827 309.594 247.775 302.142H237.16Z" fill="#181524"/>
<path d="M250.833 300.654C250.833 300.654 255.239 314.494 259.269 317.656C263.3 320.818 272.017 304.043 277.63 303.149C283.243 302.254 290.739 315.873 290.739 315.873C290.739 315.873 287.563 298.257 282.577 294.95L250.833 300.654Z" fill="url(#paint2_linear_2507_94466)"/>
<path d="M260.404 318.349C259.934 318.349 259.494 318.204 259.09 317.886C255.034 314.705 250.735 301.31 250.554 300.742C250.529 300.661 250.538 300.574 250.582 300.501C250.626 300.429 250.698 300.379 250.782 300.364L282.526 294.66C282.601 294.647 282.678 294.663 282.74 294.704C287.773 298.041 290.899 315.095 291.029 315.819C291.055 315.96 290.975 316.1 290.839 316.147C290.703 316.195 290.553 316.138 290.484 316.012C290.409 315.877 283.028 302.583 277.678 303.436C275.21 303.829 272.015 307.542 268.926 311.133C265.747 314.828 262.717 318.349 260.404 318.349ZM251.217 300.883C251.906 302.968 255.874 314.618 259.452 317.424C261.414 318.963 265.005 314.788 268.48 310.752C271.639 307.081 274.905 303.286 277.586 302.859C282.237 302.118 287.937 310.629 290.11 314.208C289.172 309.753 286.378 297.988 282.511 295.26L251.217 300.883Z" fill="#181524"/>
<path d="M194.54 222.369L187.319 215.355C187.319 215.355 185.304 216.96 188.39 220.728C187.547 220.757 186.671 220.815 185.263 220.914C184.13 220.994 183.004 220.696 182.143 219.924C181.14 219.027 179.892 217.934 179.428 217.638C178.607 217.115 177.535 216.285 176.431 216.301C175.323 216.317 174.225 217.2 174.225 217.2L178.108 222.343C179.705 224.458 181.907 225.985 184.394 226.7L188.358 227.84C190.621 228.491 192.282 230.507 192.563 232.94L194.493 249.666L202.907 241.531C202.91 241.531 197.738 226.846 194.54 222.369Z" fill="#FFB583"/>
<path d="M194.497 249.96C194.464 249.96 194.43 249.955 194.398 249.943C194.293 249.905 194.219 249.811 194.205 249.7L192.274 232.975C192.005 230.648 190.438 228.744 188.281 228.122L184.316 226.982C181.751 226.244 179.524 224.701 177.878 222.52L173.995 217.377C173.899 217.251 173.921 217.071 174.045 216.971C174.093 216.933 175.235 216.024 176.431 216.006C177.47 215.997 178.451 216.639 179.238 217.159C179.36 217.24 179.478 217.318 179.591 217.389C179.978 217.636 180.903 218.414 182.342 219.703C183.09 220.374 184.121 220.699 185.245 220.619C186.35 220.54 187.126 220.488 187.809 220.456C186.756 219.048 186.282 217.775 186.4 216.669C186.51 215.635 187.114 215.144 187.14 215.122C187.256 215.031 187.421 215.039 187.527 215.141L194.746 222.155C194.758 222.167 194.77 222.18 194.781 222.195C197.966 226.654 202.976 240.83 203.188 241.431C203.227 241.539 203.197 241.66 203.115 241.74L194.701 249.875C194.645 249.931 194.572 249.96 194.497 249.96ZM174.643 217.263L178.345 222.166C179.914 224.245 182.035 225.714 184.477 226.417L188.442 227.557C190.828 228.244 192.561 230.343 192.857 232.905L194.719 249.04L202.569 241.451C201.97 239.771 197.264 226.711 194.316 222.561L187.331 215.775C186.964 216.267 186.325 217.741 188.619 220.542C188.689 220.628 188.705 220.747 188.659 220.849C188.612 220.95 188.512 221.018 188.402 221.022C187.575 221.05 186.703 221.107 185.285 221.207C184.002 221.299 182.816 220.92 181.948 220.142C180.573 218.911 179.623 218.11 179.273 217.886C179.157 217.813 179.036 217.733 178.911 217.65C178.198 217.179 177.313 216.595 176.461 216.595C176.453 216.595 176.444 216.595 176.436 216.595C175.728 216.604 175.002 217.022 174.643 217.263Z" fill="#181524"/>
<path d="M204.357 236.957L183.43 257.914L194.497 267.843L212.175 249.252L204.357 236.957Z" fill="#00937D"/>
<path d="M194.497 268.135C194.426 268.135 194.357 268.11 194.301 268.061L183.234 258.132C183.174 258.079 183.138 258.001 183.137 257.922C183.134 257.84 183.166 257.763 183.222 257.706L204.149 236.75C204.212 236.687 204.301 236.655 204.389 236.666C204.478 236.675 204.556 236.724 204.604 236.8L212.422 249.095C212.494 249.208 212.481 249.357 212.388 249.454L194.71 268.045C194.651 268.105 194.574 268.135 194.497 268.135ZM183.857 257.902L194.481 267.433L211.805 249.216L204.306 237.424L183.857 257.902Z" fill="#181524"/>
<path d="M275.553 265.417C269.849 250.015 268.34 230.843 268.34 230.843C240.858 220.599 230.176 235.008 230.176 235.008C230.161 235.042 230.148 235.074 230.133 235.107C226.841 238.877 222.138 246.239 217.124 247.194C212.503 248.074 210.63 243.463 210.63 243.463L186.547 266.96C209.455 282.403 223.764 275.732 230.788 269.512C230.921 271.98 230.968 274.622 230.877 277.48C230.491 289.694 231.06 296.564 231.828 300.404C232.378 303.149 234.877 304.972 237.537 304.602L277.393 299.063C280.718 298.602 284.101 299.125 287.156 300.572C288.185 290.283 281.257 280.82 275.553 265.417Z" fill="url(#paint3_linear_2507_94466)"/>
<path d="M236.859 304.945C234.328 304.945 232.066 303.092 231.54 300.463C230.575 295.64 230.253 287.906 230.584 277.471C230.663 275 230.643 272.592 230.526 270.128C227.249 272.908 221.947 276.138 214.645 276.652C213.964 276.7 213.274 276.724 212.581 276.724C204.566 276.724 195.765 273.528 186.384 267.204C186.31 267.154 186.264 267.075 186.256 266.987C186.248 266.899 186.28 266.812 186.344 266.75L210.427 243.251C210.496 243.183 210.596 243.154 210.692 243.174C210.788 243.194 210.867 243.26 210.903 243.351C210.977 243.53 212.747 247.728 217.071 246.904C220.922 246.17 224.651 241.467 227.648 237.687C228.443 236.686 229.193 235.738 229.882 234.947L229.908 234.887C229.916 234.869 229.928 234.85 229.94 234.833C230.051 234.682 232.733 231.135 238.848 228.808C244.467 226.671 254.162 225.242 268.442 230.566C268.549 230.606 268.623 230.705 268.633 230.818C268.647 231.01 270.205 250.126 275.829 265.313C277.646 270.219 279.617 274.589 281.357 278.445C285.156 286.865 288.157 293.515 287.447 300.6C287.438 300.694 287.382 300.779 287.299 300.826C287.217 300.873 287.116 300.877 287.029 300.835C284.023 299.411 280.705 298.897 277.433 299.352L237.577 304.891C237.337 304.927 237.096 304.945 236.859 304.945ZM230.788 269.219C230.827 269.219 230.865 269.227 230.901 269.242C231.005 269.286 231.076 269.384 231.081 269.497C231.226 272.189 231.255 274.803 231.17 277.491C230.841 287.879 231.159 295.569 232.115 300.348C232.63 302.92 234.995 304.662 237.497 304.314L277.353 298.775C280.601 298.323 283.893 298.793 286.9 300.134C287.438 293.356 284.509 286.865 280.822 278.69C279.078 274.826 277.103 270.445 275.279 265.521C269.927 251.066 268.241 233.085 268.064 231.056C254.05 225.873 244.559 227.269 239.059 229.362C233.365 231.526 230.682 234.842 230.433 235.162L230.403 235.228C230.391 235.255 230.375 235.28 230.355 235.303C229.667 236.091 228.91 237.045 228.108 238.057C225.051 241.913 221.245 246.711 217.18 247.485C213.196 248.244 211.14 245.085 210.545 243.96L187.012 266.923C209.949 282.239 224.155 274.999 230.594 269.298C230.647 269.244 230.718 269.219 230.788 269.219Z" fill="#181524"/>
<path d="M284.559 272.05L277.98 284.478L274.435 282.445C272.406 281.282 270.428 280.461 267.794 281.643C267.794 281.643 258.837 286.758 257.889 288.093C257.13 289.162 257.696 290.694 258.946 290.953C258.946 290.953 260.49 291.846 267.805 289.542C270.428 288.715 278.284 291.673 280.952 290.685C283.62 289.699 291.833 276.655 291.833 276.655L284.559 272.05Z" fill="#FFB583"/>
<path d="M260.184 291.42C259.364 291.42 258.987 291.295 258.849 291.232C258.196 291.085 257.657 290.616 257.404 289.972C257.134 289.286 257.226 288.519 257.649 287.924C258.606 286.576 266.725 281.916 267.648 281.388C270.512 280.101 272.642 281.08 274.58 282.191L277.861 284.072L284.298 271.913C284.336 271.841 284.403 271.788 284.481 271.767C284.56 271.746 284.645 271.759 284.714 271.803L291.989 276.407C292.126 276.494 292.167 276.675 292.081 276.812C291.743 277.348 283.784 289.952 281.054 290.962C279.603 291.499 276.79 290.949 274.07 290.418C271.624 289.94 269.095 289.445 267.892 289.824C263.774 291.119 261.451 291.42 260.184 291.42ZM270.321 281.359C269.579 281.359 268.786 281.52 267.915 281.912C265.464 283.313 258.877 287.214 258.13 288.264C257.822 288.698 257.756 289.256 257.953 289.756C258.14 290.234 258.525 290.565 259.007 290.665C259.038 290.672 259.067 290.683 259.095 290.699C259.102 290.701 260.754 291.456 267.719 289.262C269.064 288.839 271.552 289.326 274.186 289.84C276.827 290.356 279.557 290.89 280.853 290.41C282.919 289.646 289.038 280.519 291.43 276.745L284.672 272.467L278.241 284.614C278.204 284.684 278.14 284.736 278.062 284.759C277.987 284.782 277.904 284.771 277.835 284.731L274.29 282.698C273.04 281.984 271.782 281.359 270.321 281.359Z" fill="#181524"/>
<path d="M284.559 263.024L281.212 271.69L300.507 284.898C300.507 284.898 304.503 273.427 304.711 268.804L284.559 263.024Z" fill="#00937D"/>
<path d="M300.507 285.192C300.449 285.192 300.391 285.174 300.341 285.14L281.046 271.932C280.934 271.855 280.889 271.711 280.938 271.583L284.284 262.917C284.339 262.775 284.493 262.699 284.64 262.74L304.792 268.52C304.923 268.558 305.01 268.68 305.005 268.816C304.797 273.428 300.949 284.522 300.785 284.992C300.755 285.078 300.687 285.146 300.6 285.174C300.57 285.186 300.538 285.192 300.507 285.192ZM281.57 271.579L300.354 284.437C301.018 282.485 304.117 273.21 304.403 269.022L284.734 263.381L281.57 271.579Z" fill="#181524"/>
<path d="M264.251 248.901L278.732 256.78C281.418 257.958 282.812 261.073 281.955 263.982L281.674 264.934L307.054 274.79C307.054 274.79 310.583 262.357 304.781 251.182C298.98 240.007 266.56 230.328 266.56 230.328L264.251 248.901Z" fill="url(#paint4_linear_2507_94466)"/>
<path d="M307.054 275.084C307.018 275.084 306.982 275.077 306.947 275.064L281.568 265.208C281.425 265.152 281.349 264.998 281.392 264.852L281.673 263.9C282.493 261.119 281.178 258.173 278.614 257.048L267.349 250.921C267.207 250.844 267.154 250.665 267.232 250.523C267.31 250.381 267.488 250.327 267.63 250.406L278.872 256.523C281.683 257.754 283.138 261.002 282.236 264.066L282.032 264.76L306.851 274.397C307.339 272.403 309.693 261.283 304.521 251.319C298.842 240.382 266.798 230.708 266.476 230.612C266.321 230.565 266.233 230.401 266.279 230.246C266.326 230.09 266.488 230.002 266.645 230.049C267.974 230.445 299.251 239.892 305.044 251.049C310.833 262.197 307.375 274.746 307.339 274.872C307.316 274.952 307.261 275.019 307.187 275.055C307.143 275.073 307.099 275.084 307.054 275.084Z" fill="#181524"/>
<path d="M243.345 215.354L246.115 228.24L238.269 231.158C238.269 231.158 248.732 237.717 263.994 231.8L255.967 227.325L250.617 211.592L243.345 215.354Z" fill="#FFB583"/>
<path d="M251.381 234.548C243.26 234.548 238.188 231.452 238.115 231.406C238.02 231.346 237.967 231.239 237.979 231.128C237.991 231.016 238.064 230.922 238.169 230.883L245.777 228.053L243.06 215.417C243.032 215.287 243.095 215.154 243.212 215.094L250.485 211.333C250.561 211.293 250.65 211.289 250.73 211.321C250.81 211.353 250.871 211.418 250.898 211.499L256.212 227.124L264.14 231.545C264.24 231.601 264.299 231.709 264.291 231.822C264.283 231.935 264.209 232.035 264.104 232.075C259.357 233.914 255.056 234.548 251.381 234.548ZM238.973 231.209C241.27 232.394 250.598 236.442 263.3 231.75L255.826 227.582C255.762 227.546 255.714 227.489 255.691 227.42L250.449 212.01L243.679 215.512L246.403 228.178C246.433 228.321 246.355 228.465 246.218 228.515L238.973 231.209Z" fill="#181524"/>
<path d="M251.132 215.354C251.132 215.354 254.118 216.208 254.642 213.515C255.167 210.822 252.696 211.232 252.696 211.232C252.696 211.232 254.825 205.234 250.66 205.079C246.494 204.926 243.345 203.632 243.345 203.632C243.345 203.632 240.848 209.4 240.301 214.083C239.97 216.908 240.351 219.337 242.416 219.868C248.069 221.322 251.132 215.354 251.132 215.354Z" fill="#FFB583"/>
<path d="M244.153 220.389C243.581 220.389 242.977 220.315 242.343 220.153C240.38 219.648 239.595 217.594 240.009 214.05C240.555 209.377 243.051 203.573 243.076 203.516C243.14 203.37 243.309 203.301 243.457 203.362C243.487 203.375 246.61 204.638 250.67 204.787C251.707 204.826 252.479 205.205 252.962 205.919C253.975 207.41 253.392 209.928 253.104 210.919C253.51 210.929 254.105 211.029 254.527 211.463C254.976 211.926 255.114 212.636 254.931 213.573C254.771 214.394 254.383 214.999 253.778 215.37C252.877 215.923 251.756 215.787 251.281 215.692C250.738 216.613 248.27 220.389 244.153 220.389ZM243.506 204.009C243.02 205.181 241.063 210.089 240.593 214.117C240.219 217.324 240.857 219.164 242.49 219.583C243.084 219.736 243.648 219.804 244.182 219.804C248.458 219.804 250.766 215.43 250.873 215.221C250.936 215.097 251.08 215.035 251.213 215.073C251.227 215.077 252.544 215.439 253.474 214.867C253.932 214.585 254.228 214.112 254.355 213.46C254.497 212.725 254.415 212.191 254.107 211.874C253.636 211.387 252.752 211.522 252.743 211.523C252.642 211.539 252.536 211.5 252.47 211.421C252.403 211.341 252.383 211.233 252.418 211.134C252.43 211.101 253.563 207.848 252.475 206.248C252.097 205.691 251.5 205.405 250.648 205.374C247.129 205.243 244.362 204.324 243.506 204.009Z" fill="#181524"/>
<path d="M230.743 268.126C230.585 268.126 230.454 268.001 230.45 267.843L229.892 250.674C229.887 250.511 230.015 250.376 230.176 250.37C230.342 250.366 230.474 250.493 230.479 250.654L231.037 267.823C231.042 267.985 230.915 268.121 230.754 268.126C230.75 268.126 230.746 268.126 230.743 268.126Z" fill="#181524"/>
<path d="M183.991 40.4787C194.12 40.4787 202.331 32.2674 202.331 22.1382C202.331 12.009 194.12 3.79764 183.991 3.79764C173.862 3.79764 165.65 12.009 165.65 22.1382C165.65 32.2674 173.862 40.4787 183.991 40.4787Z" fill="#DFF2EF"/>
<path d="M193.575 14.9874H174.407C174.083 14.9874 173.82 15.2501 173.82 15.5741V18.8992H194.162V15.5741C194.162 15.2501 193.899 14.9874 193.575 14.9874ZM188.685 18.1168H187.903C187.579 18.1168 187.316 17.8541 187.316 17.5301C187.316 17.206 187.579 16.9433 187.903 16.9433H188.685C189.009 16.9433 189.272 17.206 189.272 17.5301C189.272 17.8541 189.009 18.1168 188.685 18.1168ZM191.032 18.1168H190.25C189.926 18.1168 189.663 17.8541 189.663 17.5301C189.663 17.206 189.926 16.9433 190.25 16.9433H191.032C191.356 16.9433 191.619 17.206 191.619 17.5301C191.619 17.8541 191.356 18.1168 191.032 18.1168Z" fill="#00937D"/>
<path d="M183.991 22.4231C182.589 22.4231 181.448 23.5638 181.448 24.9658C181.448 26.3679 182.589 27.5086 183.991 27.5086C185.393 27.5086 186.533 26.3679 186.533 24.9658C186.533 23.5638 185.393 22.4231 183.991 22.4231ZM183.991 26.1785C183.322 26.1785 182.778 25.6345 182.778 24.9658C182.778 24.2972 183.322 23.7532 183.991 23.7532C184.659 23.7532 185.203 24.2972 185.203 24.9658C185.203 25.6345 184.659 26.1785 183.991 26.1785Z" fill="#00937D"/>
<path d="M175.58 20.074V22.6167C175.58 24.8633 176.455 26.9753 178.044 28.5639C179.632 30.1524 181.744 31.0272 183.991 31.0272C186.237 31.0272 188.35 30.1524 189.938 28.5639C191.527 26.9753 192.401 24.8633 192.401 22.6167V20.074H175.58ZM183.991 28.6801C181.942 28.6801 180.275 27.013 180.275 24.9639C180.275 22.9147 181.942 21.2476 183.991 21.2476C186.04 21.2476 187.707 22.9147 187.707 24.9639C187.707 27.013 186.04 28.6801 183.991 28.6801Z" fill="#00937D"/>
<path d="M107.579 61.7153C117.927 61.7153 126.316 53.5039 126.316 43.3747C126.316 33.2455 117.927 25.0342 107.579 25.0342C97.2303 25.0342 88.8412 33.2455 88.8412 43.3747C88.8412 53.5039 97.2303 61.7153 107.579 61.7153Z" fill="#DFF2EF"/>
<path d="M114.447 40.7228H113.217V39.1501C113.17 37.6946 112.543 36.3144 111.471 35.3013C110.399 34.2882 108.964 33.7217 107.471 33.7217C105.979 33.7217 104.544 34.2882 103.472 35.3013C102.4 36.3144 101.773 37.6946 101.725 39.1501V40.7515H100.496C100.386 40.7515 100.282 40.7938 100.204 40.8692C100.127 40.9445 100.084 41.0467 100.084 41.1533V51.1577C100.084 51.5824 100.257 51.9897 100.565 52.2901C100.872 52.5904 101.29 52.7591 101.725 52.7591H113.217C113.652 52.7576 114.068 52.5882 114.375 52.288C114.681 51.9879 114.853 51.5814 114.853 51.1577V41.1246C114.854 41.0721 114.844 41.02 114.824 40.9713C114.804 40.9225 114.774 40.8782 114.736 40.8408C114.699 40.8034 114.654 40.7737 114.604 40.7535C114.554 40.7332 114.501 40.7228 114.447 40.7228ZM108.698 49.0856C108.704 49.1412 108.698 49.1973 108.681 49.2506C108.664 49.3039 108.636 49.3532 108.598 49.3956C108.56 49.4378 108.513 49.4715 108.46 49.4943C108.407 49.5171 108.35 49.5284 108.292 49.5276H106.651C106.593 49.528 106.536 49.5164 106.484 49.4937C106.431 49.471 106.384 49.4377 106.345 49.3959C106.307 49.3541 106.278 49.3048 106.261 49.2513C106.243 49.1979 106.238 49.1414 106.245 49.0856L106.504 46.7897C106.295 46.6432 106.125 46.45 106.008 46.2263C105.891 46.0027 105.831 45.755 105.833 45.504C105.819 45.286 105.852 45.0677 105.928 44.8624C106.004 44.6571 106.123 44.4692 106.276 44.3102C106.43 44.1513 106.615 44.0246 106.821 43.938C107.026 43.8515 107.248 43.8068 107.471 43.8068C107.695 43.8068 107.917 43.8515 108.122 43.938C108.328 44.0246 108.513 44.1513 108.667 44.3102C108.82 44.4692 108.939 44.6571 109.015 44.8624C109.091 45.0677 109.124 45.286 109.11 45.504C109.112 45.755 109.052 46.0027 108.935 46.2263C108.818 46.45 108.648 46.6432 108.439 46.7897L108.698 49.0856ZM110.752 40.7228H104.191V39.1501C104.172 38.7185 104.243 38.2876 104.4 37.8834C104.556 37.4793 104.795 37.1101 105.101 36.7983C105.408 36.4864 105.776 36.2382 106.183 36.0687C106.59 35.8991 107.029 35.8117 107.471 35.8117C107.914 35.8117 108.353 35.8991 108.76 36.0687C109.167 36.2382 109.535 36.4864 109.842 36.7983C110.148 37.1101 110.387 37.4793 110.543 37.8834C110.7 38.2876 110.771 38.7185 110.752 39.1501V40.7228Z" fill="#00937D"/>
<path d="M65.2599 115.772C75.3891 115.772 83.6005 107.56 83.6005 97.431C83.6005 87.3018 75.3891 79.0904 65.2599 79.0904C55.1307 79.0904 46.9194 87.3018 46.9194 97.431C46.9194 107.56 55.1307 115.772 65.2599 115.772Z" fill="#DFF2EF"/>
<path d="M56.7605 103.802C53.9355 100.051 53.9355 94.8112 56.7605 91.0594C57.081 90.6343 57.689 90.5466 58.1163 90.8671C58.5437 91.1876 58.6297 91.7928 58.3092 92.2189C55.9976 95.2873 55.9976 99.5746 58.3092 102.643C58.6297 103.069 58.5437 103.674 58.1163 103.995C57.6908 104.313 57.0826 104.231 56.7605 103.802Z" fill="#00937D"/>
<path d="M73.7593 103.802C76.5844 100.051 76.5844 94.8112 73.7593 91.0594C73.4388 90.6343 72.8309 90.5466 72.4035 90.8671C71.9762 91.1876 71.8901 91.7928 72.2107 92.2189C74.5223 95.2873 74.5223 99.5746 72.2107 102.643C71.8901 103.069 71.9762 103.674 72.4035 103.995C72.8291 104.313 73.4372 104.231 73.7593 103.802Z" fill="#00937D"/>
<path d="M59.9681 101.936C58.0145 99.3679 58.0145 95.4932 59.9681 92.9251C60.2707 92.5282 60.7912 92.4961 61.1259 92.8497C61.4629 93.205 61.4917 93.816 61.1899 94.2129C59.7951 96.0475 59.7951 98.8135 61.1899 100.648C61.4917 101.045 61.4629 101.656 61.1259 102.011C60.7899 102.366 60.2702 102.334 59.9681 101.936Z" fill="#00937D"/>
<path d="M70.5518 101.936C72.5054 99.3679 72.5054 95.4932 70.5518 92.9251C70.2491 92.5282 69.7287 92.4961 69.394 92.8497C69.0569 93.205 69.0281 93.816 69.3299 94.2129C70.7247 96.0475 70.7247 98.8135 69.3299 100.648C69.0281 101.045 69.0569 101.656 69.394 102.011C69.7299 102.366 70.2496 102.334 70.5518 101.936Z" fill="#00937D"/>
<path d="M65.26 100.268C63.6972 100.268 62.4258 98.9962 62.4258 97.4334C62.4258 95.8705 63.6972 94.5991 65.26 94.5991C66.8229 94.5991 68.0943 95.8705 68.0943 97.4334C68.0943 98.9962 66.823 100.268 65.26 100.268Z" fill="#00937D"/>
<path d="M261.214 61.7153C271.344 61.7153 279.555 53.504 279.555 43.3747C279.555 33.2455 271.344 25.0342 261.214 25.0342C251.085 25.0342 242.874 33.2455 242.874 43.3747C242.874 53.504 251.085 61.7153 261.214 61.7153Z" fill="#DFF2EF"/>
<path d="M261.214 34.4643C256.305 34.4643 252.304 38.465 252.304 43.3747C252.304 48.2843 256.305 52.2851 261.214 52.2851C266.124 52.2851 270.125 48.2843 270.125 43.3747C270.125 38.465 266.124 34.4643 261.214 34.4643ZM265.09 46.5557C264.966 46.7695 264.743 46.8854 264.511 46.8854C264.395 46.8854 264.28 46.8586 264.173 46.7873L261.41 45.1389C260.724 44.729 260.216 43.8291 260.216 43.0361V39.3828C260.216 39.0175 260.519 38.7145 260.885 38.7145C261.25 38.7145 261.553 39.0175 261.553 39.3828V43.0361C261.553 43.3568 261.82 43.8291 262.096 43.9895L264.859 45.6379C265.179 45.825 265.286 46.2349 265.09 46.5557Z" fill="#00937D"/>
<path d="M298.861 115.772C308.99 115.772 317.201 107.56 317.201 97.431C317.201 87.3018 308.99 79.0904 298.861 79.0904C288.731 79.0904 280.52 87.3018 280.52 97.431C280.52 107.56 288.731 115.772 298.861 115.772Z" fill="#DFF2EF"/>
<g clip-path="url(#clip0_2507_94466)">
<path d="M294.227 91.0584H290.752C290.599 91.0584 290.451 91.1195 290.343 91.2281C290.234 91.3367 290.173 91.484 290.173 91.6376V105.538C290.173 105.691 290.234 105.839 290.343 105.947C290.451 106.056 290.599 106.117 290.752 106.117H294.227C294.381 106.117 294.528 106.056 294.637 105.947C294.745 105.839 294.806 105.691 294.806 105.538V91.6376C294.806 91.484 294.745 91.3367 294.637 91.2281C294.528 91.1195 294.381 91.0584 294.227 91.0584ZM293.069 104.379H291.911C291.757 104.379 291.61 104.318 291.501 104.21C291.392 104.101 291.331 103.954 291.331 103.8C291.331 103.647 291.392 103.499 291.501 103.391C291.61 103.282 291.757 103.221 291.911 103.221H293.069C293.223 103.221 293.37 103.282 293.478 103.391C293.587 103.499 293.648 103.647 293.648 103.8C293.648 103.954 293.587 104.101 293.478 104.21C293.37 104.318 293.223 104.379 293.069 104.379ZM293.069 102.642H291.911C291.757 102.642 291.61 102.581 291.501 102.472C291.392 102.364 291.331 102.216 291.331 102.063C291.331 101.909 291.392 101.762 291.501 101.653C291.61 101.545 291.757 101.484 291.911 101.484H293.069C293.223 101.484 293.37 101.545 293.478 101.653C293.587 101.762 293.648 101.909 293.648 102.063C293.648 102.216 293.587 102.364 293.478 102.472C293.37 102.581 293.223 102.642 293.069 102.642Z" fill="#00937D"/>
<path d="M307.421 104.462L304.195 90.9441C304.177 90.8698 304.145 90.7998 304.1 90.738C304.055 90.6762 303.999 90.6239 303.934 90.5841C303.868 90.5442 303.796 90.5177 303.721 90.5059C303.645 90.4941 303.568 90.4974 303.494 90.5155L300.019 91.3437V89.3224C300.019 89.1688 299.958 89.0215 299.849 88.9129C299.741 88.8043 299.593 88.7432 299.44 88.7432H295.965C295.811 88.7432 295.664 88.8043 295.555 88.9129C295.447 89.0215 295.386 89.1688 295.386 89.3224V105.539C295.386 105.693 295.447 105.84 295.555 105.949C295.664 106.057 295.811 106.118 295.965 106.118H299.44C299.593 106.118 299.741 106.057 299.849 105.949C299.958 105.84 300.019 105.693 300.019 105.539V93.7994L302.822 105.539C302.853 105.669 302.927 105.784 303.033 105.865C303.138 105.946 303.268 105.989 303.401 105.985H303.535L307.01 105.157C307.155 105.118 307.28 105.023 307.356 104.893C307.433 104.763 307.456 104.609 307.421 104.462ZM297.702 91.0599C297.817 91.0599 297.929 91.0939 298.024 91.1576C298.119 91.2212 298.194 91.3116 298.237 91.4175C298.281 91.5233 298.293 91.6398 298.27 91.7521C298.248 91.8645 298.193 91.9677 298.112 92.0487C298.031 92.1297 297.928 92.1848 297.815 92.2072C297.703 92.2295 297.587 92.218 297.481 92.1742C297.375 92.1304 297.284 92.0561 297.221 91.9609C297.157 91.8656 297.123 91.7537 297.123 91.6391C297.123 91.4855 297.184 91.3382 297.293 91.2296C297.401 91.121 297.549 91.0599 297.702 91.0599ZM298.281 104.381H297.123C296.97 104.381 296.822 104.32 296.714 104.211C296.605 104.103 296.544 103.955 296.544 103.802C296.544 103.648 296.605 103.501 296.714 103.392C296.822 103.284 296.97 103.223 297.123 103.223H298.281C298.435 103.223 298.582 103.284 298.691 103.392C298.8 103.501 298.861 103.648 298.861 103.802C298.861 103.955 298.8 104.103 298.691 104.211C298.582 104.32 298.435 104.381 298.281 104.381ZM298.281 102.643H297.123C296.97 102.643 296.822 102.582 296.714 102.474C296.605 102.365 296.544 102.218 296.544 102.064C296.544 101.911 296.605 101.763 296.714 101.655C296.822 101.546 296.97 101.485 297.123 101.485H298.281C298.435 101.485 298.582 101.546 298.691 101.655C298.8 101.763 298.861 101.911 298.861 102.064C298.861 102.218 298.8 102.365 298.691 102.474C298.582 102.582 298.435 102.643 298.281 102.643ZM305.429 103.802L304.299 104.068H304.166C304.012 104.086 303.858 104.042 303.737 103.946C303.616 103.85 303.538 103.709 303.52 103.556C303.502 103.402 303.547 103.248 303.643 103.127C303.739 103.005 303.879 102.928 304.033 102.91L305.162 102.643C305.316 102.608 305.477 102.635 305.611 102.719C305.744 102.803 305.839 102.936 305.874 103.089C305.91 103.243 305.883 103.404 305.799 103.538C305.715 103.672 305.582 103.766 305.429 103.802Z" fill="#00937D"/>
</g>
</g>
<path opacity="0.5" d="M155.442 144.806C155.313 144.806 155.185 144.784 155.063 144.742L153.054 144.037C152.768 143.936 152.533 143.725 152.401 143.45C152.27 143.176 152.252 142.86 152.352 142.572L152.73 141.493C152.767 141.387 152.767 141.272 152.731 141.166C152.694 141.06 152.623 140.969 152.529 140.908C151.88 140.483 151.279 139.988 150.737 139.432C150.66 139.351 150.557 139.299 150.447 139.284C150.336 139.268 150.223 139.291 150.127 139.347L149.145 139.931C148.883 140.085 148.571 140.129 148.277 140.054C147.983 139.978 147.731 139.788 147.576 139.526L146.49 137.685C146.336 137.423 146.292 137.11 146.367 136.815C146.443 136.52 146.632 136.267 146.893 136.111L147.875 135.528C147.971 135.471 148.045 135.383 148.085 135.279C148.125 135.174 148.129 135.059 148.097 134.952C147.876 134.207 147.735 133.44 147.676 132.664C147.668 132.552 147.623 132.446 147.548 132.363C147.473 132.279 147.372 132.224 147.262 132.205L146.139 132.019C145.84 131.968 145.573 131.801 145.397 131.553C145.22 131.306 145.148 130.998 145.196 130.698L145.544 128.584C145.594 128.284 145.76 128.015 146.006 127.838C146.253 127.66 146.56 127.588 146.859 127.638L147.981 127.824C148.092 127.841 148.205 127.821 148.303 127.767C148.401 127.712 148.477 127.626 148.52 127.522C148.827 126.808 149.209 126.129 149.66 125.496C149.725 125.405 149.758 125.295 149.754 125.183C149.75 125.071 149.708 124.963 149.636 124.878L148.893 124.009C148.696 123.777 148.598 123.477 148.621 123.173C148.644 122.869 148.787 122.587 149.017 122.389L150.633 120.995C150.864 120.798 151.164 120.7 151.466 120.723C151.769 120.746 152.05 120.889 152.248 121.119L152.989 121.987C153.062 122.072 153.162 122.13 153.271 122.151C153.381 122.172 153.495 122.156 153.594 122.104C154.286 121.754 155.013 121.48 155.763 121.285C155.872 121.259 155.968 121.196 156.037 121.107C156.106 121.018 156.143 120.909 156.142 120.797L156.13 119.653C156.127 119.348 156.244 119.055 156.456 118.837C156.669 118.619 156.958 118.495 157.262 118.492L159.393 118.468H159.405C159.706 118.469 159.995 118.588 160.209 118.801C160.423 119.014 160.545 119.302 160.549 119.605L160.562 120.747C160.564 120.86 160.603 120.968 160.673 121.056C160.744 121.143 160.842 121.204 160.951 121.229C161.705 121.407 162.438 121.666 163.137 122.001C163.237 122.051 163.351 122.065 163.461 122.041C163.57 122.017 163.668 121.957 163.739 121.87L164.461 120.987C164.557 120.87 164.674 120.773 164.807 120.702C164.94 120.631 165.085 120.587 165.235 120.573C165.538 120.543 165.84 120.635 166.076 120.828L167.722 122.186C167.957 122.379 168.105 122.658 168.135 122.961C168.165 123.265 168.073 123.567 167.881 123.803L167.158 124.686C167.088 124.773 167.049 124.882 167.047 124.994C167.045 125.106 167.081 125.215 167.149 125.305C167.613 125.928 168.008 126.599 168.329 127.308C168.375 127.41 168.454 127.493 168.553 127.545C168.651 127.598 168.764 127.616 168.874 127.597L169.997 127.385C170.145 127.358 170.297 127.359 170.444 127.39C170.591 127.421 170.731 127.481 170.855 127.567C170.979 127.652 171.085 127.761 171.167 127.887C171.249 128.014 171.305 128.156 171.333 128.304L171.726 130.406C171.781 130.706 171.716 131.015 171.545 131.267C171.373 131.518 171.109 131.691 170.811 131.747L169.688 131.958C169.578 131.979 169.479 132.037 169.405 132.122C169.332 132.207 169.289 132.314 169.284 132.426C169.24 133.203 169.114 133.973 168.907 134.722C168.876 134.83 168.883 134.945 168.925 135.049C168.967 135.153 169.043 135.24 169.14 135.296L170.132 135.859C170.396 136.009 170.59 136.258 170.672 136.551C170.753 136.845 170.715 137.159 170.567 137.424L169.521 139.288C169.372 139.554 169.124 139.749 168.832 139.831C168.54 139.913 168.227 139.875 167.962 139.726L166.969 139.163C166.871 139.108 166.758 139.088 166.648 139.106C166.537 139.124 166.436 139.178 166.36 139.26C165.83 139.827 165.241 140.335 164.603 140.776C164.51 140.839 164.441 140.931 164.406 141.038C164.372 141.145 164.375 141.261 164.414 141.366L164.815 142.435C164.921 142.721 164.91 143.037 164.785 143.315C164.659 143.592 164.43 143.808 164.146 143.916L162.152 144.67C161.868 144.776 161.553 144.765 161.276 144.639C161 144.514 160.785 144.283 160.677 143.998L160.276 142.926C160.235 142.822 160.16 142.735 160.065 142.677C159.969 142.62 159.858 142.595 159.747 142.607C158.977 142.699 158.2 142.708 157.429 142.634C157.317 142.621 157.205 142.647 157.11 142.707C157.015 142.767 156.944 142.858 156.908 142.965L156.531 144.043C156.451 144.268 156.303 144.462 156.108 144.599C155.913 144.736 155.68 144.808 155.442 144.806ZM150.379 138.799C150.51 138.799 150.639 138.825 150.76 138.876C150.88 138.926 150.989 139 151.081 139.094C151.34 139.36 151.613 139.611 151.899 139.846C152.185 140.082 152.484 140.302 152.794 140.505C152.977 140.624 153.114 140.801 153.184 141.008C153.254 141.215 153.253 141.439 153.182 141.645L152.804 142.724C152.745 142.893 152.755 143.079 152.833 143.24C152.91 143.401 153.047 143.525 153.215 143.585L155.225 144.289C155.308 144.319 155.396 144.332 155.484 144.327C155.572 144.323 155.659 144.301 155.738 144.262C155.818 144.224 155.889 144.171 155.948 144.105C156.007 144.039 156.053 143.962 156.082 143.878L156.459 142.799C156.533 142.594 156.673 142.42 156.856 142.303C157.04 142.186 157.256 142.134 157.472 142.154C158.21 142.223 158.952 142.215 159.688 142.128C159.904 142.101 160.123 142.147 160.309 142.26C160.496 142.373 160.639 142.546 160.715 142.751L161.116 143.823C161.148 143.906 161.195 143.982 161.256 144.047C161.316 144.111 161.389 144.163 161.47 144.199C161.55 144.236 161.637 144.257 161.725 144.26C161.813 144.263 161.901 144.248 161.984 144.216L163.977 143.462C164.144 143.399 164.279 143.272 164.352 143.109C164.426 142.946 164.432 142.761 164.369 142.593L163.969 141.524C163.892 141.32 163.887 141.095 163.953 140.887C164.019 140.679 164.152 140.5 164.332 140.377C164.943 139.955 165.508 139.469 166.016 138.926C166.164 138.767 166.362 138.662 166.576 138.628C166.791 138.594 167.011 138.634 167.2 138.74L168.194 139.304C168.271 139.347 168.356 139.375 168.443 139.385C168.531 139.396 168.62 139.389 168.705 139.364C168.79 139.341 168.87 139.301 168.939 139.247C169.009 139.193 169.067 139.125 169.11 139.047L170.155 137.184C170.243 137.027 170.265 136.843 170.217 136.67C170.168 136.498 170.054 136.352 169.899 136.264L168.908 135.7C168.719 135.593 168.571 135.425 168.488 135.223C168.405 135.021 168.392 134.797 168.451 134.587C168.649 133.87 168.77 133.134 168.813 132.391C168.824 132.173 168.907 131.965 169.05 131.8C169.193 131.636 169.387 131.524 169.601 131.484L170.724 131.274C170.899 131.24 171.054 131.138 171.155 130.991C171.255 130.843 171.294 130.661 171.261 130.485L170.868 128.383C170.853 128.295 170.82 128.212 170.772 128.138C170.724 128.063 170.661 127.999 170.588 127.948C170.515 127.898 170.433 127.863 170.347 127.845C170.26 127.827 170.171 127.826 170.084 127.843L168.961 128.055C168.747 128.094 168.526 128.06 168.333 127.958C168.14 127.856 167.987 127.691 167.899 127.491C167.594 126.815 167.218 126.173 166.777 125.577C166.645 125.402 166.576 125.189 166.58 124.97C166.584 124.752 166.661 124.541 166.799 124.372L167.522 123.489C167.635 123.35 167.688 123.173 167.671 122.994C167.653 122.816 167.566 122.653 167.428 122.539L165.782 121.181C165.644 121.069 165.467 121.016 165.29 121.033C165.113 121.051 164.95 121.138 164.836 121.276L164.113 122.159C163.975 122.328 163.784 122.445 163.571 122.492C163.359 122.538 163.136 122.512 162.94 122.417C162.273 122.095 161.572 121.848 160.851 121.678C160.639 121.629 160.45 121.51 160.313 121.34C160.176 121.17 160.101 120.959 160.098 120.74L160.072 119.613C160.072 119.525 160.054 119.437 160.019 119.355C159.984 119.274 159.934 119.2 159.871 119.138C159.808 119.076 159.733 119.027 159.651 118.994C159.569 118.961 159.482 118.944 159.393 118.945L157.263 118.969C157.085 118.972 156.915 119.045 156.791 119.172C156.666 119.3 156.597 119.472 156.598 119.651L156.611 120.794C156.613 121.012 156.541 121.225 156.408 121.398C156.275 121.571 156.088 121.694 155.877 121.748C155.159 121.934 154.464 122.196 153.802 122.531C153.608 122.63 153.387 122.661 153.174 122.619C152.96 122.577 152.767 122.464 152.626 122.298L151.885 121.431C151.768 121.295 151.603 121.212 151.426 121.198C151.248 121.185 151.072 121.243 150.936 121.359L149.32 122.751C149.185 122.868 149.102 123.033 149.089 123.212C149.075 123.39 149.132 123.567 149.247 123.703L149.991 124.572C150.132 124.738 150.213 124.947 150.222 125.165C150.231 125.383 150.167 125.598 150.04 125.775C149.609 126.38 149.244 127.029 148.951 127.712C148.866 127.913 148.716 128.08 148.526 128.185C148.335 128.291 148.115 128.329 147.9 128.294L146.778 128.108C146.602 128.08 146.422 128.122 146.277 128.226C146.132 128.33 146.034 128.487 146.004 128.663L145.656 130.776C145.628 130.953 145.671 131.133 145.774 131.278C145.825 131.351 145.89 131.412 145.965 131.459C146.04 131.506 146.123 131.537 146.211 131.551L147.333 131.739C147.548 131.775 147.744 131.882 147.89 132.044C148.037 132.205 148.125 132.411 148.141 132.629C148.199 133.371 148.335 134.104 148.547 134.817C148.612 135.026 148.604 135.251 148.526 135.456C148.447 135.66 148.302 135.832 148.115 135.944L147.133 136.526C147.057 136.571 146.99 136.63 146.937 136.701C146.884 136.772 146.845 136.853 146.824 136.939C146.802 137.024 146.797 137.114 146.809 137.202C146.822 137.289 146.852 137.374 146.897 137.45L147.981 139.291C148.073 139.444 148.221 139.555 148.393 139.6C148.566 139.644 148.748 139.618 148.902 139.528L149.884 138.945C150.033 138.852 150.204 138.802 150.379 138.799Z" fill="#00937D"/>
<path opacity="0.5" d="M158.592 138.301C158.168 138.301 157.745 138.26 157.329 138.18C155.625 137.831 154.127 136.821 153.16 135.37C152.192 133.919 151.834 132.143 152.162 130.428C152.491 128.714 153.48 127.198 154.914 126.211C156.348 125.223 158.113 124.844 159.824 125.154C161.435 125.468 162.873 126.372 163.857 127.691C164.84 129.011 165.3 130.65 165.145 132.291C164.991 133.932 164.234 135.456 163.021 136.567C161.809 137.678 160.228 138.296 158.586 138.301H158.592ZM158.581 125.508C157.002 125.505 155.483 126.114 154.339 127.206C153.195 128.298 152.514 129.791 152.436 131.374C152.359 132.957 152.892 134.509 153.924 135.708C154.957 136.907 156.409 137.662 157.981 137.814C159.552 137.967 161.122 137.506 162.364 136.528C163.606 135.55 164.425 134.129 164.652 132.56C164.878 130.991 164.494 129.395 163.58 128.103C162.666 126.811 161.291 125.922 159.741 125.62C159.359 125.546 158.97 125.508 158.581 125.508Z" fill="#00937D"/>
<path d="M212.519 130.986C212.427 130.986 212.339 130.949 212.275 130.884C212.21 130.819 212.173 130.731 212.173 130.639V128.715C212.173 128.491 212.262 128.276 212.42 128.117C212.577 127.958 212.791 127.869 213.015 127.868H214.933C215.02 127.875 215.102 127.915 215.161 127.979C215.221 128.044 215.254 128.128 215.254 128.216C215.254 128.304 215.221 128.389 215.161 128.454C215.102 128.518 215.02 128.558 214.933 128.564H213.015C212.975 128.565 212.938 128.581 212.91 128.609C212.882 128.638 212.867 128.676 212.867 128.715V130.639C212.866 130.731 212.829 130.819 212.764 130.884C212.699 130.949 212.611 130.986 212.519 130.986Z" fill="#00937D"/>
<path d="M228.688 130.986C228.643 130.986 228.597 130.977 228.555 130.96C228.513 130.943 228.475 130.917 228.442 130.885C228.41 130.853 228.384 130.814 228.367 130.772C228.349 130.73 228.34 130.684 228.34 130.639V128.715C228.34 128.675 228.325 128.637 228.296 128.609C228.268 128.58 228.23 128.564 228.19 128.564H226.274C226.187 128.558 226.105 128.518 226.046 128.454C225.986 128.389 225.953 128.304 225.953 128.216C225.953 128.128 225.986 128.044 226.046 127.979C226.105 127.915 226.187 127.875 226.274 127.868H228.19C228.414 127.869 228.628 127.958 228.786 128.117C228.944 128.276 229.033 128.491 229.034 128.715V130.639C229.034 130.731 228.997 130.819 228.933 130.884C228.868 130.949 228.78 130.986 228.688 130.986Z" fill="#00937D"/>
<path d="M214.933 144.807H213.015C212.791 144.806 212.577 144.717 212.42 144.558C212.262 144.399 212.173 144.184 212.173 143.959V142.036C212.18 141.948 212.219 141.866 212.284 141.807C212.348 141.747 212.432 141.714 212.52 141.714C212.608 141.714 212.692 141.747 212.756 141.807C212.821 141.866 212.86 141.948 212.867 142.036V143.959C212.867 143.999 212.882 144.037 212.91 144.065C212.938 144.094 212.975 144.11 213.015 144.11H214.933C215.02 144.117 215.102 144.157 215.161 144.221C215.221 144.286 215.254 144.37 215.254 144.458C215.254 144.546 215.221 144.631 215.161 144.696C215.102 144.76 215.02 144.8 214.933 144.807Z" fill="#00937D"/>
<path d="M228.19 144.807H226.274C226.187 144.8 226.105 144.76 226.046 144.696C225.986 144.631 225.953 144.546 225.953 144.458C225.953 144.37 225.986 144.286 226.046 144.221C226.105 144.157 226.187 144.117 226.274 144.11H228.19C228.23 144.11 228.268 144.094 228.296 144.066C228.325 144.038 228.34 143.999 228.34 143.959V142.036C228.347 141.948 228.387 141.866 228.451 141.807C228.515 141.747 228.599 141.714 228.687 141.714C228.775 141.714 228.859 141.747 228.923 141.807C228.988 141.866 229.027 141.948 229.034 142.036V143.959C229.033 144.184 228.944 144.399 228.786 144.558C228.628 144.717 228.414 144.806 228.19 144.807Z" fill="#00937D"/>
<path opacity="0.5" d="M186.625 165.167C185.97 165.167 185.331 164.972 184.786 164.607C184.242 164.242 183.818 163.723 183.568 163.116C183.317 162.509 183.252 161.841 183.379 161.197C183.507 160.553 183.822 159.961 184.285 159.496C184.748 159.031 185.337 158.715 185.979 158.587C186.621 158.459 187.286 158.524 187.891 158.776C188.496 159.027 189.012 159.453 189.376 159.999C189.739 160.546 189.934 161.188 189.934 161.845C189.932 162.726 189.583 163.57 188.963 164.193C188.343 164.816 187.502 165.166 186.625 165.167ZM186.625 159.221C186.107 159.221 185.602 159.375 185.171 159.664C184.741 159.953 184.406 160.363 184.208 160.843C184.01 161.323 183.959 161.851 184.06 162.36C184.161 162.87 184.41 163.338 184.776 163.705C185.142 164.072 185.608 164.322 186.116 164.423C186.623 164.524 187.149 164.472 187.627 164.273C188.105 164.073 188.513 163.737 188.8 163.305C189.087 162.872 189.24 162.365 189.24 161.845C189.239 161.149 188.963 160.482 188.473 159.99C187.982 159.498 187.318 159.222 186.625 159.221Z" fill="#00937D"/>
<path opacity="0.5" d="M91.5958 40.9768C90.6081 40.9768 89.6425 40.6827 88.8212 40.1318C88 39.5808 87.3598 38.7977 86.9818 37.8815C86.6038 36.9653 86.5049 35.9571 86.6976 34.9845C86.8903 34.0118 87.366 33.1184 88.0644 32.4171C88.7629 31.7159 89.6527 31.2384 90.6215 31.0449C91.5902 30.8514 92.5944 30.9507 93.5069 31.3302C94.4195 31.7097 95.1995 32.3524 95.7482 33.177C96.297 34.0015 96.5899 34.971 96.5899 35.9627C96.5883 37.292 96.0616 38.5664 95.1253 39.5064C94.1891 40.4464 92.9198 40.9752 91.5958 40.9768ZM91.5958 32.3431C90.8823 32.3431 90.1848 32.5555 89.5915 32.9536C88.9983 33.3516 88.536 33.9174 88.263 34.5793C87.99 35.2412 87.9187 35.9695 88.0581 36.672C88.1974 37.3746 88.5412 38.0199 89.0458 38.5264C89.5505 39.0328 90.1935 39.3775 90.8933 39.5171C91.5932 39.6566 92.3185 39.5846 92.9776 39.3101C93.6367 39.0357 94.1999 38.5712 94.5961 37.9753C94.9922 37.3795 95.2034 36.6791 95.203 35.9627C95.2019 35.0027 94.8214 34.0823 94.1451 33.4037C93.4688 32.7251 92.552 32.3436 91.5958 32.3431Z" fill="#00937D"/>
<defs>
<linearGradient id="paint0_linear_2507_94466" x1="188.5" y1="21" x2="188.5" y2="333" gradientUnits="userSpaceOnUse">
<stop stop-color="#00937D" stop-opacity="0"/>
<stop offset="1" stop-color="#00937D"/>
</linearGradient>
<linearGradient id="paint1_linear_2507_94466" x1="242.416" y1="301.552" x2="242.418" y2="325.923" gradientUnits="userSpaceOnUse">
<stop stop-color="#00937D"/>
<stop offset="0.9939" stop-color="#81CEC3"/>
</linearGradient>
<linearGradient id="paint2_linear_2507_94466" x1="270.783" y1="294.621" x2="270.784" y2="321.636" gradientUnits="userSpaceOnUse">
<stop stop-color="#00937D"/>
<stop offset="0.9939" stop-color="#81CEC3"/>
</linearGradient>
<linearGradient id="paint3_linear_2507_94466" x1="236.896" y1="226.063" x2="236.9" y2="316.67" gradientUnits="userSpaceOnUse">
<stop stop-color="#00937D"/>
<stop offset="0.9939" stop-color="#81CEC3"/>
</linearGradient>
<linearGradient id="paint4_linear_2507_94466" x1="260.104" y1="227.437" x2="311.83" y2="278.027" gradientUnits="userSpaceOnUse">
<stop stop-color="#00937D"/>
<stop offset="0.9939" stop-color="#81CEC3"/>
</linearGradient>
<clipPath id="clip0_2507_94466">
<rect width="23.167" height="23.167" fill="white" transform="translate(287.277 85.8474)"/>
</clipPath>
</defs>
</svg>
