<svg width="375" height="333" viewBox="0 0 375 333" fill="none" xmlns="http://www.w3.org/2000/svg">
<rect x="1" width="375" height="333" fill="white"/>
<ellipse opacity="0.15" cx="188.5" cy="177" rx="187.5" ry="156" fill="url(#paint0_linear_2507_94829)"/>
<mask id="mask0_2507_94829" style="mask-type:alpha" maskUnits="userSpaceOnUse" x="0" y="21" width="375" height="312">
<ellipse cx="187.5" cy="177" rx="187.5" ry="156" fill="#00937D"/>
</mask>
<g mask="url(#mask0_2507_94829)">
<path d="M323.284 263.671C320.867 256.1 316.611 249.369 311.033 243.914C303.979 237.016 294.811 232.158 284.575 230.224C284.575 230.224 271.289 227.872 256.713 224.028C251.95 222.772 246.854 223.825 243.034 226.829C232.85 234.84 213.727 245.271 183.687 244.567C156.476 243.93 140.837 235.592 132.359 228.414C128.414 225.074 122.979 223.885 117.93 225.304C106.955 228.386 97.8261 230.222 97.8261 230.222C79.4962 233.688 56.1906 246.524 50.7156 263.67C45.4702 280.099 40.1171 307.151 39.5456 329.791C39.3385 338.022 46.192 344.817 54.7695 344.817H319.231C327.808 344.817 334.661 338.022 334.454 329.791C333.883 307.151 328.53 280.099 323.284 263.671Z" fill="url(#paint1_linear_2507_94829)"/>
<path d="M183.687 245.969C220.727 246.894 246.696 231.677 254.248 223.591C239.231 218.828 219.618 210.653 219.384 203.875L217.123 138.583H157.467L155.206 203.875C154.955 211.11 132.093 220.559 117.93 225.424C123.986 233.346 148.582 245.092 183.687 245.969Z" fill="url(#paint2_linear_2507_94829)"/>
<path d="M134.975 80.6811C134.975 80.6811 143.559 175.889 168.63 186.122C168.63 186.122 188.974 195.093 205.968 184.944C205.968 184.944 233.999 158.826 231.984 81.4068C231.984 81.4068 234.346 44.7131 186 41C129.352 36.6497 134.975 80.6811 134.975 80.6811Z" fill="#FFB583"/>
<path d="M227.097 114.135C227.097 114.135 231.346 101.086 238.425 101.086C245.506 101.086 237.009 135.883 227.097 135.883V114.135Z" fill="#FFB583"/>
<path d="M144.283 111.179C144.283 111.179 138.442 100.128 131.425 101.106C124.409 102.084 134.46 137.212 144.283 135.844V111.179Z" fill="#FFB583"/>
<path d="M144.507 106.562C141.876 107.753 138.808 106.425 137.827 103.666C136.099 98.8138 133.445 91.4386 131.295 85.8021C127.796 76.6251 109.298 64.8983 128.795 41.9546C148.292 19.0108 159.334 43.9127 172.311 37.3252C185.288 30.7377 200.786 15.4423 214.284 25.1292C227.782 34.8162 218.783 43.9932 223.283 46.5431C227.782 49.0929 234.781 35.8362 239.781 53.6814C243.648 67.4878 237.348 92.9066 234.298 103.703C233.558 106.326 230.632 107.577 228.279 106.278C227.037 105.593 226.218 104.32 226.098 102.884C225.76 98.8161 224.966 89.8025 223.783 79.6837C222.173 65.9147 209.85 84.9911 185.821 87.6915C161.791 90.3907 163.791 77.1351 152.292 77.1351C147.442 77.1351 147.294 94.3922 147.457 101.83C147.501 103.869 146.335 105.734 144.507 106.562Z" fill="#181524"/>
<path d="M120.361 53.0828H134.938C136.549 53.0828 137.849 53.7831 137.849 55.4319C137.849 57.0807 136.549 57.8557 134.938 57.8557H120.361C117.978 57.8557 114.865 61.0406 114.865 63.4816V85.0466C114.865 86.6954 114.117 88.0187 112.506 88.0187C110.896 88.0187 110.204 86.6954 110.204 85.0466V63.4816C110.204 57.7466 114.759 53.0828 120.361 53.0828Z" fill="#329586"/>
<path d="M247.238 53.0828H232.66C231.05 53.0828 229.75 53.7831 229.75 55.4319C229.75 57.0807 231.05 57.8557 232.66 57.8557H247.238C249.621 57.8557 252.733 61.0406 252.733 63.4816V85.0466C252.733 86.6954 253.482 88.0187 255.092 88.0187C256.703 88.0187 257.395 86.6954 257.395 85.0466V63.4816C257.395 57.7466 252.84 53.0828 247.238 53.0828Z" fill="#329586"/>
<path d="M120.361 208.012H134.938C136.549 208.012 137.849 207.311 137.849 205.662C137.849 204.014 136.549 203.239 134.938 203.239H120.361C117.978 203.239 114.865 200.054 114.865 197.613V176.048C114.865 174.399 114.117 173.076 112.506 173.076C110.896 173.076 110.204 174.399 110.204 176.048V197.613C110.204 203.348 114.759 208.012 120.361 208.012Z" fill="#329586"/>
<path d="M247.238 208.012H232.66C231.05 208.012 229.75 207.311 229.75 205.662C229.75 204.014 231.05 203.239 232.66 203.239H247.238C249.621 203.239 252.733 200.054 252.733 197.613V176.048C252.733 174.399 253.482 173.076 255.092 173.076C256.703 173.076 257.395 174.399 257.395 176.048V197.613C257.395 203.348 252.84 208.012 247.238 208.012Z" fill="#329586"/>
<path d="M243.794 198.049H124.458C122.102 198.049 120.184 196.085 120.184 193.673V66.6217C120.184 64.2093 122.102 62.2457 124.458 62.2457H243.794C246.151 62.2457 248.068 64.2093 248.068 66.6217V193.673C248.068 196.085 246.151 198.049 243.794 198.049ZM124.458 64.0376C123.066 64.0376 121.934 65.1964 121.934 66.6217V193.673C121.934 195.098 123.066 196.257 124.458 196.257H243.794C245.186 196.257 246.318 195.098 246.318 193.673V66.6217C246.318 65.1964 245.186 64.0376 243.794 64.0376H124.458Z" fill="#00937D" stroke="#00937D" stroke-width="1.15248"/>
</g>
<path opacity="0.5" d="M155.442 144.806C155.313 144.806 155.185 144.784 155.063 144.742L153.054 144.037C152.768 143.936 152.533 143.725 152.401 143.45C152.27 143.176 152.252 142.86 152.352 142.572L152.73 141.493C152.767 141.387 152.767 141.272 152.731 141.166C152.694 141.06 152.623 140.969 152.529 140.908C151.88 140.483 151.279 139.988 150.737 139.432C150.66 139.351 150.557 139.299 150.447 139.284C150.336 139.268 150.223 139.291 150.127 139.347L149.145 139.931C148.883 140.085 148.571 140.129 148.277 140.054C147.983 139.978 147.731 139.788 147.576 139.526L146.49 137.685C146.336 137.423 146.292 137.11 146.367 136.815C146.443 136.52 146.632 136.267 146.893 136.111L147.875 135.528C147.971 135.471 148.045 135.383 148.085 135.279C148.125 135.174 148.129 135.059 148.097 134.952C147.876 134.207 147.735 133.44 147.676 132.664C147.668 132.552 147.623 132.446 147.548 132.363C147.473 132.279 147.372 132.224 147.262 132.205L146.139 132.019C145.84 131.968 145.573 131.801 145.397 131.553C145.22 131.306 145.148 130.998 145.196 130.698L145.544 128.584C145.594 128.284 145.76 128.015 146.006 127.838C146.253 127.66 146.56 127.588 146.859 127.638L147.981 127.824C148.092 127.841 148.205 127.821 148.303 127.767C148.401 127.712 148.477 127.626 148.52 127.522C148.827 126.808 149.209 126.129 149.66 125.496C149.725 125.405 149.758 125.295 149.754 125.183C149.75 125.071 149.708 124.963 149.636 124.878L148.893 124.009C148.696 123.777 148.598 123.477 148.621 123.173C148.644 122.869 148.787 122.587 149.017 122.389L150.633 120.995C150.864 120.798 151.164 120.7 151.466 120.723C151.769 120.746 152.05 120.889 152.248 121.119L152.989 121.987C153.062 122.072 153.162 122.13 153.271 122.151C153.381 122.172 153.495 122.156 153.594 122.104C154.286 121.754 155.013 121.48 155.763 121.285C155.872 121.259 155.968 121.196 156.037 121.107C156.106 121.018 156.143 120.909 156.142 120.797L156.13 119.653C156.127 119.348 156.244 119.055 156.456 118.837C156.669 118.619 156.958 118.495 157.262 118.492L159.393 118.468H159.405C159.706 118.469 159.995 118.588 160.209 118.801C160.423 119.014 160.545 119.302 160.549 119.605L160.562 120.747C160.564 120.86 160.603 120.968 160.673 121.056C160.744 121.143 160.842 121.204 160.951 121.229C161.705 121.407 162.438 121.666 163.137 122.001C163.237 122.051 163.351 122.065 163.461 122.041C163.57 122.017 163.668 121.957 163.739 121.87L164.461 120.987C164.557 120.87 164.674 120.773 164.807 120.702C164.94 120.631 165.085 120.587 165.235 120.573C165.538 120.543 165.84 120.635 166.076 120.828L167.722 122.186C167.957 122.379 168.105 122.658 168.135 122.961C168.165 123.265 168.073 123.567 167.881 123.803L167.158 124.686C167.088 124.773 167.049 124.882 167.047 124.994C167.045 125.106 167.081 125.215 167.149 125.305C167.613 125.928 168.008 126.599 168.329 127.308C168.375 127.41 168.454 127.493 168.553 127.545C168.651 127.598 168.764 127.616 168.874 127.597L169.997 127.385C170.145 127.358 170.297 127.359 170.444 127.39C170.591 127.421 170.731 127.481 170.855 127.567C170.979 127.652 171.085 127.761 171.167 127.887C171.249 128.014 171.305 128.156 171.333 128.304L171.726 130.406C171.781 130.706 171.716 131.015 171.545 131.267C171.373 131.518 171.109 131.691 170.811 131.747L169.688 131.958C169.578 131.979 169.479 132.037 169.405 132.122C169.332 132.207 169.289 132.314 169.284 132.426C169.24 133.203 169.114 133.973 168.907 134.722C168.876 134.83 168.883 134.945 168.925 135.049C168.967 135.153 169.043 135.24 169.14 135.296L170.132 135.859C170.396 136.009 170.59 136.258 170.672 136.551C170.753 136.845 170.715 137.159 170.567 137.424L169.521 139.288C169.372 139.554 169.124 139.749 168.832 139.831C168.54 139.913 168.227 139.875 167.962 139.726L166.969 139.163C166.871 139.108 166.758 139.088 166.648 139.106C166.537 139.124 166.436 139.178 166.36 139.26C165.83 139.827 165.241 140.335 164.603 140.776C164.51 140.839 164.441 140.931 164.406 141.038C164.372 141.145 164.375 141.261 164.414 141.366L164.815 142.435C164.921 142.721 164.91 143.037 164.785 143.315C164.659 143.592 164.43 143.808 164.146 143.916L162.152 144.67C161.868 144.776 161.553 144.765 161.276 144.639C161 144.514 160.785 144.283 160.677 143.998L160.276 142.926C160.235 142.822 160.16 142.735 160.065 142.677C159.969 142.62 159.858 142.595 159.747 142.607C158.977 142.699 158.2 142.708 157.429 142.634C157.317 142.621 157.205 142.647 157.11 142.707C157.015 142.767 156.944 142.858 156.908 142.965L156.531 144.043C156.451 144.268 156.303 144.462 156.108 144.599C155.913 144.736 155.68 144.808 155.442 144.806ZM150.379 138.799C150.51 138.799 150.639 138.825 150.76 138.876C150.88 138.926 150.989 139 151.081 139.094C151.34 139.36 151.613 139.611 151.899 139.846C152.185 140.082 152.484 140.302 152.794 140.505C152.977 140.624 153.114 140.801 153.184 141.008C153.254 141.215 153.253 141.439 153.182 141.645L152.804 142.724C152.745 142.893 152.755 143.079 152.833 143.24C152.91 143.401 153.047 143.525 153.215 143.585L155.225 144.289C155.308 144.319 155.396 144.332 155.484 144.327C155.572 144.323 155.659 144.301 155.738 144.262C155.818 144.224 155.889 144.171 155.948 144.105C156.007 144.039 156.053 143.962 156.082 143.878L156.459 142.799C156.533 142.594 156.673 142.42 156.856 142.303C157.04 142.186 157.256 142.134 157.472 142.154C158.21 142.223 158.952 142.215 159.688 142.128C159.904 142.101 160.123 142.147 160.309 142.26C160.496 142.373 160.639 142.546 160.715 142.751L161.116 143.823C161.148 143.906 161.195 143.982 161.256 144.047C161.316 144.111 161.389 144.163 161.47 144.199C161.55 144.236 161.637 144.257 161.725 144.26C161.813 144.263 161.901 144.248 161.984 144.216L163.977 143.462C164.144 143.399 164.279 143.272 164.352 143.109C164.426 142.946 164.432 142.761 164.369 142.593L163.969 141.524C163.892 141.32 163.887 141.095 163.953 140.887C164.019 140.679 164.152 140.5 164.332 140.377C164.943 139.955 165.508 139.469 166.016 138.926C166.164 138.767 166.362 138.662 166.576 138.628C166.791 138.594 167.011 138.634 167.2 138.74L168.194 139.304C168.271 139.347 168.356 139.375 168.443 139.385C168.531 139.396 168.62 139.389 168.705 139.364C168.79 139.341 168.87 139.301 168.939 139.247C169.009 139.193 169.067 139.125 169.11 139.047L170.155 137.184C170.243 137.027 170.265 136.843 170.217 136.67C170.168 136.498 170.054 136.352 169.899 136.264L168.908 135.7C168.719 135.593 168.571 135.425 168.488 135.223C168.405 135.021 168.392 134.797 168.451 134.587C168.649 133.87 168.77 133.134 168.813 132.391C168.824 132.173 168.907 131.965 169.05 131.8C169.193 131.636 169.387 131.524 169.601 131.484L170.724 131.274C170.899 131.24 171.054 131.138 171.155 130.991C171.255 130.843 171.294 130.661 171.261 130.485L170.868 128.383C170.853 128.295 170.82 128.212 170.772 128.138C170.724 128.063 170.661 127.999 170.588 127.948C170.515 127.898 170.433 127.863 170.347 127.845C170.26 127.827 170.171 127.826 170.084 127.843L168.961 128.055C168.747 128.094 168.526 128.06 168.333 127.958C168.14 127.856 167.987 127.691 167.899 127.491C167.594 126.815 167.218 126.173 166.777 125.577C166.645 125.402 166.576 125.189 166.58 124.97C166.584 124.752 166.661 124.541 166.799 124.372L167.522 123.489C167.635 123.35 167.688 123.173 167.671 122.994C167.653 122.816 167.566 122.653 167.428 122.539L165.782 121.181C165.644 121.069 165.467 121.016 165.29 121.033C165.113 121.051 164.95 121.138 164.836 121.276L164.113 122.159C163.975 122.328 163.784 122.445 163.571 122.492C163.359 122.538 163.136 122.512 162.94 122.417C162.273 122.095 161.572 121.848 160.851 121.678C160.639 121.629 160.45 121.51 160.313 121.34C160.176 121.17 160.101 120.959 160.098 120.74L160.072 119.613C160.072 119.525 160.054 119.437 160.019 119.355C159.984 119.274 159.934 119.2 159.871 119.138C159.808 119.076 159.733 119.027 159.651 118.994C159.569 118.961 159.482 118.944 159.393 118.945L157.263 118.969C157.085 118.972 156.915 119.045 156.791 119.172C156.666 119.3 156.597 119.472 156.598 119.651L156.611 120.794C156.613 121.012 156.541 121.225 156.408 121.398C156.275 121.571 156.088 121.694 155.877 121.748C155.159 121.934 154.464 122.196 153.802 122.531C153.608 122.63 153.387 122.661 153.174 122.619C152.96 122.577 152.767 122.464 152.626 122.298L151.885 121.431C151.768 121.295 151.603 121.212 151.426 121.198C151.248 121.185 151.072 121.243 150.936 121.359L149.32 122.751C149.185 122.868 149.102 123.033 149.089 123.212C149.075 123.39 149.132 123.567 149.247 123.703L149.991 124.572C150.132 124.738 150.213 124.947 150.222 125.165C150.231 125.383 150.167 125.598 150.04 125.775C149.609 126.38 149.244 127.029 148.951 127.712C148.866 127.913 148.716 128.08 148.526 128.185C148.335 128.291 148.115 128.329 147.9 128.294L146.778 128.108C146.602 128.08 146.422 128.122 146.277 128.226C146.132 128.33 146.034 128.487 146.004 128.663L145.656 130.776C145.628 130.953 145.671 131.133 145.774 131.278C145.825 131.351 145.89 131.412 145.965 131.459C146.04 131.506 146.123 131.537 146.211 131.551L147.333 131.739C147.548 131.775 147.744 131.882 147.89 132.044C148.037 132.205 148.125 132.411 148.141 132.629C148.199 133.371 148.335 134.104 148.547 134.817C148.612 135.026 148.604 135.251 148.526 135.456C148.447 135.66 148.302 135.832 148.115 135.944L147.133 136.526C147.057 136.571 146.99 136.63 146.937 136.701C146.884 136.772 146.845 136.853 146.824 136.939C146.802 137.024 146.797 137.114 146.809 137.202C146.822 137.289 146.852 137.374 146.897 137.45L147.981 139.291C148.073 139.444 148.221 139.555 148.393 139.6C148.566 139.644 148.748 139.618 148.902 139.528L149.884 138.945C150.033 138.852 150.204 138.802 150.379 138.799Z" fill="#00937D"/>
<path opacity="0.5" d="M158.592 138.301C158.168 138.301 157.745 138.26 157.329 138.18C155.625 137.831 154.127 136.821 153.16 135.37C152.192 133.919 151.834 132.143 152.162 130.428C152.491 128.714 153.48 127.198 154.914 126.211C156.348 125.223 158.113 124.844 159.824 125.154C161.435 125.468 162.873 126.372 163.857 127.691C164.84 129.011 165.3 130.65 165.145 132.291C164.991 133.932 164.234 135.456 163.021 136.567C161.809 137.678 160.228 138.296 158.586 138.301H158.592ZM158.581 125.508C157.002 125.505 155.483 126.114 154.339 127.206C153.195 128.298 152.514 129.791 152.437 131.374C152.359 132.957 152.892 134.509 153.924 135.708C154.957 136.907 156.409 137.662 157.981 137.814C159.552 137.967 161.122 137.506 162.364 136.528C163.606 135.55 164.425 134.129 164.652 132.56C164.878 130.991 164.494 129.395 163.58 128.103C162.666 126.811 161.291 125.922 159.741 125.62C159.359 125.546 158.97 125.508 158.581 125.508Z" fill="#00937D"/>
<path d="M212.519 130.986C212.427 130.986 212.339 130.949 212.275 130.884C212.21 130.819 212.173 130.731 212.173 130.639V128.715C212.173 128.491 212.262 128.276 212.42 128.117C212.577 127.958 212.791 127.869 213.015 127.868H214.933C215.02 127.875 215.102 127.915 215.161 127.979C215.221 128.044 215.254 128.128 215.254 128.216C215.254 128.304 215.221 128.389 215.161 128.454C215.102 128.518 215.02 128.558 214.933 128.564H213.015C212.975 128.565 212.938 128.581 212.91 128.609C212.882 128.638 212.867 128.676 212.867 128.715V130.639C212.866 130.731 212.829 130.819 212.764 130.884C212.699 130.949 212.611 130.986 212.519 130.986Z" fill="#00937D"/>
<path d="M228.688 130.986C228.643 130.986 228.597 130.977 228.555 130.96C228.513 130.943 228.475 130.917 228.442 130.885C228.41 130.853 228.384 130.814 228.367 130.772C228.349 130.73 228.34 130.684 228.34 130.639V128.715C228.34 128.675 228.325 128.637 228.296 128.609C228.268 128.58 228.23 128.564 228.19 128.564H226.274C226.187 128.558 226.106 128.518 226.046 128.454C225.986 128.389 225.953 128.304 225.953 128.216C225.953 128.128 225.986 128.044 226.046 127.979C226.106 127.915 226.187 127.875 226.274 127.868H228.19C228.414 127.869 228.628 127.958 228.786 128.117C228.944 128.276 229.033 128.491 229.034 128.715V130.639C229.034 130.731 228.997 130.819 228.933 130.884C228.868 130.949 228.78 130.986 228.688 130.986Z" fill="#00937D"/>
<path d="M214.933 144.807H213.015C212.791 144.806 212.577 144.717 212.42 144.558C212.262 144.399 212.173 144.184 212.173 143.959V142.036C212.18 141.948 212.219 141.866 212.284 141.807C212.348 141.747 212.432 141.714 212.52 141.714C212.608 141.714 212.692 141.747 212.756 141.807C212.821 141.866 212.86 141.948 212.867 142.036V143.959C212.867 143.999 212.882 144.037 212.91 144.065C212.938 144.094 212.975 144.11 213.015 144.11H214.933C215.02 144.117 215.102 144.157 215.161 144.221C215.221 144.286 215.254 144.37 215.254 144.458C215.254 144.546 215.221 144.631 215.161 144.696C215.102 144.76 215.02 144.8 214.933 144.807Z" fill="#00937D"/>
<path d="M228.19 144.807H226.274C226.187 144.8 226.106 144.76 226.046 144.696C225.986 144.631 225.953 144.546 225.953 144.458C225.953 144.37 225.986 144.286 226.046 144.221C226.106 144.157 226.187 144.117 226.274 144.11H228.19C228.23 144.11 228.268 144.094 228.296 144.066C228.325 144.038 228.34 143.999 228.34 143.959V142.036C228.347 141.948 228.387 141.866 228.451 141.807C228.515 141.747 228.6 141.714 228.687 141.714C228.775 141.714 228.859 141.747 228.923 141.807C228.988 141.866 229.027 141.948 229.034 142.036V143.959C229.033 144.184 228.944 144.399 228.786 144.558C228.628 144.717 228.414 144.806 228.19 144.807Z" fill="#00937D"/>
<path opacity="0.5" d="M186.625 165.167C185.97 165.167 185.331 164.972 184.786 164.607C184.242 164.242 183.818 163.723 183.568 163.116C183.317 162.509 183.252 161.841 183.379 161.197C183.507 160.553 183.822 159.961 184.285 159.496C184.748 159.031 185.337 158.715 185.979 158.587C186.621 158.459 187.286 158.524 187.891 158.776C188.496 159.027 189.012 159.453 189.376 159.999C189.739 160.546 189.934 161.188 189.934 161.845C189.932 162.726 189.583 163.57 188.963 164.193C188.343 164.816 187.502 165.166 186.625 165.167ZM186.625 159.221C186.107 159.221 185.602 159.375 185.171 159.664C184.741 159.953 184.406 160.363 184.208 160.843C184.01 161.323 183.959 161.851 184.06 162.36C184.161 162.87 184.41 163.338 184.776 163.705C185.142 164.072 185.608 164.322 186.116 164.423C186.623 164.524 187.149 164.472 187.627 164.273C188.105 164.073 188.513 163.737 188.8 163.305C189.087 162.872 189.24 162.365 189.24 161.845C189.239 161.149 188.963 160.482 188.473 159.99C187.982 159.498 187.318 159.222 186.625 159.221Z" fill="#00937D"/>
<path opacity="0.5" d="M91.5958 40.9768C90.6081 40.9768 89.6425 40.6827 88.8212 40.1318C88 39.5808 87.3598 38.7977 86.9818 37.8815C86.6038 36.9653 86.5049 35.9571 86.6976 34.9845C86.8903 34.0118 87.366 33.1184 88.0644 32.4171C88.7629 31.7159 89.6527 31.2384 90.6215 31.0449C91.5902 30.8514 92.5944 30.9507 93.5069 31.3302C94.4195 31.7097 95.1995 32.3524 95.7482 33.177C96.297 34.0015 96.5899 34.971 96.5899 35.9627C96.5883 37.292 96.0616 38.5664 95.1253 39.5064C94.1891 40.4464 92.9198 40.9752 91.5958 40.9768ZM91.5958 32.3431C90.8823 32.3431 90.1848 32.5555 89.5915 32.9536C88.9983 33.3516 88.536 33.9174 88.263 34.5793C87.99 35.2412 87.9187 35.9695 88.0581 36.672C88.1974 37.3746 88.5412 38.0199 89.0458 38.5264C89.5505 39.0328 90.1935 39.3775 90.8933 39.5171C91.5932 39.6566 92.3185 39.5846 92.9776 39.3101C93.6367 39.0357 94.1999 38.5712 94.5961 37.9753C94.9922 37.3795 95.2034 36.6791 95.203 35.9627C95.2019 35.0027 94.8214 34.0823 94.1451 33.4037C93.4688 32.7251 92.552 32.3436 91.5958 32.3431Z" fill="#00937D"/>
<defs>
<linearGradient id="paint0_linear_2507_94829" x1="188.5" y1="21" x2="188.5" y2="333" gradientUnits="userSpaceOnUse">
<stop stop-color="#00937D" stop-opacity="0"/>
<stop offset="1" stop-color="#00937D"/>
</linearGradient>
<linearGradient id="paint1_linear_2507_94829" x1="186.981" y1="221.782" x2="186.981" y2="344.817" gradientUnits="userSpaceOnUse">
<stop stop-color="#00937D"/>
<stop offset="0.9939" stop-color="#81CEC3"/>
</linearGradient>
<linearGradient id="paint2_linear_2507_94829" x1="186.089" y1="144.373" x2="186.089" y2="246.009" gradientUnits="userSpaceOnUse">
<stop stop-color="#FFB583" stop-opacity="0.7"/>
<stop offset="1" stop-color="#FFB583"/>
</linearGradient>
</defs>
</svg>
