<svg width="375" height="333" viewBox="0 0 375 333" fill="none" xmlns="http://www.w3.org/2000/svg">
<ellipse opacity="0.15" cx="187.5" cy="177" rx="187.5" ry="156" fill="url(#paint0_linear_2366_33381)"/>
<path d="M330.642 108.972L318.953 103.238C309.441 98.5726 300.566 92.7099 292.543 85.7937L291.97 82.243C291.97 82.243 288.007 82.2859 287.159 82.2381C286.075 82.1768 284.974 82.5558 284.145 83.3665C275.436 91.882 265.522 99.073 254.72 104.705L247.078 108.69C245.302 109.616 244.648 111.248 245.183 113.593L255.171 155.759C259.518 167.556 277.027 183.341 286.884 191.558C288.677 193.053 290.868 193.783 293.049 193.77C294.016 193.763 298.021 193.891 298.021 193.891C298.021 193.891 298.87 192.205 299.991 191.065C308.847 182.072 324.389 164.76 327.539 151.128L332.767 113.439C333.183 111.638 332.302 109.788 330.642 108.972Z" fill="#00937D"/>
<path d="M335.069 109.199L323.471 103.51C314.033 98.8816 305.227 93.0643 297.266 86.202L294.277 83.6264C292.722 82.2858 290.4 82.3594 288.932 83.7944C280.292 92.2438 270.454 99.3783 259.736 104.967L252.153 108.922C250.39 109.84 249.585 111.924 250.273 113.787L260.183 155.624C264.497 167.329 282.056 183.138 291.836 191.292C295.622 194.449 301.195 194.167 304.655 190.655C313.442 181.733 328.862 164.556 331.988 151.029L337.176 113.633C337.591 111.844 336.717 110.007 335.069 109.199Z" fill="white"/>
<path d="M327.944 114.166L318.342 109.457C310.528 105.624 303.236 100.807 296.644 95.1261L294.17 92.9933C292.883 91.8833 290.96 91.9446 289.745 93.1319C282.591 100.128 274.445 106.035 265.572 110.662L259.293 113.936C257.834 114.696 257.167 116.422 257.737 117.965L265.943 152.605C269.514 162.295 284.052 175.386 292.15 182.136C295.285 184.75 299.899 184.517 302.764 181.609C310.039 174.22 322.807 159.999 325.395 148.799L329.691 117.836C330.032 116.357 329.309 114.836 327.944 114.166Z" fill="white"/>
<path d="M297.159 184.208C295.318 184.208 293.473 183.593 291.976 182.345C283.694 175.441 269.265 162.407 265.687 152.699C265.684 152.689 265.68 152.678 265.677 152.668L257.475 118.044C256.872 116.382 257.597 114.516 259.167 113.698L265.445 110.424C274.303 105.806 282.414 99.9228 289.554 92.9404C290.881 91.6428 292.94 91.5777 294.346 92.7908L296.82 94.9236C303.391 100.588 310.671 105.397 318.46 109.216L328.062 113.926C329.547 114.654 330.325 116.289 329.953 117.901L325.663 148.839C323.061 160.103 310.32 174.325 302.956 181.801C301.384 183.396 299.273 184.208 297.159 184.208ZM266.202 152.527C269.746 162.116 284.087 175.063 292.323 181.929C295.324 184.431 299.826 184.206 302.57 181.42C309.893 173.984 322.562 159.849 325.13 148.739L329.422 117.8C329.742 116.412 329.083 115.027 327.824 114.409L318.221 109.699C310.391 105.859 303.073 101.024 296.468 95.3308L293.994 93.198C292.803 92.1714 291.058 92.2266 289.934 93.3255C282.755 100.346 274.601 106.259 265.697 110.902L259.418 114.176C258.084 114.871 257.471 116.461 257.991 117.871C257.995 117.881 257.998 117.892 258.001 117.902L266.202 152.527Z" fill="#00937D"/>
<path d="M297.888 193.736C295.676 193.736 293.462 192.998 291.664 191.499C281.665 183.164 264.248 167.431 259.931 155.717C259.928 155.708 259.924 155.697 259.922 155.687L250.015 113.865C249.293 111.884 250.157 109.658 252.029 108.681L259.612 104.727C270.314 99.1466 280.115 92.039 288.743 83.6007C290.324 82.0541 292.779 81.9768 294.454 83.4216L297.442 85.9973C305.38 92.8411 314.179 98.6511 323.59 103.268L335.188 108.956C336.959 109.824 337.885 111.772 337.441 113.693L335.219 129.717C335.199 129.865 335.061 129.968 334.914 129.948C334.765 129.927 334.662 129.791 334.683 129.642L336.909 113.595C337.301 111.896 336.493 110.199 334.949 109.441L323.352 103.752C313.899 99.1159 305.062 93.279 297.089 86.4057L294.1 83.8301C292.64 82.5717 290.499 82.6391 289.121 83.9871C280.455 92.4621 270.611 99.6016 259.861 105.207L252.278 109.161C250.642 110.015 249.888 111.963 250.527 113.694C250.53 113.704 250.534 113.715 250.536 113.725L260.443 155.547C264.726 167.141 282.057 182.787 292.009 191.085C295.655 194.125 301.125 193.853 304.461 190.465C313.31 181.48 328.619 164.4 331.723 150.967L333.059 141.325C333.08 141.176 333.217 141.071 333.365 141.094C333.514 141.115 333.617 141.251 333.596 141.399L332.254 151.067C329.116 164.653 313.736 181.82 304.847 190.846C302.961 192.761 300.427 193.736 297.888 193.736Z" fill="#00937D"/>
<path d="M287.019 124.269L287.196 113.173C287.277 109.588 290.122 106.653 293.705 106.489C297.656 106.307 300.935 109.537 300.843 113.488L300.919 124.09C300.892 125.291 305.43 124.763 305.446 123.66L304.977 113.741C305.125 107.394 300.041 102.182 293.484 102.449V102.455C288.068 102.674 283.113 107.437 282.978 113.236L282.838 124.442L287.019 124.269Z" fill="white"/>
<path d="M302.505 125.044C301.921 125.044 301.389 124.956 301.056 124.755C300.712 124.547 300.644 124.275 300.649 124.084L300.573 113.491C300.615 111.666 299.892 109.893 298.589 108.62C297.274 107.336 295.543 106.673 293.718 106.76C290.29 106.917 287.544 109.738 287.466 113.18L287.289 124.275C287.287 124.419 287.172 124.535 287.029 124.541L282.847 124.712C282.775 124.718 282.701 124.687 282.647 124.636C282.595 124.584 282.565 124.513 282.565 124.438L282.705 113.232C282.839 107.492 287.738 102.448 293.418 102.187C293.435 102.182 293.454 102.18 293.472 102.179C296.667 102.046 299.654 103.182 301.882 105.37C304.126 107.574 305.322 110.549 305.247 113.747L305.716 123.647C305.713 123.881 305.6 124.202 305.08 124.49C304.472 124.826 303.424 125.044 302.505 125.044ZM294.028 106.211C295.883 106.211 297.625 106.923 298.967 108.233C300.377 109.61 301.16 111.528 301.114 113.494L301.191 124.088C301.189 124.128 301.188 124.203 301.335 124.292C301.963 124.671 303.915 124.517 304.818 124.016C305.041 123.894 305.174 123.758 305.176 123.655L304.707 113.752C304.778 110.687 303.64 107.852 301.502 105.754C299.395 103.684 296.57 102.605 293.547 102.715C293.53 102.72 293.513 102.722 293.494 102.722C288.067 102.943 283.374 107.759 283.246 113.239L283.11 124.157L286.751 124.009L286.925 113.168C287.009 109.439 289.982 106.388 293.693 106.217C293.806 106.214 293.918 106.211 294.028 106.211Z" fill="#00937D"/>
<path d="M291.66 154.778L296.344 154.963C302.829 154.801 308.563 147.055 307.948 137.951L306.964 123.386L279.397 123.165C276.951 123.155 274.901 125.336 275.07 127.774L275.92 140.075C276.48 148.35 283.36 154.778 291.66 154.778Z" fill="#00937D"/>
<path d="M296.176 154.55C305.307 154.55 312.532 146.826 311.916 137.721L310.961 123.602H281.815C280.475 123.602 279.415 124.736 279.504 126.072L280.436 139.847C280.995 148.123 287.877 154.55 296.176 154.55Z" fill="white"/>
<path d="M296.176 154.82C287.765 154.82 280.733 148.251 280.166 139.865L279.23 126.018C279.182 125.315 279.421 124.644 279.902 124.129C280.383 123.614 281.037 123.331 281.742 123.331H308.677C310.098 123.331 311.288 124.441 311.383 125.859L311.513 127.788C311.523 127.936 311.41 128.066 311.262 128.076C311.113 128.082 310.984 127.973 310.973 127.825L310.843 125.895C310.766 124.761 309.815 123.872 308.677 123.872H281.742C281.188 123.872 280.675 124.094 280.297 124.498C279.919 124.903 279.731 125.429 279.768 125.981L280.705 139.828C281.253 147.931 288.048 154.278 296.175 154.278C303.823 154.278 310.42 148.584 311.52 141.035C311.542 140.888 311.679 140.781 311.826 140.807C311.974 140.828 312.077 140.965 312.055 141.114C310.918 148.928 304.091 154.82 296.176 154.82Z" fill="#00937D"/>
<path d="M296.539 145.617C297.283 145.617 297.872 144.989 297.825 144.247L297.126 133.271C297.083 132.593 296.519 132.066 295.839 132.066C295.096 132.066 294.507 132.694 294.553 133.436L295.253 144.412C295.296 145.09 295.859 145.617 296.539 145.617Z" fill="#00937D"/>
<path d="M297.172 138.868C299.722 138.267 301.301 135.713 300.699 133.164C300.097 130.616 297.542 129.037 294.991 129.639C292.441 130.241 290.862 132.795 291.464 135.343C292.066 137.892 294.622 139.47 297.172 138.868Z" fill="#00937D"/>
<path d="M241.295 52.7339C241.295 77.452 221.216 97.4898 196.447 97.4898C171.678 97.4898 151.599 77.452 151.599 52.7339C151.599 28.0157 167.923 25.5253 192.695 25.5253C217.467 25.5253 241.295 28.0157 241.295 52.7339Z" fill="#00937D"/>
<path d="M196.105 95.0782C177.609 95.0782 161.213 82.6542 155.304 64.1639C155.187 63.7968 155.389 63.4044 155.757 63.2873C156.124 63.1639 156.517 63.3728 156.634 63.7399C162.356 81.6511 178.22 93.6826 196.105 93.6826C214.221 93.6826 230.146 81.4486 235.735 63.2399C235.849 62.8728 236.238 62.6639 236.606 62.7778C236.973 62.8918 237.182 63.281 237.068 63.6481C231.299 82.4454 214.839 95.0782 196.105 95.0782Z" fill="white"/>
<path d="M238.211 56.778H153.397C151.608 56.778 150.072 55.6926 149.724 54.1862L143.093 25.3859H250.646L242.552 53.8508C242.061 55.5691 240.269 56.778 238.211 56.778Z" fill="white"/>
<path d="M238.211 57.4745H153.397C151.291 57.4745 149.461 56.158 149.043 54.3416L142.412 25.5412C142.365 25.3355 142.415 25.1171 142.545 24.9494C142.678 24.7817 142.878 24.6868 143.09 24.6868H250.643C250.861 24.6868 251.067 24.7912 251.2 24.9652C251.333 25.1393 251.374 25.3671 251.314 25.576L243.22 54.0409C242.647 56.0631 240.586 57.4745 238.211 57.4745ZM143.97 26.0823L150.405 54.0315C150.677 55.2181 151.937 56.0821 153.397 56.0821H238.211C239.965 56.0821 241.476 55.0852 241.881 53.6612L249.724 26.0823H143.97Z" fill="#00937D"/>
<path d="M249.304 30.4776H144.297C142.147 30.4776 140.405 28.7371 140.405 26.5852C140.405 24.4365 142.147 22.696 144.297 22.696H249.304C251.454 22.696 253.199 24.4365 253.199 26.5852C253.196 28.7371 251.454 30.4776 249.304 30.4776Z" fill="white"/>
<path d="M249.304 31.1771H144.297C141.767 31.1771 139.705 29.1202 139.705 26.5886C139.705 24.0569 141.763 22 144.297 22H249.304C251.834 22 253.895 24.0569 253.895 26.5886C253.895 29.117 251.834 31.1771 249.304 31.1771ZM144.294 23.3956C142.533 23.3956 141.099 24.8291 141.099 26.5886C141.099 28.348 142.533 29.7816 144.294 29.7816H249.3C251.061 29.7816 252.496 28.348 252.496 26.5886C252.496 24.8291 251.061 23.3956 249.3 23.3956H144.294Z" fill="#00937D"/>
<path d="M194.107 76.1415C190.205 76.1415 187.032 72.9738 187.032 69.0814C187.032 65.1891 190.205 62.0214 194.107 62.0214C198.008 62.0214 201.181 65.1891 201.181 69.0814C201.181 72.9738 198.008 76.1415 194.107 76.1415ZM194.107 63.4138C190.975 63.4138 188.429 65.9549 188.429 69.0783C188.429 72.2016 190.975 74.7428 194.107 74.7428C197.238 74.7428 199.784 72.2016 199.784 69.0783C199.784 65.9549 197.238 63.4138 194.107 63.4138Z" fill="white"/>
<path d="M197.406 67.9741C197.406 69.107 196.488 70.0247 195.351 70.0247C194.214 70.0247 193.296 69.107 193.296 67.9741C193.296 66.8412 194.214 65.9235 195.351 65.9235C196.488 65.9235 197.406 66.8412 197.406 67.9741Z" fill="white"/>
<path d="M71.7228 117.576H40.0664V125.219H71.7228V117.576Z" fill="#00937D"/>
<path d="M71.7228 125.545H40.0664C39.8865 125.545 39.7419 125.399 39.7419 125.221V117.576C39.7419 117.396 39.888 117.251 40.0664 117.251H71.7228C71.9027 117.251 72.0472 117.397 72.0472 117.576V125.219C72.0487 125.399 71.9027 125.545 71.7228 125.545ZM40.3924 124.895H71.3983V117.9H40.3924V124.895Z" fill="#00937D"/>
<path d="M71.7228 117.576H40.0664V125.219H71.7228V117.576Z" fill="white"/>
<path d="M71.7228 125.545H40.0664C39.8865 125.545 39.7419 125.399 39.7419 125.221V117.576C39.7419 117.396 39.888 117.251 40.0664 117.251H71.7228C71.9027 117.251 72.0472 117.397 72.0472 117.576V125.219C72.0487 125.399 71.9027 125.545 71.7228 125.545ZM40.3924 124.895H71.3983V117.9H40.3924V124.895Z" fill="#00937D"/>
<path d="M76.2152 126.897H71.7656C70.8364 126.897 70.0828 126.144 70.0828 125.215V107.44C70.0828 106.511 70.8364 105.758 71.7656 105.758H76.2152C77.1444 105.758 77.898 106.511 77.898 107.44V125.214C77.898 126.144 77.1444 126.897 76.2152 126.897Z" fill="white"/>
<path d="M76.2151 127.221H71.7655C70.6579 127.221 69.7567 126.321 69.7567 125.214V107.44C69.7567 106.333 70.6579 105.432 71.7655 105.432H76.2151C77.3227 105.432 78.2239 106.333 78.2239 107.44V125.214C78.2224 126.322 77.3227 127.221 76.2151 127.221ZM71.764 106.084C71.0148 106.084 70.4056 106.693 70.4056 107.441V125.215C70.4056 125.964 71.0148 126.573 71.764 126.573H76.2136C76.9629 126.573 77.572 125.964 77.572 125.215V107.44C77.572 106.691 76.9629 106.082 76.2136 106.082H71.764V106.084Z" fill="#00937D"/>
<path d="M35.8468 107.748V136.687C35.8468 136.687 41.3185 136.921 42.2565 131.694V112.74C42.2551 112.74 41.3952 107.748 35.8468 107.748Z" fill="white"/>
<path d="M35.9191 137.012C35.866 137.012 35.8365 137.011 35.8321 137.011C35.658 137.004 35.5209 136.861 35.5209 136.687V107.748C35.5209 107.568 35.6669 107.424 35.8453 107.424C41.6017 107.424 42.5663 112.633 42.5751 112.686C42.5781 112.703 42.5795 112.723 42.5795 112.74V131.695C42.5795 131.714 42.5781 131.733 42.5751 131.752C41.6651 136.825 36.6418 137.012 35.9191 137.012ZM36.1713 108.078V136.36C37.3114 136.321 41.1578 135.875 41.9306 131.664V112.768C41.8524 112.363 40.9425 108.258 36.1713 108.078Z" fill="#00937D"/>
<path d="M81.0556 86.0154L43.2977 65.3896L79.7179 65.0741C80.3506 65.0565 80.9804 65.164 81.5703 65.3896L130.536 84.2614L81.0556 86.0154Z" fill="white"/>
<path d="M81.0556 86.3411C81.0011 86.3411 80.948 86.3278 80.8993 86.3013L43.1414 65.6755C43.0117 65.6047 42.9453 65.4544 42.9822 65.3114C43.0176 65.1685 43.1473 65.0668 43.2948 65.0653L79.715 64.7499C80.389 64.7307 81.0527 64.8442 81.6869 65.0874L130.654 83.9593C130.798 84.0153 130.882 84.1641 130.857 84.316C130.832 84.4678 130.702 84.5813 130.547 84.5872L81.0689 86.3411C81.063 86.3411 81.0601 86.3411 81.0556 86.3411ZM44.5499 65.7035L81.1338 85.6867L128.935 83.9917L81.4524 65.6932C80.8993 65.4809 80.3167 65.3792 79.7253 65.3999L44.5499 65.7035Z" fill="#00937D"/>
<path d="M82.4213 117.138L43.8597 85.2739C43.4807 85.041 43.2329 84.646 43.1857 84.2038L42.0486 66.9783C41.9291 65.8507 43.1046 65.0372 44.1208 65.5442L82.4272 87.0691L82.4213 117.138Z" fill="white"/>
<path d="M82.4214 117.462C82.3477 117.462 82.2739 117.437 82.2149 117.387L43.6695 85.5363C43.2197 85.2503 42.9188 84.7669 42.8627 84.2378L41.7242 66.999C41.6563 66.3637 41.9351 65.7535 42.4719 65.3806C43.0102 65.0077 43.6813 64.9591 44.2668 65.2509L82.5881 86.7832C82.6898 86.8407 82.7532 86.9497 82.7532 87.0662L82.7473 117.135C82.7473 117.261 82.6751 117.376 82.56 117.43C82.5158 117.452 82.4686 117.462 82.4214 117.462ZM43.4807 65.7137C43.2595 65.7137 43.0383 65.7815 42.8436 65.9156C42.5058 66.15 42.3288 66.5347 42.3731 66.9444L43.5117 84.1832C43.5471 84.509 43.7418 84.8185 44.0323 84.9968C44.0456 85.0042 44.0574 85.013 44.0692 85.0233L82.0984 116.447L82.1043 87.2578L43.9615 65.8272C43.8096 65.7506 43.6444 65.7137 43.4807 65.7137Z" fill="#00937D"/>
<path d="M125.157 117.508H85.7694C81.3728 117.51 80.7858 116.524 80.3758 114.154L77.8981 87.252C77.8981 85.1546 79.6443 83.4537 81.7991 83.4537L128.145 83.4582C130.298 83.4582 132.045 85.1576 132.046 87.2549L129.059 113.71C129.059 115.809 127.312 117.508 125.157 117.508Z" fill="white"/>
<path d="M85.7589 117.834C81.1633 117.834 80.4922 116.73 80.0557 114.211L77.575 87.2828C77.5735 86.1509 78.0145 85.1133 78.8138 84.335C79.6117 83.5583 80.6722 83.1309 81.7989 83.1309L128.145 83.1353C130.474 83.1353 132.37 84.9836 132.37 87.2563C132.37 87.2681 132.37 87.2814 132.369 87.2932L129.384 113.729C129.379 114.824 128.938 115.854 128.143 116.628C127.346 117.405 126.285 117.832 125.158 117.832H85.7693C85.7663 117.834 85.7619 117.834 85.7589 117.834ZM81.7989 83.7808C80.8418 83.7808 79.9436 84.1434 79.2681 84.8008C78.5941 85.4567 78.2239 86.3278 78.2239 87.2534L80.7002 114.126C81.0674 116.238 81.4155 117.184 85.7589 117.184C85.7619 117.184 85.7663 117.184 85.7693 117.184H125.158C126.115 117.184 127.014 116.821 127.689 116.164C128.363 115.508 128.733 114.637 128.733 113.711C128.733 113.7 128.733 113.686 128.735 113.675L131.718 87.2386C131.708 85.3329 130.108 83.7853 128.143 83.7853L81.7989 83.7808Z" fill="#00937D"/>
<path d="M117.383 102.986C117.669 97.2548 113.239 92.3766 107.489 92.0901C101.739 91.8035 96.8453 96.2173 96.5594 101.948C96.2734 107.679 100.703 112.558 106.453 112.844C112.204 113.131 117.097 108.717 117.383 102.986Z" fill="white"/>
<path d="M106.969 113.183C101.042 113.182 96.2188 108.376 96.2173 102.468C96.2173 99.6059 97.3352 96.916 99.3646 94.8923C101.394 92.8701 104.093 91.7559 106.963 91.7559H106.965C112.892 91.7559 117.713 96.5637 117.715 102.471C117.715 105.333 116.597 108.023 114.567 110.047C112.538 112.069 109.839 113.183 106.969 113.183ZM106.965 92.4059C104.267 92.4059 101.732 93.4523 99.8248 95.3522C97.9178 97.2535 96.8677 99.7798 96.8677 102.468C96.8692 108.017 101.4 112.532 106.968 112.533H106.969C109.667 112.533 112.202 111.487 114.109 109.587C116.016 107.686 117.066 105.16 117.066 102.471C117.064 96.9219 112.534 92.4073 106.965 92.4059Z" fill="#00937D"/>
<path d="M112.799 102.535C112.953 99.4409 110.56 96.8075 107.454 96.6533C104.349 96.4992 101.707 98.8828 101.553 101.977C101.399 105.072 103.792 107.705 106.898 107.859C110.003 108.013 112.645 105.63 112.799 102.535Z" fill="#00937D"/>
<path d="M111.442 102.16C111.497 101.072 110.656 100.145 109.563 100.09C108.471 100.035 107.541 100.873 107.486 101.962C107.432 103.051 108.273 103.977 109.365 104.032C110.458 104.087 111.388 103.249 111.442 102.16Z" fill="white"/>
<g opacity="0.5">
<path d="M316.799 46.5908C316.612 46.5908 316.449 46.4562 316.42 46.2658L315.955 43.3248C315.921 43.1151 316.065 42.9177 316.275 42.8845C316.483 42.8495 316.682 42.9946 316.715 43.2043L317.18 46.1452C317.214 46.3549 317.07 46.5523 316.86 46.5856C316.839 46.589 316.82 46.5908 316.799 46.5908Z" fill="#00937D"/>
<path d="M318.425 56.8849C318.238 56.8849 318.076 56.7486 318.046 56.5599L317.581 53.619C317.548 53.4093 317.691 53.2118 317.901 53.1786C318.111 53.1454 318.308 53.2887 318.341 53.4984L318.807 56.4393C318.84 56.649 318.696 56.8465 318.487 56.8797C318.466 56.8832 318.446 56.8849 318.425 56.8849Z" fill="#00937D"/>
<path d="M321.001 49.6418C320.817 49.6418 320.655 49.509 320.622 49.322C320.585 49.1123 320.726 48.9131 320.936 48.8764L323.834 48.3766C324.045 48.3399 324.243 48.4815 324.28 48.6912C324.316 48.9009 324.175 49.1001 323.965 49.1368L321.067 49.6365C321.045 49.64 321.024 49.6418 321.001 49.6418Z" fill="#00937D"/>
<path d="M310.864 51.3909C310.681 51.3909 310.518 51.2581 310.485 51.0712C310.448 50.8615 310.59 50.6622 310.8 50.6256L313.695 50.1258C313.905 50.0891 314.105 50.2306 314.141 50.4403C314.178 50.65 314.036 50.8492 313.827 50.8859L310.931 51.3857C310.908 51.3892 310.885 51.3909 310.864 51.3909Z" fill="#00937D"/>
</g>
<path opacity="0.5" d="M336.077 50.797C335.916 50.797 335.752 50.7848 335.588 50.7568C334.781 50.6275 334.075 50.1906 333.598 49.5319C333.12 48.8713 332.93 48.064 333.059 47.2602C333.328 45.6001 334.897 44.466 336.563 44.7369C337.369 44.8662 338.076 45.3031 338.553 45.9618C339.03 46.6224 339.221 47.4297 339.092 48.2335C338.849 49.7293 337.548 50.797 336.077 50.797ZM336.074 45.4673C334.974 45.4673 334.002 46.2641 333.82 47.3825C333.722 47.9836 333.865 48.5865 334.222 49.0793C334.579 49.5738 335.107 49.8988 335.71 49.9949C336.955 50.1959 338.128 49.3501 338.329 48.1094C338.427 47.5083 338.284 46.9055 337.927 46.4127C337.57 45.9182 337.042 45.5931 336.439 45.497C336.317 45.4778 336.194 45.4673 336.074 45.4673Z" fill="#00937D"/>
<path d="M275.109 259.329C275.105 259.329 275.102 259.329 275.098 259.329C273.561 259.287 271.998 259.172 270.452 258.99C270.241 258.966 270.09 258.773 270.115 258.562C270.139 258.351 270.333 258.2 270.543 258.225C272.066 258.405 273.607 258.517 275.119 258.559C275.332 258.564 275.5 258.742 275.493 258.953C275.488 259.163 275.317 259.329 275.109 259.329ZM279.73 259.245C279.529 259.245 279.359 259.088 279.345 258.885C279.331 258.672 279.492 258.49 279.706 258.476C281.223 258.379 282.757 258.209 284.266 257.973C284.476 257.943 284.673 258.085 284.707 258.295C284.74 258.504 284.596 258.702 284.385 258.735C282.853 258.974 281.295 259.146 279.755 259.245C279.748 259.245 279.739 259.245 279.73 259.245ZM265.934 258.251C265.908 258.251 265.881 258.248 265.855 258.242C264.357 257.931 262.837 257.552 261.339 257.11C261.134 257.051 261.017 256.836 261.078 256.631C261.138 256.428 261.353 256.31 261.557 256.371C263.037 256.806 264.535 257.182 266.013 257.487C266.221 257.531 266.355 257.734 266.312 257.943C266.273 258.125 266.114 258.251 265.934 258.251ZM288.858 257.825C288.685 257.825 288.527 257.708 288.483 257.533C288.433 257.327 288.559 257.117 288.765 257.066C290.234 256.703 291.717 256.269 293.173 255.777C293.376 255.707 293.593 255.817 293.663 256.018C293.731 256.219 293.623 256.437 293.421 256.505C291.946 257.005 290.442 257.445 288.952 257.812C288.921 257.821 288.889 257.825 288.858 257.825ZM257.065 255.651C257.02 255.651 256.974 255.642 256.929 255.626C255.504 255.086 254.061 254.478 252.641 253.821C252.449 253.732 252.363 253.503 252.454 253.309C252.543 253.117 252.772 253.031 252.967 253.122C254.369 253.772 255.796 254.372 257.203 254.906C257.403 254.982 257.502 255.203 257.427 255.403C257.368 255.556 257.221 255.651 257.065 255.651ZM297.616 254.871C297.468 254.871 297.324 254.784 297.261 254.639C297.177 254.443 297.268 254.216 297.464 254.132C298.854 253.536 300.251 252.872 301.617 252.161C301.806 252.063 302.038 252.135 302.136 252.325C302.234 252.514 302.161 252.747 301.972 252.844C300.589 253.564 299.174 254.237 297.767 254.84C297.719 254.863 297.667 254.871 297.616 254.871ZM248.672 251.775C248.609 251.775 248.546 251.759 248.488 251.728C247.153 250.999 245.803 250.208 244.479 249.376C244.299 249.262 244.245 249.025 244.358 248.845C244.472 248.665 244.71 248.61 244.89 248.724C246.201 249.547 247.537 250.33 248.859 251.052C249.046 251.153 249.114 251.387 249.013 251.574C248.941 251.702 248.808 251.775 248.672 251.775ZM305.821 250.604C305.691 250.604 305.565 250.54 305.492 250.421C305.38 250.239 305.436 250.001 305.618 249.891C306.915 249.093 308.206 248.236 309.452 247.347C309.625 247.223 309.867 247.263 309.991 247.436C310.115 247.609 310.075 247.85 309.902 247.974C308.641 248.874 307.337 249.741 306.023 250.548C305.959 250.587 305.889 250.604 305.821 250.604ZM313.348 245.227C313.236 245.227 313.128 245.18 313.051 245.088C312.915 244.923 312.939 244.68 313.103 244.546C314.653 243.268 315.824 242.175 316.536 241.483C316.688 241.334 316.933 241.338 317.081 241.49C317.23 241.642 317.227 241.886 317.074 242.035C316.354 242.737 315.163 243.845 313.595 245.14C313.521 245.198 313.436 245.227 313.348 245.227ZM320.103 238.888C320.003 238.888 319.902 238.849 319.827 238.771C319.678 238.619 319.682 238.374 319.834 238.225C320.589 237.49 321.738 236.343 322.979 234.884C323.117 234.722 323.36 234.702 323.523 234.841C323.686 234.979 323.705 235.221 323.567 235.384C322.306 236.868 321.14 238.031 320.372 238.779C320.297 238.853 320.201 238.888 320.103 238.888ZM326.064 231.835C325.99 231.835 325.915 231.814 325.849 231.77C325.672 231.651 325.625 231.412 325.744 231.236C326.588 229.977 327.372 228.653 328.073 227.297C328.171 227.108 328.403 227.035 328.592 227.131C328.781 227.229 328.856 227.461 328.758 227.65C328.043 229.032 327.244 230.383 326.384 231.664C326.31 231.776 326.188 231.835 326.064 231.835ZM330.306 223.643C330.26 223.643 330.213 223.634 330.168 223.617C329.968 223.54 329.87 223.318 329.947 223.119C330.486 221.719 330.965 220.255 331.369 218.766C331.425 218.561 331.636 218.439 331.843 218.495C332.047 218.551 332.17 218.762 332.114 218.967C331.703 220.48 331.215 221.971 330.668 223.395C330.607 223.55 330.461 223.643 330.306 223.643ZM332.74 214.743C332.719 214.743 332.696 214.741 332.673 214.738C332.464 214.701 332.324 214.502 332.359 214.292C332.614 212.819 332.813 211.289 332.95 209.744C332.969 209.532 333.156 209.375 333.368 209.394C333.579 209.414 333.737 209.601 333.717 209.812C333.579 211.378 333.378 212.931 333.118 214.425C333.088 214.61 332.923 214.743 332.74 214.743ZM333.565 205.548C333.563 205.548 333.562 205.548 333.56 205.548C333.347 205.545 333.177 205.37 333.18 205.159C333.184 204.868 333.186 204.575 333.186 204.28C333.186 203.065 333.152 201.814 333.086 200.563C333.076 200.351 333.238 200.17 333.45 200.157C333.663 200.142 333.843 200.309 333.855 200.523C333.924 201.788 333.957 203.051 333.957 204.281C333.957 204.58 333.955 204.875 333.952 205.171C333.948 205.38 333.777 205.548 333.565 205.548ZM333.037 196.329C332.855 196.329 332.693 196.199 332.659 196.014C332.385 194.553 331.881 193.129 331.164 191.784C331.065 191.597 331.136 191.362 331.323 191.263C331.512 191.165 331.745 191.235 331.845 191.422C332.598 192.836 333.128 194.335 333.417 195.873C333.457 196.082 333.319 196.283 333.109 196.322C333.084 196.327 333.06 196.329 333.037 196.329ZM328.818 188.24C328.713 188.24 328.61 188.198 328.533 188.114C327.622 187.12 326.545 186.136 325.328 185.191C325.16 185.059 325.13 184.818 325.259 184.651C325.391 184.483 325.632 184.451 325.8 184.582C327.067 185.568 328.146 186.552 329.099 187.593C329.243 187.751 329.232 187.993 329.075 188.138C329.003 188.205 328.91 188.24 328.818 188.24Z" fill="#A3E0D7"/>
<path d="M95.7261 295.926H88.9574L95.8135 267.76H107.503L95.7261 295.926Z" fill="white"/>
<path d="M95.728 296.312H88.9592C88.8403 296.312 88.7284 296.258 88.6567 296.165C88.5833 296.072 88.5571 295.95 88.585 295.836L95.4412 267.669C95.4832 267.496 95.637 267.376 95.8154 267.376H107.505C107.634 267.376 107.755 267.441 107.826 267.547C107.898 267.655 107.91 267.79 107.861 267.909L96.0847 296.076C96.0235 296.219 95.8818 296.312 95.728 296.312ZM89.4488 295.541H95.4709L106.926 268.145H96.1179L89.4488 295.541Z" fill="#181524"/>
<path d="M63.2081 295.926H56.4393L63.2955 267.76H74.9847L63.2081 295.926Z" fill="white"/>
<path d="M63.2081 296.312H56.4393C56.3204 296.312 56.2085 296.258 56.1368 296.165C56.0634 296.072 56.0372 295.95 56.0652 295.836L62.9213 267.669C62.9633 267.496 63.1171 267.376 63.2955 267.376H74.9847C75.1141 267.376 75.2347 267.441 75.3064 267.547C75.3781 267.655 75.3904 267.79 75.3414 267.909L63.5648 296.076C63.5053 296.219 63.3637 296.312 63.2081 296.312ZM56.9307 295.541H62.9528L74.4077 268.145H63.5997L56.9307 295.541Z" fill="#181524"/>
<path d="M251.276 295.926H258.044L251.188 267.76H239.499L251.276 295.926Z" fill="white"/>
<path d="M258.044 296.312H251.276C251.12 296.312 250.98 296.219 250.921 296.076L239.144 267.909C239.095 267.79 239.107 267.654 239.179 267.547C239.251 267.441 239.371 267.376 239.501 267.376H251.19C251.368 267.376 251.522 267.498 251.564 267.669L258.42 295.836C258.448 295.952 258.422 296.072 258.349 296.165C258.273 296.258 258.161 296.312 258.044 296.312ZM251.531 295.541H257.553L250.886 268.145H240.078L251.531 295.541Z" fill="#181524"/>
<path d="M284.121 295.926H290.889L284.033 267.76H272.344L284.121 295.926Z" fill="white"/>
<path d="M290.89 296.312H284.121C283.965 296.312 283.825 296.219 283.766 296.076L271.989 267.909C271.94 267.79 271.952 267.654 272.024 267.547C272.096 267.441 272.217 267.376 272.346 267.376H284.035C284.213 267.376 284.367 267.498 284.409 267.669L291.265 295.836C291.293 295.952 291.267 296.072 291.194 296.165C291.119 296.258 291.007 296.312 290.89 296.312ZM284.376 295.541H290.398L283.731 268.145H272.923L284.376 295.541Z" fill="#181524"/>
<path d="M260.393 269.831H65.6367C58.8854 269.831 52.9788 265.291 51.2442 258.772L36.0456 201.94C33.5347 192.495 40.3314 183.235 50.1111 183.235H245.192C251.943 183.235 257.85 187.775 259.585 194.295L274.783 251.127C277.296 260.571 270.171 269.831 260.393 269.831Z" fill="#E3F3F1"/>
<path d="M260.393 270.216H65.6367C58.7193 270.216 52.6483 265.55 50.8717 258.869L35.6732 202.039C34.4177 197.319 35.3741 192.433 38.296 188.636C41.1252 184.96 45.4319 182.85 50.1111 182.85H245.192C252.11 182.85 258.181 187.516 259.957 194.197L275.156 251.027C276.385 255.645 275.416 260.467 272.501 264.255C269.588 268.043 265.173 270.216 260.393 270.216ZM50.1111 183.621C45.6732 183.621 41.5903 185.62 38.908 189.106C36.133 192.713 35.2255 197.354 36.4198 201.84L51.6184 258.67C53.3057 265.013 59.0708 269.445 65.6384 269.445H260.393C264.934 269.445 269.125 267.381 271.893 263.785C274.661 260.189 275.579 255.61 274.413 251.224L259.214 194.394C257.527 188.051 251.762 183.619 245.194 183.619H50.1111V183.621Z" fill="#181524"/>
<path d="M233.351 270.158H285.902C290.249 270.158 294.053 267.234 295.17 263.037L304.957 226.234C306.574 220.153 301.986 214.191 295.689 214.191H243.138C238.791 214.191 234.988 217.114 233.87 221.312L224.083 258.115C222.468 264.196 227.056 270.158 233.351 270.158Z" fill="#00937D"/>
<path d="M285.903 270.542H233.351C230.23 270.542 227.348 269.124 225.444 266.651C223.541 264.178 222.91 261.031 223.711 258.015L233.498 221.212C234.657 216.851 238.621 213.805 243.138 213.805H295.689C298.81 213.805 301.692 215.224 303.596 217.696C305.499 220.169 306.132 223.316 305.329 226.332L295.542 263.135C294.381 267.497 290.417 270.542 285.903 270.542ZM243.138 214.577C238.971 214.577 235.313 217.387 234.243 221.411L224.456 258.214C223.716 260.996 224.299 263.9 226.054 266.183C227.81 268.465 230.469 269.774 233.349 269.774H285.901C290.068 269.774 293.726 266.964 294.796 262.939L304.582 226.137C305.322 223.355 304.74 220.45 302.984 218.168C301.229 215.886 298.569 214.577 295.689 214.577H243.138Z" fill="#181524"/>
<path d="M115.971 258.712L105.606 221.25C104.488 217.051 100.685 214.032 96.3381 214.032H72.2096C68.8926 214.032 65.9882 211.802 65.1366 208.597L60.2459 190.219C59.2055 186.303 55.8255 183.474 51.8492 183.123H49.7842C39.4938 182.95 33.741 191.369 35.0472 200.201L41.7949 225.663C41.8334 225.853 41.8789 226.045 41.9296 226.236L51.0589 260.435C52.6431 266.102 58.896 270.794 64.0665 270.794H106.707C113.002 270.792 117.589 264.793 115.971 258.712Z" fill="#00937D"/>
<path d="M106.705 271.177H64.0648C58.5235 271.177 52.2707 266.205 50.6864 260.537L41.5554 226.334C41.5029 226.135 41.4557 225.936 41.4155 225.738L34.673 200.297C34.6695 200.283 34.666 200.269 34.6643 200.255C33.9649 195.521 35.2396 190.898 38.1597 187.572C40.9696 184.374 45.1015 182.662 49.7894 182.735H51.8492C56.0318 183.104 59.5412 186.069 60.6183 190.118L65.5091 208.496C66.3152 211.528 69.0709 213.644 72.2096 213.644H96.3382C100.839 213.644 104.803 216.73 105.978 221.149L116.344 258.607C116.344 258.609 116.344 258.611 116.345 258.611C117.15 261.634 116.513 264.793 114.602 267.28C112.696 269.758 109.818 271.177 106.705 271.177ZM35.4249 200.121L42.1674 225.562C42.2094 225.768 42.2531 225.951 42.302 226.135L51.4313 260.332C52.9054 265.602 58.9275 270.404 64.0665 270.404H106.707C109.578 270.404 112.234 269.094 113.992 266.81C115.756 264.517 116.344 261.601 115.602 258.812L105.237 221.352C104.151 217.266 100.493 214.415 96.3417 214.415H72.2096C68.7212 214.415 65.6595 212.063 64.7642 208.694L59.8734 190.316C58.8803 186.58 55.6419 183.841 51.816 183.504L49.7842 183.506C45.3148 183.433 41.398 185.056 38.7402 188.081C35.974 191.231 34.7657 195.619 35.4249 200.121Z" fill="#181524"/>
<path opacity="0.11" d="M295.873 214.306H287.871C283.524 214.306 279.721 217.336 278.604 221.536L268.49 259.749H116.223L106.064 221.536C104.948 217.336 101.145 214.306 96.7963 214.306H88.7948C82.4982 214.306 77.9117 220.23 79.5274 226.311L89.3142 263.102C90.4315 267.301 94.2347 270.211 98.5816 270.211H286.088C290.778 269.884 294.238 267.28 295.355 263.083L305.14 226.315C306.758 220.234 302.17 214.306 295.873 214.306Z" fill="#00937D"/>
<path d="M98.5816 270.595C94.0633 270.595 90.101 267.554 88.9417 263.2L79.1567 226.411C78.3576 223.405 78.9853 220.27 80.8773 217.81C82.778 215.339 85.6649 213.922 88.7966 213.922H96.798C101.297 213.922 105.261 217.011 106.438 221.436L116.52 259.364H268.197L278.235 221.438C279.412 217.013 283.376 213.922 287.875 213.922H295.876C299.006 213.922 301.893 215.339 303.794 217.81C305.688 220.27 306.315 223.407 305.515 226.414L295.729 263.182C294.586 267.484 290.993 270.256 286.118 270.597L98.5816 270.595ZM88.7948 214.692C85.9044 214.692 83.2414 216 81.4875 218.28C79.7425 220.548 79.1637 223.44 79.8998 226.213L89.6866 263.004C90.755 267.021 94.413 269.826 98.5816 269.826H286.088C290.659 269.506 293.911 267.013 294.983 262.985L304.768 226.217C305.506 223.444 304.927 220.55 303.18 218.28C301.426 216 298.763 214.692 295.873 214.692H287.871C283.722 214.692 280.064 217.548 278.976 221.635L268.863 259.848C268.817 260.018 268.665 260.135 268.49 260.135H116.221C116.046 260.135 115.894 260.018 115.849 259.848L105.69 221.635C104.602 217.548 100.946 214.692 96.7945 214.692H88.7948Z" fill="#181524"/>
<path d="M268.798 259.754H116.34C112.843 259.754 110.008 256.921 110.008 253.426V248.306C110.008 244.811 112.843 241.979 116.34 241.979H268.798C272.295 241.979 275.13 244.811 275.13 248.306V253.426C275.13 256.919 272.295 259.754 268.798 259.754Z" fill="#00937D"/>
<path d="M268.798 260.138H116.34C112.637 260.138 109.624 257.127 109.624 253.426V248.306C109.624 244.605 112.637 241.594 116.34 241.594H268.798C272.501 241.594 275.514 244.605 275.514 248.306V253.426C275.516 257.127 272.501 260.138 268.798 260.138ZM116.34 242.363C113.061 242.363 110.393 245.028 110.393 248.304V253.424C110.393 256.701 113.06 259.367 116.34 259.367H268.798C272.077 259.367 274.745 256.701 274.745 253.424V248.304C274.745 245.028 272.078 242.363 268.798 242.363H116.34Z" fill="#181524"/>
<path d="M179.364 203.642L217.229 201.805C218.932 201.723 220.426 202.929 220.705 204.608L226.297 238.349C226.638 240.408 225.037 242.276 222.949 242.253L183.812 241.837C182.148 241.82 180.747 240.586 180.521 238.938L176.199 207.449C175.933 205.497 177.397 203.738 179.364 203.642Z" fill="white"/>
<path d="M222.987 242.639C222.973 242.639 222.961 242.639 222.947 242.639L183.81 242.223C181.969 242.204 180.392 240.815 180.142 238.991L175.819 207.502C175.678 206.466 175.978 205.408 176.648 204.603C177.318 203.797 178.301 203.306 179.346 203.255L217.212 201.419C219.105 201.326 220.775 202.67 221.086 204.545L226.678 238.286C226.86 239.38 226.549 240.49 225.827 241.332C225.115 242.164 224.082 242.639 222.987 242.639ZM179.383 204.026C178.54 204.066 177.779 204.447 177.241 205.096C176.702 205.744 176.468 206.562 176.583 207.397L180.906 238.886C181.105 240.333 182.357 241.437 183.819 241.453L222.956 241.869C222.966 241.869 222.977 241.869 222.987 241.869C223.856 241.869 224.678 241.491 225.243 240.831C225.816 240.161 226.063 239.281 225.918 238.412L220.326 204.671C220.079 203.184 218.763 202.12 217.248 202.19L179.383 204.026Z" fill="#181524"/>
<path d="M185.389 237.301C185.197 237.301 185.031 237.158 185.006 236.96L181.614 208.056C181.59 207.844 181.74 207.654 181.952 207.628C182.16 207.598 182.355 207.753 182.38 207.965L185.772 236.869C185.797 237.081 185.646 237.271 185.435 237.297C185.421 237.301 185.405 237.301 185.389 237.301Z" fill="#181524"/>
<path d="M113.521 242.994C113.31 242.994 113.137 242.823 113.137 242.609C113.135 242.396 113.308 242.223 113.52 242.223L160.691 242.024H160.693C160.904 242.024 161.077 242.195 161.077 242.408C161.079 242.622 160.906 242.795 160.694 242.795L113.521 242.994Z" fill="#181524"/>
<path d="M221.251 284.559C221.37 284.884 234.222 297.902 234.222 297.902L226.322 301.518L215.927 290.185L221.251 284.559Z" fill="#FFB583"/>
<path d="M226.324 301.902C226.219 301.902 226.114 301.858 226.039 301.778L215.643 290.446C215.507 290.297 215.509 290.068 215.647 289.92L220.969 284.293C221.062 284.197 221.197 284.155 221.328 284.181C221.438 284.204 221.531 284.272 221.585 284.368C222.013 284.938 229.523 292.595 234.495 297.631C234.582 297.72 234.622 297.848 234.6 297.972C234.577 298.096 234.495 298.201 234.381 298.253L226.481 301.869C226.432 301.89 226.378 301.902 226.324 301.902ZM216.455 290.189L226.418 301.049L233.563 297.78C224.68 288.781 222.041 286.013 221.244 285.127L216.455 290.189Z" fill="#181524"/>
<path d="M225.883 295.955C226.156 295.255 226.652 294.442 227.551 293.895C228.906 293.07 230.646 293.231 231.919 294.178C235.1 296.546 243.748 303.26 248.794 309.865C250.578 312.2 249.784 315.338 245.846 315.338C239.392 315.34 229.067 312.86 220.361 305.586C219.361 304.75 218.845 303.468 219.014 302.176C219.154 301.123 219.403 299.8 219.845 298.545C220.27 297.346 221.515 296.644 222.767 296.869L223.895 297.074C224.739 297.226 225.57 296.758 225.883 295.955Z" fill="white"/>
<path d="M245.838 315.723C239.093 315.723 228.796 313.138 220.111 305.881C218.997 304.95 218.443 303.545 218.63 302.126C218.812 300.745 219.097 299.498 219.48 298.418C219.967 297.039 221.377 296.23 222.833 296.492L223.961 296.695C224.622 296.813 225.278 296.445 225.523 295.817C225.902 294.842 226.535 294.065 227.35 293.567C228.794 292.686 230.721 292.808 232.148 293.871C235.57 296.419 244.073 303.052 249.099 309.633C250.109 310.956 250.361 312.54 249.753 313.769C249.128 315.031 247.74 315.726 245.843 315.726C245.843 315.723 245.839 315.723 245.838 315.723ZM222.288 297.212C221.361 297.212 220.522 297.782 220.207 298.673C219.843 299.702 219.569 300.897 219.394 302.225C219.242 303.382 219.695 304.528 220.606 305.289C229.133 312.413 239.23 314.952 245.838 314.952C245.839 314.952 245.841 314.952 245.843 314.952C247.431 314.952 248.574 314.408 249.062 313.425C249.538 312.462 249.317 311.186 248.485 310.098C243.517 303.595 235.082 297.014 231.686 294.486C230.51 293.61 228.929 293.506 227.75 294.222C227.07 294.636 226.563 295.265 226.24 296.094C225.862 297.065 224.844 297.635 223.821 297.451L222.693 297.249C222.559 297.224 222.422 297.212 222.288 297.212Z" fill="#181524"/>
<path d="M243.594 312.656C239.751 312.656 232.874 311.142 222.059 303.838C221.882 303.719 221.837 303.48 221.956 303.303C222.074 303.127 222.314 303.08 222.491 303.2C240.087 315.081 247.048 311.277 247.116 311.239C247.298 311.132 247.535 311.193 247.642 311.375C247.751 311.557 247.691 311.792 247.509 311.901C247.394 311.971 246.179 312.656 243.594 312.656Z" fill="#181524"/>
<path d="M236.95 305.774C236.862 305.774 236.775 305.745 236.703 305.685C236.539 305.549 236.516 305.306 236.652 305.143L239.728 301.442C239.864 301.28 240.108 301.255 240.27 301.392C240.435 301.528 240.457 301.771 240.321 301.933L237.245 305.634C237.17 305.727 237.06 305.774 236.95 305.774Z" fill="#181524"/>
<path d="M233.93 303.555C233.839 303.555 233.748 303.524 233.674 303.457C233.515 303.316 233.501 303.073 233.643 302.914L237.044 299.094C237.186 298.935 237.429 298.921 237.588 299.062C237.747 299.204 237.761 299.447 237.619 299.606L234.218 303.426C234.141 303.511 234.036 303.555 233.93 303.555Z" fill="#181524"/>
<path d="M196.397 293.243L193.566 309.76L187.201 305.442L189.173 289.605L196.397 293.243Z" fill="#FFB583"/>
<path d="M193.566 310.145C193.491 310.145 193.414 310.122 193.349 310.078L186.984 305.76C186.864 305.68 186.801 305.538 186.818 305.395L188.79 289.558C188.806 289.434 188.881 289.324 188.992 289.266C189.102 289.207 189.235 289.205 189.347 289.263L196.57 292.899C196.72 292.974 196.804 293.14 196.776 293.308L193.945 309.825C193.923 309.954 193.837 310.063 193.716 310.115C193.669 310.136 193.618 310.145 193.566 310.145ZM187.612 305.255L193.288 309.105L195.968 293.458L189.488 290.196L187.612 305.255Z" fill="#181524"/>
<path d="M195.512 306.688C195.414 311.785 195.073 322.043 191.625 329.491C190.7 331.488 186.668 331.563 185.063 328.994C181.716 323.638 177.313 314.47 178.986 303.019C179.117 302.124 179.668 301.343 180.466 300.92C181.403 300.422 182.893 299.782 185.036 299.27C186.103 299.015 187.168 299.716 187.358 300.796L188.058 304.761L188.532 304.071C189.243 303.033 190.571 302.613 191.749 303.057C192.384 303.295 193.085 303.559 193.72 303.798C194.905 304.242 195.536 305.423 195.512 306.688Z" fill="white"/>
<path d="M188.778 331.345C187.126 331.345 185.564 330.523 184.736 329.199C179.376 320.624 177.315 311.796 178.605 302.964C178.754 301.953 179.381 301.061 180.285 300.581C181.179 300.107 182.712 299.429 184.947 298.896C185.566 298.748 186.203 298.86 186.736 299.209C187.264 299.555 187.629 300.109 187.738 300.729L188.275 303.768C189.102 302.643 190.571 302.203 191.885 302.697L193.856 303.438C195.126 303.915 195.926 305.194 195.898 306.697C195.82 310.828 195.61 321.804 191.975 329.655C191.527 330.623 190.448 331.252 189.088 331.336C188.985 331.341 188.881 331.345 188.778 331.345ZM185.482 299.601C185.363 299.601 185.244 299.615 185.125 299.643C182.969 300.158 181.501 300.806 180.647 301.259C179.958 301.624 179.481 302.302 179.367 303.074C178.103 311.723 180.128 320.374 185.388 328.79C186.278 330.214 187.913 330.635 189.039 330.565C190.111 330.499 190.946 330.036 191.273 329.33C194.841 321.627 195.047 310.768 195.126 306.681C195.148 305.491 194.557 304.523 193.583 304.158L191.613 303.417C190.598 303.036 189.462 303.394 188.848 304.289L188.376 304.979C188.287 305.109 188.129 305.17 187.976 305.138C187.822 305.105 187.705 304.983 187.677 304.829L186.977 300.864C186.904 300.446 186.666 300.088 186.311 299.854C186.061 299.686 185.774 299.601 185.482 299.601Z" fill="#181524"/>
<path d="M188.171 328.196C188.051 328.196 187.934 328.14 187.858 328.035C180.173 317.308 181.112 304.011 181.123 303.878C181.14 303.667 181.326 303.513 181.537 303.524C181.749 303.539 181.908 303.726 181.892 303.938C181.882 304.069 180.969 317.093 188.486 327.586C188.61 327.759 188.57 328 188.397 328.124C188.327 328.173 188.248 328.196 188.171 328.196Z" fill="#181524"/>
<path d="M194.639 314.101C194.611 314.101 194.582 314.097 194.552 314.09L189.722 312.979C189.514 312.932 189.385 312.724 189.434 312.518C189.481 312.31 189.689 312.181 189.896 312.229L194.725 313.341C194.933 313.388 195.063 313.596 195.014 313.802C194.973 313.98 194.814 314.101 194.639 314.101Z" fill="#181524"/>
<path d="M193.951 318.281C193.912 318.281 193.874 318.275 193.835 318.263L189.254 316.818C189.051 316.754 188.937 316.537 189.002 316.334C189.067 316.131 189.284 316.02 189.486 316.082L194.068 317.528C194.271 317.592 194.384 317.809 194.319 318.012C194.265 318.176 194.113 318.281 193.951 318.281Z" fill="#181524"/>
<path d="M150.892 220.955C150.892 220.955 173.503 217.015 194.636 227.493C199.964 230.133 203.431 235.457 203.722 241.392C204.299 253.175 204.222 274.777 198.016 293.86C197.663 294.946 196.47 295.515 195.402 295.11L185.951 291.529C185.316 291.288 184.846 290.745 184.704 290.081C183.79 285.799 180.604 269.501 182.254 257.465C184.169 243.494 138.792 231.26 138.792 231.26L150.892 220.955Z" fill="#181524"/>
<path d="M223.895 287.299L215.963 293.147C215.434 293.539 214.697 293.486 214.229 293.025C208.866 287.755 178.602 258.169 171.216 254.482C163.104 250.431 148.037 244.488 134.69 245.294C121.343 246.099 118.022 236.985 118.022 236.985L136.393 223.657C136.393 223.657 169.541 225.595 184.078 236.155C197.205 245.689 219.926 279.086 224.213 285.48C224.612 286.072 224.47 286.872 223.895 287.299Z" fill="#181524"/>
<path d="M203.911 257.735C203.801 257.735 203.69 257.686 203.614 257.591C197.699 250.132 188.581 240.205 183.557 236.502C178.112 232.489 169.409 229.253 157.687 226.887C157.481 226.845 157.346 226.642 157.388 226.433C157.429 226.224 157.63 226.087 157.836 226.13C169.667 228.518 178.47 231.798 184.005 235.878C189.079 239.617 198.262 249.609 204.207 257.107C204.339 257.274 204.313 257.517 204.148 257.651C204.079 257.709 203.996 257.735 203.911 257.735Z" fill="black"/>
<path d="M130.103 199.718C130.103 199.718 133.498 222.371 142.739 224.969C151.982 227.568 152.029 222.239 155.171 214.541L152.029 213.502C152.029 213.502 157.015 220.957 149.825 218.795C142.633 216.634 135.748 194.279 135.748 194.279L130.103 199.718Z" fill="#FFB583"/>
<path d="M147.111 227.154C144.706 225.989 147.673 226.627 146.356 226.256C137.026 223.633 130.086 200.858 129.739 199.841C129.692 199.699 129.729 199.544 129.837 199.439L135.482 193.999C135.578 193.907 135.716 193.87 135.845 193.903C135.975 193.936 136.078 194.036 136.118 194.163C136.186 194.385 143.027 216.345 149.939 218.425C148.502 220.637 151.558 213.012 151.684 212.687C151.759 212.497 151.969 212.397 152.165 212.462L155.307 213.502C155.464 213.554 155.571 213.699 155.571 213.865C155.596 218.59 153.832 219.619 150.389 222.239C148.845 223.413 150.183 227.154 147.111 227.154ZM130.549 199.825C131.429 202.329 138.091 223.134 146.564 225.515C151.196 226.819 147.957 223.121 149.921 221.627C153.108 219.202 154.739 218.534 154.798 214.145L152.256 213.304C151.53 214.877 156.305 221.146 149.717 219.164C142.995 217.142 136.744 198.644 135.569 194.986L130.549 199.825Z" fill="#181524"/>
<path d="M124.473 242.379C124.473 242.379 116.588 247.546 112.596 245.612C108.605 243.677 116.181 237.157 118.285 237.035C120.388 236.913 124.473 242.379 124.473 242.379Z" fill="#181524"/>
<path d="M131.808 158.346C135.204 158.121 138.827 161.338 138.087 166.327C137.482 170.402 133.116 171.335 130.979 173.381C124.069 180.001 129.662 188.123 124.151 194.822C118.9 201.206 111.995 196.058 101.754 203.088C93.6909 208.62 122.074 201.368 111.909 207.088C103.801 211.65 89.3072 210.182 81.7726 200.189C74.6087 190.688 73.7764 177.135 82.2377 171.23C89.844 165.921 94.4323 173.079 102.49 168.163C110.433 163.318 108.73 157.948 113.611 156.036C120.287 153.422 122.182 158.986 131.808 158.346Z" fill="#181524"/>
<path d="M88.4364 205.592C89.0467 203.103 89.8825 200.185 90.6588 198.277C93.0474 192.406 94.6631 188.591 101.629 185.498C102.672 185.035 103.759 184.675 104.864 184.394L109.015 183.331C109.015 183.331 126.094 179.747 132.334 186.691C132.84 187.254 133.485 187.894 133.875 188.619L137.771 195.513L137.729 195.527C133.735 196.835 131.776 201.354 133.592 205.144C135.678 209.501 138.617 214.626 141.745 216.892C142.733 217.609 150.818 221.626 150.818 221.626C150.818 221.626 152.417 228.003 139.213 232.425C126.008 236.848 116.527 238.115 113.364 244.518C111.491 248.31 106.351 229.125 103.434 211.283C102.873 207.849 99.8756 205.352 96.3959 205.424L88.4364 205.592Z" fill="url(#paint1_linear_2366_33381)"/>
<path d="M112.813 245.386C112.77 245.386 112.728 245.383 112.687 245.377C109.841 244.953 105.256 224.819 103.053 211.344C102.533 208.166 99.7461 205.808 96.541 205.808C96.4955 205.808 96.4501 205.808 96.4046 205.81L88.4451 205.978C88.3262 205.981 88.2108 205.927 88.1356 205.835C88.0604 205.74 88.0342 205.618 88.0622 205.503C88.7791 202.57 89.6167 199.816 90.3021 198.134C92.6155 192.447 94.2871 188.339 101.474 185.147C102.486 184.698 103.563 184.329 104.77 184.02L108.921 182.957C109.643 182.805 126.307 179.405 132.621 186.434C132.707 186.529 132.794 186.625 132.885 186.725C133.345 187.224 133.866 187.792 134.214 188.435L138.106 195.322C138.164 195.422 138.171 195.544 138.131 195.65C138.089 195.759 138.001 195.841 137.891 195.878L137.849 195.892C136.041 196.484 134.576 197.826 133.829 199.573C133.086 201.309 133.128 203.278 133.941 204.977C135.875 209.017 138.839 214.308 141.974 216.58C142.735 217.132 148.206 219.896 150.993 221.282C151.095 221.333 151.168 221.423 151.196 221.534C151.264 221.808 152.728 228.307 139.339 232.791C136.366 233.787 133.529 234.639 131.023 235.391C122.355 237.993 116.092 239.875 113.714 244.689C113.434 245.248 113.089 245.386 112.813 245.386ZM96.541 205.038C100.122 205.038 103.235 207.671 103.815 211.22C106.789 229.42 111.164 244.371 112.803 244.614C112.839 244.629 112.925 244.539 113.02 244.345C115.546 239.23 121.944 237.308 130.797 234.65C133.298 233.898 136.13 233.049 139.091 232.057C150.572 228.212 150.577 222.879 150.469 221.88C149.245 221.27 142.45 217.876 141.518 217.2C138.253 214.834 135.216 209.426 133.244 205.305C132.334 203.407 132.289 201.207 133.119 199.268C133.899 197.447 135.375 196.019 137.209 195.299L133.539 188.804C133.235 188.238 132.747 187.708 132.319 187.242C132.226 187.14 132.135 187.043 132.048 186.945C126.029 180.247 109.264 183.668 109.096 183.703L104.96 184.762C103.798 185.059 102.759 185.414 101.787 185.846C94.8851 188.911 93.3464 192.694 91.0173 198.418C90.3843 199.975 89.6149 202.481 88.933 205.193L96.3906 205.036C96.4396 205.038 96.4903 205.038 96.541 205.038Z" fill="#181524"/>
<path d="M155.258 211.1H143.724C142.965 211.1 142.267 211.516 141.904 212.183L133.486 227.674C132.736 229.055 133.736 230.735 135.306 230.735H146.869C147.629 230.735 148.328 230.318 148.69 229.65L157.08 214.158C157.827 212.778 156.828 211.1 155.258 211.1Z" stroke="#181524" stroke-width="1.03571"/>
<path d="M155.258 211.1H143.724C142.965 211.1 142.267 211.516 141.904 212.183L133.486 227.674C132.736 229.055 133.736 230.735 135.306 230.735H146.869C147.629 230.735 148.328 230.318 148.69 229.65L157.08 214.158C157.827 212.778 156.828 211.1 155.258 211.1Z" fill="white"/>
<path d="M153.317 222.46C153.317 222.46 152.854 220.033 153.317 218.413C153.78 216.793 156.658 211.977 157.482 210.969C158.304 209.962 159.002 220.723 153.317 222.46Z" fill="#FFB583"/>
<path d="M153.317 222.844C153.247 222.844 153.179 222.825 153.118 222.788C153.023 222.732 152.958 222.638 152.937 222.531C152.918 222.428 152.462 219.994 152.946 218.306C153.415 216.669 156.309 211.797 157.183 210.726C157.363 210.504 157.597 210.488 157.758 210.548C158.402 210.787 158.444 212.63 158.411 213.707C158.299 217.415 156.931 221.757 153.431 222.827C153.392 222.839 153.355 222.844 153.317 222.844ZM157.517 211.565C156.473 213.041 154.086 217.125 153.688 218.519C153.369 219.631 153.52 221.184 153.625 221.939C155.459 221.172 156.426 219.33 156.919 217.868C157.776 215.334 157.736 212.578 157.517 211.565Z" fill="#181524"/>
<path d="M137.274 224.922L131.193 222.71C130.289 222.381 129.278 222.547 128.528 223.148L125.651 225.448C125.102 225.887 124.406 226.096 123.707 226.039C120.649 225.787 106.777 221.507 105.403 219.059C104.723 217.848 103.855 213.719 103.221 210.305C102.689 207.444 100.164 205.391 97.2528 205.454L90.9824 205.59C90.9824 205.59 92.5806 220.7 97.6287 225.607C101.547 229.416 110.881 231.438 124.469 230.835C124.469 230.835 127.312 230.559 129.736 227.76C131.285 225.97 134.973 226.965 137.176 226.461C137.96 226.285 138.028 225.196 137.274 224.922Z" fill="#FFB583"/>
<path d="M119.855 231.328C108.907 231.328 101.012 229.434 97.3594 225.885C92.2694 220.938 90.6642 206.254 90.5977 205.632C90.5872 205.525 90.6205 205.417 90.6921 205.337C90.7638 205.256 90.8653 205.209 90.9737 205.206L97.244 205.069C97.2913 205.069 97.3385 205.068 97.3857 205.068C100.439 205.068 103.039 207.22 103.598 210.235C104.462 214.886 105.223 217.953 105.737 218.871C107.033 221.179 120.712 225.406 123.737 225.654C124.343 225.707 124.936 225.525 125.408 225.146L128.285 222.846C129.134 222.164 130.299 221.974 131.324 222.346L137.405 224.558C137.914 224.744 138.22 225.21 138.187 225.75C138.154 226.29 137.792 226.717 137.264 226.837C136.449 227.022 135.491 227.017 134.476 227.008C132.728 226.994 130.92 226.982 130.03 228.011C127.533 230.895 124.63 231.207 124.508 231.218C122.901 231.293 121.35 231.328 119.855 231.328ZM91.4143 205.967C91.7186 208.424 93.4689 221.029 97.898 225.333C101.836 229.159 111.518 231.024 124.452 230.453C124.457 230.451 127.16 230.149 129.444 227.51C130.568 226.212 132.555 226.226 134.48 226.239C135.45 226.246 136.365 226.253 137.09 226.087C137.374 226.023 137.412 225.778 137.416 225.705C137.421 225.631 137.414 225.385 137.141 225.285L131.06 223.073C130.287 222.794 129.409 222.937 128.767 223.451L125.891 225.75C125.265 226.252 124.478 226.489 123.674 226.425C120.689 226.18 106.573 221.934 105.065 219.25C104.494 218.233 103.745 215.246 102.841 210.378C102.343 207.69 100.003 205.775 97.2615 205.842L91.4143 205.967Z" fill="#181524"/>
<path d="M111.072 183.06C111.072 183.06 116.022 172.32 116.319 170.977C116.319 170.977 115.289 170.248 115.576 168.553C116.122 165.325 119.129 167.356 119.129 167.356L119.435 167.473C121.222 168.16 123.17 168.319 125.045 167.929L128.982 167.111C128.982 167.111 129.589 168.597 128.32 171.144C127.715 172.359 127.604 173.848 127.632 175.422C127.639 175.838 127.309 176.182 126.893 176.191L125.866 176.214C125.183 177.362 124.616 178.024 123.642 178.692C123.376 178.873 123.048 178.95 122.731 178.891C122.301 178.812 121.644 178.63 120.934 178.216L119.741 182.892L122.247 183.16C122.247 183.16 122.756 186.255 117.743 187.789C114.975 188.635 111.31 187.908 108.582 187.085C107.181 186.663 107.076 184.726 108.424 184.163L111.072 183.06Z" fill="#FFB583"/>
<path d="M114.922 188.551C112.682 188.551 110.313 188.011 108.473 187.455C107.676 187.216 107.132 186.524 107.09 185.694C107.048 184.867 107.515 184.128 108.279 183.808L110.785 182.761C112.13 179.84 115.363 172.712 115.884 171.101C115.546 170.753 114.955 169.914 115.197 168.488C115.371 167.456 115.803 166.785 116.484 166.494C117.636 166.002 119.049 166.847 119.306 167.01L119.573 167.113C121.296 167.775 123.16 167.927 124.966 167.552L128.904 166.736C129.086 166.701 129.269 166.795 129.339 166.968C129.367 167.036 129.997 168.646 128.664 171.317C128.052 172.544 127.994 174.078 128.017 175.417C128.028 176.044 127.528 176.563 126.9 176.577L126.085 176.595C125.393 177.724 124.793 178.37 123.859 179.01C123.506 179.251 123.07 179.345 122.66 179.27C122.294 179.202 121.77 179.066 121.185 178.786L120.224 182.557L122.287 182.777C122.46 182.796 122.598 182.927 122.626 183.097C122.649 183.237 123.128 186.543 117.854 188.156C116.949 188.437 115.949 188.551 114.922 188.551ZM117.272 167.111C117.101 167.111 116.935 167.138 116.786 167.202C116.365 167.384 116.085 167.859 115.957 168.616C115.714 170.057 116.534 170.655 116.543 170.662C116.669 170.751 116.73 170.908 116.697 171.061C116.393 172.429 111.626 182.781 111.423 183.221C111.383 183.308 111.311 183.378 111.222 183.415L108.577 184.519C108.017 184.752 107.84 185.258 107.86 185.653C107.881 186.052 108.11 186.541 108.695 186.718C111.278 187.495 114.926 188.25 117.632 187.422C121.402 186.268 121.85 184.259 121.88 183.509L119.703 183.277C119.591 183.265 119.491 183.205 119.426 183.114C119.363 183.023 119.342 182.908 119.369 182.8L120.561 178.124C120.591 178.007 120.675 177.91 120.785 177.863C120.897 177.816 121.023 177.825 121.128 177.886C121.791 178.272 122.402 178.44 122.801 178.513C123.013 178.554 123.238 178.503 123.425 178.375C124.317 177.764 124.849 177.17 125.536 176.018C125.604 175.904 125.727 175.833 125.859 175.829L126.886 175.807C127.089 175.803 127.251 175.634 127.248 175.431C127.223 174 127.29 172.35 127.975 170.973C128.818 169.282 128.783 168.095 128.697 167.566L125.123 168.308C123.172 168.712 121.156 168.549 119.297 167.835L118.991 167.716C118.965 167.705 118.939 167.691 118.914 167.676C118.636 167.489 117.914 167.111 117.272 167.111Z" fill="#181524"/>
<path d="M120.935 178.604C120.864 178.604 120.792 178.585 120.727 178.543L120.079 178.129C119.9 178.014 119.848 177.776 119.962 177.598C120.077 177.418 120.315 177.365 120.495 177.481L121.144 177.895C121.322 178.01 121.374 178.248 121.261 178.426C121.186 178.541 121.061 178.604 120.935 178.604Z" fill="#181524"/>
<path opacity="0.5" d="M154.442 144.806C154.313 144.806 154.185 144.784 154.063 144.742L152.054 144.037C151.768 143.936 151.533 143.725 151.401 143.45C151.27 143.176 151.252 142.86 151.352 142.572L151.73 141.493C151.767 141.387 151.767 141.272 151.731 141.166C151.694 141.06 151.623 140.969 151.529 140.908C150.88 140.483 150.279 139.988 149.737 139.432C149.66 139.351 149.557 139.299 149.447 139.284C149.336 139.268 149.223 139.291 149.127 139.347L148.145 139.931C147.883 140.085 147.571 140.129 147.277 140.054C146.983 139.978 146.731 139.788 146.576 139.526L145.49 137.685C145.336 137.423 145.292 137.11 145.367 136.815C145.443 136.52 145.632 136.267 145.893 136.111L146.875 135.528C146.971 135.471 147.045 135.383 147.085 135.279C147.125 135.174 147.129 135.059 147.097 134.952C146.876 134.207 146.735 133.44 146.676 132.664C146.668 132.552 146.623 132.446 146.548 132.363C146.473 132.279 146.372 132.224 146.262 132.205L145.139 132.019C144.84 131.968 144.573 131.801 144.397 131.553C144.22 131.306 144.148 130.998 144.196 130.698L144.544 128.584C144.594 128.284 144.76 128.015 145.006 127.838C145.253 127.66 145.56 127.588 145.859 127.638L146.981 127.824C147.092 127.841 147.205 127.821 147.303 127.767C147.401 127.712 147.477 127.626 147.52 127.522C147.827 126.808 148.209 126.129 148.66 125.496C148.725 125.405 148.758 125.295 148.754 125.183C148.75 125.071 148.708 124.963 148.636 124.878L147.893 124.009C147.696 123.777 147.598 123.477 147.621 123.173C147.644 122.869 147.787 122.587 148.017 122.389L149.633 120.995C149.864 120.798 150.164 120.7 150.466 120.723C150.769 120.746 151.05 120.889 151.248 121.119L151.989 121.987C152.062 122.072 152.162 122.13 152.271 122.151C152.381 122.172 152.495 122.156 152.594 122.104C153.286 121.754 154.013 121.48 154.763 121.285C154.872 121.259 154.968 121.196 155.037 121.107C155.106 121.018 155.143 120.909 155.142 120.797L155.13 119.653C155.127 119.348 155.244 119.055 155.456 118.837C155.669 118.619 155.958 118.495 156.262 118.492L158.393 118.468H158.405C158.706 118.469 158.995 118.588 159.209 118.801C159.423 119.014 159.545 119.302 159.549 119.605L159.562 120.747C159.564 120.86 159.603 120.968 159.673 121.056C159.744 121.143 159.842 121.204 159.951 121.229C160.705 121.407 161.438 121.666 162.137 122.001C162.237 122.051 162.351 122.065 162.461 122.041C162.57 122.017 162.668 121.957 162.739 121.87L163.461 120.987C163.557 120.87 163.674 120.773 163.807 120.702C163.94 120.631 164.085 120.587 164.235 120.573C164.538 120.543 164.84 120.635 165.076 120.828L166.722 122.186C166.957 122.379 167.105 122.658 167.135 122.961C167.165 123.265 167.073 123.567 166.881 123.803L166.158 124.686C166.088 124.773 166.049 124.882 166.047 124.994C166.045 125.106 166.081 125.215 166.149 125.305C166.613 125.928 167.008 126.599 167.329 127.308C167.375 127.41 167.454 127.493 167.553 127.545C167.651 127.598 167.764 127.616 167.874 127.597L168.997 127.385C169.145 127.358 169.297 127.359 169.444 127.39C169.591 127.421 169.731 127.481 169.855 127.567C169.979 127.652 170.085 127.761 170.167 127.887C170.249 128.014 170.305 128.156 170.333 128.304L170.726 130.406C170.781 130.706 170.716 131.015 170.545 131.267C170.373 131.518 170.109 131.691 169.811 131.747L168.688 131.958C168.578 131.979 168.479 132.037 168.405 132.122C168.332 132.207 168.289 132.314 168.284 132.426C168.24 133.203 168.114 133.973 167.907 134.722C167.876 134.83 167.883 134.945 167.925 135.049C167.967 135.153 168.043 135.24 168.14 135.296L169.132 135.859C169.396 136.009 169.59 136.258 169.672 136.551C169.753 136.845 169.715 137.159 169.567 137.424L168.521 139.288C168.372 139.554 168.124 139.749 167.832 139.831C167.54 139.913 167.227 139.875 166.962 139.726L165.969 139.163C165.871 139.108 165.758 139.088 165.648 139.106C165.537 139.124 165.436 139.178 165.36 139.26C164.83 139.827 164.241 140.335 163.603 140.776C163.51 140.839 163.441 140.931 163.406 141.038C163.372 141.145 163.375 141.261 163.414 141.366L163.815 142.436C163.921 142.721 163.91 143.037 163.785 143.315C163.659 143.592 163.43 143.808 163.146 143.916L161.152 144.67C160.868 144.776 160.553 144.765 160.276 144.639C160 144.514 159.785 144.283 159.677 143.998L159.276 142.926C159.235 142.822 159.16 142.735 159.065 142.677C158.969 142.62 158.858 142.595 158.747 142.607C157.977 142.699 157.2 142.708 156.429 142.634C156.317 142.621 156.205 142.647 156.11 142.707C156.015 142.767 155.944 142.859 155.908 142.965L155.531 144.043C155.451 144.268 155.303 144.462 155.108 144.599C154.913 144.736 154.68 144.808 154.442 144.806ZM149.379 138.799C149.51 138.799 149.639 138.825 149.76 138.876C149.88 138.926 149.989 139 150.081 139.094C150.34 139.36 150.613 139.611 150.899 139.846C151.185 140.082 151.484 140.302 151.794 140.505C151.977 140.624 152.114 140.801 152.184 141.008C152.254 141.215 152.253 141.439 152.182 141.645L151.804 142.724C151.745 142.893 151.755 143.079 151.833 143.24C151.91 143.401 152.047 143.525 152.215 143.585L154.225 144.289C154.308 144.319 154.396 144.332 154.484 144.327C154.572 144.323 154.659 144.301 154.738 144.262C154.818 144.224 154.889 144.171 154.948 144.105C155.007 144.039 155.053 143.962 155.082 143.878L155.459 142.799C155.533 142.594 155.673 142.42 155.856 142.303C156.04 142.186 156.256 142.134 156.472 142.154C157.21 142.223 157.952 142.215 158.688 142.128C158.904 142.101 159.123 142.147 159.309 142.26C159.496 142.373 159.639 142.546 159.715 142.751L160.116 143.823C160.148 143.906 160.195 143.982 160.256 144.047C160.316 144.111 160.389 144.163 160.47 144.199C160.55 144.236 160.637 144.257 160.725 144.26C160.813 144.263 160.901 144.248 160.984 144.216L162.977 143.463C163.144 143.399 163.279 143.272 163.352 143.109C163.426 142.946 163.432 142.761 163.369 142.593L162.969 141.524C162.892 141.32 162.887 141.095 162.953 140.887C163.019 140.679 163.152 140.5 163.332 140.377C163.943 139.955 164.508 139.469 165.016 138.926C165.164 138.767 165.362 138.662 165.576 138.628C165.791 138.594 166.011 138.634 166.2 138.74L167.194 139.304C167.271 139.347 167.356 139.375 167.443 139.385C167.531 139.396 167.62 139.389 167.705 139.364C167.79 139.341 167.87 139.302 167.939 139.247C168.009 139.193 168.067 139.125 168.11 139.047L169.155 137.184C169.243 137.027 169.265 136.843 169.217 136.67C169.168 136.498 169.054 136.352 168.899 136.264L167.908 135.7C167.719 135.593 167.571 135.425 167.488 135.223C167.405 135.021 167.392 134.797 167.451 134.587C167.649 133.87 167.77 133.134 167.813 132.391C167.824 132.173 167.907 131.965 168.05 131.8C168.193 131.636 168.387 131.524 168.601 131.484L169.724 131.274C169.899 131.24 170.054 131.138 170.155 130.991C170.255 130.843 170.294 130.661 170.261 130.485L169.868 128.383C169.853 128.295 169.82 128.212 169.772 128.138C169.724 128.063 169.661 127.999 169.588 127.948C169.515 127.898 169.433 127.863 169.347 127.845C169.26 127.827 169.171 127.826 169.084 127.843L167.961 128.055C167.747 128.094 167.526 128.06 167.333 127.958C167.14 127.856 166.987 127.691 166.899 127.491C166.594 126.815 166.218 126.173 165.777 125.577C165.645 125.402 165.576 125.189 165.58 124.97C165.584 124.752 165.661 124.541 165.799 124.372L166.522 123.489C166.635 123.35 166.688 123.173 166.671 122.994C166.653 122.816 166.566 122.653 166.428 122.539L164.782 121.181C164.644 121.069 164.467 121.016 164.29 121.034C164.113 121.051 163.95 121.138 163.836 121.276L163.113 122.159C162.975 122.328 162.784 122.445 162.571 122.492C162.359 122.538 162.136 122.512 161.94 122.417C161.273 122.095 160.572 121.848 159.851 121.679C159.639 121.629 159.45 121.51 159.313 121.34C159.176 121.17 159.101 120.959 159.098 120.74L159.072 119.613C159.072 119.525 159.054 119.437 159.019 119.355C158.984 119.274 158.934 119.2 158.871 119.138C158.808 119.076 158.733 119.027 158.651 118.994C158.569 118.961 158.482 118.944 158.393 118.945L156.263 118.969C156.085 118.972 155.915 119.045 155.791 119.172C155.666 119.3 155.597 119.472 155.598 119.651L155.611 120.794C155.613 121.012 155.541 121.225 155.408 121.398C155.275 121.571 155.088 121.694 154.877 121.748C154.159 121.934 153.464 122.196 152.802 122.531C152.608 122.63 152.387 122.661 152.174 122.619C151.96 122.577 151.767 122.464 151.626 122.298L150.885 121.431C150.768 121.295 150.603 121.212 150.426 121.198C150.248 121.185 150.072 121.243 149.936 121.359L148.32 122.751C148.185 122.868 148.102 123.033 148.089 123.212C148.075 123.39 148.132 123.567 148.247 123.703L148.991 124.572C149.132 124.738 149.213 124.947 149.222 125.165C149.231 125.383 149.167 125.598 149.04 125.775C148.609 126.38 148.244 127.029 147.951 127.712C147.866 127.913 147.716 128.08 147.526 128.185C147.335 128.291 147.115 128.329 146.9 128.294L145.778 128.108C145.602 128.08 145.422 128.122 145.277 128.226C145.132 128.33 145.034 128.487 145.004 128.663L144.656 130.776C144.628 130.953 144.671 131.133 144.774 131.278C144.825 131.351 144.89 131.412 144.965 131.459C145.04 131.506 145.123 131.537 145.211 131.551L146.333 131.739C146.548 131.775 146.744 131.882 146.89 132.044C147.037 132.205 147.125 132.411 147.141 132.629C147.199 133.371 147.335 134.104 147.547 134.817C147.612 135.026 147.604 135.251 147.526 135.456C147.447 135.66 147.302 135.832 147.115 135.944L146.133 136.526C146.057 136.571 145.99 136.63 145.937 136.701C145.884 136.772 145.845 136.853 145.824 136.939C145.802 137.024 145.797 137.114 145.809 137.202C145.822 137.289 145.852 137.374 145.897 137.45L146.981 139.291C147.073 139.444 147.221 139.555 147.393 139.6C147.566 139.644 147.748 139.618 147.902 139.528L148.884 138.945C149.033 138.852 149.204 138.802 149.379 138.799Z" fill="#00937D"/>
<path opacity="0.5" d="M157.592 138.301C157.168 138.301 156.745 138.26 156.329 138.18C154.625 137.831 153.127 136.821 152.16 135.37C151.192 133.919 150.834 132.143 151.162 130.428C151.491 128.714 152.48 127.198 153.914 126.211C155.348 125.223 157.113 124.844 158.824 125.154C160.435 125.467 161.873 126.372 162.857 127.691C163.84 129.011 164.3 130.65 164.145 132.291C163.991 133.932 163.234 135.456 162.021 136.567C160.809 137.678 159.228 138.296 157.586 138.301H157.592ZM157.581 125.508C156.002 125.505 154.483 126.113 153.339 127.206C152.195 128.298 151.514 129.791 151.436 131.374C151.359 132.957 151.892 134.509 152.924 135.708C153.957 136.907 155.409 137.662 156.981 137.814C158.552 137.967 160.122 137.506 161.364 136.528C162.606 135.55 163.425 134.129 163.652 132.56C163.878 130.991 163.494 129.395 162.58 128.103C161.666 126.811 160.291 125.922 158.741 125.62C158.359 125.546 157.97 125.508 157.581 125.508Z" fill="#00937D"/>
<path d="M211.519 130.986C211.427 130.986 211.339 130.949 211.274 130.884C211.21 130.819 211.173 130.731 211.173 130.639V128.715C211.173 128.491 211.262 128.276 211.42 128.117C211.577 127.958 211.791 127.869 212.015 127.868H213.933C214.02 127.875 214.102 127.915 214.161 127.979C214.221 128.044 214.254 128.128 214.254 128.216C214.254 128.304 214.221 128.389 214.161 128.454C214.102 128.518 214.02 128.558 213.933 128.564H212.015C211.975 128.565 211.938 128.581 211.91 128.609C211.882 128.638 211.867 128.676 211.867 128.715V130.639C211.866 130.731 211.829 130.819 211.764 130.884C211.699 130.949 211.611 130.986 211.519 130.986Z" fill="#00937D"/>
<path d="M227.688 130.986C227.643 130.986 227.597 130.977 227.555 130.96C227.513 130.943 227.475 130.917 227.442 130.885C227.41 130.853 227.384 130.814 227.367 130.772C227.349 130.73 227.34 130.684 227.34 130.639V128.715C227.34 128.675 227.325 128.637 227.296 128.609C227.268 128.58 227.23 128.564 227.19 128.564H225.274C225.187 128.558 225.105 128.518 225.046 128.454C224.986 128.389 224.953 128.304 224.953 128.216C224.953 128.128 224.986 128.044 225.046 127.979C225.105 127.915 225.187 127.875 225.274 127.868H227.19C227.414 127.869 227.628 127.958 227.786 128.117C227.944 128.276 228.033 128.491 228.034 128.715V130.639C228.034 130.731 227.997 130.819 227.933 130.884C227.868 130.949 227.78 130.986 227.688 130.986Z" fill="#00937D"/>
<path d="M213.933 144.807H212.015C211.791 144.806 211.577 144.717 211.42 144.558C211.262 144.399 211.173 144.184 211.173 143.959V142.036C211.18 141.948 211.219 141.866 211.284 141.807C211.348 141.747 211.432 141.714 211.52 141.714C211.608 141.714 211.692 141.747 211.756 141.807C211.82 141.866 211.86 141.948 211.867 142.036V143.959C211.867 143.999 211.882 144.037 211.91 144.065C211.938 144.094 211.975 144.11 212.015 144.11H213.933C214.02 144.117 214.102 144.157 214.161 144.221C214.221 144.286 214.254 144.37 214.254 144.458C214.254 144.546 214.221 144.631 214.161 144.696C214.102 144.76 214.02 144.8 213.933 144.807Z" fill="#00937D"/>
<path d="M227.19 144.807H225.274C225.187 144.8 225.105 144.76 225.046 144.696C224.986 144.631 224.953 144.546 224.953 144.458C224.953 144.37 224.986 144.286 225.046 144.221C225.105 144.157 225.187 144.117 225.274 144.11H227.19C227.23 144.11 227.268 144.094 227.296 144.066C227.325 144.038 227.34 143.999 227.34 143.959V142.036C227.347 141.948 227.387 141.866 227.451 141.807C227.515 141.747 227.599 141.714 227.687 141.714C227.775 141.714 227.859 141.747 227.923 141.807C227.988 141.866 228.027 141.948 228.034 142.036V143.959C228.033 144.184 227.944 144.399 227.786 144.558C227.628 144.717 227.414 144.806 227.19 144.807Z" fill="#00937D"/>
<path opacity="0.5" d="M185.625 165.167C184.97 165.167 184.331 164.972 183.786 164.607C183.242 164.242 182.818 163.724 182.568 163.116C182.317 162.509 182.252 161.841 182.379 161.197C182.507 160.553 182.822 159.961 183.285 159.496C183.748 159.031 184.337 158.715 184.979 158.587C185.621 158.459 186.286 158.525 186.891 158.776C187.496 159.027 188.012 159.453 188.376 159.999C188.739 160.546 188.934 161.188 188.934 161.845C188.932 162.726 188.584 163.57 187.963 164.193C187.343 164.816 186.502 165.166 185.625 165.167ZM185.625 159.221C185.107 159.221 184.602 159.375 184.172 159.664C183.741 159.953 183.406 160.363 183.208 160.843C183.01 161.323 182.959 161.851 183.06 162.36C183.161 162.87 183.41 163.338 183.776 163.705C184.142 164.072 184.608 164.322 185.116 164.423C185.623 164.524 186.149 164.472 186.627 164.273C187.105 164.074 187.513 163.737 187.8 163.305C188.087 162.872 188.24 162.365 188.24 161.845C188.239 161.149 187.963 160.482 187.473 159.99C186.982 159.498 186.318 159.222 185.625 159.221Z" fill="#00937D"/>
<path opacity="0.5" d="M90.5958 40.9768C89.6081 40.9768 88.6425 40.6827 87.8212 40.1317C87 39.5808 86.3598 38.7977 85.9818 37.8815C85.6038 36.9652 85.5049 35.9571 85.6976 34.9844C85.8903 34.0118 86.366 33.1183 87.0644 32.4171C87.7629 31.7159 88.6527 31.2383 89.6215 31.0448C90.5902 30.8514 91.5944 30.9507 92.5069 31.3302C93.4195 31.7097 94.1995 32.3523 94.7482 33.1769C95.297 34.0015 95.5899 34.9709 95.5899 35.9626C95.5883 37.292 95.0616 38.5664 94.1253 39.5063C93.1891 40.4463 91.9198 40.9751 90.5958 40.9768ZM90.5958 32.343C89.8823 32.343 89.1848 32.5555 88.5915 32.9535C87.9983 33.3516 87.536 33.9173 87.263 34.5792C86.99 35.2411 86.9187 35.9694 87.0581 36.672C87.1974 37.3746 87.5412 38.0199 88.0458 38.5263C88.5505 39.0327 89.1935 39.3775 89.8933 39.517C90.5932 39.6565 91.3185 39.5845 91.9776 39.3101C92.6367 39.0357 93.1999 38.5711 93.5961 37.9753C93.9922 37.3794 94.2034 36.679 94.203 35.9626C94.2019 35.0026 93.8214 34.0823 93.1451 33.4037C92.4688 32.725 91.552 32.3436 90.5958 32.343Z" fill="#00937D"/>
<defs>
<linearGradient id="paint0_linear_2366_33381" x1="187.5" y1="21" x2="187.5" y2="333" gradientUnits="userSpaceOnUse">
<stop stop-color="#00937D" stop-opacity="0"/>
<stop offset="1" stop-color="#00937D"/>
</linearGradient>
<linearGradient id="paint1_linear_2366_33381" x1="119.654" y1="181.516" x2="119.658" y2="254.712" gradientUnits="userSpaceOnUse">
<stop stop-color="#00937D"/>
<stop offset="0.9939" stop-color="#81CEC3"/>
</linearGradient>
</defs>
</svg>
