<svg width="30" height="24" viewBox="0 0 30 24" fill="none" xmlns="http://www.w3.org/2000/svg">
<path d="M14.8901 5.08039C14.0201 4.82039 13.0601 4.65039 12.0001 4.65039C7.21008 4.65039 3.33008 8.53039 3.33008 13.3204C3.33008 18.1204 7.21008 22.0004 12.0001 22.0004C14.3289 22.0004 16.4427 21.0832 18 19.5902" stroke="#00937D" stroke-width="1.5" stroke-linecap="round" stroke-linejoin="round"/>
<path d="M16.1302 5.32L13.2402 2" stroke="#00937D" stroke-width="1.5" stroke-linecap="round" stroke-linejoin="round"/>
<path d="M16.1303 5.32031L12.7603 7.78031" stroke="#00937D" stroke-width="1.5" stroke-linecap="round" stroke-linejoin="round"/>
<path d="M9.82422 13.05H11.5242L10.6942 10.75H10.6542L9.82422 13.05ZM7.12422 16L9.82422 9H11.5242L14.2242 16H12.6242L12.0242 14.4H9.32422L8.72422 16H7.12422ZM14.8238 14.05V11.1H16.1738V13.85C16.1738 14.45 16.5138 14.8 17.0738 14.8C17.6738 14.8 18.1238 14.35 18.1238 13.7V11.1H19.4738V16H18.1238V15.3H18.0738C17.9638 15.45 17.8438 15.58 17.7038 15.7C17.4638 15.9 17.0938 16.1 16.6238 16.1C15.6238 16.1 14.8238 15.3 14.8238 14.05ZM21.1711 14.3V12.45H20.3211V11.2H20.7711C21.1411 11.2 21.3211 11 21.3211 10.6V9.7H22.5211V11.2H23.6211V12.45H22.5211V14.1C22.5211 14.55 22.7711 14.8 23.1711 14.8C23.3211 14.8 23.4511 14.78 23.5611 14.75C23.6211 14.74 23.6711 14.72 23.7211 14.7V15.95C23.6411 15.98 23.5511 16 23.4611 16.03C23.3011 16.07 23.0711 16.1 22.8211 16.1C21.8211 16.1 21.1711 15.46 21.1711 14.3ZM26.9773 14.85C27.6773 14.85 28.2273 14.3 28.2273 13.55C28.2273 12.8 27.6773 12.25 26.9773 12.25C26.2773 12.25 25.7273 12.8 25.7273 13.55C25.7273 14.3 26.2773 14.85 26.9773 14.85ZM24.3773 13.55C24.3773 12.15 25.5273 11 26.9773 11C28.4273 11 29.5773 12.15 29.5773 13.55C29.5773 14.95 28.4273 16.1 26.9773 16.1C25.5273 16.1 24.3773 14.95 24.3773 13.55Z" fill="#00937D"/>
</svg>
