<svg width="95" height="107" viewBox="0 0 95 107" fill="none" xmlns="http://www.w3.org/2000/svg">
<circle cx="40.3809" cy="34.5567" r="33.5567" fill="#5FB8AB" fill-opacity="0.18"/>
<circle cx="40.3808" cy="34.5567" r="25.9794" fill="#5FB8AB" fill-opacity="0.15"/>
<circle cx="40.3807" cy="34.5567" r="16.2371" fill="#5FB8AB" fill-opacity="0.12"/>
<path d="M46.9217 25.046H32.1535C30.9988 25.046 30.0645 25.9827 30.0645 27.1352V37.921C30.0645 39.0758 31.0011 40.0102 32.1535 40.0102H43.3634L46.334 42.2762V40.0102H46.924C48.0788 40.0102 49.0131 39.0735 49.0131 37.921V27.1352C49.0131 25.9804 48.0765 25.046 46.9217 25.046Z" fill="white"/>
<path d="M38.4309 29.1141C37.5958 29.1141 36.917 29.793 36.917 30.628C36.917 31.4471 37.5576 32.11 38.3926 32.1387C38.4181 32.1355 38.4436 32.1355 38.4627 32.1387C38.4691 32.1387 38.4723 32.1387 38.4787 32.1387C38.4818 32.1387 38.4818 32.1387 38.485 32.1387C39.3009 32.11 39.9415 31.4471 39.9447 30.628C39.9447 29.793 39.2659 29.1141 38.4309 29.1141Z" fill="#00937D"/>
<path d="M40.0502 32.9863C39.161 32.3935 37.7109 32.3935 36.8154 32.9863C36.4106 33.2572 36.1875 33.6238 36.1875 34.0158C36.1875 34.4078 36.4106 34.7711 36.8122 35.0388C37.2584 35.3384 37.8448 35.4882 38.4312 35.4882C39.0176 35.4882 39.604 35.3384 40.0502 35.0388C40.4518 34.7679 40.6749 34.4046 40.6749 34.0094C40.6717 33.6174 40.4518 33.2541 40.0502 32.9863Z" fill="#00937D"/>
<path d="M41.9336 30.816C41.9846 31.4343 41.5447 31.9761 40.936 32.0494C40.9328 32.0494 40.9328 32.0494 40.9296 32.0494H40.9201C40.901 32.0494 40.8818 32.0494 40.8659 32.0558C40.5568 32.0717 40.2731 31.9729 40.0596 31.7912C40.3878 31.498 40.5759 31.0582 40.5376 30.5802C40.5153 30.322 40.4261 30.0862 40.2922 29.8854C40.4133 29.8248 40.5536 29.7866 40.697 29.7738C41.3217 29.7196 41.8794 30.185 41.9336 30.816Z" fill="#00937D"/>
<path d="M42.5711 33.7641C42.5457 34.0732 42.3481 34.341 42.0166 34.5226C41.6979 34.6979 41.2963 34.7808 40.8979 34.7712C41.1274 34.564 41.2613 34.3059 41.2868 34.0318C41.3186 33.6366 41.1306 33.2573 40.7545 32.9546C40.541 32.7857 40.2924 32.6518 40.0215 32.553C40.7258 32.349 41.6118 32.4861 42.1568 32.9259C42.45 33.1617 42.5998 33.4581 42.5711 33.7641Z" fill="#00937D"/>
<path d="M46.9219 25.0459C46.9219 25.0459 46.9495 25.0436 47.0046 25.0459C47.0597 25.0482 47.1423 25.0482 47.2525 25.0666C47.466 25.0987 47.7943 25.1768 48.1432 25.4224C48.4899 25.6612 48.8549 26.0905 48.988 26.7012C49.0569 27.0066 49.0294 27.3395 49.0363 27.6884C49.0363 28.0397 49.0386 28.4116 49.0408 28.8042C49.0431 30.3768 49.0477 32.2847 49.0523 34.468C49.0546 35.5608 49.0546 36.7225 49.0569 37.9462C49.0523 38.5706 48.7562 39.2135 48.2305 39.613C47.9711 39.8127 47.6634 39.9596 47.3328 40.0239C46.9977 40.0882 46.6648 40.0583 46.3296 40.0652L46.3824 40.0124C46.3824 40.7195 46.3847 41.4909 46.3847 42.2784V42.3886L46.2975 42.322C45.3563 41.6057 44.353 40.8412 43.3246 40.0583L43.359 40.0698C40.3356 40.0698 37.0596 40.0721 33.6666 40.0721C33.0835 40.0675 32.5141 40.0836 31.9287 40.0606C31.3387 40.0032 30.7901 39.6864 30.4411 39.2227C30.2644 38.9908 30.1381 38.7245 30.0669 38.4444C29.9912 38.1643 30.0003 37.8704 30.0003 37.5972C30.0003 37.0393 30.0003 36.4883 30.0003 35.9396C30.0026 33.7494 30.0026 31.6372 30.0049 29.6261C30.0049 29.1233 30.0049 28.6274 30.0072 28.1361C30.0072 27.8904 30.0072 27.6471 30.0072 27.406C30.0072 27.1673 30.0049 26.917 30.0577 26.6783C30.161 26.1984 30.4365 25.7737 30.8015 25.4729C31.1712 25.1768 31.6326 25.0069 32.0894 25C33.8778 25.0023 35.5468 25.0023 37.0688 25.0046C40.1106 25.0115 42.5716 25.0184 44.275 25.023C45.1244 25.0275 45.7833 25.0321 46.2355 25.0344C46.4559 25.0367 46.6258 25.039 46.7451 25.0413C46.8645 25.0413 46.9219 25.0459 46.9219 25.0459C46.9219 25.0459 46.8622 25.0505 46.7474 25.0528C46.6281 25.0551 46.4582 25.0551 46.2378 25.0597C45.7855 25.062 45.1267 25.0666 44.2773 25.0712C42.5716 25.0758 40.1106 25.0826 37.0711 25.0895C35.549 25.0918 33.8847 25.0964 32.094 25.0987C31.6578 25.1079 31.2194 25.2686 30.8681 25.5533C30.5215 25.8403 30.2598 26.2443 30.1611 26.7012C30.1105 26.9285 30.1128 27.1627 30.1128 27.406C30.1128 27.6471 30.1128 27.8904 30.1128 28.1361C30.1128 28.6274 30.1128 29.1233 30.1151 29.6261C30.1151 31.6372 30.1174 33.7494 30.1197 35.9396C30.1197 36.486 30.1197 37.0393 30.1197 37.5972C30.1197 37.8773 30.1128 38.1505 30.184 38.4168C30.2506 38.6808 30.37 38.9334 30.5375 39.1515C30.8681 39.59 31.387 39.8885 31.9425 39.9436C32.5027 39.9642 33.0904 39.9481 33.6666 39.955C37.0596 39.955 40.3356 39.9573 43.359 39.9573H43.3774L43.3934 39.9688C44.4219 40.754 45.4228 41.5185 46.3618 42.2371L46.2745 42.2807C46.2745 41.4932 46.2768 40.7218 46.2768 40.0147V39.9619H46.3296C46.6648 39.955 47 39.9849 47.3122 39.9252C47.6267 39.8655 47.9205 39.7255 48.1685 39.5349C48.6689 39.1538 48.9536 38.5431 48.9605 37.9462C48.9628 36.7225 48.9651 35.5631 48.9674 34.4703C48.972 32.287 48.9766 30.3791 48.9789 28.8065C48.9812 28.4139 48.9812 28.042 48.9835 27.6907C48.9789 27.3395 49.0087 27.0089 48.9421 26.715C48.8159 26.1181 48.4623 25.6933 48.1249 25.4546C47.7828 25.2089 47.4614 25.1263 47.2502 25.0872C47.0367 25.0459 46.9219 25.0528 46.9219 25.0459Z" fill="#263238"/>
<path d="M92.6128 22.0509H81.2376C80.0278 22.0509 79.0498 23.0312 79.0498 24.2388V32.3018C79.0498 33.5117 80.0301 34.4897 81.2376 34.4897H81.2766V36.3723L83.7468 34.4897H92.6151C93.8249 34.4897 94.8029 33.5094 94.8029 32.3018V24.2388C94.8029 23.0312 93.8226 22.0509 92.6128 22.0509Z" fill="white"/>
<path d="M92.6207 22.0509C92.6207 22.0509 92.662 22.0486 92.7401 22.0509C92.8204 22.0486 92.9375 22.0623 93.089 22.0899C93.3875 22.1519 93.8466 22.3126 94.2552 22.7557C94.455 22.9738 94.6409 23.2608 94.7442 23.6097C94.7924 23.7842 94.8315 23.9725 94.8361 24.1699C94.8429 24.3673 94.8383 24.5694 94.8406 24.7806C94.8429 25.6232 94.8452 26.5851 94.8498 27.6504C94.8521 28.7179 94.8544 29.8888 94.8567 31.1515C94.8567 31.4683 94.8567 31.7898 94.859 32.1158C94.8682 32.4418 94.8338 32.7907 94.7052 33.1122C94.4596 33.7573 93.8787 34.2991 93.1625 34.4713C92.9857 34.5195 92.7998 34.5356 92.6161 34.5402C92.4348 34.5402 92.2534 34.5402 92.0697 34.5402C91.7024 34.5402 91.3305 34.5402 90.954 34.5402C90.201 34.5402 89.432 34.5425 88.6446 34.5425C87.072 34.5425 85.4375 34.5448 83.7547 34.5448L83.7915 34.5333C83.004 35.1348 82.1684 35.7707 81.3213 36.4182L81.2249 36.4939V36.3722C81.2249 36.1633 81.2249 35.9383 81.2249 35.711C81.2249 35.2932 81.2249 34.8754 81.2249 34.4874L81.2846 34.5471C81.0504 34.5448 80.8139 34.5172 80.5913 34.4483C80.3686 34.3772 80.1574 34.2738 79.9645 34.143C79.5858 33.8767 79.2873 33.4956 79.1358 33.0616C79.0577 32.8458 79.0095 32.6208 79.0049 32.3936C78.9958 32.1686 79.0026 31.9505 79.0003 31.7301C79.0003 31.2916 79.0003 30.8554 79.0003 30.426C79.0026 28.7019 79.0026 27.042 79.0049 25.4625C79.0049 25.0676 79.0049 24.6773 79.0072 24.2939C78.9981 23.9013 79.0968 23.5133 79.2758 23.1758C79.4618 22.8429 79.7212 22.5559 80.0357 22.3562C80.3479 22.1588 80.7015 22.0325 81.0596 22.0072C82.4668 21.9912 83.7662 22.0072 84.9554 22.0049C87.3291 22.0118 89.246 22.0187 90.5729 22.0233C91.2318 22.0279 91.7438 22.0325 92.095 22.0348C92.2649 22.0371 92.398 22.0394 92.4899 22.0417C92.5748 22.0463 92.6207 22.0509 92.6207 22.0509C92.6207 22.0509 92.5748 22.0554 92.4853 22.0577C92.3911 22.06 92.2603 22.06 92.0904 22.0646C91.7392 22.0669 91.2249 22.0715 90.5684 22.0761C89.2414 22.0807 87.3245 22.0876 84.9508 22.0945C83.7639 22.1014 82.4554 22.0899 81.0642 22.1105C80.3801 22.1633 79.7097 22.5835 79.3654 23.2309C78.9935 23.8806 79.145 24.6865 79.1151 25.4693C79.1174 27.0489 79.1174 28.7088 79.1197 30.4329C79.1197 30.8645 79.1197 31.2985 79.1197 31.737C79.1266 32.1755 79.0853 32.6209 79.2483 33.0272C79.3906 33.4382 79.6753 33.7963 80.0334 34.0512C80.2148 34.1751 80.4145 34.2738 80.6257 34.3404C80.8392 34.4047 81.0596 34.43 81.2846 34.4323H81.3443V34.492C81.3443 34.8799 81.3443 35.2955 81.3443 35.7156C81.3443 35.9429 81.3443 36.1679 81.3443 36.3768L81.2478 36.3286C82.0949 35.6835 82.9306 35.0475 83.718 34.446L83.7341 34.4346H83.7547C85.4375 34.4346 87.0743 34.4369 88.6446 34.4369C89.4297 34.4369 90.201 34.4391 90.954 34.4391C91.3305 34.4391 91.7024 34.4391 92.0697 34.4391C92.4393 34.4323 92.8021 34.4667 93.1395 34.3749C93.8214 34.2119 94.3792 33.6976 94.6134 33.0823C94.7373 32.7724 94.7695 32.4487 94.7626 32.1227C94.7626 31.7966 94.7626 31.4752 94.7649 31.1584C94.7672 29.8957 94.7695 28.7225 94.7718 27.6573C94.7741 26.592 94.7787 25.6301 94.781 24.7875C94.781 24.365 94.8039 23.9725 94.696 23.6304C94.5973 23.2883 94.4205 23.0059 94.2277 22.7901C93.8328 22.3516 93.3829 22.1863 93.089 22.1174C92.7837 22.0486 92.6207 22.06 92.6207 22.0509Z" fill="#263238"/>
<path d="M84.3514 29.4792L84.3514 29.4792C84.8782 29.2661 85.0397 28.5923 84.8037 28.0196C84.8037 28.0196 84.8037 28.0196 84.8037 28.0196L84.665 28.0767C84.4478 27.5496 83.93 27.2597 83.5084 27.4303L84.3514 29.4792ZM84.3514 29.4792C83.8259 29.6918 83.2358 29.3243 82.9999 28.7509L84.3514 29.4792ZM85.8946 27.2451L85.8946 27.2451C86.4411 27.0887 86.6743 26.4362 86.501 25.8415C86.501 25.8415 86.501 25.8415 86.501 25.8415L86.357 25.8834C86.1976 25.3363 85.7135 24.9938 85.2764 25.1191L85.8946 27.2451ZM85.8946 27.2451C85.349 27.4012 84.8019 26.973 84.6287 26.3785C84.4554 25.7836 84.6894 25.1313 85.2351 24.9749L85.8946 27.2451ZM89.0699 28.1699L88.9312 28.1128C88.6953 28.686 88.8566 29.36 89.3837 29.5724L89.3837 29.5724C89.909 29.7841 90.499 29.4176 90.7351 28.844C90.9711 28.2706 90.8096 27.5976 90.2828 27.3844L89.0699 28.1699ZM89.0699 28.1699L88.9312 28.1128C89.1672 27.5394 89.7572 27.1718 90.2828 27.3844L89.0699 28.1699ZM87.9495 27.2451L87.9495 27.2451C88.4952 27.4012 89.0423 26.9729 89.2154 26.3778C89.3886 25.7831 89.1555 25.1306 88.609 24.9742C88.609 24.9742 88.609 24.9742 88.609 24.9742L88.5677 25.1184L87.9495 27.2451ZM87.9495 27.2451C87.4031 27.0887 87.1699 26.4362 87.3431 25.8415L87.9495 27.2451ZM86.8229 31.2135L86.8262 31.3634L86.8262 31.3634L86.8261 31.3634L86.8258 31.3634L86.8244 31.3635L86.8185 31.3636L86.7955 31.3643C86.7753 31.3649 86.746 31.3659 86.7097 31.3673C86.637 31.3703 86.5365 31.3752 86.4252 31.3831C86.1986 31.3991 85.941 31.4265 85.7787 31.4702C85.7787 31.4702 85.7786 31.4702 85.7786 31.4702L85.7396 31.3254C85.3838 31.422 84.5756 31.2615 84.7369 30.5244C84.8111 30.1858 85.0014 30.0095 85.2044 29.8215C85.4431 29.6003 85.6994 29.3629 85.8048 28.8258M86.8229 31.2135L85.8048 28.8258M86.8229 31.2135L86.8196 31.3634L86.8196 31.3634L86.8196 31.3634L86.8199 31.3634L86.8214 31.3635L86.8272 31.3636L86.8502 31.3643C86.8703 31.3649 86.8995 31.3659 86.9357 31.3673C87.0082 31.3703 87.1085 31.3752 87.2195 31.3831C87.4456 31.3991 87.7028 31.4265 87.8651 31.4702C88.0782 31.5277 88.4083 31.5084 88.6693 31.3698C88.8031 31.2987 88.9261 31.1923 89.0016 31.041C89.0778 30.8884 89.0986 30.7044 89.052 30.4923M86.8229 31.2135L89.052 30.4923M85.8048 28.8258L85.6576 28.7971M85.8048 28.8258L85.6576 28.797C85.6576 28.797 85.6576 28.797 85.6576 28.7971M85.6576 28.7971C85.764 28.253 86.0499 27.9811 86.3233 27.8527C86.4564 27.7902 86.5819 27.7637 86.674 27.7528C86.7203 27.7473 86.7588 27.7457 86.7865 27.7454C86.8004 27.7453 86.8116 27.7456 86.8198 27.7459L86.8236 27.746M85.6576 28.7971L86.8236 27.746M86.8236 27.746L86.8273 27.7459C86.8355 27.7456 86.8467 27.7453 86.8605 27.7454C86.8882 27.7457 86.9266 27.7473 86.9728 27.7528C87.0648 27.7638 87.1901 27.7902 87.3229 27.8527C87.5958 27.9812 87.8811 28.2532 87.9875 28.797L87.9875 28.7972C88.0758 29.2499 88.2765 29.4638 88.4876 29.662C88.5058 29.679 88.5242 29.6961 88.5428 29.7133C88.7445 29.8999 88.9674 30.1062 89.052 30.4923M86.8236 27.746L89.052 30.4923M89.052 30.4923C89.052 30.4923 89.052 30.4923 89.0519 30.4922L88.9054 30.5244L89.052 30.4923Z" fill="#00937D" stroke="#00937D" stroke-width="0.3" stroke-miterlimit="10"/>
<path d="M51.2413 0H61.6638C62.8736 0 63.8516 0.980319 63.8516 2.18793V9.49785C63.8516 10.7078 62.8713 11.6858 61.6638 11.6858H53.4658L51.1449 13.4559V11.6812C49.981 11.6307 49.0535 10.6733 49.0535 9.49785V2.18793C49.0535 0.980319 50.0315 0 51.2413 0Z" fill="white"/>
<path d="M51.2413 0.0761407C51.2413 0.0761407 51.1518 0.071549 50.9796 0.085324C50.8097 0.103691 50.5526 0.149607 50.2496 0.29654C49.9511 0.441178 49.6068 0.700606 49.3497 1.11615C49.2234 1.32278 49.1178 1.56613 49.0627 1.84163C49.003 2.11713 49.0237 2.41559 49.0168 2.72094C49.0145 3.95839 49.0099 5.45527 49.0053 7.17025C49.0053 7.59957 49.003 8.04037 49.003 8.49495C49.003 8.72224 49.003 8.95411 49.0007 9.18599C49.003 9.41787 48.9892 9.65664 49.026 9.90229C49.0925 10.389 49.3336 10.8619 49.7124 11.2109C50.0866 11.5622 50.5985 11.7872 51.138 11.8124L51.0875 11.7596C51.0875 12.3152 51.0852 12.919 51.0852 13.5343V13.6468L51.1747 13.5802C51.9116 13.02 52.6945 12.4231 53.4957 11.8124L53.4612 11.8239C55.6582 11.8239 58.0251 11.8262 60.4746 11.8262C60.9223 11.8239 61.3584 11.8331 61.8061 11.8193C62.256 11.7941 62.6945 11.6219 63.0435 11.3487C63.3947 11.0755 63.6564 10.6966 63.7942 10.2811C63.8584 10.0722 63.9044 9.85637 63.9044 9.63827C63.9089 9.42476 63.9067 9.21584 63.9067 9.00462C63.9044 7.32637 63.9044 5.70551 63.9021 4.16272C63.9021 3.77702 63.9021 3.39591 63.8998 3.01939C63.8998 2.83114 63.8998 2.64517 63.8998 2.45921C63.8975 2.27555 63.9044 2.08499 63.8653 1.90133C63.7482 1.15748 63.234 0.528419 62.5958 0.24144C62.279 0.0899157 61.9278 0.0279283 61.5926 0.0348158C61.262 0.0348158 60.936 0.0371115 60.6192 0.0371115C59.9833 0.0394074 59.3704 0.0394074 58.7873 0.0417032C56.4571 0.0485907 54.5701 0.0554783 53.2592 0.0600699C52.6095 0.0646616 52.1045 0.0692532 51.7555 0.071549C51.588 0.0738448 51.4571 0.0761407 51.3653 0.0784365C51.2872 0.0715491 51.2413 0.0761407 51.2413 0.0761407C51.2413 0.0761407 51.2872 0.0807324 51.3745 0.0830282C51.4663 0.085324 51.5971 0.085324 51.7647 0.0899156C52.1137 0.0922114 52.6187 0.0968032 53.2684 0.101395C54.5769 0.105986 56.4663 0.112874 58.7964 0.119761C59.3795 0.122057 59.9902 0.122057 60.6284 0.124353C60.9475 0.124353 61.2712 0.126649 61.6018 0.126649C61.9278 0.122057 62.2583 0.181749 62.5614 0.328682C63.1697 0.606477 63.6587 1.20798 63.7689 1.9174C63.8033 2.09417 63.7988 2.27325 63.7988 2.45921C63.7988 2.64517 63.7988 2.83114 63.7988 3.01939C63.7988 3.39591 63.7988 3.77702 63.7965 4.16272C63.7965 5.70551 63.7942 7.32637 63.7919 9.00462C63.7873 9.42705 63.824 9.84949 63.684 10.2444C63.5531 10.6393 63.3052 10.9974 62.9723 11.2568C62.6417 11.5163 62.2262 11.6793 61.7992 11.7022C61.3676 11.716 60.92 11.7068 60.4746 11.7091C58.0274 11.7091 55.6582 11.7114 53.4612 11.7114H53.4452L53.4291 11.7229C52.6279 12.3359 51.8451 12.9328 51.1104 13.4953L51.2 13.5389C51.2 12.9236 51.1977 12.3198 51.1977 11.7642V11.7137L51.1472 11.7114C50.6329 11.6884 50.1463 11.4772 49.7881 11.142C49.4254 10.8091 49.1935 10.3569 49.1293 9.89311C49.0925 9.66353 49.1063 9.42476 49.1017 9.19058C49.1017 8.95641 49.1017 8.72683 49.0994 8.49954C49.0994 8.04497 49.0971 7.60187 49.0971 7.17485C49.0925 5.46216 49.0879 3.96298 49.0856 2.72553C49.0879 2.41559 49.0673 2.12402 49.1224 1.85541C49.1729 1.58909 49.2716 1.34803 49.3956 1.146C49.6412 0.73734 49.9764 0.477911 50.2679 0.330978C50.5618 0.181749 50.8143 0.128945 50.9842 0.105986C51.0691 0.0922115 51.1334 0.0945073 51.177 0.0876198C51.2183 0.0807324 51.2413 0.0761407 51.2413 0.0761407Z" fill="#263238"/>
<path d="M56.3925 5.24239C56.9242 5.24239 57.3553 4.81133 57.3553 4.27958C57.3553 3.74784 56.9242 3.31677 56.3925 3.31677C55.8608 3.31677 55.4297 3.74784 55.4297 4.27958C55.4297 4.81133 55.8608 5.24239 56.3925 5.24239Z" fill="#00937D"/>
<path d="M56.3928 5.88428C55.5083 5.88428 54.7881 6.55824 54.7881 7.38867C54.7881 7.44483 54.8269 7.48896 54.8764 7.48896H57.9092C57.9586 7.48896 57.9975 7.44483 57.9975 7.38867C57.9975 6.55824 57.2772 5.88428 56.3928 5.88428Z" fill="#00937D"/>
<path d="M53.1836 4.59971V3.79736C53.1836 2.99823 53.8287 2.35315 54.6278 2.35315H55.4302" stroke="#00937D" stroke-width="0.8" stroke-linecap="round" stroke-linejoin="round"/>
<path d="M57.3555 2.35315H58.1578C58.9569 2.35315 59.602 2.99823 59.602 3.79736V4.59971" stroke="#00937D" stroke-width="0.8" stroke-linecap="round" stroke-linejoin="round"/>
<path d="M59.6024 6.84631V7.32772C59.6024 8.12685 58.9573 8.77193 58.1582 8.77193H57.6768" stroke="#00937D" stroke-width="0.8" stroke-linecap="round" stroke-linejoin="round"/>
<path d="M55.4302 8.77195H54.6278C53.8287 8.77195 53.1836 8.12686 53.1836 7.32773V6.52539" stroke="#00937D" stroke-width="0.8" stroke-linecap="round" stroke-linejoin="round"/>
<path d="M21.6679 6H11.2454C10.0356 6 9.05762 6.98032 9.05762 8.18793V15.4978C9.05762 16.7078 10.0379 17.6858 11.2454 17.6858H19.4433L21.7643 19.4559V17.6812C22.9282 17.6307 23.8557 16.6733 23.8557 15.4978V8.18793C23.8557 6.98032 22.8777 6 21.6679 6Z" fill="white"/>
<path d="M18.6075 10.7918C18.6075 10.9483 18.5234 11.0903 18.3901 11.1628L17.8859 11.4352L17.4571 11.6641L16.5674 12.1451C16.4718 12.1973 16.3675 12.2233 16.2603 12.2233C16.1531 12.2233 16.0487 12.1973 15.9531 12.1451L14.1304 11.1628C13.9971 11.0903 13.9131 10.9483 13.9131 10.7918C13.9131 10.6354 13.9971 10.4934 14.1304 10.4209L14.7013 10.1138L15.1562 9.86746L15.9531 9.43859C16.1444 9.33427 16.3762 9.33427 16.5674 9.43859L18.3901 10.4209C18.5234 10.4934 18.6075 10.6354 18.6075 10.7918Z" fill="#00937D"/>
<path d="M15.6505 12.4871L13.9553 11.6409C13.8249 11.5743 13.6742 11.583 13.5496 11.6583C13.425 11.7337 13.3525 11.867 13.3525 12.0119V13.6143C13.3525 13.8925 13.5061 14.1417 13.7553 14.2663L15.4505 15.1125C15.5085 15.1415 15.5722 15.1559 15.636 15.1559C15.7113 15.1559 15.7867 15.1357 15.8533 15.0922C15.9779 15.0169 16.0504 14.8836 16.0504 14.7387V13.1362C16.0533 12.8609 15.8997 12.6117 15.6505 12.4871Z" fill="#00937D"/>
<path d="M19.1665 12.0116V13.6141C19.1665 13.8894 19.013 14.1386 18.7638 14.2632L17.0686 15.1122C17.0106 15.1412 16.9468 15.1557 16.8831 15.1557C16.8078 15.1557 16.7324 15.1354 16.6629 15.092C16.5412 15.0166 16.4658 14.8833 16.4658 14.7384V13.1389C16.4658 12.8607 16.6194 12.6115 16.8686 12.4869L17.4916 12.1768L17.9263 11.9595L18.5638 11.6407C18.6942 11.5741 18.8449 11.5799 18.9695 11.6581C19.0912 11.7334 19.1665 11.8667 19.1665 12.0116Z" fill="#00937D"/>
<path d="M17.8848 11.4351L17.456 11.664L14.7002 10.1137L15.1551 9.86743L17.8153 11.3685C17.8443 11.3859 17.8675 11.409 17.8848 11.4351Z" fill="#00937D"/>
<path d="M17.9259 11.9596V12.6174C17.9259 12.7362 17.8274 12.8347 17.7085 12.8347C17.5897 12.8347 17.4912 12.7362 17.4912 12.6174V12.1769L17.9259 11.9596Z" fill="#00937D"/>
<path d="M21.6659 6.07651C21.6659 6.07651 21.7555 6.07192 21.9276 6.08569C22.0975 6.10406 22.3546 6.14997 22.6577 6.29691C22.9561 6.44154 23.3005 6.70097 23.5576 7.11652C23.6838 7.32314 23.7894 7.5665 23.8445 7.842C23.9042 8.1175 23.8836 8.41596 23.8905 8.7213C23.8927 9.95875 23.8973 11.4556 23.9019 13.1706C23.9019 13.5999 23.9042 14.0407 23.9042 14.4953C23.9042 14.7226 23.9042 14.9545 23.9065 15.1864C23.9042 15.4182 23.918 15.657 23.8813 15.9027C23.8147 16.3894 23.5736 16.8623 23.1949 17.2113C22.8207 17.5625 22.3087 17.7875 21.7692 17.8128L21.8197 17.76C21.8197 18.3156 21.822 18.9194 21.822 19.5347V19.6472L21.7325 19.5806C20.9956 19.0204 20.2127 18.4235 19.4115 17.8128L19.446 17.8243C17.249 17.8243 14.8821 17.8266 12.4326 17.8266C11.985 17.8243 11.5488 17.8335 11.1011 17.8197C10.6512 17.7944 10.2127 17.6222 9.86376 17.349C9.51251 17.0758 9.2508 16.697 9.11306 16.2815C9.04878 16.0725 9.00287 15.8567 9.00287 15.6386C8.99828 15.4251 9.00057 15.2162 9.00057 15.005C9.00287 13.3267 9.00287 11.7059 9.00516 10.1631C9.00516 9.77738 9.00516 9.39628 9.00746 9.01976C9.00746 8.8315 9.00746 8.64554 9.00746 8.45958C9.00976 8.27591 9.00287 8.08536 9.0419 7.90169C9.15898 7.15784 9.67321 6.52879 10.3114 6.24181C10.6282 6.09028 10.9795 6.02829 11.3146 6.03518C11.6452 6.03518 11.9712 6.03748 12.288 6.03748C12.9239 6.03977 13.5369 6.03977 14.12 6.04207C16.4501 6.04896 18.3372 6.05584 19.648 6.06044C20.2977 6.06503 20.8027 6.06962 21.1517 6.07192C21.3193 6.07421 21.4501 6.07651 21.542 6.0788C21.62 6.07192 21.6659 6.07651 21.6659 6.07651C21.6659 6.07651 21.62 6.0811 21.5328 6.08339C21.4409 6.08569 21.3101 6.08569 21.1425 6.09028C20.7936 6.09258 20.2885 6.09717 19.6388 6.10176C18.3303 6.10635 16.4409 6.11324 14.1108 6.12013C13.5277 6.12242 12.917 6.12242 12.2788 6.12472C11.9597 6.12472 11.636 6.12702 11.3055 6.12702C10.9795 6.12242 10.6489 6.18212 10.3459 6.32905C9.73749 6.60684 9.24851 7.20835 9.13832 7.91776C9.10388 8.09454 9.10847 8.27362 9.10847 8.45958C9.10847 8.64554 9.10847 8.8315 9.10847 9.01976C9.10847 9.39628 9.10847 9.77738 9.11077 10.1631C9.11077 11.7059 9.11306 13.3267 9.11536 15.005C9.11995 15.4274 9.08322 15.8499 9.22326 16.2447C9.35411 16.6396 9.60205 16.9978 9.93492 17.2572C10.2655 17.5166 10.681 17.6796 11.108 17.7026C11.5396 17.7164 11.9873 17.7072 12.4326 17.7095C14.8798 17.7095 17.249 17.7118 19.446 17.7118H19.4621L19.4781 17.7233C20.2793 18.3362 21.0622 18.9332 21.7968 19.4956L21.7072 19.5393C21.7072 18.924 21.7095 18.3202 21.7095 17.7646V17.7141L21.76 17.7118C22.2743 17.6888 22.761 17.4776 23.1191 17.1424C23.4818 16.8095 23.7137 16.3572 23.778 15.8935C23.8147 15.6639 23.8009 15.4251 23.8055 15.191C23.8055 14.9568 23.8055 14.7272 23.8078 14.4999C23.8078 14.0453 23.8101 13.6022 23.8101 13.1752C23.8147 11.4625 23.8193 9.96335 23.8216 8.72589C23.8193 8.41596 23.8399 8.12439 23.7849 7.85577C23.7343 7.58946 23.6356 7.3484 23.5117 7.14636C23.266 6.73771 22.9309 6.47828 22.6393 6.33134C22.3454 6.18212 22.0929 6.12931 21.923 6.10635C21.8381 6.09258 21.7738 6.09487 21.7302 6.08799C21.6889 6.0811 21.6659 6.07651 21.6659 6.07651Z" fill="#263238"/>
<path d="M21.1884 42.0259H10.7659C9.55609 42.0259 8.57812 43.0062 8.57812 44.2138V51.5237C8.57812 52.7336 9.55839 53.7117 10.7659 53.7117H18.9639L21.2848 55.4817V53.7071C22.4487 53.6566 23.3762 52.6992 23.3762 51.5237V44.2138C23.3762 43.0062 22.3982 42.0259 21.1884 42.0259Z" fill="white"/>
<path d="M12.9547 47.125C12.9547 47.2438 13.0532 47.3423 13.172 47.3423H18.3872C18.506 47.3423 18.6045 47.2438 18.6045 47.125C18.6045 47.0062 18.506 46.9077 18.3872 46.9077H18.0917L17.9816 46.3833C17.8773 45.8763 17.66 45.4098 16.7965 45.4098H14.7626C13.8992 45.4098 13.6819 45.8763 13.5776 46.3833L13.4675 46.9077H13.172C13.0532 46.9077 12.9547 47.0062 12.9547 47.125Z" fill="#00937D"/>
<path d="M12.8309 48.7649C12.8744 48.2868 13.0019 47.7769 13.9319 47.7769H17.6289C18.559 47.7769 18.6836 48.2868 18.7299 48.7649L18.8922 50.5293C18.9124 50.7495 18.84 50.9697 18.6893 51.1349C18.5358 51.3029 18.3185 51.3985 18.0867 51.3985H17.542C17.0726 51.3985 16.9828 51.1291 16.9249 50.9523L16.8669 50.7785C16.8003 50.5786 16.7829 50.5293 16.5221 50.5293H15.0387C14.7779 50.5293 14.7692 50.5583 14.6939 50.7785L14.636 50.9523C14.578 51.1291 14.4882 51.3985 14.0188 51.3985H13.4741C13.2452 51.3985 13.025 51.3029 12.8715 51.1349C12.7208 50.9697 12.6484 50.7495 12.6687 50.5293L12.8309 48.7649ZM16.6496 49.3704H17.5188C17.6376 49.3704 17.7361 49.2719 17.7361 49.1531C17.7361 49.0343 17.6376 48.9358 17.5188 48.9358H16.6496C16.5308 48.9358 16.4323 49.0343 16.4323 49.1531C16.4323 49.2719 16.5308 49.3704 16.6496 49.3704ZM14.042 49.3704H14.9112C15.03 49.3704 15.1285 49.2719 15.1285 49.1531C15.1285 49.0343 15.03 48.9358 14.9112 48.9358H14.042C13.9232 48.9358 13.8247 49.0343 13.8247 49.1531C13.8247 49.2719 13.9232 49.3704 14.042 49.3704Z" fill="#00937D"/>
<path d="M21.1864 42.102C21.1864 42.102 21.276 42.0974 21.4481 42.1112C21.618 42.1296 21.8751 42.1755 22.1782 42.3224C22.4766 42.4671 22.821 42.7265 23.0781 43.142C23.2043 43.3487 23.3099 43.592 23.365 43.8675C23.4247 44.143 23.4041 44.4415 23.411 44.7468C23.4133 45.9843 23.4178 47.4811 23.4224 49.1961C23.4224 49.6255 23.4247 50.0663 23.4247 50.5208C23.4247 50.7481 23.4247 50.98 23.427 51.2119C23.4247 51.4438 23.4385 51.6825 23.4018 51.9282C23.3352 52.4149 23.0942 52.8878 22.7154 53.2368C22.3412 53.5881 21.8292 53.813 21.2897 53.8383L21.3402 53.7855C21.3402 54.3411 21.3425 54.9449 21.3425 55.5602V55.6727L21.253 55.6061C20.5161 55.0459 19.7333 54.449 18.9321 53.8383L18.9665 53.8498C16.7695 53.8498 14.4027 53.8521 11.9531 53.8521C11.5055 53.8498 11.0693 53.859 10.6216 53.8452C10.1717 53.8199 9.73321 53.6477 9.38426 53.3745C9.03302 53.1013 8.77131 52.7225 8.63357 52.307C8.56929 52.0981 8.52338 51.8823 8.52338 51.6642C8.51879 51.4506 8.52108 51.2417 8.52108 51.0305C8.52338 49.3522 8.52338 47.7314 8.52567 46.1886C8.52567 45.8029 8.52567 45.4218 8.52797 45.0453C8.52797 44.857 8.52797 44.6711 8.52797 44.4851C8.53026 44.3014 8.52338 44.1109 8.5624 43.9272C8.67948 43.1834 9.19372 42.5543 9.83192 42.2673C10.1487 42.1158 10.5 42.0538 10.8351 42.0607C11.1657 42.0607 11.4917 42.063 11.8085 42.063C12.4444 42.0653 13.0574 42.0653 13.6405 42.0676C15.9706 42.0745 17.8577 42.0814 19.1685 42.0859C19.8182 42.0905 20.3232 42.0951 20.6722 42.0974C20.8398 42.0997 20.9706 42.102 21.0625 42.1043C21.1405 42.0974 21.1864 42.102 21.1864 42.102C21.1864 42.102 21.1405 42.1066 21.0533 42.1089C20.9615 42.1112 20.8306 42.1112 20.663 42.1158C20.3141 42.1181 19.809 42.1227 19.1593 42.1273C17.8508 42.1319 15.9614 42.1388 13.6313 42.1456C13.0482 42.1479 12.4375 42.1479 11.7993 42.1502C11.4802 42.1502 11.1565 42.1525 10.826 42.1525C10.5 42.1479 10.1694 42.2076 9.86636 42.3546C9.258 42.6324 8.76902 43.2339 8.65882 43.9433C8.62439 44.1201 8.62898 44.2991 8.62898 44.4851C8.62898 44.6711 8.62898 44.857 8.62898 45.0453C8.62898 45.4218 8.62898 45.8029 8.63128 46.1886C8.63128 47.7314 8.63357 49.3522 8.63587 51.0305C8.64046 51.4529 8.60373 51.8754 8.74376 52.2702C8.87462 52.6651 9.12255 53.0233 9.45543 53.2827C9.78601 53.5421 10.2015 53.7051 10.6285 53.7281C11.0601 53.7419 11.5078 53.7327 11.9531 53.735C14.4004 53.735 16.7695 53.7373 18.9665 53.7373H18.9826L18.9986 53.7488C19.7998 54.3617 20.5827 54.9587 21.3173 55.5211L21.2278 55.5648C21.2278 54.9495 21.23 54.3457 21.23 53.7901V53.7396L21.2806 53.7373C21.7948 53.7143 22.2815 53.5031 22.6396 53.1679C23.0023 52.835 23.2342 52.3827 23.2985 51.919C23.3352 51.6894 23.3214 51.4506 23.326 51.2165C23.326 50.9823 23.326 50.7527 23.3283 50.5254C23.3283 50.0708 23.3306 49.6277 23.3306 49.2007C23.3352 47.488 23.3398 45.9889 23.3421 44.7514C23.3398 44.4415 23.3605 44.1499 23.3054 43.8813C23.2549 43.615 23.1561 43.3739 23.0322 43.1719C22.7865 42.7632 22.4514 42.5038 22.1598 42.3569C21.866 42.2076 21.6134 42.1548 21.4435 42.1319C21.3586 42.1181 21.2943 42.1204 21.2507 42.1135C21.2094 42.1066 21.1864 42.102 21.1864 42.102Z" fill="#263238"/>
<path d="M5.50585 82.5863C5.50585 82.5978 5.68262 82.5978 5.99943 82.6368C6.31394 82.6758 6.77078 82.7654 7.30109 82.972C7.83139 83.1786 8.43286 83.4977 9.03434 83.95C9.6404 84.3977 10.2442 84.9671 10.8686 85.5778C12.1197 86.7945 13.224 87.9264 13.9884 88.7758C14.3718 89.2006 14.6749 89.5495 14.8838 89.7906C14.9802 89.9031 15.0605 89.9949 15.1248 90.0684C15.1799 90.1304 15.212 90.1625 15.2166 90.1602C15.2189 90.1579 15.196 90.1212 15.1455 90.0523C15.095 89.9835 15.0215 89.8847 14.9205 89.7585C14.7231 89.5059 14.4292 89.1478 14.0527 88.7139C13.3043 87.846 12.207 86.7027 10.9535 85.4859C10.3314 84.8752 9.71845 84.3036 9.10091 83.8559C8.48796 83.4059 7.87042 83.0868 7.33093 82.8893C6.78915 82.6896 6.32312 82.6138 6.00402 82.5886C5.84332 82.5748 5.71935 82.5725 5.63441 82.5771C5.54947 82.5794 5.50585 82.5817 5.50585 82.5863Z" fill="#263238"/>
<path d="M15.2809 89.4027C15.3016 89.4165 15.5059 89.0606 15.9536 88.5831C16.3967 88.1079 17.1129 87.527 18.0404 87.1643C18.9678 86.7992 19.8884 86.7372 20.5358 86.7832C21.1878 86.8268 21.5803 86.9485 21.5849 86.9255C21.5872 86.9186 21.4908 86.8819 21.314 86.8337C21.135 86.7855 20.8733 86.7304 20.5427 86.6959C19.8861 86.6247 18.9449 86.6753 17.9945 87.0472C17.044 87.4191 16.3209 88.0252 15.887 88.5234C15.6689 88.7737 15.5128 88.9918 15.4164 89.1479C15.32 89.3086 15.2741 89.4004 15.2809 89.4027Z" fill="#263238"/>
<path d="M14.603 67.4685C14.6007 67.4685 14.6007 67.4938 14.6053 67.5443C14.6099 67.5994 14.6167 67.6729 14.6236 67.7624C14.6443 67.9621 14.6718 68.2445 14.7063 68.605C14.7797 69.335 14.8876 70.3934 15.0047 71.6997C15.2366 74.3124 15.5098 77.9329 15.5052 81.9369C15.4914 85.9431 15.2113 89.5613 15.0093 92.1785C14.9037 93.4803 14.8165 94.5364 14.7568 95.2779C14.7292 95.6384 14.7063 95.9207 14.6925 96.1205C14.6879 96.2123 14.6833 96.2835 14.6787 96.3409C14.6764 96.3914 14.6764 96.4166 14.6787 96.4166C14.681 96.4166 14.6856 96.3914 14.6925 96.3432C14.6994 96.2881 14.7086 96.2146 14.7178 96.1251C14.7384 95.9253 14.7683 95.643 14.8073 95.2848C14.8807 94.5547 14.9841 93.4964 15.0988 92.1877C15.3238 89.5728 15.62 85.95 15.6337 81.9391C15.6383 77.9283 15.3514 74.3055 15.0965 71.6929C14.968 70.3865 14.8486 69.3305 14.7591 68.6004C14.7132 68.2422 14.6787 67.9621 14.6535 67.7624C14.6397 67.6729 14.6305 67.5994 14.6213 67.5443C14.6099 67.4915 14.6053 67.4662 14.603 67.4685Z" fill="#263238"/>
<path d="M6.74944 74.5188C6.74944 74.528 6.8803 74.5463 7.11675 74.5739C7.35321 74.5992 7.69527 74.6451 8.11308 74.7116C8.95101 74.8448 10.1012 75.0951 11.3248 75.5221C12.5484 75.9514 13.6044 76.4726 14.3413 76.8927C14.7109 77.1016 15.0071 77.2784 15.2068 77.407C15.4088 77.5332 15.5236 77.5998 15.5282 77.5929C15.5328 77.586 15.4272 77.5057 15.2343 77.3679C15.0415 77.2279 14.7522 77.0373 14.3872 76.8192C13.6572 76.3784 12.5989 75.8389 11.3661 75.4073C10.1333 74.978 8.97167 74.7369 8.12456 74.6267C7.70215 74.5693 7.3578 74.5372 7.11904 74.528C6.88259 74.5119 6.75174 74.5096 6.74944 74.5188Z" fill="#263238"/>
<path d="M15.2533 73.3525C15.2579 73.3525 15.2694 73.3043 15.2854 73.2124C15.3038 73.1068 15.3268 72.9737 15.3566 72.8084C15.3842 72.6316 15.4186 72.4181 15.4829 72.1724C15.5471 71.9268 15.5954 71.6444 15.701 71.3436C15.7492 71.1921 15.7997 71.0337 15.8502 70.8684C15.9007 70.7031 15.9764 70.5378 16.043 70.3633C16.1693 70.012 16.3529 69.6562 16.5343 69.2774C16.9269 68.5358 17.425 67.7552 18.0334 66.9999C19.2616 65.4938 20.6574 64.3941 21.7042 63.6756C21.9613 63.4873 22.2115 63.3427 22.4205 63.2026C22.6317 63.0626 22.8199 62.9524 22.9737 62.8628C23.1161 62.7756 23.2331 62.7044 23.325 62.6493C23.4053 62.5988 23.4443 62.5713 23.4443 62.5667C23.442 62.5621 23.3984 62.5827 23.3135 62.6264C23.2194 62.6769 23.0977 62.7411 22.9508 62.8192C22.7924 62.9041 22.6018 63.0075 22.386 63.1429C22.1702 63.2784 21.9177 63.4184 21.656 63.6021C20.5931 64.3069 19.1766 65.402 17.937 66.9219C17.324 67.6841 16.8213 68.4738 16.4333 69.2269C16.2519 69.6103 16.0729 69.9707 15.9489 70.3266C15.8846 70.5033 15.8089 70.6709 15.7607 70.8385C15.7101 71.0061 15.6619 71.1668 15.616 71.3207C15.515 71.626 15.4714 71.913 15.414 72.1609C15.3543 72.4089 15.3268 72.6247 15.3084 72.8038C15.29 72.9714 15.274 73.1045 15.2602 73.2124C15.251 73.3043 15.2487 73.3525 15.2533 73.3525Z" fill="#263238"/>
<path d="M2.92953 66.5706C2.92723 66.5752 2.97315 66.5958 3.06038 66.6303C3.16139 66.6693 3.28995 66.7152 3.44606 66.7749C3.78352 66.8966 4.26562 67.0802 4.86021 67.319C6.04708 67.7942 7.66325 68.5128 9.37125 69.4541C11.0792 70.3954 12.5531 71.3757 13.5884 72.1242C14.1073 72.4984 14.5205 72.8083 14.8052 73.0264C14.9383 73.1275 15.0485 73.2101 15.1334 73.2744C15.2092 73.3295 15.2505 73.357 15.2528 73.3547C15.2551 73.3524 15.2207 73.318 15.1495 73.256C15.0669 73.1872 14.9636 73.0976 14.835 72.9897C14.5618 72.7578 14.1532 72.4364 13.6412 72.053C12.6174 71.2839 11.1458 70.2898 9.43094 69.3439C7.71605 68.4026 6.08841 67.6909 4.89235 67.2364C4.29317 67.0091 3.80419 66.8369 3.46213 66.729C3.30143 66.6785 3.17058 66.6371 3.06727 66.605C2.97774 66.5775 2.92953 66.566 2.92953 66.5706Z" fill="#263238"/>
<path d="M11.0642 105.988L19.0716 105.999L21.1309 96.0789H9.04173L11.0642 105.988Z" fill="#5FB8AB"/>
<path d="M8.23974 96.0789H21.8945V97.9385H8.23974V96.0789Z" fill="#5FB8AB"/>
<path d="M8.32871 97.9408C8.32871 97.9752 11.382 98.0028 15.1492 98.0028C18.9165 98.0028 21.9697 97.9752 21.9697 97.9408C21.9697 97.9063 18.9165 97.8788 15.1492 97.8788C11.382 97.8788 8.32871 97.9063 8.32871 97.9408Z" fill="#263238"/>
<path d="M22.4394 63.019C22.4394 63.019 25.084 61.1732 26.2961 61.5083C27.5106 61.8435 29.0693 63.5493 29.0693 63.5493C29.0693 63.5493 25.9885 62.6631 25.0588 62.8468C24.1313 63.0351 22.4394 63.019 22.4394 63.019Z" fill="#455A64"/>
<path d="M21.5514 63.6871C21.9348 64.5595 22.6005 65.285 22.9724 66.162C23.3971 67.163 23.404 68.3316 22.9908 69.3372C22.286 68.6002 21.8682 67.6268 21.6409 66.6327C21.4136 65.6386 21.3792 64.8236 21.3333 63.8042L21.5514 63.6871Z" fill="#455A64"/>
<path d="M21.9549 63.4597C21.8332 63.1038 24.8268 63.26 25.7818 64.4148C26.7368 65.5696 27.6896 66.8254 26.8861 69.7365C26.8861 69.7365 25.0794 66.5797 25.0794 66.6256C25.0794 66.6716 22.196 64.1622 21.9549 63.4597Z" fill="#455A64"/>
<path d="M21.9314 63.423C22.2092 63.5309 19.4888 64.3597 18.233 64.4608C16.9773 64.5618 16.2197 64.1439 16.2197 64.1439C16.2197 64.1439 18.0448 61.9147 21.9314 63.423Z" fill="#455A64"/>
<path d="M8.19141 74.884C8.19141 74.884 6.88285 74.3514 6.51325 74.721C6.14594 75.0883 4.63078 77.0949 3.19827 77.2166C3.19827 77.2166 4.50681 74.434 5.69369 73.984C6.47423 73.6856 8.19141 74.884 8.19141 74.884Z" fill="#455A64"/>
<path d="M7.8534 74.7322C7.8534 74.7322 7.9062 73.7496 8.39977 73.233C8.89334 72.7165 10.6748 72.3629 10.6748 72.3629C10.6748 72.3629 10.032 73.3914 9.37544 73.8942C8.71658 74.3924 7.8534 74.7322 7.8534 74.7322Z" fill="#455A64"/>
<path d="M7.85642 74.6749C7.85642 74.6749 8.76781 74.6612 9.4129 75.8022C10.058 76.9432 10.4069 78.3735 10.3541 78.2794C10.3013 78.1853 8.63467 77.4552 8.19619 76.5323C7.75771 75.6093 7.85642 74.6749 7.85642 74.6749Z" fill="#455A64"/>
<path d="M7.64746 74.6749C7.64746 74.6749 7.48447 76.8468 7.11487 77.2141C6.74755 77.5814 6.21495 78.9337 6.21495 78.9337C6.21495 78.9337 5.39538 76.9685 5.84764 76.0272C6.29759 75.0882 7.64746 74.6749 7.64746 74.6749Z" fill="#455A64"/>
<path d="M15.6024 78.8693C15.7081 79.0277 17.8086 80.6554 18.1231 81.4429C18.4376 82.2304 18.1759 83.438 18.1231 83.8076C18.0703 84.1772 16.2315 83.3347 15.917 81.9158C15.6024 80.497 15.6024 78.8693 15.6024 78.8693Z" fill="#455A64"/>
<path d="M15.1933 77.6479C15.1956 77.9097 15.1611 80.4856 14.4862 81.3833C13.809 82.2809 12.5555 83.236 12.5555 83.236C12.5555 83.236 12.1124 79.9828 13.0491 78.9772C13.988 77.9717 15.1933 77.6479 15.1933 77.6479Z" fill="#455A64"/>
<path d="M15.5018 78.0912C15.6556 78.0544 17.5564 77.8753 18.4586 78.9567C19.3631 80.038 19.8682 81.2686 19.8682 81.2686C19.8682 81.2686 16.994 79.8429 16.4682 79.2115C15.9425 78.5802 15.5018 78.0912 15.5018 78.0912Z" fill="#455A64"/>
<path d="M14.1953 76.9134C14.1953 76.9134 13.4217 76.3395 12.5677 76.8721C11.7137 77.4047 10.2949 79.4687 10.2949 79.4687C10.2949 79.4687 12.0328 79.3562 12.9465 78.4861C13.8624 77.6159 14.1953 76.9134 14.1953 76.9134Z" fill="#455A64"/>
<path d="M15.4294 77.2325C15.4294 77.2325 16.5314 76.2958 17.3716 76.0869C18.2118 75.8779 20.6797 76.4932 20.6797 76.4932C20.6797 76.4932 19.525 77.3771 17.817 77.2325C16.1135 77.0855 15.4294 77.2325 15.4294 77.2325Z" fill="#455A64"/>
<path d="M19.0866 86.7716C19.0866 86.7716 19.874 88.2937 19.0866 89.1363C18.2991 89.9766 17.8744 91.6571 17.8744 91.6571C17.8744 91.6571 16.5131 90.3439 17.1972 88.8723C17.879 87.4007 19.0866 86.7716 19.0866 86.7716Z" fill="#455A64"/>
<path d="M20.3519 86.8037C20.5631 86.9093 21.9268 88.746 22.0324 90.0592C22.138 91.3724 22.2436 93.6315 22.0324 93.4731C21.8212 93.3147 20.2991 91.8982 19.879 90.5321C19.4589 89.1661 20.3519 86.8037 20.3519 86.8037Z" fill="#455A64"/>
<path d="M20.866 86.6591C21.0772 86.7119 23.0721 86.3446 24.1741 87.7611C25.276 89.1799 26.1162 91.2278 26.1162 91.2278C26.1162 91.2278 23.2282 89.7516 22.5441 88.9389C21.8623 88.1307 20.866 86.6591 20.866 86.6591Z" fill="#455A64"/>
<path d="M9.59503 84.1382C9.59503 84.1382 10.1942 85.9243 9.59503 87.4993C8.99585 89.0742 8.31173 90.1257 8.31173 90.1257C8.31173 90.1257 7.4233 86.9735 7.99952 86.1333C8.57344 85.293 9.59503 84.1382 9.59503 84.1382Z" fill="#455A64"/>
<path d="M9.26367 83.9478C9.05017 84.1453 6.58919 87.6809 4.91333 87.9977C3.23977 88.3122 4.65162 87.8645 4.65162 87.8645C4.65162 87.8645 5.17963 85.4814 5.93032 84.4942C6.68102 83.507 9.26367 83.9478 9.26367 83.9478Z" fill="#455A64"/>
<path d="M9.64062 83.8857C9.64062 83.8857 7.82243 82.6252 7.11306 82.3038C6.38533 81.9755 4.0529 82.4048 4.0529 82.4048C4.0529 82.4048 6.90645 83.8902 7.59286 83.7341C8.27927 83.5757 9.64062 84.1841 9.64062 84.1841" fill="#455A64"/>
<path d="M3.32006 66.6901C3.32006 66.6901 4.8949 68.3591 4.68599 69.6632C4.47708 70.9672 4.01106 72.2184 4.01106 72.2184L3.31776 69.9226V66.6901H3.32006Z" fill="#455A64"/>
<path d="M3.10699 66.3572C3.10699 66.3572 3.472 68.9124 2.74197 69.957C2.01194 70.9993 1.02021 72.9829 0.9169 72.8268C0.813593 72.6707 -0.699274 71.3139 0.395772 69.3854C1.49082 67.4523 3.10699 66.3572 3.10699 66.3572Z" fill="#455A64"/>
<path d="M3.63704 66.8093C3.63704 66.8093 6.15312 66.0793 6.51354 67.2777C6.87626 68.4784 7.18848 69.5207 7.18848 69.5207C7.18848 69.5207 6.34825 68.623 5.41161 68.0537C4.47497 67.4866 3.63704 66.8093 3.63704 66.8093Z" fill="#455A64"/>
<path d="M14.9199 67.4865C14.9199 67.4865 14.8442 67.4176 14.7156 67.3074C14.121 66.8 12.3855 65.4065 11.5085 65.62C10.441 65.8817 8.97178 66.5429 8.97178 66.5429C8.97178 66.5429 12.7734 68.5173 14.9199 67.4865Z" fill="#455A64"/>
<path d="M14.4119 67.5026C14.405 67.312 15.5551 67.0067 16.5652 68.0513C17.5753 69.0936 17.7314 69.7341 17.7314 69.7341C17.7314 69.7341 14.483 69.3025 14.4119 67.5026Z" fill="#455A64"/>
<path d="M14.5902 67.7139C14.5902 67.7139 15.745 69.0432 14.8588 70.3472C13.9727 71.6512 13.2036 72.9024 13.2036 72.9024C13.2036 72.9024 12.7491 71.7293 13.2036 70.3082C13.6605 68.887 14.5902 67.7139 14.5902 67.7139Z" fill="#455A64"/>
<path d="M10.2675 71.0246C10.3203 70.7078 9.90014 68.102 13.3437 68.3591H13.6582C13.6582 68.3591 12.0099 71.02 11.6334 71.8534C11.2569 72.6891 10.9722 72.9485 10.5659 73.3135C10.1642 73.6809 10.2147 71.3414 10.2675 71.0246Z" fill="#455A64"/>
<path d="M9.60183 84.0304C9.55362 83.2199 9.85666 82.3934 10.4191 81.8057C10.4719 81.7506 10.5477 81.6932 10.6188 81.7253C10.6647 81.746 10.6877 81.7988 10.7015 81.847C10.8484 82.32 10.7405 82.8434 10.5086 83.2796C10.2768 83.7158 9.93012 84.0809 9.57658 84.4252" fill="#455A64"/>
<path d="M19.3103 86.4318C19.9256 85.3046 20.9242 84.3886 22.1019 83.8766C22.1753 83.8444 22.2557 83.8123 22.336 83.8284C22.4577 83.8536 22.5312 83.9822 22.5472 84.1062C22.5794 84.3587 22.4348 84.5998 22.2809 84.8018C21.5348 85.7867 20.3985 86.4663 19.1772 86.6568" fill="#455A64"/>
<path d="M69.342 35.1436C65.9424 35.5267 61.7345 35.4069 58.3349 35.0478C56.8847 31.0972 57.9307 26.8113 58.216 22.6213L65.6096 22.3818L69.342 35.1436Z" fill="#263238"/>
<path d="M67.2144 21.8793C67.2144 21.3525 66.834 20.8976 66.311 20.8497L61.5563 18.5991C59.8446 18.4315 58.0616 21.5202 57.9665 23.268C57.8714 25.2074 58.0853 27.5299 58.3231 28.9665C58.7985 31.8636 60.748 31.9354 60.748 31.9354L60.534 41.8L66.834 36.6762L67.2144 21.8793Z" fill="#FFBE9D"/>
<path d="M59.2627 25.8323C59.2627 26.0239 59.4291 26.1915 59.6193 26.2154C59.8333 26.2154 59.9997 26.0717 59.9997 25.8802C59.9997 25.6887 59.8333 25.5211 59.6431 25.4971C59.4291 25.4732 59.2627 25.6168 59.2627 25.8323Z" fill="#263238"/>
<path d="M58.5186 24.5591C58.5662 24.5831 58.8515 24.5591 59.2318 24.6549C59.6122 24.7507 59.8737 24.9183 59.9213 24.8943C59.9451 24.8943 59.8975 24.8225 59.7786 24.7507C59.6598 24.6788 59.4696 24.5831 59.2318 24.5112C58.9941 24.4633 58.7801 24.4633 58.6613 24.4873C58.5424 24.5112 58.4949 24.5591 58.5186 24.5591Z" fill="#263238"/>
<path d="M62.7324 25.537C62.7324 25.7285 62.8988 25.8961 63.089 25.9201C63.303 25.9201 63.4694 25.7764 63.4694 25.5849C63.4694 25.3933 63.303 25.2257 63.1128 25.2018C62.8988 25.2018 62.7324 25.3454 62.7324 25.537Z" fill="#263238"/>
<path d="M62.435 24.8475C62.4826 24.8714 62.7441 24.6559 63.172 24.5362C63.5762 24.4165 63.9328 24.4404 63.9566 24.4165C63.9803 24.3926 63.909 24.3686 63.7664 24.3447C63.6237 24.3207 63.386 24.3447 63.1245 24.4165C62.863 24.4883 62.6728 24.608 62.5539 24.6799C62.435 24.7756 62.4113 24.8475 62.435 24.8475Z" fill="#263238"/>
<path d="M61.0042 27.5065C61.0042 27.4825 60.7664 27.4346 60.3623 27.3867C60.2672 27.3867 60.1721 27.3628 60.1483 27.291C60.1246 27.2191 60.1721 27.0994 60.2196 26.9797C60.3147 26.7403 60.4098 26.4769 60.5049 26.1896C60.9091 25.0882 61.2181 24.1544 61.1706 24.1544C61.123 24.1305 60.7664 25.0164 60.3623 26.1417C60.2672 26.4051 60.1721 26.6684 60.077 26.9318C60.0295 27.0515 59.9819 27.1712 60.0295 27.3389C60.0532 27.4107 60.1246 27.4586 60.1959 27.4825C60.2672 27.5065 60.3147 27.5065 60.3623 27.5065C60.7427 27.5065 61.0042 27.5065 61.0042 27.5065Z" fill="#263238"/>
<path d="M60.75 31.9392C60.75 31.9392 62.6994 32.0829 64.6013 30.9097C64.6013 30.9097 63.6741 33.0646 60.7975 32.8251L60.75 31.9392Z" fill="#EB996E"/>
<path d="M61.0774 28.463C61.2676 28.1757 61.5767 27.9602 61.8382 27.9363C62.0284 27.9363 62.1948 28.0081 62.2899 28.1757C62.385 28.3433 62.3612 28.6306 62.2423 28.8461C62.0997 29.0856 61.8382 29.1813 61.648 29.1574C61.4578 29.1334 61.2914 28.9898 61.1487 28.8461C61.1012 28.7982 61.0774 28.7743 61.0536 28.7025C61.0061 28.6306 61.0061 28.5588 61.0774 28.463Z" fill="#EB996E"/>
<path d="M62.1125 27.7703C62.0412 27.7703 62.0412 28.2012 61.6846 28.5125C61.328 28.8238 60.8525 28.7759 60.8525 28.8477C60.8525 28.8717 60.9476 28.9195 61.1378 28.9435C61.328 28.9435 61.6133 28.8956 61.8273 28.704C62.0412 28.5125 62.1363 28.2491 62.1601 28.0815C62.1839 27.866 62.1363 27.7703 62.1125 27.7703Z" fill="#263238"/>
<path d="M62.0982 23.101C62.1458 23.1968 62.5261 23.101 63.0016 23.1249C63.4771 23.1249 63.8575 23.2207 63.905 23.101C63.9288 23.0531 63.8575 22.9573 63.691 22.8616C63.5246 22.7658 63.2869 22.694 63.0016 22.694C62.7163 22.694 62.4786 22.7658 62.3122 22.8616C62.1458 22.9573 62.0744 23.0531 62.0982 23.101Z" fill="#263238"/>
<path d="M58.3577 23.697C58.4528 23.7927 58.7856 23.697 59.1897 23.673C59.5939 23.6491 59.9505 23.7209 60.0218 23.6251C60.0456 23.5773 59.9981 23.4815 59.8554 23.4097C59.689 23.3139 59.4513 23.266 59.166 23.266C58.8807 23.266 58.643 23.3618 58.5003 23.4575C58.3577 23.5533 58.3101 23.6491 58.3577 23.697Z" fill="#263238"/>
<path d="M70.0735 29.0859C69.8357 27.793 69.1225 23.6747 68.0052 21.4959C66.8878 19.341 65.604 18.4551 64.3203 18.1438C63.0603 17.8086 61.6576 18.096 61.0871 18.6227C60.5165 19.1495 60.5878 20.7537 60.5878 20.7537C60.5878 20.7537 63.8448 21.472 64.8908 23.2198C66.0795 25.2071 66.3886 26.2127 66.3886 26.2127L66.7927 27.3141C66.7927 27.3141 67.0304 33.0365 66.9116 34.09L70.5489 34.9999C70.2637 33.7309 70.3112 30.3788 70.0735 29.0859Z" fill="#263238"/>
<path d="M60.7243 20.8491C60.7243 20.8491 58.9888 20.6815 58.3707 22.6688C58.0854 23.5787 58.0141 26.1885 58.0141 26.1885C58.0141 26.1885 57.61 24.1054 57.6813 22.9322C57.7526 21.759 58.3232 20.2745 59.2028 19.4365C60.0586 18.6224 60.7956 18.2393 62.3409 18.3351C62.3409 18.3351 61.6277 18.5985 61.2236 19.197C61.0571 19.4604 60.962 19.7238 60.7243 20.8491Z" fill="#263238"/>
<path d="M66.3741 26.3538C66.3978 25.7074 67.0873 25.2764 67.6341 25.5876C67.9431 25.7552 68.1808 26.1144 68.1571 26.7848C68.1095 28.6045 66.3027 28.1735 66.3027 28.1256C66.3027 28.1017 66.3503 27.12 66.3741 26.3538Z" fill="#FFBE9D"/>
<path d="M66.8232 27.4518C66.8232 27.4518 66.847 27.4758 66.8946 27.4997C66.9421 27.5237 67.0372 27.5476 67.1323 27.5237C67.3225 27.4518 67.4889 27.1645 67.5127 26.8293C67.5127 26.6617 67.4889 26.4941 67.4414 26.3744C67.3938 26.2307 67.2987 26.135 67.2036 26.135C67.1085 26.111 67.0372 26.1589 67.0134 26.2068C66.9897 26.2547 66.9897 26.3026 66.9897 26.3026C66.9897 26.3026 66.9421 26.2786 66.9659 26.2068C66.9659 26.1828 66.9897 26.135 67.0372 26.0871C67.0848 26.0631 67.1561 26.0392 67.2036 26.0392C67.3463 26.0631 67.4651 26.1828 67.5127 26.3265C67.584 26.4702 67.6078 26.6617 67.6078 26.8293C67.584 27.1885 67.3938 27.5237 67.1323 27.5955C67.0134 27.6194 66.8946 27.5716 66.847 27.5476C66.8232 27.4997 66.8232 27.4758 66.8232 27.4518Z" fill="#EB996E"/>
<path d="M62.6159 27.8642C62.5921 27.8642 62.497 27.7205 62.3068 27.6247C62.1166 27.5289 61.9502 27.5768 61.9502 27.5529C61.9502 27.5289 61.974 27.505 62.0691 27.4811C62.1404 27.4571 62.2593 27.4571 62.3781 27.505C62.497 27.5529 62.5683 27.6487 62.6159 27.7205C62.6396 27.8163 62.6159 27.8642 62.6159 27.8642Z" fill="#EB996E"/>
<path d="M62.8024 27.865C62.7786 27.865 62.7073 27.7692 62.6122 27.6495C62.5171 27.5298 62.3982 27.458 62.422 27.4101C62.4458 27.3861 62.5884 27.4101 62.7073 27.5537C62.8262 27.6974 62.8262 27.865 62.8024 27.865Z" fill="#EB996E"/>
<path d="M58.8592 25.8298C58.8354 25.8538 58.7878 25.8538 58.7165 25.8298C58.6452 25.8059 58.5976 25.758 58.6214 25.7101C58.6452 25.6862 58.6927 25.6862 58.7641 25.7101C58.8354 25.758 58.8829 25.8059 58.8592 25.8298Z" fill="#EB996E"/>
<path d="M69.9717 97.7548L69.8929 106.073L59.5414 106.03C59.6058 105.042 64.969 103.08 64.969 103.08L64.7995 97.7477L69.9717 97.7548Z" fill="#263238"/>
<g opacity="0.6">
<path d="M68.1883 102.645C68.3888 102.7 68.5249 102.927 68.4795 103.129C68.4318 103.332 68.2027 103.473 68.0022 103.421C67.8017 103.368 67.6275 103.103 67.6967 102.907C67.7659 102.712 68.0428 102.559 68.2265 102.659" fill="#455A64"/>
</g>
<path d="M69.8924 106.042L69.9043 105.202L59.949 105.539C59.949 105.539 59.4883 105.739 59.5408 106.064L69.8924 106.042Z" fill="#455A64"/>
<path d="M64.817 103.026C64.8194 103.076 65.07 103.1 65.3182 103.265C65.5712 103.422 65.6977 103.642 65.7455 103.62C65.7932 103.611 65.7192 103.308 65.4137 103.114C65.113 102.919 64.8075 102.978 64.817 103.026Z" fill="#455A64"/>
<path d="M63.7331 103.472C63.7211 103.522 63.9407 103.608 64.1102 103.823C64.2868 104.033 64.3298 104.265 64.3799 104.262C64.4276 104.27 64.4634 103.974 64.2462 103.711C64.0314 103.446 63.7331 103.425 63.7331 103.472Z" fill="#455A64"/>
<path d="M63.097 104.768C63.1424 104.78 63.214 104.527 63.0851 104.25C62.9586 103.971 62.7199 103.861 62.6984 103.904C62.6698 103.944 62.8226 104.095 62.9252 104.324C63.0326 104.551 63.0469 104.763 63.097 104.768Z" fill="#455A64"/>
<path d="M64.9126 101.807C64.9341 101.852 65.1656 101.785 65.4521 101.804C65.7385 101.819 65.9605 101.916 65.9867 101.873C66.0153 101.838 65.8005 101.649 65.464 101.63C65.1251 101.606 64.8864 101.766 64.9126 101.807Z" fill="#455A64"/>
<path d="M65.1605 100.58C65.1605 100.601 65.3586 100.632 65.6784 100.58C65.8383 100.553 66.0245 100.501 66.2226 100.415C66.3204 100.372 66.4207 100.32 66.5209 100.257C66.5687 100.226 66.626 100.195 66.6785 100.136C66.7358 100.083 66.7668 99.9495 66.7023 99.866C66.6498 99.7872 66.5567 99.7514 66.4804 99.749C66.404 99.7467 66.3419 99.761 66.287 99.7753C66.1725 99.8016 66.0627 99.8397 65.9648 99.8851C65.7667 99.9734 65.6044 100.088 65.4851 100.198C65.244 100.42 65.1605 100.608 65.1796 100.618C65.2034 100.635 65.3204 100.477 65.5662 100.293C65.6879 100.203 65.8455 100.109 66.0293 100.035C66.1223 99.9997 66.2226 99.9686 66.3276 99.9448C66.4374 99.9161 66.5305 99.9161 66.5591 99.9639C66.5687 99.983 66.5711 99.9901 66.5472 100.021C66.5233 100.05 66.478 100.078 66.4326 100.109C66.3419 100.169 66.2488 100.219 66.1581 100.265C65.9768 100.353 65.8049 100.415 65.6569 100.456C65.3562 100.539 65.1605 100.551 65.1605 100.58Z" fill="#455A64"/>
<path d="M65.2282 100.652C65.2449 100.659 65.3475 100.48 65.3666 100.151C65.3762 99.9883 65.3595 99.7925 65.2974 99.5825C65.2664 99.4774 65.2234 99.3724 65.1662 99.2674C65.1065 99.1648 65.0325 99.0287 64.8368 99.0048C64.7341 99.0001 64.6482 99.0812 64.6196 99.148C64.5862 99.2173 64.579 99.2769 64.5647 99.339C64.5456 99.4607 64.548 99.5777 64.5623 99.6875C64.5933 99.9071 64.684 100.091 64.7819 100.225C64.9824 100.494 65.1948 100.554 65.1972 100.537C65.2139 100.511 65.0373 100.413 64.8845 100.155C64.8081 100.029 64.7413 99.8594 64.7222 99.6684C64.7127 99.5729 64.715 99.4703 64.7341 99.37C64.7508 99.2602 64.7914 99.1719 64.8344 99.1839C64.8869 99.1839 64.9728 99.2674 65.0158 99.3533C65.0683 99.4464 65.1113 99.5419 65.1423 99.635C65.2067 99.8212 65.233 100.003 65.2401 100.153C65.2545 100.456 65.1996 100.645 65.2282 100.652Z" fill="#455A64"/>
<path d="M67.1429 92.6252L73.9023 97.4731L67.9115 105.916C67.1406 105.295 68.6204 99.7789 68.6204 99.7789L64.3743 96.5494L67.1429 92.6252Z" fill="#263238"/>
<g opacity="0.6">
<path d="M70.0859 96.9096C70.2458 96.7783 70.5108 96.795 70.6492 96.9502C70.7876 97.1053 70.7709 97.3727 70.6134 97.5087C70.4559 97.6424 70.1384 97.6328 70.0191 97.4634C69.8998 97.2939 69.9356 96.9788 70.1193 96.8881" fill="#455A64"/>
</g>
<path d="M73.875 97.4551L73.1948 96.9634L67.7433 105.301C67.7433 105.301 67.6431 105.793 67.939 105.936L73.875 97.4551Z" fill="#455A64"/>
<path d="M68.4785 99.8862C68.5215 99.9148 68.6862 99.7215 68.9631 99.6117C69.2375 99.4947 69.4905 99.5186 69.5001 99.4685C69.5192 99.4255 69.228 99.3109 68.8962 99.4494C68.5621 99.5854 68.4332 99.8695 68.4785 99.8862Z" fill="#455A64"/>
<path d="M68.2182 101.029C68.2516 101.067 68.4473 100.938 68.7218 100.921C68.9939 100.898 69.2087 100.995 69.2349 100.952C69.2683 100.919 69.0488 100.719 68.7075 100.745C68.3685 100.769 68.18 101 68.2182 101.029Z" fill="#455A64"/>
<path d="M68.9239 102.287C68.9597 102.256 68.795 102.053 68.4942 101.998C68.1935 101.941 67.9668 102.072 67.9882 102.115C68.005 102.163 68.215 102.122 68.4608 102.172C68.7091 102.213 68.8905 102.325 68.9239 102.287Z" fill="#455A64"/>
<path d="M67.528 99.1038C67.5781 99.1134 67.6545 98.8842 67.8359 98.6622C68.0125 98.4379 68.2201 98.3114 68.1987 98.2636C68.1867 98.2183 67.9075 98.2875 67.6974 98.5524C67.4874 98.815 67.4802 99.1014 67.528 99.1038Z" fill="#455A64"/>
<path d="M66.6707 98.1919C66.6874 98.2038 66.8282 98.0606 66.9691 97.767C67.0383 97.6214 67.1051 97.44 67.1481 97.2276C67.1695 97.1225 67.1839 97.0104 67.191 96.8934C67.1934 96.8361 67.2006 96.7717 67.1815 96.6953C67.1719 96.6189 67.0788 96.5163 66.9762 96.521C66.8807 96.5186 66.7996 96.5759 66.7542 96.6356C66.7089 96.6953 66.685 96.755 66.6635 96.8099C66.6206 96.9197 66.5872 97.0294 66.5681 97.1369C66.5275 97.3493 66.5275 97.5474 66.5466 97.7073C66.5896 98.032 66.6946 98.2086 66.7137 98.199C66.7399 98.1895 66.6803 98.0033 66.6707 97.6978C66.6659 97.545 66.6803 97.3636 66.7256 97.1703C66.7495 97.0724 66.7805 96.9746 66.8235 96.8743C66.864 96.7693 66.9165 96.6929 66.9738 96.6977C66.9953 96.7001 67.0025 96.7024 67.0144 96.7406C67.024 96.7764 67.024 96.8289 67.0216 96.8862C67.0168 96.996 67.0072 97.1011 66.9905 97.2013C66.9595 97.3994 66.9094 97.5761 66.8569 97.7217C66.7495 98.0105 66.6492 98.1776 66.6707 98.1919Z" fill="#455A64"/>
<path d="M66.7842 98.1814C66.8009 98.1719 66.7102 97.9857 66.4548 97.7804C66.3283 97.6802 66.1565 97.5799 65.9512 97.5107C65.8486 97.4773 65.7364 97.451 65.6171 97.4367C65.4977 97.4272 65.345 97.4081 65.2113 97.5561C65.1493 97.6372 65.166 97.7542 65.2042 97.8162C65.2423 97.8854 65.2853 97.926 65.3283 97.969C65.4166 98.0549 65.5144 98.1218 65.6123 98.1719C65.8104 98.2721 66.0133 98.3055 66.178 98.3008C66.5145 98.2912 66.684 98.1552 66.6744 98.1409C66.6625 98.1122 66.4811 98.2005 66.1827 98.1767C66.0348 98.1647 65.8581 98.1241 65.6911 98.0287C65.6075 97.9809 65.524 97.9213 65.4524 97.8473C65.3712 97.7709 65.3235 97.685 65.3569 97.6587C65.3855 97.6157 65.5049 97.5919 65.6004 97.6086C65.7078 97.6181 65.808 97.6396 65.9035 97.6659C66.0944 97.7208 66.2567 97.8019 66.3832 97.8831C66.6386 98.0454 66.7627 98.2005 66.7842 98.1814Z" fill="#455A64"/>
<path d="M69.3421 49.1865C69.3421 49.1865 70.7933 50.7404 71.5046 52.2275C72.2158 53.7169 72.6717 57.2687 72.6717 57.2687C72.6717 57.2687 74.6742 61.7299 74.3711 64.0141C74.0656 66.2961 72.0273 81.909 72.0273 81.909C72.0273 81.909 72.1275 97.0851 70.6835 99.7919L70.3613 101.253L64.5256 100.217L63.2319 69.5805L59.6708 49.325L69.3421 49.1865Z" fill="#455A64"/>
<path d="M66.7191 55.2835C66.7287 55.2835 66.743 55.2 66.7573 55.0472C66.774 54.8945 66.7859 54.6701 66.7883 54.3956C66.7955 53.8442 66.7501 53.0828 66.6594 52.2474C66.564 51.4358 66.478 50.7006 66.4112 50.1158C66.3492 49.5716 66.3181 49.2327 66.2966 49.2327C66.2776 49.2327 66.2752 49.574 66.311 50.1254C66.3468 50.6744 66.4279 51.431 66.5186 52.2641C66.6093 53.0971 66.669 53.8514 66.6881 54.398C66.7072 54.9422 66.6952 55.2812 66.7191 55.2835Z" fill="#455A64"/>
<path d="M65.6342 51.6933C65.67 51.7028 65.837 51.1681 65.9253 50.4855C66.016 49.8028 65.9946 49.2443 65.9564 49.2443C65.9158 49.2443 65.8752 49.7933 65.7845 50.4688C65.6986 51.1395 65.596 51.6837 65.6342 51.6933Z" fill="#455A64"/>
<path d="M61.9007 50.4923C61.9245 50.5019 61.9174 50.3014 62.125 50.1558C62.2253 50.0865 62.3804 50.0555 62.526 50.1152C62.6692 50.1701 62.7909 50.3276 62.7862 50.5066C62.7838 50.6857 62.6597 50.8384 62.5141 50.8885C62.3661 50.9434 62.2133 50.9053 62.1155 50.8336C61.9102 50.6833 61.9245 50.4851 61.9007 50.4923C61.8935 50.4923 61.8768 50.5353 61.8863 50.6164C61.8959 50.6952 61.9365 50.8169 62.051 50.9148C62.1608 51.015 62.3565 51.0795 62.5522 51.0127C62.748 50.9554 62.9222 50.7525 62.9246 50.509C62.9317 50.2679 62.7623 50.0579 62.5713 49.9934C62.3756 49.9218 62.1799 49.9791 62.0653 50.0746C61.9484 50.1701 61.903 50.2894 61.8911 50.3682C61.8792 50.4493 61.8911 50.4923 61.9007 50.4923Z" fill="#455A64"/>
<path d="M55.8546 53.2851C55.8546 53.2851 52.9833 72.8198 52.6754 76.1543C52.3675 79.4889 64.4733 97.2763 64.4733 97.2763L69.5811 91.2421L61.7882 76.7534L64.4113 62.322L60.8884 49.4207L56.3033 49.3514L55.8546 53.2851Z" fill="#455A64"/>
<path d="M71.5713 95.1145C71.5713 95.1145 71.5689 95.2601 71.5307 95.5394C71.4949 95.8186 71.4257 96.2268 71.3302 96.7567C71.1369 97.8141 70.8218 99.3465 70.3994 101.261L70.3898 101.301L70.3493 101.294C68.7 101.005 66.7213 100.659 64.5112 100.27L64.4658 100.263L64.4634 100.218C64.3011 96.2125 64.1078 91.4267 63.9001 86.2924C63.6853 80.769 63.4848 75.6467 63.3201 71.4457V71.4505C62.8834 68.0753 62.5206 65.2826 62.2676 63.3301C62.1458 62.361 62.0504 61.5972 61.9835 61.0721C61.9525 60.8167 61.9286 60.6185 61.9119 60.4801C61.8976 60.3464 61.8928 60.2772 61.8928 60.2772C61.8928 60.2772 61.9072 60.3464 61.9286 60.4777C61.9501 60.6162 61.9788 60.8143 62.0146 61.0697C62.0886 61.5948 62.1936 62.3538 62.3272 63.3229C62.5922 65.2755 62.9693 68.0634 63.4252 71.4361V71.4385V71.4409C63.5946 75.6419 63.8023 80.7643 64.0266 86.2876C64.2271 91.4219 64.4133 96.2077 64.5708 100.213L64.5255 100.16C66.7309 100.557 68.7095 100.912 70.3588 101.208L70.3087 101.242C70.7431 99.3298 71.0701 97.7998 71.2777 96.7472C71.3803 96.2197 71.4567 95.8139 71.4997 95.537C71.5236 95.3986 71.5379 95.2935 71.5474 95.2219C71.5641 95.1503 71.5713 95.1145 71.5713 95.1145Z" fill="#263238"/>
<path d="M57.1168 35.4301L59.827 34.0893C62.2282 34.8075 64.4153 35.023 65.5802 33.0597C65.5802 33.0597 69.0274 32.509 70.0734 33.0597C71.1195 33.6104 71.0244 40.6018 71.0244 40.6018L71.9515 49.5566C71.9515 49.5566 74.6855 55.0156 74.2338 60.7141L54.6444 60.2592C54.6444 60.2592 54.4304 57.2423 55.3576 54.6565C56.2848 52.0706 56.1421 49.7721 56.1421 49.7721L55.9995 42.2539L57.1168 35.4301Z" fill="#5FB8AB"/>
<g opacity="0.3">
<path d="M58.3048 51.8313C59.5886 50.8976 60.7059 49.7483 61.6331 48.4314C62.0135 47.8807 62.3701 47.3061 62.8218 46.8033C63.2735 46.3005 63.844 45.8934 64.5097 45.7977C65.5319 45.63 66.5304 46.2286 67.4101 46.8033C68.3848 47.4258 69.3595 48.0723 70.3104 48.6948C70.5482 48.8624 70.8097 49.03 71.1187 49.03C71.404 49.0539 71.8319 49.0539 71.8557 48.7427C71.404 48.5032 70.2391 47.761 69.5735 47.2342C68.575 46.4681 67.5289 45.9174 66.5304 45.1512C66.0787 44.792 65.5795 44.385 65.4606 43.8104C65.4131 43.6188 65.4369 43.3794 65.318 43.2118C65.1516 42.9963 64.8425 42.9963 64.581 43.0202C64.058 43.0681 63.5112 43.116 63.0595 43.4033C62.4414 43.8104 62.1799 44.5526 61.8946 45.223C60.9912 47.5455 59.6836 49.7004 58.0908 51.6158" fill="black"/>
</g>
<path d="M57.1186 35.4303C57.1186 35.4303 54.242 36.0049 53.6952 40.2668C53.1484 44.5048 51.5081 50.0835 52.4828 51.8314C52.7443 52.3342 53.6477 53.2919 54.1945 53.4835C55.716 54.0581 57.3326 52.7891 58.3549 51.5201L61.2552 47.1385L61.8733 45.9893L58.7828 43.978L56.9284 45.9174L57.1186 35.4303Z" fill="#5FB8AB"/>
<path d="M69.5094 32.8922C69.5094 32.8922 72.3384 33.1795 74.1214 36.0527C76.5463 39.9315 77.9252 46.6356 77.5686 48.6229C77.2595 50.4905 74.0739 51.6637 73.2418 51.1369C72.4573 50.6581 64.5645 43.8821 64.5645 43.8821L67.1558 41.0329L71.6252 43.3793L70.1988 38.7104L69.5094 32.8922Z" fill="#5FB8AB"/>
<path d="M58.0728 41.0093C58.1204 41.0093 58.049 41.9431 57.9064 43.0684C57.8351 43.6191 57.7638 44.098 57.7162 44.505C57.6687 44.8641 57.6449 45.1036 57.6211 45.1036C57.5736 45.1036 57.6449 44.1698 57.7875 43.0444C57.8588 42.4938 57.9302 42.0149 57.9777 41.6079C58.0253 41.2248 58.049 41.0093 58.0728 41.0093Z" fill="#263238"/>
<path d="M70.5981 39.9794C70.5981 39.9794 70.5981 40.0034 70.6219 40.0273C70.6456 40.0752 70.6456 40.1231 70.6694 40.1949C70.717 40.3625 70.7883 40.578 70.8834 40.8653C71.0736 41.4639 71.3351 42.3019 71.6679 43.3794L71.6917 43.4512L71.6204 43.4033C70.4079 42.7808 68.8864 41.9906 67.1271 41.0569H67.1747C66.3902 41.9188 65.5105 42.8765 64.6071 43.9061V43.8343C66.6992 45.6779 69.0528 47.761 71.5728 49.9158C71.8581 50.1553 72.1434 50.3947 72.4287 50.6341C72.5713 50.7539 72.7139 50.8736 72.8566 50.9693C72.9279 51.0172 72.9992 51.0891 73.0705 51.113C73.1419 51.137 73.237 51.1609 73.332 51.1609C73.6887 51.1848 74.0453 51.137 74.3781 51.0412C74.7109 50.9454 75.0437 50.8257 75.3766 50.682C75.9947 50.3947 76.589 49.9877 77.0169 49.4849C77.2309 49.2215 77.3973 48.9342 77.4924 48.6229C77.5875 48.3117 77.5875 47.9764 77.5875 47.6652C77.54 46.3723 77.3022 45.1512 77.0645 44.0258C76.8268 42.9005 76.5415 41.847 76.2324 40.9132C75.6381 39.0217 74.9962 37.5612 74.4732 36.6034C74.1879 36.1246 73.9502 35.7654 73.7837 35.5499C73.6886 35.4302 73.6173 35.3584 73.5698 35.3105C73.5222 35.2626 73.4985 35.2147 73.4985 35.2147C73.4985 35.2147 73.6173 35.3105 73.8075 35.526C73.9977 35.7415 74.2592 36.1006 74.5207 36.5795C75.0913 37.5372 75.7332 38.9977 76.3275 40.8893C76.6366 41.823 76.9219 42.8765 77.1596 44.0019C77.3973 45.1272 77.6351 46.3483 77.7064 47.6652C77.7064 48.0004 77.7064 48.3356 77.6113 48.6708C77.5162 49.006 77.326 49.2933 77.112 49.5806C76.6603 50.1074 76.066 50.5144 75.4241 50.8017C75.0913 50.9454 74.7585 51.0891 74.4019 51.1609C74.0453 51.2567 73.6886 51.3285 73.3083 51.2806C73.2132 51.2806 73.1181 51.2567 73.023 51.2088C72.9279 51.1609 72.8566 51.113 72.7853 51.0651C72.6426 50.9454 72.5 50.8257 72.3573 50.7299C72.072 50.4905 71.7868 50.2511 71.5015 50.0116C68.9815 47.8567 66.6279 45.7737 64.5358 43.9061L64.4883 43.8582L64.5358 43.8103C65.463 42.8047 66.3426 41.823 67.1271 40.9611L67.1509 40.9371L67.1747 40.9611C68.9339 41.8949 70.4317 42.685 71.6441 43.3315L71.5966 43.3794C71.2637 42.3019 71.0022 41.44 70.8358 40.8414C70.7407 40.5541 70.6932 40.3386 70.6456 40.171C70.6219 40.0991 70.5981 40.0512 70.5981 40.0034V39.9794Z" fill="#263238"/>
<path d="M74.5273 43.3799C74.5035 43.4038 73.9567 42.9968 73.1959 42.6616C72.4352 42.3264 71.7695 42.1827 71.7695 42.1348C71.7695 42.1109 71.9359 42.1348 72.2212 42.2067C72.4827 42.2785 72.8631 42.3743 73.2435 42.5658C73.6239 42.7334 73.9567 42.9489 74.1944 43.0926C74.4084 43.2602 74.5273 43.3799 74.5273 43.3799Z" fill="#263238"/>
<path d="M55.5038 47.402C55.5038 47.402 55.5275 47.3781 55.5513 47.3302C55.5989 47.2823 55.6464 47.2344 55.7177 47.1386C55.8604 46.971 56.0743 46.7556 56.3596 46.4443C56.9302 45.8457 57.7385 44.9838 58.737 43.9063L58.7608 43.8824L58.7845 43.9063C59.7117 44.457 60.7815 45.1035 61.9702 45.8218L62.0177 45.8457L61.994 45.8936C61.78 46.3006 61.5423 46.7077 61.3045 47.1626C60.3774 48.5274 59.3789 50.0597 58.3091 51.64C57.8574 52.1907 57.3343 52.6935 56.6925 53.1005C56.1694 53.4118 55.5989 53.6751 55.0045 53.6751C54.8619 53.6751 54.6955 53.6512 54.5528 53.6273C54.4102 53.5794 54.2676 53.5315 54.1249 53.4597C53.8634 53.316 53.6257 53.1484 53.4117 52.9569C52.9838 52.5738 52.6034 52.1428 52.3419 51.64C52.3181 51.5681 52.2943 51.5203 52.2706 51.4484C52.2468 51.3766 52.2468 51.3048 52.223 51.2329L52.1755 51.0414C52.1755 50.9696 52.1517 50.8977 52.1517 50.8259C52.1279 50.5625 52.1279 50.2992 52.1279 50.0358C52.1517 48.9823 52.3181 48.0006 52.4608 47.0668C52.6034 46.157 52.7698 45.295 52.9125 44.5049C53.1977 42.9486 53.4355 41.6796 53.6019 40.8176C53.6732 40.3867 53.7208 40.0515 53.7683 39.812C53.7921 39.6923 53.7921 39.6205 53.8159 39.5487C53.8159 39.5008 53.8396 39.4529 53.8396 39.4529C53.8396 39.4529 53.8396 39.4768 53.8396 39.5487C53.8396 39.6205 53.8159 39.6923 53.8159 39.812C53.7921 40.0515 53.7445 40.3867 53.6732 40.8176C53.5306 41.7035 53.3166 42.9486 53.0313 44.5288C52.8887 45.319 52.746 46.157 52.5796 47.0908C52.437 48.0006 52.2943 49.0062 52.2706 50.0358C52.2706 50.2992 52.2706 50.5625 52.2943 50.8259C52.2943 50.8977 52.2943 50.9696 52.3181 51.0174L52.3657 51.209C52.3894 51.2808 52.3894 51.3287 52.4132 51.4005C52.437 51.4724 52.4608 51.5203 52.4845 51.5921C52.7223 52.071 53.1026 52.478 53.5306 52.8611C53.9585 53.2202 54.434 53.5794 55.0283 53.5554C55.5989 53.5554 56.1694 53.316 56.6687 53.0047C57.2868 52.6216 57.8098 52.0949 58.2615 51.5681C59.3313 49.9639 60.3536 48.4555 61.257 47.0908C61.4947 46.6598 61.7325 46.2288 61.9464 45.8457L61.9702 45.9175C60.7815 45.1993 59.7117 44.5528 58.8083 44.0021H58.8558C57.8336 45.0556 57.0015 45.9175 56.4309 46.5161C56.1457 46.8034 55.9317 47.0429 55.7653 47.1865C55.694 47.2584 55.6464 47.3063 55.5989 47.3541C55.5276 47.402 55.5038 47.402 55.5038 47.402Z" fill="#263238"/>
<path d="M65.2099 48.407C65.2099 48.4309 64.9247 48.5267 64.473 48.7422C64.0213 48.9577 63.4031 49.2929 62.8088 49.7478C62.1907 50.2027 61.7152 50.7055 61.3824 51.0886C61.0496 51.4717 60.8594 51.7111 60.8594 51.7111C60.8594 51.7111 60.8831 51.6393 60.9782 51.5196C61.0496 51.3999 61.1684 51.2323 61.3348 51.0407C61.6439 50.6337 62.1431 50.1309 62.7613 49.676C63.3794 49.2211 63.9975 48.8858 64.473 48.6943C64.7107 48.5985 64.9009 48.5267 65.0435 48.4788C65.1386 48.4309 65.2099 48.407 65.2099 48.407Z" fill="#263238"/>
<path d="M59.0443 44.1698L58.7828 42.4219L57.499 41.0093L57.6417 38.7586C57.6417 38.7586 58.1171 38.591 58.1171 39.0459C58.1171 39.4769 58.2598 40.5544 58.2598 40.5544L58.6402 40.8896L58.5688 38.7107L59.5435 37.4657C59.5435 37.4657 59.9239 37.7769 59.7337 38.3276C59.5436 38.8544 59.3534 39.0938 59.3534 39.0938L59.4485 40.4586H59.7813V39.1896L61.2077 37.322C61.2077 37.322 61.3741 37.4417 61.2077 38.0164C61.0413 38.591 60.7798 39.1178 60.7798 39.1178L61.279 41.4163L61.7307 41.6318L61.9922 41.2487L62.7054 39.7403C62.7054 39.7403 62.9194 39.6685 63.0383 39.8361C63.1571 40.0037 62.7054 41.2248 62.6579 41.4403C62.6341 41.6557 63.3473 43.0923 63.062 43.8106L61.6356 45.6782L59.0443 44.1698Z" fill="#FFBE9D"/>
<path d="M60.2822 35.5267V42.9012H64.4664V35.6464L60.2822 35.5267Z" fill="#263238"/>
<path d="M64.4717 37.1078C64.4717 37.1078 65.1373 37.1078 65.2087 37.6106C65.28 38.1134 65.28 38.3289 65.7079 38.8317C66.1358 39.3345 66.6113 39.7894 66.7064 40.8429L66.8015 41.3936L64.9234 43.4049C64.9234 43.4049 61.809 43.333 61.4287 43.2133C61.0483 43.0936 60.6679 42.7823 60.6679 42.7823L60.24 41.4655C60.24 41.4655 60.4064 41.1781 60.6917 41.5612C60.977 41.9443 61.4524 42.3992 61.4524 42.3992L62.3796 42.495L62.8075 42.2795L61.0958 41.5133C61.0958 41.5133 59.8358 40.819 59.8358 40.6514C59.8358 40.4838 59.8834 40.1246 59.8834 40.1246C59.8834 40.1246 59.6694 39.8613 59.8358 39.5021C60.0022 39.1669 60.6204 39.5021 60.6204 39.5021C60.6204 39.5021 62.5222 40.2204 62.8075 40.2683C63.0928 40.2922 63.497 40.2683 63.497 40.2683L60.7155 38.6162C60.7155 38.6162 60.7155 38.3049 61.286 38.4247C61.8566 38.5444 63.5445 39.2148 63.8536 39.2866C64.1626 39.3584 64.4955 39.119 64.4955 39.119V37.1078H64.4717Z" fill="#FFBE9D"/>
<path d="M64.4705 37.1078C64.4705 37.1078 64.4705 37.1557 64.4705 37.2515C64.4705 37.3473 64.4705 37.467 64.4705 37.6346C64.4705 37.9937 64.4705 38.4726 64.4943 39.1191V39.143H64.4705C64.3517 39.2148 64.2328 39.2627 64.0902 39.3106C63.9475 39.3585 63.7811 39.3346 63.6622 39.2867C63.377 39.1909 63.0679 39.0951 62.7588 38.9754C62.426 38.8557 62.0932 38.736 61.7366 38.6163C61.5464 38.5684 61.38 38.4965 61.1898 38.4726C61.0947 38.4487 60.9996 38.4487 60.9045 38.4726C60.8094 38.4965 60.7381 38.5684 60.7381 38.6402L60.7143 38.5923C61.5464 39.0712 62.4973 39.6458 63.4958 40.2205L63.6622 40.3162H63.472C63.2343 40.3402 62.9966 40.3402 62.7351 40.3162C62.4736 40.2683 62.2596 40.1726 62.0219 40.1007C61.5464 39.9331 61.0709 39.7655 60.5717 39.574C60.4766 39.5261 60.3577 39.4782 60.2388 39.4543C60.12 39.4303 60.0011 39.4303 59.9298 39.4782C59.8585 39.5261 59.8109 39.6698 59.8109 39.7655C59.8109 39.8852 59.8347 40.005 59.906 40.1007L59.9298 40.1247V40.1486C59.906 40.3162 59.8822 40.4838 59.8822 40.6275C59.8585 40.6514 59.9536 40.7233 60.0011 40.7711C60.0724 40.819 60.1437 40.8669 60.2151 40.9148C60.5003 41.1063 60.8094 41.274 61.0947 41.4416C61.4988 41.6331 61.9505 41.8246 62.3785 42.0162C62.5211 42.088 62.6637 42.1359 62.8064 42.2077L62.9253 42.2556L62.8064 42.3035C62.6637 42.3753 62.5211 42.4472 62.3785 42.519H62.3547H62.3309C62.0219 42.4951 61.7128 42.4472 61.4037 42.4232H61.38L61.3562 42.3993C61.1422 42.2077 60.952 41.9922 60.7619 41.7768C60.6668 41.681 60.5954 41.5373 60.5003 41.4655C60.4528 41.4176 60.4053 41.3937 60.3577 41.3937C60.3102 41.3937 60.2626 41.4176 60.2388 41.4655V41.4176C60.3815 41.8725 60.5241 42.3035 60.6668 42.7345L60.643 42.7105C60.7856 42.8303 60.952 42.95 61.1185 43.0218C61.2136 43.0697 61.2849 43.0936 61.38 43.1415C61.4751 43.1655 61.5464 43.1655 61.6415 43.1894C62.0219 43.2373 62.4022 43.2373 62.7588 43.2612C63.4958 43.2852 64.1853 43.3091 64.8747 43.3331L64.8271 43.357C65.5166 42.6387 66.1347 41.9444 66.7052 41.3458V41.3937C66.6815 41.2021 66.6339 41.0345 66.6102 40.843C66.5864 40.4838 66.4913 40.1486 66.3724 39.8613C66.2298 39.574 66.0634 39.3346 65.8732 39.1191C65.683 38.9036 65.4928 38.712 65.3739 38.4965C65.2313 38.2811 65.1837 38.0656 65.16 37.8501C65.1362 37.6585 65.1362 37.467 65.0411 37.3473C64.946 37.2276 64.8271 37.1797 64.732 37.1318C64.5656 37.1078 64.4705 37.1078 64.4705 37.1078C64.4705 37.1078 64.5894 37.0839 64.7796 37.1557C64.8747 37.1797 65.0173 37.2276 65.1124 37.3712C65.16 37.443 65.2075 37.5149 65.2075 37.6106C65.2313 37.7064 65.2313 37.8022 65.2551 37.898C65.2788 38.0895 65.3264 38.305 65.469 38.5205C65.5879 38.736 65.7781 38.9036 65.9683 39.1191C66.1585 39.3346 66.3486 39.574 66.4913 39.8852C66.6339 40.1726 66.7053 40.5317 66.7528 40.8909C66.7766 41.0585 66.8241 41.2261 66.8479 41.4416V41.4655L66.8241 41.4894C66.2536 42.112 65.6354 42.7824 64.946 43.5007L64.9222 43.5246H64.8985C64.2328 43.5007 63.5196 43.5007 62.7826 43.4528C62.426 43.4288 62.0456 43.4288 61.6653 43.381C61.5702 43.381 61.4751 43.357 61.38 43.3331C61.2849 43.3091 61.1898 43.2612 61.0947 43.2134C60.9283 43.1176 60.7619 43.0218 60.5954 42.8781H60.5717V42.8542C60.429 42.4232 60.2864 41.9683 60.1437 41.5373V41.5134L60.1675 41.4894C60.2151 41.4176 60.2864 41.3458 60.3815 41.3458C60.4766 41.3458 60.5479 41.3937 60.5954 41.4416C60.7143 41.5613 60.7619 41.657 60.857 41.7768C61.0471 41.9922 61.2373 42.1838 61.4513 42.3753L61.4275 42.3514C61.7366 42.3753 62.0456 42.4232 62.3547 42.4472H62.3309C62.4736 42.3753 62.6162 42.3035 62.7588 42.2317V42.3514C62.6162 42.2796 62.4736 42.2317 62.3309 42.1599C61.8792 41.9683 61.4513 41.7768 61.0471 41.5852C60.7381 41.4176 60.429 41.2261 60.1437 41.0345C60.0724 40.9866 60.0011 40.9387 59.9298 40.8909C59.906 40.8669 59.8585 40.843 59.8347 40.7951C59.8109 40.7711 59.8109 40.7472 59.7871 40.7472C59.7871 40.7233 59.7634 40.6993 59.7634 40.6993C59.7634 40.6754 59.7634 40.6754 59.7634 40.6514C59.7634 40.4838 59.7871 40.3162 59.8109 40.1486L59.8347 40.1965C59.7396 40.0768 59.7158 39.9331 59.7158 39.7895C59.7158 39.6458 59.7634 39.5022 59.8822 39.4064C60.0249 39.3106 60.1675 39.3346 60.2864 39.3585C60.4053 39.3824 60.5241 39.4303 60.643 39.5022C61.1422 39.6937 61.6177 39.8613 62.0932 40.0289C62.3309 40.1007 62.5686 40.1965 62.7826 40.2444C63.0203 40.2683 63.2581 40.2683 63.4958 40.2444L63.472 40.3402C62.4736 39.7416 61.5226 39.1909 60.6905 38.6881L60.6668 38.6641V38.6402C60.6668 38.4965 60.7856 38.4008 60.9045 38.4008C61.0234 38.3768 61.1185 38.3768 61.2136 38.4008C61.4037 38.4487 61.5939 38.4965 61.7841 38.5684C62.1407 38.6881 62.4973 38.8078 62.8064 38.9275C63.1154 39.0472 63.4245 39.143 63.7098 39.2388C63.9951 39.3585 64.2566 39.2627 64.4705 39.1191L64.4468 39.143C64.4468 38.4965 64.4705 37.9937 64.4705 37.6346C64.4705 37.467 64.4705 37.3473 64.4705 37.2515C64.4468 37.1318 64.4705 37.1078 64.4705 37.1078Z" fill="#EB996E"/>
<path d="M63.1424 41.3928C63.1424 41.4168 62.9522 41.3689 62.6194 41.297C62.3103 41.2252 61.8824 41.0816 61.4307 40.914C60.979 40.7463 60.5748 40.5548 60.2895 40.3872C60.0043 40.2435 59.8378 40.1238 59.8616 40.0999C59.8616 40.0759 60.0518 40.1717 60.3371 40.2914C60.6224 40.4351 61.0265 40.6027 61.4782 40.7703C61.9299 40.9379 62.3578 41.0816 62.6431 41.2013C62.976 41.321 63.1661 41.3689 63.1424 41.3928Z" fill="#EB996E"/>
<path d="M63.5451 42.1589C63.5689 42.1826 63.4738 42.2776 63.3311 42.2538C63.1885 42.2538 63.1172 42.1589 63.1172 42.1352C63.141 42.1114 63.2361 42.1352 63.3311 42.1352C63.4262 42.1352 63.5213 42.1352 63.5451 42.1589Z" fill="#EB996E"/>
<path d="M64.0165 41.3209C64.0403 41.3449 63.9927 41.4885 63.8025 41.5364C63.6361 41.5843 63.4935 41.4885 63.5173 41.4646C63.541 41.4406 63.6361 41.4646 63.7788 41.4167C63.8976 41.3688 63.9927 41.297 64.0165 41.3209Z" fill="#EB996E"/>
<path d="M64.5877 40.1722C64.6115 40.1961 64.564 40.3158 64.4213 40.3398C64.2787 40.3877 64.1836 40.3158 64.1836 40.2679C64.2074 40.244 64.2787 40.244 64.3738 40.2201C64.4927 40.1961 64.564 40.1482 64.5877 40.1722Z" fill="#EB996E"/>
<path d="M65.084 38.9742C65.084 38.9982 64.9176 39.07 64.7274 39.1179C64.5372 39.1658 64.3708 39.1897 64.347 39.1658C64.3232 39.1418 64.4896 39.0461 64.7036 38.9982C64.9176 38.9503 65.084 38.9503 65.084 38.9742Z" fill="#EB996E"/>
<path d="M67.2 28.0562C66.8434 27.0746 66.5343 26.045 66.1302 25.1112C66.0588 24.9436 65.8449 24.8718 65.7736 24.7042C65.2505 23.3873 64.8464 21.9747 64.0143 20.8014C63.1822 19.6282 61.7796 18.7423 60.377 19.0536L60.9 21.0409C61.6132 22.1183 63.1585 22.5014 63.6577 23.6746C63.9905 24.4408 63.8003 25.3267 64.0619 26.0929C64.252 26.6196 64.6324 27.0267 64.8464 27.5295C65.1554 28.2238 65.1317 29.0379 65.1079 29.8041C65.0841 30.7379 65.0366 31.6717 65.0128 32.6054C64.989 33.1082 64.989 33.635 65.2981 34.042C65.7498 34.6646 66.8671 34.6885 67.6279 34.6167C67.9607 34.5688 68.3411 34.5927 68.5075 34.5688C68.5075 34.5688 68.1747 32.0069 68.1509 31.8393C67.9369 29.9717 67.8419 29.852 67.2 28.0562Z" fill="#263238"/>
<path d="M69.0293 32.3895C69.0293 32.3895 69.0293 32.3416 69.0293 32.2219C69.0293 32.1022 69.053 31.9346 69.053 31.743C69.0768 31.312 69.1244 30.7135 69.1481 29.9712C69.1719 29.229 69.1481 28.3191 68.9817 27.3375C68.8866 26.8586 68.7678 26.3558 68.5538 25.853C68.3636 25.3502 68.1021 24.8474 67.7693 24.3925C67.4364 23.9375 67.0323 23.5305 66.6044 23.2192C66.1764 22.908 65.701 22.6925 65.2493 22.5249C64.3221 22.1897 63.4425 21.9742 62.7768 21.639C62.0874 21.3038 61.6119 20.9207 61.3504 20.5855C61.0889 20.2503 61.0176 20.0348 61.0176 20.0348C61.0414 20.0348 61.1127 20.2503 61.398 20.5615C61.6595 20.8728 62.1349 21.2559 62.8244 21.5672C63.49 21.9024 64.3697 22.0939 65.2968 22.4291C65.7723 22.5967 66.2478 22.8122 66.6995 23.1474C67.1512 23.4587 67.5553 23.8657 67.8881 24.3446C68.221 24.8234 68.4825 25.3262 68.6727 25.829C68.8629 26.3319 69.0055 26.8586 69.1006 27.3375C69.267 28.3191 69.267 29.229 69.2432 29.9952C69.2195 30.7374 69.1481 31.3599 69.1006 31.767C69.0768 31.9585 69.053 32.1261 69.053 32.2458C69.053 32.3416 69.0293 32.3895 69.0293 32.3895Z" fill="#E0E0E0"/>
<path d="M68.6719 23.1955C68.6481 23.2195 68.3866 22.8124 67.7447 22.4293C67.4356 22.2378 67.0315 22.0462 66.556 21.8786C66.0805 21.711 65.5575 21.5913 65.0107 21.4477C63.8934 21.1603 62.9424 20.7294 62.3006 20.3223C61.9915 20.1308 61.73 19.9392 61.5873 19.7956C61.4209 19.6519 61.3496 19.5562 61.3496 19.5562C61.3496 19.5562 61.4447 19.628 61.6111 19.7477C61.7775 19.8674 62.0153 20.059 62.3481 20.2505C62.99 20.6336 63.9409 21.0406 65.0583 21.3279C65.6051 21.4716 66.1519 21.5913 66.6273 21.7589C67.1028 21.9265 67.507 22.1181 67.816 22.3336C68.1251 22.5491 68.3628 22.7406 68.5055 22.9082C68.5768 22.98 68.6243 23.0519 68.6719 23.0997C68.6719 23.1716 68.6956 23.1955 68.6719 23.1955Z" fill="#E0E0E0"/>
<path d="M67.173 34.4489C67.173 34.4489 66.9591 34.3292 66.6738 34.018C66.3885 33.7067 66.0319 33.1799 65.8893 32.4377C65.8655 32.2462 65.8417 32.0546 65.8417 31.8391C65.8417 31.6236 65.8655 31.4081 65.913 31.1927C65.9844 30.7617 66.127 30.3068 66.2459 29.8279C66.341 29.349 66.3885 28.8223 66.1746 28.3434C65.9606 27.8646 65.5564 27.4815 65.3187 26.9308C65.1047 26.3801 65.1047 25.8054 64.9859 25.3026C64.8908 24.7759 64.6768 24.321 64.3915 23.9139C64.13 23.5069 63.7972 23.1717 63.4881 22.8604C63.1791 22.5492 62.87 22.3097 62.561 22.0942C61.9666 21.6633 61.4674 21.3041 61.2059 20.9689C60.9444 20.6337 60.873 20.4182 60.873 20.4182C60.8968 20.4182 60.9681 20.6337 61.2534 20.945C61.5149 21.2562 62.0142 21.6154 62.6085 22.0464C62.9176 22.2618 63.2504 22.5013 63.5595 22.8125C63.8685 23.1238 64.2013 23.459 64.4866 23.866C64.7719 24.2731 65.0096 24.7519 65.1047 25.3026C65.1998 25.8294 65.1998 26.404 65.4138 26.9068C65.6278 27.4096 66.0557 27.8167 66.2696 28.3195C66.4836 28.8462 66.4361 29.3969 66.341 29.8758C66.2459 30.3546 66.0795 30.8096 66.0081 31.2405C65.9606 31.456 65.9368 31.6715 65.9368 31.8631C65.9368 32.0546 65.9606 32.2462 65.9844 32.4377C66.1032 33.156 66.4361 33.6828 66.6976 33.994C66.9829 34.3053 67.1968 34.4489 67.173 34.4489Z" fill="#E0E0E0"/>
</svg>
