<svg width="104" height="109" viewBox="0 0 104 109" fill="none" xmlns="http://www.w3.org/2000/svg">
<g clip-path="url(#clip0_3274_59612)">
<g clip-path="url(#clip1_3274_59612)">
<path d="M56.7138 92.09C76.6018 85.5184 86.6063 62.4233 79.0593 40.5056C71.5123 18.5879 49.2719 6.14745 29.3838 12.719C9.49575 19.2906 -0.508684 42.3857 7.03828 64.3034C14.5852 86.2211 36.8257 98.6616 56.7138 92.09Z" fill="#F0F8F7"/>
<path d="M84.6099 96.8693C101.051 91.4368 109.321 72.345 103.082 54.2265C96.8432 36.108 78.4579 25.824 62.0172 31.2564C45.5766 36.6889 37.3063 55.7807 43.5451 73.8992C49.7839 92.0177 68.1692 102.302 84.6099 96.8693Z" fill="#F0F8F7"/>
<path d="M81.3057 109.085C90.0202 109.085 97.0847 107.801 97.0847 106.217C97.0847 104.633 90.0202 103.349 81.3057 103.349C72.5911 103.349 65.5266 104.633 65.5266 106.217C65.5266 107.801 72.5911 109.085 81.3057 109.085Z" fill="#DAF3F0"/>
<path d="M68.4297 74.646H2.1989C0.546758 74.646 -0.757568 73.3399 -0.757568 71.7498V30.9479C-0.757568 29.3579 0.546758 28.0518 2.1989 28.0518H68.4587C70.0818 28.0518 71.4151 29.3295 71.4151 30.9479V71.7498C71.3862 73.3399 70.0818 74.646 68.4297 74.646Z" fill="#DAF3F0"/>
<path d="M68.4297 28.0803H2.1989C0.546758 28.0803 -0.757568 29.358 -0.757568 30.9481V33.7875H71.3862V30.9481C71.3862 29.358 70.0818 28.0803 68.4297 28.0803Z" fill="#64C1B3"/>
<path d="M59.4154 32.1689C58.7488 32.1689 58.2271 31.6578 58.2271 31.0047C58.2271 30.3517 58.7488 29.8406 59.4154 29.8406C60.0821 29.8406 60.6038 30.3517 60.6038 31.0047C60.6038 31.6578 60.0821 32.1689 59.4154 32.1689ZM59.4154 30.1245C58.9227 30.1245 58.5169 30.522 58.5169 31.0047C58.5169 31.4874 58.9227 31.8849 59.4154 31.8849C59.9082 31.8849 60.314 31.4874 60.314 31.0047C60.314 30.522 59.9082 30.1245 59.4154 30.1245Z" fill="#00937D"/>
<path d="M63.3285 32.1689C62.6619 32.1689 62.1401 31.6578 62.1401 31.0047C62.1401 30.3517 62.6619 29.8406 63.3285 29.8406C63.9952 29.8406 64.5169 30.3517 64.5169 31.0047C64.5169 31.6578 63.9662 32.1689 63.3285 32.1689ZM63.3285 30.1245C62.8358 30.1245 62.43 30.522 62.43 31.0047C62.43 31.4874 62.8358 31.8849 63.3285 31.8849C63.8213 31.8849 64.2271 31.4874 64.2271 31.0047C64.2271 30.522 63.8213 30.1245 63.3285 30.1245Z" fill="#00937D"/>
<path d="M67.2123 32.1689C66.5457 32.1689 66.0239 31.6578 66.0239 31.0047C66.0239 30.3517 66.5457 29.8406 67.2123 29.8406C67.879 29.8406 68.4007 30.3517 68.4007 31.0047C68.4007 31.6578 67.879 32.1689 67.2123 32.1689ZM67.2123 30.1245C66.7196 30.1245 66.3138 30.522 66.3138 31.0047C66.3138 31.4874 66.7196 31.8849 67.2123 31.8849C67.7051 31.8849 68.1109 31.4874 68.1109 31.0047C68.1109 30.522 67.7051 30.1245 67.2123 30.1245Z" fill="#00937D"/>
<path d="M28.2144 39.5089C27.198 39.5089 26.1816 38.8332 25.3829 38.1931L24.4028 37.4108C23.822 36.913 23.096 36.6641 22.37 36.6641H14.1661C13.4038 36.6641 12.823 37.2686 12.823 37.9798V39.5089V67.6012C12.823 68.5969 13.6216 69.3792 14.638 69.3792H56.0931C57.1095 69.3792 57.9081 68.5969 57.9081 67.6012V41.2869C57.9081 40.2912 57.1095 39.5089 56.0931 39.5089H28.2144Z" fill="white"/>
<path d="M54.7866 43.8436H43.0616C42.4445 43.8436 41.9363 43.3458 41.9363 42.7413C41.9363 42.1368 42.4445 41.6389 43.0616 41.6389H54.7866C55.4037 41.6389 55.9119 42.1368 55.9119 42.7413C55.9119 43.3458 55.4037 43.8436 54.7866 43.8436ZM43.0616 41.9945C42.626 41.9945 42.2993 42.3146 42.2993 42.7413C42.2993 43.168 42.626 43.488 43.0616 43.488H54.7866C55.2222 43.488 55.5489 43.168 55.5489 42.7413C55.5489 42.3146 55.2222 41.9945 54.7866 41.9945H43.0616Z" fill="#DAF3F0"/>
<path d="M98.5356 44.3123C98.5356 44.3123 100.013 47.7388 100.22 48.7287C100.816 51.7744 103.588 60.1248 104.547 61.1909C104.547 61.1909 106.309 61.3685 107.19 60.8863C107.19 60.8863 104.987 47.2058 104.054 45.3529C103.122 43.5001 102.474 40.4797 102.474 40.4797L98.5356 44.3123Z" fill="#FEAB97"/>
<path d="M106.956 60.4041C105.972 59.6173 104.003 60.0742 103.666 61.2671C103.381 62.2316 103.381 62.79 103.355 62.9423C103.303 63.2722 102.111 65.2773 102.319 65.6834C102.474 65.988 103.329 65.0489 103.77 64.389C103.847 64.2621 104.08 64.3129 104.08 64.4651C104.158 65.3535 104.34 67.1556 104.495 67.3586C104.702 67.6632 105.48 68.9069 105.687 68.78C105.92 68.6531 105.661 67.7647 105.454 67.1809C105.246 66.5972 105.506 65.2773 105.506 65.2773C105.506 65.2773 106.516 68.2723 106.956 68.8053C107.604 69.6175 107.811 68.2977 107.811 68.2977C108.2 68.7038 108.563 67.7393 108.511 67.4348C108.382 66.8256 107.423 64.6682 107.578 64.7697C107.76 64.8459 108.822 67.1048 109.314 67.1809C109.807 67.2571 109.573 66.4195 109.288 65.8865C109.003 65.3535 108.278 63.7798 108.278 63.7798C108.278 63.7798 108.019 62.3077 107.112 60.7087L106.956 60.4041Z" fill="#FEAB97"/>
<path d="M97.8362 38.6016L83.9226 38.0432V17.9413L91.2292 16.926L97.8362 38.6016Z" fill="#181524"/>
<path d="M96.0742 31.5709C96.0224 31.5709 95.9706 31.5455 95.9447 31.4694C93.6387 23.1443 90.9182 16.8498 90.8923 16.799C90.8664 16.7229 90.8923 16.6721 90.97 16.6213C91.0477 16.596 91.0996 16.6213 91.1514 16.6975C91.1773 16.7482 93.8978 23.0682 96.2038 31.4186C96.2297 31.4948 96.1779 31.5455 96.1001 31.5709H96.0742Z" fill="#181524"/>
<path d="M66.4336 41.7235C66.4336 41.7235 69.6982 43.1448 77.2898 37.5356L74.0511 34.0076L66.4336 41.7235Z" fill="#FEAB97"/>
<path d="M90.2705 27.5607C90.4 27.5353 91.255 28.3221 91.4105 28.3982C92.8615 29.2612 94.0533 29.3881 95.6856 29.6927C98.8984 30.3018 101.178 35.3273 101.515 36.368C101.904 37.6116 102.578 39.7437 102.966 40.9874C102.966 40.9874 102.319 44.4392 98.2507 44.3631L96.2038 40.099C96.2038 40.099 93.8978 45.226 93.7424 45.6321C93.6128 46.0382 95.1415 51.013 95.1415 51.013C95.1415 51.013 82.9639 55.607 75.8646 53.1196C75.8646 53.1196 78.2743 44.1092 77.6265 43.8301C77.0047 43.5509 75.7351 42.4595 77.2897 37.5101C77.2897 37.5101 74.7246 36.038 74.1028 32.1801C74.1028 32.1801 77.4451 29.1597 79.5438 29.0835C81.6684 29.0328 90.2446 27.5607 90.2705 27.5607Z" fill="url(#paint0_linear_3274_59612)"/>
<path d="M85.1404 31.0126C85.1404 31.0126 86.0213 33.3223 88.7159 32.0025C90.9442 30.9365 91.6697 29.1852 91.851 28.6014C90.9183 28.0938 90.2446 27.5608 90.2446 27.5608C90.2446 27.5608 86.4618 28.1953 83.3008 28.6522C83.1453 29.0075 81.6167 32.2817 85.1404 31.0126Z" fill="white"/>
<path d="M90.0113 23.2712L90.2444 27.5861C90.2444 27.5861 88.1976 30.6318 85.7361 30.3019L85.2698 27.5607L90.0113 23.2712Z" fill="#FEAB97"/>
<path d="M85.8657 73.1455L87.3167 91.1662L87.6276 102.943C87.6276 102.943 90.2704 104.618 91.6436 102.156C91.6436 102.156 94.105 89.9479 93.82 85.7346C93.535 81.5213 94.0273 76.5974 94.0273 76.5974L85.8657 73.1455Z" fill="#FEAB97"/>
<path d="M75.476 101.166C75.476 101.166 67.9881 107.486 68.6618 107.486C69.3354 107.486 72.5223 107.029 74.5951 106.547C76.6679 106.065 77.4711 104.771 77.4711 104.771L77.6266 106.014L79.0516 105.837C79.0516 105.837 80.658 102.486 79.5439 100.633C78.4038 98.7552 75.476 101.166 75.476 101.166Z" fill="black"/>
<path d="M76.5383 105.075L77.6265 106.014L78.1447 104.441L77.2897 104.238L76.5383 105.075Z" fill="black"/>
<path d="M87.6276 101.395C87.6276 101.395 84.8294 109.593 85.7621 109.72C87.5499 109.923 89.7522 107.969 90.4259 106.725C91.0995 105.481 91.0218 103.527 91.0218 103.527L90.3741 104.999H91.6955C91.6955 104.999 92.395 104.339 91.8509 101.116C91.8509 101.116 87.6276 105.177 87.6276 101.395Z" fill="black"/>
<path d="M76.0461 72.5872L75.4761 101.166C75.4761 101.166 78.0671 102.892 79.518 100.633C79.518 100.633 82.4458 89.1357 82.3422 85.1509C82.2385 81.1406 82.9122 76.4705 82.9122 76.4705L76.0461 72.5872Z" fill="#FEAB97"/>
<path d="M77.1084 47.7388C77.1084 47.7388 80.373 53.6272 94.4161 48.551C94.4161 48.551 99.8572 62.4345 95.6339 77.9425C95.6339 77.9425 83.6377 83.4248 72.1855 76.8765C72.1855 76.8511 74.1029 57.6121 77.1084 47.7388Z" fill="#181524"/>
<path d="M77.2897 28.0938C77.2897 28.0938 66.8998 35.2513 66.1225 36.5203C65.3453 37.764 63.7388 40.6067 66.0189 41.6727C68.299 42.7387 77.3156 33.0177 79.492 29.7181L77.2897 28.0938Z" fill="#FEAB97"/>
<path d="M67.9104 41.4442C67.8586 41.4442 67.8327 41.4188 67.8068 41.3681C67.7809 41.3173 67.8068 41.2412 67.8586 41.1904C67.8845 41.165 71.1232 39.4137 74.932 35.175C74.9838 35.1243 75.0615 35.1243 75.1133 35.175C75.1652 35.2258 75.1652 35.3019 75.1133 35.3527C71.2787 39.6421 68.0141 41.4188 67.9882 41.4188C67.9623 41.4442 67.9363 41.4442 67.9104 41.4442Z" fill="#C36252"/>
<path d="M85.3736 45.7591C81.4094 45.7591 77.8338 44.1094 77.782 44.084C77.7302 44.0586 77.6784 43.9824 77.7302 43.9063C77.7561 43.8302 77.8338 43.8048 77.9116 43.8555C77.9893 43.9063 86.4877 47.815 91.6956 43.4494C91.7474 43.3987 91.8251 43.3987 91.8769 43.4748C91.9288 43.5256 91.9288 43.6017 91.851 43.6525C89.9078 45.2515 87.5759 45.7591 85.3736 45.7591Z" fill="#181524"/>
<path d="M96.2038 40.2514C96.152 40.2514 96.1261 40.226 96.1002 40.2006L94.2606 37.3579C94.2347 37.3071 94.2347 37.231 94.3124 37.1802C94.3643 37.1548 94.442 37.1548 94.4938 37.231L96.3334 40.0737C96.3593 40.1244 96.3593 40.2006 96.2816 40.2514C96.2298 40.2514 96.2038 40.2514 96.2038 40.2514Z" fill="#181524"/>
<path d="M77.2896 37.6624C77.2637 37.6624 77.2378 37.6624 77.2378 37.637C77.1859 37.6117 77.16 37.5355 77.1859 37.4594L78.2223 35.4035C78.2482 35.3527 78.326 35.3273 78.4037 35.3527C78.4555 35.3781 78.4814 35.4543 78.4555 35.5304L77.4191 37.5863C77.3673 37.637 77.3414 37.6624 77.2896 37.6624Z" fill="#181524"/>
<path d="M82.8863 25.8347C82.2904 25.784 81.7463 26.3677 81.5131 26.317C81.3317 26.2662 81.0985 25.4286 80.9949 25.0987C81.3317 23.1697 81.0985 21.6722 80.6322 22.0783C80.6063 22.1037 80.5804 22.1544 80.5544 22.2052C80.4767 21.5961 80.3213 21.2915 80.0622 21.4945C79.9844 21.5453 79.9067 21.7737 79.829 21.9768C79.7512 21.393 79.5699 21.1138 79.3367 21.3169C79.233 21.4184 79.0258 22.0022 78.948 22.256C78.8962 22.2052 78.8444 22.1798 78.7408 22.1544C78.4039 22.0529 77.6266 24.8702 77.6007 25.0225C77.5748 25.1748 76.7457 28.3221 76.7457 28.3221C76.4607 29.4642 78.7926 29.9973 79.4662 29.7434C80.1399 29.4896 81.7204 27.8398 81.7204 27.8398C81.7722 27.7637 81.8499 27.6368 81.9536 27.4845C82.1868 27.1038 83.3786 26.1647 83.4045 26.0885C83.4304 26.0124 83.4563 25.8855 82.8863 25.8347Z" fill="#FEAB97"/>
<path d="M83.4303 26.0378C83.4562 25.9617 83.4562 25.8855 82.8862 25.8094C82.2903 25.7586 81.7462 26.3424 81.513 26.2916C81.3316 26.2409 81.0984 25.4033 80.9948 25.0733C81.3316 23.1444 81.0984 21.6469 80.6321 22.053C80.6062 22.0784 80.5802 22.1291 80.5543 22.1799C80.4766 21.5707 80.3212 21.2662 80.0621 21.4692C79.9843 21.52 79.9066 21.7484 79.8289 21.9514C79.803 21.6723 79.7252 21.4692 79.6734 21.3677C79.5957 23.3474 79.8289 26.317 81.6166 27.9414C81.6944 27.8653 81.7462 27.8145 81.7462 27.8145C81.798 27.7384 81.8757 27.6115 81.9794 27.4592C82.2126 27.0785 83.4044 26.114 83.4303 26.0378Z" fill="#C36252"/>
<path d="M89.4933 24.0834L90.0115 23.2712L85.27 27.5353L85.6328 29.6166C87.6019 29.2866 88.5346 26.1901 89.4933 24.0834Z" fill="#C36252"/>
<path d="M80.4507 19.2358C80.4507 19.2358 79.0516 27.0279 83.6635 28.6015C88.2755 30.1751 89.9078 22.7384 89.9078 20.1242C89.9078 17.5099 88.69 16.1393 85.3995 15.8093C80.5285 15.3525 80.4507 19.2358 80.4507 19.2358Z" fill="#FEAB97"/>
<path d="M90.9443 16.2407C90.0116 14.8955 88.6124 14.1595 85.1405 14.2356C82.4977 14.2864 80.8136 16.0123 80.2695 16.926C80.0881 17.2052 79.6217 18.0428 80.5027 18.9311C80.5027 18.9311 80.5286 18.2966 81.1245 17.6113C81.1245 17.6113 86.6433 20.5302 88.8456 20.0987L89.3638 22.1292C89.3638 22.1292 90.1152 21.0885 90.8666 20.7586C90.8666 20.7332 91.8771 17.5605 90.9443 16.2407Z" fill="#181524"/>
<path d="M91.8252 22.6875C91.4625 23.7028 90.5815 24.3373 89.8561 24.1089C89.1306 23.8805 88.8456 22.8398 89.1824 21.8246C89.5452 20.8093 90.4261 20.1748 91.1516 20.4032C91.877 20.6317 92.188 21.6469 91.8252 22.6875Z" fill="#FEAB97"/>
<path d="M85.011 22.586C85.011 22.8652 84.8555 23.0682 84.7001 23.0682C84.5187 23.0682 84.3892 22.8398 84.3892 22.586C84.3892 22.3068 84.5446 22.1038 84.7001 22.1038C84.8555 22.1038 85.011 22.3322 85.011 22.586Z" fill="#282828"/>
<path d="M81.3576 22.586C81.3576 22.8398 81.254 23.0429 81.0985 23.0429C80.9431 23.0429 80.8135 22.8398 80.7876 22.586C80.7876 22.3322 80.8912 22.1292 81.0467 22.1292C81.2281 22.1292 81.3576 22.3322 81.3576 22.586Z" fill="#282828"/>
<path d="M85.9956 20.6824C85.7624 20.6824 85.3997 20.6316 85.1406 20.4032C84.9074 20.2002 84.8037 19.921 84.7778 19.5656C84.7778 19.4895 84.8297 19.4387 84.9074 19.4387C84.9851 19.4387 85.0369 19.4895 85.0369 19.5656C85.0369 19.8448 85.1147 20.0733 85.296 20.2255C85.6329 20.5047 86.1511 20.4286 86.1511 20.4286C86.2288 20.4286 86.2806 20.454 86.3065 20.5301C86.3065 20.6063 86.2806 20.657 86.2029 20.6824C86.2029 20.657 86.1251 20.6824 85.9956 20.6824Z" fill="#282828"/>
<path d="M81.2541 20.9108C81.0469 20.9108 80.8396 20.8347 80.6064 20.657C80.5546 20.6062 80.5287 20.5301 80.5805 20.4793C80.6323 20.4286 80.71 20.4032 80.7619 20.4539C80.995 20.6316 81.2023 20.6824 81.3837 20.6316C81.6946 20.5555 81.8501 20.124 81.8501 20.124C81.876 20.0478 81.9537 20.0225 82.0055 20.0478C82.0833 20.0732 82.1092 20.1494 82.0833 20.2001C82.0833 20.2255 81.876 20.7331 81.4355 20.86C81.3837 20.9108 81.3319 20.9108 81.2541 20.9108Z" fill="#282828"/>
<path d="M84.9333 26.9008C84.9333 26.9008 85.4515 25.2764 86.6693 26.3171L84.9333 26.9008Z" fill="#C36252"/>
<path d="M90.1152 23.2713C90.0375 23.2713 89.9598 23.2713 89.908 23.2459C89.8561 23.2459 89.8302 23.1951 89.8302 23.1697C89.8302 23.1444 89.8302 23.0936 89.8561 23.0428C90.1152 22.7636 89.7266 22.3068 89.7266 22.3068C89.7007 22.2814 89.7007 22.2306 89.7007 22.1799C89.908 21.723 90.1671 21.4438 90.478 21.393C90.8925 21.3169 91.2294 21.6215 91.2294 21.6469C91.2812 21.6976 91.2812 21.7738 91.2294 21.8245C91.1775 21.8753 91.0998 21.8753 91.048 21.8245C91.048 21.8245 90.7889 21.5961 90.5298 21.6469C90.3225 21.6976 90.1412 21.8753 89.9857 22.2052C90.0893 22.3575 90.2966 22.6875 90.1671 23.0174C90.2966 23.0174 90.4521 22.9667 90.5816 22.789C90.6334 22.7383 90.7112 22.7129 90.763 22.7636C90.8148 22.789 90.8407 22.8905 90.7889 22.9413C90.6075 23.2205 90.3225 23.2713 90.1152 23.2713Z" fill="black"/>
<path d="M90.737 22.3068C90.6593 22.3068 90.6075 22.256 90.6075 22.2053C90.6075 22.2053 90.5816 21.9515 90.3225 21.6469C90.2707 21.5961 90.2707 21.52 90.3484 21.4692C90.4002 21.4185 90.478 21.4185 90.5298 21.4946C90.8407 21.8753 90.8925 22.1799 90.8925 22.2053C90.8925 22.256 90.8407 22.3068 90.737 22.3068C90.763 22.3068 90.763 22.3068 90.737 22.3068Z" fill="black"/>
<path d="M82.2645 24.7942C81.9277 24.7688 81.6427 24.5657 81.5649 24.2612C81.4872 23.9566 81.5649 23.7028 81.7463 23.4744C81.7981 23.4236 81.8758 23.4236 81.9277 23.4744C81.9795 23.5251 81.9795 23.6013 81.9277 23.652C81.7981 23.8043 81.7463 23.982 81.7981 24.2104C81.8499 24.3881 82.0313 24.5404 82.2386 24.5404C82.3163 24.5404 82.3681 24.5911 82.3681 24.6673C82.394 24.7434 82.3163 24.7942 82.2645 24.7942Z" fill="#C36252"/>
<path d="M90.426 24.0835C90.426 24.4642 90.1151 24.7688 89.7264 24.7688C89.3378 24.7688 89.0269 24.4642 89.0269 24.0835C89.0269 23.7028 89.3378 23.3982 89.7264 23.3982C90.1151 23.3982 90.426 23.7028 90.426 24.0835Z" fill="white"/>
<path d="M79.3364 29.8705C78.8441 29.8705 78.5332 29.5152 78.4555 29.3121C78.4296 29.236 78.4555 29.1852 78.5073 29.1345C78.585 29.1091 78.6368 29.1345 78.6887 29.1852C78.6887 29.2106 78.9478 29.6675 79.4919 29.5913C79.5696 29.5913 79.6214 29.6167 79.6473 29.6929C79.6732 29.769 79.6214 29.8198 79.5437 29.8451C79.4401 29.8705 79.3882 29.8705 79.3364 29.8705Z" fill="#282828"/>
<path d="M77.9894 28.3983C77.9117 28.3983 77.8599 28.3475 77.8599 28.2967C77.8599 28.2206 77.9117 28.1698 77.9635 28.1445C78.093 28.1191 78.7667 27.6115 78.8703 27.3069C78.9481 27.1038 78.7149 26.0124 78.5076 25.3018V25.2764V25.251C79.2331 22.7382 78.8703 22.3575 78.8703 22.3575C78.8185 22.3321 78.7926 22.256 78.8185 22.1799C78.8444 22.1291 78.9481 22.1037 78.9999 22.1291C79.1294 22.2052 79.5181 22.6367 78.7667 25.2764C78.8703 25.6317 79.259 27.0784 79.1035 27.4084C78.974 27.7891 78.2744 28.3729 77.9894 28.3983Z" fill="#282828"/>
<path d="M79.6474 28.4492C79.5696 28.4492 79.5178 28.3984 79.5178 28.3223C79.5437 27.2309 80.2174 26.4695 80.2433 26.4441C80.2951 26.3933 80.3728 26.3933 80.4247 26.4441C80.4765 26.4948 80.4765 26.571 80.4247 26.6217C80.4247 26.6217 79.7769 27.3578 79.751 28.3477C79.7769 28.3984 79.7251 28.4492 79.6474 28.4492Z" fill="#282828"/>
<path d="M79.6475 25.3779H79.6216C79.5439 25.3525 79.518 25.2763 79.5439 25.2256C79.8807 24.1088 79.7253 22.0275 79.7253 22.0022C79.7253 21.926 79.7771 21.8752 79.8548 21.8752C79.9325 21.8752 79.9844 21.926 79.9844 22.0022C79.9844 22.0783 80.1398 24.1596 79.803 25.3271C79.7771 25.3525 79.7253 25.3779 79.6475 25.3779Z" fill="#282828"/>
<path d="M66.3043 7.16562C70.709 7.29253 74.3622 10.7444 74.5954 15.0592C74.7509 17.5973 73.7404 19.907 72.0563 21.5314C71.7972 21.7598 71.6935 22.1152 71.7454 22.4451L72.3672 26.1254L68.4807 23.8919C68.2475 23.765 67.9884 23.7142 67.7552 23.765C66.7966 23.9426 65.7861 23.9934 64.7497 23.8411C60.8892 23.2573 57.8836 20.1354 57.5468 16.3536C57.0804 11.2774 61.2001 7.03871 66.3043 7.16562Z" fill="#00937D"/>
<path d="M65.1501 19.4708L65.1773 19.5108L65.2119 19.5447C65.293 19.6241 65.3914 19.6926 65.5152 19.7359C65.632 19.7768 65.7443 19.7855 65.8381 19.7855C65.9649 19.7855 66.0954 19.7554 66.2113 19.6943C66.3029 19.646 66.4183 19.5595 66.4927 19.4205C66.5392 19.3539 66.5827 19.2769 66.6138 19.1854C66.6526 19.0714 66.6624 18.9636 66.6624 18.8665C66.6624 18.6777 66.6243 18.47 66.5002 18.2877L66.473 18.2476L66.4384 18.2137C66.3573 18.1343 66.2589 18.0658 66.1351 18.0225C66.0183 17.9816 65.906 17.9729 65.8122 17.9729C65.5206 17.9729 65.3259 18.1274 65.2119 18.2391C65.0006 18.4461 64.962 18.7033 64.962 18.8919C64.962 19.1571 65.0715 19.3553 65.1501 19.4708ZM65.2729 16.4045V16.892H65.7604H65.9677H66.4552V16.4045C66.4552 16.3062 66.4607 16.2 66.4673 16.0739L66.4675 16.0715C66.4735 15.9564 66.4802 15.8262 66.481 15.6933C66.507 15.4231 66.507 15.1573 66.507 14.9175L66.507 14.907V14.9055V14.9041V14.9026V14.9011V14.8996V14.8981V14.8966V14.8951V14.8937V14.8922V14.8907V14.8892V14.8877V14.8862V14.8847V14.8832V14.8818V14.8803V14.8788V14.8773V14.8758V14.8743V14.8728V14.8713V14.8699V14.8684V14.8669V14.8654V14.8639V14.8624V14.8609V14.8594V14.858V14.8565V14.855V14.8535V14.852V14.8505V14.849V14.8475V14.8461V14.8446V14.8431V14.8416V14.8401V14.8386V14.8371V14.8356V14.8342V14.8327V14.8312V14.8297V14.8282V14.8267V14.8252V14.8238V14.8223V14.8208V14.8193V14.8178V14.8163V14.8148V14.8133V14.8119V14.8104V14.8089V14.8074V14.8059V14.8044V14.8029V14.8014V14.8V14.7985V14.797V14.7955V14.794V14.7925V14.791V14.7895V14.7881V14.7866V14.7851V14.7836V14.7821V14.7806V14.7791V14.7776V14.7762V14.7747V14.7732V14.7717V14.7702V14.7687V14.7672V14.7658V14.7643V14.7628V14.7613V14.7598V14.7583V14.7568V14.7553V14.7539V14.7524V14.7509V14.7494V14.7479V14.7464V14.7449V14.7434V14.742V14.7405V14.739V14.7375V14.736V14.7345V14.733V14.7315V14.7301V14.7286V14.7271V14.7256V14.7241V14.7226V14.7211V14.7196V14.7182V14.7167V14.7152V14.7137V14.7122V14.7107V14.7092V14.7078V14.7063V14.7048V14.7033V14.7018V14.7003V14.6988V14.6973V14.6959V14.6944V14.6929V14.6914V14.6899V14.6884V14.6869V14.6854V14.684V14.6825V14.681V14.6795V14.678V14.6765V14.675V14.6735V14.6721V14.6706V14.6691V14.6676V14.6661V14.6646V14.6631V14.6616V14.6602V14.6587V14.6572V14.6557V14.6542V14.6527V14.6512V14.6498V14.6483V14.6468V14.6453V14.6438V14.6423V14.6408V14.6393V14.6379V14.6364V14.6349V14.6334V14.6319V14.6304V14.6289V14.6274V14.626V14.6245V14.623V14.6215V14.62V14.6185V14.617V14.6155V14.6141V14.6126V14.6111V14.6096V14.6081V14.6066V14.6051V14.6036V14.6022V14.6007V14.5992V14.5977V14.5962V14.5947V14.5932V14.5918V14.5903V14.5888V14.5873V14.5858V14.5843V14.5828V14.5813V14.5799V14.5784V14.5769V14.5754V14.5739V14.5724V14.5709V14.5694V14.568V14.5665V14.565V14.5635V14.562V14.5605V14.559V14.5575V14.5561V14.5546V14.5531V14.5516V14.5501V14.5486V14.5471V14.5456V14.5442V14.5427V14.5412V14.5397V14.5382V14.5367V14.5352V14.5338V14.5323V14.5308V14.5293V14.5278V14.5263V14.5248V14.5233V14.5219V14.5204V14.5189V14.5174V14.5159V14.5144V14.5129V14.5114V14.51V14.5085V14.507V14.5055V14.504V14.5025V14.501V14.4995V14.4981V14.4966V14.4951V14.4936V14.4921V14.4906V14.4891V14.4876V14.4862V14.4847V14.4832V14.4817V14.4802V14.4787V14.4772V14.4758V14.4743V14.4728V14.4713V14.4698V14.4683V14.4668V14.4653V14.4639V14.4624V14.4609V14.4594V14.4579V14.4564V14.4549V14.4534V14.452V14.4505V14.449V14.4475V14.446V14.4445V14.443V14.4415V14.4401V14.4386V14.4371V14.4356V14.4341V14.4326V14.4311V14.4296V14.4282V14.4267V14.4252V14.4237V14.4222V14.4207V14.4192V14.4178V14.4163V14.4148V14.4133V14.4118V14.4103V14.4088V14.4073V14.4059V14.4044V14.4029V14.4014V14.3999V14.3984V14.3969V14.3954V14.394V14.3925V14.391V14.3895V14.388V14.3865V14.385V14.3835V14.3821V14.3806V14.3791V14.3776V14.3761V14.3746V14.3731V14.3716V14.3702V14.3687V14.3672V14.3657V14.3642V14.3627V14.3612V14.3598V14.3583V14.3568V14.3553V14.3538V14.3523V14.3508V14.3493V14.3479V14.3464V14.3449V14.3434V14.3419V14.3404V14.3389V14.3374V14.336V14.3345V14.333V14.3315V14.33V14.3285V14.327V14.3255V14.3241V14.3226V14.3211V14.3196V14.3181V14.3166V14.3151V14.3136V14.3122V14.3107V14.3092V14.3077V14.3062V14.3047V14.3032V14.3018V14.3003V14.2988V14.2973V14.2958V14.2943V14.2928V14.2913V14.2899V14.2884V14.2869V14.2854V14.2839V14.2824V14.2809V14.2794V14.278V14.2765V14.275V14.2735V14.272V14.2705V14.269V14.2675V14.2661V14.2646V14.2631V14.2616V14.2601V14.2586V14.2571V14.2556V14.2542V14.2527V14.2512V14.2497V14.2482V14.2467V14.2452V14.2438V14.2423V14.2408V14.2393V14.2378V14.2363V14.2348V14.2333V14.2319V14.2304V14.2289V14.2274V14.2259V14.2244V14.2229V14.2214V14.22V14.2185V14.217V14.2155V14.214V14.2125V14.211V14.2095V14.2081V14.2066V14.2051V14.2036V14.2021V14.2006V14.1991V14.1976V14.1962V14.1947V14.1932V14.1917V14.1902V14.1887V14.1872V14.1858V14.1843V14.1828V14.1813V14.1798V14.1783V14.1768V14.1753V14.1739V14.1724V14.1709V14.1694V14.1679V14.1664V14.1649V14.1634V14.162V14.1605V14.159V14.1575V14.156V14.1545V14.153V14.1515V14.1501V14.1486V14.1471V14.1456H66.507L66.507 14.1415L66.4811 11.0703L66.477 10.587H65.9936H65.7086H65.2211V11.0745V14.1456V14.1471V14.1486V14.1501V14.1515V14.153V14.1545V14.156V14.1575V14.159V14.1605V14.162V14.1634V14.1649V14.1664V14.1679V14.1694V14.1709V14.1724V14.1739V14.1753V14.1768V14.1783V14.1798V14.1813V14.1828V14.1843V14.1858V14.1872V14.1887V14.1902V14.1917V14.1932V14.1947V14.1962V14.1976V14.1991V14.2006V14.2021V14.2036V14.2051V14.2066V14.2081V14.2095V14.211V14.2125V14.214V14.2155V14.217V14.2185V14.22V14.2214V14.2229V14.2244V14.2259V14.2274V14.2289V14.2304V14.2319V14.2333V14.2348V14.2363V14.2378V14.2393V14.2408V14.2423V14.2438V14.2452V14.2467V14.2482V14.2497V14.2512V14.2527V14.2542V14.2556V14.2571V14.2586V14.2601V14.2616V14.2631V14.2646V14.2661V14.2675V14.269V14.2705V14.272V14.2735V14.275V14.2765V14.278V14.2794V14.2809V14.2824V14.2839V14.2854V14.2869V14.2884V14.2899V14.2913V14.2928V14.2943V14.2958V14.2973V14.2988V14.3003V14.3018V14.3032V14.3047V14.3062V14.3077V14.3092V14.3107V14.3122V14.3136V14.3151V14.3166V14.3181V14.3196V14.3211V14.3226V14.3241V14.3255V14.327V14.3285V14.33V14.3315V14.333V14.3345V14.336V14.3374V14.3389V14.3404V14.3419V14.3434V14.3449V14.3464V14.3479V14.3493V14.3508V14.3523V14.3538V14.3553V14.3568V14.3583V14.3598V14.3612V14.3627V14.3642V14.3657V14.3672V14.3687V14.3702V14.3716V14.3731V14.3746V14.3761V14.3776V14.3791V14.3806V14.3821V14.3835V14.385V14.3865V14.388V14.3895V14.391V14.3925V14.394V14.3954V14.3969V14.3984V14.3999V14.4014V14.4029V14.4044V14.4059V14.4073V14.4088V14.4103V14.4118V14.4133V14.4148V14.4163V14.4178V14.4192V14.4207V14.4222V14.4237V14.4252V14.4267V14.4282V14.4296V14.4311V14.4326V14.4341V14.4356V14.4371V14.4386V14.4401V14.4415V14.443V14.4445V14.446V14.4475V14.449V14.4505V14.452V14.4534V14.4549V14.4564V14.4579V14.4594V14.4609V14.4624V14.4639V14.4653V14.4668V14.4683V14.4698V14.4713V14.4728V14.4743V14.4758V14.4772V14.4787V14.4802V14.4817V14.4832V14.4847V14.4862V14.4876V14.4891V14.4906V14.4921V14.4936V14.4951V14.4966V14.4981V14.4995V14.501V14.5025V14.504V14.5055V14.507V14.5085V14.51V14.5114V14.5129V14.5144V14.5159V14.5174V14.5189V14.5204V14.5219V14.5233V14.5248V14.5263V14.5278V14.5293V14.5308V14.5323V14.5338V14.5352V14.5367V14.5382V14.5397V14.5412V14.5427V14.5442V14.5456V14.5471V14.5486V14.5501V14.5516V14.5531V14.5546V14.5561V14.5575V14.559V14.5605V14.562V14.5635V14.565V14.5665V14.568V14.5694V14.5709V14.5724V14.5739V14.5754V14.5769V14.5784V14.5799V14.5813V14.5828V14.5843V14.5858V14.5873V14.5888V14.5903V14.5918V14.5932V14.5947V14.5962V14.5977V14.5992V14.6007V14.6022V14.6036V14.6051V14.6066V14.6081V14.6096V14.6111V14.6126V14.6141V14.6155V14.617V14.6185V14.62V14.6215V14.623V14.6245V14.626V14.6274V14.6289V14.6304V14.6319V14.6334V14.6349V14.6364V14.6379V14.6393V14.6408V14.6423V14.6438V14.6453V14.6468V14.6483V14.6498V14.6512V14.6527V14.6542V14.6557V14.6572V14.6587V14.6602V14.6616V14.6631V14.6646V14.6661V14.6676V14.6691V14.6706V14.6721V14.6735V14.675V14.6765V14.678V14.6795V14.681V14.6825V14.684V14.6854V14.6869V14.6884V14.6899V14.6914V14.6929V14.6944V14.6959V14.6973V14.6988V14.7003V14.7018V14.7033V14.7048V14.7063V14.7078V14.7092V14.7107V14.7122V14.7137V14.7152V14.7167V14.7182V14.7196V14.7211V14.7226V14.7241V14.7256V14.7271V14.7286V14.7301V14.7315V14.733V14.7345V14.736V14.7375V14.739V14.7405V14.742V14.7434V14.7449V14.7464V14.7479V14.7494V14.7509V14.7524V14.7539V14.7553V14.7568V14.7583V14.7598V14.7613V14.7628V14.7643V14.7658V14.7672V14.7687V14.7702V14.7717V14.7732V14.7747V14.7762V14.7776V14.7791V14.7806V14.7821V14.7836V14.7851V14.7866V14.7881V14.7895V14.791V14.7925V14.794V14.7955V14.797V14.7985V14.8V14.8014V14.8029V14.8044V14.8059V14.8074V14.8089V14.8104V14.8119V14.8133V14.8148V14.8163V14.8178V14.8193V14.8208V14.8223V14.8238V14.8252V14.8267V14.8282V14.8297V14.8312V14.8327V14.8342V14.8356V14.8371V14.8386V14.8401V14.8416V14.8431V14.8446V14.8461V14.8475V14.849V14.8505V14.852V14.8535V14.855V14.8565V14.858V14.8594V14.8609V14.8624V14.8639V14.8654V14.8669V14.8684V14.8699V14.8713V14.8728V14.8743V14.8758V14.8773V14.8788V14.8803V14.8818V14.8832V14.8847V14.8862V14.8877V14.8892V14.8907V14.8922V14.8937V14.8951V14.8966V14.8981V14.8996V14.9011V14.9026V14.9041V14.9055V14.907C65.2211 15.0464 65.2281 15.1838 65.2344 15.3073L65.2346 15.3126C65.2412 15.4416 65.247 15.5561 65.247 15.6685C65.247 15.81 65.2542 15.9492 65.2606 16.0715L65.2607 16.0739C65.2673 16.2 65.2729 16.3062 65.2729 16.4045Z" fill="white" stroke="white" stroke-width="0.975018"/>
<path d="M17.8888 55.2V50.3H18.8338L21.2138 53.345V50.3H22.2638V55.2H21.3188L18.9388 52.155V55.2H17.8888ZM24.9566 54.395C25.4466 54.395 25.8316 54.01 25.8316 53.485C25.8316 52.96 25.4466 52.575 24.9566 52.575C24.4666 52.575 24.0816 52.96 24.0816 53.485C24.0816 54.01 24.4666 54.395 24.9566 54.395ZM23.1366 53.485C23.1366 52.505 23.9416 51.7 24.9566 51.7C25.9716 51.7 26.7766 52.505 26.7766 53.485C26.7766 54.465 25.9716 55.27 24.9566 55.27C23.9416 55.27 23.1366 54.465 23.1366 53.485ZM29.1202 55.2V50.3H30.9052C32.4102 50.3 33.4952 51.385 33.4952 52.75C33.4952 54.115 32.4102 55.2 30.9052 55.2H29.1202ZM30.1702 54.22H30.9052C31.7802 54.22 32.4102 53.59 32.4102 52.75C32.4102 51.91 31.7802 51.28 30.9052 51.28H30.1702V54.22ZM36.8536 54.045L37.3436 54.71C37.2386 54.815 37.1126 54.906 36.9656 54.99C36.7136 55.13 36.3496 55.27 35.8736 55.27C34.8586 55.27 34.0536 54.465 34.0536 53.485C34.0536 52.505 34.8586 51.7 35.8386 51.7C36.7836 51.7 37.5536 52.47 37.5536 53.415C37.5536 53.548 37.5396 53.639 37.5326 53.716L37.5186 53.835H35.0336C35.1386 54.15 35.4186 54.43 35.9436 54.43C36.2446 54.43 36.4616 54.346 36.6226 54.241C36.7136 54.185 36.7906 54.122 36.8536 54.045ZM35.0336 53.135H36.5736C36.4686 52.82 36.1956 52.54 35.8036 52.54C35.4116 52.54 35.1386 52.82 35.0336 53.135ZM39.0608 55.2L37.7658 51.77H38.7808L39.5718 54.08H39.5998L40.3908 51.77H41.4058L40.1108 55.2H39.0608ZM41.8241 55.2V51.77H42.7691V55.2H41.8241ZM41.7541 50.79C41.7541 50.51 41.9991 50.265 42.3001 50.265C42.6011 50.265 42.8391 50.51 42.8391 50.79C42.8391 51.07 42.5941 51.315 42.2931 51.315C41.9921 51.315 41.7541 51.07 41.7541 50.79ZM46.1267 53.975L46.7217 54.57C46.6307 54.703 46.5117 54.815 46.3717 54.92C46.1267 55.095 45.7837 55.27 45.2867 55.27C44.2717 55.27 43.4667 54.465 43.4667 53.485C43.4667 52.505 44.2717 51.7 45.2867 51.7C45.7837 51.7 46.1267 51.875 46.3717 52.05C46.5117 52.155 46.6307 52.267 46.7217 52.4L46.1267 52.995C46.0637 52.918 45.9867 52.848 45.9027 52.785C45.7557 52.68 45.5457 52.575 45.2867 52.575C44.7967 52.575 44.4117 52.96 44.4117 53.485C44.4117 54.01 44.7967 54.395 45.2867 54.395C45.5457 54.395 45.7557 54.29 45.9027 54.185C45.9867 54.122 46.0637 54.052 46.1267 53.975ZM49.835 54.045L50.325 54.71C50.22 54.815 50.094 54.906 49.947 54.99C49.695 55.13 49.331 55.27 48.855 55.27C47.84 55.27 47.035 54.465 47.035 53.485C47.035 52.505 47.84 51.7 48.82 51.7C49.765 51.7 50.535 52.47 50.535 53.415C50.535 53.548 50.521 53.639 50.514 53.716L50.5 53.835H48.015C48.12 54.15 48.4 54.43 48.925 54.43C49.226 54.43 49.443 54.346 49.604 54.241C49.695 54.185 49.772 54.122 49.835 54.045ZM48.015 53.135H49.555C49.45 52.82 49.177 52.54 48.785 52.54C48.393 52.54 48.12 52.82 48.015 53.135ZM50.8872 54.64L51.4472 54.045C51.5172 54.122 51.6012 54.185 51.6922 54.241C51.8532 54.346 52.0772 54.43 52.3572 54.43C52.6722 54.43 52.7772 54.325 52.7772 54.185C52.7772 53.8 51.0272 53.87 51.0272 52.75C51.0272 52.19 51.5172 51.7 52.3922 51.7C52.8332 51.7 53.1622 51.833 53.3862 51.966C53.5192 52.043 53.6312 52.134 53.7222 52.225L53.1622 52.82C53.1062 52.771 53.0362 52.722 52.9592 52.68C52.8262 52.603 52.6372 52.54 52.3922 52.54C52.1472 52.54 52.0422 52.645 52.0422 52.75C52.0422 53.135 53.7922 53.065 53.7922 54.185C53.7922 54.773 53.3022 55.27 52.3572 55.27C51.8812 55.27 51.5172 55.116 51.2652 54.955C51.1182 54.864 50.9922 54.759 50.8872 54.64ZM27.1408 61.135H28.3308L27.7498 59.525H27.7218L27.1408 61.135ZM25.2508 63.2L27.1408 58.3H28.3308L30.2208 63.2H29.1008L28.6808 62.08H26.7908L26.3708 63.2H25.2508ZM33.1589 63.2V62.71H33.1239C33.0539 62.815 32.9629 62.906 32.8579 62.99C32.6689 63.13 32.4029 63.27 32.0389 63.27C31.2269 63.27 30.4989 62.535 30.4989 61.485C30.4989 60.442 31.2269 59.7 32.0389 59.7C32.4029 59.7 32.6689 59.84 32.8579 59.98C32.9629 60.064 33.0539 60.155 33.1239 60.26H33.1589V58.3H34.1039V63.2H33.1589ZM32.3189 62.395C32.8089 62.395 33.1939 62.01 33.1939 61.485C33.1939 60.96 32.8089 60.575 32.3189 60.575C31.8289 60.575 31.4439 60.96 31.4439 61.485C31.4439 62.01 31.8289 62.395 32.3189 62.395ZM37.4997 63.2V62.71H37.4647C37.3947 62.815 37.3037 62.906 37.1987 62.99C37.0097 63.13 36.7437 63.27 36.3797 63.27C35.5677 63.27 34.8397 62.535 34.8397 61.485C34.8397 60.442 35.5677 59.7 36.3797 59.7C36.7437 59.7 37.0097 59.84 37.1987 59.98C37.3037 60.064 37.3947 60.155 37.4647 60.26H37.4997V58.3H38.4447V63.2H37.4997ZM36.6597 62.395C37.1497 62.395 37.5347 62.01 37.5347 61.485C37.5347 60.96 37.1497 60.575 36.6597 60.575C36.1697 60.575 35.7847 60.96 35.7847 61.485C35.7847 62.01 36.1697 62.395 36.6597 62.395ZM41.9805 62.045L42.4705 62.71C42.3655 62.815 42.2395 62.906 42.0925 62.99C41.8405 63.13 41.4765 63.27 41.0005 63.27C39.9855 63.27 39.1805 62.465 39.1805 61.485C39.1805 60.505 39.9855 59.7 40.9655 59.7C41.9105 59.7 42.6805 60.47 42.6805 61.415C42.6805 61.548 42.6665 61.639 42.6595 61.716L42.6455 61.835H40.1605C40.2655 62.15 40.5455 62.43 41.0705 62.43C41.3715 62.43 41.5885 62.346 41.7495 62.241C41.8405 62.185 41.9175 62.122 41.9805 62.045ZM40.1605 61.135H41.7005C41.5955 60.82 41.3225 60.54 40.9305 60.54C40.5385 60.54 40.2655 60.82 40.1605 61.135ZM45.8327 63.2V62.71H45.7977C45.7277 62.815 45.6367 62.906 45.5317 62.99C45.3427 63.13 45.0767 63.27 44.7127 63.27C43.9007 63.27 43.1727 62.535 43.1727 61.485C43.1727 60.442 43.9007 59.7 44.7127 59.7C45.0767 59.7 45.3427 59.84 45.5317 59.98C45.6367 60.064 45.7277 60.155 45.7977 60.26H45.8327V58.3H46.7777V63.2H45.8327ZM44.9927 62.395C45.4827 62.395 45.8677 62.01 45.8677 61.485C45.8677 60.96 45.4827 60.575 44.9927 60.575C44.5027 60.575 44.1177 60.96 44.1177 61.485C44.1177 62.01 44.5027 62.395 44.9927 62.395Z" fill="#00937D"/>
<g clip-path="url(#clip2_3274_59612)">
<path d="M30.7719 108.028C30.7719 109.117 28.2797 109.997 25.2038 109.997C22.1279 109.997 19.6357 109.115 19.6357 108.028C19.6357 106.941 22.1279 106.055 25.2038 106.055C28.2797 106.055 30.7719 106.938 30.7719 108.028Z" fill="#DAF3F0"/>
<path d="M25.0799 78.7131C25.0799 78.7131 23.3946 78.8728 23.9701 74.438C24.5126 70.2246 26.6027 67.1513 26.7597 67.1401C26.7597 67.1401 29.7612 71.5217 27.8804 75.3233C25.9996 79.1221 25.0799 78.7131 25.0799 78.7131Z" fill="#64C1B3"/>
<path d="M38.8622 72.3005C38.8622 72.3005 35.0043 77.0042 25.6168 80.3156C25.6168 80.3156 25.5589 79.0605 28.8056 76.0265C32.0523 72.9925 39.3111 70.8577 38.8622 72.2977V72.3005Z" fill="#64C1B3"/>
<path d="M38.8622 72.3005C38.8622 72.3005 31.5069 73.4744 25.6167 80.3156C25.6167 80.3156 25.0384 81.0636 24.9668 82.6744" stroke="#585858" stroke-width="0.5" stroke-miterlimit="10" stroke-linecap="round"/>
<path d="M11.1845 81.4025C11.1845 81.4025 15.0424 86.1062 24.4299 89.4175C24.4299 89.4175 24.4878 88.1625 21.2411 85.1285C17.9944 82.0972 10.7356 79.9625 11.1845 81.4025Z" fill="#64C1B3"/>
<path d="M11.1843 81.4026C11.1843 81.4026 18.5396 82.5764 24.4298 89.4176C24.4298 89.4176 25.0081 90.1656 25.0797 91.7765" stroke="#585858" stroke-width="0.5" stroke-miterlimit="10" stroke-linecap="round"/>
<path d="M16.3946 91.0312C16.3946 91.0312 18.9611 93.166 24.5264 91.4571C24.5264 91.4571 24.4548 90.3645 22.373 89.3531C20.2912 88.3418 16.0229 90.0255 16.3946 91.0312Z" fill="#64C1B3"/>
<path d="M16.3945 91.0313C16.3945 91.0313 20.638 88.4876 24.5263 91.4571C24.5263 91.4571 24.9146 91.8129 25.0881 93.1436" stroke="#585858" stroke-width="0.5" stroke-miterlimit="10" stroke-linecap="round"/>
<path d="M37.8708 79.8114C37.8708 79.8114 35.1749 87.1905 25.7874 90.5046C25.7874 90.5046 25.4652 86.3388 28.7091 83.3048C31.9558 80.2708 38.3169 78.3714 37.8681 79.8114H37.8708Z" fill="#64C1B3"/>
<path d="M37.8708 79.8113C37.8708 79.8113 31.0195 81.3017 25.7874 90.5046C25.7874 90.5046 25.1871 91.6111 25.1155 93.2192" stroke="#585858" stroke-width="0.5" stroke-miterlimit="10" stroke-linecap="round"/>
<path d="M23.4744 80.9738C23.4744 80.9738 22.684 82.2793 19.5751 81.8731C16.4633 81.4669 13.101 77.7045 11.0027 78.3881C11.0027 78.3881 16.1687 76.5055 23.4771 80.9738H23.4744Z" fill="#64C1B3"/>
<path d="M25.6388 98.895C24.8677 92.3451 24.54 84.4645 25.4433 75.9564C25.4433 75.9564 25.5617 73.6984 26.7595 67.1401" stroke="#585858" stroke-width="0.5" stroke-miterlimit="10" stroke-linecap="round"/>
<path d="M11.6416 78.2171C11.6416 78.2171 16.8627 76.9285 23.4717 80.9738C25.0716 81.9543 25 83.8005 24.8981 85.2405" stroke="#585858" stroke-width="0.5" stroke-miterlimit="10" stroke-linecap="round"/>
<path d="M19.1069 96.186L20.9189 107.526C20.9189 108.221 22.852 108.784 25.234 108.784C27.616 108.784 29.5491 108.221 29.5491 107.526L31.3611 96.186H19.1069Z" fill="#64C1B3"/>
<path d="M25.2339 97.4437C28.6163 97.4437 31.3582 96.8805 31.3582 96.1858C31.3582 95.4911 28.6163 94.928 25.2339 94.928C21.8516 94.928 19.1096 95.4911 19.1096 96.1858C19.1096 96.8805 21.8516 97.4437 25.2339 97.4437Z" fill="#339A8B"/>
</g>
</g>
</g>
<defs>
<linearGradient id="paint0_linear_3274_59612" x1="88.5327" y1="27.1859" x2="88.5342" y2="57.9377" gradientUnits="userSpaceOnUse">
<stop stop-color="#00937D"/>
<stop offset="0.9939" stop-color="#81CEC3"/>
</linearGradient>
<clipPath id="clip0_3274_59612">
<rect width="104" height="109" fill="white" transform="matrix(-1 0 0 1 104 0)"/>
</clipPath>
<clipPath id="clip1_3274_59612">
<rect width="114" height="103" fill="white" transform="translate(-4 7)"/>
</clipPath>
<clipPath id="clip2_3274_59612">
<rect width="28" height="43" fill="white" transform="translate(11 67)"/>
</clipPath>
</defs>
</svg>
