<svg width="139" height="129" viewBox="0 0 139 129" fill="none" xmlns="http://www.w3.org/2000/svg">
<g clip-path="url(#clip0_3274_63258)">
<path d="M74.9747 111.081C98.5158 103.14 110.358 75.2336 101.425 48.75C92.4914 22.2663 66.1659 7.23416 42.6248 15.1748C19.0838 23.1154 7.24177 51.0218 16.1749 77.5054C25.1081 103.989 51.4337 119.021 74.9747 111.081Z" fill="#F0F8F7"/>
<path d="M104.013 127.861C114.638 127.861 123.252 126.263 123.252 124.292C123.252 122.32 114.638 120.722 104.013 120.722C93.3872 120.722 84.7734 122.32 84.7734 124.292C84.7734 126.263 93.3872 127.861 104.013 127.861Z" fill="#DAF3F0"/>
<path d="M88.313 84.9952H7.55795C5.54349 84.9952 3.95312 83.3695 3.95312 81.3904V30.6048C3.95312 28.6257 5.54349 27 7.55795 27H88.3484C90.3275 27 91.9532 28.5904 91.9532 30.6048V81.3904C91.9178 83.3695 90.3275 84.9952 88.313 84.9952Z" fill="#DAF3F0"/>
<path d="M88.313 27.0356H7.55795C5.54349 27.0356 3.95312 28.626 3.95312 30.6051V34.1393H91.9178V30.6051C91.9178 28.626 90.3275 27.0356 88.313 27.0356Z" fill="#64C1B3"/>
<path d="M77.322 32.1246C76.5092 32.1246 75.873 31.4884 75.873 30.6756C75.873 29.8627 76.5092 29.2266 77.322 29.2266C78.1349 29.2266 78.771 29.8627 78.771 30.6756C78.771 31.4884 78.1349 32.1246 77.322 32.1246ZM77.322 29.58C76.7212 29.58 76.2265 30.0748 76.2265 30.6756C76.2265 31.2764 76.7212 31.7711 77.322 31.7711C77.9228 31.7711 78.4176 31.2764 78.4176 30.6756C78.4176 30.0748 77.9228 29.58 77.322 29.58Z" fill="#00937D"/>
<path d="M82.0935 32.1246C81.2807 32.1246 80.6445 31.4884 80.6445 30.6756C80.6445 29.8627 81.2807 29.2266 82.0935 29.2266C82.9064 29.2266 83.5425 29.8627 83.5425 30.6756C83.5425 31.4884 82.871 32.1246 82.0935 32.1246ZM82.0935 29.58C81.4927 29.58 80.9979 30.0748 80.9979 30.6756C80.9979 31.2764 81.4927 31.7711 82.0935 31.7711C82.6943 31.7711 83.1891 31.2764 83.1891 30.6756C83.1891 30.0748 82.6943 29.58 82.0935 29.58Z" fill="#00937D"/>
<path d="M86.8289 32.1246C86.016 32.1246 85.3799 31.4884 85.3799 30.6756C85.3799 29.8627 86.016 29.2266 86.8289 29.2266C87.6417 29.2266 88.2779 29.8627 88.2779 30.6756C88.2779 31.4884 87.6417 32.1246 86.8289 32.1246ZM86.8289 29.58C86.2281 29.58 85.7333 30.0748 85.7333 30.6756C85.7333 31.2764 86.2281 31.7711 86.8289 31.7711C87.4297 31.7711 87.9245 31.2764 87.9245 30.6756C87.9245 30.0748 87.4297 29.58 86.8289 29.58Z" fill="#00937D"/>
<path d="M39.5001 41.3873C38.2608 41.3873 37.0215 40.5464 36.0477 39.7497L34.8527 38.7759C34.1445 38.1563 33.2593 37.8464 32.3741 37.8464H22.3711C21.4416 37.8464 20.7334 38.5989 20.7334 39.4841V41.3873V76.3535C20.7334 77.5929 21.7071 78.5666 22.9464 78.5666H73.4926C74.7319 78.5666 75.7056 77.5929 75.7056 76.3535V43.6004C75.7056 42.3611 74.7319 41.3873 73.4926 41.3873H39.5001Z" fill="white"/>
<path d="M71.6782 46.656H57.3819C56.6294 46.656 56.0098 46.0364 56.0098 45.284C56.0098 44.5315 56.6294 43.9119 57.3819 43.9119H71.6782C72.4306 43.9119 73.0503 44.5315 73.0503 45.284C73.0503 46.0364 72.4306 46.656 71.6782 46.656ZM57.3819 44.3545C56.8507 44.3545 56.4524 44.7528 56.4524 45.284C56.4524 45.8151 56.8507 46.2134 57.3819 46.2134H71.6782C72.2093 46.2134 72.6077 45.8151 72.6077 45.284C72.6077 44.7528 72.2093 44.3545 71.6782 44.3545H57.3819Z" fill="#DAF3F0"/>
<path d="M125.022 47.2393C125.022 47.2393 126.823 51.5042 127.076 52.7363C127.803 56.5273 131.183 66.921 132.352 68.2479C132.352 68.2479 134.5 68.469 135.574 67.8688C135.574 67.8688 132.889 50.8408 131.752 48.5346C130.614 46.2284 129.824 42.469 129.824 42.469L125.022 47.2393Z" fill="#FEAB97"/>
<path d="M135.289 67.2684C134.088 66.2891 131.687 66.8577 131.277 68.3425C130.929 69.543 130.929 70.238 130.898 70.4276C130.834 70.8383 129.381 73.334 129.634 73.8395C129.824 74.2186 130.866 73.0497 131.403 72.2283C131.498 72.0704 131.782 72.1335 131.782 72.3231C131.877 73.4288 132.098 75.6718 132.288 75.9245C132.54 76.3036 133.488 77.8516 133.741 77.6937C134.025 77.5357 133.709 76.43 133.457 75.7034C133.204 74.9768 133.52 73.334 133.52 73.334C133.52 73.334 134.752 77.0619 135.289 77.7253C136.079 78.7362 136.331 77.0934 136.331 77.0934C136.805 77.5989 137.248 76.3984 137.184 76.0193C137.026 75.2611 135.858 72.5758 136.047 72.7022C136.268 72.797 137.564 75.6086 138.164 75.7034C138.764 75.7982 138.48 74.7557 138.132 74.0922C137.785 73.4288 136.9 71.4701 136.9 71.4701C136.9 71.4701 136.584 69.6378 135.478 67.6475L135.289 67.2684Z" fill="#FEAB97"/>
<path d="M136.332 77.1883C136.269 77.1883 136.205 77.1567 136.174 77.0935L134.563 73.3341C134.531 73.2393 134.563 73.1761 134.657 73.1129C134.752 73.0813 134.815 73.1129 134.879 73.2077L136.49 76.9671C136.521 77.0619 136.49 77.1251 136.395 77.1883C136.363 77.1883 136.332 77.1883 136.332 77.1883Z" fill="black"/>
<path d="M124.169 40.1312L107.204 39.4362V14.4155L116.113 13.1519L124.169 40.1312Z" fill="#181524"/>
<path d="M122.021 31.3801C121.957 31.3801 121.894 31.3485 121.863 31.2538C119.051 20.8917 115.734 13.0569 115.702 12.9937C115.671 12.899 115.702 12.8358 115.797 12.7726C115.892 12.741 115.955 12.7726 116.018 12.8674C116.05 12.9305 119.367 20.7969 122.179 31.1906C122.21 31.2853 122.147 31.3485 122.052 31.3801H122.021Z" fill="#181524"/>
<path d="M85.8799 44.017C85.8799 44.017 89.8604 45.7861 99.1168 38.8043L95.1679 34.4131L85.8799 44.017Z" fill="#FEAB97"/>
<path d="M114.945 26.3887C115.103 26.3571 116.145 27.3364 116.335 27.4312C118.104 28.5053 119.557 28.6633 121.547 29.0424C125.465 29.8006 128.245 36.0558 128.655 37.351C129.129 38.899 129.951 41.5527 130.425 43.1007C130.425 43.1007 129.635 47.3972 124.675 47.3024L122.179 41.995C122.179 41.995 119.368 48.3765 119.178 48.882C119.02 49.3875 120.884 55.5795 120.884 55.5795C120.884 55.5795 106.036 61.2976 97.3797 58.2016C97.3797 58.2016 100.318 46.9865 99.5279 46.639C98.7697 46.2915 97.2217 44.933 99.1172 38.7727C99.1172 38.7727 95.9896 36.9403 95.2314 32.1384C95.2314 32.1384 99.3068 28.379 101.866 28.2842C104.456 28.221 114.913 26.3887 114.945 26.3887Z" fill="url(#paint0_linear_3274_63258)"/>
<path d="M108.689 30.6851C108.689 30.6851 109.763 33.56 113.048 31.9172C115.765 30.5904 116.65 28.4105 116.871 27.6839C115.734 27.0521 114.912 26.3887 114.912 26.3887C114.912 26.3887 110.3 27.1785 106.446 27.7471C106.256 28.1894 104.392 32.2647 108.689 30.6851Z" fill="white"/>
<path d="M114.628 21.0498L114.912 26.4204C114.912 26.4204 112.417 30.2114 109.415 29.8007L108.847 26.3888L114.628 21.0498Z" fill="#FEAB97"/>
<path d="M109.573 83.1274L111.342 105.558L111.721 120.216C111.721 120.216 114.944 122.301 116.618 119.237C116.618 119.237 119.619 104.041 119.272 98.7969C118.924 93.5527 119.525 87.4239 119.525 87.4239L109.573 83.1274Z" fill="#FEAB97"/>
<path d="M96.9048 118.005C96.9048 118.005 87.7748 125.871 88.5962 125.871C89.4176 125.871 93.3034 125.302 95.8307 124.702C98.3581 124.102 99.3374 122.491 99.3374 122.491L99.527 124.039L101.265 123.818C101.265 123.818 103.223 119.647 101.865 117.341C100.475 115.004 96.9048 118.005 96.9048 118.005Z" fill="black"/>
<path d="M98.2002 122.87L99.5271 124.039L100.159 122.08L99.1164 121.827L98.2002 122.87Z" fill="black"/>
<path d="M111.722 118.289C111.722 118.289 108.31 128.493 109.447 128.651C111.627 128.904 114.312 126.471 115.133 124.923C115.955 123.375 115.86 120.943 115.86 120.943L115.07 122.775H116.681C116.681 122.775 117.534 121.954 116.871 117.942C116.871 117.942 111.722 122.996 111.722 118.289Z" fill="black"/>
<path d="M97.6003 82.4324L96.9053 118.005C96.9053 118.005 100.064 120.153 101.834 117.341C101.834 117.341 105.403 103.03 105.277 98.0703C105.151 93.0788 105.972 87.2659 105.972 87.2659L97.6003 82.4324Z" fill="#FEAB97"/>
<path d="M98.896 51.5042C98.896 51.5042 102.877 58.8334 119.999 52.5151C119.999 52.5151 126.634 69.7958 121.484 89.0983C121.484 89.0983 106.857 95.9221 92.8936 87.7715C92.8936 87.7399 95.2313 63.7933 98.896 51.5042Z" fill="#181524"/>
<path d="M99.1168 27.0522C99.1168 27.0522 86.4485 35.9611 85.5007 37.5407C84.553 39.0887 82.5943 42.627 85.3744 43.9538C88.1544 45.2807 99.1484 33.181 101.802 29.0741L99.1168 27.0522Z" fill="#FEAB97"/>
<path d="M87.6808 43.6694C87.6176 43.6694 87.586 43.6378 87.5544 43.5746C87.5228 43.5114 87.5544 43.4167 87.6176 43.3535C87.6492 43.3219 91.5981 41.1421 96.2421 35.8662C96.3053 35.8031 96.4001 35.8031 96.4633 35.8662C96.5264 35.9294 96.5264 36.0242 96.4633 36.0874C91.7877 41.4264 87.8071 43.6378 87.7755 43.6378C87.7439 43.6694 87.7123 43.6694 87.6808 43.6694Z" fill="#C36252"/>
<path d="M108.974 49.04C104.14 49.04 99.7805 46.9865 99.7173 46.9549C99.6541 46.9233 99.5909 46.8286 99.6541 46.7338C99.6857 46.639 99.7805 46.6074 99.8752 46.6706C99.97 46.7338 110.332 51.5989 116.682 46.1651C116.745 46.1019 116.84 46.1019 116.903 46.1967C116.966 46.2599 116.966 46.3547 116.872 46.4179C114.502 48.4081 111.659 49.04 108.974 49.04Z" fill="#181524"/>
<path d="M122.178 42.1845C122.115 42.1845 122.084 42.1529 122.052 42.1213L119.809 38.5831C119.777 38.5199 119.777 38.4251 119.872 38.3619C119.935 38.3303 120.03 38.3303 120.093 38.4251L122.336 41.9634C122.368 42.0266 122.368 42.1213 122.273 42.1845C122.21 42.1845 122.178 42.1845 122.178 42.1845Z" fill="#181524"/>
<path d="M99.1163 38.9622C99.0847 38.9622 99.0531 38.9622 99.0531 38.9306C98.9899 38.899 98.9583 38.8042 98.9899 38.7095L100.254 36.1505C100.285 36.0873 100.38 36.0558 100.475 36.0873C100.538 36.1189 100.57 36.2137 100.538 36.3085L99.2743 38.8674C99.2111 38.9306 99.1795 38.9622 99.1163 38.9622Z" fill="#181524"/>
<path d="M105.94 24.2405C105.214 24.1773 104.55 24.9039 104.266 24.8407C104.045 24.7776 103.761 23.735 103.634 23.3243C104.045 20.9234 103.761 19.0594 103.192 19.5649C103.16 19.5965 103.129 19.6597 103.097 19.7229C103.002 18.9647 102.813 18.5856 102.497 18.8383C102.402 18.9015 102.307 19.1858 102.213 19.4385C102.118 18.7119 101.897 18.3644 101.612 18.6172C101.486 18.7435 101.233 19.4701 101.138 19.7861C101.075 19.7229 101.012 19.6913 100.886 19.6597C100.475 19.5333 99.5272 23.04 99.4957 23.2296C99.4641 23.4191 98.4531 27.3365 98.4531 27.3365C98.1056 28.7581 100.949 29.4215 101.77 29.1056C102.592 28.7897 104.519 26.7362 104.519 26.7362C104.582 26.6415 104.677 26.4835 104.803 26.294C105.087 25.8201 106.541 24.6512 106.572 24.5564C106.604 24.4616 106.635 24.3037 105.94 24.2405Z" fill="#FEAB97"/>
<path d="M106.604 24.4933C106.636 24.3985 106.636 24.3038 105.941 24.209C105.214 24.1458 104.551 24.8724 104.266 24.8092C104.045 24.746 103.761 23.7035 103.635 23.2928C104.045 20.8918 103.761 19.0279 103.192 19.5334C103.161 19.565 103.129 19.6282 103.097 19.6914C103.003 18.9332 102.813 18.5541 102.497 18.8068C102.402 18.87 102.308 19.1543 102.213 19.407C102.181 19.0595 102.087 18.8068 102.023 18.6804C101.929 21.1446 102.213 24.8408 104.393 26.8627C104.488 26.7679 104.551 26.7047 104.551 26.7047C104.614 26.6099 104.709 26.452 104.835 26.2624C105.119 25.7886 106.573 24.5881 106.604 24.4933Z" fill="#C36252"/>
<path d="M113.996 22.0607L114.628 21.0498L108.847 26.3572L109.289 28.9477C111.69 28.537 112.827 24.6829 113.996 22.0607Z" fill="#C36252"/>
<path d="M102.971 16.0267C102.971 16.0267 101.265 25.7254 106.888 27.6841C112.512 29.6428 114.502 20.3864 114.502 17.1324C114.502 13.8785 113.017 12.1725 109.005 11.7618C103.066 11.1932 102.971 16.0267 102.971 16.0267Z" fill="#FEAB97"/>
<path d="M115.765 12.2988C114.628 10.6245 112.922 9.7083 108.689 9.80308C105.466 9.86626 103.413 12.0145 102.75 13.1518C102.528 13.4993 101.96 14.5418 103.034 15.6475C103.034 15.6475 103.065 14.8578 103.792 14.0048C103.792 14.0048 110.521 17.6378 113.206 17.1008L113.838 19.6281C113.838 19.6281 114.754 18.3328 115.671 17.9222C115.671 17.8906 116.903 13.9416 115.765 12.2988Z" fill="#181524"/>
<path d="M116.839 20.3231C116.397 21.5867 115.323 22.3765 114.438 22.0922C113.554 21.8079 113.206 20.5126 113.617 19.2489C114.059 17.9853 115.133 17.1955 116.018 17.4798C116.902 17.7641 117.281 19.0278 116.839 20.3231Z" fill="#FEAB97"/>
<path d="M108.531 20.1967C108.531 20.5442 108.341 20.7969 108.152 20.7969C107.93 20.7969 107.772 20.5126 107.772 20.1967C107.772 19.8492 107.962 19.5964 108.152 19.5964C108.341 19.5964 108.531 19.8808 108.531 20.1967Z" fill="#282828"/>
<path d="M104.076 20.1968C104.076 20.5127 103.95 20.7655 103.76 20.7655C103.57 20.7655 103.412 20.5127 103.381 20.1968C103.381 19.8809 103.507 19.6282 103.697 19.6282C103.918 19.6282 104.076 19.8809 104.076 20.1968Z" fill="#282828"/>
<path d="M109.731 17.8273C109.447 17.8273 109.004 17.7641 108.688 17.4798C108.404 17.227 108.278 16.8795 108.246 16.4373C108.246 16.3425 108.309 16.2793 108.404 16.2793C108.499 16.2793 108.562 16.3425 108.562 16.4373C108.562 16.7848 108.657 17.0691 108.878 17.2586C109.289 17.6061 109.92 17.5114 109.92 17.5114C110.015 17.5114 110.078 17.543 110.11 17.6377C110.11 17.7325 110.078 17.7957 109.984 17.8273C109.984 17.7957 109.889 17.8273 109.731 17.8273Z" fill="#282828"/>
<path d="M103.95 18.1116C103.697 18.1116 103.444 18.0168 103.16 17.7957C103.097 17.7325 103.065 17.6377 103.128 17.5745C103.191 17.5114 103.286 17.4798 103.349 17.543C103.634 17.7641 103.886 17.8273 104.108 17.7641C104.487 17.6693 104.676 17.1323 104.676 17.1323C104.708 17.0375 104.803 17.0059 104.866 17.0375C104.961 17.0691 104.992 17.1638 104.961 17.227C104.961 17.2586 104.708 17.8905 104.171 18.0484C104.108 18.1116 104.044 18.1116 103.95 18.1116Z" fill="#282828"/>
<path d="M108.436 25.5673C108.436 25.5673 109.067 23.5454 110.552 24.8407L108.436 25.5673Z" fill="#C36252"/>
<path d="M114.754 21.0497C114.66 21.0497 114.565 21.0497 114.502 21.0181C114.439 21.0181 114.407 20.955 114.407 20.9234C114.407 20.8918 114.407 20.8286 114.439 20.7654C114.754 20.4179 114.281 19.8492 114.281 19.8492C114.249 19.8177 114.249 19.7545 114.249 19.6913C114.502 19.1226 114.818 18.7751 115.197 18.7119C115.702 18.6172 116.113 18.9963 116.113 19.0279C116.176 19.091 116.176 19.1858 116.113 19.249C116.05 19.3122 115.955 19.3122 115.892 19.249C115.892 19.249 115.576 18.9647 115.26 19.0279C115.007 19.091 114.786 19.3122 114.597 19.7229C114.723 19.9124 114.976 20.3231 114.818 20.7338C114.976 20.7338 115.165 20.6706 115.323 20.4495C115.386 20.3863 115.481 20.3547 115.544 20.4179C115.607 20.4495 115.639 20.5759 115.576 20.639C115.355 20.9865 115.007 21.0497 114.754 21.0497Z" fill="black"/>
<path d="M115.512 19.8493C115.418 19.8493 115.354 19.7861 115.354 19.7229C115.354 19.7229 115.323 19.407 115.007 19.0279C114.944 18.9647 114.944 18.8699 115.039 18.8067C115.102 18.7435 115.196 18.7435 115.26 18.8383C115.639 19.3122 115.702 19.6913 115.702 19.7229C115.702 19.7861 115.639 19.8493 115.512 19.8493C115.544 19.8493 115.544 19.8493 115.512 19.8493Z" fill="black"/>
<path d="M105.182 22.9453C104.771 22.9137 104.423 22.661 104.329 22.2819C104.234 21.9028 104.329 21.5868 104.55 21.3025C104.613 21.2393 104.708 21.2393 104.771 21.3025C104.834 21.3657 104.834 21.4605 104.771 21.5237C104.613 21.7132 104.55 21.9343 104.613 22.2187C104.676 22.4398 104.897 22.6294 105.15 22.6294C105.245 22.6294 105.308 22.6926 105.308 22.7873C105.34 22.8821 105.245 22.9453 105.182 22.9453Z" fill="#C36252"/>
<path d="M115.134 22.0607C115.134 22.5346 114.755 22.9137 114.281 22.9137C113.807 22.9137 113.428 22.5346 113.428 22.0607C113.428 21.5869 113.807 21.2078 114.281 21.2078C114.755 21.2078 115.134 21.5869 115.134 22.0607Z" fill="white"/>
<path d="M101.613 29.2635C101.013 29.2635 100.634 28.8212 100.539 28.5685C100.507 28.4737 100.539 28.4105 100.602 28.3474C100.697 28.3158 100.76 28.3474 100.823 28.4105C100.823 28.4421 101.139 29.0108 101.802 28.916C101.897 28.916 101.96 28.9476 101.992 29.0424C102.024 29.1371 101.96 29.2003 101.866 29.2319C101.739 29.2635 101.676 29.2635 101.613 29.2635Z" fill="#282828"/>
<path d="M99.9695 27.4313C99.8747 27.4313 99.8115 27.3681 99.8115 27.3049C99.8115 27.2101 99.8747 27.1469 99.9379 27.1154C100.096 27.0838 100.917 26.4519 101.044 26.0728C101.138 25.8201 100.854 24.4617 100.601 23.5771V23.5455V23.5139C101.486 20.3863 101.044 19.9124 101.044 19.9124C100.98 19.8809 100.949 19.7861 100.98 19.6913C101.012 19.6281 101.138 19.5965 101.202 19.6281C101.36 19.7229 101.833 20.26 100.917 23.5455C101.044 23.9878 101.517 25.7885 101.328 26.1992C101.17 26.6731 100.317 27.3997 99.9695 27.4313Z" fill="#282828"/>
<path d="M101.992 27.4945C101.897 27.4945 101.834 27.4314 101.834 27.3366C101.866 25.9781 102.687 25.0304 102.719 24.9988C102.782 24.9356 102.877 24.9356 102.94 24.9988C103.003 25.062 103.003 25.1568 102.94 25.2199C102.94 25.2199 102.15 26.1361 102.118 27.3682C102.15 27.4314 102.087 27.4945 101.992 27.4945Z" fill="#282828"/>
<path d="M101.992 23.6719H101.96C101.865 23.6403 101.834 23.5455 101.865 23.4824C102.276 22.0923 102.086 19.5018 102.086 19.4702C102.086 19.3754 102.15 19.3123 102.244 19.3123C102.339 19.3123 102.402 19.3754 102.402 19.4702C102.402 19.565 102.592 22.1555 102.181 23.6087C102.15 23.6403 102.087 23.6719 101.992 23.6719Z" fill="#282828"/>
<path d="M85.722 1.00346C91.0926 1.16142 95.547 5.45789 95.8313 10.8285C96.0209 13.9877 94.7888 16.8625 92.7353 18.8844C92.4194 19.1687 92.2931 19.611 92.3562 20.0217L93.1144 24.6025L88.3757 21.8224C88.0914 21.6645 87.7754 21.6013 87.4911 21.6645C86.3222 21.8856 85.0901 21.9488 83.8265 21.7592C79.1193 21.0326 75.4547 17.1468 75.044 12.4397C74.4753 6.12132 79.4984 0.845499 85.722 1.00346Z" fill="#00937D"/>
<path d="M84.598 16.1167L84.6118 16.1373L84.6293 16.1548C84.698 16.2235 84.776 16.2779 84.872 16.3122C84.9646 16.3452 85.0594 16.3544 85.1536 16.3544C85.2561 16.3544 85.3603 16.3293 85.4498 16.2811C85.5263 16.2399 85.6096 16.1716 85.6573 16.0698C85.7061 16.0013 85.7464 15.9298 85.7738 15.8478C85.8047 15.755 85.8143 15.6632 85.8143 15.5673C85.8143 15.3784 85.7768 15.1984 85.6775 15.0495L85.6638 15.0289L85.6463 15.0114C85.5775 14.9427 85.4996 14.8884 85.4035 14.8541C85.311 14.821 85.2162 14.8118 85.122 14.8118C84.8973 14.8118 84.742 14.9303 84.6293 15.043C84.4672 15.2051 84.4297 15.4105 84.4297 15.5989C84.4297 15.8264 84.5213 16.0016 84.598 16.1167ZM84.8088 12.5029V12.7529H85.0588H85.3115H85.5615V12.5029C85.5615 12.371 85.5687 12.2307 85.5765 12.0784L85.577 12.0695C85.5847 11.92 85.5927 11.7603 85.5931 11.5992C85.6247 11.275 85.6247 10.9529 85.6247 10.6447V10.639V10.6372V10.6353V10.6335V10.6316V10.6297V10.6279V10.626V10.6242V10.6223V10.6205V10.6186V10.6168V10.6149V10.6131V10.6112V10.6094V10.6075V10.6057V10.6038V10.602V10.6001V10.5983V10.5964V10.5946V10.5927V10.5909V10.589V10.5872V10.5853V10.5835V10.5816V10.5798V10.5779V10.5761V10.5742V10.5724V10.5705V10.5687V10.5668V10.565V10.5631V10.5613V10.5594V10.5576V10.5557V10.5539V10.552V10.5502V10.5483V10.5465V10.5446V10.5427V10.5409V10.539V10.5372V10.5353V10.5335V10.5316V10.5298V10.5279V10.5261V10.5242V10.5224V10.5205V10.5187V10.5168V10.515V10.5131V10.5113V10.5094V10.5076V10.5057V10.5039V10.502V10.5002V10.4983V10.4965V10.4946V10.4928V10.4909V10.4891V10.4872V10.4854V10.4835V10.4817V10.4798V10.478V10.4761V10.4743V10.4724V10.4706V10.4687V10.4669V10.465V10.4632V10.4613V10.4595V10.4576V10.4557V10.4539V10.452V10.4502V10.4483V10.4465V10.4446V10.4428V10.4409V10.4391V10.4372V10.4354V10.4335V10.4317V10.4298V10.428V10.4261V10.4243V10.4224V10.4206V10.4187V10.4169V10.415V10.4132V10.4113V10.4095V10.4076V10.4058V10.4039V10.4021V10.4002V10.3984V10.3965V10.3947V10.3928V10.391V10.3891V10.3873V10.3854V10.3836V10.3817V10.3799V10.378V10.3762V10.3743V10.3724V10.3706V10.3687V10.3669V10.365V10.3632V10.3613V10.3595V10.3576V10.3558V10.3539V10.3521V10.3502V10.3484V10.3465V10.3447V10.3428V10.341V10.3391V10.3373V10.3354V10.3336V10.3317V10.3299V10.328V10.3262V10.3243V10.3225V10.3206V10.3188V10.3169V10.3151V10.3132V10.3114V10.3095V10.3077V10.3058V10.304V10.3021V10.3003V10.2984V10.2966V10.2947V10.2929V10.291V10.2892V10.2873V10.2854V10.2836V10.2817V10.2799V10.278V10.2762V10.2743V10.2725V10.2706V10.2688V10.2669V10.2651V10.2632V10.2614V10.2595V10.2577V10.2558V10.254V10.2521V10.2503V10.2484V10.2466V10.2447V10.2429V10.241V10.2392V10.2373V10.2355V10.2336V10.2318V10.2299V10.2281V10.2262V10.2244V10.2225V10.2207V10.2188V10.217V10.2151V10.2133V10.2114V10.2096V10.2077V10.2059V10.204V10.2022V10.2003V10.1984V10.1966V10.1947V10.1929V10.191V10.1892V10.1873V10.1855V10.1836V10.1818V10.1799V10.1781V10.1762V10.1744V10.1725V10.1707V10.1688V10.167V10.1651V10.1633V10.1614V10.1596V10.1577V10.1559V10.154V10.1522V10.1503V10.1485V10.1466V10.1448V10.1429V10.1411V10.1392V10.1374V10.1355V10.1337V10.1318V10.13V10.1281V10.1263V10.1244V10.1226V10.1207V10.1189V10.117V10.1151V10.1133V10.1114V10.1096V10.1077V10.1059V10.104V10.1022V10.1003V10.0985V10.0966V10.0948V10.0929V10.0911V10.0892V10.0874V10.0855V10.0837V10.0818V10.08V10.0781V10.0763V10.0744V10.0726V10.0707V10.0689V10.067V10.0652V10.0633V10.0615V10.0596V10.0578V10.0559V10.0541V10.0522V10.0504V10.0485V10.0467V10.0448V10.043V10.0411V10.0393V10.0374V10.0356V10.0337V10.0319V10.03V10.0281V10.0263V10.0244V10.0226V10.0207V10.0189V10.017V10.0152V10.0133V10.0115V10.0096V10.0078V10.0059V10.0041V10.0022V10.0004V9.99853V9.99668V9.99483V9.99298V9.99113V9.98928V9.98743V9.98557V9.98372V9.98187V9.98002V9.97817V9.97632V9.97447V9.97262V9.97077V9.96891V9.96706V9.96521V9.96336V9.96151V9.95966V9.95781V9.95596V9.95411V9.95225V9.9504V9.94855V9.9467V9.94485V9.943V9.94115V9.9393V9.93745V9.9356V9.93374V9.93189V9.93004V9.92819V9.92634V9.92449V9.92264V9.92079V9.91894V9.91708V9.91523V9.91338V9.91153V9.90968V9.90783V9.90598V9.90413V9.90228V9.90042V9.89857V9.89672V9.89487V9.89302V9.89117V9.88932V9.88747V9.88562V9.88376V9.88191V9.88006V9.87821V9.87636V9.87451V9.87266V9.87081V9.86896V9.86711V9.86525V9.8634V9.86155V9.8597V9.85785V9.856V9.85415V9.8523V9.85045V9.84859V9.84674V9.84489V9.84304V9.84119V9.83934V9.83749V9.83564V9.83379V9.83193V9.83008V9.82823V9.82638V9.82453V9.82268V9.82083V9.81898V9.81713V9.81527V9.81342V9.81157V9.80972V9.80787V9.80602V9.80417V9.80232V9.80047V9.79862V9.79676V9.79491V9.79306V9.79121V9.78936V9.78751V9.78566V9.78381V9.78196V9.7801V9.77825V9.7764V9.77455V9.7727V9.77085V9.769V9.76715V9.7653V9.76344V9.76159V9.75974V9.75789V9.75604V9.75419V9.75234V9.75049V9.74864V9.74679V9.74493V9.74308V9.74123V9.73938V9.73753V9.73568V9.73383V9.73198V9.73013V9.72827V9.72642V9.72457V9.72272V9.72087V9.71902V9.71717V9.71532V9.71347V9.71161V9.70976V9.70791V9.70606V9.70421V9.70236V9.70051V9.69866V9.69681V9.69495V9.6931V9.69125H85.6247L85.6247 9.68919L85.5931 5.86659L85.5911 5.61865H85.3431H84.9956H84.7456V5.86865V9.69125V9.6931V9.69495V9.69681V9.69866V9.70051V9.70236V9.70421V9.70606V9.70791V9.70976V9.71161V9.71347V9.71532V9.71717V9.71902V9.72087V9.72272V9.72457V9.72642V9.72827V9.73013V9.73198V9.73383V9.73568V9.73753V9.73938V9.74123V9.74308V9.74493V9.74679V9.74864V9.75049V9.75234V9.75419V9.75604V9.75789V9.75974V9.76159V9.76344V9.7653V9.76715V9.769V9.77085V9.7727V9.77455V9.7764V9.77825V9.7801V9.78196V9.78381V9.78566V9.78751V9.78936V9.79121V9.79306V9.79491V9.79676V9.79862V9.80047V9.80232V9.80417V9.80602V9.80787V9.80972V9.81157V9.81342V9.81527V9.81713V9.81898V9.82083V9.82268V9.82453V9.82638V9.82823V9.83008V9.83193V9.83379V9.83564V9.83749V9.83934V9.84119V9.84304V9.84489V9.84674V9.84859V9.85045V9.8523V9.85415V9.856V9.85785V9.8597V9.86155V9.8634V9.86525V9.86711V9.86896V9.87081V9.87266V9.87451V9.87636V9.87821V9.88006V9.88191V9.88376V9.88562V9.88747V9.88932V9.89117V9.89302V9.89487V9.89672V9.89857V9.90042V9.90228V9.90413V9.90598V9.90783V9.90968V9.91153V9.91338V9.91523V9.91708V9.91894V9.92079V9.92264V9.92449V9.92634V9.92819V9.93004V9.93189V9.93374V9.9356V9.93745V9.9393V9.94115V9.943V9.94485V9.9467V9.94855V9.9504V9.95225V9.95411V9.95596V9.95781V9.95966V9.96151V9.96336V9.96521V9.96706V9.96891V9.97077V9.97262V9.97447V9.97632V9.97817V9.98002V9.98187V9.98372V9.98557V9.98743V9.98928V9.99113V9.99298V9.99483V9.99668V9.99853V10.0004V10.0022V10.0041V10.0059V10.0078V10.0096V10.0115V10.0133V10.0152V10.017V10.0189V10.0207V10.0226V10.0244V10.0263V10.0281V10.03V10.0319V10.0337V10.0356V10.0374V10.0393V10.0411V10.043V10.0448V10.0467V10.0485V10.0504V10.0522V10.0541V10.0559V10.0578V10.0596V10.0615V10.0633V10.0652V10.067V10.0689V10.0707V10.0726V10.0744V10.0763V10.0781V10.08V10.0818V10.0837V10.0855V10.0874V10.0892V10.0911V10.0929V10.0948V10.0966V10.0985V10.1003V10.1022V10.104V10.1059V10.1077V10.1096V10.1114V10.1133V10.1151V10.117V10.1189V10.1207V10.1226V10.1244V10.1263V10.1281V10.13V10.1318V10.1337V10.1355V10.1374V10.1392V10.1411V10.1429V10.1448V10.1466V10.1485V10.1503V10.1522V10.154V10.1559V10.1577V10.1596V10.1614V10.1633V10.1651V10.167V10.1688V10.1707V10.1725V10.1744V10.1762V10.1781V10.1799V10.1818V10.1836V10.1855V10.1873V10.1892V10.191V10.1929V10.1947V10.1966V10.1984V10.2003V10.2022V10.204V10.2059V10.2077V10.2096V10.2114V10.2133V10.2151V10.217V10.2188V10.2207V10.2225V10.2244V10.2262V10.2281V10.2299V10.2318V10.2336V10.2355V10.2373V10.2392V10.241V10.2429V10.2447V10.2466V10.2484V10.2503V10.2521V10.254V10.2558V10.2577V10.2595V10.2614V10.2632V10.2651V10.2669V10.2688V10.2706V10.2725V10.2743V10.2762V10.278V10.2799V10.2817V10.2836V10.2854V10.2873V10.2892V10.291V10.2929V10.2947V10.2966V10.2984V10.3003V10.3021V10.304V10.3058V10.3077V10.3095V10.3114V10.3132V10.3151V10.3169V10.3188V10.3206V10.3225V10.3243V10.3262V10.328V10.3299V10.3317V10.3336V10.3354V10.3373V10.3391V10.341V10.3428V10.3447V10.3465V10.3484V10.3502V10.3521V10.3539V10.3558V10.3576V10.3595V10.3613V10.3632V10.365V10.3669V10.3687V10.3706V10.3724V10.3743V10.3762V10.378V10.3799V10.3817V10.3836V10.3854V10.3873V10.3891V10.391V10.3928V10.3947V10.3965V10.3984V10.4002V10.4021V10.4039V10.4058V10.4076V10.4095V10.4113V10.4132V10.415V10.4169V10.4187V10.4206V10.4224V10.4243V10.4261V10.428V10.4298V10.4317V10.4335V10.4354V10.4372V10.4391V10.4409V10.4428V10.4446V10.4465V10.4483V10.4502V10.452V10.4539V10.4557V10.4576V10.4595V10.4613V10.4632V10.465V10.4669V10.4687V10.4706V10.4724V10.4743V10.4761V10.478V10.4798V10.4817V10.4835V10.4854V10.4872V10.4891V10.4909V10.4928V10.4946V10.4965V10.4983V10.5002V10.502V10.5039V10.5057V10.5076V10.5094V10.5113V10.5131V10.515V10.5168V10.5187V10.5205V10.5224V10.5242V10.5261V10.5279V10.5298V10.5316V10.5335V10.5353V10.5372V10.539V10.5409V10.5427V10.5446V10.5465V10.5483V10.5502V10.552V10.5539V10.5557V10.5576V10.5594V10.5613V10.5631V10.565V10.5668V10.5687V10.5705V10.5724V10.5742V10.5761V10.5779V10.5798V10.5816V10.5835V10.5853V10.5872V10.589V10.5909V10.5927V10.5946V10.5964V10.5983V10.6001V10.602V10.6038V10.6057V10.6075V10.6094V10.6112V10.6131V10.6149V10.6168V10.6186V10.6205V10.6223V10.6242V10.626V10.6279V10.6297V10.6316V10.6335V10.6353V10.6372V10.639C84.7456 10.8032 84.7538 10.9664 84.7616 11.1224L84.7617 11.1254C84.7697 11.2844 84.7772 11.4361 84.7772 11.5868C84.7772 11.7521 84.7855 11.9162 84.7933 12.0695L84.7938 12.0784C84.8016 12.2307 84.8088 12.371 84.8088 12.5029Z" fill="white" stroke="white" stroke-width="0.5"/>
<path d="M41.616 57.7139V49.3139H42.816L47.436 55.4939V49.3139H48.756V57.7139H47.556L42.936 51.5339V57.7139H41.616ZM50.4351 54.8339C50.4351 53.1539 51.7551 51.8339 53.4351 51.8339C55.1151 51.8339 56.4351 53.1539 56.4351 54.8339C56.4351 56.5139 55.1151 57.8339 53.4351 57.8339C51.7551 57.8339 50.4351 56.5139 50.4351 54.8339ZM53.4351 56.6939C54.4551 56.6939 55.2351 55.9259 55.2351 54.8339C55.2351 53.7419 54.4551 52.9739 53.4351 52.9739C52.4151 52.9739 51.6351 53.7419 51.6351 54.8339C51.6351 55.9259 52.4151 56.6939 53.4351 56.6939ZM31.2098 71.7139V63.3139H37.1498V64.5739H32.5298V66.7339H36.1898V67.9939H32.5298V70.4539H37.2698V71.7139H31.2098ZM40.0973 71.7139L37.8173 65.9539H39.1373L40.7573 70.2139L42.3773 65.9539H43.6973L41.4173 71.7139H40.0973ZM49.0345 69.9139L49.7545 70.7539C49.5985 70.9579 49.3945 71.1379 49.1545 71.2939C48.7345 71.5699 48.1465 71.8339 47.2945 71.8339C45.6145 71.8339 44.2945 70.5139 44.2945 68.8339C44.2945 67.1539 45.6145 65.8339 47.2345 65.8339C48.8665 65.8339 50.0545 67.0219 50.0545 68.6539C50.0545 68.8339 50.0305 68.9779 50.0185 69.0859L49.9945 69.2539H45.5545C45.6865 70.0339 46.3825 70.6939 47.3545 70.6939C47.8705 70.6939 48.2905 70.5019 48.5785 70.3099C48.7465 70.2019 48.9025 70.0699 49.0345 69.9139ZM45.5545 68.2339H48.7945C48.6145 67.4539 48.0865 66.9139 47.2345 66.9139C46.3225 66.9139 45.7945 67.4539 45.5545 68.2339ZM51.3693 71.7139V65.9539H52.5693V66.7939C52.6893 66.6139 52.8333 66.4579 53.0133 66.3139C53.3133 66.0739 53.7573 65.8339 54.3693 65.8339C55.6893 65.8339 56.6493 66.7819 56.6493 68.3539V71.7139H55.4493V68.3539C55.4493 67.5019 54.9093 66.9739 54.1293 66.9739C53.2293 66.9739 52.5693 67.6339 52.5693 68.5939V71.7139H51.3693ZM58.813 69.9139V67.0939H57.733V65.9539H58.393C58.765 65.9539 58.933 65.7739 58.933 65.2939V64.0339H60.013V65.9539H61.333V67.0939H60.013V69.7939C60.013 70.3939 60.289 70.6939 60.853 70.6939C61.033 70.6939 61.189 70.6579 61.321 70.6099L61.513 70.5139V71.6539L61.261 71.7499C61.105 71.7979 60.889 71.8339 60.613 71.8339C59.461 71.8339 58.813 71.1739 58.813 69.9139ZM62.4074 70.7539L63.1874 69.9739C63.3074 70.1299 63.4394 70.2619 63.5954 70.3699C63.8714 70.5619 64.2194 70.7539 64.6874 70.7539C65.3594 70.7539 65.7074 70.4059 65.7074 70.0339C65.7074 69.0739 62.6474 69.5659 62.6474 67.5139C62.6474 66.6139 63.4394 65.8339 64.7474 65.8339C65.4314 65.8339 65.9474 66.0379 66.2834 66.2299C66.4874 66.3379 66.6554 66.4699 66.7874 66.6139L66.0074 67.3939C65.9114 67.3099 65.8034 67.2259 65.6714 67.1539C65.4434 67.0219 65.1314 66.9139 64.7474 66.9139C64.1354 66.9139 63.8474 67.2139 63.8474 67.5139C63.8474 68.4739 66.9074 67.9939 66.9074 70.0339C66.9074 70.9939 66.0794 71.8339 64.6874 71.8339C63.9194 71.8339 63.3674 71.5699 62.9834 71.2939C62.7554 71.1379 62.5634 70.9579 62.4074 70.7539Z" fill="#00937D"/>
</g>
<defs>
<linearGradient id="paint0_linear_3274_63258" x1="112.826" y1="25.9222" x2="112.828" y2="64.1986" gradientUnits="userSpaceOnUse">
<stop stop-color="#00937D"/>
<stop offset="0.9939" stop-color="#81CEC3"/>
</linearGradient>
<clipPath id="clip0_3274_63258">
<rect width="139" height="128.203" fill="white" transform="translate(0 0.797119)"/>
</clipPath>
</defs>
</svg>
