<svg width="108" height="114" viewBox="0 0 108 114" fill="none" xmlns="http://www.w3.org/2000/svg">
<path d="M105.794 114H10.8574C10.8574 114 1.22595 97.037 3.28997 78.5941C5.35398 60.1512 21.1044 47.9591 27.677 40.847C34.2497 33.735 39.8705 10.2863 60.7935 4.94159C81.7165 -0.403173 102.815 17.9518 103.73 36.1051C104.645 54.2584 86.6226 69.7935 97.3559 85.5964C108.089 101.399 105.794 114 105.794 114Z" fill="#00937D" fill-opacity="0.1"/>
<path d="M75.2037 17.7798H32.7753C30.3925 17.7798 28.4717 19.6647 28.4717 22.0209V106.701C28.4717 109.033 30.3925 110.942 32.7753 110.942H75.228C77.6108 110.942 79.5316 109.033 79.5316 106.701V22.0209C79.5073 19.6647 77.5865 17.7798 75.2037 17.7798ZM76.8327 104.085C76.8327 106.324 75.1064 108.114 72.9911 108.114H35.0122C32.8726 108.114 31.1706 106.3 31.1706 104.085V25.2252C31.1706 20.6778 32.8969 20.4658 35.0122 20.4658H42.6226C43.0602 20.4658 43.4249 20.9606 43.4249 21.5496V21.8088C43.4249 23.2225 44.2273 23.2225 45.1999 23.2225H62.8034C63.8003 23.2225 64.5783 23.2225 64.5783 21.8088V21.5496C64.5783 20.937 64.943 20.4658 65.3807 20.4658H72.9911C75.1064 20.4658 76.8327 21.0784 76.8327 25.2252V104.085Z" fill="#263238"/>
<path d="M56.3825 21.4789H51.5926C51.4224 21.4789 51.3008 21.3611 51.3008 21.1962C51.3008 21.0313 51.4224 20.9135 51.5926 20.9135H56.3825C56.5527 20.9135 56.6742 21.0313 56.6742 21.1962C56.6742 21.3376 56.5527 21.4789 56.3825 21.4789Z" fill="white"/>
<path d="M76.834 25.225V104.085C76.834 106.324 75.1077 108.114 72.9924 108.114H35.0135C32.8739 108.114 31.1719 106.3 31.1719 104.085V25.225C31.1719 20.6776 32.8982 20.4656 35.0135 20.4656H42.6239C43.0615 20.4656 43.4263 20.9604 43.4263 21.5494V21.8086C43.4263 23.2223 44.2286 23.2223 45.2012 23.2223H62.8047C63.8016 23.2223 64.5796 23.2223 64.5796 21.8086V21.5494C64.5796 20.9368 64.9444 20.4656 65.382 20.4656H72.9924C75.1077 20.4656 76.834 21.0782 76.834 25.225Z" fill="white"/>
<path d="M76.8339 25.225V37.3827H31.1475V25.225C31.1475 20.6776 32.8738 20.4656 34.9891 20.4656H42.5995C43.0371 20.4656 43.4018 20.9604 43.4018 21.5494V21.8086C43.4018 23.2223 44.2042 23.2223 45.1768 23.2223H62.7803C63.7772 23.2223 64.5552 23.2223 64.5552 21.8086V21.5494C64.5552 20.9368 64.9199 20.4656 65.3576 20.4656H72.968C75.1076 20.4656 76.8339 21.0782 76.8339 25.225Z" fill="white"/>
<path d="M41.3116 22.2326C41.2873 22.2561 41.2629 22.2797 41.2386 22.3033C41.2143 22.3268 41.2143 22.3268 41.19 22.3504C40.9955 22.1619 40.7523 22.0676 40.4849 22.0676C40.2174 22.0676 39.9743 22.1619 39.7798 22.3504C39.7555 22.3268 39.7555 22.3268 39.7311 22.3033C39.7068 22.2797 39.6825 22.2561 39.6582 22.2326C39.6825 22.209 39.7311 22.1854 39.7555 22.1619C39.8284 22.1148 39.9013 22.0676 39.9743 22.0205C40.0715 21.9734 40.1688 21.9498 40.2661 21.9263C40.3147 21.9263 40.3633 21.9027 40.4119 21.9027C40.4363 21.9027 40.5335 21.9027 40.5335 21.9027C40.5578 21.9027 40.6065 21.9027 40.6308 21.9027C40.728 21.9027 40.801 21.9263 40.8982 21.9734C40.9712 21.997 41.0198 22.0205 41.0684 22.0441C41.1171 22.0676 41.19 22.1148 41.2386 22.1619C41.2386 22.1854 41.2873 22.209 41.3116 22.2326Z" fill="#404040"/>
<path d="M39.9975 22.5622C39.9489 22.5151 39.9246 22.4915 39.876 22.4444C39.9975 22.3266 40.1677 22.2323 40.3379 22.2088C40.6054 22.1617 40.8485 22.2559 41.0431 22.4444C40.9944 22.4915 40.9701 22.5151 40.9215 22.5622C40.7999 22.4444 40.6297 22.3737 40.4352 22.3737C40.2893 22.3737 40.1434 22.4444 39.9975 22.5622Z" fill="#404040"/>
<path d="M40.8261 22.6803C40.7775 22.7274 40.7532 22.751 40.7045 22.7981C40.6316 22.7274 40.5587 22.7039 40.4614 22.7039C40.3641 22.7039 40.2912 22.7274 40.2183 22.7981C40.1696 22.751 40.1453 22.7274 40.0967 22.6803C40.3155 22.4918 40.6316 22.4918 40.8261 22.6803Z" fill="#404040"/>
<path d="M40.5812 22.8922C40.5812 22.9393 40.5326 22.9865 40.484 22.9865C40.4353 22.9865 40.3867 22.9393 40.3867 22.8922C40.3867 22.8451 40.4353 22.798 40.484 22.798C40.5326 22.798 40.5812 22.8451 40.5812 22.8922Z" fill="#404040"/>
<path d="M34.4295 22.7276C34.5906 22.7276 34.7212 22.601 34.7212 22.4448C34.7212 22.2887 34.5906 22.1621 34.4295 22.1621C34.2683 22.1621 34.1377 22.2887 34.1377 22.4448C34.1377 22.601 34.2683 22.7276 34.4295 22.7276Z" fill="#404040"/>
<path d="M35.0859 22.4448C35.0859 22.2799 35.2318 22.1621 35.3777 22.1621C35.5479 22.1621 35.6695 22.3035 35.6695 22.4448C35.6695 22.5862 35.5236 22.7276 35.3777 22.7276C35.2318 22.7511 35.0859 22.6098 35.0859 22.4448Z" fill="#404040"/>
<path d="M36.3523 22.7276C36.5135 22.7276 36.6441 22.601 36.6441 22.4448C36.6441 22.2887 36.5135 22.1621 36.3523 22.1621C36.1912 22.1621 36.0605 22.2887 36.0605 22.4448C36.0605 22.601 36.1912 22.7276 36.3523 22.7276Z" fill="#404040"/>
<path d="M36.9824 22.4448C36.9824 22.2799 37.1283 22.1621 37.2742 22.1621C37.4444 22.1621 37.566 22.3035 37.566 22.4448C37.566 22.5862 37.4201 22.7276 37.2742 22.7276C37.1283 22.7511 36.9824 22.6098 36.9824 22.4448Z" fill="#404040"/>
<path d="M37.9541 22.4448C37.9541 22.2799 38.1 22.1621 38.2459 22.1621C38.4161 22.1621 38.5376 22.3035 38.5376 22.4448C38.5376 22.5862 38.3918 22.7276 38.2459 22.7276C38.0757 22.7511 37.9541 22.6098 37.9541 22.4448Z" fill="#404040"/>
<path d="M73.3312 22.0441H70.9971V23.0336H73.3312V22.0441Z" fill="#404040"/>
<path d="M72.725 22.1852H71.1445V22.9156H72.725V22.1852Z" fill="#404040"/>
<path d="M73.6241 22.2325H73.4053V22.8216H73.6241V22.2325Z" fill="#404040"/>
<path d="M34.5269 29.3009L33.457 28.3349L34.5269 27.3689L34.6971 27.5338L33.8217 28.3349L34.6971 29.136L34.5269 29.3009Z" fill="white"/>
<path d="M74.2569 27.9342C74.3778 27.9342 74.4757 27.8393 74.4757 27.7222C74.4757 27.6051 74.3778 27.5101 74.2569 27.5101C74.1361 27.5101 74.0381 27.6051 74.0381 27.7222C74.0381 27.8393 74.1361 27.9342 74.2569 27.9342Z" fill="white"/>
<path d="M74.2569 28.6647C74.3778 28.6647 74.4757 28.5698 74.4757 28.4527C74.4757 28.3355 74.3778 28.2406 74.2569 28.2406C74.1361 28.2406 74.0381 28.3355 74.0381 28.4527C74.0381 28.5698 74.1361 28.6647 74.2569 28.6647Z" fill="white"/>
<path d="M74.4757 29.1829C74.4757 29.3007 74.3785 29.3949 74.2569 29.3949C74.1353 29.3949 74.0381 29.3007 74.0381 29.1829C74.0381 29.0651 74.1353 28.9708 74.2569 28.9708C74.3785 28.9708 74.4757 29.0651 74.4757 29.1829Z" fill="white"/>
<path d="M20.8278 106.036L20.757 110.052C20.757 110.052 24.79 111.48 24.8431 112.212L17.1132 112.373L16.9717 106.108L20.8278 106.036Z" fill="#60696D"/>
<path d="M18.3754 109.768C18.2339 109.804 18.1277 109.982 18.1631 110.143C18.1985 110.303 18.3754 110.393 18.5169 110.357C18.6584 110.321 18.7999 110.107 18.7468 109.964C18.6938 109.821 18.4815 109.714 18.34 109.786" fill="#263238"/>
<path d="M17.1387 112.378L17.1564 111.753L24.5679 111.86C24.5679 111.86 24.9216 112.003 24.8863 112.253L17.1387 112.378Z" fill="#263238"/>
<path d="M20.8766 110.02C20.8766 110.056 20.682 110.074 20.5051 110.199C20.3106 110.324 20.2221 110.484 20.1868 110.467C20.1514 110.467 20.2044 110.235 20.4344 110.074C20.6467 109.949 20.8766 109.985 20.8766 110.02Z" fill="#263238"/>
<path d="M21.6992 110.361C21.7169 110.397 21.54 110.468 21.4162 110.629C21.2923 110.789 21.257 110.968 21.2216 110.968C21.1862 110.968 21.1508 110.754 21.31 110.557C21.4869 110.343 21.6992 110.325 21.6992 110.361Z" fill="#263238"/>
<path d="M22.1685 111.324C22.1331 111.324 22.0801 111.146 22.1685 110.932C22.257 110.717 22.4338 110.628 22.4515 110.664C22.4692 110.7 22.3631 110.807 22.2923 110.985C22.2216 111.164 22.2039 111.324 22.1685 111.324Z" fill="#263238"/>
<path d="M20.8062 109.111C20.7885 109.147 20.6116 109.093 20.3994 109.111C20.1871 109.129 20.0279 109.2 19.9925 109.164C19.9749 109.129 20.1341 108.986 20.3817 108.968C20.647 108.968 20.8239 109.075 20.8062 109.111Z" fill="#263238"/>
<path d="M16.3504 103.899L13.591 106.79C13.591 106.79 15.5721 110.61 15.1122 111.181L9.3457 105.987L13.4671 101.292L16.3504 103.899Z" fill="#60696D"/>
<path d="M12.023 104.935C11.8815 104.863 11.6869 104.917 11.6162 105.06C11.5454 105.202 11.5985 105.399 11.74 105.47C11.8815 105.542 12.1114 105.488 12.1645 105.345C12.2176 105.202 12.1468 104.97 11.9876 104.935" fill="#263238"/>
<path d="M9.3457 105.988L9.78792 105.524L15.1476 110.7C15.1476 110.7 15.3067 111.039 15.1122 111.2L9.3457 105.988Z" fill="#263238"/>
<path d="M13.6916 106.86C13.6739 106.896 13.5147 106.771 13.3025 106.735C13.0902 106.7 12.8956 106.753 12.8956 106.717C12.878 106.682 13.0725 106.557 13.3379 106.61C13.5855 106.646 13.727 106.825 13.6916 106.86Z" fill="#263238"/>
<path d="M14.0707 107.648C14.053 107.684 13.8938 107.612 13.6815 107.648C13.487 107.684 13.3454 107.791 13.3101 107.755C13.2747 107.737 13.4162 107.559 13.6638 107.523C13.9292 107.487 14.1061 107.63 14.0707 107.648Z" fill="#263238"/>
<path d="M13.7498 108.701C13.7144 108.683 13.8028 108.505 14.0151 108.415C14.2274 108.326 14.4042 108.38 14.4042 108.415C14.4042 108.451 14.245 108.451 14.0682 108.54C13.8913 108.612 13.7851 108.719 13.7498 108.701Z" fill="#263238"/>
<path d="M14.2413 106.132C14.2059 106.15 14.1175 105.989 13.9406 105.864C13.7814 105.721 13.6045 105.668 13.6045 105.632C13.6045 105.596 13.8168 105.596 14.0113 105.757C14.2236 105.9 14.2767 106.114 14.2413 106.132Z" fill="#263238"/>
<path d="M31.6159 62.4333L28.2197 64.7003L28.2728 65.5928L29.1572 67.4849C29.1572 67.4849 29.5641 67.8776 30.7669 66.646C31.9697 65.4143 33.4909 62.9689 33.4909 62.9689L31.6159 62.4333Z" fill="#BA7F72"/>
<path d="M37.3264 57.7213C37.291 57.6321 37.2026 57.5607 37.0964 57.5607L35.4337 57.3286C35.2922 57.3108 35.133 57.3643 35.0269 57.4536L30.251 61.5948L30.4632 61.809L32.2498 62.2374L37.3441 57.7927L37.3264 57.7213Z" fill="#263238"/>
<path d="M36.0115 58.0617C36.0292 58.0974 36.1 58.0974 36.153 58.0796C36.2061 58.0439 36.2238 57.9903 36.2061 57.9546C36.1884 57.9189 36.1176 57.9189 36.0646 57.9368C36.0115 57.9546 35.9938 58.026 36.0115 58.0617Z" fill="white"/>
<path d="M37.3725 57.7918C37.3725 57.7918 37.2487 57.7918 37.0364 57.774C36.8065 57.7383 36.5057 57.7204 36.152 57.6669C35.9574 57.649 35.7628 57.6133 35.5329 57.5955C35.4267 57.5776 35.3206 57.5955 35.2499 57.6669C35.1614 57.7383 35.073 57.8275 34.9845 57.8989C34.6131 58.2202 34.1885 58.5772 33.764 58.9521C32.8973 59.7018 32.1013 60.3801 31.5353 60.862C31.2522 61.0941 31.0223 61.2904 30.8454 61.4332C30.6862 61.5582 30.5978 61.6296 30.5801 61.6296C30.5801 61.6296 30.6508 61.5403 30.81 61.3975C30.9869 61.2547 31.1992 61.0405 31.4645 60.8085C32.0305 60.3087 32.8088 59.6304 33.6756 58.8807C34.1178 58.5058 34.5246 58.1488 34.8961 57.8275C34.9845 57.7383 35.0907 57.6669 35.1791 57.5955C35.2852 57.5062 35.4267 57.4884 35.5329 57.5062C35.7451 57.5419 35.9574 57.5598 36.152 57.5955C36.5057 57.649 36.8065 57.7026 37.0364 57.7383C37.2487 57.7561 37.3725 57.774 37.3725 57.7918Z" fill="#455A64"/>
<path d="M35.6502 58.6499C35.6502 58.6499 35.491 58.5785 35.2965 58.989C35.0842 59.3996 34.4474 60.5956 34.4474 60.5956L33.7399 59.9173L32.6609 59.7566C32.6609 59.7566 32.3779 59.8994 32.5017 60.0601C32.6432 60.2207 33.2623 60.5242 33.2623 60.5242L33.5453 61.3631L32.3248 60.2921C32.3248 60.2921 31.8295 60.2743 31.8826 60.6134C31.9356 60.9526 32.6432 62.1128 32.6432 62.1128L31.9533 61.8629L31.2635 61.1132C31.2635 61.1132 30.9981 61.0597 31.0335 61.2917C31.0689 61.5416 31.7234 62.5769 31.7234 62.5769L32.6255 63.398C32.6255 63.398 33.2092 63.523 33.3153 63.3623C33.4215 63.2017 33.4922 62.9696 33.4922 62.9696C33.4922 62.9696 33.8283 62.9696 33.9168 62.8447C34.0229 62.7197 34.0406 62.4698 34.0406 62.4698C34.0406 62.4698 34.5005 62.684 34.6243 62.4341C34.7658 62.1842 34.8542 61.6309 34.8719 61.4167C34.8896 61.2025 35.6679 59.346 35.6679 59.2746C35.6679 59.2032 35.9863 58.6142 35.6502 58.6499Z" fill="#BA7F72"/>
<path d="M33.3319 63.378C33.3319 63.3958 33.2258 63.4137 33.0312 63.378C32.8543 63.3601 32.589 63.2887 32.3413 63.1459C32.0937 63.0031 31.8991 62.8246 31.793 62.6818C31.6692 62.539 31.6338 62.4319 31.6338 62.4141C31.6692 62.3962 31.9168 62.7711 32.3944 63.0388C32.872 63.3244 33.3319 63.3423 33.3319 63.378Z" fill="#8B5D54"/>
<path d="M33.1752 62.9319C33.1575 62.9498 32.9983 62.807 32.8391 62.5749C32.6799 62.3607 32.5915 62.1465 32.6269 62.1287C32.6623 62.1108 32.7861 62.2893 32.9276 62.5035C33.0868 62.7177 33.1929 62.9141 33.1752 62.9319Z" fill="#8B5D54"/>
<path d="M34.02 62.1653C34.0024 62.1832 33.8432 62.0404 33.7017 61.8083C33.5601 61.5763 33.5071 61.3799 33.5248 61.3621C33.5601 61.3442 33.6486 61.5406 33.7901 61.7548C33.9139 61.969 34.0377 62.1475 34.02 62.1653Z" fill="#8B5D54"/>
<path d="M34.784 61.5962C34.7486 61.5962 34.6955 61.3642 34.5894 61.1143C34.4833 60.8465 34.3595 60.6502 34.3948 60.6323C34.4125 60.6145 34.5894 60.793 34.6955 61.0786C34.8194 61.3463 34.8194 61.5962 34.784 61.5962Z" fill="#8B5D54"/>
<path d="M22.2046 43.9402C21.4793 44.2793 20.3473 44.7791 19.6928 45.2432C19.5336 45.3503 19.3744 45.5288 19.4628 45.6895C19.5336 45.8323 19.852 45.9215 20.0289 45.9572C20.5949 46.0643 21.9215 46.0465 22.7883 45.6181L22.2046 43.9402Z" fill="#455A64"/>
<path d="M22.7076 48.1182C22.4599 47.315 22.2123 46.5117 22.1061 45.6728C22 44.8338 22.0354 43.977 22.3361 43.1916C22.3892 43.0667 22.7606 42.2812 22.9021 42.2812C22.9906 42.2991 22.7429 43.031 22.796 43.1202C23.2205 43.8699 23.3267 44.7803 23.2382 45.6549C23.1675 46.5117 22.9729 47.2971 22.7076 48.1182Z" fill="#263238"/>
<path d="M26.5651 57.8997C25.2738 57.8461 22.5498 54.0619 22.5675 52.7589L22.6736 44.9048C22.6382 42.7985 23.8234 41.0135 25.9106 41.0314L26.1052 41.0492C28.0509 41.1742 29.5721 42.7985 29.5898 44.762C29.6075 46.5828 29.6252 48.6177 29.5368 49.5816C29.3776 51.5986 27.3611 51.7771 27.3611 51.7771C27.3611 51.7771 27.3434 52.2412 27.3257 52.8481C27.2903 54.1869 27.8033 57.9354 26.4943 57.8818L26.5651 57.8997Z" fill="#BA7F72"/>
<path d="M27.3597 51.7764C27.3597 51.7764 26.0861 51.7585 24.8125 50.8303C24.8125 50.8303 25.3432 52.3833 27.342 52.3476L27.3597 51.7764Z" fill="#8B5D54"/>
<path d="M28.8884 46.4194C28.8884 46.58 28.7469 46.6871 28.5877 46.6871C28.4285 46.6871 28.3047 46.5622 28.3047 46.4015C28.3047 46.2409 28.4462 46.1338 28.6054 46.1338C28.7646 46.1338 28.8884 46.2587 28.8884 46.4194Z" fill="#263238"/>
<path d="M29.1226 45.6197C29.0873 45.6554 28.875 45.4769 28.5743 45.4591C28.2736 45.4412 28.0259 45.584 28.0082 45.5305C27.9906 45.5126 28.0259 45.4412 28.1321 45.3877C28.2382 45.3163 28.3974 45.2627 28.592 45.2806C28.7865 45.2984 28.9457 45.3698 29.0342 45.4591C29.1049 45.5305 29.1403 45.6019 29.1226 45.6197Z" fill="#263238"/>
<path d="M26.0808 46.3502C26.0808 46.5108 25.9393 46.6179 25.7801 46.6179C25.6209 46.6179 25.4971 46.493 25.4971 46.3323C25.4971 46.1717 25.6386 46.0646 25.7978 46.0646C25.957 46.0824 26.0808 46.2074 26.0808 46.3502Z" fill="#263238"/>
<path d="M26.0855 45.4972C26.0501 45.5329 25.8379 45.3544 25.5372 45.3365C25.2365 45.3187 24.9888 45.4615 24.9711 45.4079C24.9535 45.3901 24.9888 45.3187 25.095 45.2651C25.2011 45.1937 25.3603 45.1402 25.5549 45.158C25.7494 45.1759 25.9086 45.2473 25.9971 45.3365C26.0678 45.4079 26.1032 45.4793 26.0855 45.4972Z" fill="#263238"/>
<path d="M26.9941 47.96C26.9941 47.9422 27.1887 47.9243 27.5071 47.9065C27.5779 47.9065 27.6663 47.8886 27.684 47.8351C27.7017 47.7815 27.684 47.6923 27.6486 47.603C27.5956 47.4067 27.5248 47.1925 27.454 46.9783C27.1887 46.1036 26.9941 45.3718 27.0295 45.3718C27.0649 45.3539 27.3125 46.0679 27.5779 46.9426C27.6486 47.1568 27.7017 47.371 27.7547 47.5673C27.7724 47.6566 27.8255 47.7637 27.7724 47.8886C27.7547 47.9422 27.684 47.9779 27.6309 47.9957C27.5779 48.0136 27.5425 48.0136 27.4894 48.0136C27.1887 47.9779 26.9941 47.9779 26.9941 47.96Z" fill="#263238"/>
<path d="M26.1375 44.3324C26.0844 44.4038 25.8014 44.2967 25.43 44.2788C25.0762 44.2431 24.7578 44.2788 24.7224 44.1896C24.7047 44.1539 24.7755 44.0825 24.8993 44.0289C25.0231 43.9754 25.2354 43.9397 25.4476 43.9575C25.6599 43.9754 25.8545 44.0468 25.9783 44.136C26.1021 44.2074 26.1552 44.2967 26.1375 44.3324Z" fill="#263238"/>
<path d="M29.0921 44.8856C29.0213 44.957 28.7737 44.8678 28.473 44.8499C28.1723 44.8142 27.9069 44.8678 27.8539 44.7964C27.8362 44.7607 27.8716 44.6893 27.9954 44.6357C28.1015 44.5822 28.2961 44.5286 28.5084 44.5465C28.7206 44.5643 28.8975 44.6357 28.9859 44.7071C29.0921 44.7785 29.1275 44.8499 29.0921 44.8856Z" fill="#263238"/>
<path d="M22.7543 46.4211C22.719 46.4033 21.41 45.9213 21.3569 47.2958C21.3039 48.6881 22.7013 48.4382 22.7013 48.4025C22.7013 48.3668 22.7543 46.4211 22.7543 46.4211Z" fill="#BA7F72"/>
<path d="M22.2702 47.8679C22.2702 47.8679 22.2526 47.8858 22.1995 47.9036C22.1641 47.9215 22.0934 47.9393 22.0226 47.9036C21.8811 47.8501 21.7573 47.6002 21.775 47.3503C21.775 47.2253 21.8103 47.1004 21.8457 47.0111C21.8988 46.904 21.9519 46.8505 22.0403 46.8326C22.111 46.8148 22.1641 46.8683 22.1818 46.904C22.1995 46.9397 22.1818 46.9754 22.1995 46.9754C22.1995 46.9754 22.2349 46.9576 22.2172 46.904C22.2172 46.8683 22.1995 46.8505 22.1641 46.8148C22.1287 46.7791 22.0757 46.7791 22.0403 46.7791C21.9342 46.7791 21.828 46.8862 21.775 46.9933C21.7219 47.1004 21.6865 47.2432 21.6865 47.3681C21.6865 47.6537 21.8103 47.9215 22.0226 47.975C22.111 48.0107 22.1995 47.975 22.2349 47.9393C22.2702 47.9036 22.2702 47.8679 22.2702 47.8679Z" fill="#8B5D54"/>
<path d="M28.765 42.4411C28.995 42.3162 28.3405 41.5843 27.8099 41.3166C26.9962 40.9239 25.7403 40.6561 24.9797 40.8525C24.0599 41.0845 23.2816 41.5308 22.804 42.3519C22.3264 43.173 22.1318 44.1547 22.1318 45.1186C22.1318 45.4042 22.1495 45.7255 22.3087 45.9754C22.4856 46.2789 22.8571 46.4931 22.8217 46.9036C22.804 47.0643 22.8571 47.2071 22.9455 47.332C23.1932 47.5998 23.5115 47.3677 23.6531 47.1178C23.9714 46.5823 24.0245 45.9397 24.0599 45.315C24.0953 44.8687 24.113 44.4225 24.0068 43.9941C23.9538 43.762 23.8476 43.5478 23.7946 43.2979C23.7415 43.0659 23.7592 42.7981 23.9184 42.6018C23.9361 42.5661 23.9891 42.5304 24.0245 42.4947C24.4137 42.1555 24.962 42.0663 25.4573 42.2626C26.2179 42.5661 27.5268 43.0123 27.8806 42.7446C28.3936 42.3697 28.5174 42.1377 28.5174 42.1377L28.765 42.4411Z" fill="#263238"/>
<path d="M26.1669 48.1C26.1492 48.1 26.1315 48.1714 26.1669 48.2963C26.1846 48.4213 26.273 48.5819 26.3969 48.7069C26.5384 48.8318 26.6799 48.9032 26.786 48.9568C26.8921 48.9925 26.9629 49.0103 26.9806 48.9925C26.9983 48.9746 26.9275 48.9211 26.8391 48.8675C26.7506 48.7961 26.6091 48.7247 26.503 48.5998C26.2554 48.3856 26.22 48.0821 26.1669 48.1Z" fill="#263238"/>
<path d="M28.2362 41.2807C27.2102 40.3168 25.6536 39.9955 24.3447 40.5131C23.1419 40.9951 21.9921 42.191 21.8506 43.5119L21.886 44.4758L22.0628 44.3866C23.2126 43.9582 24.4862 43.4762 25.2291 43.3156C26.768 43.0121 29.4036 43.5119 29.4036 43.5119C29.2621 42.673 28.8553 41.8697 28.2362 41.2807Z" fill="#455A64"/>
<path d="M28.132 42.4762C28.0612 42.3513 27.902 42.2799 27.7605 42.2263C27.2475 42.0657 26.6992 42.1014 26.1862 42.1906C26.0624 42.2085 25.9209 42.2442 25.8148 42.3156C25.7086 42.387 25.6379 42.5298 25.6733 42.6547C25.7263 42.8332 25.9563 42.8868 26.1509 42.8689C26.3277 42.8511 26.4339 42.8868 26.7346 42.7797C27.106 42.7261 27.4775 42.744 27.849 42.8154C27.902 42.8332 27.9728 42.8511 28.0258 42.8332C28.1497 42.8154 28.2027 42.6012 28.132 42.4762Z" fill="#263238"/>
<path d="M26.5383 42.6017C26.8036 42.6553 27.0159 42.8516 27.1043 43.1015C27.1928 43.3514 27.1574 43.6549 26.9982 43.8691C27.1928 43.8155 27.3697 43.6549 27.4404 43.4585C27.4935 43.6013 27.4935 43.762 27.4404 43.9048C27.6173 43.8155 27.7765 43.6727 27.8826 43.4942C27.918 43.6549 27.9357 43.8334 27.9003 44.0119C28.1126 43.8869 28.2541 43.6906 28.3072 43.4585C28.3602 43.2265 28.3602 42.9944 28.2895 42.7624C28.2364 42.6017 28.1657 42.4232 28.0065 42.334C27.8649 42.2447 27.6881 42.2626 27.5289 42.2626C27.1751 42.2804 26.839 42.2983 26.5029 42.3875" fill="#263238"/>
<path d="M29.4399 43.119C29.4399 43.119 29.3338 43.1011 29.1392 43.0833C29.0508 43.0654 28.927 43.0476 28.7855 43.0297C28.644 43.0119 28.5024 42.9762 28.3256 42.9762C27.9895 42.9405 27.5826 42.9048 27.1227 42.9048C26.6628 42.9048 26.1676 42.9226 25.6546 42.9762C25.1416 43.0297 24.6463 43.119 24.2041 43.2261C23.7619 43.3332 23.3728 43.4581 23.0544 43.5652C22.8952 43.6188 22.7537 43.6723 22.6122 43.7259C22.4883 43.7794 22.3822 43.8151 22.2938 43.8508C22.1169 43.9222 22.0107 43.9579 22.0107 43.9579C22.0107 43.9579 22.0992 43.9044 22.2761 43.8151C22.3645 43.7794 22.4706 43.7259 22.5945 43.6723C22.7183 43.6188 22.8598 43.5474 23.019 43.4938C23.3374 43.3689 23.7265 43.2439 24.1687 43.1368C24.611 43.0297 25.1062 42.9405 25.6369 42.8691C26.1676 42.8155 26.6628 42.7977 27.1227 42.8155C27.5826 42.8334 27.9895 42.8691 28.3256 42.9226C28.5024 42.9405 28.644 42.9762 28.7855 42.994C28.927 43.0119 29.0331 43.0476 29.1215 43.0654C29.3338 43.0833 29.4399 43.119 29.4399 43.119Z" fill="#263238"/>
<path d="M25.2119 40.3527C25.2119 40.3705 25.0527 40.4776 24.8227 40.674C24.5928 40.8882 24.3098 41.2095 24.0975 41.62C23.8852 42.0306 23.7614 42.459 23.726 42.7624C23.673 43.0659 23.6907 43.2622 23.673 43.2622C23.673 43.2622 23.6553 43.2087 23.6553 43.1194C23.6553 43.0302 23.6553 42.9052 23.673 42.7446C23.7083 42.4233 23.7968 41.9949 24.0267 41.5665C24.2567 41.1559 24.5574 40.8168 24.7873 40.6204C24.9112 40.5133 25.0173 40.4419 25.088 40.4062C25.1765 40.3705 25.2119 40.3527 25.2119 40.3527Z" fill="#263238"/>
<path d="M27.2279 42.2621C27.2102 42.2621 27.1925 42.1193 27.1218 41.9051C27.051 41.6909 26.9095 41.4053 26.7149 41.1197C26.5027 40.8341 26.255 40.6378 26.0782 40.5128C25.8836 40.3879 25.7598 40.3165 25.7598 40.3165C25.7598 40.2986 25.9013 40.3522 26.1135 40.4593C26.3081 40.5842 26.5734 40.7806 26.8034 41.0662C27.0157 41.3518 27.1572 41.6552 27.2102 41.8873C27.2456 42.1193 27.2456 42.2621 27.2279 42.2621Z" fill="#263238"/>
<g opacity="0.3">
<path d="M22.1014 44.3684C21.2347 44.7611 20.2972 45.1181 19.625 45.8321C19.625 45.8321 19.7488 45.9035 19.9965 45.9571C20.2795 46.0106 20.6863 46.0463 21.0932 46.0285C21.8361 45.9749 22.1722 45.85 22.1722 45.85L22.1014 44.3684Z" fill="black"/>
</g>
<path d="M16.2086 72.1609L15.3242 77.7301L15.9787 82.3354L16.0141 83.335L16.6686 88.2438C16.6686 88.2438 16.4209 92.867 16.2971 93.8844C16.1733 94.884 16.5978 109.039 16.5978 109.039L21.0553 108.843C21.0553 108.843 22.7357 87.8511 22.7357 87.6191C22.7357 87.387 25.0529 71.911 25.0529 71.911L16.2086 72.1609Z" fill="#263238"/>
<path d="M27.4947 73.0357C27.4947 73.0357 27.4063 91.8854 26.9818 92.9921C26.5572 94.081 14.8474 105.808 14.8474 105.808L11.1328 102.881L20.6139 90.0111L21.1976 72.0361L27.4947 73.0357Z" fill="#263238"/>
<path d="M24.3817 77.9624C24.3994 77.9624 23.851 82.7284 23.1435 88.601C22.4359 94.4737 21.8345 99.2218 21.8168 99.2218C21.7991 99.2218 22.3475 94.4559 23.055 88.5832C23.7626 82.7105 24.3463 77.9624 24.3817 77.9624Z" fill="#455A64"/>
<path d="M16.65 88.2615C16.65 88.2615 16.65 88.2793 16.65 88.315C16.65 88.3507 16.65 88.4043 16.65 88.4578C16.6323 88.5828 16.6323 88.7613 16.6146 88.9755C16.5792 89.4217 16.5439 90.0822 16.4908 90.9033C16.4023 92.5276 16.3316 94.7767 16.3493 97.2579C16.367 99.7391 16.4377 101.988 16.4908 103.613C16.5085 104.416 16.5262 105.076 16.5439 105.54C16.5439 105.755 16.5439 105.933 16.5439 106.058C16.5439 105.933 16.5262 105.755 16.5262 105.54C16.5085 105.076 16.4908 104.416 16.4554 103.613C16.4023 101.988 16.3139 99.7391 16.2962 97.2579C16.2785 94.7767 16.367 92.5276 16.4731 90.9033C16.5262 90.0822 16.5792 89.4396 16.6323 88.9755C16.65 88.7613 16.6677 88.5828 16.6854 88.4578C16.6854 88.4043 16.703 88.3507 16.703 88.315C16.65 88.2793 16.65 88.2615 16.65 88.2615Z" fill="#455A64"/>
<path d="M21.1658 77.5696C21.1835 77.5875 20.3698 78.0159 19.3439 78.5335C18.3357 79.0512 17.5043 79.4439 17.4866 79.4082C17.4689 79.3903 18.2826 78.9619 19.3085 78.4443C20.3345 77.9266 21.1658 77.5339 21.1658 77.5696Z" fill="#455A64"/>
<path d="M30.1476 62.9685L32.3941 65.0034C32.3941 65.0034 28.8917 68.8769 27.795 69.7158C26.716 70.5726 28.2196 63.9324 28.2196 63.9324L30.1476 62.9685Z" fill="#5FB8AB"/>
<path d="M22.5433 50.884L21.6058 52.1871L17.9797 53.5437L16.3346 65.9852L15.291 77.0879C15.291 77.0879 16.7415 74.9995 17.8559 74.9638C18.9702 74.9281 24.5952 76.5167 24.9667 76.8023L25.7096 74.2855L26.3287 77.2129C26.3287 77.2129 27.39 77.4449 27.9383 75.8563L27.7084 70.3406C27.7084 70.3406 28.4513 60.3803 28.4159 58.8809C28.3806 57.3815 27.3723 53.2045 27.3723 53.2045L27.0008 54.4362L23.7108 51.6337L22.5433 50.884Z" fill="#5FB8AB"/>
<path d="M19.0385 53.1688C19.0385 53.1688 16.6505 53.1688 15.8899 57.6135C15.1116 62.076 14.0149 66.842 14.581 68.627C15.147 70.412 17.3935 75.5528 17.3935 75.5528L20.4713 74.4282L19.2154 66.3422L20.6658 58.4346C20.6482 58.4524 20.825 53.4901 19.0385 53.1688Z" fill="#5FB8AB"/>
<path d="M21.7841 76.2313C21.7841 76.2313 20.316 74.4999 20.2098 74.5356L17.7865 75.4281C17.7865 75.4281 17.6981 76.3027 17.8042 77.3202C17.8926 78.2305 18.0518 79.1944 18.0518 79.1944L21.2535 77.4808C21.2535 77.4808 21.395 78.1591 21.5719 78.534C21.7487 78.9088 22.3678 78.5161 22.3678 78.5161L21.7841 76.2313Z" fill="#BA7F72"/>
<path d="M20.6514 58.4527C20.6514 58.4527 20.6514 58.5062 20.6338 58.5955C20.6161 58.6847 20.5984 58.8275 20.563 59.006C20.4923 59.3809 20.4038 59.8985 20.28 60.5947C20.0323 61.9691 19.6786 63.9505 19.2364 66.3781V66.3602C19.5901 68.6629 20.0323 71.4118 20.5099 74.4463V74.482L20.4746 74.4999C19.484 74.8569 18.4581 75.2317 17.4144 75.6244L17.3791 75.6423L17.3614 75.6066C17.043 74.8747 16.7246 74.1072 16.3885 73.3218C15.8048 71.9294 15.2387 70.555 14.7435 69.1984C14.6727 69.0377 14.6196 68.8592 14.5666 68.6986C14.5312 68.6093 14.5312 68.5201 14.4958 68.4308C14.4781 68.3416 14.4605 68.2523 14.4428 68.1631C14.4251 67.9846 14.3897 67.8061 14.3897 67.6276C14.3897 67.4491 14.372 67.2706 14.3897 67.1099C14.4074 66.4138 14.4781 65.7355 14.5666 65.0929C14.7435 63.7898 14.9557 62.5582 15.168 61.3979C15.3803 60.2555 15.5748 59.1667 15.7517 58.2028C15.8402 57.7208 15.9286 57.2389 16.0347 56.8104C16.0878 56.5962 16.1586 56.382 16.2116 56.1857C16.2824 55.9893 16.3531 55.793 16.4239 55.6145C16.7246 54.8826 17.1137 54.3114 17.5206 53.9187C17.9274 53.526 18.3342 53.3475 18.5996 53.2583C18.7411 53.2226 18.8472 53.2047 18.918 53.1869C18.9533 53.1869 18.9887 53.1869 19.0064 53.1869C19.0241 53.1869 19.0418 53.1869 19.0418 53.1869C19.0418 53.1869 19.0064 53.1869 18.9357 53.2047C18.8649 53.2226 18.7588 53.2404 18.6173 53.2761C18.3519 53.3654 17.9451 53.5617 17.556 53.9366C17.1491 54.3114 16.7777 54.9005 16.4769 55.6145C16.4062 55.793 16.3354 55.9893 16.2647 56.1857C16.2116 56.382 16.1409 56.5962 16.0878 56.8104C15.9994 57.2389 15.8932 57.703 15.8225 58.2028C15.6456 59.1845 15.451 60.2555 15.2387 61.4158C15.0265 62.576 14.8142 63.7898 14.6373 65.1107C14.5489 65.7712 14.4781 66.4316 14.4781 67.1278C14.4781 67.3063 14.4781 67.4669 14.4781 67.6454C14.4781 67.8239 14.4958 67.9846 14.5312 68.1631C14.5312 68.2523 14.5489 68.3416 14.5843 68.413C14.602 68.5022 14.6196 68.5915 14.655 68.6629C14.7081 68.8235 14.7612 69.002 14.8319 69.1627C15.3272 70.5014 15.8932 71.8759 16.4769 73.2682C16.813 74.0536 17.1314 74.8212 17.4498 75.553L17.3968 75.5352C18.4581 75.1603 19.484 74.7855 20.4746 74.4285L20.4392 74.482C19.9793 71.4653 19.5371 68.6986 19.1833 66.3959C19.6432 63.9683 19.997 62.0048 20.2623 60.6304C20.3861 59.9521 20.4923 59.4166 20.563 59.0417C20.5984 58.8632 20.6338 58.7204 20.6514 58.6312C20.6338 58.4884 20.6514 58.4527 20.6514 58.4527Z" fill="#263238"/>
<path d="M26.9838 54.4539C26.9838 54.4539 26.9661 54.5074 26.9131 54.6145C26.86 54.7395 26.7893 54.8823 26.6831 55.0608C26.4885 55.4535 26.2055 55.989 25.8871 56.6316L25.8518 56.6851L25.8164 56.6316C25.5334 56.2389 25.1973 55.8105 24.8435 55.3821C24.136 54.5253 23.4461 53.7934 22.9155 53.2936C22.6501 53.0437 22.4379 52.8474 22.2964 52.7046C22.1548 52.5618 22.0664 52.4904 22.0664 52.4904C22.0664 52.4904 22.1548 52.5618 22.314 52.6867C22.4732 52.8117 22.6855 53.008 22.9685 53.2579C23.4992 53.7577 24.2067 54.4717 24.932 55.3285C25.2857 55.7748 25.6218 56.2032 25.9048 56.5959H25.8341C26.1702 55.9711 26.4532 55.4356 26.6654 55.0429C26.7716 54.8644 26.8423 54.7216 26.9131 54.5967C26.9484 54.4896 26.9838 54.436 26.9838 54.4539Z" fill="#263238"/>
<path d="M27.7784 55.1148C27.8138 55.0969 27.9553 55.6681 27.8491 56.4178L27.8315 56.5428L27.7607 56.4178C27.7253 56.3464 27.6899 56.2929 27.6546 56.2215C27.4777 55.8288 27.3892 55.4539 27.3008 55.204C27.2124 54.9363 27.1416 54.7935 27.1416 54.7935C27.1593 54.7935 27.2477 54.9363 27.3539 55.1862C27.46 55.4361 27.5661 55.8109 27.743 56.1858C27.7784 56.2572 27.8138 56.3286 27.8491 56.3821L27.7607 56.4C27.8315 56.043 27.8138 55.7217 27.7961 55.4896C27.7961 55.2576 27.7784 55.1148 27.7784 55.1148Z" fill="#263238"/>
<path d="M27.1446 55.097C27.1446 55.097 27.1446 55.1149 27.1446 55.1506C27.1446 55.1863 27.1446 55.2398 27.1446 55.2934C27.1446 55.4183 27.1446 55.6147 27.1446 55.8467C27.1446 56.3287 27.1092 57.0427 27.0738 57.9174C26.9854 59.6667 26.7731 62.0586 26.5609 64.7182C26.3309 67.36 26.1363 69.7698 25.9771 71.5012C25.9064 72.3581 25.8356 73.0721 25.8002 73.554C25.7826 73.7861 25.7649 73.9824 25.7472 74.1074C25.7472 74.1609 25.7295 74.2145 25.7295 74.2502C25.7295 74.2145 25.7295 74.1609 25.7295 74.1074C25.7472 73.9646 25.7472 73.7861 25.7649 73.554C25.8002 73.0542 25.8533 72.3581 25.9241 71.5012C26.0656 69.7519 26.2601 67.36 26.4724 64.7004C26.6847 62.0407 26.9146 59.6488 27.0208 57.9174C27.0738 57.0427 27.1092 56.3466 27.1269 55.8467C27.1269 55.6147 27.1446 55.4183 27.1446 55.2934C27.1446 55.2398 27.1446 55.1863 27.1446 55.1506C27.1269 55.1149 27.1446 55.097 27.1446 55.097Z" fill="#263238"/>
<path d="M28.4143 60.3087C28.432 60.3087 28.3082 62.5757 28.1136 65.3603C27.919 68.1449 27.7421 70.394 27.7068 70.394C27.6891 70.394 27.8129 68.127 28.0075 65.3424C28.2197 62.5757 28.3966 60.3087 28.4143 60.3087Z" fill="#263238"/>
<path d="M21.2534 56.4353C21.2357 56.4353 21.2357 56.2211 21.1473 55.8641C21.0588 55.525 20.8643 55.0609 20.5105 54.6682C20.1567 54.2755 19.7145 54.0434 19.3784 53.9185C19.0423 53.7935 18.8301 53.7757 18.8301 53.7578C18.8301 53.7578 18.8831 53.7578 18.9893 53.7578C19.0954 53.7757 19.2369 53.7935 19.3961 53.8471C19.7322 53.9542 20.1921 54.1862 20.5636 54.5968C20.935 55.0073 21.1296 55.4893 21.2003 55.8463C21.2357 56.0248 21.2534 56.1676 21.2534 56.2747C21.2534 56.3818 21.2534 56.4353 21.2534 56.4353Z" fill="#263238"/>
<g opacity="0.3">
<path d="M27.8516 69.6444C28.5237 67.8236 28.6475 65.7887 28.2053 63.8788C28.0815 65.8066 27.9577 67.7522 27.8516 69.6801" fill="black"/>
</g>
<path d="M20.2604 60.47C20.2604 60.47 20.1896 60.4521 20.0835 60.4164C19.9597 60.3629 19.8005 60.3093 19.6059 60.2201C19.199 60.0594 18.6507 59.8452 18.0316 59.6132C17.4125 59.3811 16.8465 59.1848 16.4396 59.042C16.2451 58.9706 16.0859 58.917 15.962 58.8813C15.8559 58.8456 15.7852 58.8099 15.7852 58.8099C15.7852 58.8099 15.8559 58.8099 15.962 58.8456C16.0859 58.8813 16.2451 58.917 16.4573 58.9884C16.8642 59.1134 17.4479 59.3097 18.067 59.5418C18.6861 59.7738 19.2344 60.0059 19.6413 60.1844C19.8358 60.2736 19.995 60.345 20.1012 60.3986C20.2073 60.4343 20.2781 60.4521 20.2604 60.47Z" fill="white"/>
<path d="M20.9129 55.2216C20.9129 55.2395 20.7184 55.1681 20.4 55.0788C20.0816 54.9896 19.6394 54.8468 19.1441 54.7218C18.6488 54.5969 18.2066 54.4898 17.8705 54.4184C17.5521 54.347 17.3398 54.3113 17.3398 54.2934C17.3398 54.2756 17.5521 54.2934 17.8705 54.347C18.2066 54.4005 18.6488 54.4898 19.1441 54.6147C19.6394 54.7397 20.0816 54.8825 20.4 54.9896C20.7184 55.1324 20.9129 55.2038 20.9129 55.2216Z" fill="white"/>
<path d="M23.0576 53.455C23.0576 53.4728 22.3678 53.6335 21.501 53.812C20.6343 53.9726 19.9444 54.0976 19.9268 54.0797C19.9268 54.0619 20.6166 53.9012 21.4834 53.7227C22.3501 53.5442 23.0399 53.4193 23.0576 53.455Z" fill="white"/>
<path d="M23.4795 51.6337C23.4972 51.6515 23.3026 51.9371 23.055 52.2763C22.8074 52.6154 22.5774 52.8832 22.5597 52.8653C22.542 52.8475 22.7366 52.5619 22.9842 52.2227C23.2319 51.8836 23.4618 51.6158 23.4795 51.6337Z" fill="white"/>
<path d="M25.9901 53.7757C26.0078 53.7935 25.7779 54.1505 25.4948 54.579C25.1941 55.0074 24.9465 55.3465 24.9111 55.3287C24.8934 55.3108 25.1234 54.9538 25.4064 54.5254C25.7248 54.097 25.9724 53.7578 25.9901 53.7757Z" fill="white"/>
<path d="M26.9155 59.3454C26.9155 59.3454 26.8271 59.3454 26.6679 59.3276C26.5087 59.3097 26.2787 59.2919 25.9957 59.2562C25.4297 59.1848 24.6514 59.0598 23.8023 58.917C22.9533 58.7564 22.175 58.6136 21.6266 58.4886C21.3436 58.4172 21.1313 58.3815 20.9721 58.328C20.8129 58.2923 20.7422 58.2566 20.7422 58.2566C20.7422 58.2566 20.8306 58.2566 20.9898 58.2923C21.1667 58.328 21.379 58.3637 21.6443 58.4172C22.2103 58.5243 22.9709 58.6671 23.82 58.8278C24.669 58.9884 25.4473 59.1134 26.0134 59.2026C26.2787 59.2383 26.5087 59.2919 26.6855 59.3097C26.8271 59.3276 26.9155 59.3454 26.9155 59.3454Z" fill="white"/>
<path d="M28.4277 59.095C28.4277 59.1129 28.1093 59.0593 27.7201 58.9522C27.331 58.8451 27.0303 58.7559 27.0303 58.7202C27.0303 58.7023 27.3487 58.7559 27.7378 58.863C28.127 58.9701 28.4454 59.0772 28.4277 59.095Z" fill="white"/>
<path d="M26.4316 65.7532C26.4316 65.7711 24.8927 65.5212 22.9824 65.1999C21.0897 64.8607 19.5508 64.5751 19.5508 64.5573C19.5508 64.5394 21.0897 64.7893 23.0001 65.1106C24.9104 65.4319 26.4493 65.7175 26.4316 65.7532Z" fill="white"/>
<path d="M28.0241 65.6102C28.0241 65.6281 27.6704 65.5567 27.2635 65.4853C26.839 65.4139 26.5029 65.3603 26.5029 65.3246C26.5029 65.3068 26.8567 65.3068 27.2812 65.396C27.7058 65.4674 28.0241 65.5745 28.0241 65.6102Z" fill="white"/>
<path d="M30.4315 67.0206C30.4138 67.0384 29.9893 66.3244 29.4763 65.4498C28.981 64.5573 28.5742 63.8433 28.6096 63.8254C28.6273 63.8076 29.0518 64.5216 29.5648 65.3962C30.06 66.2887 30.4492 67.0027 30.4315 67.0206Z" fill="white"/>
<path d="M19.216 65.7354C19.216 65.7532 18.1901 65.6104 16.9342 65.3962C15.6783 65.182 14.6523 64.9857 14.6523 64.9678C14.6523 64.95 15.6783 65.0928 16.9342 65.307C18.1901 65.5212 19.216 65.7175 19.216 65.7354Z" fill="white"/>
<path d="M25.9589 71.2155C25.9589 71.2155 25.8704 71.2155 25.7112 71.2155C25.5521 71.2155 25.3221 71.1977 25.0568 71.1798C24.4907 71.1441 23.7301 71.0727 22.8811 70.9478C22.032 70.8228 21.2714 70.68 20.7408 70.555C20.4754 70.4836 20.2455 70.4301 20.104 70.3944C19.9448 70.3587 19.874 70.323 19.874 70.323C19.874 70.323 19.9625 70.323 20.1217 70.3587C20.2985 70.3944 20.5108 70.4301 20.7761 70.4837C21.3245 70.5908 22.0851 70.7335 22.9165 70.8585C23.7655 70.9835 24.5261 71.0549 25.0745 71.1084C25.3398 71.1263 25.5521 71.1441 25.7289 71.162C25.8704 71.1977 25.9589 71.2155 25.9589 71.2155Z" fill="white"/>
<path d="M27.7246 71.2867C27.7246 71.3046 27.3354 71.2867 26.8578 71.2153C26.3802 71.1439 26.0088 71.0725 26.0088 71.0547C26.0088 71.0368 26.3979 71.0547 26.8755 71.1261C27.3354 71.1975 27.7246 71.2689 27.7246 71.2867Z" fill="white"/>
<path d="M20.1201 72.1615C20.1201 72.1793 19.9432 72.2686 19.6248 72.4114C19.3064 72.5542 18.8642 72.7327 18.3689 72.9112C17.8736 73.0897 17.4137 73.2325 17.0776 73.3217C16.7416 73.411 16.5293 73.4645 16.5293 73.4467C16.5293 73.4288 16.7239 73.3753 17.06 73.2682C17.396 73.1611 17.8383 73.0183 18.3335 72.8398C18.8288 72.6613 19.271 72.4828 19.5894 72.3578C19.9255 72.2329 20.1201 72.1436 20.1201 72.1615Z" fill="white"/>
<g opacity="0.3">
<path d="M20.5262 59.1305C19.7479 63.2539 19.0934 67.163 19.1819 66.6275L20.4377 74.4458L21.1807 75.5704C20.5439 70.3225 20.0132 64.3606 20.5262 59.1305Z" fill="black"/>
</g>
<path d="M96.5566 54.1385C93.8059 54.4485 90.4012 54.3516 87.6505 54.061C86.4772 50.8645 87.3235 47.3967 87.5544 44.0065L93.5366 43.8127L96.5566 54.1385Z" fill="#263238"/>
<path d="M94.8363 43.406C94.8363 42.9798 94.5286 42.6117 94.1054 42.5729L90.2582 40.7519C88.8733 40.6163 87.4306 43.1154 87.3537 44.5296C87.2767 46.0988 87.4498 47.978 87.6422 49.1404C88.0269 51.4845 89.6042 51.5426 89.6042 51.5426L89.4311 59.5242L94.5286 55.3784L94.8363 43.406Z" fill="#FFBE9D"/>
<path d="M88.3965 46.6046C88.3965 46.7596 88.5311 46.8952 88.685 46.9146C88.8581 46.9146 88.9928 46.7984 88.9928 46.6434C88.9928 46.4884 88.8581 46.3528 88.7043 46.3334C88.5311 46.314 88.3965 46.4303 88.3965 46.6046Z" fill="#263238"/>
<path d="M87.7909 45.5751C87.8294 45.5945 88.0602 45.5751 88.368 45.6526C88.6758 45.7301 88.8874 45.8657 88.9258 45.8463C88.9451 45.8463 88.9066 45.7882 88.8104 45.7301C88.7143 45.672 88.5604 45.5945 88.368 45.5364C88.1757 45.4976 88.0025 45.4976 87.9064 45.517C87.8102 45.5364 87.7717 45.5751 87.7909 45.5751Z" fill="#263238"/>
<path d="M91.2178 46.3661C91.2178 46.5211 91.3524 46.6567 91.5063 46.676C91.6794 46.676 91.8141 46.5598 91.8141 46.4048C91.8141 46.2498 91.6794 46.1142 91.5255 46.0948C91.3524 46.0948 91.2178 46.2111 91.2178 46.3661Z" fill="#263238"/>
<path d="M90.9686 45.8078C91.0071 45.8271 91.2187 45.6528 91.5649 45.5559C91.8919 45.4591 92.1805 45.4784 92.1997 45.4591C92.2189 45.4397 92.1612 45.4203 92.0458 45.4009C91.9304 45.3816 91.738 45.4009 91.5265 45.4591C91.3149 45.5172 91.161 45.614 91.0648 45.6722C90.9686 45.7497 90.9494 45.8078 90.9686 45.8078Z" fill="#263238"/>
<path d="M89.8085 47.9587C89.8085 47.9393 89.6161 47.9006 89.2891 47.8618C89.2122 47.8618 89.1353 47.8424 89.116 47.7843C89.0968 47.7262 89.1353 47.6293 89.1737 47.5325C89.2507 47.3388 89.3276 47.1256 89.4046 46.8932C89.7316 46.002 89.9816 45.2465 89.9432 45.2465C89.9047 45.2271 89.6161 45.9439 89.2891 46.8544C89.2122 47.0675 89.1353 47.2806 89.0583 47.4937C89.0198 47.5906 88.9814 47.6875 89.0198 47.8231C89.0391 47.8812 89.0968 47.9199 89.1545 47.9393C89.2122 47.9587 89.2507 47.9587 89.2891 47.9587C89.5969 47.9587 89.8085 47.9587 89.8085 47.9587Z" fill="#263238"/>
<path d="M89.6035 51.5458C89.6035 51.5458 91.1808 51.662 92.7197 50.7128C92.7197 50.7128 91.9695 52.4563 89.642 52.2626L89.6035 51.5458Z" fill="#EB996E"/>
<path d="M89.8664 48.7337C90.0202 48.5012 90.2703 48.3269 90.4819 48.3075C90.6358 48.3075 90.7704 48.3656 90.8474 48.5012C90.9243 48.6368 90.9051 48.8693 90.8089 49.0437C90.6935 49.2374 90.4819 49.3149 90.328 49.2955C90.1741 49.2761 90.0395 49.1599 89.9241 49.0437C89.8856 49.0049 89.8664 48.9855 89.8471 48.9274C89.8087 48.8693 89.8087 48.8112 89.8664 48.7337Z" fill="#EB996E"/>
<path d="M90.7119 48.1732C90.6542 48.1732 90.6542 48.5219 90.3656 48.7738C90.0771 49.0256 89.6924 48.9869 89.6924 49.045C89.6924 49.0644 89.7693 49.1031 89.9232 49.1225C90.0771 49.1225 90.3079 49.0837 90.481 48.9288C90.6542 48.7738 90.7311 48.5607 90.7503 48.4251C90.7696 48.2507 90.7311 48.1732 90.7119 48.1732Z" fill="#263238"/>
<path d="M90.695 44.3946C90.7335 44.4721 91.0413 44.3946 91.426 44.414C91.8107 44.414 92.1185 44.4915 92.1569 44.3946C92.1762 44.3559 92.1185 44.2784 91.9838 44.2009C91.8492 44.1234 91.6568 44.0653 91.426 44.0653C91.1951 44.0653 91.0028 44.1234 90.8681 44.2009C90.7335 44.2784 90.6758 44.3559 90.695 44.3946Z" fill="#263238"/>
<path d="M87.6717 44.8773C87.7486 44.9548 88.0179 44.8773 88.3449 44.8579C88.6719 44.8385 88.9604 44.8966 89.0181 44.8192C89.0374 44.7804 88.9989 44.7029 88.8835 44.6448C88.7489 44.5673 88.5565 44.5286 88.3257 44.5286C88.0948 44.5286 87.9025 44.6061 87.7871 44.6835C87.6717 44.761 87.6332 44.8385 87.6717 44.8773Z" fill="#263238"/>
<path d="M97.1471 49.2371C96.9547 48.191 96.3776 44.8588 95.4736 43.0959C94.5695 41.3523 93.5308 40.6355 92.492 40.3837C91.4725 40.1125 90.3376 40.345 89.876 40.7712C89.4143 41.1974 89.472 42.4953 89.472 42.4953C89.472 42.4953 92.1073 43.0765 92.9537 44.4908C93.9155 46.0987 94.1655 46.9124 94.1655 46.9124L94.4925 47.8035C94.4925 47.8035 94.6849 52.4336 94.5887 53.2861L97.5318 54.0222C97.3009 52.9955 97.3394 50.2833 97.1471 49.2371Z" fill="#263238"/>
<path d="M89.5842 42.5728C89.5842 42.5728 88.18 42.4372 87.6799 44.0451C87.4491 44.7813 87.3914 46.893 87.3914 46.893C87.3914 46.893 87.0644 45.2075 87.1221 44.2582C87.1798 43.309 87.6414 42.1078 88.3531 41.4298C89.0456 40.7711 89.6419 40.4611 90.8923 40.5386C90.8923 40.5386 90.3152 40.7517 89.9882 41.2361C89.8535 41.4492 89.7766 41.6623 89.5842 42.5728Z" fill="#263238"/>
<path d="M94.171 47.0261C94.1902 46.503 94.7481 46.1543 95.1905 46.4062C95.4405 46.5418 95.6329 46.8324 95.6137 47.3748C95.5752 48.8472 94.1133 48.4984 94.1133 48.4597C94.1133 48.4403 94.1518 47.646 94.171 47.0261Z" fill="#FFBE9D"/>
<path d="M94.5186 47.9142C94.5186 47.9142 94.5378 47.9336 94.5763 47.953C94.6147 47.9724 94.6917 47.9917 94.7686 47.9724C94.9225 47.9142 95.0572 47.6818 95.0764 47.4105C95.0764 47.2749 95.0572 47.1393 95.0187 47.0425C94.9802 46.9262 94.9033 46.8487 94.8263 46.8487C94.7494 46.8294 94.6917 46.8681 94.6724 46.9069C94.6532 46.9456 94.6532 46.9843 94.6532 46.9843C94.6532 46.9843 94.6147 46.965 94.634 46.9069C94.634 46.8875 94.6532 46.8487 94.6917 46.81C94.7301 46.7906 94.7879 46.7712 94.8263 46.7712C94.9417 46.7906 95.0379 46.8875 95.0764 47.0037C95.1341 47.12 95.1533 47.2749 95.1533 47.4105C95.1341 47.7011 94.9802 47.9724 94.7686 48.0305C94.6724 48.0499 94.5763 48.0111 94.5378 47.9917C94.5186 47.953 94.5186 47.9336 94.5186 47.9142Z" fill="#EB996E"/>
<path d="M91.1128 48.2486C91.0936 48.2486 91.0166 48.1324 90.8628 48.0549C90.7089 47.9774 90.5742 48.0161 90.5742 47.9967C90.5742 47.9774 90.5935 47.958 90.6704 47.9386C90.7281 47.9193 90.8243 47.9193 90.9205 47.958C91.0166 47.9967 91.0743 48.0742 91.1128 48.1324C91.1321 48.2098 91.1128 48.2486 91.1128 48.2486Z" fill="#EB996E"/>
<path d="M91.2653 48.2493C91.2461 48.2493 91.1884 48.1718 91.1115 48.0749C91.0345 47.978 90.9383 47.9199 90.9576 47.8812C90.9768 47.8618 91.0922 47.8812 91.1884 47.9974C91.2846 48.1137 91.2846 48.2493 91.2653 48.2493Z" fill="#EB996E"/>
<path d="M88.0753 46.6026C88.0561 46.622 88.0176 46.622 87.9599 46.6026C87.9022 46.5832 87.8637 46.5445 87.8829 46.5057C87.9022 46.4864 87.9406 46.4864 87.9983 46.5057C88.0561 46.5445 88.0945 46.5832 88.0753 46.6026Z" fill="#EB996E"/>
<path d="M93.7054 104.39L94.1094 108.962L93.3784 112.682C93.3207 112.953 93.5131 113.205 93.7824 113.244C93.9363 113.263 94.0902 113.205 94.1863 113.089C94.8403 112.372 97.2256 109.718 97.1679 109.389C97.1102 109.001 97.0717 104.526 97.0717 104.526L93.7054 104.39Z" fill="#60696D"/>
<path d="M93.7793 113.245L97.1455 109.099L97.1648 109.293C97.184 109.468 97.1263 109.623 97.0301 109.758C96.7608 110.126 96.0106 111.095 94.2025 113.09C94.0871 113.207 93.9332 113.265 93.7793 113.245Z" fill="#263238"/>
<g opacity="0.6">
<path d="M96.1302 107.666C96.0148 107.744 95.9956 107.937 96.0725 108.034C96.1495 108.151 96.3226 108.17 96.438 108.092C96.5534 108.015 96.5919 107.802 96.4957 107.686C96.3995 107.589 96.1879 107.569 96.111 107.666" fill="#263238"/>
</g>
<path d="M94.7089 111.171C94.6896 111.19 94.5742 110.958 94.2857 110.842C94.0164 110.725 93.7663 110.803 93.7471 110.783C93.7471 110.764 93.8048 110.725 93.901 110.706C93.9971 110.687 94.151 110.687 94.3049 110.745C94.4588 110.803 94.5742 110.919 94.6319 111.016C94.7089 111.093 94.7089 111.171 94.7089 111.171Z" fill="#263238"/>
<path d="M94.4166 111.811C94.3974 111.83 94.2435 111.695 93.9934 111.637C93.7626 111.578 93.551 111.637 93.551 111.617C93.5318 111.598 93.7434 111.482 94.0127 111.54C94.282 111.598 94.4359 111.792 94.4166 111.811Z" fill="#263238"/>
<path d="M95.2397 110.34C95.2204 110.359 94.9896 110.146 94.6241 110.03C94.2586 109.913 93.9509 109.952 93.9316 109.913C93.9316 109.894 94.2586 109.797 94.6434 109.933C95.0473 110.068 95.2589 110.34 95.2397 110.34Z" fill="#263238"/>
<path d="M95.2483 108.944C95.2291 108.963 94.979 108.886 94.652 108.886C94.325 108.886 94.075 108.983 94.0557 108.963C94.0365 108.944 94.2866 108.789 94.652 108.789C94.9983 108.789 95.2676 108.925 95.2483 108.944Z" fill="#263238"/>
<path d="M95.163 107.588C95.1438 107.607 94.8937 107.472 94.5475 107.51C94.2012 107.549 93.9704 107.723 93.9512 107.704C93.9512 107.704 93.9896 107.627 94.0858 107.568C94.182 107.491 94.3359 107.433 94.5282 107.413C94.7206 107.394 94.8745 107.433 94.9899 107.472C95.1053 107.53 95.163 107.588 95.163 107.588Z" fill="#263238"/>
<path d="M94.54 107.259C94.54 107.259 94.5208 107.201 94.5208 107.085C94.5208 106.968 94.54 106.813 94.6362 106.62C94.6747 106.523 94.7324 106.426 94.8478 106.348C94.9055 106.31 95.0017 106.329 95.0594 106.368C95.1171 106.426 95.1363 106.503 95.1363 106.561C95.1556 106.852 94.9247 107.143 94.5977 107.22C94.2707 107.278 93.9629 107.104 93.8283 106.871C93.7898 106.813 93.7706 106.736 93.8091 106.658C93.8475 106.581 93.9245 106.542 94.0014 106.542C94.1361 106.561 94.2322 106.62 94.3092 106.678C94.4823 106.794 94.5785 106.93 94.6362 107.007C94.6939 107.104 94.7131 107.162 94.7131 107.162C94.6939 107.181 94.5785 106.949 94.2515 106.736C94.1745 106.678 94.0784 106.62 93.9822 106.62C93.9437 106.62 93.886 106.639 93.886 106.678C93.8668 106.716 93.886 106.775 93.9052 106.813C94.0206 107.007 94.3092 107.162 94.5785 107.104C94.8478 107.046 95.0594 106.794 95.0401 106.561C95.0401 106.503 95.0209 106.445 94.9824 106.426C94.944 106.387 94.9055 106.387 94.867 106.407C94.7901 106.445 94.7324 106.542 94.6747 106.639C94.5208 107.007 94.5592 107.278 94.54 107.259Z" fill="#263238"/>
<path d="M89.8204 104.176L89.8781 107.973C89.8781 107.973 86.0694 109.31 86.0117 110.027L93.3213 110.162L93.4559 104.234L89.8204 104.176Z" fill="#60696D"/>
<path d="M92.138 107.703C92.2726 107.742 92.3688 107.916 92.3303 108.052C92.2919 108.187 92.138 108.304 91.9841 108.246C91.8495 108.207 91.7148 108.013 91.7725 107.877C91.8302 107.742 92.0226 107.626 92.1572 107.703" fill="#263238"/>
<path d="M93.3244 110.164V109.564L86.3034 109.661C86.3034 109.661 85.9764 109.796 86.0149 110.029L93.3244 110.164Z" fill="#263238"/>
<path d="M89.752 107.935C89.752 107.974 89.9251 107.993 90.0982 108.11C90.2713 108.226 90.3675 108.381 90.3867 108.361C90.4252 108.361 90.3675 108.148 90.1559 107.993C89.9635 107.877 89.752 107.916 89.752 107.935Z" fill="#263238"/>
<path d="M88.9805 108.249C88.9805 108.287 89.1344 108.346 89.2498 108.501C89.3652 108.656 89.4037 108.811 89.4421 108.811C89.4806 108.811 89.4998 108.597 89.3459 108.423C89.1921 108.229 88.9805 108.21 88.9805 108.249Z" fill="#263238"/>
<path d="M88.5433 109.176C88.5817 109.176 88.6202 109.002 88.5433 108.808C88.4471 108.614 88.2932 108.537 88.274 108.556C88.2547 108.595 88.3509 108.692 88.4279 108.866C88.5048 109.021 88.524 109.157 88.5433 109.176Z" fill="#263238"/>
<path d="M89.8081 107.084C89.8273 107.122 89.9812 107.064 90.1928 107.084C90.4044 107.103 90.5583 107.161 90.5775 107.142C90.5968 107.123 90.4429 106.987 90.212 106.968C89.962 106.929 89.7889 107.045 89.8081 107.084Z" fill="#263238"/>
<path d="M100.502 73.1039C100.502 73.1039 100.637 76.4748 100.579 78.0633C100.522 79.6519 97.5209 91.4113 97.5209 91.4113L97.6748 106.948L93.0197 106.793C93.0197 106.793 91.7694 90.9076 91.8271 90.7139C91.8848 90.5201 91.8271 86.6068 91.8271 86.6068L92.9813 77.7921V73.2976L100.502 73.1039Z" fill="#263238"/>
<path d="M84.7077 72.5616C84.7077 72.5616 84.5346 76.0294 84.65 78.0054C84.7847 80.0008 87.5354 90.8497 87.5354 90.8497L89.3628 106.794H93.46L92.9598 78.0636V73.2978L84.7077 72.5616Z" fill="#263238"/>
<g opacity="0.3">
<path d="M84.8232 74.46C86.6314 75.5642 88.8627 75.7773 90.9787 75.6998C93.0946 75.603 95.2105 75.2543 97.3264 75.3124C98.4036 75.3511 99.6155 75.448 100.404 74.6924C95.1528 74.4793 90.0746 74.4406 84.8232 74.46Z" fill="black"/>
</g>
<path d="M93.0195 77.1141C93.0195 77.1141 93.0195 77.1335 93.0003 77.1916C92.981 77.2497 92.9618 77.3272 92.9426 77.4047C92.8848 77.5985 92.8079 77.8697 92.731 78.2378C92.5578 78.9739 92.327 80.0394 92.1539 81.3762C91.7884 84.0496 91.6345 87.7692 91.9808 91.8763C92.2693 95.9834 92.654 99.6836 92.9041 102.357C93.0387 103.694 93.1349 104.779 93.2119 105.534C93.2503 105.902 93.2696 106.193 93.2888 106.406C93.2888 106.503 93.308 106.58 93.308 106.638C93.308 106.697 93.308 106.716 93.308 106.716C93.308 106.716 93.308 106.697 93.2888 106.638C93.2888 106.58 93.2696 106.503 93.2696 106.406C93.2503 106.212 93.2119 105.922 93.1734 105.554C93.0964 104.798 92.981 103.713 92.8271 102.376C92.5386 99.703 92.1539 96.0027 91.8654 91.8957C91.5191 87.7886 91.6922 84.0496 92.0769 81.3762C92.2693 80.0394 92.5001 78.9739 92.6733 78.2378C92.7694 77.8697 92.8464 77.5985 92.9041 77.4047C92.9233 77.3079 92.9618 77.2497 92.9618 77.1916C93.0003 77.1335 93.0003 77.1141 93.0195 77.1141Z" fill="#263238"/>
<path d="M92.5175 78.9933C92.4982 79.0127 92.1328 78.7802 91.748 78.4315C91.3633 78.0828 91.094 77.7341 91.1133 77.7147C91.1325 77.6954 91.421 78.0053 91.8058 78.354C92.2097 78.7221 92.5367 78.974 92.5175 78.9933Z" fill="#263238"/>
<path d="M86.6662 54.3703L88.8591 53.2855C90.8019 53.8667 92.5716 54.041 93.5141 52.4524C93.5141 52.4524 96.3033 52.0069 97.1496 52.4524C97.996 52.898 97.9191 58.5549 97.9191 58.5549L98.6693 65.8004C98.6693 65.8004 100.881 70.2174 100.516 74.8281L84.6657 74.4601C84.6657 74.4601 84.4926 72.0191 85.2428 69.9268C85.993 67.8345 85.8775 65.9747 85.8775 65.9747L85.7621 59.8916L86.6662 54.3703Z" fill="#5FB8AB"/>
<g opacity="0.3">
<path d="M87.6262 67.641C88.665 66.8855 89.569 65.9556 90.3192 64.89C90.627 64.4445 90.9155 63.9795 91.281 63.5727C91.6465 63.1659 92.1082 62.8365 92.6468 62.759C93.4739 62.6234 94.2818 63.1077 94.9935 63.5727C95.7822 64.0764 96.5708 64.5995 97.3402 65.1031C97.5326 65.2388 97.7442 65.3744 97.9943 65.3744C98.2251 65.3937 98.5713 65.3937 98.5906 65.1419C98.2251 64.9482 97.2825 64.3476 96.7439 63.9214C95.936 63.3015 95.0897 62.8559 94.2818 62.236C93.9163 61.9454 93.5124 61.616 93.4162 61.1511C93.3777 60.9961 93.3969 60.8024 93.3008 60.6668C93.1661 60.4924 92.916 60.4924 92.7045 60.5118C92.2813 60.5505 91.8389 60.5893 91.4734 60.8217C90.9732 61.1511 90.7617 61.7516 90.5308 62.2941C89.7999 64.1733 88.7419 65.9168 87.4531 67.4666" fill="black"/>
</g>
<path d="M86.6661 54.3705C86.6661 54.3705 84.3386 54.8354 83.8962 58.2838C83.4538 61.7128 82.1265 66.2267 82.9152 67.6409C83.1268 68.0478 83.8577 68.8227 84.3001 68.9777C85.5312 69.4426 86.8392 68.4158 87.6664 67.3891L90.0131 63.8438L90.5132 62.9139L88.0126 61.2866L86.5122 62.8558L86.6661 54.3705Z" fill="#5FB8AB"/>
<path d="M96.6914 52.3169C96.6914 52.3169 98.9805 52.5494 100.423 54.8741C102.385 58.0125 103.501 63.4369 103.212 65.0449C102.962 66.556 100.385 67.5053 99.7114 67.079C99.0767 66.6916 92.6904 61.2091 92.6904 61.2091L94.7871 58.9037L98.4034 60.8022L97.2493 57.0245L96.6914 52.3169Z" fill="#5FB8AB"/>
<path d="M87.4389 58.8845C87.4773 58.8845 87.4196 59.6401 87.3042 60.5506C87.2465 60.9962 87.1888 61.3836 87.1503 61.713C87.1119 62.0036 87.0926 62.1973 87.0734 62.1973C87.0349 62.1973 87.0926 61.4417 87.208 60.5312C87.2657 60.0856 87.3235 59.6982 87.3619 59.3688C87.4004 59.0589 87.4196 58.8845 87.4389 58.8845Z" fill="#263238"/>
<path d="M97.5734 58.0513C97.5734 58.0513 97.5734 58.0706 97.5927 58.09C97.6119 58.1287 97.6119 58.1675 97.6312 58.2256C97.6696 58.3612 97.7273 58.5356 97.8043 58.7681C97.9582 59.2524 98.1697 59.9304 98.439 60.8022L98.4583 60.8603L98.4006 60.8216C97.4196 60.3179 96.1885 59.6786 94.765 58.923H94.8035C94.1687 59.6205 93.457 60.3954 92.7261 61.2284V61.1703C94.4188 62.662 96.3231 64.3474 98.3621 66.091C98.5929 66.2847 98.8238 66.4785 99.0546 66.6722C99.17 66.7691 99.2854 66.8659 99.4008 66.9434C99.4585 66.9822 99.5162 67.0403 99.574 67.0597C99.6317 67.079 99.7086 67.0984 99.7855 67.0984C100.074 67.1178 100.363 67.079 100.632 67.0015C100.901 66.924 101.171 66.8272 101.44 66.7109C101.94 66.4785 102.421 66.1491 102.767 65.7423C102.94 65.5292 103.075 65.2967 103.152 65.0449C103.229 64.793 103.229 64.5218 103.229 64.27C103.19 63.2238 102.998 62.2358 102.806 61.3253C102.613 60.4147 102.382 59.5623 102.132 58.8068C101.651 57.2763 101.132 56.0946 100.709 55.3197C100.478 54.9322 100.286 54.6416 100.151 54.4673C100.074 54.3704 100.016 54.3123 99.9779 54.2735C99.9394 54.2348 99.9202 54.196 99.9202 54.196C99.9202 54.196 100.016 54.2735 100.17 54.4479C100.324 54.6222 100.536 54.9128 100.747 55.3003C101.209 56.0752 101.728 57.257 102.209 58.7874C102.459 59.543 102.69 60.3954 102.882 61.3059C103.075 62.2164 103.267 63.2044 103.325 64.27C103.325 64.5412 103.325 64.8124 103.248 65.0836C103.171 65.3548 103.017 65.5873 102.844 65.8198C102.479 66.246 101.998 66.5753 101.478 66.8078C101.209 66.924 100.94 67.0403 100.651 67.0984C100.363 67.1759 100.074 67.234 99.7663 67.1953C99.6894 67.1953 99.6124 67.1759 99.5355 67.1371C99.4585 67.0984 99.4008 67.0597 99.3431 67.0209C99.2277 66.924 99.1123 66.8272 98.9969 66.7497C98.7661 66.556 98.5352 66.3622 98.3044 66.1685C96.2654 64.4249 94.3611 62.7395 92.6684 61.2284L92.6299 61.1897L92.6684 61.1509C93.4185 60.3373 94.1303 59.543 94.765 58.8455L94.7843 58.8262L94.8035 58.8455C96.2269 59.6011 97.4388 60.2404 98.4198 60.7635L98.3813 60.8022C98.112 59.9304 97.9005 59.233 97.7658 58.7487C97.6889 58.5162 97.6504 58.3418 97.6119 58.2062C97.5927 58.1481 97.5734 58.1094 97.5734 58.0706V58.0513Z" fill="#263238"/>
<path d="M100.753 60.8027C100.734 60.8221 100.291 60.4928 99.6756 60.2216C99.0601 59.9503 98.5215 59.8341 98.5215 59.7954C98.5215 59.776 98.6561 59.7954 98.887 59.8535C99.0986 59.9116 99.4063 59.9891 99.7141 60.1441C100.022 60.2797 100.291 60.454 100.484 60.5703C100.657 60.7059 100.753 60.8027 100.753 60.8027Z" fill="#263238"/>
<path d="M85.3604 64.0571C85.3604 64.0571 85.3796 64.0377 85.3988 63.9989C85.4373 63.9602 85.4758 63.9214 85.5335 63.8439C85.6489 63.7083 85.822 63.534 86.0529 63.2821C86.5145 62.7978 87.1685 62.1004 87.9764 61.2286L87.9957 61.2092L88.0149 61.2286C88.7651 61.6742 89.6307 62.1973 90.5925 62.7784L90.6309 62.7978L90.6117 62.8366C90.4386 63.1659 90.2462 63.4952 90.0539 63.8633C89.3037 64.9676 88.4958 66.2074 87.6302 67.4861C87.2647 67.9316 86.8415 68.3385 86.3222 68.6678C85.899 68.9197 85.4373 69.1328 84.9564 69.1328C84.841 69.1328 84.7064 69.1134 84.5909 69.094C84.4755 69.0553 84.3601 69.0165 84.2447 68.9584C84.0331 68.8422 83.8408 68.7065 83.6676 68.5516C83.3214 68.2416 83.0136 67.8929 82.802 67.4861C82.7828 67.4279 82.7636 67.3892 82.7443 67.3311C82.7251 67.273 82.7251 67.2148 82.7058 67.1567L82.6674 67.0017C82.6674 66.9436 82.6481 66.8855 82.6481 66.8274C82.6289 66.6143 82.6289 66.4012 82.6289 66.1881C82.6481 65.3357 82.7828 64.5414 82.8982 63.7858C83.0136 63.0497 83.1483 62.3522 83.2637 61.7129C83.4945 60.4537 83.6869 59.4269 83.8215 58.7295C83.8792 58.3808 83.9177 58.1096 83.9562 57.9158C83.9754 57.819 83.9754 57.7609 83.9946 57.7027C83.9946 57.664 84.0139 57.6252 84.0139 57.6252C84.0139 57.6252 84.0139 57.6446 84.0139 57.7027C84.0139 57.7609 83.9946 57.819 83.9946 57.9158C83.9754 58.1096 83.9369 58.3808 83.8792 58.7295C83.7638 59.4463 83.5907 60.4537 83.3599 61.7323C83.2444 62.3716 83.129 63.0497 82.9944 63.8052C82.879 64.5414 82.7636 65.355 82.7443 66.1881C82.7443 66.4012 82.7443 66.6143 82.7636 66.8274C82.7636 66.8855 82.7636 66.9436 82.7828 66.9824L82.8213 67.1373C82.8405 67.1955 82.8405 67.2342 82.8597 67.2923C82.879 67.3504 82.8982 67.3892 82.9174 67.4473C83.1098 67.8348 83.4176 68.1641 83.7638 68.4741C84.1101 68.7647 84.4948 69.0553 84.9757 69.0359C85.4373 69.0359 85.899 68.8422 86.3029 68.5903C86.803 68.2803 87.2262 67.8541 87.5917 67.4279C88.4573 66.13 89.2844 64.9095 90.0154 63.8052C90.2078 63.4565 90.4001 63.1078 90.5732 62.7978L90.5925 62.8559C89.6307 62.2747 88.7651 61.7517 88.0341 61.3061H88.0726C87.2455 62.1585 86.5722 62.8559 86.1106 63.3403C85.8797 63.5727 85.7066 63.7665 85.572 63.8827C85.5143 63.9408 85.4758 63.9796 85.4373 64.0183C85.3796 64.057 85.3604 64.0571 85.3604 64.0571Z" fill="#263238"/>
<path d="M93.2125 64.8702C93.2125 64.8896 92.9817 64.9671 92.6162 65.1415C92.2507 65.3158 91.7506 65.587 91.2697 65.9551C90.7696 66.3232 90.3849 66.73 90.1156 67.04C89.8463 67.35 89.6924 67.5437 89.6924 67.5437C89.6924 67.5437 89.7116 67.4856 89.7886 67.3887C89.8463 67.2919 89.9424 67.1562 90.0771 67.0013C90.3272 66.6719 90.7311 66.2651 91.2312 65.897C91.7314 65.5289 92.2315 65.2577 92.6162 65.1027C92.8086 65.0252 92.9624 64.9671 93.0779 64.9284C93.1548 64.8896 93.2125 64.8702 93.2125 64.8702Z" fill="#263238"/>
<path d="M88.2249 61.4417L88.0133 60.0274L86.9746 58.8844L87.09 57.0634C87.09 57.0634 87.4747 56.9278 87.4747 57.2959C87.4747 57.6446 87.5901 58.5163 87.5901 58.5163L87.8979 58.7876L87.8402 57.0246L88.6289 56.0172C88.6289 56.0172 88.9366 56.2691 88.7828 56.7147C88.6289 57.1409 88.475 57.3346 88.475 57.3346L88.5519 58.4389H88.8212V57.4121L89.9754 55.901C89.9754 55.901 90.11 55.9979 89.9754 56.4628C89.8407 56.9278 89.6291 57.354 89.6291 57.354L90.0331 59.2138L90.3986 59.3881L90.6101 59.0782L91.1872 57.8577C91.1872 57.8577 91.3603 57.7995 91.4565 57.9352C91.5527 58.0708 91.1872 59.0588 91.1487 59.2331C91.1295 59.4075 91.7066 60.5699 91.4758 61.1511L90.3216 62.6621L88.2249 61.4417Z" fill="#FFBE9D"/>
<path d="M89.2266 54.4484V60.4152H92.612V54.5452L89.2266 54.4484Z" fill="#263238"/>
<path d="M92.6157 55.7279C92.6157 55.7279 93.1543 55.7279 93.212 56.1347C93.2697 56.5416 93.2697 56.7159 93.616 57.1228C93.9622 57.5296 94.3469 57.8977 94.4239 58.7501L94.5008 59.1957L92.9812 60.823C92.9812 60.823 90.4613 60.7649 90.1535 60.668C89.8458 60.5711 89.538 60.3193 89.538 60.3193L89.1918 59.2538C89.1918 59.2538 89.3264 59.0213 89.5572 59.3313C89.7881 59.6412 90.1728 60.0093 90.1728 60.0093L90.923 60.0868L91.2692 59.9125L89.8842 59.2925C89.8842 59.2925 88.8648 58.7307 88.8648 58.5951C88.8648 58.4595 88.9032 58.1689 88.9032 58.1689C88.9032 58.1689 88.7301 57.9558 88.8648 57.6652C88.9994 57.394 89.4995 57.6652 89.4995 57.6652C89.4995 57.6652 91.0384 58.2464 91.2692 58.2851C91.5 58.3045 91.827 58.2851 91.827 58.2851L89.5765 56.9484C89.5765 56.9484 89.5765 56.6966 90.0381 56.7934C90.4998 56.8903 91.8655 57.4327 92.1156 57.4908C92.3656 57.549 92.6349 57.3552 92.6349 57.3552V55.7279H92.6157Z" fill="#FFBE9D"/>
<path d="M92.6147 55.728C92.6147 55.728 92.6147 55.7667 92.6147 55.8442C92.6147 55.9217 92.6147 56.0185 92.6147 56.1542C92.6147 56.4448 92.6147 56.8322 92.6339 57.3553V57.3747H92.6147C92.5185 57.4328 92.4224 57.4715 92.3069 57.5103C92.1915 57.549 92.0569 57.5296 91.9607 57.4909C91.7299 57.4134 91.4798 57.3359 91.2297 57.239C90.9604 57.1422 90.6911 57.0453 90.4026 56.9484C90.2487 56.9097 90.1141 56.8516 89.9602 56.8322C89.8832 56.8128 89.8063 56.8128 89.7294 56.8322C89.6524 56.8516 89.5947 56.9097 89.5947 56.9678L89.5755 56.9291C90.2487 57.3165 91.0181 57.7815 91.826 58.2464L91.9607 58.3239H91.8068C91.6145 58.3433 91.4221 58.3433 91.2105 58.3239C90.9989 58.2852 90.8258 58.2077 90.6334 58.1496C90.2487 58.014 89.864 57.8783 89.4601 57.7234C89.3831 57.6846 89.2869 57.6459 89.1908 57.6265C89.0946 57.6071 88.9984 57.6071 88.9407 57.6459C88.883 57.6846 88.8445 57.8009 88.8445 57.8783C88.8445 57.9752 88.8638 58.0721 88.9215 58.1496L88.9407 58.1689V58.1883C88.9215 58.3239 88.9022 58.4595 88.9022 58.5758C88.883 58.5951 88.9599 58.6533 88.9984 58.692C89.0561 58.7308 89.1138 58.7695 89.1715 58.8082C89.4024 58.9632 89.6524 59.0988 89.8832 59.2345C90.2103 59.3894 90.5757 59.5444 90.922 59.6994C91.0374 59.7575 91.1528 59.7963 91.2682 59.8544L91.3644 59.8931L91.2682 59.9319C91.1528 59.99 91.0374 60.0481 90.922 60.1062H90.9027H90.8835C90.6334 60.0869 90.3834 60.0481 90.1333 60.0287H90.1141L90.0948 60.0094C89.9217 59.8544 89.7678 59.68 89.6139 59.5057C89.537 59.4282 89.4793 59.3119 89.4024 59.2538C89.3639 59.2151 89.3254 59.1957 89.2869 59.1957C89.2485 59.1957 89.21 59.2151 89.1908 59.2538V59.2151C89.3062 59.5832 89.4216 59.9319 89.537 60.2806L89.5178 60.2612C89.6332 60.3581 89.7678 60.4549 89.9025 60.5131C89.9794 60.5518 90.0371 60.5712 90.1141 60.6099C90.191 60.6293 90.2487 60.6293 90.3257 60.6487C90.6334 60.6874 90.9412 60.6874 91.2297 60.7068C91.826 60.7262 92.3839 60.7455 92.9417 60.7649L92.9032 60.7843C93.4611 60.2031 93.9612 59.6413 94.4229 59.157V59.1957C94.4036 59.0407 94.3652 58.9051 94.3459 58.7501C94.3267 58.4595 94.2497 58.1883 94.1536 57.9558C94.0381 57.7234 93.9035 57.5296 93.7496 57.3553C93.5957 57.1809 93.4418 57.0259 93.3457 56.8516C93.2302 56.6772 93.1918 56.5029 93.1725 56.3285C93.1533 56.1735 93.1533 56.0185 93.0764 55.9217C92.9994 55.8248 92.9032 55.7861 92.8263 55.7473C92.6917 55.728 92.6147 55.728 92.6147 55.728C92.6147 55.728 92.7109 55.7086 92.8648 55.7667C92.9417 55.7861 93.0571 55.8248 93.1341 55.9411C93.1725 55.9992 93.211 56.0573 93.211 56.1348C93.2303 56.2123 93.2302 56.2898 93.2495 56.3673C93.2687 56.5222 93.3072 56.6966 93.4226 56.871C93.5188 57.0453 93.6727 57.1809 93.8266 57.3553C93.9804 57.5296 94.1343 57.7234 94.2497 57.9752C94.3652 58.2077 94.4229 58.4983 94.4613 58.7889C94.4806 58.9245 94.519 59.0601 94.5383 59.2345V59.2538L94.519 59.2732C94.0574 59.7769 93.5573 60.3193 92.9994 60.9005L92.9802 60.9199H92.961C92.4224 60.9005 91.8453 60.9005 91.249 60.8618C90.9604 60.8424 90.6527 60.8424 90.3449 60.8037C90.268 60.8037 90.191 60.7843 90.1141 60.7649C90.0371 60.7455 89.9602 60.7068 89.8832 60.668C89.7486 60.5906 89.6139 60.5131 89.4793 60.3968H89.4601V60.3775C89.3446 60.0287 89.2292 59.6607 89.1138 59.3119V59.2926L89.1331 59.2732C89.1715 59.2151 89.2292 59.157 89.3062 59.157C89.3831 59.157 89.4408 59.1957 89.4793 59.2345C89.5755 59.3313 89.6139 59.4088 89.6909 59.5057C89.8448 59.68 89.9987 59.835 90.1718 59.99L90.1525 59.9706C90.4026 59.99 90.6527 60.0287 90.9027 60.0481H90.8835C90.9989 59.99 91.1143 59.9319 91.2297 59.8738V59.9706C91.1143 59.9125 90.9989 59.8738 90.8835 59.8156C90.518 59.6607 90.1718 59.5057 89.8448 59.3507C89.5947 59.2151 89.3446 59.0601 89.1138 58.9051C89.0561 58.8664 88.9984 58.8276 88.9407 58.7889C88.9215 58.7695 88.883 58.7501 88.8638 58.7114C88.8445 58.692 88.8445 58.6726 88.8253 58.6726C88.8253 58.6533 88.8061 58.6339 88.8061 58.6339C88.8061 58.6145 88.8061 58.6145 88.8061 58.5951C88.8061 58.4595 88.8253 58.3239 88.8445 58.1883L88.8638 58.2271C88.7868 58.1302 88.7676 58.014 88.7676 57.8977C88.7676 57.7815 88.8061 57.6652 88.9022 57.5878C89.0176 57.5103 89.1331 57.5296 89.2292 57.549C89.3254 57.5684 89.4216 57.6071 89.5178 57.6652C89.9217 57.8202 90.3064 57.9558 90.6911 58.0914C90.8835 58.1496 91.0759 58.2271 91.249 58.2658C91.4413 58.2852 91.6337 58.2852 91.826 58.2658L91.8068 58.3433C90.9989 57.859 90.2295 57.4134 89.5562 57.0066L89.537 56.9872V56.9678C89.537 56.8516 89.6332 56.7741 89.7294 56.7741C89.8255 56.7547 89.9025 56.7547 89.9794 56.7741C90.1333 56.8128 90.2872 56.8516 90.4411 56.9097C90.7296 57.0066 91.0181 57.1034 91.2682 57.2003C91.5183 57.2972 91.7683 57.3746 91.9992 57.4521C92.23 57.549 92.4416 57.4715 92.6147 57.3553L92.5955 57.3747C92.5955 56.8516 92.6147 56.4448 92.6147 56.1542C92.6147 56.0185 92.6147 55.9217 92.6147 55.8442C92.5955 55.7473 92.6147 55.728 92.6147 55.728Z" fill="#EB996E"/>
<path d="M91.5401 59.1949C91.5401 59.2142 91.3862 59.1755 91.1169 59.1174C90.8669 59.0593 90.5206 58.943 90.1552 58.8074C89.7897 58.6718 89.4627 58.5168 89.2318 58.3812C89.001 58.265 88.8664 58.1681 88.8856 58.1487C88.8856 58.1294 89.0395 58.2069 89.2703 58.3037C89.5011 58.42 89.8282 58.5556 90.1936 58.6912C90.5591 58.8268 90.9053 58.943 91.1362 59.0399C91.4055 59.1368 91.5594 59.1755 91.5401 59.1949Z" fill="#EB996E"/>
<path d="M91.8658 59.8147C91.885 59.8339 91.8081 59.9107 91.6927 59.8915C91.5772 59.8915 91.5195 59.8147 91.5195 59.7955C91.5388 59.7763 91.6157 59.7955 91.6927 59.7955C91.7696 59.7955 91.8465 59.7955 91.8658 59.8147Z" fill="#EB996E"/>
<path d="M92.2469 59.1367C92.2661 59.156 92.2276 59.2723 92.0738 59.311C91.9391 59.3498 91.8237 59.2723 91.8429 59.2529C91.8622 59.2335 91.9391 59.2529 92.0545 59.2142C92.1507 59.1754 92.2276 59.1173 92.2469 59.1367Z" fill="#EB996E"/>
<path d="M92.7088 58.2073C92.7281 58.2267 92.6896 58.3235 92.5742 58.3429C92.4588 58.3817 92.3818 58.3235 92.3818 58.2848C92.4011 58.2654 92.4588 58.2654 92.5357 58.2461C92.6319 58.2267 92.6896 58.1879 92.7088 58.2073Z" fill="#EB996E"/>
<path d="M93.1108 57.2381C93.1108 57.2574 92.9762 57.3156 92.8223 57.3543C92.6684 57.3931 92.5338 57.4124 92.5145 57.3931C92.4953 57.3737 92.6299 57.2962 92.8031 57.2574C92.9762 57.2187 93.1108 57.2187 93.1108 57.2381Z" fill="#EB996E"/>
<path d="M94.8243 48.4039C94.5358 47.6096 94.2857 46.7766 93.9587 46.0211C93.901 45.8854 93.7279 45.8273 93.6702 45.6917C93.247 44.6262 92.92 43.4832 92.2468 42.5339C91.5735 41.5847 90.4386 40.8679 89.3037 41.1197L89.7269 42.7277C90.304 43.5994 91.5543 43.9094 91.9582 44.8587C92.2275 45.4786 92.0736 46.1954 92.2852 46.8153C92.4391 47.2415 92.7469 47.5709 92.92 47.9777C93.1701 48.5395 93.1508 49.1982 93.1316 49.8181C93.1124 50.5737 93.0739 51.3292 93.0547 52.0848C93.0354 52.4916 93.0354 52.9178 93.2855 53.2471C93.651 53.7508 94.555 53.7702 95.1706 53.7121C95.4399 53.6734 95.7477 53.6927 95.8823 53.6734C95.8823 53.6734 95.613 51.6005 95.5938 51.4648C95.4206 49.9538 95.3437 49.8569 94.8243 48.4039Z" fill="#263238"/>
<path d="M96.3057 51.91C96.3057 51.91 96.3057 51.8712 96.3057 51.7744C96.3057 51.6775 96.3249 51.5419 96.3249 51.3869C96.3441 51.0382 96.3826 50.5539 96.4018 49.9533C96.4211 49.3528 96.4018 48.6166 96.2672 47.8223C96.1902 47.4349 96.0941 47.028 95.9209 46.6212C95.7671 46.2144 95.5555 45.8075 95.2862 45.4394C95.0169 45.0714 94.6899 44.742 94.3436 44.4902C93.9974 44.2383 93.6127 44.064 93.2472 43.9284C92.497 43.6571 91.7853 43.4828 91.2467 43.2116C90.6888 42.9403 90.3041 42.6304 90.0925 42.3592C89.8809 42.0879 89.8232 41.9136 89.8232 41.9136C89.8425 41.9136 89.9002 42.0879 90.131 42.3398C90.3426 42.5916 90.7273 42.9016 91.2852 43.1534C91.8238 43.4247 92.5355 43.5796 93.2857 43.8509C93.6704 43.9865 94.0551 44.1608 94.4206 44.4321C94.786 44.6839 95.113 45.0132 95.3823 45.4007C95.6516 45.7882 95.8632 46.195 96.0171 46.6018C96.171 47.0086 96.2864 47.4349 96.3634 47.8223C96.498 48.6166 96.498 49.3528 96.4788 49.9727C96.4595 50.5733 96.4018 51.077 96.3634 51.4063C96.3441 51.5613 96.3249 51.6969 96.3249 51.7938C96.3249 51.8712 96.3057 51.91 96.3057 51.91Z" fill="#E0E0E0"/>
<path d="M96.0164 44.471C95.9971 44.4904 95.7856 44.1611 95.2662 43.8511C95.0161 43.6961 94.6891 43.5412 94.3044 43.4055C93.9197 43.2699 93.4965 43.1731 93.0541 43.0568C92.15 42.8244 91.3806 42.4756 90.8612 42.1463C90.6112 41.9913 90.3996 41.8363 90.2842 41.7201C90.1495 41.6039 90.0918 41.5264 90.0918 41.5264C90.0918 41.5264 90.1687 41.5845 90.3034 41.6814C90.438 41.7782 90.6304 41.9332 90.8997 42.0882C91.4191 42.3981 92.1885 42.7275 93.0926 42.96C93.535 43.0762 93.9774 43.1731 94.3621 43.3087C94.7468 43.4443 95.0738 43.5993 95.3239 43.7736C95.574 43.948 95.7663 44.103 95.8817 44.2386C95.9394 44.2967 95.9779 44.3548 96.0164 44.3936C96.0164 44.4517 96.0356 44.471 96.0164 44.471Z" fill="#E0E0E0"/>
<path d="M94.8025 53.5764C94.8025 53.5764 94.6294 53.4795 94.3986 53.2277C94.1677 52.9758 93.8792 52.5496 93.7638 51.9491C93.7446 51.7941 93.7253 51.6391 93.7253 51.4648C93.7253 51.2904 93.7446 51.116 93.783 50.9417C93.8407 50.593 93.9562 50.2249 94.0523 49.8374C94.1293 49.45 94.1677 49.0238 93.9946 48.6363C93.8215 48.2489 93.4945 47.9389 93.3021 47.4933C93.129 47.0477 93.129 46.5828 93.0328 46.176C92.9559 45.7497 92.7828 45.3817 92.552 45.0523C92.3404 44.723 92.0711 44.4518 91.821 44.1999C91.5709 43.9481 91.3209 43.7543 91.0708 43.58C90.5899 43.2313 90.186 42.9407 89.9744 42.6695C89.7628 42.3982 89.7051 42.2239 89.7051 42.2239C89.7243 42.2239 89.782 42.3982 90.0128 42.6501C90.2244 42.9019 90.6284 43.1925 91.1093 43.5412C91.3593 43.7156 91.6286 43.9093 91.8787 44.1612C92.1288 44.413 92.3981 44.6842 92.6289 45.0136C92.8597 45.3429 93.0521 45.7304 93.129 46.176C93.206 46.6022 93.206 47.0671 93.3791 47.4739C93.5522 47.8808 93.8985 48.2101 94.0716 48.6169C94.2447 49.0431 94.2062 49.4887 94.1293 49.8762C94.0523 50.2636 93.9177 50.6317 93.86 50.9804C93.8215 51.1548 93.8023 51.3291 93.8023 51.4841C93.8023 51.6391 93.8215 51.7941 93.8407 51.9491C93.9369 52.5303 94.2062 52.9565 94.4178 53.2083C94.6486 53.4602 94.8218 53.5764 94.8025 53.5764Z" fill="#E0E0E0"/>
<path d="M84.7207 46.6215L83.3922 44.2306C83.9803 43.2655 84.3287 42.1249 84.3287 40.8966C84.3287 37.3871 81.4974 34.5137 77.991 34.5137C74.5064 34.5137 71.6533 37.3651 71.6533 40.8966C71.6533 44.4061 74.4846 47.2795 77.991 47.2795C79.4502 47.2795 80.8005 46.775 81.8677 45.9415L84.7207 46.6215Z" fill="#FAFAFA"/>
<path d="M84.7716 46.6223C84.6409 46.6004 83.7262 46.381 81.8967 45.9643H81.8749L81.8967 45.9423L81.9185 45.9643C81.5483 46.2494 81.1345 46.5126 80.6118 46.7539C80.1108 46.9733 79.5228 47.1707 78.8694 47.2584C78.5428 47.3023 78.2161 47.3242 77.8676 47.3023C77.6934 47.3023 77.5191 47.2803 77.3449 47.2803C77.1707 47.2584 76.9964 47.2365 76.8004 47.1926C76.0817 47.061 75.3412 46.7758 74.6661 46.3591C73.9909 45.9423 73.3593 45.3501 72.8366 44.6482C72.3357 43.9463 71.9437 43.0909 71.7695 42.1916C71.5952 41.2703 71.617 40.3052 71.8348 39.362C72.0744 38.4188 72.5317 37.4976 73.1851 36.7299L73.4465 36.4447C73.5336 36.357 73.6425 36.2693 73.7296 36.1815C73.8167 36.0938 73.9038 36.006 74.0127 35.9402L74.3176 35.7209C74.4265 35.6332 74.5136 35.5674 74.6225 35.5015C74.7314 35.4357 74.8403 35.3699 74.9492 35.3041C75.0581 35.2383 75.167 35.1945 75.2759 35.1506C75.3848 35.1067 75.4937 35.0409 75.6244 34.9971C76.5391 34.6242 77.5191 34.4926 78.4556 34.5584C79.3921 34.6242 80.2851 34.8874 81.0691 35.3261C81.8314 35.7648 82.4848 36.3351 82.9857 36.9931C83.4866 37.6292 83.8351 38.353 84.0746 39.0549C84.2924 39.7568 84.3578 40.4807 84.3578 41.1387C84.336 41.7967 84.2271 42.389 84.0528 42.9373C83.8786 43.4637 83.6608 43.9244 83.4213 44.3192V44.2973C84.2924 45.7669 84.7062 46.5126 84.7716 46.6223C84.7062 46.5126 84.2706 45.7669 83.4213 44.2534C83.6608 43.8805 83.8786 43.4199 84.0528 42.8935C84.2271 42.367 84.336 41.7748 84.3578 41.1168C84.3578 40.4587 84.2924 39.7788 84.0746 39.0549C83.8568 38.353 83.5084 37.6511 83.0075 37.015C82.5065 36.3789 81.8532 35.8086 81.0909 35.3699C80.3286 34.9313 79.4357 34.668 78.521 34.6022C77.5845 34.5364 76.6262 34.668 75.7115 35.0409C75.6026 35.0848 75.4937 35.1287 75.3848 35.1945C75.2759 35.2383 75.167 35.3041 75.0581 35.348C74.9492 35.4138 74.8403 35.4796 74.7314 35.5454C74.6225 35.6112 74.5136 35.677 74.4265 35.7428L74.1216 35.9622C74.0127 36.028 73.9256 36.1376 73.8385 36.2035C73.7296 36.3131 73.6425 36.3789 73.5554 36.4886L73.294 36.7737C72.6406 37.5195 72.1833 38.4408 71.9437 39.362C71.7041 40.3052 71.6824 41.2703 71.8784 42.1696C72.0526 43.0689 72.4228 43.9024 72.9238 44.6043C73.4247 45.3062 74.0563 45.8765 74.7314 46.2933C75.4066 46.71 76.1253 46.9952 76.844 47.1268C77.0182 47.1487 77.1925 47.1926 77.3667 47.2145C77.5409 47.2365 77.7151 47.2365 77.8894 47.2365C78.2378 47.2584 78.5645 47.2365 78.8912 47.1926C79.5228 47.1049 80.1108 46.9294 80.6118 46.71C81.1127 46.4907 81.5483 46.2056 81.9185 45.9423L82.0274 45.8546L81.9403 45.9643L81.9185 45.9204C83.7262 46.3591 84.6409 46.6004 84.7716 46.6223Z" fill="#263238"/>
<path d="M78.0855 43.8519C77.9739 43.8905 77.7901 43.8905 77.6785 43.8519C76.7266 43.5332 74.5996 42.2037 74.5996 39.9504C74.5996 38.9557 75.4169 38.1509 76.4246 38.1509C77.022 38.1509 77.5504 38.4342 77.882 38.872C78.2135 38.4342 78.7452 38.1509 79.3393 38.1509C80.347 38.1509 81.1643 38.9557 81.1643 39.9504C81.1643 42.2037 79.0373 43.5332 78.0855 43.8519Z" fill="#FF5959"/>
<g filter="url(#filter0_d_2334_4583)">
<mask id="path-163-inside-1_2334_4583" fill="white">
<path fill-rule="evenodd" clip-rule="evenodd" d="M68.3186 41H40.5V61.0122H52.6887L54.4116 63.8179L55.9094 61.0122H68.3186V41Z"/>
</mask>
<path fill-rule="evenodd" clip-rule="evenodd" d="M68.3186 41H40.5V61.0122H52.6887L54.4116 63.8179L55.9094 61.0122H68.3186V41Z" fill="white"/>
<path d="M40.5 41V40.8H40.3V41H40.5ZM68.3186 41H68.5186V40.8H68.3186V41ZM40.5 61.0122H40.3V61.2122H40.5V61.0122ZM52.6887 61.0122L52.8591 60.9076L52.8005 60.8122H52.6887V61.0122ZM54.4116 63.8179L54.2412 63.9226L54.4237 64.2199L54.588 63.9121L54.4116 63.8179ZM55.9094 61.0122V60.8122H55.7894L55.7329 60.918L55.9094 61.0122ZM68.3186 61.0122V61.2122H68.5186V61.0122H68.3186ZM40.5 41.2H68.3186V40.8H40.5V41.2ZM40.7 61.0122V41H40.3V61.0122H40.7ZM52.6887 60.8122H40.5V61.2122H52.6887V60.8122ZM54.582 63.7133L52.8591 60.9076L52.5182 61.1169L54.2412 63.9226L54.582 63.7133ZM55.7329 60.918L54.2352 63.7237L54.588 63.9121L56.0858 61.1064L55.7329 60.918ZM68.3186 60.8122H55.9094V61.2122H68.3186V60.8122ZM68.1186 41V61.0122H68.5186V41H68.1186Z" fill="#F3F4F4" mask="url(#path-163-inside-1_2334_4583)"/>
</g>
<path d="M54.4171 55.4042C54.214 55.4718 53.8793 55.4718 53.6762 55.4042C51.9433 54.8464 48.0713 52.5192 48.0713 48.5748C48.0713 46.8336 49.5592 45.4249 51.3936 45.4249C52.4811 45.4249 53.4431 45.9208 54.0467 46.6871C54.6502 45.9208 55.6182 45.4249 56.6997 45.4249C58.5341 45.4249 60.022 46.8336 60.022 48.5748C60.022 52.5192 56.15 54.8464 54.4171 55.4042Z" fill="#FF5959"/>
<path d="M46.4979 34V32.58H46.1979V32.08H46.4979V31.88C46.4979 31.416 46.7579 31.16 47.1579 31.16C47.2579 31.16 47.3499 31.176 47.4139 31.192C47.4499 31.204 47.4859 31.212 47.5179 31.22V31.72C47.4979 31.716 47.4779 31.708 47.4539 31.7C47.4099 31.688 47.3579 31.68 47.2979 31.68C47.1379 31.68 47.0379 31.78 47.0379 31.96V32.08H47.4779V32.58H47.0379V34H46.4979ZM48.9584 34V33.76H48.9384C48.8944 33.812 48.8464 33.86 48.7904 33.9C48.6944 33.976 48.5464 34.04 48.3584 34.04C47.9984 34.04 47.7584 33.8 47.7584 33.48C47.7584 33.16 47.9744 32.916 48.3384 32.852L48.9584 32.74C48.9384 32.6 48.8224 32.48 48.6184 32.48C48.4784 32.48 48.3704 32.532 48.2944 32.592C48.2504 32.624 48.2104 32.66 48.1784 32.7L47.8584 32.38C47.9144 32.312 47.9824 32.248 48.0624 32.192C48.2024 32.096 48.3984 32 48.6584 32C49.1584 32 49.4984 32.344 49.4984 32.78V34H48.9584ZM48.9584 33.16V33.12L48.5184 33.2C48.3784 33.228 48.2984 33.3 48.2984 33.4C48.2984 33.524 48.3784 33.6 48.5384 33.6C48.7784 33.6 48.9584 33.42 48.9584 33.16ZM50.4395 34L49.6995 32.04H50.2795L50.7315 33.36H50.7475L51.1995 32.04H51.7795L51.0395 34H50.4395ZM52.9386 33.54C53.2186 33.54 53.4386 33.32 53.4386 33.02C53.4386 32.72 53.2186 32.5 52.9386 32.5C52.6586 32.5 52.4386 32.72 52.4386 33.02C52.4386 33.32 52.6586 33.54 52.9386 33.54ZM51.8986 33.02C51.8986 32.46 52.3586 32 52.9386 32C53.5186 32 53.9786 32.46 53.9786 33.02C53.9786 33.58 53.5186 34.04 52.9386 34.04C52.3586 34.04 51.8986 33.58 51.8986 33.02ZM54.3779 33.22V32.04H54.9179V33.14C54.9179 33.38 55.0539 33.52 55.2779 33.52C55.5179 33.52 55.6979 33.34 55.6979 33.08V32.04H56.2379V34H55.6979V33.72H55.6779C55.6339 33.78 55.5859 33.832 55.5299 33.88C55.4339 33.96 55.2859 34.04 55.0979 34.04C54.6979 34.04 54.3779 33.72 54.3779 33.22ZM56.7568 34V32.04H57.2968V32.32H57.3168C57.3608 32.26 57.4088 32.208 57.4648 32.16C57.5608 32.08 57.7048 32 57.8968 32H57.9368V32.58L57.8928 32.572C57.8608 32.568 57.8168 32.56 57.7568 32.56C57.4968 32.56 57.2968 32.76 57.2968 33.08V34H56.7568ZM58.2764 34V32.04H58.8164V34H58.2764ZM58.2364 31.48C58.2364 31.32 58.3764 31.18 58.5484 31.18C58.7204 31.18 58.8564 31.32 58.8564 31.48C58.8564 31.64 58.7164 31.78 58.5444 31.78C58.3724 31.78 58.2364 31.64 58.2364 31.48ZM59.495 33.32V32.58H59.155V32.08H59.335C59.483 32.08 59.555 32 59.555 31.84V31.48H60.035V32.08H60.475V32.58H60.035V33.24C60.035 33.42 60.135 33.52 60.295 33.52C60.355 33.52 60.407 33.512 60.451 33.5C60.475 33.496 60.495 33.488 60.515 33.48V33.98C60.483 33.992 60.447 34 60.411 34.012C60.347 34.028 60.255 34.04 60.155 34.04C59.755 34.04 59.495 33.784 59.495 33.32ZM62.3775 33.34L62.6575 33.72C62.5975 33.78 62.5255 33.832 62.4415 33.88C62.2975 33.96 62.0895 34.04 61.8175 34.04C61.2375 34.04 60.7775 33.58 60.7775 33.02C60.7775 32.46 61.2375 32 61.7975 32C62.3375 32 62.7775 32.44 62.7775 32.98C62.7775 33.056 62.7695 33.108 62.7655 33.152L62.7575 33.22H61.3375C61.3975 33.4 61.5575 33.56 61.8575 33.56C62.0295 33.56 62.1535 33.512 62.2455 33.452C62.2975 33.42 62.3415 33.384 62.3775 33.34ZM61.3375 32.82H62.2175C62.1575 32.64 62.0015 32.48 61.7775 32.48C61.5535 32.48 61.3975 32.64 61.3375 32.82Z" fill="#E6E9E9"/>
<g filter="url(#filter1_d_2334_4583)">
<mask id="path-167-inside-2_2334_4583" fill="white">
<path fill-rule="evenodd" clip-rule="evenodd" d="M68.3186 69.0472H40.5V89.0595H52.6887L54.4116 91.8652L55.9094 89.0595H68.3186V69.0472Z"/>
</mask>
<path fill-rule="evenodd" clip-rule="evenodd" d="M68.3186 69.0472H40.5V89.0595H52.6887L54.4116 91.8652L55.9094 89.0595H68.3186V69.0472Z" fill="white"/>
<path d="M40.5 69.0472V68.8472H40.3V69.0472H40.5ZM68.3186 69.0472H68.5186V68.8472H68.3186V69.0472ZM40.5 89.0595H40.3V89.2595H40.5V89.0595ZM52.6887 89.0595L52.8591 88.9548L52.8005 88.8595H52.6887V89.0595ZM54.4116 91.8652L54.2412 91.9698L54.4237 92.2671L54.588 91.9594L54.4116 91.8652ZM55.9094 89.0595V88.8595H55.7894L55.7329 88.9653L55.9094 89.0595ZM68.3186 89.0595V89.2595H68.5186V89.0595H68.3186ZM40.5 69.2472H68.3186V68.8472H40.5V69.2472ZM40.7 89.0595V69.0472H40.3V89.0595H40.7ZM52.6887 88.8595H40.5V89.2595H52.6887V88.8595ZM54.582 91.7605L52.8591 88.9548L52.5182 89.1641L54.2412 91.9698L54.582 91.7605ZM55.7329 88.9653L54.2352 91.771L54.588 91.9594L56.0858 89.1537L55.7329 88.9653ZM68.3186 88.8595H55.9094V89.2595H68.3186V88.8595ZM68.1186 69.0472V89.0595H68.5186V69.0472H68.1186Z" fill="#F3F4F4" mask="url(#path-167-inside-2_2334_4583)"/>
</g>
<rect x="42.8848" y="72.1848" width="22.8462" height="2.09174" rx="1.04587" fill="#F3F4F4"/>
<rect x="42.8848" y="76.3683" width="14.5385" height="2.09174" rx="1.04587" fill="#F3F4F4"/>
<rect x="42.8848" y="80.5519" width="20.7692" height="2.09174" rx="1.04587" fill="#F3F4F4"/>
<defs>
<filter id="filter0_d_2334_4583" x="25.5" y="30" width="57.8184" height="52.8179" filterUnits="userSpaceOnUse" color-interpolation-filters="sRGB">
<feFlood flood-opacity="0" result="BackgroundImageFix"/>
<feColorMatrix in="SourceAlpha" type="matrix" values="0 0 0 0 0 0 0 0 0 0 0 0 0 0 0 0 0 0 127 0" result="hardAlpha"/>
<feOffset dy="4"/>
<feGaussianBlur stdDeviation="7.5"/>
<feComposite in2="hardAlpha" operator="out"/>
<feColorMatrix type="matrix" values="0 0 0 0 0 0 0 0 0 0 0 0 0 0 0 0 0 0 0.05 0"/>
<feBlend mode="normal" in2="BackgroundImageFix" result="effect1_dropShadow_2334_4583"/>
<feBlend mode="normal" in="SourceGraphic" in2="effect1_dropShadow_2334_4583" result="shape"/>
</filter>
<filter id="filter1_d_2334_4583" x="25.5" y="58.0472" width="57.8184" height="52.8179" filterUnits="userSpaceOnUse" color-interpolation-filters="sRGB">
<feFlood flood-opacity="0" result="BackgroundImageFix"/>
<feColorMatrix in="SourceAlpha" type="matrix" values="0 0 0 0 0 0 0 0 0 0 0 0 0 0 0 0 0 0 127 0" result="hardAlpha"/>
<feOffset dy="4"/>
<feGaussianBlur stdDeviation="7.5"/>
<feComposite in2="hardAlpha" operator="out"/>
<feColorMatrix type="matrix" values="0 0 0 0 0 0 0 0 0 0 0 0 0 0 0 0 0 0 0.05 0"/>
<feBlend mode="normal" in2="BackgroundImageFix" result="effect1_dropShadow_2334_4583"/>
<feBlend mode="normal" in="SourceGraphic" in2="effect1_dropShadow_2334_4583" result="shape"/>
</filter>
</defs>
</svg>
