<svg width="24" height="24" viewBox="0 0 24 24" fill="none" xmlns="http://www.w3.org/2000/svg">
<path d="M16 4.25C16 5.49 14.99 6.5 13.75 6.5H10.25C9.63 6.5 9.07 6.25 8.66 5.84C8.25 5.43 8 4.87 8 4.25C8 3.01 9.01 2 10.25 2H13.75C14.37 2 14.93 2.25 15.34 2.66C15.75 3.07 16 3.63 16 4.25Z" fill="white"/>
<path d="M18.83 5.0307C18.6 4.8407 18.34 4.6907 18.06 4.5807C17.77 4.4707 17.48 4.7007 17.42 5.0007C17.08 6.7107 15.57 8.0007 13.75 8.0007H10.25C9.25 8.0007 8.31 7.6107 7.6 6.9007C7.08 6.3807 6.72 5.7207 6.58 5.0107C6.52 4.7107 6.22 4.4707 5.93 4.5907C4.77 5.0607 4 6.1207 4 8.2507V18.0007C4 21.0007 5.79 22.0007 8 22.0007H16C18.21 22.0007 20 21.0007 20 18.0007V8.2507C20 6.6207 19.55 5.6207 18.83 5.0307Z" fill="white"/>
<path d="M7 9V17.5C7 18.33 7.67 19 8.5 19H17" stroke="#00937D" stroke-width="1.2" stroke-miterlimit="10" stroke-linecap="round" stroke-linejoin="round"/>
<path d="M9 17L11.295 13.784C11.675 13.256 12.35 13.22 12.76 13.718L13.235 14.288C13.645 14.78 14.32 14.75 14.7 14.222L17 11" stroke="#00937D" stroke-width="1.2" stroke-miterlimit="10" stroke-linecap="round" stroke-linejoin="round"/>
</svg>
