<svg width="28" height="28" viewBox="0 0 28 28" fill="none" xmlns="http://www.w3.org/2000/svg">
<path d="M22.5636 16.9049L21.3969 14.9683C21.1519 14.5366 20.9303 13.7199 20.9303 13.2416V10.2899C20.9303 7.54825 19.3203 5.17992 16.9986 4.07159C16.3919 2.99825 15.2719 2.33325 13.9886 2.33325C12.7169 2.33325 11.5736 3.02159 10.9669 4.10659C8.69193 5.23825 7.11693 7.58325 7.11693 10.2899V13.2416C7.11693 13.7199 6.89526 14.5366 6.65026 14.9566L5.47193 16.9049C5.00526 17.6866 4.90026 18.5499 5.19193 19.3433C5.47193 20.1249 6.13693 20.7316 7.00026 21.0233C9.26359 21.7933 11.6436 22.1666 14.0236 22.1666C16.4036 22.1666 18.7836 21.7933 21.0469 21.0349C21.8636 20.7666 22.4936 20.1483 22.7969 19.3433C23.1003 18.5383 23.0186 17.6516 22.5636 16.9049Z" fill="#797979"/>
<path d="M17.3026 23.3449C16.8126 24.6983 15.5176 25.6666 14.0009 25.6666C13.0793 25.6666 12.1693 25.2933 11.5276 24.6283C11.1543 24.2783 10.8743 23.8116 10.7109 23.3333C10.8626 23.3566 11.0143 23.3683 11.1776 23.3916C11.4459 23.4266 11.7259 23.4616 12.0059 23.4849C12.6709 23.5433 13.3476 23.5783 14.0243 23.5783C14.6893 23.5783 15.3543 23.5433 16.0076 23.4849C16.2526 23.4616 16.4976 23.4499 16.7309 23.4149C16.9176 23.3916 17.1043 23.3683 17.3026 23.3449Z" fill="#797979"/>
</svg>
