<svg width="60" height="60" viewBox="0 0 60 60" fill="none" xmlns="http://www.w3.org/2000/svg">
<g filter="url(#filter0_d_106_82)">
<circle cx="30" cy="28.0002" r="14" fill="#00937D"/>
<circle cx="30" cy="28.0002" r="14.5" stroke="white"/>
</g>
<path d="M36.0758 24.2052C36.0758 24.6102 35.8583 24.9777 35.5133 25.1652L34.2083 25.8702L33.0983 26.4627L30.7958 27.7077C30.5483 27.8427 30.2783 27.9102 30.0008 27.9102C29.7233 27.9102 29.4533 27.8427 29.2058 27.7077L24.4883 25.1652C24.1433 24.9777 23.9258 24.6102 23.9258 24.2052C23.9258 23.8002 24.1433 23.4327 24.4883 23.2452L25.9658 22.4502L27.1433 21.8127L29.2058 20.7027C29.7008 20.4327 30.3008 20.4327 30.7958 20.7027L35.5133 23.2452C35.8583 23.4327 36.0758 23.8002 36.0758 24.2052Z" fill="white"/>
<path d="M28.4241 28.5928L24.0366 26.4028C23.6991 26.2303 23.3091 26.2528 22.9866 26.4478C22.6641 26.6428 22.4766 26.9878 22.4766 27.3628V31.5103C22.4766 32.2303 22.8741 32.8753 23.5191 33.1978L27.9066 35.3878C28.0566 35.4628 28.2216 35.5003 28.3866 35.5003C28.5816 35.5003 28.7766 35.4478 28.9491 35.3353C29.2716 35.1403 29.4591 34.7953 29.4591 34.4203V30.2728C29.4666 29.5603 29.0691 28.9153 28.4241 28.5928Z" fill="white"/>
<path d="M37.5232 27.3624V31.5099C37.5232 32.2224 37.1257 32.8674 36.4807 33.1899L32.0932 35.3874C31.9432 35.4624 31.7782 35.4999 31.6132 35.4999C31.4182 35.4999 31.2232 35.4474 31.0432 35.3349C30.7282 35.1399 30.5332 34.7949 30.5332 34.4199V30.2799C30.5332 29.5599 30.9307 28.9149 31.5757 28.5924L33.1882 27.7899L34.3132 27.2274L35.9632 26.4024C36.3007 26.2299 36.6907 26.2449 37.0132 26.4474C37.3282 26.6424 37.5232 26.9874 37.5232 27.3624Z" fill="white"/>
<path d="M34.2075 25.8702L33.0975 26.4627L25.965 22.4502L27.1425 21.8127L34.0275 25.6977C34.1025 25.7427 34.1625 25.8027 34.2075 25.8702Z" fill="#00937D"/>
<path d="M34.3125 27.2277V28.9302C34.3125 29.2377 34.0575 29.4927 33.75 29.4927C33.4425 29.4927 33.1875 29.2377 33.1875 28.9302V27.7902L34.3125 27.2277Z" fill="#00937D"/>
<defs>
<filter id="filter0_d_106_82" x="0" y="0.000183105" width="60" height="60" filterUnits="userSpaceOnUse" color-interpolation-filters="sRGB">
<feFlood flood-opacity="0" result="BackgroundImageFix"/>
<feColorMatrix in="SourceAlpha" type="matrix" values="0 0 0 0 0 0 0 0 0 0 0 0 0 0 0 0 0 0 127 0" result="hardAlpha"/>
<feOffset dy="2"/>
<feGaussianBlur stdDeviation="7.5"/>
<feComposite in2="hardAlpha" operator="out"/>
<feColorMatrix type="matrix" values="0 0 0 0 0 0 0 0 0 0 0 0 0 0 0 0 0 0 0.1 0"/>
<feBlend mode="normal" in2="BackgroundImageFix" result="effect1_dropShadow_106_82"/>
<feBlend mode="normal" in="SourceGraphic" in2="effect1_dropShadow_106_82" result="shape"/>
</filter>
</defs>
</svg>
