<svg width="60" height="60" viewBox="0 0 60 60" fill="none" xmlns="http://www.w3.org/2000/svg">
<g filter="url(#filter0_d_1615_95348)">
<circle cx="30" cy="28" r="14" fill="#00937D"/>
<circle cx="30" cy="28" r="14.5" stroke="white"/>
</g>
<path d="M24.0005 30.6421L24.0005 30.6421C22.911 31.0611 21.6199 30.346 21.0873 29.1158C20.5541 27.8857 20.9443 26.5116 22.0414 26.0897C23.1311 25.6705 24.4221 26.3873 24.9547 27.616C25.4879 28.846 25.0977 30.2201 24.0005 30.6421ZM27.6529 25.6375L27.6529 25.6375L26.2558 21.0593L26.2164 20.9146C26.2164 20.9146 26.2164 20.9146 26.2164 20.9146C27.3458 20.6068 28.551 21.4484 28.9422 22.7252C29.3339 24.0032 28.7895 25.3282 27.6529 25.6375ZM35.9996 30.8505L35.9996 30.8505C34.9022 30.43 34.5122 29.0558 35.0453 27.8244C35.5779 26.5941 36.869 25.8789 37.9586 26.2981C39.0557 26.72 39.4459 28.0925 38.9127 29.324C38.38 30.5546 37.0889 31.2678 35.9996 30.8505ZM32.6041 25.6375L32.6041 25.6375C31.4675 25.3282 30.9232 24.0032 31.3147 22.7252C31.706 21.447 32.9096 20.6053 34.0406 20.9131C35.1772 21.2223 35.7214 22.5472 35.3299 23.8253C34.9386 25.1034 33.735 25.9451 32.6041 25.6375ZM29.8951 34.6927L29.8982 34.8427L29.8981 34.8427L29.8979 34.8427L29.8971 34.8427L29.8935 34.8428L29.8793 34.8431L29.8242 34.8446C29.7762 34.846 29.7065 34.8482 29.6202 34.8515C29.4477 34.8582 29.209 34.8693 28.9444 34.8871C28.4114 34.9229 27.7868 34.985 27.3831 35.0884C26.9309 35.2052 26.2087 35.1665 25.6421 34.8805C25.3558 34.736 25.1005 34.5238 24.9444 34.2271C24.7871 33.9285 24.7385 33.5593 24.8402 33.1177C25.0259 32.3113 25.5088 31.8867 25.9847 31.4682C26.0278 31.4304 26.0707 31.3926 26.1134 31.3546C26.6263 30.8979 27.1323 30.3868 27.3523 29.3212C27.5913 28.1601 28.2245 27.6019 28.8083 27.3413C29.0968 27.2125 29.3693 27.1578 29.5696 27.1353C29.6699 27.1239 29.7528 27.1206 29.8112 27.1201C29.8405 27.1199 29.8637 27.1204 29.8801 27.121L29.8967 27.1217L29.9132 27.121C29.9295 27.1204 29.9527 27.1199 29.9819 27.1201C30.0403 27.1206 30.1229 27.1239 30.2231 27.1353C30.4229 27.1578 30.6949 27.2125 30.9828 27.3413C31.5655 27.602 32.1973 28.1602 32.4363 29.3213L32.4363 29.3214C32.6548 30.387 33.1592 30.8981 33.6709 31.3547C33.7137 31.3929 33.7568 31.4308 33.7999 31.4688C34.2745 31.8871 34.7563 32.3116 34.942 33.1175C35.0441 33.5591 34.9959 33.9282 34.8391 34.2268C34.6833 34.5234 34.4283 34.7355 34.1423 34.8799C33.5762 35.1658 32.8544 35.2044 32.4024 35.0885C31.9987 34.9849 31.3751 34.9229 30.8434 34.8871C30.5794 34.8693 30.3412 34.8582 30.1691 34.8515C30.0831 34.8482 30.0136 34.846 29.9657 34.8446L29.9107 34.8431L29.8966 34.8428L29.893 34.8427L29.8922 34.8427L29.892 34.8427L29.8919 34.8427L29.8951 34.6927Z" fill="white" stroke="white" stroke-width="0.3" stroke-miterlimit="10"/>
<defs>
<filter id="filter0_d_1615_95348" x="0" y="0" width="60" height="60" filterUnits="userSpaceOnUse" color-interpolation-filters="sRGB">
<feFlood flood-opacity="0" result="BackgroundImageFix"/>
<feColorMatrix in="SourceAlpha" type="matrix" values="0 0 0 0 0 0 0 0 0 0 0 0 0 0 0 0 0 0 127 0" result="hardAlpha"/>
<feOffset dy="2"/>
<feGaussianBlur stdDeviation="7.5"/>
<feComposite in2="hardAlpha" operator="out"/>
<feColorMatrix type="matrix" values="0 0 0 0 0 0 0 0 0 0 0 0 0 0 0 0 0 0 0.1 0"/>
<feBlend mode="normal" in2="BackgroundImageFix" result="effect1_dropShadow_1615_95348"/>
<feBlend mode="normal" in="SourceGraphic" in2="effect1_dropShadow_1615_95348" result="shape"/>
</filter>
</defs>
</svg>
