<svg width="20" height="20" viewBox="0 0 20 20" fill="none" xmlns="http://www.w3.org/2000/svg">
<path d="M4.00054 12.6421L4.00054 12.6421C2.91101 13.0611 1.61993 12.346 1.08733 11.1158C0.554125 9.88567 0.944295 8.51163 2.04138 8.08968C3.13109 7.67053 4.42206 8.38732 4.95465 9.61599C5.48786 10.846 5.09768 12.2201 4.00054 12.6421ZM7.65292 7.63746L7.6529 7.63746L6.25582 3.0593L6.21638 2.91458C6.21638 2.91458 6.21639 2.91457 6.21639 2.91457C7.3458 2.60683 8.55096 3.44839 8.94219 4.72522C9.33386 6.00323 8.78953 7.3282 7.65292 7.63746ZM15.9996 12.8505L15.9996 12.8505C14.9022 12.43 14.5122 11.0558 15.0453 9.82444C15.5779 8.59415 16.869 7.87895 17.9586 8.29807C19.0557 8.72001 19.4459 10.0925 18.9127 11.324C18.38 12.5546 17.0889 13.2678 15.9996 12.8505ZM12.6041 7.63746L12.6041 7.63746C11.4675 7.3282 10.9232 6.00322 11.3147 4.72522C11.706 3.44695 12.9096 2.60534 14.0406 2.91306C15.1772 3.22226 15.7214 4.54722 15.3299 5.82526C14.9386 7.10345 13.735 7.94506 12.6041 7.63746ZM9.89505 16.6927L9.89819 16.8427L9.89815 16.8427L9.89795 16.8427L9.89708 16.8427L9.89353 16.8428L9.87932 16.8431L9.82418 16.8446C9.77616 16.846 9.7065 16.8482 9.62024 16.8515C9.44767 16.8582 9.20895 16.8693 8.94437 16.8871C8.41143 16.9229 7.78676 16.985 7.3831 17.0884C6.93089 17.2052 6.2087 17.1665 5.64215 16.8805C5.35582 16.736 5.1005 16.5238 4.94436 16.2271C4.78714 15.9285 4.73847 15.5593 4.84018 15.1177C5.02592 14.3113 5.50881 13.8867 5.98474 13.4682C6.02775 13.4304 6.0707 13.3926 6.11337 13.3546C6.62632 12.8979 7.13234 12.3868 7.35235 11.3212C7.59128 10.1601 8.22445 9.60191 8.80831 9.34125C9.0968 9.21246 9.36933 9.15783 9.56959 9.13525C9.66993 9.12394 9.75276 9.1206 9.81124 9.12013C9.8405 9.1199 9.86373 9.12039 9.88008 9.12097L9.89668 9.1217L9.91323 9.12097C9.92955 9.12039 9.95273 9.1199 9.98193 9.12013C10.0403 9.1206 10.1229 9.12394 10.2231 9.13526C10.4229 9.15784 10.6949 9.21248 10.9828 9.3413C11.5655 9.60203 12.1973 10.1602 12.4363 11.3213L12.4363 11.3214C12.6548 12.387 13.1592 12.8981 13.6709 13.3547C13.7137 13.3929 13.7568 13.4308 13.7999 13.4688C14.2745 13.8871 14.7563 14.3116 14.942 15.1175C15.0441 15.5591 14.9959 15.9282 14.8391 16.2268C14.6833 16.5234 14.4283 16.7355 14.1423 16.8799C13.5762 17.1658 12.8544 17.2044 12.4024 17.0885C11.9987 16.9849 11.3751 16.9229 10.8434 16.8871C10.5794 16.8693 10.3412 16.8582 10.1691 16.8515C10.0831 16.8482 10.0136 16.846 9.96572 16.8446L9.91072 16.8431L9.89656 16.8428L9.89301 16.8427L9.89215 16.8427L9.89195 16.8427L9.89191 16.8427L9.89505 16.6927Z" fill="white" stroke="white" stroke-width="0.3" stroke-miterlimit="10"/>
</svg>
