<svg width="24" height="24" viewBox="0 0 24 24" fill="none" xmlns="http://www.w3.org/2000/svg">
<path d="M18.5 19.5H14.5" stroke="white" stroke-width="1.5" stroke-linecap="round" stroke-linejoin="round"/>
<path d="M16.5 21.5V17.5" stroke="white" stroke-width="1.5" stroke-linecap="round" stroke-linejoin="round"/>
<path d="M12.1606 10.87C12.0606 10.86 11.9406 10.86 11.8306 10.87C9.45058 10.79 7.56058 8.84 7.56058 6.44C7.55058 3.99 9.54058 2 11.9906 2C14.4406 2 16.4306 3.99 16.4306 6.44C16.4306 8.84 14.5306 10.79 12.1606 10.87Z" stroke="white" stroke-width="1.5" stroke-linecap="round" stroke-linejoin="round"/>
<path d="M11.9891 21.8097C10.1691 21.8097 8.35906 21.3497 6.97906 20.4297C4.55906 18.8097 4.55906 16.1697 6.97906 14.5597C9.72906 12.7197 14.2391 12.7197 16.9891 14.5597" stroke="white" stroke-width="1.5" stroke-linecap="round" stroke-linejoin="round"/>
</svg>
