<svg width="20" height="20" viewBox="0 0 20 20" fill="none" xmlns="http://www.w3.org/2000/svg">
<path d="M7.49984 1.66602C5.3165 1.66602 3.5415 3.44102 3.5415 5.62435C3.5415 7.76602 5.2165 9.49935 7.39984 9.57435C7.4665 9.56602 7.53317 9.56602 7.58317 9.57435C7.59984 9.57435 7.60817 9.57435 7.62484 9.57435C7.63317 9.57435 7.63317 9.57435 7.6415 9.57435C9.77484 9.49935 11.4498 7.76602 11.4582 5.62435C11.4582 3.44102 9.68317 1.66602 7.49984 1.66602Z" fill="white"/>
<path d="M11.7333 11.7914C9.4083 10.2414 5.61663 10.2414 3.27497 11.7914C2.21663 12.4997 1.6333 13.4581 1.6333 14.4831C1.6333 15.5081 2.21663 16.4581 3.26663 17.1581C4.4333 17.9414 5.96663 18.3331 7.49997 18.3331C9.0333 18.3331 10.5666 17.9414 11.7333 17.1581C12.7833 16.4497 13.3666 15.4997 13.3666 14.4664C13.3583 13.4414 12.7833 12.4914 11.7333 11.7914Z" fill="white"/>
<path d="M16.6583 6.11708C16.7916 7.73374 15.6416 9.15041 14.05 9.34207C14.0416 9.34207 14.0416 9.34207 14.0333 9.34207H14.0083C13.9583 9.34207 13.9083 9.34207 13.8666 9.35874C13.0583 9.40041 12.3166 9.14207 11.7583 8.66707C12.6166 7.90041 13.1083 6.75041 13.0083 5.50041C12.95 4.82541 12.7166 4.20874 12.3666 3.68374C12.6833 3.52541 13.05 3.42541 13.425 3.39208C15.0583 3.25041 16.5166 4.46708 16.6583 6.11708Z" fill="white"/>
<path d="M18.3249 13.8247C18.2582 14.633 17.7415 15.333 16.8749 15.808C16.0415 16.2663 14.9915 16.483 13.9499 16.458C14.5499 15.9163 14.8999 15.2413 14.9665 14.5247C15.0499 13.4913 14.5582 12.4997 13.5749 11.708C13.0165 11.2663 12.3665 10.9163 11.6582 10.658C13.4999 10.1247 15.8165 10.483 17.2415 11.633C18.0082 12.2497 18.3999 13.0247 18.3249 13.8247Z" fill="white"/>
</svg>
