<svg width="68" height="68" viewBox="0 0 68 68" fill="none" xmlns="http://www.w3.org/2000/svg">
<path d="M62.3327 34C62.3327 18.3883 49.611 5.66667 33.9994 5.66667C18.3877 5.66667 5.66602 18.3883 5.66602 34C5.66602 42.2167 9.20768 49.6117 14.8177 54.7967C14.8177 54.825 14.8177 54.825 14.7893 54.8533C15.0727 55.1367 15.4127 55.3633 15.696 55.6183C15.866 55.76 16.0077 55.9017 16.1777 56.015C16.6877 56.44 17.2544 56.8367 17.7927 57.2333C17.991 57.375 18.161 57.4883 18.3593 57.63C18.8977 57.9983 19.4643 58.3383 20.0594 58.65C20.2577 58.7633 20.4844 58.905 20.6827 59.0183C21.2494 59.33 21.8443 59.6133 22.4677 59.8683C22.6943 59.9817 22.921 60.095 23.1477 60.18C23.771 60.435 24.3944 60.6617 25.0177 60.86C25.2444 60.945 25.471 61.03 25.6977 61.0867C26.3777 61.285 27.0577 61.455 27.7377 61.625C27.936 61.6817 28.1344 61.7383 28.361 61.7667C29.1544 61.9367 29.9477 62.05 30.7694 62.135C30.8827 62.135 30.996 62.1633 31.1093 62.1917C32.0727 62.2767 33.036 62.3333 33.9994 62.3333C34.9627 62.3333 35.926 62.2767 36.861 62.1917C36.9744 62.1917 37.0877 62.1633 37.201 62.135C38.0227 62.05 38.816 61.9367 39.6093 61.7667C39.8077 61.7383 40.006 61.6533 40.2327 61.625C40.9127 61.455 41.621 61.3133 42.2727 61.0867C42.4994 61.0017 42.726 60.9167 42.9527 60.86C43.576 60.6333 44.2277 60.435 44.8227 60.18C45.0494 60.095 45.276 59.9817 45.5027 59.8683C46.0977 59.6133 46.6927 59.33 47.2877 59.0183C47.5144 58.905 47.7127 58.7633 47.911 58.65C48.4777 58.31 49.0444 57.9983 49.611 57.63C49.8094 57.5167 49.9793 57.375 50.1777 57.2333C50.7444 56.8367 51.2827 56.44 51.7927 56.015C51.9627 55.8733 52.1044 55.7317 52.2744 55.6183C52.586 55.3633 52.8977 55.1083 53.181 54.8533C53.181 54.825 53.181 54.825 53.1527 54.7967C58.791 49.6117 62.3327 42.2167 62.3327 34ZM47.996 48.0817C40.3177 42.925 27.7377 42.925 20.0027 48.0817C18.756 48.9033 17.736 49.8667 16.886 50.915C12.5793 46.5517 9.91602 40.5733 9.91602 34C9.91602 20.7117 20.711 9.91667 33.9994 9.91667C47.2877 9.91667 58.0827 20.7117 58.0827 34C58.0827 40.5733 55.4194 46.5517 51.1127 50.915C50.291 49.8667 49.2427 48.9033 47.996 48.0817Z" fill="#00937D"/>
<path d="M34 19.635C28.135 19.635 23.375 24.395 23.375 30.26C23.375 36.0117 27.88 40.6867 33.8583 40.8567C33.9433 40.8567 34.0567 40.8567 34.1133 40.8567C34.17 40.8567 34.255 40.8567 34.3117 40.8567C34.34 40.8567 34.3683 40.8567 34.3683 40.8567C40.0917 40.6583 44.5967 36.0117 44.625 30.26C44.625 24.395 39.865 19.635 34 19.635Z" fill="#00937D"/>
</svg>
