<svg width="22" height="22" viewBox="0 0 22 22" fill="none" xmlns="http://www.w3.org/2000/svg">
<path d="M14.6753 19.1382C14.6809 19.6944 14.2316 20.1483 13.6753 20.1483H8.32704C7.77736 20.1483 7.33073 19.7046 7.32706 19.1549L7.31543 17.4166C7.31543 16.4083 8.13126 15.5833 9.14876 15.5833H12.8246C13.8329 15.5833 14.6488 16.3991 14.6579 17.4074L14.6753 19.1382Z" fill="#797979"/>
<path d="M16.958 9.16658V11.1557C16.958 11.6416 17.1505 12.1091 17.4988 12.4574L18.2505 13.2091C18.5988 13.5574 18.7913 14.0249 18.7913 14.5107V15.5832C18.7913 17.6739 17.9729 19.2164 16.1866 19.8439C15.8865 19.9493 15.5911 19.7111 15.59 19.393L15.583 17.3982C15.5647 15.8949 14.3272 14.6666 12.833 14.6666H9.15717C7.63551 14.6666 6.40717 15.9041 6.40717 17.4166V19.4041C6.40717 19.7215 6.11372 19.9607 5.81347 19.8576C4.006 19.2371 3.20801 17.685 3.20801 15.5832V6.41658C3.20801 4.22862 4.06663 2.6233 6.04329 2.06334C6.343 1.97844 6.62307 2.2203 6.61861 2.53177L6.59051 4.49158C6.58134 4.92242 6.73717 5.33492 7.03051 5.64658C7.33301 5.95825 7.72717 6.13242 8.19467 6.14158C8.666 6.14158 9.0857 5.94656 9.37211 5.62911C9.47497 5.5151 9.67193 5.5105 9.78051 5.61908C10.0738 5.93075 10.4772 6.11408 10.9447 6.12325C11.4162 6.12325 11.8462 5.91603 12.1396 5.58248C12.2361 5.47287 12.4335 5.46414 12.5305 5.57325C12.8238 5.88492 13.2272 6.06825 13.6947 6.07742C14.5747 6.07742 15.2805 5.38992 15.2988 4.50075L15.3344 2.51073C15.3398 2.20642 15.6154 1.97516 15.9087 2.05623C17.8965 2.60561 18.7913 4.22182 18.7913 6.41658V7.33325C18.7913 7.83742 18.3788 8.24992 17.8747 8.24992C17.3705 8.24992 16.958 8.66242 16.958 9.16658Z" fill="#797979"/>
<path d="M8.41705 1.83655C8.69776 1.83474 8.92495 2.06432 8.9202 2.34499L8.88302 4.54659C8.87385 4.92242 8.57135 5.22492 8.19552 5.22492H8.18635C7.80135 5.21575 7.49885 4.90408 7.50802 4.51908V2.3392C7.50802 2.06432 7.72991 1.84099 8.00479 1.83921L8.41705 1.83655Z" fill="#797979"/>
<path d="M11.1703 1.83325C11.4498 1.83325 11.675 2.06231 11.6702 2.34173L11.633 4.53742C11.6238 4.90409 11.3213 5.20659 10.9455 5.20659H10.9363C10.5513 5.19742 10.2488 4.88575 10.258 4.50992L10.258 2.33325C10.258 2.05711 10.4819 1.83325 10.758 1.83325H11.1703Z" fill="#797979"/>
<path d="M13.9233 1.83926C14.2016 1.84102 14.4249 2.06967 14.4201 2.34793L14.383 4.48245C14.3738 4.85828 14.0713 5.16078 13.6955 5.16078H13.6863C13.3013 5.15161 12.9988 4.83995 13.008 4.46411V2.33666C13.008 2.05928 13.2338 1.83492 13.5112 1.83667L13.9233 1.83926Z" fill="#797979"/>
</svg>
