<svg width="28" height="28" viewBox="0 0 28 28" fill="none" xmlns="http://www.w3.org/2000/svg">
<path d="M24.5819 6.10165C22.7036 5.91498 20.8253 5.77498 18.9353 5.66998V5.65831L18.6786 4.14165C18.5036 3.06831 18.2469 1.45831 15.5169 1.45831H12.4603C9.74193 1.45831 9.48526 2.99831 9.2986 4.12998L9.0536 5.62331C7.9686 5.69331 6.8836 5.76331 5.7986 5.86831L3.4186 6.10165C2.9286 6.14831 2.5786 6.57998 2.62527 7.05831C2.67193 7.53665 3.09193 7.88665 3.58193 7.83998L5.96193 7.60665C12.0753 6.99998 18.2353 7.23331 24.4186 7.85165C24.4536 7.85165 24.4769 7.85165 24.5119 7.85165C24.9553 7.85165 25.3403 7.51331 25.3869 7.05831C25.4219 6.57998 25.0719 6.14831 24.5819 6.10165Z" fill="#FF5656"/>
<path d="M22.435 9.49669C22.155 9.20502 21.77 9.04169 21.3734 9.04169H6.6267C6.23003 9.04169 5.83337 9.20502 5.56503 9.49669C5.2967 9.78835 5.14503 10.185 5.16837 10.5934L5.8917 22.5634C6.02003 24.3367 6.18337 26.5534 10.255 26.5534H17.745C21.8167 26.5534 21.98 24.3484 22.1084 22.5634L22.8317 10.605C22.855 10.185 22.7034 9.78835 22.435 9.49669ZM15.9367 20.7084H12.0517C11.5734 20.7084 11.1767 20.3117 11.1767 19.8334C11.1767 19.355 11.5734 18.9584 12.0517 18.9584H15.9367C16.415 18.9584 16.8117 19.355 16.8117 19.8334C16.8117 20.3117 16.415 20.7084 15.9367 20.7084ZM16.9167 16.0417H11.0834C10.605 16.0417 10.2084 15.645 10.2084 15.1667C10.2084 14.6884 10.605 14.2917 11.0834 14.2917H16.9167C17.395 14.2917 17.7917 14.6884 17.7917 15.1667C17.7917 15.645 17.395 16.0417 16.9167 16.0417Z" fill="#FF5656"/>
</svg>
