<svg width="56" height="56" viewBox="0 0 56 56" fill="none" xmlns="http://www.w3.org/2000/svg">
<path fill-rule="evenodd" clip-rule="evenodd" d="M45 1L27.1291 39.1323L17.0664 18.738H22.2885L27.1291 28.4194L39.6022 1H45Z" fill="#00937D"/>
<mask id="path-2-inside-1_1067_32710" fill="white">
<path d="M47.799 8.20101C52.4934 12.8954 55.367 19.1051 55.9072 25.722C56.4473 32.3388 54.6188 38.9323 50.7478 44.3259C46.8769 49.7195 41.2155 53.5622 34.7738 55.1683C28.3321 56.7744 21.5294 56.0394 15.5794 53.0944C9.62945 50.1494 4.91947 45.1862 2.28995 39.0902C-0.339576 32.9943 -0.717552 26.1624 1.22347 19.8136C3.16449 13.4648 7.29821 8.01224 12.887 4.4289C18.4758 0.845562 25.1559 -0.635398 31.7355 0.250293L31.2734 3.6828C25.5077 2.90666 19.6539 4.20443 14.7564 7.34453C9.85892 10.4846 6.23652 15.2627 4.53559 20.8262C2.83467 26.3897 3.16589 32.3765 5.47016 37.7184C7.77442 43.0603 11.9018 47.4097 17.1158 49.9903C22.3297 52.571 28.2911 53.2151 33.9359 51.8077C39.5808 50.4003 44.5419 47.0329 47.934 42.3065C51.3262 37.5801 52.9285 31.8021 52.4552 26.0037C51.9819 20.2053 49.4637 14.7638 45.3499 10.65L47.799 8.20101Z"/>
</mask>
<path d="M47.799 8.20101C52.4934 12.8954 55.367 19.1051 55.9072 25.722C56.4473 32.3388 54.6188 38.9323 50.7478 44.3259C46.8769 49.7195 41.2155 53.5622 34.7738 55.1683C28.3321 56.7744 21.5294 56.0394 15.5794 53.0944C9.62945 50.1494 4.91947 45.1862 2.28995 39.0902C-0.339576 32.9943 -0.717552 26.1624 1.22347 19.8136C3.16449 13.4648 7.29821 8.01224 12.887 4.4289C18.4758 0.845562 25.1559 -0.635398 31.7355 0.250293L31.2734 3.6828C25.5077 2.90666 19.6539 4.20443 14.7564 7.34453C9.85892 10.4846 6.23652 15.2627 4.53559 20.8262C2.83467 26.3897 3.16589 32.3765 5.47016 37.7184C7.77442 43.0603 11.9018 47.4097 17.1158 49.9903C22.3297 52.571 28.2911 53.2151 33.9359 51.8077C39.5808 50.4003 44.5419 47.0329 47.934 42.3065C51.3262 37.5801 52.9285 31.8021 52.4552 26.0037C51.9819 20.2053 49.4637 14.7638 45.3499 10.65L47.799 8.20101Z" fill="#D9D9D9" stroke="#00937D" stroke-width="4" mask="url(#path-2-inside-1_1067_32710)"/>
</svg>
