<svg width="230" height="217" viewBox="0 0 230 217" fill="none" xmlns="http://www.w3.org/2000/svg">
<circle cx="108.5" cy="108.5" r="108.5" fill="#EBF7F5"/>
<circle cx="108.5" cy="108.5" r="77.5" fill="#D4EEE9"/>
<circle cx="108.5" cy="108.5" r="45.5" fill="#B4E1D9"/>
<path d="M100.131 100.452C100.131 108.406 97.2023 114.843 93.5768 114.843C93.284 114.843 92.997 114.808 92.7217 114.72L90.332 114.163C90.6776 114.163 91.0173 114.105 91.3394 113.976C94.186 112.922 96.3589 107.48 96.3589 100.921C96.3589 98.9292 96.1539 97.0374 95.8025 95.3447C97.1847 95.743 98.8481 97.3713 99.4631 98.121C99.7384 98.4607 99.9375 98.7067 100.09 98.8882C100.119 99.3978 100.137 99.9249 100.137 100.452H100.131Z" fill="#DAD9DC"/>
<path d="M96.3516 100.928C96.3516 107.488 94.1787 112.929 91.3321 113.983C91.01 114.112 90.6703 114.171 90.3247 114.171C87.4138 114.171 84.9831 109.614 84.4267 103.575C84.3506 102.726 84.3037 101.842 84.3037 100.928V100.77C84.3037 100.389 84.3213 100.002 84.333 99.6276C84.4091 98.1165 84.579 96.6757 84.866 95.352C85.1764 93.9111 85.5864 92.6109 86.1018 91.5098C86.4415 91.9432 86.7871 92.4117 87.1209 92.8979C86.3478 94.8893 85.809 97.6186 85.809 100.928C85.809 107.909 88.2279 112.302 90.0963 112.648C90.1724 112.665 90.2545 112.671 90.3306 112.671C92.2166 112.671 94.8522 108.208 94.8522 100.934C94.8522 98.79 94.6179 96.8924 94.2489 95.2758C94.6238 95.27 94.9635 95.27 95.2271 95.27C95.3149 95.27 95.4086 95.2758 95.5023 95.2934C95.5902 95.311 95.6898 95.3285 95.7893 95.3637H95.7952C96.1466 97.0564 96.3516 98.9482 96.3516 100.94V100.928Z" fill="#5DBDAF"/>
<path d="M129.536 100.452C129.536 108.405 126.602 114.842 122.988 114.842H93.5684C97.1939 114.842 100.122 108.4 100.122 100.452C100.122 99.9244 100.105 99.3973 100.076 98.8877C100.316 99.1689 100.468 99.3094 100.714 99.3914C100.925 99.4617 107.608 99.4617 114.267 99.4442C114.999 99.4442 115.731 99.4383 116.458 99.4383C122.379 99.4207 127.715 99.3914 127.715 99.3914C127.715 99.3914 128.787 98.9697 129.39 97.4586V97.4762C129.489 98.4309 129.53 99.4324 129.53 100.452H129.536Z" fill="#C1C1C1"/>
<path d="M94.8577 100.919C94.8577 108.193 92.222 112.662 90.3361 112.662C90.2599 112.662 90.1779 112.651 90.1018 112.639C88.2393 112.293 85.8145 107.906 85.8145 100.919C85.8145 97.6157 86.3592 94.8863 87.1323 92.8949L94.2603 95.2611C94.6234 96.8777 94.8577 98.7812 94.8577 100.919Z" fill="#181524"/>
<path d="M92.5235 100.928C92.5235 103.763 91.4575 106.059 90.1397 106.059C88.8218 106.059 87.7676 103.757 87.7676 100.928C87.7676 98.0988 88.8277 95.7911 90.1397 95.7911C91.4516 95.7911 92.5235 98.0812 92.5235 100.928Z" fill="#00937D"/>
<path d="M129.392 97.4755V97.4579C128.795 98.969 127.717 99.3907 127.717 99.3907C127.717 99.3907 122.382 99.42 116.46 99.4376C115.74 99.4376 115.002 99.4434 114.275 99.4434C107.616 99.461 100.933 99.461 100.722 99.3907C100.476 99.3087 100.324 99.1623 100.084 98.887C99.9315 98.7054 99.7382 98.4594 99.4571 98.1197C98.8421 97.3759 97.1787 95.7476 95.7965 95.3435H95.7906C95.691 95.3142 95.5973 95.2908 95.5036 95.2732C95.404 95.2557 95.3162 95.2498 95.2283 95.2498C94.9648 95.2498 94.6251 95.2498 94.2502 95.2557C92.5458 95.2732 89.998 95.3084 89.4826 95.3084C88.85 95.3084 88.5455 94.9452 88.0476 94.301C87.7372 93.8031 87.4326 93.3404 87.1222 92.8894C86.7825 92.4033 86.437 91.9347 86.1031 91.5013C84.0239 88.7954 82.0618 87.1788 80.5565 86.23C79.0688 85.2987 78.0263 85.0176 77.7627 85H79.9708C81.2359 85 82.8114 85.0059 84.0824 85.0059C93.9398 85.0351 118.369 85.0937 121.655 85.0059C127.132 84.8653 129.791 91.2494 129.791 95.1971C129.791 96.1459 129.633 96.8898 129.398 97.4696L129.392 97.4755Z" fill="#DAD9DC"/>
<path d="M86.1035 91.5072C85.5939 92.6024 85.1781 93.9027 84.8676 95.3494C84.8676 95.3494 81.2304 95.6071 80.7267 95.3494C80.223 95.0917 78.1555 92.005 76.9665 89.6505C75.5257 86.7922 76.006 86.1538 76.4394 85.5213C76.6971 85.1523 77.0251 85.0351 77.7572 85C78.0208 85.0234 79.0633 85.2987 80.551 86.23C82.0563 87.1788 84.0184 88.7954 86.0976 91.5013L86.1035 91.5072Z" fill="#CCCCCC"/>
<path d="M141.112 113.771H136.977V131.612H141.112V113.771Z" fill="white"/>
<path d="M136.974 119.709V125.659H121.676C121.781 125.454 121.84 125.214 121.84 124.968V119.709H136.974Z" fill="white"/>
<path d="M121.827 116.334V124.979C121.827 125.225 121.768 125.465 121.663 125.67C121.405 126.156 120.913 126.484 120.321 126.484H114.915C114.09 126.484 113.41 125.816 113.41 124.979V116.334C113.41 115.508 114.09 114.828 114.915 114.828H120.321C121.153 114.828 121.827 115.508 121.827 116.334Z" fill="#DAD9DC"/>
<g style="mix-blend-mode:multiply" opacity="0.43">
<path d="M129.388 100.716V100.698C128.785 102.209 127.713 102.631 127.713 102.631C127.713 102.631 122.377 102.66 116.456 102.678C115.735 102.678 114.997 102.684 114.271 102.684C107.611 102.701 100.929 102.701 100.718 102.631C100.472 102.549 100.319 102.408 100.085 102.133H100.079C99.9271 101.946 99.7338 101.694 99.4585 101.36C98.9079 100.698 97.6311 100.159 96.3601 99.5852C96.2723 98.3845 96.0321 96.4107 95.8037 95.3447C95.9794 95.3974 96.1551 95.4677 96.3308 95.5497C96.5124 95.6376 96.6881 95.7371 96.8638 95.8426C97.0454 95.9539 97.2328 96.0827 97.4085 96.2057C98.2871 96.85 99.0778 97.6583 99.4585 98.121C99.7338 98.4607 99.9329 98.7125 100.079 98.8882H100.085C100.144 98.9644 100.196 99.0229 100.249 99.0757C100.302 99.1342 100.355 99.1811 100.401 99.2104C100.495 99.2982 100.595 99.3509 100.718 99.3978C100.929 99.4622 107.611 99.4622 114.271 99.4446H116.467C122.383 99.4271 127.724 99.4095 127.724 99.4095C127.724 99.4095 128.796 98.9878 129.4 97.4767C129.487 98.3787 129.534 99.3158 129.54 100.282C129.493 100.44 129.446 100.581 129.388 100.716Z" fill="#808080"/>
</g>
<g style="mix-blend-mode:multiply" opacity="0.43">
<path d="M88.6459 95.0006C88.0017 95.0064 87.2695 95.0533 86.4379 95.1411C85.9517 95.1938 85.4304 95.27 84.8682 95.352C85.1786 93.9111 85.5886 92.6109 86.104 91.5098C86.4437 91.9549 86.7893 92.4176 87.1231 92.9096C87.4335 93.3606 87.7381 93.8174 88.0485 94.3153C88.2711 94.6081 88.4527 94.8424 88.6518 95.0006H88.6459Z" fill="#808080"/>
</g>
<g style="mix-blend-mode:multiply" opacity="0.43">
<path d="M96.2685 98.7335C95.6243 98.2473 95.103 97.7554 94.611 97.3044C93.6622 96.4375 92.807 95.7054 91.3779 95.313C92.3033 95.3071 93.3869 95.2895 94.2479 95.2837H95.226C95.3139 95.2837 95.4076 95.2837 95.5013 95.3013C95.5891 95.3188 95.6887 95.3364 95.7883 95.3657H95.7941C96.0108 96.42 96.1748 97.5504 96.2685 98.7335Z" fill="#808080"/>
</g>
<g style="mix-blend-mode:multiply" opacity="0.43">
<path d="M121.829 116.334V124.979C121.829 125.225 121.77 125.476 121.665 125.676C121.407 126.162 120.915 126.478 120.329 126.478H119.861C119.861 117.564 119.831 117.347 117.735 117.347H113.418V116.334C113.418 115.514 114.097 114.828 114.923 114.828H120.329C121.161 114.828 121.835 115.514 121.835 116.334H121.829Z" fill="#808080"/>
</g>
<circle cx="18.5" cy="175.5" r="16.5" fill="white"/>
<circle cx="18.5" cy="175.5" r="16.25" stroke="#00937D" stroke-opacity="0.2" stroke-width="0.5"/>
<path d="M18.569 182.466C19.6076 182.466 20.4496 181.627 20.4496 180.593C20.4496 179.559 19.6076 178.72 18.569 178.72C17.5304 178.72 16.6885 179.559 16.6885 180.593C16.6885 181.627 17.5304 182.466 18.569 182.466Z" fill="#0AB198"/>
<path d="M23.374 178.282C23.2132 178.282 23.0525 178.233 22.9161 178.127C20.9868 176.657 18.9601 176.196 16.8846 176.759C15.2964 177.19 14.2635 178.083 14.2538 178.093C13.942 178.364 13.4645 178.335 13.1869 178.025C12.9092 177.714 12.9384 177.239 13.2502 176.967C13.2989 176.924 14.512 175.861 16.4169 175.328C18.1854 174.833 20.9088 174.707 23.832 176.933C24.1633 177.186 24.2266 177.656 23.9733 177.986C23.8271 178.18 23.603 178.282 23.374 178.282Z" fill="#0AB198"/>
<path d="M26.4647 176.238C26.3039 176.238 26.1431 176.189 26.0067 176.082C22.6792 173.55 19.1714 172.774 15.5808 173.783C12.8915 174.535 11.1815 176.034 11.162 176.048C10.8502 176.325 10.3728 176.296 10.0951 175.985C9.81735 175.675 9.84659 175.199 10.1584 174.923C10.2363 174.85 12.151 173.181 15.1716 172.332C16.9547 171.833 18.7573 171.726 20.5307 172.012C22.7328 172.366 24.8813 173.337 26.9226 174.889C27.2539 175.141 27.3173 175.612 27.0639 175.942C26.9129 176.136 26.6888 176.238 26.4647 176.238Z" fill="#0AB198"/>
<path d="M28.7387 173.064C28.5779 173.064 28.4171 173.016 28.2807 172.909C23.9593 169.615 19.3992 168.601 14.7222 169.891C11.1949 170.866 8.91488 172.855 8.89052 172.875C8.57872 173.151 8.10127 173.122 7.82357 172.812C7.54587 172.501 7.5751 172.026 7.8869 171.749C7.98921 171.657 10.4106 169.537 14.2545 168.46C16.5199 167.825 18.8097 167.689 21.0605 168.053C23.8619 168.504 26.5999 169.736 29.1966 171.715C29.5279 171.968 29.5913 172.438 29.3379 172.768C29.1918 172.962 28.9677 173.064 28.7387 173.064Z" fill="#0AB198"/>
<circle cx="35.5" cy="25.5" r="16.5" fill="white"/>
<circle cx="35.5" cy="25.5" r="16.25" stroke="#00937D" stroke-opacity="0.2" stroke-width="0.5"/>
<path d="M35.569 32.4656C36.6076 32.4656 37.4496 31.6272 37.4496 30.593C37.4496 29.5588 36.6076 28.7205 35.569 28.7205C34.5304 28.7205 33.6885 29.5588 33.6885 30.593C33.6885 31.6272 34.5304 32.4656 35.569 32.4656Z" fill="#0AB198"/>
<path d="M40.374 28.282C40.2132 28.282 40.0525 28.2335 39.9161 28.1268C37.9868 26.6568 35.9601 26.196 33.8846 26.7587C32.2964 27.1905 31.2635 28.0831 31.2538 28.0928C30.942 28.3645 30.4645 28.3354 30.1869 28.0249C29.9092 27.7144 29.9384 27.239 30.2502 26.9673C30.2989 26.9237 31.512 25.8612 33.4169 25.3276C35.1854 24.8328 37.9088 24.7066 40.832 26.9334C41.1633 27.1856 41.2266 27.6562 40.9733 27.9861C40.8271 28.1801 40.603 28.282 40.374 28.282Z" fill="#0AB198"/>
<path d="M43.4647 26.2376C43.3039 26.2376 43.1431 26.1891 43.0067 26.0824C39.6792 23.55 36.1714 22.7738 32.5808 23.7829C29.8915 24.5348 28.1815 26.0339 28.162 26.0484C27.8502 26.3249 27.3728 26.2958 27.0951 25.9854C26.8174 25.6749 26.8466 25.1995 27.1584 24.9229C27.2363 24.8502 29.151 23.1813 32.1716 22.3324C33.9547 21.8327 35.7573 21.726 37.5307 22.0122C39.7328 22.3663 41.8813 23.3366 43.9226 24.889C44.2539 25.1412 44.3173 25.6118 44.0639 25.9417C43.9129 26.1357 43.6888 26.2376 43.4647 26.2376Z" fill="#0AB198"/>
<path d="M45.7387 23.064C45.5779 23.064 45.4171 23.0155 45.2807 22.9088C40.9593 19.6148 36.3992 18.6009 31.7222 19.8913C28.1949 20.8664 25.9149 22.8554 25.8905 22.8748C25.5787 23.1514 25.1013 23.1222 24.8236 22.8118C24.5459 22.5013 24.5751 22.0259 24.8869 21.7493C24.9892 21.6572 27.4106 19.5372 31.2545 18.4602C33.5199 17.8247 35.8097 17.6889 38.0605 18.0527C40.8619 18.5039 43.5999 19.7361 46.1966 21.7154C46.5279 21.9676 46.5913 22.4382 46.3379 22.7681C46.1918 22.9622 45.9677 23.064 45.7387 23.064Z" fill="#0AB198"/>
<circle cx="80.5" cy="180.5" r="12.5" fill="white"/>
<circle cx="80.5" cy="180.5" r="12.25" stroke="#00937D" stroke-opacity="0.2" stroke-width="0.5"/>
<path d="M80.5536 185.777C81.3404 185.777 81.9782 185.142 81.9782 184.359C81.9782 183.575 81.3404 182.94 80.5536 182.94C79.7667 182.94 79.1289 183.575 79.1289 184.359C79.1289 185.142 79.7667 185.777 80.5536 185.777Z" fill="#0AB198"/>
<path d="M84.1941 182.608C84.0723 182.608 83.9505 182.571 83.8472 182.49C82.3856 181.377 80.8502 181.028 79.2779 181.454C78.0747 181.781 77.2922 182.457 77.2848 182.465C77.0486 182.67 76.6869 182.648 76.4765 182.413C76.2662 182.178 76.2883 181.818 76.5245 181.612C76.5614 181.579 77.4805 180.774 78.9236 180.37C80.2633 179.995 82.3265 179.899 84.541 181.586C84.792 181.777 84.84 182.134 84.6481 182.384C84.5373 182.531 84.3676 182.608 84.1941 182.608Z" fill="#0AB198"/>
<path d="M86.536 181.059C86.4142 181.059 86.2924 181.023 86.189 180.942C83.6682 179.023 81.0108 178.435 78.2906 179.2C76.2533 179.769 74.9578 180.905 74.943 180.916C74.7068 181.126 74.3451 181.104 74.1347 180.868C73.9244 180.633 73.9465 180.273 74.1827 180.063C74.2418 180.008 75.6923 178.744 77.9806 178.101C79.3315 177.722 80.6971 177.641 82.0405 177.858C83.7088 178.127 85.3365 178.862 86.8829 180.038C87.1339 180.229 87.1819 180.585 86.9899 180.835C86.8755 180.982 86.7058 181.059 86.536 181.059Z" fill="#0AB198"/>
<path d="M88.2588 178.655C88.137 178.655 88.0152 178.618 87.9119 178.537C84.6381 176.042 81.1835 175.274 77.6403 176.251C74.9681 176.99 73.2408 178.497 73.2223 178.512C72.9861 178.721 72.6244 178.699 72.414 178.464C72.2037 178.229 72.2258 177.868 72.462 177.659C72.5395 177.589 74.3739 175.983 77.286 175.167C79.0022 174.686 80.7369 174.583 82.4421 174.858C84.5643 175.2 86.6385 176.134 88.6058 177.633C88.8567 177.824 88.9047 178.181 88.7128 178.431C88.6021 178.578 88.4323 178.655 88.2588 178.655Z" fill="#0AB198"/>
<circle cx="33.5" cy="97.5" r="12.5" fill="white"/>
<circle cx="33.5" cy="97.5" r="12.25" stroke="#00937D" stroke-opacity="0.2" stroke-width="0.5"/>
<path d="M33.5536 102.777C34.3404 102.777 34.9782 102.142 34.9782 101.359C34.9782 100.575 34.3404 99.9399 33.5536 99.9399C32.7667 99.9399 32.1289 100.575 32.1289 101.359C32.1289 102.142 32.7667 102.777 33.5536 102.777Z" fill="#0AB198"/>
<path d="M37.1941 99.6079C37.0723 99.6079 36.9505 99.5712 36.8472 99.4903C35.3856 98.3767 33.8502 98.0276 32.2779 98.4539C31.0747 98.781 30.2922 99.4572 30.2848 99.4646C30.0486 99.6704 29.6869 99.6483 29.4765 99.4131C29.2662 99.1779 29.2883 98.8177 29.5245 98.6119C29.5614 98.5789 30.4805 97.774 31.9236 97.3697C33.2633 96.9949 35.3265 96.8993 37.541 98.5862C37.792 98.7773 37.84 99.1338 37.6481 99.3837C37.5373 99.5307 37.3676 99.6079 37.1941 99.6079Z" fill="#0AB198"/>
<path d="M39.536 98.0594C39.4142 98.0594 39.2924 98.0227 39.189 97.9418C36.6682 96.0234 34.0108 95.4353 31.2906 96.1998C29.2533 96.7694 27.9578 97.905 27.943 97.9161C27.7068 98.1256 27.3451 98.1035 27.1347 97.8683C26.9244 97.6331 26.9465 97.2729 27.1827 97.0634C27.2418 97.0083 28.6923 95.744 30.9806 95.1009C32.3315 94.7223 33.6971 94.6415 35.0405 94.8583C36.7088 95.1266 38.3365 95.8616 39.8829 97.0377C40.1339 97.2288 40.1819 97.5853 39.9899 97.8352C39.8755 97.9822 39.7058 98.0594 39.536 98.0594Z" fill="#0AB198"/>
<path d="M41.2588 95.6549C41.137 95.6549 41.0152 95.6181 40.9119 95.5373C37.6381 93.0418 34.1835 92.2737 30.6403 93.2513C27.9681 93.99 26.2408 95.4968 26.2223 95.5115C25.9861 95.721 25.6244 95.699 25.414 95.4638C25.2037 95.2286 25.2258 94.8684 25.462 94.6589C25.5395 94.5891 27.3739 92.983 30.286 92.1671C32.0022 91.6857 33.7369 91.5828 35.4421 91.8584C37.5643 92.2002 39.6385 93.1337 41.6058 94.6332C41.8567 94.8243 41.9047 95.1808 41.7128 95.4307C41.6021 95.5777 41.4323 95.6549 41.2588 95.6549Z" fill="#0AB198"/>
<circle cx="65" cy="124" r="8" fill="white"/>
<circle cx="65" cy="124" r="7.75" stroke="#00937D" stroke-opacity="0.2" stroke-width="0.5"/>
<path d="M65.0329 127.377C65.5364 127.377 65.9447 126.971 65.9447 126.469C65.9447 125.968 65.5364 125.561 65.0329 125.561C64.5293 125.561 64.1211 125.968 64.1211 126.469C64.1211 126.971 64.5293 127.377 65.0329 127.377Z" fill="#0AB198"/>
<path d="M67.3637 125.348C67.2858 125.348 67.2078 125.325 67.1417 125.273C66.2063 124.56 65.2237 124.337 64.2174 124.61C63.4473 124.819 62.9466 125.252 62.9418 125.256C62.7907 125.388 62.5592 125.374 62.4245 125.224C62.2899 125.073 62.3041 124.842 62.4552 124.711C62.4788 124.69 63.067 124.174 63.9906 123.916C64.8481 123.676 66.1685 123.615 67.5858 124.694C67.7464 124.817 67.7771 125.045 67.6543 125.205C67.5834 125.299 67.4748 125.348 67.3637 125.348Z" fill="#0AB198"/>
<path d="M68.8613 124.358C68.7834 124.358 68.7054 124.335 68.6393 124.283C67.0259 123.055 65.3252 122.679 63.5843 123.168C62.2804 123.532 61.4513 124.259 61.4418 124.266C61.2907 124.4 61.0592 124.386 60.9245 124.236C60.7899 124.085 60.8041 123.855 60.9552 123.721C60.993 123.685 61.9213 122.876 63.3859 122.465C64.2504 122.222 65.1244 122.171 65.9842 122.309C67.0519 122.481 68.0936 122.951 69.0833 123.704C69.244 123.826 69.2747 124.055 69.1518 124.215C69.0786 124.309 68.97 124.358 68.8613 124.358Z" fill="#0AB198"/>
<path d="M69.9626 122.818C69.8847 122.818 69.8067 122.794 69.7406 122.743C67.6454 121.146 65.4344 120.654 63.1668 121.28C61.4566 121.752 60.3511 122.717 60.3393 122.726C60.1881 122.86 59.9566 122.846 59.822 122.696C59.6873 122.545 59.7015 122.315 59.8527 122.181C59.9023 122.136 61.0763 121.108 62.94 120.586C64.0384 120.278 65.1486 120.212 66.2399 120.388C67.5981 120.607 68.9257 121.204 70.1847 122.164C70.3453 122.286 70.376 122.515 70.2532 122.674C70.1823 122.769 70.0737 122.818 69.9626 122.818Z" fill="#0AB198"/>
<circle cx="135" cy="145" r="8" fill="white"/>
<circle cx="135" cy="145" r="7.75" stroke="#00937D" stroke-opacity="0.2" stroke-width="0.5"/>
<path d="M135.033 148.377C135.536 148.377 135.945 147.971 135.945 147.469C135.945 146.968 135.536 146.561 135.033 146.561C134.529 146.561 134.121 146.968 134.121 147.469C134.121 147.971 134.529 148.377 135.033 148.377Z" fill="#0AB198"/>
<path d="M137.364 146.348C137.286 146.348 137.208 146.325 137.142 146.273C136.206 145.56 135.224 145.337 134.217 145.61C133.447 145.819 132.947 146.252 132.942 146.256C132.791 146.388 132.559 146.374 132.425 146.224C132.29 146.073 132.304 145.842 132.455 145.711C132.479 145.69 133.067 145.174 133.991 144.916C134.848 144.676 136.169 144.615 137.586 145.694C137.746 145.817 137.777 146.045 137.654 146.205C137.583 146.299 137.475 146.348 137.364 146.348Z" fill="#0AB198"/>
<path d="M138.861 145.358C138.783 145.358 138.705 145.335 138.639 145.283C137.026 144.055 135.325 143.679 133.584 144.168C132.28 144.532 131.451 145.259 131.442 145.266C131.291 145.4 131.059 145.386 130.925 145.236C130.79 145.085 130.804 144.855 130.955 144.721C130.993 144.685 131.921 143.876 133.386 143.465C134.25 143.222 135.124 143.171 135.984 143.309C137.052 143.481 138.094 143.951 139.083 144.704C139.244 144.826 139.275 145.055 139.152 145.215C139.079 145.309 138.97 145.358 138.861 145.358Z" fill="#0AB198"/>
<path d="M139.963 143.818C139.885 143.818 139.807 143.794 139.741 143.743C137.645 142.146 135.434 141.654 133.167 142.28C131.457 142.752 130.351 143.717 130.339 143.726C130.188 143.86 129.957 143.846 129.822 143.696C129.687 143.545 129.702 143.315 129.853 143.181C129.902 143.136 131.076 142.108 132.94 141.586C134.038 141.278 135.149 141.212 136.24 141.388C137.598 141.607 138.926 142.204 140.185 143.164C140.345 143.286 140.376 143.515 140.253 143.674C140.182 143.769 140.074 143.818 139.963 143.818Z" fill="#0AB198"/>
<circle cx="177.5" cy="83.5" r="12.5" fill="white"/>
<circle cx="177.5" cy="83.5" r="12.25" stroke="#00937D" stroke-opacity="0.2" stroke-width="0.5"/>
<path d="M177.554 88.7772C178.34 88.7772 178.978 88.142 178.978 87.3586C178.978 86.5751 178.34 85.9399 177.554 85.9399C176.767 85.9399 176.129 86.5751 176.129 87.3586C176.129 88.142 176.767 88.7772 177.554 88.7772Z" fill="#0AB198"/>
<path d="M181.194 85.6079C181.072 85.6079 180.95 85.5712 180.847 85.4903C179.386 84.3767 177.85 84.0276 176.278 84.4539C175.075 84.781 174.292 85.4572 174.285 85.4646C174.049 85.6704 173.687 85.6483 173.477 85.4131C173.266 85.1779 173.288 84.8177 173.525 84.6119C173.561 84.5789 174.48 83.774 175.924 83.3697C177.263 82.9949 179.327 82.8993 181.541 84.5862C181.792 84.7773 181.84 85.1338 181.648 85.3837C181.537 85.5307 181.368 85.6079 181.194 85.6079Z" fill="#0AB198"/>
<path d="M183.536 84.0594C183.414 84.0594 183.292 84.0227 183.189 83.9418C180.668 82.0234 178.011 81.4353 175.291 82.1998C173.253 82.7694 171.958 83.905 171.943 83.9161C171.707 84.1256 171.345 84.1035 171.135 83.8683C170.924 83.6331 170.947 83.2729 171.183 83.0634C171.242 83.0083 172.692 81.744 174.981 81.1009C176.331 80.7223 177.697 80.6415 179.041 80.8583C180.709 81.1266 182.336 81.8616 183.883 83.0377C184.134 83.2288 184.182 83.5853 183.99 83.8352C183.876 83.9822 183.706 84.0594 183.536 84.0594Z" fill="#0AB198"/>
<path d="M185.259 81.6549C185.137 81.6549 185.015 81.6181 184.912 81.5373C181.638 79.0418 178.183 78.2737 174.64 79.2513C171.968 79.99 170.241 81.4968 170.222 81.5115C169.986 81.721 169.624 81.699 169.414 81.4638C169.204 81.2286 169.226 80.8684 169.462 80.6589C169.54 80.5891 171.374 78.983 174.286 78.1671C176.002 77.6857 177.737 77.5828 179.442 77.8584C181.564 78.2002 183.639 79.1337 185.606 80.6332C185.857 80.8243 185.905 81.1808 185.713 81.4307C185.602 81.5777 185.432 81.6549 185.259 81.6549Z" fill="#0AB198"/>
<circle cx="101.5" cy="32.5" r="12.5" fill="white"/>
<circle cx="101.5" cy="32.5" r="12.25" stroke="#00937D" stroke-opacity="0.2" stroke-width="0.5"/>
<path d="M101.554 37.7772C102.34 37.7772 102.978 37.142 102.978 36.3586C102.978 35.5751 102.34 34.9399 101.554 34.9399C100.767 34.9399 100.129 35.5751 100.129 36.3586C100.129 37.142 100.767 37.7772 101.554 37.7772Z" fill="#0AB198"/>
<path d="M105.194 34.6079C105.072 34.6079 104.95 34.5712 104.847 34.4903C103.386 33.3767 101.85 33.0276 100.278 33.4539C99.0747 33.781 98.2922 34.4572 98.2848 34.4646C98.0486 34.6704 97.6869 34.6483 97.4765 34.4131C97.2662 34.1779 97.2883 33.8177 97.5245 33.6119C97.5614 33.5789 98.4805 32.774 99.9236 32.3697C101.263 31.9949 103.327 31.8993 105.541 33.5862C105.792 33.7773 105.84 34.1338 105.648 34.3837C105.537 34.5307 105.368 34.6079 105.194 34.6079Z" fill="#0AB198"/>
<path d="M107.536 33.0594C107.414 33.0594 107.292 33.0227 107.189 32.9418C104.668 31.0234 102.011 30.4353 99.2906 31.1998C97.2533 31.7694 95.9578 32.905 95.943 32.9161C95.7068 33.1256 95.3451 33.1035 95.1347 32.8683C94.9244 32.6331 94.9465 32.2729 95.1827 32.0634C95.2418 32.0083 96.6923 30.744 98.9806 30.1009C100.331 29.7223 101.697 29.6415 103.041 29.8583C104.709 30.1266 106.336 30.8616 107.883 32.0377C108.134 32.2288 108.182 32.5853 107.99 32.8352C107.876 32.9822 107.706 33.0594 107.536 33.0594Z" fill="#0AB198"/>
<path d="M109.259 30.6549C109.137 30.6549 109.015 30.6181 108.912 30.5373C105.638 28.0418 102.183 27.2737 98.6403 28.2513C95.9681 28.99 94.2408 30.4968 94.2223 30.5115C93.9861 30.721 93.6244 30.699 93.414 30.4638C93.2037 30.2286 93.2258 29.8684 93.462 29.6589C93.5395 29.5891 95.3739 27.983 98.286 27.1671C100.002 26.6857 101.737 26.5828 103.442 26.8584C105.564 27.2002 107.639 28.1337 109.606 29.6332C109.857 29.8243 109.905 30.1808 109.713 30.4307C109.602 30.5777 109.432 30.6549 109.259 30.6549Z" fill="#0AB198"/>
<circle cx="122" cy="67" r="8" fill="white"/>
<circle cx="122" cy="67" r="7.75" stroke="#00937D" stroke-opacity="0.2" stroke-width="0.5"/>
<path d="M122.033 70.3772C122.536 70.3772 122.945 69.9707 122.945 69.4693C122.945 68.9679 122.536 68.5614 122.033 68.5614C121.529 68.5614 121.121 68.9679 121.121 69.4693C121.121 69.9707 121.529 70.3772 122.033 70.3772Z" fill="#0AB198"/>
<path d="M124.364 68.3482C124.286 68.3482 124.208 68.3247 124.142 68.2729C123.206 67.5602 122.224 67.3368 121.217 67.6096C120.447 67.8189 119.947 68.2517 119.942 68.2564C119.791 68.3882 119.559 68.374 119.425 68.2235C119.29 68.073 119.304 67.8425 119.455 67.7108C119.479 67.6896 120.067 67.1745 120.991 66.9157C121.848 66.6758 123.169 66.6147 124.586 67.6943C124.746 67.8166 124.777 68.0448 124.654 68.2047C124.583 68.2988 124.475 68.3482 124.364 68.3482Z" fill="#0AB198"/>
<path d="M125.861 67.358C125.783 67.358 125.705 67.3345 125.639 67.2828C124.026 66.055 122.325 65.6786 120.584 66.1679C119.28 66.5324 118.451 67.2592 118.442 67.2663C118.291 67.4004 118.059 67.3862 117.925 67.2357C117.79 67.0852 117.804 66.8547 117.955 66.7206C117.993 66.6853 118.921 65.8762 120.386 65.4646C121.25 65.2223 122.124 65.1706 122.984 65.3093C124.052 65.481 125.094 65.9515 126.083 66.7041C126.244 66.8264 126.275 67.0546 126.152 67.2145C126.079 67.3086 125.97 67.358 125.861 67.358Z" fill="#0AB198"/>
<path d="M126.963 65.8179C126.885 65.8179 126.807 65.7944 126.741 65.7427C124.645 64.1456 122.434 63.654 120.167 64.2797C118.457 64.7524 117.351 65.7168 117.339 65.7262C117.188 65.8603 116.957 65.8462 116.822 65.6956C116.687 65.5451 116.702 65.3146 116.853 65.1805C116.902 65.1358 118.076 64.108 119.94 63.5858C121.038 63.2777 122.149 63.2118 123.24 63.3882C124.598 63.607 125.926 64.2044 127.185 65.1641C127.345 65.2864 127.376 65.5145 127.253 65.6745C127.182 65.7685 127.074 65.8179 126.963 65.8179Z" fill="#0AB198"/>
<circle cx="153.5" cy="199.5" r="16.5" fill="white"/>
<circle cx="153.5" cy="199.5" r="16.25" stroke="#00937D" stroke-opacity="0.2" stroke-width="0.5"/>
<path d="M153.569 206.466C154.608 206.466 155.45 205.627 155.45 204.593C155.45 203.559 154.608 202.72 153.569 202.72C152.53 202.72 151.688 203.559 151.688 204.593C151.688 205.627 152.53 206.466 153.569 206.466Z" fill="#0AB198"/>
<path d="M158.374 202.282C158.213 202.282 158.052 202.233 157.916 202.127C155.987 200.657 153.96 200.196 151.885 200.759C150.296 201.19 149.264 202.083 149.254 202.093C148.942 202.364 148.465 202.335 148.187 202.025C147.909 201.714 147.938 201.239 148.25 200.967C148.299 200.924 149.512 199.861 151.417 199.328C153.185 198.833 155.909 198.707 158.832 200.933C159.163 201.186 159.227 201.656 158.973 201.986C158.827 202.18 158.603 202.282 158.374 202.282Z" fill="#0AB198"/>
<path d="M161.465 200.238C161.304 200.238 161.143 200.189 161.007 200.082C157.679 197.55 154.171 196.774 150.581 197.783C147.892 198.535 146.181 200.034 146.162 200.048C145.85 200.325 145.373 200.296 145.095 199.985C144.817 199.675 144.847 199.199 145.158 198.923C145.236 198.85 147.151 197.181 150.172 196.332C151.955 195.833 153.757 195.726 155.531 196.012C157.733 196.366 159.881 197.337 161.923 198.889C162.254 199.141 162.317 199.612 162.064 199.942C161.913 200.136 161.689 200.238 161.465 200.238Z" fill="#0AB198"/>
<path d="M163.739 197.064C163.578 197.064 163.417 197.016 163.281 196.909C158.959 193.615 154.399 192.601 149.722 193.891C146.195 194.866 143.915 196.855 143.891 196.875C143.579 197.151 143.101 197.122 142.824 196.812C142.546 196.501 142.575 196.026 142.887 195.749C142.989 195.657 145.411 193.537 149.254 192.46C151.52 191.825 153.81 191.689 156.061 192.053C158.862 192.504 161.6 193.736 164.197 195.715C164.528 195.968 164.591 196.438 164.338 196.768C164.192 196.962 163.968 197.064 163.739 197.064Z" fill="#0AB198"/>
<circle cx="170.5" cy="22.5" r="16.5" fill="white"/>
<circle cx="170.5" cy="22.5" r="16.25" stroke="#00937D" stroke-opacity="0.2" stroke-width="0.5"/>
<path d="M170.569 29.4656C171.608 29.4656 172.45 28.6272 172.45 27.593C172.45 26.5588 171.608 25.7205 170.569 25.7205C169.53 25.7205 168.688 26.5588 168.688 27.593C168.688 28.6272 169.53 29.4656 170.569 29.4656Z" fill="#0AB198"/>
<path d="M175.374 25.282C175.213 25.282 175.052 25.2335 174.916 25.1268C172.987 23.6568 170.96 23.196 168.885 23.7587C167.296 24.1905 166.264 25.0831 166.254 25.0928C165.942 25.3645 165.465 25.3354 165.187 25.0249C164.909 24.7144 164.938 24.239 165.25 23.9673C165.299 23.9237 166.512 22.8612 168.417 22.3276C170.185 21.8328 172.909 21.7066 175.832 23.9334C176.163 24.1856 176.227 24.6562 175.973 24.9861C175.827 25.1801 175.603 25.282 175.374 25.282Z" fill="#0AB198"/>
<path d="M178.465 23.2376C178.304 23.2376 178.143 23.1891 178.007 23.0824C174.679 20.55 171.171 19.7738 167.581 20.7829C164.892 21.5348 163.181 23.0339 163.162 23.0484C162.85 23.3249 162.373 23.2958 162.095 22.9854C161.817 22.6749 161.847 22.1995 162.158 21.9229C162.236 21.8502 164.151 20.1813 167.172 19.3324C168.955 18.8327 170.757 18.726 172.531 19.0122C174.733 19.3663 176.881 20.3366 178.923 21.889C179.254 22.1412 179.317 22.6118 179.064 22.9417C178.913 23.1357 178.689 23.2376 178.465 23.2376Z" fill="#0AB198"/>
<path d="M180.739 20.064C180.578 20.064 180.417 20.0155 180.281 19.9088C175.959 16.6148 171.399 15.6009 166.722 16.8913C163.195 17.8664 160.915 19.8554 160.891 19.8748C160.579 20.1514 160.101 20.1222 159.824 19.8118C159.546 19.5013 159.575 19.0259 159.887 18.7493C159.989 18.6572 162.411 16.5372 166.254 15.4602C168.52 14.8247 170.81 14.6889 173.061 15.0527C175.862 15.5039 178.6 16.7361 181.197 18.7154C181.528 18.9676 181.591 19.4382 181.338 19.7681C181.192 19.9622 180.968 20.064 180.739 20.064Z" fill="#0AB198"/>
<circle cx="213.5" cy="138.5" r="16.5" fill="white"/>
<circle cx="213.5" cy="138.5" r="16.25" stroke="#00937D" stroke-opacity="0.2" stroke-width="0.5"/>
<path d="M213.569 145.466C214.608 145.466 215.45 144.627 215.45 143.593C215.45 142.559 214.608 141.72 213.569 141.72C212.53 141.72 211.688 142.559 211.688 143.593C211.688 144.627 212.53 145.466 213.569 145.466Z" fill="#0AB198"/>
<path d="M218.374 141.282C218.213 141.282 218.052 141.233 217.916 141.127C215.987 139.657 213.96 139.196 211.885 139.759C210.296 140.19 209.264 141.083 209.254 141.093C208.942 141.364 208.465 141.335 208.187 141.025C207.909 140.714 207.938 140.239 208.25 139.967C208.299 139.924 209.512 138.861 211.417 138.328C213.185 137.833 215.909 137.707 218.832 139.933C219.163 140.186 219.227 140.656 218.973 140.986C218.827 141.18 218.603 141.282 218.374 141.282Z" fill="#0AB198"/>
<path d="M221.465 139.238C221.304 139.238 221.143 139.189 221.007 139.082C217.679 136.55 214.171 135.774 210.581 136.783C207.892 137.535 206.181 139.034 206.162 139.048C205.85 139.325 205.373 139.296 205.095 138.985C204.817 138.675 204.847 138.199 205.158 137.923C205.236 137.85 207.151 136.181 210.172 135.332C211.955 134.833 213.757 134.726 215.531 135.012C217.733 135.366 219.881 136.337 221.923 137.889C222.254 138.141 222.317 138.612 222.064 138.942C221.913 139.136 221.689 139.238 221.465 139.238Z" fill="#0AB198"/>
<path d="M223.739 136.064C223.578 136.064 223.417 136.016 223.281 135.909C218.959 132.615 214.399 131.601 209.722 132.891C206.195 133.866 203.915 135.855 203.891 135.875C203.579 136.151 203.101 136.122 202.824 135.812C202.546 135.501 202.575 135.026 202.887 134.749C202.989 134.657 205.411 132.537 209.254 131.46C211.52 130.825 213.81 130.689 216.061 131.053C218.862 131.504 221.6 132.736 224.197 134.715C224.528 134.968 224.591 135.438 224.338 135.768C224.192 135.962 223.968 136.064 223.739 136.064Z" fill="#0AB198"/>
</svg>
