<svg width="375" height="333" viewBox="0 0 375 333" fill="none" xmlns="http://www.w3.org/2000/svg">
<rect x="0.99707" width="374.003" height="333" fill="white"/>
<ellipse opacity="0.15" cx="187.001" cy="177" rx="187.001" ry="156" fill="url(#paint0_linear_462_48058)"/>
<mask id="mask0_462_48058" style="mask-type:alpha" maskUnits="userSpaceOnUse" x="0" y="21" width="375" height="312">
<ellipse cx="187.001" cy="177" rx="187.001" ry="156" fill="#00937D"/>
</mask>
<g mask="url(#mask0_462_48058)">
<path d="M130.659 152.281C122.231 152.2 114.224 152.103 103.326 162.573C98.3728 168.709 100.175 173.953 100.955 177.622L132.657 174.846L130.659 152.281Z" fill="#FFBE9D"/>
<path d="M125.055 168.32C111.526 168.206 96.3895 168.32 81.1394 181.453C73.1814 189.277 76.0885 195.982 77.3228 200.657H134.62L125.055 168.32Z" fill="#FFBE9D"/>
<path d="M127.053 206.549C113.524 206.452 98.3876 206.549 83.1375 218.367C75.1795 225.412 78.0866 231.435 79.3209 235.639H136.618L127.053 206.549Z" fill="#FFBE9D"/>
<path d="M133.306 257.636C123.334 257.555 112.16 257.636 100.921 267.474C95.0585 273.334 97.2023 278.35 98.1118 281.856H140.37L133.306 257.636Z" fill="#FFBE9D"/>
<path d="M262.921 96.243V331.773C262.921 342.909 253.81 352.016 242.669 352.016H145.76C134.619 352.016 125.508 342.909 125.508 331.773V96.243C125.508 85.1069 134.619 76 145.76 76H242.669C253.81 76 262.921 85.1069 262.921 96.243Z" fill="#00937D"/>
<path d="M257.123 93.1919V335.361C257.123 335.897 257.09 336.417 257.009 336.936C256.213 342.147 251.601 346.173 246.063 346.173H142.836C140.368 346.173 138.078 345.361 136.226 344.014C133.53 342.033 131.776 338.884 131.776 335.361V93.1919C131.776 90.9517 132.491 88.8576 133.693 87.1206C135.301 84.8155 137.802 83.1435 140.693 82.5753C141.391 82.4454 142.106 82.3643 142.836 82.3643H160.344L161.026 83.3058C163.657 86.9421 167.961 89.1011 172.525 89.0686L214.458 88.7764C219.233 88.744 223.667 86.3252 226.2 82.3805H246.063C250.821 82.3805 254.898 85.3512 256.457 89.4907C256.879 90.6433 257.123 91.8933 257.123 93.1919Z" fill="white"/>
<path d="M297.06 233.415C289.378 279.972 277.912 304.176 262.922 307.455V215.51L297.06 233.415Z" fill="#FFBE9D"/>
<path d="M271.302 230.297L296.866 234.582C298.912 222.781 292.432 188.772 277.247 179.08C269.321 174.584 259.56 180.054 257.839 198.057C257.839 208.901 264.205 217.667 271.302 230.297Z" fill="#FFBE9D"/>
<path d="M296.866 234.566C296.931 233.592 297.077 232.618 297.077 231.644C297.061 230.67 297.109 229.696 297.061 228.722L296.882 225.8L296.557 222.895C296.281 220.963 296.021 219.031 295.631 217.132L295.079 214.275L294.413 211.434C293.975 209.535 293.406 207.684 292.87 205.817C292.237 203.983 291.701 202.116 290.954 200.33C290.597 199.437 290.272 198.512 289.882 197.635L288.697 194.989C288.323 194.097 287.836 193.269 287.397 192.408C286.926 191.564 286.537 190.671 285.984 189.876L284.442 187.441C283.906 186.645 283.272 185.915 282.704 185.152C282.152 184.373 281.469 183.691 280.787 183.025C280.121 182.36 279.488 181.629 278.692 181.11L277.572 180.266L277.003 179.844L276.857 179.73C276.971 179.779 276.792 179.698 276.776 179.698L276.451 179.535C275.542 179.048 274.73 178.805 273.885 178.594C272.131 178.172 270.263 178.302 268.59 178.983C266.901 179.649 265.44 180.818 264.205 182.198C262.955 183.577 262.062 185.266 261.233 186.97C260.876 187.847 260.535 188.74 260.21 189.632C259.967 190.558 259.658 191.467 259.447 192.392C259.268 193.334 259.041 194.275 258.895 195.217L258.505 198.074V198.009C258.521 199.454 258.586 200.882 258.797 202.311C258.927 203.025 259.008 203.739 259.187 204.437C259.349 205.152 259.512 205.85 259.723 206.548C260.113 207.944 260.616 209.307 261.168 210.671C261.721 212.018 262.338 213.349 262.971 214.664C265.537 219.94 268.59 225.005 271.303 230.232L266.69 222.684C265.164 220.167 263.621 217.651 262.24 215.021C261.558 213.707 260.892 212.375 260.291 211.012C259.691 209.648 259.138 208.268 258.7 206.84C258.456 206.126 258.261 205.411 258.083 204.681C257.872 203.966 257.758 203.22 257.612 202.473C257.352 200.996 257.222 199.486 257.189 197.976V197.944V197.911L257.547 194.957C257.693 193.983 257.92 193.009 258.099 192.035C258.31 191.061 258.619 190.103 258.862 189.145C259.187 188.204 259.528 187.262 259.902 186.337C260.762 184.519 261.688 182.717 263.052 181.175C264.4 179.633 266.041 178.285 267.99 177.49C269.938 176.678 272.147 176.5 274.194 176.97C275.233 177.23 276.272 177.603 277.101 178.058L277.425 178.22C277.523 178.269 277.458 178.22 277.669 178.35L277.815 178.464L278.416 178.918L279.618 179.844C280.463 180.412 281.112 181.175 281.827 181.889C282.541 182.603 283.24 183.318 283.808 184.129C284.409 184.925 285.042 185.704 285.595 186.516L287.17 189.048C287.722 189.876 288.112 190.785 288.583 191.645C289.021 192.522 289.525 193.382 289.882 194.308C290.678 196.11 291.474 197.911 292.091 199.795C292.806 201.629 293.309 203.528 293.894 205.411C294.381 207.311 294.917 209.21 295.307 211.125L295.908 214.015L296.395 216.921C296.736 218.852 296.898 220.817 297.093 222.765L297.288 225.703L297.337 228.641C297.353 229.615 297.256 230.605 297.207 231.579C297.191 232.635 296.996 233.609 296.866 234.566Z" fill="#FEAE85"/>
<path d="M117.978 160.982C141.95 176.225 140.764 199.195 125.904 198.01C114.194 196.062 103.719 186.728 100.942 177.621C98.9603 166.777 111.011 157.053 117.978 160.982Z" fill="#FFBE9D"/>
<path d="M106.693 216.548C145.2 234.047 143.284 260.394 119.426 259.031C100.619 256.79 83.7938 246.076 79.3276 235.622C76.1444 223.171 95.4872 212.019 106.693 216.548Z" fill="#FFBE9D"/>
<path d="M104.695 179.439C143.202 198.887 141.286 228.188 117.428 226.678C98.621 224.178 81.7793 212.279 77.3293 200.656C74.1624 186.809 93.4889 174.407 104.695 179.439Z" fill="#FFBE9D"/>
<path d="M137.272 245.932C136.931 241.646 134.917 237.799 132.481 234.471C131.263 232.799 129.867 231.257 128.405 229.812C127.317 228.708 126.131 227.718 124.946 226.744L125.676 226.565C126.407 226.273 127.138 226.013 127.853 225.689C128.519 225.283 129.249 224.958 129.867 224.471C130.467 223.968 131.15 223.546 131.653 222.929L132.449 222.052C132.709 221.744 132.904 221.403 133.131 221.078C133.602 220.445 133.927 219.715 134.235 219C134.609 218.302 134.706 217.507 134.95 216.76C135.129 215.997 135.177 215.218 135.291 214.439C135.291 213.66 135.291 212.88 135.259 212.117C135.161 211.354 135.08 210.575 134.95 209.829L134.398 207.588L133.618 205.429C133.342 204.715 132.985 204.049 132.66 203.351C132.351 202.653 131.945 202.004 131.556 201.355C131.166 200.705 130.792 200.04 130.338 199.439L129.59 198.4C130.305 198.238 131.003 198.027 131.653 197.686C132.611 197.199 133.521 196.598 134.252 195.803C134.982 195.007 135.6 194.131 136.022 193.157C136.46 192.199 136.753 191.176 136.915 190.137C137.11 189.115 137.11 188.06 137.094 187.021C137.045 185.982 136.915 184.959 136.704 183.953C136.282 181.94 135.583 180.008 134.69 178.157C132.904 174.488 130.37 171.242 127.528 168.385C126.83 167.654 126.066 166.989 125.319 166.323C124.54 165.674 123.793 165.008 122.98 164.408C122.185 163.774 121.356 163.206 120.528 162.638C119.7 162.054 118.839 161.55 117.995 160.999C121.324 163.255 124.475 165.787 127.219 168.709C129.964 171.615 132.335 174.894 133.975 178.514C134.804 180.316 135.437 182.199 135.811 184.131C135.989 185.105 136.103 186.079 136.136 187.053C136.136 188.027 136.119 189.001 135.924 189.959C135.762 190.917 135.47 191.826 135.064 192.686C134.674 193.563 134.105 194.326 133.456 194.991C132.822 195.673 132.01 196.176 131.166 196.582C130.321 197.004 129.396 197.183 128.454 197.345L127.447 197.507L127.512 197.605C127.333 197.54 127.122 197.475 126.895 197.394C126.359 197.231 125.758 196.955 125.043 196.663C124.328 196.387 123.565 195.965 122.704 195.592C121.86 195.186 120.967 194.683 120.057 194.131C119.148 193.546 118.206 192.93 117.264 192.248C116.306 191.582 115.396 190.787 114.454 190.008C113.999 189.602 113.545 189.18 113.074 188.774L111.758 187.443C108.266 183.871 105.343 179.748 103.313 176.566C102.338 174.943 101.445 173.628 100.925 172.638C100.357 171.68 100.016 171.128 100.016 171.128C100.016 171.128 100.227 171.729 100.649 172.768C101.055 173.807 101.673 175.268 102.533 176.988C102.988 177.833 103.459 178.758 104.011 179.716C104.58 180.657 105.132 181.68 105.846 182.654C106.512 183.66 107.259 184.667 108.055 185.641C108.851 186.631 109.712 187.605 110.605 188.53L111.985 189.894C112.473 190.316 112.96 190.738 113.431 191.16C113.902 191.598 114.422 191.939 114.925 192.329C115.412 192.719 115.916 193.076 116.435 193.384C117.426 194.082 118.482 194.618 119.456 195.137C120.463 195.624 121.405 196.063 122.315 196.404C123.224 196.744 124.052 197.053 124.816 197.215C125.579 197.41 126.229 197.605 126.781 197.686C127.122 197.751 127.398 197.8 127.642 197.832L127.999 198.352L129.233 200.153C129.672 200.738 130.013 201.387 130.386 202.02C130.744 202.653 131.15 203.27 131.426 203.936C131.718 204.601 132.075 205.234 132.319 205.916L133.05 207.962L133.553 210.056C133.667 210.77 133.732 211.468 133.829 212.182C133.862 212.897 133.829 213.611 133.846 214.309C133.732 215.007 133.683 215.721 133.537 216.403C133.31 217.069 133.228 217.783 132.887 218.4C132.595 219.033 132.319 219.682 131.897 220.234C131.702 220.51 131.523 220.835 131.296 221.095L130.581 221.857C130.143 222.409 129.526 222.767 128.99 223.221C128.437 223.643 127.772 223.935 127.187 224.292C126.537 224.568 125.871 224.812 125.205 225.072L123.127 225.575L121.584 225.948L121.632 225.981C120.642 225.802 119.278 225.478 117.637 225.104C115.964 224.715 114.016 224.228 111.953 223.643C110.914 223.367 109.858 223.026 108.786 222.702C107.714 222.377 106.626 222.004 105.554 221.63C101.234 220.153 97.0114 218.367 93.8607 216.971C90.71 215.543 88.5987 214.601 88.5987 214.601C88.5987 214.601 89.0697 214.942 89.898 215.526C90.7425 216.095 91.9443 216.906 93.4385 217.783C94.9326 218.676 96.7353 219.634 98.7005 220.559C99.6912 221.013 100.714 221.484 101.786 221.906C102.842 222.328 103.93 222.75 105.034 223.14C109.436 224.666 114.016 225.656 117.491 226.029C119.213 226.24 120.674 226.289 121.681 226.338C121.811 226.338 121.925 226.338 122.039 226.338L122.802 226.955C124.345 228.221 125.888 229.503 127.284 230.916C128.697 232.312 130.045 233.789 131.231 235.38C133.586 238.529 135.47 242.165 135.811 246.029C135.973 247.945 135.73 249.876 134.901 251.597C134.122 253.318 132.79 254.763 131.198 255.818C129.607 256.889 127.739 257.571 125.823 257.961C123.874 258.35 121.957 258.48 119.927 258.399C118.043 258.236 115.964 257.928 114.032 257.522C113.041 257.344 112.067 257.116 111.092 256.857C110.118 256.613 109.143 256.386 108.185 256.061C106.252 255.509 104.352 254.811 102.485 254.081L99.7074 252.896L96.9952 251.581L94.3479 250.136L91.7657 248.561L89.2808 246.841L86.8772 244.99C85.3668 243.659 83.8889 242.263 82.6221 240.704C81.2741 239.195 80.2347 237.442 79.3252 235.64C80.1535 237.474 81.1279 239.292 82.4272 240.867C83.6615 242.49 85.1069 243.935 86.5848 245.331L88.9235 247.311L91.3759 249.13L93.9419 250.802L96.5892 252.344L99.3176 253.724L102.111 254.974C103.995 255.753 105.911 256.483 107.86 257.084C108.818 257.425 109.809 257.668 110.8 257.944C111.791 258.22 112.781 258.48 113.772 258.675C115.786 259.129 117.735 259.47 119.878 259.681C121.892 259.795 124.052 259.697 126.082 259.292C128.129 258.886 130.159 258.172 131.962 256.987C133.748 255.834 135.291 254.194 136.2 252.214C137.159 250.25 137.451 248.042 137.272 245.932Z" fill="#FEAE85"/>
<path d="M118.285 265.946C110.018 262.18 95.7588 271.466 98.0975 281.839C101.378 290.54 113.802 299.452 127.672 301.319C145.277 302.471 146.69 280.524 118.285 265.946Z" fill="#E7AD8A"/>
<path d="M118.286 265.947C146.691 280.508 145.278 302.456 127.673 301.32C113.803 299.453 101.395 290.541 98.0983 281.84C95.7758 271.483 110.019 262.197 118.286 265.947Z" fill="#FFBE9D"/>
<path d="M98.1133 281.839C98.1133 281.839 98.2757 282.163 98.568 282.748C98.8279 283.365 99.3638 284.176 100.03 285.199C100.744 286.205 101.654 287.374 102.872 288.592C104.057 289.825 105.535 291.043 107.192 292.325C108.897 293.543 110.797 294.793 112.941 295.881C115.085 296.952 117.407 297.958 119.892 298.77C122.377 299.565 125.008 300.215 127.704 300.572C130.319 300.734 133.096 300.361 135.37 299.062C137.66 297.78 139.186 295.442 139.527 292.861C139.917 290.28 139.3 287.634 138.309 285.28C137.286 282.926 135.922 280.8 134.444 278.933C132.95 277.066 131.374 275.426 129.783 274.047C128.224 272.651 126.697 271.466 125.317 270.427C123.92 269.436 122.686 268.592 121.63 267.943C120.591 267.261 119.746 266.807 119.178 266.449C118.609 266.108 118.301 265.93 118.301 265.93C118.301 265.93 118.625 266.092 119.21 266.368C119.795 266.677 120.704 267.05 121.776 267.667C122.881 268.251 124.164 269.014 125.641 269.923C127.087 270.865 128.711 271.969 130.351 273.349C132.024 274.696 133.697 276.303 135.321 278.17C136.929 280.037 138.455 282.196 139.56 284.712C140.096 285.962 140.567 287.293 140.827 288.705C141.103 290.101 141.2 291.579 140.989 293.056C140.648 296.01 138.845 298.9 136.165 300.41C133.486 301.903 130.4 302.244 127.509 302.017C124.699 301.595 122.003 300.913 119.454 300.052C116.888 299.208 114.549 298.056 112.405 296.871C110.245 295.686 108.361 294.322 106.656 293.007C104.999 291.644 103.554 290.296 102.45 288.965C101.296 287.666 100.436 286.4 99.7861 285.345C99.1689 284.257 98.7304 283.381 98.5031 282.764C98.2432 282.18 98.1133 281.839 98.1133 281.839Z" fill="#FEAE85"/>
<path d="M184.937 239.975H178.733V246.16H184.937V239.975Z" fill="black"/>
<path d="M184.953 246.209H178.7V239.959H184.953V246.209ZM178.765 246.144H184.904V240.007H178.765V246.144Z" fill="black"/>
<path d="M172.53 252.359H166.342V258.544H172.53V252.359Z" fill="black"/>
<path d="M172.561 258.592H166.309V252.343H172.561V258.592ZM166.374 258.527H172.513V252.391H166.374V258.527Z" fill="black"/>
<path d="M166.339 252.36H160.151V258.545H166.339V252.36Z" fill="black"/>
<path d="M166.371 258.593H160.118V252.344H166.371V258.593ZM160.167 258.529H166.306V252.392H160.167V258.529Z" fill="black"/>
<path d="M160.133 252.359H153.945V258.544H160.133V252.359Z" fill="black"/>
<path d="M160.165 258.592H153.912V252.343H160.165V258.592ZM153.977 258.527H160.116V252.391H153.977V258.527Z" fill="black"/>
<path d="M153.931 252.359H147.743V258.544H153.931V252.359Z" fill="black"/>
<path d="M153.979 258.592H147.727V252.343H153.979V258.592ZM147.775 258.527H153.914V252.391H147.775V258.527Z" fill="black"/>
<path d="M178.731 252.36H172.543V258.545H178.731V252.36Z" fill="black"/>
<path d="M178.762 258.593H172.51V252.344H178.762V258.593ZM172.558 258.529H178.698V252.392H172.558V258.529Z" fill="black"/>
<path d="M153.931 246.176H147.743V252.361H153.931V246.176Z" fill="black"/>
<path d="M153.979 252.393H147.727V246.143H153.979V252.393ZM147.775 252.328H153.914V246.192H147.775V252.328Z" fill="black"/>
<path d="M153.977 258.593H153.912V258.561V252.327H153.977V252.359V258.593Z" fill="black"/>
<path d="M178.731 246.176H172.543V252.361H178.731V246.176Z" fill="black"/>
<path d="M178.762 252.393H172.51V246.143H178.762V252.393ZM172.558 252.328H178.698V246.192H172.558V252.328Z" fill="black"/>
<path d="M153.931 239.975H147.743V246.16H153.931V239.975Z" fill="black"/>
<path d="M153.979 246.209H147.727V239.959H153.979V246.209ZM147.775 246.144H153.914V240.007H147.775V246.144Z" fill="black"/>
<path d="M153.977 252.393H153.912V252.361V246.143H153.977V252.393Z" fill="black"/>
<path d="M166.339 239.975H160.151V246.16H166.339V239.975Z" fill="black"/>
<path d="M166.371 246.193H160.118V239.943H166.371V246.193ZM160.183 246.144H166.322V240.008H160.183V246.144Z" fill="black"/>
<path d="M178.731 239.975H172.543V246.16H178.731V239.975Z" fill="black"/>
<path d="M178.762 246.209H172.51V239.959H178.762V246.209ZM172.558 246.144H178.698V240.008H172.558V246.144Z" fill="black"/>
<path d="M153.931 233.787H147.743V239.972H153.931V233.787Z" fill="black"/>
<path d="M153.979 240.005H147.727V233.755H153.979V240.005ZM147.775 239.94H153.914V233.804H147.775V239.94Z" fill="black"/>
<path d="M153.977 246.209H153.912V246.177V239.943H153.977V246.209Z" fill="black"/>
<path d="M153.931 227.587H147.743V233.772H153.931V227.587Z" fill="black"/>
<path d="M153.979 233.822H147.727V227.572H153.979V233.822ZM147.775 233.757H153.914V227.62H147.775V233.757Z" fill="black"/>
<path d="M184.937 209.017H178.733V215.202H184.937V209.017Z" fill="black"/>
<path d="M184.953 215.234H178.7V208.984H184.953V215.234ZM178.765 215.169H184.904V209.033H178.765V215.169Z" fill="black"/>
<path d="M153.977 240.005H153.912V239.973V233.755H153.977V240.005Z" fill="black"/>
<path d="M166.339 227.587H160.151V233.772H166.339V227.587Z" fill="black"/>
<path d="M166.371 233.822H160.118V227.572H166.371V233.822ZM160.183 233.757H166.322V227.62H160.183V233.757Z" fill="black"/>
<path d="M172.529 227.587H166.341V233.772H172.529V227.587Z" fill="black"/>
<path d="M172.577 233.822H166.324V227.572H172.577V233.822ZM166.373 233.757H172.512V227.62H166.373V233.757Z" fill="black"/>
<path d="M178.731 233.789H172.543V239.974H178.731V233.789Z" fill="black"/>
<path d="M178.762 240.006H172.51V233.756H178.762V240.006ZM172.558 239.941H178.698V233.805H172.558V239.941Z" fill="black"/>
<path d="M172.53 221.402H166.342V227.587H172.53V221.402Z" fill="black"/>
<path d="M172.561 227.619H166.309V221.369H172.561V227.619ZM166.374 227.554H172.513V221.418H166.374V227.554Z" fill="black"/>
<path d="M178.731 227.588H172.543V233.772H178.731V227.588Z" fill="black"/>
<path d="M178.762 233.822H172.51V227.572H178.762V233.822ZM172.558 233.757H178.698V227.621H172.558V233.757Z" fill="black"/>
<path d="M203.514 215.2H197.326V221.385H203.514V215.2Z" fill="black"/>
<path d="M203.546 221.435H197.293V215.185H203.546V221.435ZM197.342 221.37H203.481V215.233H197.342V221.37Z" fill="black"/>
<path d="M203.514 221.402H197.326V227.587H203.514V221.402Z" fill="black"/>
<path d="M203.546 227.619H197.293V221.369H203.546V227.619ZM197.342 227.554H203.481V221.418H197.342V227.554Z" fill="black"/>
<path d="M215.906 221.402H209.718V227.587H215.906V221.402Z" fill="black"/>
<path d="M215.937 227.619H209.685V221.369H215.937V227.619ZM209.733 227.554H215.872V221.418H209.733V227.554Z" fill="black"/>
<path d="M209.704 227.587H203.517V233.772H209.704V227.587Z" fill="black"/>
<path d="M209.736 233.805H203.483V227.555H209.736V233.805ZM203.548 233.756H209.687V227.62H203.548V233.756Z" fill="black"/>
<path d="M209.704 239.975H203.517V246.16H209.704V239.975Z" fill="black"/>
<path d="M209.736 246.193H203.483V239.943H209.736V246.193ZM203.548 246.144H209.687V240.008H203.548V246.144Z" fill="black"/>
<path d="M203.514 239.975H197.326V246.16H203.514V239.975Z" fill="black"/>
<path d="M203.546 246.193H197.293V239.943H203.546V246.193ZM197.342 246.144H203.481V240.008H197.342V246.144Z" fill="black"/>
<path d="M203.514 246.176H197.326V252.361H203.514V246.176Z" fill="black"/>
<path d="M203.546 252.393H197.293V246.143H203.546V252.393ZM197.342 252.328H203.481V246.192H197.342V252.328Z" fill="black"/>
<path d="M197.308 233.787H191.12V239.972H197.308V233.787Z" fill="black"/>
<path d="M197.34 240.005H191.087V233.755H197.34V240.005ZM191.152 239.94H197.291V233.804H191.152V239.94Z" fill="black"/>
<path d="M209.704 246.176H203.517V252.361H209.704V246.176Z" fill="black"/>
<path d="M209.736 252.393H203.483V246.143H209.736V252.393ZM203.548 252.328H209.687V246.192H203.548V252.328Z" fill="black"/>
<path d="M209.704 252.359H203.517V258.544H209.704V252.359Z" fill="black"/>
<path d="M209.736 258.577H203.483V252.327H209.736V258.577ZM203.548 258.528H209.687V252.392H203.548V258.528Z" fill="black"/>
<path d="M191.12 252.359H184.933V258.544H191.12V252.359Z" fill="black"/>
<path d="M191.152 258.577H184.899V252.327H191.152V258.577ZM184.948 258.528H191.087V252.392H184.948V258.528Z" fill="black"/>
<path d="M197.308 252.359H191.12V258.544H197.308V252.359Z" fill="black"/>
<path d="M197.34 258.577H191.087V252.327H197.34V258.577ZM191.152 258.528H197.291V252.392H191.152V258.528Z" fill="black"/>
<path d="M222.093 252.359H215.905V258.544H222.093V252.359Z" fill="black"/>
<path d="M222.125 258.577H215.872V252.327H222.125V258.577ZM215.937 258.528H222.076V252.392H215.937V258.528Z" fill="black"/>
<path d="M240.691 252.359H234.503V258.544H240.691V252.359Z" fill="black"/>
<path d="M240.722 258.577H234.47V252.327H240.722V258.577ZM234.518 258.528H240.657V252.392H234.518V258.528Z" fill="black"/>
<path d="M234.486 246.159H228.298V252.344H234.486V246.159Z" fill="black"/>
<path d="M234.517 252.393H228.265V246.143H234.517V252.393ZM228.33 252.328H234.469V246.192H228.33V252.328Z" fill="black"/>
<path d="M234.486 239.975H228.298V246.16H234.486V239.975Z" fill="black"/>
<path d="M234.517 246.209H228.265V239.959H234.517V246.209ZM228.33 246.144H234.469V240.007H228.33V246.144Z" fill="black"/>
<path d="M240.691 239.975H234.503V246.16H240.691V239.975Z" fill="black"/>
<path d="M240.722 246.209H234.47V239.959H240.722V246.209ZM234.518 246.144H240.657V240.007H234.518V246.144Z" fill="black"/>
<path d="M240.691 233.788H234.503V239.973H240.691V233.788Z" fill="black"/>
<path d="M240.722 240.005H234.47V233.755H240.722V240.005ZM234.518 239.94H240.657V233.804H234.518V239.94Z" fill="black"/>
<path d="M234.486 227.587H228.298V233.772H234.486V227.587Z" fill="black"/>
<path d="M234.517 233.805H228.265V227.555H234.517V233.805ZM228.33 233.756H234.469V227.62H228.33V233.756Z" fill="black"/>
<path d="M234.486 221.402H228.298V227.587H234.486V221.402Z" fill="black"/>
<path d="M234.517 227.619H228.265V221.369H234.517V227.619ZM228.33 227.554H234.469V221.418H228.33V227.554Z" fill="black"/>
<path d="M240.691 215.201H234.503V221.386H240.691V215.201Z" fill="black"/>
<path d="M240.722 221.419H234.47V215.169H240.722V221.419ZM234.518 221.37H240.657V215.234H234.518V221.37Z" fill="black"/>
<path d="M240.691 209.017H234.503V215.218H240.691V209.017Z" fill="black"/>
<path d="M240.722 215.234H234.47V208.984H240.722V215.234ZM234.518 215.169H240.657V209.033H234.518V215.169Z" fill="black"/>
<path d="M234.486 202.815H228.298V209H234.486V202.815Z" fill="black"/>
<path d="M234.517 209.049H228.265V202.783H234.517V209.049ZM228.33 208.984H234.469V202.848H228.33V208.984Z" fill="black"/>
<path d="M234.486 209.017H228.298V215.218H234.486V209.017Z" fill="black"/>
<path d="M234.517 215.234H228.265V208.984H234.517V215.234ZM228.33 215.169H234.469V209.033H228.33V215.169Z" fill="black"/>
<path d="M228.297 215.201H222.109V221.386H228.297V215.201Z" fill="black"/>
<path d="M228.329 221.419H222.076V215.169H228.329V221.419ZM222.125 221.37H228.264V215.234H222.125V221.37Z" fill="black"/>
<path d="M228.297 239.975H222.109V246.16H228.297V239.975Z" fill="black"/>
<path d="M228.329 246.209H222.076V239.959H228.329V246.209ZM222.125 246.144H228.264V240.008H222.125V246.144Z" fill="black"/>
<path d="M215.906 246.176H209.718V252.361H215.906V246.176Z" fill="black"/>
<path d="M215.937 252.393H209.685V246.143H215.937V252.393ZM209.733 252.344H215.872V246.208H209.733V252.344Z" fill="black"/>
<path d="M222.093 233.789H215.905V239.974H222.093V233.789Z" fill="black"/>
<path d="M222.125 240.006H215.872V233.756H222.125V240.006ZM215.937 239.941H222.076V233.805H215.937V239.941Z" fill="black"/>
<path d="M222.093 221.402H215.905V227.587H222.093V221.402Z" fill="black"/>
<path d="M222.125 227.619H215.872V221.369H222.125V227.619ZM215.937 227.554H222.076V221.418H215.937V227.554Z" fill="black"/>
<path d="M222.093 202.815H215.905V209H222.093V202.815Z" fill="black"/>
<path d="M222.125 209.049H215.872V202.783H222.125V209.049ZM215.937 208.984H222.076V202.848H215.937V208.984Z" fill="black"/>
<path d="M209.704 202.815H203.517V209H209.704V202.815Z" fill="black"/>
<path d="M209.736 209.049H203.483V202.783H209.736V209.049ZM203.548 208.984H209.687V202.848H203.548V208.984Z" fill="black"/>
<path d="M209.704 209.017H203.517V215.202H209.704V209.017Z" fill="black"/>
<path d="M209.736 215.234H203.483V208.984H209.736V215.234ZM203.548 215.169H209.687V209.033H203.548V215.169Z" fill="black"/>
<path d="M215.889 209.017H209.701V215.202H215.889V209.017Z" fill="black"/>
<path d="M215.937 215.234H209.685V208.984H215.937V215.234ZM209.733 215.169H215.872V209.033H209.733V215.169Z" fill="black"/>
<path d="M215.889 215.2H209.701V221.385H215.889V215.2Z" fill="black"/>
<path d="M215.937 221.435H209.685V215.185H215.937V221.435ZM209.733 221.37H215.872V215.233H209.733V221.37Z" fill="black"/>
<path d="M166.339 221.402H160.151V227.587H166.339V221.402Z" fill="black"/>
<path d="M166.371 227.619H160.118V221.369H166.371V227.619ZM160.167 227.554H166.306V221.418H160.167V227.554Z" fill="black"/>
<path d="M160.133 227.588H153.945V233.772H160.133V227.588Z" fill="black"/>
<path d="M160.165 233.822H153.912V227.572H160.165V233.822ZM153.977 233.757H160.116V227.621H153.977V233.757Z" fill="black"/>
<path d="M166.339 178.044H160.151V184.229H166.339V178.044Z" fill="black"/>
<path d="M166.371 184.262H160.118V178.012H166.371V184.262ZM160.167 184.213H166.306V178.077H160.167V184.213Z" fill="black"/>
<path d="M172.53 184.244H166.342V190.429H172.53V184.244Z" fill="black"/>
<path d="M172.561 190.461H166.309V184.211H172.561V190.461ZM166.374 190.396H172.513V184.276H166.374V190.396Z" fill="black"/>
<path d="M166.339 190.428H160.151V196.613H166.339V190.428Z" fill="black"/>
<path d="M166.371 196.646H160.118V190.396H166.371V196.646ZM160.167 196.597H166.306V190.461H160.167V196.597Z" fill="black"/>
<path d="M178.731 184.244H172.543V190.429H178.731V184.244Z" fill="black"/>
<path d="M178.762 190.461H172.51V184.211H178.762V190.461ZM172.558 190.396H178.698V184.276H172.558V190.396Z" fill="black"/>
<path d="M178.731 178.043H172.543V184.228H178.731V178.043Z" fill="black"/>
<path d="M178.762 184.278H172.51V178.028H178.762V184.278ZM172.558 184.213H178.698V178.076H172.558V184.213Z" fill="black"/>
<path d="M184.937 178.043H178.733V184.228H184.937V178.043Z" fill="black"/>
<path d="M184.953 184.278H178.7V178.028H184.953V184.278ZM178.765 184.213H184.904V178.076H178.765V184.213Z" fill="black"/>
<path d="M191.12 171.858H184.933V178.042H191.12V171.858Z" fill="black"/>
<path d="M191.152 178.075H184.899V171.825H191.152V178.075ZM184.948 178.01H191.087V171.874H184.948V178.01Z" fill="black"/>
<path d="M197.308 171.858H191.12V178.042H197.308V171.858Z" fill="black"/>
<path d="M197.34 178.075H191.087V171.825H197.34V178.075ZM191.152 178.01H197.291V171.874H191.152V178.01Z" fill="black"/>
<path d="M240.674 171.857H234.486V178.042H240.674V171.857Z" fill="black"/>
<path d="M240.722 178.075H234.47V171.825H240.722V178.075ZM234.518 178.01H240.657V171.874H234.518V178.01Z" fill="black"/>
<path d="M240.691 178.044H234.503V184.229H240.691V178.044Z" fill="black"/>
<path d="M240.722 184.262H234.47V178.012H240.722V184.262ZM234.518 184.213H240.657V178.077H234.518V184.213Z" fill="black"/>
<path d="M240.691 184.244H234.503V190.445H240.691V184.244Z" fill="black"/>
<path d="M240.722 190.461H234.47V184.211H240.722V190.461ZM234.518 190.396H240.657V184.26H234.518V190.396Z" fill="black"/>
<path d="M240.691 190.428H234.503V196.613H240.691V190.428Z" fill="black"/>
<path d="M240.722 196.646H234.47V190.396H240.722V196.646ZM234.518 196.597H240.657V190.461H234.518V196.597Z" fill="black"/>
<path d="M240.691 196.615H234.503V202.8H240.691V196.615Z" fill="black"/>
<path d="M240.722 202.849H234.47V196.599H240.722V202.849ZM234.518 202.784H240.657V196.648H234.518V202.784Z" fill="black"/>
<path d="M215.889 196.632H209.701V202.817H215.889V196.632Z" fill="black"/>
<path d="M215.937 202.849H209.685V196.599H215.937V202.849ZM209.733 202.784H215.872V196.648H209.733V202.784Z" fill="black"/>
<path d="M234.486 196.615H228.298V202.8H234.486V196.615Z" fill="black"/>
<path d="M234.517 202.849H228.265V196.599H234.517V202.849ZM228.33 202.784H234.469V196.648H228.33V202.784Z" fill="black"/>
<path d="M228.297 196.615H222.109V202.8H228.297V196.615Z" fill="black"/>
<path d="M228.329 202.849H222.076V196.599H228.329V202.849ZM222.125 202.784H228.264V196.648H222.125V202.784Z" fill="black"/>
<path d="M215.889 190.428H209.701V196.613H215.889V190.428Z" fill="black"/>
<path d="M215.937 196.646H209.685V190.396H215.937V196.646ZM209.733 196.597H215.872V190.461H209.733V196.597Z" fill="black"/>
<path d="M215.889 184.244H209.701V190.428H215.889V184.244Z" fill="black"/>
<path d="M215.937 190.461H209.685V184.211H215.937V190.461ZM209.733 190.396H215.872V184.276H209.733V190.396Z" fill="black"/>
<path d="M215.889 178.043H209.701V184.244H215.889V178.043Z" fill="black"/>
<path d="M215.937 184.278H209.685V178.028H215.937V184.278ZM209.733 184.213H215.872V178.076H209.733V184.213Z" fill="black"/>
<path d="M215.889 171.858H209.701V178.042H215.889V171.858Z" fill="black"/>
<path d="M215.937 178.075H209.685V171.825H215.937V178.075ZM209.733 178.01H215.872V171.874H209.733V178.01Z" fill="black"/>
<path d="M228.281 171.857H222.093V178.042H228.281V171.857Z" fill="black"/>
<path d="M228.329 178.075H222.076V171.825H228.329V178.075ZM222.125 178.01H228.264V171.874H222.125V178.01Z" fill="black"/>
<path d="M228.297 184.244H222.109V190.429H228.297V184.244Z" fill="black"/>
<path d="M228.329 190.461H222.076V184.211H228.329V190.461ZM222.125 190.396H228.264V184.26H222.125V190.396Z" fill="black"/>
<path d="M222.093 171.857H215.905V178.042H222.093V171.857Z" fill="black"/>
<path d="M222.125 178.075H215.872V171.825H222.125V178.075ZM215.937 178.01H222.076V171.874H215.937V178.01Z" fill="black"/>
<path d="M234.486 171.858H228.298V178.042H234.486V171.858Z" fill="black"/>
<path d="M234.517 178.075H228.265V171.825H234.517V178.075ZM228.33 178.01H234.469V171.874H228.33V178.01Z" fill="black"/>
<path d="M191.12 184.244H184.933V190.428H191.12V184.244Z" fill="black"/>
<path d="M191.152 190.461H184.899V184.211H191.152V190.461ZM184.948 190.396H191.087V184.26H184.948V190.396Z" fill="black"/>
<path d="M197.308 184.244H191.12V190.428H197.308V184.244Z" fill="black"/>
<path d="M197.34 190.461H191.087V184.211H197.34V190.461ZM191.152 190.396H197.291V184.26H191.152V190.396Z" fill="black"/>
<path d="M203.514 190.428H197.326V196.613H203.514V190.428Z" fill="black"/>
<path d="M203.546 196.646H197.293V190.396H203.546V196.646ZM197.342 196.597H203.481V190.461H197.342V196.597Z" fill="black"/>
<path d="M209.704 178.043H203.517V184.244H209.704V178.043Z" fill="black"/>
<path d="M209.736 184.278H203.483V178.028H209.736V184.278ZM203.548 184.213H209.687V178.076H203.548V184.213Z" fill="black"/>
<path d="M203.497 184.244H197.31V190.428H203.497V184.244Z" fill="black"/>
<path d="M203.546 190.461H197.293V184.211H203.546V190.461ZM197.342 190.396H203.481V184.26H197.342V190.396Z" fill="black"/>
<path d="M203.514 196.632H197.326V202.817H203.514V196.632Z" fill="black"/>
<path d="M203.546 202.849H197.293V196.599H203.546V202.849ZM197.342 202.784H203.481V196.648H197.342V202.784Z" fill="black"/>
<path d="M184.937 190.428H178.733V196.613H184.937V190.428Z" fill="black"/>
<path d="M184.953 196.646H178.7V190.396H184.953V196.646ZM178.765 196.597H184.904V190.461H178.765V196.597Z" fill="black"/>
<path d="M191.12 190.428H184.933V196.613H191.12V190.428Z" fill="black"/>
<path d="M191.152 196.646H184.899V190.396H191.152V196.646ZM184.948 196.597H191.087V190.461H184.948V196.597Z" fill="black"/>
<path d="M222.093 196.632H215.905V202.817H222.093V196.632Z" fill="black"/>
<path d="M222.125 202.849H215.872V196.599H222.125V202.849ZM215.937 202.784H222.076V196.648H215.937V202.784Z" fill="black"/>
<path d="M197.308 202.815H191.12V209H197.308V202.815Z" fill="black"/>
<path d="M197.34 209.049H191.087V202.783H197.34V209.049ZM191.152 208.984H197.291V202.848H191.152V208.984Z" fill="black"/>
<path d="M191.12 202.815H184.933V209H191.12V202.815Z" fill="black"/>
<path d="M191.152 209.049H184.899V202.783H191.152V209.049ZM184.948 208.984H191.087V202.848H184.948V208.984Z" fill="black"/>
<path d="M197.308 209.017H191.12V215.202H197.308V209.017Z" fill="black"/>
<path d="M197.34 215.234H191.087V208.984H197.34V215.234ZM191.152 215.169H197.291V209.033H191.152V215.169Z" fill="black"/>
<path d="M191.12 215.2H184.933V221.385H191.12V215.2Z" fill="black"/>
<path d="M191.152 221.435H184.899V215.185H191.152V221.435ZM184.948 221.37H191.087V215.233H184.948V221.37Z" fill="black"/>
<path d="M184.937 221.402H178.733V227.587H184.937V221.402Z" fill="black"/>
<path d="M184.953 227.619H178.7V221.369H184.953V227.619ZM178.765 227.554H184.904V221.418H178.765V227.554Z" fill="black"/>
<path d="M191.12 239.975H184.933V246.16H191.12V239.975Z" fill="black"/>
<path d="M191.152 246.193H184.899V239.943H191.152V246.193ZM184.948 246.144H191.087V240.008H184.948V246.144Z" fill="black"/>
<path d="M191.12 233.787H184.933V239.972H191.12V233.787Z" fill="black"/>
<path d="M191.152 240.005H184.899V233.755H191.152V240.005ZM184.948 239.94H191.087V233.804H184.948V239.94Z" fill="black"/>
<path d="M197.308 227.587H191.12V233.772H197.308V227.587Z" fill="black"/>
<path d="M197.34 233.805H191.087V227.555H197.34V233.805ZM191.152 233.756H197.291V227.62H191.152V233.756Z" fill="black"/>
<path d="M191.12 221.402H184.933V227.587H191.12V221.402Z" fill="black"/>
<path d="M191.152 227.619H184.899V221.369H191.152V227.619ZM184.948 227.554H191.087V221.418H184.948V227.554Z" fill="black"/>
<path d="M178.731 196.632H172.543V202.817H178.731V196.632Z" fill="black"/>
<path d="M178.762 202.849H172.51V196.599H178.762V202.849ZM172.558 202.784H178.698V196.648H172.558V202.784Z" fill="black"/>
<path d="M172.53 171.857H166.342V178.042H172.53V171.857Z" fill="black"/>
<path d="M172.561 178.075H166.309V171.825H172.561V178.075ZM166.374 178.01H172.513V171.874H166.374V178.01Z" fill="black"/>
<path d="M166.339 215.2H160.151V221.385H166.339V215.2Z" fill="black"/>
<path d="M166.371 221.435H160.118V215.185H166.371V221.435ZM160.167 221.37H166.306V215.233H160.167V221.37Z" fill="black"/>
<path d="M172.53 209.017H166.342V215.202H172.53V209.017Z" fill="black"/>
<path d="M172.561 215.234H166.309V208.984H172.561V215.234ZM166.374 215.169H172.513V209.033H166.374V215.169Z" fill="black"/>
<path d="M172.542 196.632V209.018H160.15V202.817H166.338V196.632H172.542Z" fill="black"/>
<path d="M172.559 209.05H160.103V202.784H166.29V196.599H172.543V209.05H172.559ZM160.167 208.985H172.494V196.664H166.355V202.849H160.167V208.985Z" fill="black"/>
<path d="M160.151 209.018V215.203H153.947V227.589H147.743V196.632H153.947V209.018H160.151Z" fill="black"/>
<path d="M153.979 227.621H147.727V196.599H153.979V208.985H160.183V215.235H153.979V227.621ZM147.775 227.556H153.914V215.17H160.118V209.034H153.914V196.648H147.775V227.556Z" fill="black"/>
<path d="M160.152 184.243V190.428H147.744V171.857H153.948V184.243H160.152Z" fill="black"/>
<path d="M160.168 190.461H147.711V171.825H153.964V184.211H160.168V190.461ZM147.776 190.396H160.119V184.276H153.915V171.89H147.776V190.396Z" fill="black"/>
<path d="M178.664 150.431C177.559 150.138 176.488 149.814 175.546 149.489C175.383 149.424 175.204 149.375 175.058 149.375C173.126 149.311 171.485 147.882 171.485 145.268C171.485 142.671 173.077 140.983 175.269 140.983C177.478 140.983 178.907 142.687 178.907 145.09C178.907 147.168 177.949 148.515 176.585 148.986V149.035C177.397 149.246 178.274 149.424 178.956 149.554L178.664 150.431ZM177.787 145.139C177.787 143.515 176.942 141.843 175.221 141.843C173.45 141.843 172.573 143.483 172.59 145.236C172.573 146.957 173.532 148.515 175.172 148.515C176.861 148.515 177.787 146.989 177.787 145.139Z" fill="black"/>
<path d="M180.271 141.227C180.807 141.113 181.555 141.064 182.285 141.064C183.406 141.064 184.137 141.275 184.64 141.73C185.046 142.087 185.274 142.639 185.274 143.272C185.274 144.343 184.592 145.058 183.747 145.35V145.382C184.38 145.593 184.754 146.178 184.933 147.022C185.192 148.158 185.387 148.938 185.566 149.246H184.478C184.348 149.019 184.169 148.321 183.942 147.298C183.698 146.178 183.26 145.756 182.318 145.723H181.327V149.246H180.271V141.227ZM181.311 144.928H182.383C183.503 144.928 184.218 144.311 184.218 143.386C184.218 142.331 183.455 141.876 182.35 141.86C181.847 141.86 181.49 141.908 181.311 141.957V144.928Z" fill="black"/>
<path d="M194.984 148.97C194.595 149.164 193.831 149.359 192.841 149.359C190.551 149.359 188.829 147.914 188.829 145.252C188.829 142.704 190.551 140.983 193.068 140.983C194.075 140.983 194.725 141.194 195.001 141.34L194.741 142.2C194.351 142.005 193.783 141.859 193.1 141.859C191.2 141.859 189.933 143.077 189.933 145.203C189.933 147.184 191.087 148.466 193.052 148.466C193.685 148.466 194.335 148.337 194.757 148.125L194.984 148.97Z" fill="black"/>
<path d="M202.991 145.09C202.991 147.882 201.286 149.375 199.224 149.375C197.08 149.375 195.569 147.72 195.569 145.252C195.569 142.671 197.177 140.983 199.337 140.983C201.562 140.983 202.991 142.687 202.991 145.09ZM196.69 145.22C196.69 146.957 197.632 148.515 199.288 148.515C200.945 148.515 201.887 146.989 201.887 145.139C201.887 143.531 201.042 141.843 199.288 141.843C197.551 141.843 196.69 143.434 196.69 145.22Z" fill="black"/>
<path d="M204.355 141.227C204.989 141.129 205.752 141.064 206.58 141.064C208.091 141.064 209.163 141.421 209.877 142.071C210.608 142.736 211.03 143.678 211.03 144.993C211.03 146.324 210.624 147.395 209.861 148.158C209.098 148.921 207.847 149.327 206.272 149.327C205.525 149.327 204.891 149.295 204.372 149.23V141.227H204.355ZM205.411 148.402C205.671 148.451 206.061 148.467 206.467 148.467C208.708 148.467 209.926 147.217 209.926 145.025C209.942 143.11 208.854 141.892 206.629 141.892C206.093 141.892 205.671 141.941 205.395 142.006V148.402H205.411Z" fill="black"/>
<path d="M216.602 145.43H213.435V148.352H216.959V149.229H212.396V141.112H216.781V141.989H213.435V144.554H216.602V145.43Z" fill="black"/>
</g>
<defs>
<linearGradient id="paint0_linear_462_48058" x1="187.001" y1="21" x2="187.001" y2="333" gradientUnits="userSpaceOnUse">
<stop stop-color="#00937D" stop-opacity="0"/>
<stop offset="1" stop-color="#00937D"/>
</linearGradient>
</defs>
</svg>
