<svg width="28" height="24" viewBox="0 0 28 24" fill="none" xmlns="http://www.w3.org/2000/svg">
<path fill-rule="evenodd" clip-rule="evenodd" d="M14 17.1223C15.6187 17.1223 16.9732 18.3102 17.2356 19.8572H10.7643C11.0267 18.3101 12.3812 17.1223 14 17.1223ZM26.0377 5.75162C26.3274 5.98191 26.7491 5.93378 26.9793 5.6441C27.2096 5.35437 27.1615 4.93278 26.8718 4.70249C19.3501 -1.26818 8.64989 -1.26818 1.12812 4.70249C0.838442 4.93284 0.790262 5.35442 1.02061 5.6441C1.25095 5.93378 1.67254 5.98196 1.96222 5.75162C8.99645 0.168132 18.9935 0.168952 26.0378 5.75162H26.0377ZM18.0859 13.8424C18.4061 14.0264 18.8148 13.916 18.9987 13.5959C19.1827 13.2757 19.0723 12.8671 18.7522 12.6831C15.8097 10.9916 12.1903 10.9916 9.24779 12.6831C8.92765 12.8671 8.81729 13.2757 9.00126 13.5959C9.18523 13.916 9.59391 14.0264 9.91405 13.8424C12.4311 12.3954 15.5691 12.3949 18.0861 13.8424H18.0859ZM22.0704 9.7636C17.2598 6.29138 10.7449 6.29297 5.92957 9.7636C5.62972 9.9794 5.21164 9.91131 4.99584 9.61146C4.77999 9.31161 4.84813 8.89352 5.14798 8.67773C10.4371 4.86546 17.5628 4.86546 22.852 8.67773C23.1519 8.89352 23.22 9.31161 23.0042 9.61146C22.7884 9.91131 22.3703 9.9794 22.0704 9.7636H22.0704ZM7.74416 20.404H20.2558C21.1803 20.404 21.9344 21.1581 21.9344 22.0827V23.2286C21.9344 23.5299 21.6888 23.7755 21.3875 23.7755H6.61235C6.31113 23.7755 6.06547 23.5299 6.06547 23.2286V22.0827C6.06547 21.1581 6.81956 20.404 7.74411 20.404H7.74416Z" fill="#9A9A9A"/>
</svg>
