<svg width="24" height="24" viewBox="0 0 24 24" fill="none" xmlns="http://www.w3.org/2000/svg">
<path d="M9.75 11.3716V13.2466C9.75 13.5948 10.0284 13.875 10.3748 13.875H11.1248C10.7784 13.875 10.5 13.5948 10.5 13.2466V11.3716H9.75Z" fill="#F5F9FB"/>
<path d="M11.2524 3.375C8.99971 3.375 7.49805 5.24912 7.49805 7.10815C7.49805 9.74911 9.75025 10.1237 9.75025 11.5503H10.4731C9.84538 10.5422 8.24878 9.81753 8.24878 7.48535C8.24878 5.5982 9.65973 3.70076 11.8259 3.42188C11.6403 3.39427 11.4502 3.375 11.2524 3.375Z" fill="#F5F9FB"/>
<path d="M11.2496 0.75C11.0621 0.75 10.8746 0.874937 10.8746 1.125V1.875C10.8746 2.37512 11.6246 2.37512 11.6246 1.875V1.125C11.6246 0.874938 11.4371 0.75 11.2496 0.75ZM6.32243 3.47827L6.85272 4.00854C7.20638 4.36218 7.73667 3.83191 7.38302 3.47827L6.85272 2.948C6.76431 2.85958 6.66466 2.82602 6.57073 2.83154C6.28895 2.84808 6.0572 3.21304 6.32243 3.47827ZM15.9285 2.83154C15.8345 2.82602 15.7349 2.85959 15.6465 2.948L15.1162 3.47828C14.7625 3.83192 15.2928 4.36219 15.6465 4.00855L16.1768 3.47828C16.442 3.21304 16.2102 2.84808 15.9285 2.83154ZM7.94627 17.7627C8.72844 18.2783 9.60414 18.5913 10.4996 18.7036V22.8743C10.5 23.0827 10.6687 23.2508 10.8761 23.25H13.8732C14.0806 23.2508 14.2493 23.0827 14.2497 22.8743V17.9963C14.2497 17.9815 14.2447 17.9682 14.243 17.9539C14.5058 17.8026 14.7576 17.6307 14.9997 17.4365V22.8743C15.0001 23.0827 15.1687 23.2508 15.3761 23.25H18.3733C18.5807 23.2508 18.7494 23.0827 18.7498 22.8743L18.7512 12.7507C18.7509 12.5423 18.5822 12.3742 18.3748 12.375H17.2418C17.1529 10.9677 16.5684 9.58057 15.4927 8.50488C15.4022 8.41446 15.3146 8.32923 15.2195 8.24707C15.3167 7.92074 15.374 7.55052 15.374 7.10889C15.374 5.0481 13.7223 3.00073 11.2496 3.00073C8.77692 3.00073 7.1252 5.0481 7.1252 7.10889C7.1252 7.55012 7.1819 7.92021 7.27902 8.24634C7.18353 8.32858 7.09565 8.41432 7.00508 8.50488C4.95561 10.5542 4.69329 13.7204 6.23675 16.0518L1.36158 19.9548C0.512694 20.6434 0.590184 21.9286 1.33082 22.6692C2.07145 23.4098 3.35661 23.4873 4.04526 22.6384L7.94627 17.7627ZM11.2496 3.75073C13.2913 3.75073 14.624 5.4516 14.624 7.10889C14.624 8.28235 14.1555 8.8399 13.6081 9.38965C13.3344 9.66452 13.0375 9.93507 12.7943 10.2869C12.603 10.5636 12.4624 10.8737 12.4032 11.25H11.6246V9.87964L12.6295 8.89746C12.8754 8.66543 12.7127 8.25248 12.3746 8.25C12.2729 8.24861 12.1753 8.28842 12.1036 8.36059L11.2481 9.19629L10.3934 8.36059C10.3217 8.28842 10.2233 8.2486 10.1216 8.25C9.7836 8.25239 9.62165 8.66543 9.86747 8.89746L10.8746 9.88257V11.25H10.096C10.0368 10.8737 9.88968 10.5542 9.70487 10.2869C9.46167 9.93507 9.16482 9.66452 8.89112 9.38965C8.34373 8.8399 7.87522 8.25013 7.87522 7.10889C7.87522 5.4516 9.20788 3.75073 11.2496 3.75073ZM5.2494 7.5C4.74926 7.5 4.74926 8.25 5.2494 8.25H5.99943C6.49956 8.25 6.49956 7.5 5.99943 7.5H5.2494ZM16.4998 7.5C15.9996 7.5 15.9996 8.25 16.4998 8.25H17.2498C17.7499 8.25 17.7499 7.5 17.2498 7.5H16.4998ZM19.8764 7.8706C19.669 7.86982 19.5003 8.03794 19.4999 8.24634V22.8743C19.5003 23.0827 19.669 23.2508 19.8764 23.25H22.8735C23.0809 23.2508 23.2496 23.0827 23.25 22.8743V8.24634C23.2496 8.03794 23.0809 7.86981 22.8735 7.8706H19.8764ZM20.2499 8.625H22.5V22.4956H20.2499V8.625ZM7.59469 8.97583C7.73071 9.20629 7.88659 9.4068 8.04515 9.58594C6.30959 11.3426 6.31151 14.1888 8.0642 15.9331C9.83175 17.6923 12.6792 17.6881 14.4343 15.9331C16.1826 14.1849 16.1961 11.3549 14.4541 9.5896C14.6125 9.41058 14.7663 9.20829 14.9023 8.97803C14.9235 8.99815 14.9416 9.01437 14.9624 9.03516C17.0095 11.0851 17.019 14.4091 14.9646 16.4634C12.9102 18.5177 9.57524 18.5089 7.53397 16.4634C5.49271 14.4179 5.48099 11.0895 7.53539 9.03516C7.5564 9.01416 7.57328 8.99618 7.59469 8.97583ZM8.56738 10.1287C8.76864 10.3303 8.95471 10.5212 9.08742 10.7131C9.20361 10.8812 9.28935 11.049 9.33498 11.2544C8.87095 11.3027 8.89116 12 9.37454 12C9.37454 12.3843 9.37453 12.7862 9.37454 13.125C9.37492 13.6123 9.68821 14.0276 10.1275 14.1819C10.1275 14.2813 10.1275 14.3774 10.1275 14.6257C10.128 15.2421 10.626 15.75 11.2503 15.75C11.8766 15.75 12.3732 15.2425 12.3732 14.6257V14.1819C12.8127 14.0275 13.1247 13.6124 13.1247 13.125V12C13.6081 12 13.6181 11.2999 13.1671 11.2529C13.2128 11.0475 13.2956 10.8812 13.4118 10.7131C13.5443 10.5214 13.7301 10.3307 13.9311 10.1294C15.3639 11.5958 15.3612 13.945 13.9033 15.4028C12.4347 16.8712 10.0513 16.8654 8.59448 15.4028C7.148 13.9506 7.13003 11.5993 8.56738 10.1287ZM10.1246 12H11.2496H12.3746V13.125C12.3746 13.3392 12.2065 13.4985 12.0011 13.4985H10.4981C10.2839 13.4985 10.1247 13.3279 10.1246 13.125C10.1246 12.7482 10.1246 12.3785 10.1246 12ZM17.2403 13.125H17.9998V22.4956H15.7498V16.7248C16.6585 15.6942 17.1602 14.4158 17.2403 13.125ZM10.8775 14.2493H11.6231V14.6257C11.6231 14.84 11.4551 14.9993 11.2503 14.9993C11.0368 14.9993 10.8777 14.8286 10.8775 14.6257C10.8775 14.3915 10.8775 14.3188 10.8775 14.2493ZM6.69232 16.6509C6.79244 16.7673 6.89231 16.8841 7.00288 16.9944C7.11431 17.1055 7.2317 17.2065 7.34932 17.3071L3.4593 22.1675C3.08274 22.6292 2.31583 22.5907 1.86257 22.1374C1.40853 21.6834 1.36752 20.9129 1.83181 20.5371L6.69232 16.6509ZM13.3437 18.375L13.4997 18.3164V22.4956H11.2496V18.7527C11.96 18.7529 12.6696 18.6251 13.3437 18.375Z" fill="#00937D" stroke="#00937D" stroke-width="0.2"/>
</svg>
