<svg width="24" height="24" viewBox="0 0 24 24" fill="none" xmlns="http://www.w3.org/2000/svg">
<path d="M12.4798 14.16C13.4076 14.16 14.1598 13.4078 14.1598 12.48C14.1598 11.5521 13.4076 10.8 12.4798 10.8C11.552 10.8 10.7998 11.5521 10.7998 12.48C10.7998 13.4078 11.552 14.16 12.4798 14.16Z" stroke="white" stroke-miterlimit="10" stroke-linecap="round" stroke-linejoin="round"/>
<path d="M6.87891 12.9728V11.9872C6.87891 11.4048 7.35491 10.9232 7.94291 10.9232C8.95651 10.9232 9.37091 10.2064 8.86131 9.3272C8.57011 8.8232 8.74371 8.168 9.25331 7.8768L10.2221 7.3224C10.6645 7.0592 11.2357 7.216 11.4989 7.6584L11.5605 7.7648C12.0645 8.644 12.8933 8.644 13.4029 7.7648L13.4645 7.6584C13.7277 7.216 14.2989 7.0592 14.7413 7.3224L15.7101 7.8768C16.2197 8.168 16.3933 8.8232 16.1021 9.3272C15.5925 10.2064 16.0069 10.9232 17.0205 10.9232C17.6029 10.9232 18.0845 11.3992 18.0845 11.9872V12.9728C18.0845 13.5552 17.6085 14.0368 17.0205 14.0368C16.0069 14.0368 15.5925 14.7536 16.1021 15.6328C16.3933 16.1424 16.2197 16.792 15.7101 17.0832L14.7413 17.6376C14.2989 17.9008 13.7277 17.744 13.4645 17.3016L13.4029 17.1952C12.8989 16.316 12.0701 16.316 11.5605 17.1952L11.4989 17.3016C11.2357 17.744 10.6645 17.9008 10.2221 17.6376L9.25331 17.0832C8.74371 16.792 8.57011 16.1368 8.86131 15.6328C9.37091 14.7536 8.95651 14.0368 7.94291 14.0368C7.35491 14.0368 6.87891 13.5552 6.87891 12.9728Z" stroke="white" stroke-miterlimit="10" stroke-linecap="round" stroke-linejoin="round"/>
<path d="M23.0399 12.48C23.0399 18.3091 18.309 23.04 12.4799 23.04C6.6508 23.04 3.09208 17.1686 3.09208 17.1686M3.09208 17.1686H6.8092M3.09208 17.1686V21.3926M1.91992 12.48C1.91992 6.65088 6.60856 1.92 12.4799 1.92C19.5234 1.92 23.0399 7.79136 23.0399 7.79136M23.0399 7.79136V3.56736M23.0399 7.79136H19.4073" stroke="white" stroke-width="1.2" stroke-linecap="round" stroke-linejoin="round"/>
</svg>
