<svg width="26" height="26" viewBox="0 0 22 26" fill="none" xmlns="http://www.w3.org/2000/svg">
<path d="M19.7748 7.99115C17.814 7.99115 17.0123 6.60449 17.9873 4.90365C18.5506 3.91782 18.2148 2.66115 17.229 2.09782L15.3548 1.02532C14.499 0.516153 13.394 0.819487 12.8848 1.67532L12.7656 1.88115C11.7906 3.58199 10.1873 3.58199 9.20147 1.88115L9.08231 1.67532C8.59481 0.819487 7.48981 0.516153 6.63397 1.02532L4.75981 2.09782C3.77397 2.66115 3.43814 3.92865 4.00147 4.91449C4.98731 6.60449 4.18564 7.99115 2.22481 7.99115C1.09814 7.99115 0.166473 8.91199 0.166473 10.0495V11.9562C0.166473 13.0828 1.08731 14.0145 2.22481 14.0145C4.18564 14.0145 4.98731 15.4012 4.00147 17.102C3.43814 18.0878 3.77397 19.3445 4.75981 19.9078L6.63397 20.9803C7.48981 21.4895 8.59481 21.1862 9.10397 20.3303L9.22314 20.1245C10.1981 18.4237 11.8015 18.4237 12.7873 20.1245L12.9065 20.3303C13.4156 21.1862 14.5206 21.4895 15.3765 20.9803L17.2506 19.9078C18.2365 19.3445 18.5723 18.077 18.009 17.102C17.0231 15.4012 17.8248 14.0145 19.7856 14.0145C20.9123 14.0145 21.844 13.0937 21.844 11.9562V10.0495C21.8331 8.92282 20.9123 7.99115 19.7748 7.99115ZM10.9998 14.5237C9.06064 14.5237 7.47897 12.942 7.47897 11.0028C7.47897 9.06365 9.06064 7.48199 10.9998 7.48199C12.939 7.48199 14.5206 9.06365 14.5206 11.0028C14.5206 12.942 12.939 14.5237 10.9998 14.5237Z" fill="white"/>
</svg>
