<svg width="24" height="24" viewBox="0 0 24 24" fill="none" xmlns="http://www.w3.org/2000/svg">
<mask id="mask0_1615_92979" style="mask-type:luminance" maskUnits="userSpaceOnUse" x="0" y="0" width="24" height="24">
<path d="M0 1.90735e-06H24V24H0V1.90735e-06Z" fill="white"/>
</mask>
<g mask="url(#mask0_1615_92979)">
<path d="M14.0195 4.7019C14.0195 6.77298 15.6985 8.4519 17.7695 8.4519C19.8406 8.4519 21.5195 6.77298 21.5195 4.7019C21.5195 2.63083 19.8406 0.951904 17.7695 0.951904C15.6985 0.951904 14.0195 2.63083 14.0195 4.7019Z" fill="#00937D"/>
<path d="M2.76953 12.0144C2.76953 14.0855 4.44845 15.7644 6.51953 15.7644C8.59061 15.7644 10.2695 14.0855 10.2695 12.0144C10.2695 9.94333 8.59061 8.2644 6.51953 8.2644C4.44845 8.2644 2.76953 9.94333 2.76953 12.0144Z" fill="#00937D"/>
<path d="M14.0195 19.3269C14.0195 21.398 15.6985 23.0769 17.7695 23.0769C19.8406 23.0769 21.5195 21.398 21.5195 19.3269C21.5195 17.2558 19.8406 15.5769 17.7695 15.5769C15.6985 15.5769 14.0195 17.2558 14.0195 19.3269Z" fill="#00937D"/>
<path d="M14.9154 6.47615L9.37695 10.1685" stroke="#00937D" stroke-width="1.5" stroke-miterlimit="10"/>
<path d="M6.60742 12.0146L17.6843 19.3992" stroke="#00937D" stroke-width="1.5" stroke-miterlimit="10"/>
</g>
</svg>
