<svg width="18" height="18" viewBox="0 0 18 18" fill="none" xmlns="http://www.w3.org/2000/svg">
<path d="M2.25 12.375C1.9425 12.375 1.6875 12.12 1.6875 11.8125V6.1875C1.6875 5.88 1.9425 5.625 2.25 5.625C2.5575 5.625 2.8125 5.88 2.8125 6.1875V11.8125C2.8125 12.12 2.5575 12.375 2.25 12.375Z" fill="white"/>
<path d="M5.625 14.25C5.3175 14.25 5.0625 13.995 5.0625 13.6875V4.3125C5.0625 4.005 5.3175 3.75 5.625 3.75C5.9325 3.75 6.1875 4.005 6.1875 4.3125V13.6875C6.1875 13.995 5.9325 14.25 5.625 14.25Z" fill="white"/>
<path d="M9 16.125C8.6925 16.125 8.4375 15.87 8.4375 15.5625V2.4375C8.4375 2.13 8.6925 1.875 9 1.875C9.3075 1.875 9.5625 2.13 9.5625 2.4375V15.5625C9.5625 15.87 9.3075 16.125 9 16.125Z" fill="white"/>
<path d="M12.375 14.25C12.0675 14.25 11.8125 13.995 11.8125 13.6875V4.3125C11.8125 4.005 12.0675 3.75 12.375 3.75C12.6825 3.75 12.9375 4.005 12.9375 4.3125V13.6875C12.9375 13.995 12.6825 14.25 12.375 14.25Z" fill="white"/>
<path d="M15.75 12.375C15.4425 12.375 15.1875 12.12 15.1875 11.8125V6.1875C15.1875 5.88 15.4425 5.625 15.75 5.625C16.0575 5.625 16.3125 5.88 16.3125 6.1875V11.8125C16.3125 12.12 16.0575 12.375 15.75 12.375Z" fill="white"/>
</svg>
