<svg width="18" height="18" viewBox="0 0 18 18" fill="none" xmlns="http://www.w3.org/2000/svg">
<path d="M9.00084 13.5534C11.5157 13.5534 13.5544 11.5147 13.5544 8.99986C13.5544 6.48499 11.5157 4.44629 9.00084 4.44629C6.48597 4.44629 4.44727 6.48499 4.44727 8.99986C4.44727 11.5147 6.48597 13.5534 9.00084 13.5534Z" fill="#FFD600"/>
<path d="M9.00028 3.10697C8.85242 3.10697 8.73242 2.98697 8.73242 2.83911V1.23197C8.73242 1.08411 8.85242 0.964111 9.00028 0.964111C9.14814 0.964111 9.26814 1.08411 9.26814 1.23197V2.83911C9.26814 2.98697 9.14814 3.10697 9.00028 3.10697Z" fill="#FFD600"/>
<path d="M5.92039 3.93253C5.82771 3.93253 5.73771 3.88458 5.68816 3.7986L4.88459 2.40682C4.81066 2.27851 4.85432 2.11458 4.98263 2.04066C5.11093 1.96646 5.27432 2.01066 5.34852 2.13869L6.15209 3.53048C6.22602 3.65878 6.18209 3.82244 6.05405 3.89637C6.01173 3.92101 5.96566 3.93253 5.92039 3.93253Z" fill="#FFD600"/>
<path d="M3.6655 6.18724C3.62023 6.18724 3.57416 6.17573 3.53184 6.15135L2.14005 5.34778C2.01175 5.27385 1.96782 5.11019 2.04175 4.98189C2.11568 4.85358 2.27934 4.80939 2.40764 4.88385L3.79943 5.68742C3.92773 5.76135 3.97139 5.92528 3.89746 6.05332C3.84791 6.1393 3.75791 6.18724 3.6655 6.18724Z" fill="#FFD600"/>
<path d="M2.83984 9.26765H1.2327C1.08484 9.26765 0.964844 9.14765 0.964844 8.99979C0.964844 8.85193 1.08484 8.73193 1.2327 8.73193H2.83984C2.9877 8.73193 3.1077 8.85193 3.1077 8.99979C3.1077 9.14765 2.9877 9.26765 2.83984 9.26765Z" fill="#FFD600"/>
<path d="M2.27399 13.1515C2.18131 13.1515 2.09131 13.1035 2.04176 13.0176C1.96783 12.8892 2.01176 12.7256 2.13979 12.6517L3.53158 11.8481C3.65988 11.7739 3.82328 11.8178 3.89747 11.9461C3.9714 12.0744 3.92747 12.2381 3.79944 12.312L2.40765 13.1156C2.3656 13.14 2.31953 13.1515 2.27399 13.1515Z" fill="#FFD600"/>
<path d="M5.11629 15.9948C5.07102 15.9948 5.02495 15.9833 4.98263 15.9589C4.85432 15.885 4.81066 15.7211 4.88459 15.593L5.68816 14.2012C5.76209 14.0729 5.92575 14.029 6.05405 14.1032C6.18236 14.1771 6.22602 14.3411 6.15209 14.4691L5.34852 15.8609C5.29896 15.9469 5.20896 15.9948 5.11629 15.9948Z" fill="#FFD600"/>
<path d="M9.00028 17.0354C8.85242 17.0354 8.73242 16.9154 8.73242 16.7676V15.1604C8.73242 15.0126 8.85242 14.8926 9.00028 14.8926C9.14814 14.8926 9.26814 15.0126 9.26814 15.1604V16.7676C9.26814 16.9154 9.14814 17.0354 9.00028 17.0354Z" fill="#FFD600"/>
<path d="M12.8852 15.995C12.7925 15.995 12.7025 15.9471 12.6529 15.8611L11.8494 14.4693C11.7754 14.341 11.8194 14.1773 11.9474 14.1034C12.0757 14.0292 12.2394 14.0734 12.3133 14.2014L13.1169 15.5932C13.1908 15.7215 13.1469 15.8852 13.0188 15.9591C12.9765 15.9835 12.9304 15.995 12.8852 15.995Z" fill="#FFD600"/>
<path d="M15.728 13.1516C15.6827 13.1516 15.6367 13.1401 15.5943 13.1157L14.2026 12.3121C14.0742 12.2382 14.0303 12.0745 14.1042 11.9462C14.1782 11.8179 14.3416 11.7737 14.4701 11.8482L15.8619 12.6518C15.9902 12.7257 16.0339 12.8896 15.96 13.0177C15.9104 13.1037 15.8204 13.1516 15.728 13.1516Z" fill="#FFD600"/>
<path d="M16.7686 9.26765H15.1614C15.0136 9.26765 14.8936 9.14765 14.8936 8.99979C14.8936 8.85193 15.0136 8.73193 15.1614 8.73193H16.7686C16.9164 8.73193 17.0364 8.85193 17.0364 8.99979C17.0364 9.14765 16.9164 9.26765 16.7686 9.26765Z" fill="#FFD600"/>
<path d="M14.3365 6.18731C14.2438 6.18731 14.1538 6.13936 14.1043 6.05338C14.0303 5.92508 14.0743 5.76142 14.2023 5.68749L15.5941 4.88392C15.7224 4.80972 15.886 4.85392 15.96 4.98195C16.0339 5.11026 15.99 5.27392 15.8619 5.34785L14.4702 6.15142C14.4281 6.17579 14.382 6.18731 14.3365 6.18731Z" fill="#FFD600"/>
<path d="M12.0811 3.93252C12.0359 3.93252 11.9898 3.921 11.9475 3.89663C11.8192 3.8227 11.7755 3.65877 11.8494 3.53074L12.653 2.13895C12.7269 2.01065 12.8901 1.96645 13.0189 2.04065C13.1472 2.11458 13.1909 2.2785 13.1169 2.40654L12.3134 3.79833C12.2638 3.88431 12.1738 3.93252 12.0811 3.93252Z" fill="#FFD600"/>
</svg>
