<svg width="16" height="13" viewBox="0 0 16 13" fill="none" xmlns="http://www.w3.org/2000/svg">
<path d="M8.47597 4.87053C8.34462 4.46784 8.11624 4.10363 7.81097 3.81C7.50569 3.51636 7.13289 3.30231 6.7254 3.1867C6.31791 3.07109 5.88824 3.05746 5.47425 3.14703C5.06025 3.23659 4.67464 3.4266 4.35137 3.7003C4.02811 3.97401 3.77712 4.32302 3.62052 4.71658C3.46391 5.11013 3.4065 5.53617 3.45334 5.95714C3.50018 6.37812 3.64983 6.78111 3.88911 7.13063C4.12838 7.48014 4.44995 7.76544 4.82546 7.9614C4.86507 7.98289 4.90956 7.99377 4.95461 7.99297C4.99238 7.99319 5.02982 7.98595 5.06479 7.97167C5.09975 7.95739 5.13156 7.93634 5.15837 7.90975C5.34792 7.71622 5.57434 7.56266 5.82426 7.45816C6.07418 7.35365 6.34252 7.30033 6.61341 7.30133C6.84853 7.30094 7.08182 7.34274 7.30219 7.42473C7.34904 7.4445 7.4003 7.45146 7.45073 7.4449C7.50115 7.43835 7.54893 7.41851 7.58918 7.38742C7.62853 7.3582 7.65975 7.31938 7.67984 7.27467C7.69994 7.22995 7.70824 7.18084 7.70397 7.132C7.70397 7.04017 7.68962 6.9512 7.68962 6.85936C7.68613 6.54303 7.74748 6.22933 7.86989 5.93762C7.9923 5.64591 8.17317 5.38237 8.40136 5.16325C8.43978 5.12622 8.46712 5.07921 8.4803 5.0275C8.49348 4.97579 8.49198 4.92143 8.47597 4.87053Z" fill="#FFD600"/>
<path d="M15.043 7.6886C14.8163 7.29787 14.5022 6.96498 14.1252 6.71601C13.7483 6.46705 13.3188 6.30879 12.8705 6.25365C12.6937 5.57048 12.2763 4.97407 11.6949 4.574C11.1136 4.17394 10.4075 3.9971 9.70621 4.07599C9.00495 4.15488 8.35572 4.48419 7.87782 5.00341C7.39992 5.52262 7.12545 6.19687 7.10485 6.90225C6.94316 6.87092 6.77879 6.85554 6.6141 6.85633C6.26749 6.85543 5.9242 6.92376 5.60436 7.05732C5.28452 7.19087 4.99457 7.38696 4.75153 7.63407C4.36015 8.03122 4.10313 8.54109 4.01665 9.09193C3.93016 9.64278 4.01855 10.2069 4.26939 10.7049C4.46748 11.1255 4.78139 11.4809 5.17431 11.7295C5.56723 11.9781 6.02288 12.1094 6.48782 12.1082H12.6696C13.1726 12.1097 13.6662 11.9715 14.0954 11.709C14.5246 11.4466 14.8725 11.0701 15.1004 10.6216C15.3399 10.1679 15.4603 9.66071 15.4502 9.14771C15.4402 8.63471 15.3001 8.13265 15.043 7.6886Z" fill="white"/>
<path d="M5.99109 1.92018C5.91498 1.92018 5.84198 1.88994 5.78816 1.83612C5.73434 1.7823 5.7041 1.70931 5.7041 1.63319V0.485232C5.7041 0.409118 5.73434 0.336121 5.78816 0.2823C5.84198 0.228479 5.91498 0.198242 5.99109 0.198242C6.06721 0.198242 6.1402 0.228479 6.19402 0.2823C6.24784 0.336121 6.27808 0.409118 6.27808 0.485232V1.63319C6.27808 1.70931 6.24784 1.7823 6.19402 1.83612C6.1402 1.88994 6.06721 1.92018 5.99109 1.92018Z" fill="#FFD600"/>
<path d="M8.76085 3.17992C8.72308 3.18014 8.68564 3.1729 8.65067 3.15862C8.61571 3.14434 8.5839 3.12329 8.55709 3.09669C8.50363 3.04292 8.47363 2.97018 8.47363 2.89437C8.47363 2.81855 8.50363 2.74581 8.55709 2.69204L9.36927 1.87986C9.395 1.84981 9.42666 1.82541 9.46226 1.80819C9.49787 1.79096 9.53665 1.78128 9.57617 1.77975C9.6157 1.77823 9.65511 1.78489 9.69194 1.79932C9.72876 1.81374 9.76221 1.83563 9.79018 1.8636C9.81815 1.89157 9.84004 1.92501 9.85446 1.96184C9.86889 1.99867 9.87555 2.03808 9.87402 2.07761C9.8725 2.11713 9.86282 2.15591 9.84559 2.19152C9.82837 2.22712 9.80397 2.25878 9.77392 2.28451L8.96461 3.09669C8.9378 3.12329 8.90599 3.14434 8.87103 3.15862C8.83606 3.1729 8.79862 3.18014 8.76085 3.17992Z" fill="#FFD600"/>
<path d="M2.43468 9.5053C2.39691 9.50552 2.35947 9.49828 2.3245 9.484C2.28953 9.46972 2.25773 9.44867 2.23092 9.42208C2.17746 9.3683 2.14746 9.29557 2.14746 9.21975C2.14746 9.14393 2.17746 9.07119 2.23092 9.01742L3.0431 8.20524C3.098 8.15822 3.16862 8.13365 3.24085 8.13644C3.31308 8.13923 3.38159 8.16918 3.4327 8.22029C3.48381 8.2714 3.51376 8.33991 3.51655 8.41214C3.51934 8.48437 3.49477 8.55499 3.44775 8.60989L2.63557 9.42208C2.58212 9.4751 2.50997 9.50499 2.43468 9.5053Z" fill="#FFD600"/>
<path d="M1.97303 5.93799H0.825076C0.748961 5.93799 0.675964 5.90776 0.622143 5.85394C0.568322 5.80012 0.538086 5.72712 0.538086 5.651C0.538086 5.57489 0.568322 5.50189 0.622143 5.44807C0.675964 5.39425 0.748961 5.36401 0.825076 5.36401H1.97303C2.04915 5.36401 2.12215 5.39425 2.17597 5.44807C2.22979 5.50189 2.26002 5.57489 2.26002 5.651C2.26002 5.72712 2.22979 5.80012 2.17597 5.85394C2.12215 5.90776 2.04915 5.93799 1.97303 5.93799Z" fill="#FFD600"/>
<path d="M3.24712 3.18016C3.20935 3.18038 3.17191 3.17314 3.13694 3.15886C3.10198 3.14458 3.07017 3.12354 3.04336 3.09694L2.23117 2.28476C2.20113 2.25903 2.17673 2.22737 2.15951 2.19176C2.14228 2.15616 2.1326 2.11738 2.13107 2.07785C2.12955 2.03833 2.13621 1.99892 2.15063 1.96209C2.16506 1.92526 2.18695 1.89181 2.21492 1.86384C2.24289 1.83587 2.27633 1.81399 2.31316 1.79956C2.34999 1.78513 2.3894 1.77847 2.42893 1.78C2.46845 1.78153 2.50723 1.79121 2.54284 1.80843C2.57844 1.82566 2.6101 1.85006 2.63583 1.8801L3.44801 2.69228C3.50146 2.74605 3.53147 2.81879 3.53147 2.89461C3.53147 2.97043 3.50146 3.04317 3.44801 3.09694C3.39456 3.14996 3.32241 3.17985 3.24712 3.18016Z" fill="#FFD600"/>
</svg>
