<svg width="16" height="13" viewBox="0 0 16 13" fill="none" xmlns="http://www.w3.org/2000/svg">
<path d="M7.52403 4.87053C7.65538 4.46784 7.88376 4.10363 8.18903 3.81C8.49431 3.51636 8.86711 3.30231 9.2746 3.1867C9.68209 3.07109 10.1118 3.05746 10.5258 3.14703C10.9397 3.23659 11.3254 3.4266 11.6486 3.7003C11.9719 3.97401 12.2229 4.32302 12.3795 4.71658C12.5361 5.11013 12.5935 5.53617 12.5467 5.95714C12.4998 6.37812 12.3502 6.78111 12.1109 7.13063C11.8716 7.48014 11.5501 7.76544 11.1745 7.9614C11.1349 7.98289 11.0904 7.99377 11.0454 7.99297C11.0076 7.99319 10.9702 7.98595 10.9352 7.97167C10.9002 7.95739 10.8684 7.93634 10.8416 7.90975C10.6521 7.71622 10.4257 7.56266 10.1757 7.45816C9.92582 7.35365 9.65748 7.30033 9.38659 7.30133C9.15146 7.30094 8.91818 7.34274 8.69781 7.42473C8.65096 7.4445 8.5997 7.45146 8.54927 7.4449C8.49885 7.43835 8.45107 7.41851 8.41082 7.38742C8.37147 7.3582 8.34025 7.31938 8.32016 7.27467C8.30006 7.22995 8.29176 7.18084 8.29603 7.132C8.29603 7.04017 8.31038 6.9512 8.31038 6.85936C8.31387 6.54303 8.25252 6.22933 8.13011 5.93762C8.0077 5.64591 7.82683 5.38237 7.59864 5.16325C7.56022 5.12622 7.53288 5.07921 7.5197 5.0275C7.50652 4.97579 7.50802 4.92143 7.52403 4.87053Z" fill="#FFD600"/>
<path d="M0.957012 7.6886C1.18371 7.29787 1.49784 6.96498 1.87477 6.71602C2.2517 6.46705 2.68118 6.30879 3.12953 6.25365C3.30633 5.57048 3.72374 4.97407 4.30506 4.574C4.88637 4.17394 5.59254 3.9971 6.29379 4.07599C6.99505 4.15488 7.64428 4.48419 8.12218 5.00341C8.60008 5.52263 8.87455 6.19687 8.89515 6.90225C9.05684 6.87092 9.22121 6.85554 9.3859 6.85633C9.73251 6.85543 10.0758 6.92376 10.3956 7.05732C10.7155 7.19087 11.0054 7.38696 11.2485 7.63407C11.6399 8.03122 11.8969 8.54109 11.9834 9.09193C12.0698 9.64278 11.9814 10.2069 11.7306 10.7049C11.5325 11.1255 11.2186 11.4809 10.8257 11.7295C10.4328 11.9781 9.97712 12.1094 9.51218 12.1082H3.33042C2.82735 12.1097 2.33375 11.9715 1.90458 11.709C1.47541 11.4466 1.12751 11.0701 0.899614 10.6216C0.66011 10.1679 0.539736 9.66071 0.549775 9.14771C0.559814 8.63471 0.699938 8.13265 0.957012 7.6886Z" fill="white"/>
<path d="M10.0089 1.92018C10.085 1.92018 10.158 1.88994 10.2118 1.83612C10.2657 1.7823 10.2959 1.70931 10.2959 1.63319V0.485232C10.2959 0.409118 10.2657 0.336121 10.2118 0.2823C10.158 0.228479 10.085 0.198242 10.0089 0.198242C9.93279 0.198242 9.8598 0.228479 9.80598 0.2823C9.75216 0.336121 9.72192 0.409118 9.72192 0.485232V1.63319C9.72192 1.70931 9.75216 1.7823 9.80598 1.83612C9.8598 1.88994 9.93279 1.92018 10.0089 1.92018Z" fill="#FFD600"/>
<path d="M7.23915 3.17992C7.27692 3.18014 7.31436 3.1729 7.34933 3.15862C7.38429 3.14434 7.4161 3.12329 7.44291 3.09669C7.49637 3.04292 7.52637 2.97018 7.52637 2.89437C7.52637 2.81855 7.49637 2.74581 7.44291 2.69204L6.63073 1.87986C6.605 1.84981 6.57334 1.82541 6.53774 1.80819C6.50213 1.79096 6.46335 1.78128 6.42383 1.77975C6.3843 1.77823 6.34489 1.78489 6.30806 1.79932C6.27123 1.81374 6.23779 1.83563 6.20982 1.8636C6.18185 1.89157 6.15996 1.92501 6.14554 1.96184C6.13111 1.99867 6.12445 2.03808 6.12597 2.07761C6.1275 2.11713 6.13718 2.15591 6.15441 2.19152C6.17163 2.22712 6.19603 2.25878 6.22608 2.28451L7.03539 3.09669C7.0622 3.12329 7.09401 3.14434 7.12897 3.15862C7.16394 3.1729 7.20138 3.18014 7.23915 3.17992Z" fill="#FFD600"/>
<path d="M13.5653 9.5053C13.6031 9.50552 13.6405 9.49828 13.6755 9.484C13.7105 9.46972 13.7423 9.44867 13.7691 9.42208C13.8225 9.3683 13.8525 9.29557 13.8525 9.21975C13.8525 9.14393 13.8225 9.07119 13.7691 9.01742L12.9569 8.20524C12.902 8.15822 12.8314 8.13365 12.7592 8.13644C12.6869 8.13923 12.6184 8.16918 12.5673 8.22029C12.5162 8.2714 12.4862 8.33991 12.4835 8.41214C12.4807 8.48437 12.5052 8.55499 12.5522 8.60989L13.3644 9.42208C13.4179 9.47509 13.49 9.50499 13.5653 9.5053Z" fill="#FFD600"/>
<path d="M14.027 5.93799H15.1749C15.251 5.93799 15.324 5.90776 15.3779 5.85394C15.4317 5.80012 15.4619 5.72712 15.4619 5.651C15.4619 5.57489 15.4317 5.50189 15.3779 5.44807C15.324 5.39425 15.251 5.36401 15.1749 5.36401H14.027C13.9509 5.36401 13.8779 5.39425 13.824 5.44807C13.7702 5.50189 13.74 5.57489 13.74 5.651C13.74 5.72712 13.7702 5.80012 13.824 5.85394C13.8779 5.90776 13.9509 5.93799 14.027 5.93799Z" fill="#FFD600"/>
<path d="M12.7529 3.18016C12.7907 3.18038 12.8281 3.17314 12.8631 3.15886C12.898 3.14458 12.9298 3.12354 12.9566 3.09694L13.7688 2.28476C13.7989 2.25903 13.8233 2.22737 13.8405 2.19176C13.8577 2.15616 13.8674 2.11738 13.8689 2.07785C13.8705 2.03833 13.8638 1.99892 13.8494 1.96209C13.8349 1.92526 13.8131 1.89181 13.7851 1.86384C13.7571 1.83587 13.7237 1.81399 13.6868 1.79956C13.65 1.78513 13.6106 1.77847 13.5711 1.78C13.5316 1.78153 13.4928 1.79121 13.4572 1.80843C13.4216 1.82566 13.3899 1.85006 13.3642 1.8801L12.552 2.69228C12.4985 2.74605 12.4685 2.81879 12.4685 2.89461C12.4685 2.97043 12.4985 3.04317 12.552 3.09694C12.6054 3.14996 12.6776 3.17985 12.7529 3.18016Z" fill="#FFD600"/>
</svg>
