<svg width="24" height="24" viewBox="0 0 24 24" fill="none" xmlns="http://www.w3.org/2000/svg">
<path d="M12 17.35C12.9002 17.35 13.63 16.6202 13.63 15.72C13.63 14.8198 12.9002 14.09 12 14.09C11.0998 14.09 10.37 14.8198 10.37 15.72C10.37 16.6202 11.0998 17.35 12 17.35Z" fill="#797979"/>
<path d="M16.65 9.44H7.35C7.27 9.44 7.2 9.44 7.12 9.44V8.28C7.12 5.35 7.95 3.4 12 3.4C16.33 3.4 16.88 4.92667 16.88 6.76667C16.88 7.15667 17.19 7.46667 17.58 7.46667C17.97 7.46667 18.28 7.15667 18.28 6.76667C18.28 3.21667 16.17 2 12 2C6.37 2 5.72 5.58 5.72 8.28V9.53C2.92 9.88 2 11.3 2 14.79V16.65C2 20.75 3.25 22 7.35 22H16.65C20.75 22 22 20.75 22 16.65V14.79C22 10.69 20.75 9.44 16.65 9.44ZM12 18.74C10.33 18.74 8.98 17.38 8.98 15.72C8.98 14.05 10.34 12.7 12 12.7C13.66 12.7 15.02 14.06 15.02 15.72C15.02 17.39 13.67 18.74 12 18.74Z" fill="#797979"/>
</svg>
