<svg width="182" height="161" viewBox="0 0 182 161" fill="none" xmlns="http://www.w3.org/2000/svg">
<g clip-path="url(#clip0_5521_98683)">
<path d="M41.4931 118.272C41.4931 118.272 10.9347 106.863 4.40085 136.487L10.8342 135.186C10.8342 135.186 3.24486 143.843 0.581055 160.256C17.0162 157.053 25.46 149.297 25.46 149.297L24.3543 155.752C53.9074 148.346 41.4931 118.272 41.4931 118.272Z" fill="url(#paint0_linear_5521_98683)"/>
<path d="M41.4933 118.272C41.4933 118.272 22.4445 111.167 18.3232 129.631L22.344 128.831C22.344 128.831 17.6195 134.235 15.9609 144.493C26.2141 142.492 31.4914 137.638 31.4914 137.638L30.838 141.691C49.2334 137.037 41.4933 118.272 41.4933 118.272Z" fill="url(#paint1_linear_5521_98683)"/>
<path d="M63.1052 116.771L42.2471 96.2046L47.9768 90.45L68.8349 111.016L63.1052 116.771Z" fill="url(#paint2_linear_5521_98683)"/>
<path d="M58.0794 63.1781C58.0794 63.1781 38.7291 61.7769 30.7377 69.7333C22.1431 78.3402 15.0564 88.8486 9.32671 103.861C6.26082 111.867 14.3528 103.61 19.7306 98.7065C29.1293 90.1497 33.7533 90.3498 42.6997 92.4015C42.6494 92.3514 47.4744 82.5436 58.0794 63.1781Z" fill="#00937D"/>
<path opacity="0.33" d="M58.0794 63.1781C58.0794 63.1781 38.7291 61.7769 30.7377 69.7333C22.1431 78.3402 15.0564 88.8486 9.32673 103.861C8.77386 105.362 8.57282 106.313 8.67334 106.763C8.67334 106.763 16.9161 87.7478 25.9629 78.4403C35.0098 69.1328 41.0411 65.63 58.0794 63.1781Z" fill="white"/>
<path d="M96.3269 100.858C96.3269 100.858 97.9352 120.074 89.9941 128.03C81.3995 136.637 70.8951 143.743 55.8169 149.597C47.7753 152.7 56.0682 144.593 60.8932 139.239C69.3873 129.831 69.1862 125.228 67.0753 116.371C67.0753 116.421 76.9263 111.567 96.3269 100.858Z" fill="#00937D"/>
<path d="M157.293 28.3001C160.51 7.53342 156.388 2.62949 156.388 2.62949C156.388 2.62949 151.413 -1.42376 130.554 1.97897C108.49 5.53182 94.4674 19.0426 84.918 28.4502C72.5539 40.6099 52.2486 68.5823 42.5986 92.3514L54.8622 104.311L67.0252 116.421C90.899 106.663 118.894 86.1965 131.007 73.8366C140.406 64.2789 153.926 50.2677 157.293 28.3001Z" fill="url(#paint3_linear_5521_98683)"/>
<path d="M45.7656 95.4037L54.913 104.361L67.0761 116.471C90.9498 106.713 118.945 86.2464 131.058 73.8865C140.406 64.3288 153.926 50.3176 157.294 28.35C160.51 7.58337 156.389 2.67944 156.389 2.67944" fill="url(#paint4_linear_5521_98683)"/>
<path opacity="0.09" d="M44.4082 94.0527L65.3166 114.619" stroke="black" stroke-width="1.8919" stroke-miterlimit="10"/>
<path d="M42.6494 92.3514L54.913 104.311L67.076 116.421C71.901 114.469 76.8768 112.017 81.9029 109.365L49.6356 77.5896C46.9718 82.5436 44.6096 87.5476 42.6494 92.3514Z" fill="url(#paint5_linear_5521_98683)"/>
<path d="M75.4189 85.1455L67.0757 116.421L64.7134 114.869L63.1051 116.771L54.9629 108.764L75.4189 85.1455Z" fill="url(#paint6_linear_5521_98683)"/>
<path d="M112.461 7.63354L151.765 46.3646" stroke="black" stroke-width="1.8919" stroke-miterlimit="10"/>
<path d="M156.439 2.62949C156.439 2.62949 151.463 -1.42376 130.605 1.97897C123.82 3.07985 117.839 5.08146 112.461 7.68354L151.765 46.4146C154.278 41.0603 156.288 35.1055 157.344 28.3501C160.51 7.53342 156.439 2.62949 156.439 2.62949Z" fill="#00937D"/>
<mask id="mask0_5521_98683" style="mask-type:luminance" maskUnits="userSpaceOnUse" x="42" y="0" width="117" height="117">
<path d="M157.293 28.3001C160.51 7.53342 156.388 2.62949 156.388 2.62949C156.388 2.62949 151.413 -1.42376 130.554 1.97897C108.49 5.53182 94.4674 19.0426 84.918 28.4502C72.5539 40.6099 52.2486 68.5823 42.5986 92.3514L54.8622 104.311L67.0252 116.421C90.899 106.663 118.894 86.1965 131.007 73.8366C140.406 64.2789 153.926 50.2677 157.293 28.3001Z" fill="white"/>
</mask>
<g mask="url(#mask0_5521_98683)">
<path d="M151.915 54.7213L104.569 8.58436L106.58 6.53271L153.925 52.6697L151.915 54.7213Z" fill="#00937D"/>
</g>
<mask id="mask1_5521_98683" style="mask-type:luminance" maskUnits="userSpaceOnUse" x="42" y="0" width="117" height="117">
<path d="M157.293 28.3001C160.51 7.53342 156.388 2.62949 156.388 2.62949C156.388 2.62949 151.413 -1.42376 130.554 1.97897C108.49 5.53182 94.4674 19.0426 84.918 28.4502C72.5539 40.6099 52.2486 68.5823 42.5986 92.3514L54.8622 104.311L67.0252 116.421C90.899 106.663 118.894 86.1965 131.007 73.8366C140.406 64.2789 153.926 50.2677 157.293 28.3001Z" fill="white"/>
</mask>
<g mask="url(#mask1_5521_98683)">
<path d="M149 58.4741L101.705 12.3372L103.012 10.9861L150.357 57.1231L149 58.4741Z" fill="url(#paint7_linear_5521_98683)"/>
</g>
<path opacity="0.09" d="M49.6357 77.5896L81.903 109.315" stroke="black" stroke-width="1.8919" stroke-miterlimit="10"/>
<path d="M75.2181 83.9947C75.2181 83.9947 73.4087 81.2425 56.0186 98.6564C38.6284 116.07 23.8016 132.784 25.1586 134.135C26.5659 135.486 43.2022 120.624 60.6425 103.21C78.0327 85.7461 75.2181 83.9947 75.2181 83.9947Z" fill="#00937D"/>
<path opacity="0.33" d="M75.2181 83.9947C75.2181 83.9947 73.4087 81.2425 56.0186 98.6564C38.6284 116.07 23.8016 132.784 25.1586 134.135C25.1586 134.135 30.0339 127.179 43.1016 113.318C56.1694 99.4571 71.147 84.345 75.2181 83.9947Z" fill="white"/>
<path d="M101.052 79.9915C113.016 79.9915 122.714 70.3355 122.714 58.4242C122.714 46.5129 113.016 36.8569 101.052 36.8569C89.0882 36.8569 79.3896 46.5129 79.3896 58.4242C79.3896 70.3355 89.0882 79.9915 101.052 79.9915Z" fill="url(#paint8_linear_5521_98683)"/>
<path d="M100.917 79.191C112.797 79.1549 122.399 69.5369 122.363 57.7086C122.327 45.8802 112.666 36.3206 100.786 36.3566C88.9054 36.3927 79.3038 46.0107 79.3399 57.839C79.3761 69.6674 89.0365 79.227 100.917 79.191Z" fill="#D4D4D4"/>
<path d="M101.153 79.1909C112.894 79.1909 122.413 69.7141 122.413 58.0239C122.413 46.3337 112.894 36.8569 101.153 36.8569C89.4111 36.8569 79.8926 46.3337 79.8926 58.0239C79.8926 69.7141 89.4111 79.1909 101.153 79.1909Z" fill="url(#paint9_linear_5521_98683)"/>
<path d="M100.849 74.3377C110.037 74.2842 117.442 66.8252 117.388 57.6775C117.335 48.5299 109.843 41.1577 100.655 41.2112C91.4668 41.2647 84.0621 48.7237 84.1159 57.8714C84.1697 67.019 91.6615 74.3913 100.849 74.3377Z" fill="#76C9F0"/>
<path d="M100.851 73.9867C109.65 73.9867 116.783 66.8847 116.783 58.1239C116.783 49.3632 109.65 42.2612 100.851 42.2612C92.0512 42.2612 84.918 49.3632 84.918 58.1239C84.918 66.8847 92.0512 73.9867 100.851 73.9867Z" fill="url(#paint10_linear_5521_98683)"/>
<mask id="mask2_5521_98683" style="mask-type:luminance" maskUnits="userSpaceOnUse" x="84" y="42" width="33" height="32">
<path d="M100.93 73.9869C109.73 73.9439 116.828 66.8072 116.785 58.0466C116.742 49.286 109.573 42.2189 100.774 42.2618C91.975 42.3048 84.8768 49.4415 84.9199 58.2021C84.963 66.9627 92.1312 74.0298 100.93 73.9869Z" fill="white"/>
</mask>
<g mask="url(#mask2_5521_98683)">
<path d="M115.578 45.5637L80.1943 61.0762L82.7576 66.7807L118.091 51.2683L115.578 45.5637Z" fill="url(#paint11_linear_5521_98683)"/>
</g>
<mask id="mask3_5521_98683" style="mask-type:luminance" maskUnits="userSpaceOnUse" x="84" y="42" width="33" height="32">
<path d="M100.93 73.9869C109.73 73.9439 116.828 66.8072 116.785 58.0466C116.742 49.286 109.573 42.2189 100.774 42.2618C91.975 42.3048 84.8768 49.4415 84.9199 58.2021C84.963 66.9627 92.1312 74.0298 100.93 73.9869Z" fill="white"/>
</mask>
<g mask="url(#mask3_5521_98683)">
<path d="M119.096 54.3708L83.7627 69.9333L85.0192 72.7856L120.352 57.2732L119.096 54.3708Z" fill="url(#paint12_linear_5521_98683)"/>
</g>
<path d="M87.2813 45.864C87.3818 45.3636 87.0803 44.9132 86.5777 44.8131C86.0751 44.713 85.6227 45.0133 85.5222 45.5137C85.4217 46.0141 85.7232 46.4644 86.2258 46.5645C86.7284 46.6646 87.1808 46.3644 87.2813 45.864Z" fill="#A3A3A3"/>
<path d="M84.1143 50.8181C84.2148 50.3177 83.9133 49.8673 83.4107 49.7672C82.9081 49.6671 82.4557 49.9674 82.3552 50.4678C82.2547 50.9682 82.5562 51.4185 83.0588 51.5186C83.5615 51.6187 84.0138 51.3185 84.1143 50.8181Z" fill="#A3A3A3"/>
<path d="M90.8497 42.4614C90.9502 41.961 90.6486 41.5106 90.146 41.4105C89.6434 41.3105 89.1911 41.6107 89.0905 42.1111C88.99 42.6115 89.2916 43.0619 89.7942 43.1619C90.2968 43.262 90.7491 42.9117 90.8497 42.4614Z" fill="#A3A3A3"/>
<path d="M83.3101 61.5267C83.0085 61.1264 82.4054 61.0763 82.0536 61.4266C81.6515 61.7269 81.6012 62.3273 81.953 62.6776C82.2546 63.078 82.8577 63.128 83.2096 62.7777C83.6116 62.4775 83.6619 61.927 83.3101 61.5267Z" fill="#A3A3A3"/>
<path d="M85.27 67.0811C84.9685 66.6808 84.3654 66.6308 84.0135 66.9811C83.6114 67.2813 83.5612 67.8818 83.913 68.2321C84.2146 68.6324 84.8177 68.6824 85.1695 68.3322C85.5213 68.0319 85.5716 67.4815 85.27 67.0811Z" fill="#A3A3A3"/>
<path d="M82.9585 55.722C82.657 55.3217 82.0538 55.2717 81.702 55.6219C81.2999 55.9222 81.2497 56.5227 81.6015 56.8729C81.9533 57.2232 82.5062 57.3233 82.858 56.973C83.2098 56.6728 83.2601 56.1223 82.9585 55.722Z" fill="#A3A3A3"/>
<path d="M92.8597 74.387C92.3571 74.387 91.955 74.8373 92.0052 75.3377C92.0052 75.8381 92.4576 76.2384 92.9602 76.1884C93.4628 76.1884 93.8649 75.7381 93.8146 75.2377C93.7643 74.7873 93.3623 74.387 92.8597 74.387Z" fill="#A3A3A3"/>
<path d="M98.4388 76.2886C97.9362 76.2886 97.5341 76.7389 97.5843 77.2393C97.5843 77.7397 98.0367 78.1401 98.5393 78.09C99.0419 78.09 99.444 77.6397 99.3937 77.1393C99.3434 76.6889 98.9414 76.2886 98.4388 76.2886Z" fill="#A3A3A3"/>
<path d="M88.0345 71.1343C87.5319 71.1343 87.1298 71.5846 87.18 72.085C87.18 72.5854 87.6324 72.9858 88.135 72.9357C88.6376 72.8857 89.0397 72.4854 88.9894 71.985C88.9391 71.5346 88.5371 71.1343 88.0345 71.1343Z" fill="#A3A3A3"/>
<path d="M109.044 74.7373C108.742 75.1376 108.842 75.688 109.245 75.9883C109.647 76.2885 110.199 76.1884 110.501 75.7881C110.803 75.3878 110.702 74.8374 110.3 74.5371C109.898 74.2369 109.345 74.337 109.044 74.7373Z" fill="#A3A3A3"/>
<path d="M113.668 71.5847C113.366 71.985 113.466 72.5355 113.869 72.8357C114.271 73.1359 114.824 73.0359 115.125 72.6355C115.427 72.2352 115.326 71.6848 114.924 71.3845C114.522 71.0843 113.969 71.1844 113.668 71.5847Z" fill="#A3A3A3"/>
<path d="M103.515 76.2885C103.214 76.6889 103.314 77.2393 103.716 77.5396C104.118 77.8398 104.671 77.7397 104.973 77.3394C105.274 76.9391 105.174 76.3886 104.772 76.0884C104.42 75.7882 103.817 75.8882 103.515 76.2885Z" fill="#A3A3A3"/>
<path d="M118.543 62.5274C118.643 63.0278 119.146 63.328 119.649 63.1779C120.151 63.0778 120.453 62.5774 120.302 62.077C120.201 61.5766 119.699 61.2764 119.196 61.4265C118.694 61.5766 118.392 62.027 118.543 62.5274Z" fill="#A3A3A3"/>
<path d="M119.146 57.1731C119.247 57.6735 119.75 57.9737 120.252 57.8236C120.755 57.7235 121.056 57.2231 120.905 56.7227C120.805 56.2223 120.302 55.9221 119.8 56.0722C119.297 56.1723 118.996 56.6727 119.146 57.1731Z" fill="#A3A3A3"/>
<path d="M116.683 67.8816C116.784 68.382 117.287 68.6822 117.789 68.5321C118.292 68.432 118.593 67.9316 118.443 67.4312C118.342 66.9308 117.839 66.6306 117.337 66.7807C116.834 66.9308 116.533 67.4312 116.683 67.8816Z" fill="#A3A3A3"/>
<path d="M116.03 47.2653C116.483 47.4654 117.035 47.2653 117.237 46.8149C117.438 46.3646 117.237 45.8141 116.784 45.614C116.332 45.4138 115.779 45.614 115.578 46.0643C115.327 46.5147 115.528 47.0651 116.03 47.2653Z" fill="#A3A3A3"/>
<path d="M111.858 43.162C112.311 43.3622 112.864 43.162 113.065 42.7117C113.266 42.2613 113.065 41.7109 112.612 41.5107C112.16 41.3105 111.607 41.5107 111.406 41.9611C111.205 42.4615 111.406 42.9619 111.858 43.162Z" fill="#A3A3A3"/>
<path d="M118.393 52.3192C118.845 52.5194 119.398 52.3192 119.599 51.8689C119.8 51.4185 119.599 50.8681 119.146 50.6679C118.694 50.4678 118.141 50.6679 117.94 51.1183C117.739 51.5686 117.94 52.1191 118.393 52.3192Z" fill="#A3A3A3"/>
<path d="M101.678 39.2764C101.809 38.7965 101.525 38.3013 101.043 38.1704C100.561 38.0394 100.064 38.3223 99.9324 38.8022C99.8009 39.2821 100.085 39.7773 100.567 39.9082C101.049 40.0391 101.546 39.7563 101.678 39.2764Z" fill="#A3A3A3"/>
<path d="M95.6237 40.8101C96.076 40.5599 96.2268 40.0095 96.0258 39.6091C95.7745 39.1588 95.2216 39.0087 94.8195 39.2088C94.3672 39.459 94.2164 40.0095 94.4174 40.4098C94.6185 40.8601 95.1714 41.0103 95.6237 40.8101Z" fill="#A3A3A3"/>
<path d="M107.532 40.2217C107.732 39.766 107.524 39.2349 107.066 39.0355C106.608 38.8361 106.075 39.0439 105.874 39.4997C105.674 39.9555 105.883 40.4866 106.341 40.686C106.798 40.8853 107.332 40.6775 107.532 40.2217Z" fill="#A3A3A3"/>
<path d="M87.0801 45.6638C87.1807 45.1634 86.8791 44.713 86.3765 44.6129C85.8739 44.5128 85.4215 44.8131 85.321 45.3135C85.2205 45.8139 85.5221 46.2642 86.0247 46.3643C86.5273 46.4644 86.9796 46.1642 87.0801 45.6638Z" fill="#D4D4D4"/>
<path d="M83.9639 50.6179C84.0644 50.1175 83.7629 49.6671 83.2603 49.567C82.7577 49.4669 82.3053 49.7672 82.2048 50.2676C82.1043 50.768 82.4059 51.2184 82.9085 51.3184C83.3608 51.4185 83.8634 51.1183 83.9639 50.6179Z" fill="#D4D4D4"/>
<path d="M90.6983 42.2612C90.7988 41.7608 90.4973 41.3104 89.9946 41.2103C89.492 41.1103 89.0397 41.4105 88.9392 41.9109C88.8387 42.4113 89.1402 42.8617 89.6428 42.9617C90.0952 43.0618 90.5978 42.7616 90.6983 42.2612Z" fill="#D4D4D4"/>
<path d="M83.1089 61.3263C82.8073 60.9259 82.2042 60.8759 81.8524 61.2262C81.4503 61.5264 81.4001 62.1269 81.7519 62.4772C82.0534 62.8775 82.6566 62.9276 83.0084 62.5773C83.3602 62.227 83.4607 61.7266 83.1089 61.3263Z" fill="#D4D4D4"/>
<path d="M85.0691 66.8807C84.7676 66.4804 84.1644 66.4304 83.8126 66.7806C83.4608 67.1309 83.3603 67.6814 83.7121 68.0316C84.0136 68.432 84.6168 68.482 84.9686 68.1317C85.3204 67.8315 85.3707 67.281 85.0691 66.8807Z" fill="#D4D4D4"/>
<path d="M82.7573 55.5716C82.4558 55.1713 81.8527 55.1213 81.5008 55.4715C81.0988 55.7718 81.0485 56.3723 81.4003 56.7226C81.7019 57.1229 82.305 57.1729 82.6568 56.8226C83.0087 56.5224 83.0589 55.9219 82.7573 55.5716Z" fill="#D4D4D4"/>
<path d="M92.6585 74.2367C92.1559 74.2367 91.7538 74.687 91.8041 75.1874C91.8041 75.6878 92.2564 76.0881 92.759 76.0381C93.2616 76.0381 93.6637 75.5877 93.6134 75.0873C93.5632 74.5869 93.1611 74.1866 92.6585 74.2367Z" fill="#D4D4D4"/>
<path d="M98.2376 76.0881C97.735 76.0881 97.3329 76.5385 97.3832 77.0389C97.3832 77.5393 97.8355 77.9396 98.3381 77.8896C98.8407 77.8896 99.2428 77.4392 99.1925 76.9388C99.1423 76.4885 98.7402 76.0881 98.2376 76.0881Z" fill="#D4D4D4"/>
<path d="M87.8333 70.9341C87.3307 70.9341 86.9286 71.3844 86.9789 71.8848C86.9789 72.3852 87.4312 72.7856 87.9338 72.7355C88.4364 72.7355 88.8385 72.2852 88.7882 71.7848C88.7882 71.3344 88.3359 70.9341 87.8333 70.9341Z" fill="#D4D4D4"/>
<path d="M108.842 74.5368C108.541 74.9372 108.641 75.4876 109.043 75.7878C109.445 76.0881 109.998 75.988 110.3 75.5877C110.601 75.1874 110.501 74.6369 110.099 74.3367C109.697 74.0364 109.144 74.1365 108.842 74.5368Z" fill="#D4D4D4"/>
<path d="M113.517 71.3845C113.216 71.7848 113.316 72.3353 113.718 72.6355C114.12 72.9357 114.673 72.8357 114.975 72.4353C115.276 72.035 115.176 71.4846 114.774 71.1843C114.372 70.8841 113.819 70.9842 113.517 71.3845Z" fill="#D4D4D4"/>
<path d="M103.314 76.0881C103.012 76.4884 103.113 77.0389 103.515 77.3391C103.917 77.6394 104.47 77.5393 104.772 77.139C105.073 76.7386 104.973 76.1882 104.571 75.888C104.219 75.5877 103.616 75.6878 103.314 76.0881Z" fill="#D4D4D4"/>
<path d="M118.342 62.3272C118.442 62.8276 118.945 63.1278 119.447 62.9777C119.95 62.8776 120.252 62.3772 120.101 61.8768C120 61.3764 119.498 61.0762 118.995 61.2263C118.492 61.3764 118.191 61.8768 118.342 62.3272Z" fill="#D4D4D4"/>
<path d="M118.945 56.9729C119.045 57.4733 119.548 57.7736 120.05 57.6234C120.553 57.5234 120.855 57.0229 120.704 56.5225C120.603 56.0221 120.101 55.7219 119.598 55.872C119.095 55.9721 118.844 56.4725 118.945 56.9729Z" fill="#D4D4D4"/>
<path d="M116.482 67.7315C116.583 68.2319 117.085 68.5321 117.588 68.382C118.091 68.2819 118.392 67.7815 118.241 67.2811C118.141 66.7807 117.638 66.4805 117.136 66.6306C116.683 66.7307 116.382 67.2311 116.482 67.7315Z" fill="#D4D4D4"/>
<path d="M115.829 47.0649C116.281 47.265 116.834 47.0648 117.035 46.6145C117.236 46.1641 117.035 45.6137 116.583 45.4135C116.131 45.2134 115.578 45.4135 115.377 45.8639C115.176 46.3142 115.377 46.8647 115.829 47.0649Z" fill="#D4D4D4"/>
<path d="M112.877 42.5629C113.099 42.1167 112.915 41.5766 112.466 41.3565C112.018 41.1364 111.476 41.3196 111.255 41.7657C111.034 42.2118 111.218 42.7519 111.666 42.9721C112.114 43.1922 112.656 43.009 112.877 42.5629Z" fill="#D4D4D4"/>
<path d="M118.241 52.119C118.694 52.3192 119.247 52.119 119.448 51.6687C119.649 51.2183 119.448 50.6679 118.995 50.4677C118.543 50.2676 117.99 50.4677 117.789 50.9181C117.538 51.3684 117.789 51.9189 118.241 52.119Z" fill="#D4D4D4"/>
<path d="M101.485 39.0425C101.616 38.5626 101.332 38.0674 100.85 37.9365C100.368 37.8055 99.8706 38.0884 99.7391 38.5683C99.6076 39.0482 99.8917 39.5434 100.374 39.6743C100.856 39.8053 101.353 39.5224 101.485 39.0425Z" fill="#D4D4D4"/>
<path d="M95.4225 40.6097C95.8749 40.3595 96.0257 39.809 95.8246 39.4087C95.5733 38.9583 95.0204 38.8082 94.6184 39.0084C94.166 39.2586 94.0152 39.809 94.2163 40.2093C94.4173 40.6597 94.9702 40.8599 95.4225 40.6097Z" fill="#D4D4D4"/>
<path d="M107.353 39.9959C107.554 39.5401 107.345 39.009 106.887 38.8096C106.429 38.6103 105.896 38.8181 105.696 39.2739C105.495 39.7296 105.704 40.2608 106.162 40.4601C106.62 40.6595 107.153 40.4517 107.353 39.9959Z" fill="#D4D4D4"/>
<path d="M86.7747 44.8216L85.5664 46.0247L85.7086 46.1662L86.9169 44.9632L86.7747 44.8216Z" fill="#B9B9B9"/>
<path d="M83.6136 49.7813L82.4053 50.9844L82.5474 51.1259L83.7558 49.9229L83.6136 49.7813Z" fill="#B9B9B9"/>
<path d="M90.3226 41.3858L89.1143 42.5889L89.2564 42.7304L90.4647 41.5274L90.3226 41.3858Z" fill="#B9B9B9"/>
<path d="M82.9808 61.2362L81.7725 62.4392L81.9146 62.5807L83.123 61.3777L82.9808 61.2362Z" fill="#B9B9B9"/>
<path d="M84.9124 66.8058L83.7041 68.0088L83.8463 68.1503L85.0546 66.9473L84.9124 66.8058Z" fill="#B9B9B9"/>
<path d="M82.5814 55.4576L81.373 56.6606L81.5152 56.8022L82.7235 55.5991L82.5814 55.4576Z" fill="#B9B9B9"/>
<path d="M93.2464 74.451L92.0381 75.6541L92.1802 75.7956L93.3886 74.5926L93.2464 74.451Z" fill="#B9B9B9"/>
<path d="M98.806 76.3111L97.5977 77.5142L97.7398 77.6557L98.9482 76.4527L98.806 76.3111Z" fill="#B9B9B9"/>
<path d="M88.4036 71.1627L87.1953 72.3657L87.3375 72.5073L88.5458 71.3042L88.4036 71.1627Z" fill="#B9B9B9"/>
<path d="M110.131 74.3929L108.923 75.5959L109.065 75.7375L110.273 74.5344L110.131 74.3929Z" fill="#B9B9B9"/>
<path d="M114.761 71.2635L113.553 72.4666L113.695 72.6081L114.903 71.405L114.761 71.2635Z" fill="#B9B9B9"/>
<path d="M104.618 75.9593L103.41 77.1624L103.552 77.3039L104.761 76.1009L104.618 75.9593Z" fill="#B9B9B9"/>
<path d="M119.736 61.4671L118.527 62.6702L118.67 62.8117L119.878 61.6087L119.736 61.4671Z" fill="#B9B9B9"/>
<path d="M120.388 56.0782L119.18 57.2812L119.322 57.4228L120.53 56.2198L120.388 56.0782Z" fill="#B9B9B9"/>
<path d="M117.904 66.8006L116.695 68.0037L116.837 68.1452L118.046 66.9422L117.904 66.8006Z" fill="#B9B9B9"/>
<path d="M116.73 45.5894L115.521 46.7925L115.664 46.934L116.872 45.731L116.73 45.5894Z" fill="#B9B9B9"/>
<path d="M112.592 41.4911L111.384 42.6941L111.526 42.8356L112.734 41.6326L112.592 41.4911Z" fill="#B9B9B9"/>
<path d="M119.116 50.6031L117.907 51.8062L118.049 51.9477L119.258 50.7447L119.116 50.6031Z" fill="#B9B9B9"/>
<path d="M101.198 38.1624L99.9893 39.3655L100.131 39.507L101.34 38.304L101.198 38.1624Z" fill="#B9B9B9"/>
<path d="M95.5452 39.1197L94.3369 40.3228L94.4791 40.4643L95.6874 39.2613L95.5452 39.1197Z" fill="#B9B9B9"/>
<path d="M107.058 38.9688L105.85 40.1719L105.992 40.3134L107.2 39.1104L107.058 38.9688Z" fill="#B9B9B9"/>
<path opacity="0.33" d="M156.439 2.62949C156.439 2.62949 151.463 -1.42376 130.605 1.97897C108.541 5.53182 94.5182 19.0426 84.9687 28.4502C72.6047 40.6099 52.2994 68.5823 42.6494 92.3514C42.6494 92.3514 87.0797 -0.422953 156.439 2.62949Z" fill="white"/>
<path opacity="0.33" d="M45.2124 94.8033L43.001 96.9551L42.2471 96.2045L44.4083 94.0527L45.2124 94.8033Z" fill="white"/>
<g opacity="0.48">
<mask id="mask4_5521_98683" style="mask-type:luminance" maskUnits="userSpaceOnUse" x="42" y="0" width="117" height="117">
<path d="M157.293 28.3001C160.51 7.53342 156.388 2.62949 156.388 2.62949C156.388 2.62949 151.413 -1.42376 130.554 1.97897C108.49 5.53182 94.4674 19.0426 84.918 28.4502C75.0669 38.158 60.1395 57.9238 49.5848 77.5896C46.921 82.5936 44.5588 87.5475 42.5986 92.3514L54.8622 104.311L67.0252 116.421C90.899 106.663 118.894 86.1965 131.007 73.8366C140.406 64.2789 153.926 50.2677 157.293 28.3001Z" fill="white"/>
</mask>
<g mask="url(#mask4_5521_98683)">
<path d="M67.0752 116.421C67.0752 116.421 155.684 71.7348 156.438 2.62939L181.418 13.5381L98.689 140.44C98.689 140.44 82.0026 134.185 67.0752 116.421Z" fill="url(#paint13_linear_5521_98683)"/>
</g>
</g>
<path d="M67.0752 116.421L68.8343 122.776C68.8343 122.776 85.8726 114.419 96.3268 100.908C96.3268 100.858 77.4289 112.117 67.0752 116.421Z" fill="url(#paint14_linear_5521_98683)"/>
<path opacity="0.33" d="M59.3861 141.841C64.6132 136.737 66.5734 131.783 66.9252 130.832C66.8247 131.032 66.6739 131.433 66.2718 132.083C65.1158 134.235 63.3567 136.537 60.894 139.239C57.7275 142.692 53.2041 147.295 52.5005 149.297C52.3999 149.697 52.4502 149.998 52.6512 150.148C52.6512 150.198 53.5559 147.496 59.3861 141.841Z" fill="white"/>
</g>
<defs>
<linearGradient id="paint0_linear_5521_98683" x1="-10.9819" y1="168.969" x2="40.6899" y2="120.084" gradientUnits="userSpaceOnUse">
<stop stop-color="#FF8533"/>
<stop offset="0.9964" stop-color="#FFD052"/>
</linearGradient>
<linearGradient id="paint1_linear_5521_98683" x1="12.7317" y1="146.923" x2="44.5756" y2="115.455" gradientUnits="userSpaceOnUse">
<stop offset="0.00355872" stop-color="#FFD052"/>
<stop offset="1" stop-color="#FFE9AE"/>
</linearGradient>
<linearGradient id="paint2_linear_5521_98683" x1="72.4565" y1="131.151" x2="42.7077" y2="82.3087" gradientUnits="userSpaceOnUse">
<stop stop-color="#767B7F"/>
<stop offset="1" stop-color="#A3A3A3"/>
</linearGradient>
<linearGradient id="paint3_linear_5521_98683" x1="92.6492" y1="31.1384" x2="127.88" y2="114.713" gradientUnits="userSpaceOnUse">
<stop offset="0.00355872" stop-color="#EEF4FA"/>
<stop offset="1" stop-color="#CDDEED"/>
</linearGradient>
<linearGradient id="paint4_linear_5521_98683" x1="97.4967" y1="40.3922" x2="127.385" y2="111.294" gradientUnits="userSpaceOnUse">
<stop offset="0.00355872" stop-color="#EEF4FA"/>
<stop offset="1" stop-color="#CDDEED"/>
</linearGradient>
<linearGradient id="paint5_linear_5521_98683" x1="40.8676" y1="74.5458" x2="72.7343" y2="114.036" gradientUnits="userSpaceOnUse">
<stop stop-color="#C7C7C7"/>
<stop offset="1" stop-color="#A3A3A3"/>
</linearGradient>
<linearGradient id="paint6_linear_5521_98683" x1="64.1717" y1="93.8242" x2="70.6753" y2="113.965" gradientUnits="userSpaceOnUse">
<stop stop-color="#1D262D"/>
<stop offset="1" stop-color="#1D262D" stop-opacity="0"/>
</linearGradient>
<linearGradient id="paint7_linear_5521_98683" x1="126.031" y1="10.9861" x2="126.031" y2="58.4741" gradientUnits="userSpaceOnUse">
<stop stop-color="#333F45"/>
<stop offset="1" stop-color="#121A1E"/>
</linearGradient>
<linearGradient id="paint8_linear_5521_98683" x1="105.188" y1="67.0932" x2="118.652" y2="95.4088" gradientUnits="userSpaceOnUse">
<stop stop-color="#1D262D"/>
<stop offset="0.6767" stop-color="#1D262D" stop-opacity="0.3233"/>
<stop offset="1" stop-color="#1D262D" stop-opacity="0"/>
</linearGradient>
<linearGradient id="paint9_linear_5521_98683" x1="91.2708" y1="35.0753" x2="117.712" y2="97.2037" gradientUnits="userSpaceOnUse">
<stop stop-color="#C7C7C7"/>
<stop offset="1" stop-color="#A3A3A3"/>
</linearGradient>
<linearGradient id="paint10_linear_5521_98683" x1="88.0975" y1="38.6751" x2="119.386" y2="86.7008" gradientUnits="userSpaceOnUse">
<stop stop-color="#ADE5FF"/>
<stop offset="1" stop-color="#76C9F0"/>
</linearGradient>
<linearGradient id="paint11_linear_5521_98683" x1="116.25" y1="44.9078" x2="82.6862" y2="67.2303" gradientUnits="userSpaceOnUse">
<stop stop-color="#F9FBFC"/>
<stop offset="1" stop-color="#F9FBFC" stop-opacity="0"/>
</linearGradient>
<linearGradient id="paint12_linear_5521_98683" x1="120.562" y1="51.3922" x2="86.9986" y2="73.7147" gradientUnits="userSpaceOnUse">
<stop stop-color="#F9FBFC"/>
<stop offset="1" stop-color="#F9FBFC" stop-opacity="0"/>
</linearGradient>
<linearGradient id="paint13_linear_5521_98683" x1="181.295" y1="103.129" x2="108.891" y2="57.7174" gradientUnits="userSpaceOnUse">
<stop stop-color="#1D262D"/>
<stop offset="1" stop-color="#1D262D" stop-opacity="0"/>
</linearGradient>
<linearGradient id="paint14_linear_5521_98683" x1="77.4437" y1="100.372" x2="84.9014" y2="117.152" gradientUnits="userSpaceOnUse">
<stop stop-color="#1D262D"/>
<stop offset="1" stop-color="#1D262D" stop-opacity="0"/>
</linearGradient>
<clipPath id="clip0_5521_98683">
<rect width="180.837" height="159.628" fill="white" transform="translate(0.581055 0.62793)"/>
</clipPath>
</defs>
</svg>
