<svg width="22" height="22" viewBox="0 0 22 22" fill="none" xmlns="http://www.w3.org/2000/svg">
<path d="M16.5 1.83325H5.5C3.97833 1.83325 2.75 3.05242 2.75 4.55575V14.5566C2.75 16.0599 3.97833 17.2883 5.5 17.2883H6.19667C6.92083 17.2883 7.62667 17.5724 8.14 18.0858L9.7075 19.6349C10.4225 20.3408 11.5775 20.3408 12.2925 19.6349L13.86 18.0858C14.3733 17.5724 15.0792 17.2883 15.8033 17.2883H16.5C18.0217 17.2883 19.25 16.0599 19.25 14.5566V4.55575C19.25 3.05242 18.0217 1.83325 16.5 1.83325ZM11 5.08742C11.99 5.08742 12.7875 5.89409 12.7875 6.87492C12.7875 7.84659 12.0175 8.62575 11.0642 8.66242C11.0275 8.66242 10.9725 8.66242 10.9267 8.66242C9.96417 8.62575 9.20333 7.84659 9.20333 6.87492C9.2125 5.89409 10.01 5.08742 11 5.08742ZM13.5208 13.4658C12.1367 14.3916 9.86333 14.3916 8.47917 13.4658C7.26 12.6591 7.26 11.3208 8.47917 10.5049C9.8725 9.57909 12.1458 9.57909 13.5208 10.5049C14.74 11.3208 14.74 12.6499 13.5208 13.4658Z" fill="#797979"/>
</svg>
