<svg width="22" height="22" viewBox="0 0 22 22" fill="none" xmlns="http://www.w3.org/2000/svg">
<path d="M11 1.83334C8.59833 1.83334 6.64583 3.78584 6.64583 6.18751C6.64583 8.54334 8.48833 10.45 10.89 10.5325C10.9633 10.5233 11.0367 10.5233 11.0917 10.5325C11.11 10.5325 11.1192 10.5325 11.1375 10.5325C11.1467 10.5325 11.1467 10.5325 11.1558 10.5325C13.5025 10.45 15.345 8.54334 15.3542 6.18751C15.3542 3.78584 13.4017 1.83334 11 1.83334Z" fill="#797979"/>
<path d="M15.6567 12.9708C13.0992 11.2658 8.92833 11.2658 6.3525 12.9708C5.18833 13.75 4.54667 14.8042 4.54667 15.9317C4.54667 17.0592 5.18833 18.1042 6.34333 18.8742C7.62667 19.7358 9.31333 20.1667 11 20.1667C12.6867 20.1667 14.3733 19.7358 15.6567 18.8742C16.8117 18.095 17.4533 17.05 17.4533 15.9133C17.4442 14.7858 16.8117 13.7408 15.6567 12.9708Z" fill="#797979"/>
</svg>
