<svg width="60" height="60" viewBox="0 0 60 60" fill="none" xmlns="http://www.w3.org/2000/svg">
<g filter="url(#filter0_d_106_67)">
<circle cx="30.0001" cy="28" r="14" fill="#00937D"/>
<circle cx="30.0001" cy="28" r="14.5" stroke="white"/>
</g>
<path d="M36.4999 25.3333C36.4999 25.6067 36.2733 25.8333 35.9999 25.8333H23.9999C23.7266 25.8333 23.4999 25.6067 23.4999 25.3333C23.4999 25.06 23.7266 24.8333 23.9999 24.8333H24.6799L24.9333 23.6267C25.1733 22.46 25.6733 21.3867 27.6599 21.3867H32.3399C34.3266 21.3867 34.8266 22.46 35.0666 23.6267L35.3199 24.8333H35.9999C36.2733 24.8333 36.4999 25.06 36.4999 25.3333Z" fill="white"/>
<path d="M36.7866 29.1067C36.6866 28.0067 36.3933 26.8333 34.2533 26.8333H25.7466C23.6066 26.8333 23.3199 28.0067 23.2133 29.1067L22.8399 33.1667C22.7933 33.6733 22.9599 34.18 23.3066 34.56C23.6599 34.9467 24.1599 35.1667 24.6933 35.1667H25.9466C27.0266 35.1667 27.2333 34.5467 27.3666 34.14L27.4999 33.74C27.6533 33.28 27.6933 33.1667 28.2933 33.1667H31.7066C32.3066 33.1667 32.3266 33.2333 32.4999 33.74L32.6333 34.14C32.7666 34.5467 32.9733 35.1667 34.0533 35.1667H35.3066C35.8333 35.1667 36.3399 34.9467 36.6933 34.56C37.0399 34.18 37.2066 33.6733 37.1599 33.1667L36.7866 29.1067ZM27.9999 30.5H25.9999C25.7266 30.5 25.4999 30.2733 25.4999 30C25.4999 29.7267 25.7266 29.5 25.9999 29.5H27.9999C28.2733 29.5 28.4999 29.7267 28.4999 30C28.4999 30.2733 28.2733 30.5 27.9999 30.5ZM33.9999 30.5H31.9999C31.7266 30.5 31.4999 30.2733 31.4999 30C31.4999 29.7267 31.7266 29.5 31.9999 29.5H33.9999C34.2733 29.5 34.4999 29.7267 34.4999 30C34.4999 30.2733 34.2733 30.5 33.9999 30.5Z" fill="white"/>
<defs>
<filter id="filter0_d_106_67" x="6.10352e-05" y="0" width="60" height="60" filterUnits="userSpaceOnUse" color-interpolation-filters="sRGB">
<feFlood flood-opacity="0" result="BackgroundImageFix"/>
<feColorMatrix in="SourceAlpha" type="matrix" values="0 0 0 0 0 0 0 0 0 0 0 0 0 0 0 0 0 0 127 0" result="hardAlpha"/>
<feOffset dy="2"/>
<feGaussianBlur stdDeviation="7.5"/>
<feComposite in2="hardAlpha" operator="out"/>
<feColorMatrix type="matrix" values="0 0 0 0 0 0 0 0 0 0 0 0 0 0 0 0 0 0 0.1 0"/>
<feBlend mode="normal" in2="BackgroundImageFix" result="effect1_dropShadow_106_67"/>
<feBlend mode="normal" in="SourceGraphic" in2="effect1_dropShadow_106_67" result="shape"/>
</filter>
</defs>
</svg>
