<svg width="22" height="22" viewBox="0 0 22 22" fill="none" xmlns="http://www.w3.org/2000/svg">
<path d="M19.3873 5.65518C19.0115 5.45352 18.2232 5.24268 17.1507 5.99435L15.8032 6.94768C15.7023 4.09685 14.4648 2.97852 11.4582 2.97852H5.95817C2.82317 2.97852 1.604 4.19768 1.604 7.33268V14.666C1.604 16.7743 2.74984 19.0202 5.95817 19.0202H11.4582C14.4648 19.0202 15.7023 17.9018 15.8032 15.051L17.1507 16.0043C17.719 16.4077 18.214 16.536 18.6082 16.536C18.9473 16.536 19.2132 16.4352 19.3873 16.3435C19.7632 16.151 20.3957 15.6285 20.3957 14.3177V7.68102C20.3957 6.37018 19.7632 5.84768 19.3873 5.65518ZM10.0832 10.431C9.139 10.431 8.35984 9.66102 8.35984 8.70768C8.35984 7.75435 9.139 6.98435 10.0832 6.98435C11.0273 6.98435 11.8065 7.75435 11.8065 8.70768C11.8065 9.66102 11.0273 10.431 10.0832 10.431Z" fill="white"/>
</svg>
