<svg width="22" height="22" viewBox="0 0 22 22" fill="none" xmlns="http://www.w3.org/2000/svg">
    <path d="M16.4998 15.3551C16.3531 15.3551 16.2156 15.3092 16.0873 15.2176C15.7848 14.9884 15.7206 14.5576 15.9498 14.2551C17.3889 12.3392 17.3889 9.66257 15.9498 7.74673C15.7206 7.44423 15.7848 7.0134 16.0873 6.78423C16.3898 6.55507 16.8206 6.61923 17.0498 6.92173C18.8464 9.3234 18.8464 12.6784 17.0498 15.0801C16.9123 15.2634 16.7106 15.3551 16.4998 15.3551Z" fill="#00937D"/>
    <path d="M18.1775 17.6454C18.0308 17.6454 17.8933 17.5996 17.765 17.5079C17.4625 17.2788 17.3983 16.8479 17.6275 16.5454C20.075 13.2821 20.075 8.7171 17.6275 5.45377C17.3983 5.15127 17.4625 4.72043 17.765 4.49127C18.0675 4.2621 18.4983 4.32627 18.7275 4.62877C21.5417 8.37793 21.5417 13.6213 18.7275 17.3704C18.5992 17.5538 18.3883 17.6454 18.1775 17.6454Z" fill="#00937D"/>
    <path d="M12.8518 3.46556C11.8252 2.89723 10.5143 3.04389 9.176 3.87806L6.49933 5.55556C6.316 5.66556 6.10516 5.72973 5.89433 5.72973H5.04183H4.5835C2.36516 5.72973 1.146 6.94889 1.146 9.16723V12.8339C1.146 15.0522 2.36516 16.2714 4.5835 16.2714H5.04183H5.89433C6.10516 16.2714 6.316 16.3356 6.49933 16.4456L9.176 18.1231C9.98266 18.6272 10.771 18.8747 11.5043 18.8747C11.981 18.8747 12.4393 18.7647 12.8518 18.5356C13.8693 17.9672 14.4377 16.7847 14.4377 15.2081V6.79306C14.4377 5.21639 13.8693 4.03389 12.8518 3.46556Z" fill="#00937D"/>
</svg>
    