<svg width="34" height="34" viewBox="0 0 34 34" fill="none" xmlns="http://www.w3.org/2000/svg">
<path fill-rule="evenodd" clip-rule="evenodd" d="M4.18038 14.6093C3.63777 14.1069 3.60361 13.2507 4.10423 12.7062C5.73246 10.9354 7.68632 9.52272 9.87809 8.5383C12.1528 7.51662 14.5916 7 17.0832 7C19.575 7 22.0138 7.51657 24.2886 8.5383C26.4804 9.52277 28.4343 10.9354 30.0626 12.7063C30.5631 13.2507 30.5288 14.1069 29.9862 14.6093C29.738 14.8391 29.4141 14.966 29.0764 14.966C28.7009 14.966 28.3444 14.8096 28.0897 14.5327C25.2636 11.4593 21.2512 9.69331 17.0832 9.69331C12.9153 9.69331 8.90303 11.4594 6.07678 14.5327C5.57626 15.0769 4.72277 15.1114 4.18038 14.6093ZM17.0832 22.4365C18.3375 22.4365 19.3572 23.4597 19.3572 24.7184C19.3572 25.9769 18.3374 27 17.0832 27C15.829 27 14.8092 25.9769 14.8092 24.7184C14.8093 23.4598 15.8289 22.4365 17.0832 22.4365ZM20.7627 21.7556C19.8614 20.6305 18.5223 19.9841 17.0832 19.9841C15.6443 19.9841 14.305 20.6304 13.4039 21.7556C12.9416 22.3329 12.0924 22.4257 11.5171 21.9617C10.9417 21.4976 10.8494 20.6456 11.3119 20.0682C12.7241 18.3053 14.8288 17.2909 17.0832 17.2909C19.3378 17.2909 21.4425 18.3052 22.8548 20.0682C23.3173 20.6456 23.2248 21.4975 22.6495 21.9617C22.411 22.1541 22.1153 22.2587 21.8092 22.2587C21.4019 22.2587 21.0179 22.0741 20.7627 21.7556ZM24.4431 18.1569C24.9303 18.7066 25.7899 18.757 26.3377 18.2683C26.8856 17.7795 26.9359 16.9167 26.4488 16.367C24.0726 13.6858 20.6594 12.1454 17.0832 12.1454C13.5071 12.1454 10.0939 13.6859 7.71772 16.367C7.23059 16.9167 7.2809 17.7795 7.82876 18.2683C8.07491 18.4878 8.3909 18.6085 8.72022 18.6085C9.10418 18.6085 9.46829 18.4449 9.72345 18.1569C11.5906 16.05 14.273 14.8387 17.0832 14.8387C19.8935 14.8387 22.5761 16.0499 24.4431 18.1569Z" fill="#797979"/>
<circle cx="25.834" cy="20.75" r="5.91667" fill="#404040" stroke="white"/>
<g clip-path="url(#clip0_5078_32426)">
<path d="M28.8961 18.5209H22.7711C22.6676 18.5209 22.5836 18.6048 22.5836 18.7084V19.7709H29.0836V18.7084C29.0836 18.6048 28.9997 18.5209 28.8961 18.5209ZM27.3336 19.5209H27.0836C26.9801 19.5209 26.8961 19.4369 26.8961 19.3334C26.8961 19.2298 26.9801 19.1459 27.0836 19.1459H27.3336C27.4372 19.1459 27.5211 19.2298 27.5211 19.3334C27.5211 19.4369 27.4372 19.5209 27.3336 19.5209ZM28.0836 19.5209H27.8336C27.7301 19.5209 27.6461 19.4369 27.6461 19.3334C27.6461 19.2298 27.7301 19.1459 27.8336 19.1459H28.0836C28.1872 19.1459 28.2711 19.2298 28.2711 19.3334C28.2711 19.4369 28.1872 19.5209 28.0836 19.5209Z" fill="white"/>
<path d="M25.8336 20.8959C25.3856 20.8959 25.0211 21.2603 25.0211 21.7084C25.0211 22.1564 25.3856 22.5209 25.8336 22.5209C26.2816 22.5209 26.6461 22.1564 26.6461 21.7084C26.6461 21.2603 26.2816 20.8959 25.8336 20.8959ZM25.8336 22.0959C25.6199 22.0959 25.4461 21.922 25.4461 21.7084C25.4461 21.4947 25.6199 21.3209 25.8336 21.3209C26.0473 21.3209 26.2211 21.4947 26.2211 21.7084C26.2211 21.922 26.0473 22.0959 25.8336 22.0959Z" fill="white"/>
<path d="M23.1461 20.1459V20.9584C23.1461 21.6762 23.4257 22.3511 23.9333 22.8587C24.4409 23.3663 25.1158 23.6459 25.8336 23.6459C26.5515 23.6459 27.2264 23.3663 27.734 22.8587C28.2416 22.3511 28.5211 21.6762 28.5211 20.9584V20.1459H23.1461ZM25.8336 22.8959C25.1788 22.8959 24.6461 22.3631 24.6461 21.7084C24.6461 21.0536 25.1788 20.5209 25.8336 20.5209C26.4884 20.5209 27.0211 21.0536 27.0211 21.7084C27.0211 22.3631 26.4884 22.8959 25.8336 22.8959Z" fill="white"/>
</g>
<defs>
<clipPath id="clip0_5078_32426">
<rect width="6.5" height="6.5" fill="white" transform="translate(22.5836 17.8334)"/>
</clipPath>
</defs>
</svg>
