<svg width="142" height="115" viewBox="0 0 142 115" fill="none" xmlns="http://www.w3.org/2000/svg">
<g clip-path="url(#clip0_3968_21964)">
<circle cx="83.5" cy="83.5" r="83.5" fill="url(#paint0_linear_3968_21964)" fill-opacity="0.4"/>
<circle cx="83.5" cy="83.5" r="83.5" fill="url(#paint1_linear_3968_21964)" fill-opacity="0.2"/>
<mask id="mask0_3968_21964" style="mask-type:alpha" maskUnits="userSpaceOnUse" x="0" y="0" width="167" height="167">
<circle cx="83.5" cy="83.5" r="83.5" fill="#F9FFFF"/>
</mask>
<g mask="url(#mask0_3968_21964)">
<path opacity="0.59" d="M157 60.4028H-10V86.4771H157V60.4028Z" fill="url(#paint2_linear_3968_21964)"/>
<path opacity="0.59" d="M157 57.4634H-10V59.9795H157V57.4634Z" fill="url(#paint3_linear_3968_21964)"/>
<path d="M157 57.4634H-10V57.7306H157V57.4634Z" fill="#FDFFFF"/>
<path d="M157 58.9556H-10V59.2228H157V58.9556Z" fill="#FDFFFF"/>
<path d="M157 58.4878H-10V58.9554H157V58.4878Z" fill="#ABB5B4"/>
<path d="M157 59.9795H-10V60.4471H157V59.9795Z" fill="#ABB5B4"/>
<path d="M79.334 109.834C105.86 109.834 127.363 107.153 127.363 103.845C127.363 100.537 105.86 97.855 79.334 97.855C52.8082 97.855 31.3048 100.537 31.3048 103.845C31.3048 107.153 52.8082 109.834 79.334 109.834Z" fill="#C7D6D5"/>
<path d="M79.3337 109.055C102.441 109.055 121.173 106.722 121.173 103.845C121.173 100.967 102.441 98.6343 79.3337 98.6343C56.2266 98.6343 37.4946 100.967 37.4946 103.845C37.4946 106.722 56.2266 109.055 79.3337 109.055Z" fill="#AABAB9"/>
<path d="M79.3338 108.186C99.883 108.186 116.541 106.242 116.541 103.844C116.541 101.446 99.883 99.5024 79.3338 99.5024C58.7846 99.5024 42.1262 101.446 42.1262 103.844C42.1262 106.242 58.7846 108.186 79.3338 108.186Z" fill="#F9FFFF"/>
<path opacity="0.3" fill-rule="evenodd" clip-rule="evenodd" d="M115.072 94.404C115.072 96.4302 101.177 96.5193 83.0523 96.5193C64.9272 96.5193 49.4519 96.4302 49.4519 94.404C49.4519 92.3777 64.1479 90.73 82.273 90.73C100.398 90.73 115.072 92.3777 115.072 94.404Z" fill="#90A19F"/>
<path fill-rule="evenodd" clip-rule="evenodd" d="M55.1966 89.1263L54.7067 95.0715C54.6845 95.3387 54.4618 95.5168 54.2169 95.5168H53.1258C52.8586 95.5168 52.6359 95.2941 52.6359 95.0269V89.104H55.1966V89.1263Z" fill="#232B3D"/>
<path fill-rule="evenodd" clip-rule="evenodd" d="M59.0711 86.8997L58.6926 92.8449C58.6703 93.1121 58.5144 93.2902 58.314 93.2902H57.4679C57.2452 93.2902 57.0894 93.0676 57.0894 92.8004V86.8774H59.0711V86.8997Z" fill="#232B3D"/>
<path fill-rule="evenodd" clip-rule="evenodd" d="M108.482 89.1263L108.971 95.0715C108.994 95.3387 109.216 95.5168 109.461 95.5168H110.552C110.82 95.5168 111.042 95.2941 111.042 95.0269V89.104H108.482V89.1263Z" fill="#232B3D"/>
<path fill-rule="evenodd" clip-rule="evenodd" d="M104.629 86.8997L105.008 92.8449C105.03 93.1121 105.186 93.2902 105.386 93.2902H106.232C106.455 93.2902 106.611 93.0676 106.611 92.8004V86.8774H104.629V86.8997Z" fill="#232B3D"/>
<path fill-rule="evenodd" clip-rule="evenodd" d="M58.6929 61.0708H71.9416H105.854C106.9 61.0708 107.769 61.9392 107.769 62.9857V81.4671H81.5162H56.778V62.9857C56.778 61.9169 57.6241 61.0708 58.6929 61.0708Z" fill="url(#paint4_linear_3968_21964)"/>
<path fill-rule="evenodd" clip-rule="evenodd" d="M105.854 61.0708H71.9416H58.6929C57.6464 61.0708 56.778 61.9392 56.778 62.9857V64.3663C56.778 63.3197 57.6464 62.4513 58.6929 62.4513H71.9416H105.854C106.9 62.4513 107.769 63.3197 107.769 64.3663V62.9857C107.746 61.9169 106.9 61.0708 105.854 61.0708Z" fill="url(#paint5_linear_3968_21964)"/>
<path fill-rule="evenodd" clip-rule="evenodd" d="M109.127 68.6407C112.467 69.1083 114.114 69.4869 114.181 70.5334C114.025 70.6893 113.803 71.2459 113.491 72.2034L110.04 70.4443L107.034 69.2865C107.412 68.5962 108.436 68.5962 109.127 68.6407Z" fill="url(#paint6_linear_3968_21964)"/>
<path fill-rule="evenodd" clip-rule="evenodd" d="M113.491 72.2036C112.979 73.7622 112.266 76.3674 111.309 80.0192C111.309 80.0192 109.884 79.173 107.034 77.503C107.034 77.503 107.034 74.7642 107.034 69.2866L110.485 70.6226L113.491 72.2036Z" fill="url(#paint7_linear_3968_21964)"/>
<path fill-rule="evenodd" clip-rule="evenodd" d="M57.4899 69.3091C57.4899 74.7867 57.4899 77.5255 57.4899 77.5255C54.6397 79.1955 53.2147 80.0416 53.2147 80.0416C52.2795 76.3899 51.5447 73.7624 51.0325 72.226L54.0163 70.6451L57.4899 69.3091Z" fill="url(#paint8_linear_3968_21964)"/>
<path fill-rule="evenodd" clip-rule="evenodd" d="M81.516 73.5398C85.7466 73.5398 110.374 73.2058 109.973 76.3009V85.2076H81.516H54.551V76.3009C54.1502 73.2058 77.2853 73.5398 81.516 73.5398Z" fill="url(#paint9_linear_3968_21964)"/>
<path fill-rule="evenodd" clip-rule="evenodd" d="M54.5507 77.0131H109.95V76.3229C110.351 73.2278 85.724 73.5618 81.4933 73.5618C77.2627 73.5618 54.1276 73.2278 54.5284 76.3229V77.0131H54.5507Z" fill="url(#paint10_linear_3968_21964)"/>
<path fill-rule="evenodd" clip-rule="evenodd" d="M110.44 69.9771H113.624C113.936 69.9771 114.181 70.222 114.181 70.5337V88.9928C114.181 89.9948 113.357 90.8187 112.355 90.8187H109.95V70.4447C109.973 70.1775 110.173 69.9771 110.44 69.9771Z" fill="url(#paint11_linear_3968_21964)"/>
<path fill-rule="evenodd" clip-rule="evenodd" d="M55.7762 68.552C56.4887 68.4852 57.1122 68.6188 57.4907 69.309L54.0394 70.645L51.0557 72.226C50.7439 71.2685 50.5213 70.7118 50.3654 70.556C50.3431 69.5094 52.4362 68.9973 55.7762 68.552Z" fill="url(#paint12_linear_3968_21964)"/>
<path fill-rule="evenodd" clip-rule="evenodd" d="M109.973 85.23V90.8189H81.5161H54.5512V85.23H81.5161H109.973Z" fill="url(#paint13_linear_3968_21964)"/>
<path fill-rule="evenodd" clip-rule="evenodd" d="M50.8997 69.9771H54.0839C54.3511 69.9771 54.5515 70.1775 54.5515 70.4447V90.8187H52.1467C51.1447 90.8187 50.3208 89.9948 50.3208 88.9928V70.5337C50.3431 70.222 50.588 69.9771 50.8997 69.9771Z" fill="url(#paint14_linear_3968_21964)"/>
<path opacity="0.3" fill-rule="evenodd" clip-rule="evenodd" d="M107.011 103.644C107.011 105.67 94.8984 107.073 79.9352 107.073C64.972 107.073 52.8589 105.67 52.8589 103.644C52.8589 101.618 64.972 100.905 79.9352 100.905C94.8984 100.905 107.011 101.618 107.011 103.644Z" fill="#90A19F"/>
<path fill-rule="evenodd" clip-rule="evenodd" d="M60.1398 91.5752V104.49C60.1398 105.158 59.5831 105.715 58.9151 105.715C58.2471 105.715 57.6904 105.158 57.6904 104.49V91.5752H60.1398Z" fill="#232B3D"/>
<path fill-rule="evenodd" clip-rule="evenodd" d="M100.977 91.5752V104.49C100.977 105.158 100.421 105.715 99.7526 105.715C99.0846 105.715 98.5279 105.158 98.5279 104.49V91.5752H100.977Z" fill="#232B3D"/>
<path fill-rule="evenodd" clip-rule="evenodd" d="M63.4579 91.1753V101.841C63.4579 102.398 63.0125 102.843 62.4559 102.843C61.8992 102.843 61.4539 102.398 61.4539 101.841V91.1753H63.4579Z" fill="#232B3D"/>
<path fill-rule="evenodd" clip-rule="evenodd" d="M97.2138 91.1753V101.841C97.2138 102.398 96.7684 102.843 96.2118 102.843C95.6551 102.843 95.2098 102.398 95.2098 101.841V91.1753H97.2138Z" fill="#232B3D"/>
<path fill-rule="evenodd" clip-rule="evenodd" d="M60.4073 86.5654H79.334H98.2606L105.809 90.4844H79.334H52.8589L60.4073 86.5654Z" fill="#F9FFFF"/>
<path fill-rule="evenodd" clip-rule="evenodd" d="M52.8589 92.6447H105.809V90.4849H52.8589V92.6447Z" fill="url(#paint15_linear_3968_21964)"/>
<path d="M32.418 5.09229H-10V54.1458H32.418V5.09229Z" fill="url(#paint16_linear_3968_21964)"/>
<path fill-rule="evenodd" clip-rule="evenodd" d="M-10 11.3711H-5.81387V20.7009H-1.7168V25.889H5.80933V14.1099H8.59267V10.2578H12.0885V14.1767H14.6715V24.1967H19.8819V29.2513V50.6941H-10V11.3711Z" fill="#C7D6D5"/>
<path fill-rule="evenodd" clip-rule="evenodd" d="M-10 23.9741H1.24467L8.74853 31.478H6.366V44.1032H12.1553V35.2633H19.1693V27.5368H23.2219V14.3326H17.0763L23.3332 8.07568H32.418V54.1454H-10V23.9741Z" fill="#B6C2C0"/>
<path d="M33.2196 54.1455H-10V54.858H33.2196V54.1455Z" fill="#232B3D"/>
<path d="M33.2196 41.3643H-10V42.0768H33.2196V41.3643Z" fill="#232B3D"/>
<path d="M33.2196 28.561H-10V29.2736H33.2196V28.561Z" fill="#232B3D"/>
<path d="M33.2196 15.7578H-10V16.4703H33.2196V15.7578Z" fill="#232B3D"/>
<path d="M33.2885 54.8563L33.2885 5.09033H32.4201L32.4201 54.8563H33.2885Z" fill="#232B3D"/>
<path d="M17.0724 54.8617L17.0724 5.0957H16.2041L16.2041 54.8617H17.0724Z" fill="#232B3D"/>
<path d="M0.857666 54.8666L0.857666 5.10059H-0.0107327L-0.0107327 54.8666H0.857666Z" fill="#232B3D"/>
<path d="M91.5801 32.124H73.5663V54.4575H91.5801V32.124Z" fill="#94A2A2"/>
<path d="M91.2678 31.5225H73.2541V53.8559H91.2678V31.5225Z" fill="#232B3D"/>
<path d="M90.5111 32.2798H74.0115V53.0991H90.5111V32.2798Z" fill="#FDFFFF"/>
<path d="M88.7523 34.0386H75.7708V51.3398H88.7523V34.0386Z" fill="url(#paint17_linear_3968_21964)"/>
<path d="M75.7708 35.33C75.7708 35.33 76.1939 37.4899 77.2181 38.5364C78.2647 39.583 79.378 39.7611 79.7565 41.3198C80.1351 42.9007 79.4671 43.1679 79.9124 43.8359C80.3577 44.5039 82.4285 44.8156 82.6735 45.8844C82.9184 46.9532 83.4973 46.9755 82.6735 47.7771C81.8496 48.5564 81.4488 48.3338 81.0035 48.935C80.5581 49.5362 81.4711 51.1839 82.0723 51.3175C82.0723 51.3175 81.2484 49.9592 82.2504 49.4916C83.2524 49.024 84.1431 49.937 85.3455 48.7123C86.5479 47.4876 87.0155 45.7508 86.0135 44.5707C85.0115 43.3683 83.6532 42.7894 84.6997 41.8096C85.7463 40.8299 86.8596 41.676 87.3717 40.1396C87.8839 38.6032 87.1936 38.5587 87.7503 37.8239C88.3069 37.0668 88.7523 36.7551 88.7523 36.7551V34.0386H75.7708V35.33Z" fill="url(#paint18_linear_3968_21964)"/>
<path d="M89.5534 10.5918H75.5922V28.4051H89.5534V10.5918Z" fill="#94A2A2"/>
<path d="M89.2421 9.99072H75.2809V27.8041H89.2421V9.99072Z" fill="#232B3D"/>
<path d="M88.4844 10.7476H76.0374V27.0468H88.4844V10.7476Z" fill="#FDFFFF"/>
<path d="M86.7256 12.5068H77.7967V25.2879H86.7256V12.5068Z" fill="#77AFA4"/>
<path d="M82.0942 15.1118C82.0942 15.1118 80.9363 15.045 80.0902 15.958C79.2441 16.8709 79.5558 18.2737 80.5355 18.8972C81.5153 19.5429 83.2298 19.0308 83.9869 20.3222C84.7439 21.6137 84.3431 22.6825 83.2298 22.7493C82.1387 22.8161 81.1145 22.3485 81.3371 21.7028C81.5598 21.0793 82.2723 20.9457 82.2723 20.9457C82.2723 20.9457 81.9161 22.4598 82.6954 21.9922C83.4747 21.5246 84.2318 20.9902 83.3189 20.5226C82.4059 20.055 82.0274 21.0793 80.4242 19.7433C78.821 18.385 77.7522 16.8932 78.7319 15.8689C79.7117 14.8669 80.0011 13.5754 81.3594 14.043C82.7177 14.5106 83.0294 15.1341 83.0739 15.2677C83.0962 15.379 82.0942 15.1118 82.0942 15.1118Z" fill="#F9FFFF"/>
<path d="M80.8918 15.9577C80.8918 15.9577 81.7825 15.3342 82.2501 15.646C82.74 15.9577 82.3169 16.6925 83.3857 16.648C84.4545 16.6257 84.9221 16.2249 84.8553 15.5346C84.7885 14.8444 84.5658 14.065 83.7642 13.9537C82.9404 13.8424 82.74 14.1986 82.2501 13.9537C81.7602 13.7088 81.3372 13.308 81.3372 13.308C81.3372 13.308 81.404 13.5974 82.5618 13.5306C83.7197 13.4638 84.4545 12.8181 85.078 13.9537C85.7014 15.0893 86.1468 15.3788 85.7014 16.2917C85.2561 17.2269 85.501 17.6945 84.3209 17.6945C83.1408 17.6945 82.5841 17.9394 82.2278 17.3828C81.8716 16.8261 81.9829 16.4476 81.3149 16.6034C80.6692 16.7593 80.6246 17.4273 80.3797 17.2269C80.2684 17.071 80.8918 15.9577 80.8918 15.9577Z" fill="#F9FFFF"/>
<path d="M81.1141 17.5616C81.1141 17.5616 81.938 17.2054 81.7376 17.7398C81.5594 18.2742 81.2922 18.7863 80.9805 18.341C80.6688 17.8956 81.1141 17.5616 81.1141 17.5616Z" fill="#F2D98D"/>
<path d="M83.3406 15.5129C83.3406 15.5129 84.0531 15.9359 84.1199 15.3347C84.1867 14.7335 84.0531 14.355 83.7191 14.3995C83.3851 14.4218 82.9175 14.7781 83.1402 15.023C83.3851 15.2902 83.3406 15.5129 83.3406 15.5129Z" fill="#F2D98D"/>
<path d="M71.3843 16.1362H50.654V44.4594H71.3843V16.1362Z" fill="#94A2A2"/>
<path d="M71.0726 15.5127H50.3423V43.8359H71.0726V15.5127Z" fill="#232B3D"/>
<path d="M70.3371 16.2695H51.0987V43.0786H70.3371V16.2695Z" fill="#FDFFFF"/>
<path d="M68.5787 18.0288H52.8585V41.3197H68.5787V18.0288Z" fill="url(#paint19_linear_3968_21964)"/>
<path d="M68.5787 31.9453C68.5787 31.9453 68.0666 32.1234 66.7083 32.1011C65.3501 32.0789 63.8805 30.8764 63.2347 30.6315C62.589 30.3866 62.1437 30.9655 61.5202 31.0101C61.3421 31.0323 61.2085 30.9432 61.1417 30.8319C61.3421 30.4088 61.5647 30.0303 61.7874 29.8077C62.5667 29.0506 63.5465 28.3603 63.9473 27.9373C64.3481 27.5142 64.0141 26.7571 63.6355 26.6235C63.257 26.4676 63.0121 26.6235 63.0121 26.6235C61.9655 27.002 61.4979 28.8502 60.5627 29.2287C59.6275 29.6073 59.7166 29.0729 59.3603 28.1377C59.0041 27.2025 57.8462 27.0466 55.9313 26.2005C54.0163 25.3543 53.4597 23.1499 53.4597 23.1499C53.237 22.571 52.8585 20.7451 52.8585 20.7451V23.3281C52.8585 23.8625 53.2147 24.7308 53.2147 24.7308L52.8585 24.1965V29.1397C52.8585 29.1397 53.2593 29.4736 53.5487 29.9412C53.8382 30.4088 53.571 30.1194 53.8159 30.2753C54.0609 30.4534 54.2167 30.3421 54.4617 30.6983C54.7066 31.0546 54.4617 30.921 54.5953 31.3218C54.7289 31.7226 55.7086 31.4999 55.9981 31.9007C56.2875 32.3238 55.8199 33.0586 54.907 34.016C53.9941 34.9735 52.8585 35.018 52.8585 35.018V38.269C52.8585 38.269 55.3078 36.4654 56.7106 35.6415C57.579 35.1517 58.4474 34.5505 59.0931 34.0829C59.249 34.1719 59.3381 34.1942 59.8725 34.2833C60.5405 34.3946 60.4069 34.1719 60.8077 34.1051C61.2085 34.0383 61.0303 34.2165 61.8542 34.3946C62.6781 34.5727 62.4109 34.2165 62.9898 34.7286C63.5465 35.2407 64.5707 35.5302 64.5707 35.5302L64.0809 34.7063C64.0809 34.7063 64.7266 34.9958 65.9735 35.3298C67.2205 35.6638 68.3561 35.4857 68.3561 35.4857C68.3561 35.4857 68.1557 35.4857 67.4431 35.2853C66.7306 35.0849 65.7731 34.1719 65.7731 34.1719C65.7731 34.1719 66.3075 34.4614 66.9978 34.6618C67.6881 34.8399 68.5787 34.7731 68.5787 34.7731V34.5282C67.7103 34.3723 66.6415 33.7043 66.6415 33.7043C67.5322 33.8602 68.5787 33.7043 68.5787 33.7043V33.0586C68.4674 33.0586 67.6213 32.8359 67.6213 32.8359C68.1334 32.7469 68.5787 32.6132 68.5787 32.6132V31.9453Z" fill="#F9FFFF"/>
<path d="M63.5022 27.2027C63.5022 27.2027 63.658 26.891 63.9252 26.8687C64.2147 26.8465 64.9495 26.6015 65.6843 26.223C66.4191 25.8444 66.575 25.8444 66.6195 25.889C66.664 25.9558 66.6195 26.1116 66.3078 26.2675C65.996 26.4234 64.7046 27.2472 64.326 27.5812C63.9475 27.9152 63.8139 27.7817 63.5022 27.7594C63.1904 27.7371 63.0568 27.8484 63.0568 27.6926C63.0791 27.559 63.5022 27.2027 63.5022 27.2027Z" fill="#F2D98D"/>
<path d="M114.492 16.1357H93.7615V44.4589H114.492V16.1357Z" fill="#94A2A2"/>
<path d="M114.18 15.5127H93.45V43.8359H114.18V15.5127Z" fill="#232B3D"/>
<path d="M113.424 16.2695H94.1853V43.0786H113.424V16.2695Z" fill="#FDFFFF"/>
<path d="M111.664 18.0288H95.9442V41.3197H111.664V18.0288Z" fill="url(#paint20_linear_3968_21964)"/>
<path d="M95.9442 31.0323C95.9442 31.0323 97.7701 28.4049 98.7275 27.8037C99.685 27.2025 99.2842 27.0912 99.9745 26.8685C100.665 26.6458 101.043 26.6458 102.246 27.8037C103.448 28.9615 103.381 29.5182 104.25 29.4959C105.14 29.4737 105.185 29.9635 106.009 29.4959C106.833 29.0283 106.142 29.8968 107.322 28.8947C108.525 27.8927 109.215 26.913 109.905 27.0466C110.596 27.2025 111.664 28.4494 111.664 28.4494V41.3196H95.9442V31.0323Z" fill="url(#paint21_linear_3968_21964)"/>
<path opacity="0.3" d="M19.0654 101.167C33.1948 100.576 44.5754 98.3351 44.4845 96.1604C44.3937 93.9857 32.8659 92.7012 18.7365 93.2913C4.60701 93.8815 -6.77354 96.1228 -6.6827 98.2975C-6.59187 100.472 4.93594 101.757 19.0654 101.167Z" fill="#90A19F"/>
<path fill-rule="evenodd" clip-rule="evenodd" d="M1.3562 67.3276C1.84607 66.9936 3.33793 66.0361 3.33793 66.0361L23.5783 67.7952C24.2018 67.7952 24.7362 68.2628 24.8253 68.8863L26.3394 78.7281L0.799532 78.9285L0.443265 68.864C0.376465 68.0847 0.621398 67.862 1.3562 67.3276Z" fill="url(#paint22_linear_3968_21964)"/>
<path fill-rule="evenodd" clip-rule="evenodd" d="M40.2559 91.6873L39.7883 97.3208C39.7661 97.5657 39.5657 97.7438 39.3207 97.7438H38.2965C38.0293 97.7438 37.8289 97.5434 37.8289 97.2762V91.665H40.2559V91.6873Z" fill="#232B3D"/>
<path fill-rule="evenodd" clip-rule="evenodd" d="M29.2559 88.659L28.8551 94.2925C28.8328 94.5374 28.6547 94.7155 28.432 94.7155H27.5191C27.2964 94.7155 27.096 94.5151 27.096 94.2479V88.6367H29.2559V88.659Z" fill="#232B3D"/>
<path fill-rule="evenodd" clip-rule="evenodd" d="M26.4056 72.3818H29.3894C29.5452 72.3818 29.7011 72.3818 29.8347 72.4264L41.1016 75.0093L40.0996 76.8574L25.4482 74.0073C25.4704 73.5174 25.8935 72.3818 26.4056 72.3818Z" fill="url(#paint23_linear_3968_21964)"/>
<path fill-rule="evenodd" clip-rule="evenodd" d="M38.1628 75.8561L38.6304 93.1127L25.9384 89.1938L25.4708 73.2954L38.1628 75.8561Z" fill="url(#paint24_linear_3968_21964)"/>
<path fill-rule="evenodd" clip-rule="evenodd" d="M9.90612 94.3149L9.43852 100.082C9.41625 100.327 9.21585 100.527 8.97092 100.527H7.92439C7.65719 100.527 7.45679 100.305 7.45679 100.06V94.3372H9.90612V94.3149Z" fill="#232B3D"/>
<path fill-rule="evenodd" clip-rule="evenodd" d="M39.3875 93.0456L10.6858 95.161L11.1089 90.3291L38.0738 88.3696L39.3875 93.0456Z" fill="url(#paint25_linear_3968_21964)"/>
<path fill-rule="evenodd" clip-rule="evenodd" d="M28.6328 77.125L35.6691 78.8618C37.0719 79.2181 38.0739 80.4873 38.0739 81.9346V89.0377L11.1089 90.3291V80.4205L6.34387 77.4813L28.6328 77.125Z" fill="url(#paint26_linear_3968_21964)"/>
<path fill-rule="evenodd" clip-rule="evenodd" d="M11.1089 83.0481L38.0739 81.9348C38.0516 80.4875 37.0719 79.2405 35.6913 78.8843L28.6551 77.1475L6.34387 77.5037L11.1089 80.4429V83.0481Z" fill="url(#paint27_linear_3968_21964)"/>
<path fill-rule="evenodd" clip-rule="evenodd" d="M4.04982 65.8359L25.8712 66.1922C26.4946 66.1922 27.029 66.6598 27.1181 67.2833L28.6322 77.1251L3.69356 78.0826L2.73609 67.2387C2.66929 66.4817 3.27049 65.8359 4.04982 65.8359Z" fill="url(#paint28_linear_3968_21964)"/>
<path fill-rule="evenodd" clip-rule="evenodd" d="M2.89169 68.9304C3.04755 68.3737 3.55969 67.9506 4.18315 67.9506L26.2717 68.3069C26.6948 68.3069 27.1401 68.5296 27.385 68.8413L27.1401 67.2604C27.051 66.6369 26.5166 66.1693 25.8932 66.1693L4.07182 65.813C3.31475 65.7908 2.69129 66.4588 2.75809 67.2158L2.89169 68.9304Z" fill="url(#paint29_linear_3968_21964)"/>
<path fill-rule="evenodd" clip-rule="evenodd" d="M-4.25573 72.3378H-1.2052C-1.04933 72.3156 -0.893466 72.3378 -0.737599 72.3824L10.8411 74.7426L9.77227 76.9248L-5.19093 73.2953C-5.2132 72.7386 -4.79013 72.3378 -4.25573 72.3378Z" fill="url(#paint30_linear_3968_21964)"/>
<path fill-rule="evenodd" clip-rule="evenodd" d="M7.76882 75.8781L8.34775 95.1388L-4.74505 90.7523L-5.21265 73.2729L7.76882 75.8781Z" fill="url(#paint31_linear_3968_21964)"/>
<path fill-rule="evenodd" clip-rule="evenodd" d="M8.68155 74.9201L10.8191 74.7197C11.2645 74.7197 11.4649 75.076 11.4649 75.5213V94.3589C11.4649 94.8043 11.1086 95.1605 10.6633 95.1605H8.57022C8.12488 95.1605 7.76862 94.8043 7.76862 94.3589V76.078C7.76862 75.6104 7.76862 75.0983 8.68155 74.9201Z" fill="url(#paint32_linear_3968_21964)"/>
<path fill-rule="evenodd" clip-rule="evenodd" d="M38.8527 75.1874L40.9458 75.0093C41.3911 75.0093 41.5915 75.3433 41.5915 75.7886L41.4579 92.3327C41.4579 92.7781 41.1016 93.1343 40.6563 93.1343H38.6078C38.1624 93.1343 37.8062 92.7781 37.8062 92.3327L37.9398 76.323C37.962 75.8554 37.962 75.3433 38.8527 75.1874Z" fill="url(#paint33_linear_3968_21964)"/>
<path opacity="0.3" fill-rule="evenodd" clip-rule="evenodd" d="M152.97 89.5049H119.102C117.677 89.5049 116.542 90.6405 116.542 92.0655C116.542 93.4906 117.677 94.6262 119.102 94.6262H152.97C154.395 94.6262 155.531 93.4906 155.531 92.0655C155.531 90.6405 154.395 89.5049 152.97 89.5049Z" fill="#90A19F"/>
<path fill-rule="evenodd" clip-rule="evenodd" d="M123.822 74.2744L123.511 90.9299C123.511 91.3975 123.8 91.776 124.156 91.776C124.49 91.776 124.758 91.442 124.802 91.0189L125.381 74.2744H123.822Z" fill="#232B3D"/>
<path fill-rule="evenodd" clip-rule="evenodd" d="M120.816 75.1648L120.482 92.5996C120.482 93.0895 120.772 93.468 121.15 93.468C121.484 93.468 121.774 93.134 121.818 92.6664L122.42 75.1426H120.816V75.1648Z" fill="#232B3D"/>
<path fill-rule="evenodd" clip-rule="evenodd" d="M153.838 61.7388H136.047H118.256C117.989 61.7388 117.744 61.9614 117.744 62.2509V74.787C117.744 75.0542 117.966 75.2992 118.256 75.2992H136.047H153.838C154.105 75.2992 154.35 75.0765 154.35 74.787V62.2509C154.328 61.9614 154.105 61.7388 153.838 61.7388Z" fill="#50534A"/>
<path fill-rule="evenodd" clip-rule="evenodd" d="M153.838 61.7388H136.047H118.256C117.989 61.7388 117.744 61.9614 117.744 62.2509V63.0302C117.744 62.763 117.966 62.5181 118.256 62.5181H136.047H153.838C154.105 62.5181 154.35 62.7408 154.35 63.0302V62.2509C154.328 61.9614 154.105 61.7388 153.838 61.7388Z" fill="url(#paint34_linear_3968_21964)"/>
<path fill-rule="evenodd" clip-rule="evenodd" d="M119.347 63.7646V73.2725H136.047H152.747V63.7646H136.047H119.347Z" fill="#F9FFFF"/>
<path fill-rule="evenodd" clip-rule="evenodd" d="M140.278 67.127C139.498 67.127 138.875 67.7504 138.875 68.5298C138.875 69.3091 139.498 69.9326 140.278 69.9326C141.057 69.9326 141.68 69.3091 141.68 68.5298C141.68 67.7504 141.057 67.127 140.278 67.127Z" fill="#50534A"/>
<path fill-rule="evenodd" clip-rule="evenodd" d="M131.816 67.127C131.037 67.127 130.414 67.7504 130.414 68.5298C130.414 69.3091 131.037 69.9326 131.816 69.9326C132.596 69.9326 133.219 69.3091 133.219 68.5298C133.219 67.7504 132.596 67.127 131.816 67.127Z" fill="#50534A"/>
<path d="M136.559 63.7646H135.512V73.2502H136.559V63.7646Z" fill="#50534A"/>
<path fill-rule="evenodd" clip-rule="evenodd" d="M123.177 57.6632H124.112L123.868 52.965L123.4 52.6978L123.177 57.6632Z" fill="#50534A"/>
<path fill-rule="evenodd" clip-rule="evenodd" d="M125.582 56.0605H123.689H121.796C121.529 56.0605 121.307 56.2832 121.329 56.5281L121.975 61.4045C121.997 61.6049 122.197 61.7831 122.442 61.7831H123.689H124.936C125.159 61.7831 125.359 61.6272 125.404 61.4045L126.049 56.5281C126.072 56.2609 125.871 56.0605 125.582 56.0605Z" fill="url(#paint35_linear_3968_21964)"/>
<path fill-rule="evenodd" clip-rule="evenodd" d="M128.209 49.2021C127.808 48.5119 126.739 49.4916 126.472 48.4896C126.205 47.4876 127.541 47.7103 127.385 46.6192C127.207 45.5281 126.249 45.7063 126.049 45.0828C125.848 44.4593 126.873 43.9027 126.583 43.1679C126.294 42.4331 125.047 43.0343 124.735 42.5221C124.401 41.9877 124.423 42.1436 124.69 41.0748C124.958 40.006 124.49 39.761 124.112 39.5384C123.733 39.2934 123.577 38.9817 123.577 38.4918C123.577 38.002 123.444 38.1578 123.444 38.1578C123.444 38.1578 122.174 38.6477 121.395 40.1173C120.616 41.5869 121.684 41.2752 121.662 42.1213C121.618 42.9675 119.703 42.9229 119.591 44.0585C119.48 45.1941 120.438 45.0828 120.415 46.018C120.393 46.9532 118.923 46.8864 118.923 48.1111C118.946 49.3357 119.725 49.5584 120.215 50.1373C120.705 50.7163 120.237 50.8721 120.237 50.8721C120.237 50.8721 118.589 51.2061 118.701 52.3863C118.812 53.5664 120.237 53.9895 120.237 53.9895C120.237 53.9895 120.66 55.0137 121.774 55.036C122.887 55.036 123.622 53.9672 123.622 53.9672C123.622 53.9672 123.666 54.5684 124.468 54.5907C125.269 54.6129 125.047 53.9004 125.448 53.4105C125.848 52.9207 126.427 53.0543 127.518 52.4976C128.609 51.9409 128.231 51.696 127.986 50.8944C127.763 50.0928 128.609 49.8924 128.209 49.2021Z" fill="url(#paint36_linear_3968_21964)"/>
<path fill-rule="evenodd" clip-rule="evenodd" d="M128.12 52.0967C127.563 52.2971 126.495 52.3861 125.76 52.3193C124.825 52.2303 125.314 53.0541 124.624 52.9205C123.934 52.7869 123.978 52.5197 123.377 52.4307C122.776 52.3416 123.066 52.5865 122.108 52.6979C121.151 52.8092 121.396 52.3193 120.839 52.1635C120.282 52.0076 120.438 52.2748 119.547 52.2748C119.236 52.2748 118.968 52.208 118.746 52.1189C118.724 52.208 118.724 52.2971 118.746 52.4084C118.857 53.5885 120.282 54.0116 120.282 54.0116C120.282 54.0116 120.705 55.0359 121.819 55.0581C122.932 55.0581 123.667 53.9893 123.667 53.9893C123.667 53.9893 123.711 54.5905 124.513 54.6128C125.314 54.6351 125.092 53.9225 125.493 53.4327C125.893 52.9428 126.472 53.0764 127.563 52.5197C127.808 52.3416 128.009 52.2303 128.12 52.0967Z" fill="url(#paint37_linear_3968_21964)"/>
<path fill-rule="evenodd" clip-rule="evenodd" d="M123.51 51.0721C125.804 51.2725 126.85 50.3151 127.451 49.8475C128.053 49.3576 127.518 49.4244 126.85 49.5357C126.205 49.6471 125.67 49.3131 124.958 48.9791C124.245 48.6451 123.488 48.6673 121.039 47.9771C119.97 47.6876 119.48 47.4649 119.235 47.3091C119.035 47.5095 118.901 47.7544 118.901 48.1329C118.923 49.3576 119.703 49.5803 120.193 50.1592C120.46 50.4709 120.437 50.6713 120.371 50.7827C121.15 51.0276 121.551 50.894 123.51 51.0721Z" fill="url(#paint38_linear_3968_21964)"/>
<path fill-rule="evenodd" clip-rule="evenodd" d="M126.451 48.0887C126.607 47.5543 127.519 47.5543 127.364 46.6414C127.319 46.2851 127.163 46.0624 127.007 45.9065C126.295 45.5948 125.404 45.2163 124.647 44.9714C123.133 44.437 123.534 45.4167 123.088 45.0159C122.643 44.6151 121.619 46.0179 121.886 46.4187C121.886 46.4187 121.708 46.8417 123.489 47.3984C125.048 47.8883 125.694 48.3114 126.451 48.0887Z" fill="url(#paint39_linear_3968_21964)"/>
<path fill-rule="evenodd" clip-rule="evenodd" d="M125.27 43.5687L121.284 42.6558C120.705 43.0343 119.659 43.2347 119.592 44.0808C119.503 44.9492 120.037 45.1051 120.282 45.5282C121.173 45.9735 122.398 46.4856 123.132 46.4188C125.715 46.1739 125.27 43.5687 125.27 43.5687Z" fill="url(#paint40_linear_3968_21964)"/>
<path fill-rule="evenodd" clip-rule="evenodd" d="M121.752 42.7002C121.752 42.7002 122.509 44.4147 124.112 44.5929C124.847 44.6819 125.604 44.6151 126.183 44.3925C126.405 44.0139 126.717 43.6354 126.539 43.1678C126.494 43.0565 126.428 42.9897 126.361 42.9229C126.094 42.9451 125.626 43.0119 124.913 43.1233C123.689 43.3682 121.752 42.7002 121.752 42.7002Z" fill="url(#paint41_linear_3968_21964)"/>
<path fill-rule="evenodd" clip-rule="evenodd" d="M140.567 50.3602C140.946 50.182 141.213 49.8035 141.213 49.3804V46.2186C141.213 46.1518 141.28 46.085 141.347 46.085H142.727C142.794 46.085 142.861 46.1518 142.861 46.2186V49.3804C142.861 49.8035 143.128 50.182 143.506 50.3602C144.108 50.6496 144.508 51.2508 144.508 51.9411V60.6251C144.508 61.2486 143.996 61.7384 143.395 61.7384H140.701C140.077 61.7384 139.587 61.2263 139.587 60.6251V51.9411C139.565 51.2286 139.966 50.6274 140.567 50.3602Z" fill="url(#paint42_linear_3968_21964)"/>
<path opacity="0.58" fill-rule="evenodd" clip-rule="evenodd" d="M140.901 50.3602C141.19 50.182 141.391 49.8035 141.391 49.3804V46.2186C141.391 46.1518 141.435 46.085 141.48 46.085H142.081V49.4472C142.081 49.9148 141.97 50.3156 141.836 50.516C141.613 50.8278 141.458 51.4735 141.458 52.2306V61.6494C141.458 61.6939 141.458 61.7384 141.458 61.7607H140.99C140.522 61.7607 140.122 61.2486 140.122 60.6474V51.9634C140.144 51.2286 140.456 50.6274 140.901 50.3602Z" fill="url(#paint43_linear_3968_21964)"/>
<path d="M135.935 55.5703H129.767V61.7382H135.935V55.5703Z" fill="white"/>
<path d="M136.158 53.9668H129.567V55.7481H136.158V53.9668Z" fill="#77AFA4"/>
<path fill-rule="evenodd" clip-rule="evenodd" d="M130.702 53.5889C130.636 53.5889 130.591 53.6334 130.591 53.7002V54.3014C130.591 54.3682 130.636 54.4127 130.702 54.4127C130.769 54.4127 130.814 54.3682 130.814 54.3014V53.7002C130.814 53.6334 130.769 53.5889 130.702 53.5889Z" fill="#B9BABC"/>
<path opacity="0.58" fill-rule="evenodd" clip-rule="evenodd" d="M130.658 54.4127V53.8115C130.658 53.7447 130.702 53.7002 130.769 53.7002C130.791 53.7002 130.791 53.7002 130.814 53.7002C130.814 53.6334 130.769 53.5889 130.702 53.5889C130.636 53.5889 130.591 53.6334 130.591 53.7002V54.3014C130.591 54.3459 130.613 54.3905 130.658 54.4127Z" fill="url(#paint44_linear_3968_21964)"/>
<path fill-rule="evenodd" clip-rule="evenodd" d="M131.571 53.5889C131.504 53.5889 131.46 53.6334 131.46 53.7002V54.3014C131.46 54.3682 131.504 54.4127 131.571 54.4127C131.638 54.4127 131.682 54.3682 131.682 54.3014V53.7002C131.682 53.6334 131.615 53.5889 131.571 53.5889Z" fill="#B9BABC"/>
<path opacity="0.58" fill-rule="evenodd" clip-rule="evenodd" d="M131.527 54.4127V53.8115C131.527 53.7447 131.571 53.7002 131.638 53.7002C131.66 53.7002 131.66 53.7002 131.682 53.7002C131.682 53.6334 131.638 53.5889 131.571 53.5889C131.504 53.5889 131.46 53.6334 131.46 53.7002V54.3014C131.438 54.3459 131.482 54.3905 131.527 54.4127Z" fill="url(#paint45_linear_3968_21964)"/>
<path fill-rule="evenodd" clip-rule="evenodd" d="M132.418 53.5889C132.351 53.5889 132.306 53.6334 132.306 53.7002V54.3014C132.306 54.3682 132.351 54.4127 132.418 54.4127C132.485 54.4127 132.529 54.3682 132.529 54.3014V53.7002C132.529 53.6334 132.485 53.5889 132.418 53.5889Z" fill="#B9BABC"/>
<path opacity="0.58" fill-rule="evenodd" clip-rule="evenodd" d="M132.373 54.4127V53.8115C132.373 53.7447 132.418 53.7002 132.485 53.7002C132.507 53.7002 132.507 53.7002 132.529 53.7002C132.529 53.6334 132.485 53.5889 132.418 53.5889C132.351 53.5889 132.306 53.6334 132.306 53.7002V54.3014C132.306 54.3459 132.351 54.3905 132.373 54.4127Z" fill="url(#paint46_linear_3968_21964)"/>
<path fill-rule="evenodd" clip-rule="evenodd" d="M133.286 53.5889C133.219 53.5889 133.175 53.6334 133.175 53.7002V54.3014C133.175 54.3682 133.219 54.4127 133.286 54.4127C133.353 54.4127 133.397 54.3682 133.397 54.3014V53.7002C133.397 53.6334 133.353 53.5889 133.286 53.5889Z" fill="#B9BABC"/>
<path opacity="0.58" fill-rule="evenodd" clip-rule="evenodd" d="M133.241 54.4127V53.8115C133.241 53.7447 133.286 53.7002 133.353 53.7002C133.375 53.7002 133.375 53.7002 133.397 53.7002C133.397 53.6334 133.353 53.5889 133.286 53.5889C133.219 53.5889 133.175 53.6334 133.175 53.7002V54.3014C133.175 54.3459 133.197 54.3905 133.241 54.4127Z" fill="url(#paint47_linear_3968_21964)"/>
<path fill-rule="evenodd" clip-rule="evenodd" d="M134.154 53.5889C134.087 53.5889 134.043 53.6334 134.043 53.7002V54.3014C134.043 54.3682 134.087 54.4127 134.154 54.4127C134.221 54.4127 134.265 54.3682 134.265 54.3014V53.7002C134.265 53.6334 134.221 53.5889 134.154 53.5889Z" fill="#B9BABC"/>
<path opacity="0.58" fill-rule="evenodd" clip-rule="evenodd" d="M134.109 54.4127V53.8115C134.109 53.7447 134.154 53.7002 134.221 53.7002C134.243 53.7002 134.243 53.7002 134.265 53.7002C134.265 53.6334 134.221 53.5889 134.154 53.5889C134.087 53.5889 134.043 53.6334 134.043 53.7002V54.3014C134.043 54.3459 134.065 54.3905 134.109 54.4127Z" fill="url(#paint48_linear_3968_21964)"/>
<path fill-rule="evenodd" clip-rule="evenodd" d="M135.022 53.5889C134.956 53.5889 134.911 53.6334 134.911 53.7002V54.3014C134.911 54.3682 134.956 54.4127 135.022 54.4127C135.089 54.4127 135.134 54.3682 135.134 54.3014V53.7002C135.134 53.6334 135.067 53.5889 135.022 53.5889Z" fill="#B9BABC"/>
<path opacity="0.58" fill-rule="evenodd" clip-rule="evenodd" d="M134.978 54.4127V53.8115C134.978 53.7447 135.022 53.7002 135.089 53.7002C135.111 53.7002 135.111 53.7002 135.134 53.7002C135.134 53.6334 135.089 53.5889 135.022 53.5889C134.955 53.5889 134.911 53.6334 134.911 53.7002V54.3014C134.889 54.3459 134.933 54.3905 134.978 54.4127Z" fill="url(#paint49_linear_3968_21964)"/>
<path d="M135.935 55.748H129.767V56.1043H135.935V55.748Z" fill="#E4E4E5"/>
<path d="M131.883 57.2183H131.237V60.1129H131.883V57.2183Z" fill="#77AFA4"/>
<path fill-rule="evenodd" clip-rule="evenodd" d="M132.484 57.2183V57.864H133.82V58.3316H132.484V60.0907H134.465V59.4449H133.129V58.9773H134.465V57.2183H132.484Z" fill="#77AFA4"/>
</g>
<path d="M55 112L27.5 104.5L23.5 81L40 59.5L86.5 53.5L117.5 59.5L132 97L101.5 111L55 112Z" fill="#00937D" fill-opacity="0.2" stroke="#00937D"/>
<circle cx="117.5" cy="59.5" r="1.5" fill="#00937D"/>
<circle cx="86.5" cy="53.5" r="1.5" fill="#00937D"/>
<circle cx="131.5" cy="96.5" r="1.5" fill="#00937D"/>
<circle cx="23.5" cy="80.5" r="1.5" fill="#00937D"/>
<circle cx="101.5" cy="111.5" r="1.5" fill="#00937D"/>
<circle cx="54.5" cy="112.5" r="1.5" fill="#00937D"/>
<circle cx="27.5" cy="104.5" r="1.5" fill="#00937D"/>
<circle cx="40.5" cy="59.5" r="1.5" fill="#00937D"/>
</g>
<defs>
<linearGradient id="paint0_linear_3968_21964" x1="83.5" y1="-57" x2="84.5" y2="48" gradientUnits="userSpaceOnUse">
<stop stop-color="#00937D"/>
<stop offset="1" stop-color="#00937D" stop-opacity="0"/>
</linearGradient>
<linearGradient id="paint1_linear_3968_21964" x1="-5" y1="133" x2="22" y2="104.5" gradientUnits="userSpaceOnUse">
<stop/>
<stop offset="1" stop-opacity="0"/>
</linearGradient>
<linearGradient id="paint2_linear_3968_21964" x1="73.5476" y1="71.1113" x2="73.4007" y2="78.3066" gradientUnits="userSpaceOnUse">
<stop stop-color="#BDCACA"/>
<stop offset="1" stop-color="#AABAB9"/>
</linearGradient>
<linearGradient id="paint3_linear_3968_21964" x1="-10" y1="58.7162" x2="157" y2="58.7162" gradientUnits="userSpaceOnUse">
<stop stop-color="#BDCACA"/>
<stop offset="1" stop-color="#AABAB9"/>
</linearGradient>
<linearGradient id="paint4_linear_3968_21964" x1="82.2648" y1="74.3338" x2="82.2648" y2="63.7901" gradientUnits="userSpaceOnUse">
<stop stop-color="#4D7470"/>
<stop offset="1" stop-color="#77AFA4"/>
</linearGradient>
<linearGradient id="paint5_linear_3968_21964" x1="82.2648" y1="61.1965" x2="82.2648" y2="62.6111" gradientUnits="userSpaceOnUse">
<stop stop-color="#B2EDE1"/>
<stop offset="1" stop-color="#B2EDE1" stop-opacity="0"/>
</linearGradient>
<linearGradient id="paint6_linear_3968_21964" x1="110.429" y1="70.4558" x2="110.781" y2="69.4167" gradientUnits="userSpaceOnUse">
<stop stop-color="#609189"/>
<stop offset="1" stop-color="#B2EDE1"/>
</linearGradient>
<linearGradient id="paint7_linear_3968_21964" x1="110.275" y1="70.8162" x2="109.537" y2="73.4172" gradientUnits="userSpaceOnUse">
<stop stop-color="#609189"/>
<stop offset="1" stop-color="#4D7470"/>
</linearGradient>
<linearGradient id="paint8_linear_3968_21964" x1="53.937" y1="70.7969" x2="55.208" y2="74.2847" gradientUnits="userSpaceOnUse">
<stop stop-color="#609189"/>
<stop offset="1" stop-color="#4D7470"/>
</linearGradient>
<linearGradient id="paint9_linear_3968_21964" x1="82.2644" y1="81.3002" x2="82.2644" y2="75.3094" gradientUnits="userSpaceOnUse">
<stop stop-color="#4D7470"/>
<stop offset="1" stop-color="#77AFA4"/>
</linearGradient>
<linearGradient id="paint10_linear_3968_21964" x1="82.264" y1="72.6261" x2="82.264" y2="78.0524" gradientUnits="userSpaceOnUse">
<stop stop-color="#B2EDE1"/>
<stop offset="1" stop-color="#B2EDE1" stop-opacity="0"/>
</linearGradient>
<linearGradient id="paint11_linear_3968_21964" x1="112.075" y1="84.9652" x2="112.075" y2="61.7847" gradientUnits="userSpaceOnUse">
<stop stop-color="#4D7470"/>
<stop offset="1" stop-color="#77AFA4"/>
</linearGradient>
<linearGradient id="paint12_linear_3968_21964" x1="54.0298" y1="70.4442" x2="53.7539" y2="69.1437" gradientUnits="userSpaceOnUse">
<stop stop-color="#609189"/>
<stop offset="1" stop-color="#B2EDE1"/>
</linearGradient>
<linearGradient id="paint13_linear_3968_21964" x1="82.2647" y1="90.7587" x2="82.2647" y2="85.2391" gradientUnits="userSpaceOnUse">
<stop stop-color="#4D7470"/>
<stop offset="1" stop-color="#77AFA4"/>
</linearGradient>
<linearGradient id="paint14_linear_3968_21964" x1="52.4544" y1="84.9652" x2="52.4544" y2="61.7847" gradientUnits="userSpaceOnUse">
<stop stop-color="#4D7470"/>
<stop offset="1" stop-color="#77AFA4"/>
</linearGradient>
<linearGradient id="paint15_linear_3968_21964" x1="79.2025" y1="89.9971" x2="79.3509" y2="91.7785" gradientUnits="userSpaceOnUse">
<stop stop-color="#C7D6D5"/>
<stop offset="1" stop-color="#AABAB9"/>
</linearGradient>
<linearGradient id="paint16_linear_3968_21964" x1="10.7756" y1="0.672284" x2="11.4952" y2="48.8847" gradientUnits="userSpaceOnUse">
<stop stop-color="#C7D6D5"/>
<stop offset="1" stop-color="#F9FFFF"/>
</linearGradient>
<linearGradient id="paint17_linear_3968_21964" x1="82.2642" y1="51.9585" x2="82.2642" y2="41.8978" gradientUnits="userSpaceOnUse">
<stop stop-color="#4D7470"/>
<stop offset="1" stop-color="#77AFA4"/>
</linearGradient>
<linearGradient id="paint18_linear_3968_21964" x1="82.2642" y1="30.9273" x2="82.2642" y2="38.5522" gradientUnits="userSpaceOnUse">
<stop stop-color="#C7D6D5"/>
<stop offset="1" stop-color="#F9FFFF"/>
</linearGradient>
<linearGradient id="paint19_linear_3968_21964" x1="60.7181" y1="42.574" x2="60.7181" y2="27.5748" gradientUnits="userSpaceOnUse">
<stop stop-color="#738C45"/>
<stop offset="1" stop-color="#96B06D"/>
</linearGradient>
<linearGradient id="paint20_linear_3968_21964" x1="103.81" y1="15.3425" x2="103.81" y2="27.8347" gradientUnits="userSpaceOnUse">
<stop stop-color="#C7D6D5"/>
<stop offset="1" stop-color="#F9FFFF"/>
</linearGradient>
<linearGradient id="paint21_linear_3968_21964" x1="103.81" y1="43.1604" x2="103.81" y2="35.0952" gradientUnits="userSpaceOnUse">
<stop stop-color="#738C45"/>
<stop offset="1" stop-color="#96B06D"/>
</linearGradient>
<linearGradient id="paint22_linear_3968_21964" x1="13.393" y1="69.1648" x2="13.393" y2="74.3152" gradientUnits="userSpaceOnUse">
<stop stop-color="#609189"/>
<stop offset="1" stop-color="#4D7470"/>
</linearGradient>
<linearGradient id="paint23_linear_3968_21964" x1="33.2061" y1="74.9509" x2="33.4674" y2="73.458" gradientUnits="userSpaceOnUse">
<stop stop-color="#609189"/>
<stop offset="1" stop-color="#B2EDE1"/>
</linearGradient>
<linearGradient id="paint24_linear_3968_21964" x1="32.1162" y1="75.4498" x2="32.0062" y2="88.432" gradientUnits="userSpaceOnUse">
<stop stop-color="#609189"/>
<stop offset="1" stop-color="#4D7470"/>
</linearGradient>
<linearGradient id="paint25_linear_3968_21964" x1="25.0313" y1="93.961" x2="24.882" y2="89.8556" gradientUnits="userSpaceOnUse">
<stop stop-color="#4D7470"/>
<stop offset="1" stop-color="#77AFA4"/>
</linearGradient>
<linearGradient id="paint26_linear_3968_21964" x1="22.5579" y1="85.7543" x2="22.1847" y2="79.3349" gradientUnits="userSpaceOnUse">
<stop stop-color="#4D7470"/>
<stop offset="1" stop-color="#77AFA4"/>
</linearGradient>
<linearGradient id="paint27_linear_3968_21964" x1="22.1762" y1="79.1537" x2="22.3618" y2="82.6793" gradientUnits="userSpaceOnUse">
<stop stop-color="#B2EDE1"/>
<stop offset="1" stop-color="#B2EDE1" stop-opacity="0"/>
</linearGradient>
<linearGradient id="paint28_linear_3968_21964" x1="16.2297" y1="81.6443" x2="15.4025" y2="67.0643" gradientUnits="userSpaceOnUse">
<stop stop-color="#4D7470"/>
<stop offset="1" stop-color="#77AFA4"/>
</linearGradient>
<linearGradient id="paint29_linear_3968_21964" x1="15.0207" y1="66.3269" x2="15.0578" y2="68.1453" gradientUnits="userSpaceOnUse">
<stop stop-color="#B2EDE1"/>
<stop offset="1" stop-color="#B2EDE1" stop-opacity="0"/>
</linearGradient>
<linearGradient id="paint30_linear_3968_21964" x1="2.48989" y1="75.6121" x2="2.93776" y2="73.3168" gradientUnits="userSpaceOnUse">
<stop stop-color="#609189"/>
<stop offset="1" stop-color="#B2EDE1"/>
</linearGradient>
<linearGradient id="paint31_linear_3968_21964" x1="1.40127" y1="74.7607" x2="1.73716" y2="93.7948" gradientUnits="userSpaceOnUse">
<stop stop-color="#609189"/>
<stop offset="1" stop-color="#4D7470"/>
</linearGradient>
<linearGradient id="paint32_linear_3968_21964" x1="9.82483" y1="94.7724" x2="9.48892" y2="77.5296" gradientUnits="userSpaceOnUse">
<stop stop-color="#4D7470"/>
<stop offset="1" stop-color="#77AFA4"/>
</linearGradient>
<linearGradient id="paint33_linear_3968_21964" x1="39.7156" y1="92.933" x2="39.7156" y2="79.0993" gradientUnits="userSpaceOnUse">
<stop stop-color="#4D7470"/>
<stop offset="1" stop-color="#77AFA4"/>
</linearGradient>
<linearGradient id="paint34_linear_3968_21964" x1="136.045" y1="61.6775" x2="136.045" y2="62.4017" gradientUnits="userSpaceOnUse">
<stop stop-color="#BCBC85"/>
<stop offset="1" stop-color="#7F7266" stop-opacity="0"/>
</linearGradient>
<linearGradient id="paint35_linear_3968_21964" x1="123.69" y1="56.5214" x2="124.071" y2="61.4033" gradientUnits="userSpaceOnUse">
<stop stop-color="#F2D98D"/>
<stop offset="1" stop-color="#D8A44F"/>
</linearGradient>
<linearGradient id="paint36_linear_3968_21964" x1="126.025" y1="42.1461" x2="123.326" y2="49.5496" gradientUnits="userSpaceOnUse">
<stop stop-color="#96B06D"/>
<stop offset="1" stop-color="#738C45"/>
</linearGradient>
<linearGradient id="paint37_linear_3968_21964" x1="122.955" y1="54.5116" x2="123.264" y2="52.8955" gradientUnits="userSpaceOnUse">
<stop stop-color="#596D34"/>
<stop offset="1" stop-color="#738C45"/>
</linearGradient>
<linearGradient id="paint38_linear_3968_21964" x1="122.541" y1="51.381" x2="123.272" y2="48.8603" gradientUnits="userSpaceOnUse">
<stop stop-color="#596D34"/>
<stop offset="1" stop-color="#738C45" stop-opacity="0"/>
</linearGradient>
<linearGradient id="paint39_linear_3968_21964" x1="125.727" y1="48.5175" x2="124.439" y2="46.1134" gradientUnits="userSpaceOnUse">
<stop stop-color="#596D34"/>
<stop offset="1" stop-color="#738C45" stop-opacity="0"/>
</linearGradient>
<linearGradient id="paint40_linear_3968_21964" x1="119.411" y1="46.6334" x2="122.175" y2="44.6889" gradientUnits="userSpaceOnUse">
<stop stop-color="#596D34"/>
<stop offset="1" stop-color="#738C45" stop-opacity="0"/>
</linearGradient>
<linearGradient id="paint41_linear_3968_21964" x1="125.954" y1="45.2452" x2="124.633" y2="43.5867" gradientUnits="userSpaceOnUse">
<stop stop-color="#596D34"/>
<stop offset="1" stop-color="#738C45" stop-opacity="0"/>
</linearGradient>
<linearGradient id="paint42_linear_3968_21964" x1="139.462" y1="53.9128" x2="144.695" y2="53.9128" gradientUnits="userSpaceOnUse">
<stop stop-color="#F2D98D"/>
<stop offset="1" stop-color="#D8A44F"/>
</linearGradient>
<linearGradient id="paint43_linear_3968_21964" x1="138.998" y1="52.4512" x2="141.712" y2="54.065" gradientUnits="userSpaceOnUse">
<stop stop-color="white"/>
<stop offset="1" stop-color="white" stop-opacity="0"/>
</linearGradient>
<linearGradient id="paint44_linear_3968_21964" x1="130.585" y1="53.9995" x2="130.81" y2="53.9995" gradientUnits="userSpaceOnUse">
<stop stop-color="white"/>
<stop offset="1" stop-color="white" stop-opacity="0"/>
</linearGradient>
<linearGradient id="paint45_linear_3968_21964" x1="131.448" y1="53.9995" x2="131.673" y2="53.9995" gradientUnits="userSpaceOnUse">
<stop stop-color="white"/>
<stop offset="1" stop-color="white" stop-opacity="0"/>
</linearGradient>
<linearGradient id="paint46_linear_3968_21964" x1="132.312" y1="53.9995" x2="132.536" y2="53.9995" gradientUnits="userSpaceOnUse">
<stop stop-color="white"/>
<stop offset="1" stop-color="white" stop-opacity="0"/>
</linearGradient>
<linearGradient id="paint47_linear_3968_21964" x1="133.174" y1="53.9995" x2="133.399" y2="53.9995" gradientUnits="userSpaceOnUse">
<stop stop-color="white"/>
<stop offset="1" stop-color="white" stop-opacity="0"/>
</linearGradient>
<linearGradient id="paint48_linear_3968_21964" x1="134.037" y1="53.9995" x2="134.261" y2="53.9995" gradientUnits="userSpaceOnUse">
<stop stop-color="white"/>
<stop offset="1" stop-color="white" stop-opacity="0"/>
</linearGradient>
<linearGradient id="paint49_linear_3968_21964" x1="134.899" y1="53.9995" x2="135.124" y2="53.9995" gradientUnits="userSpaceOnUse">
<stop stop-color="white"/>
<stop offset="1" stop-color="white" stop-opacity="0"/>
</linearGradient>
<clipPath id="clip0_3968_21964">
<rect width="142" height="115" fill="white"/>
</clipPath>
</defs>
</svg>
